G75*
G70*
%OFA0B0*%
%FSLAX24Y24*%
%IPPOS*%
%LPD*%
%AMOC8*
5,1,8,0,0,1.08239X$1,22.5*
%
%ADD10C,0.0000*%
%ADD11R,0.1969X0.1969*%
%ADD12R,0.1181X0.0630*%
%ADD13R,0.2250X0.1900*%
%ADD14R,0.2362X0.2362*%
%ADD15OC8,0.0660*%
%ADD16C,0.0660*%
%ADD17R,0.0500X0.0250*%
%ADD18R,0.0250X0.0500*%
%ADD19R,0.0660X0.0660*%
%ADD20C,0.0700*%
%ADD21C,0.1250*%
%ADD22C,0.0300*%
%ADD23C,0.0591*%
%ADD24C,0.1500*%
%ADD25C,0.0270*%
%ADD26C,0.0500*%
%ADD27C,0.0250*%
%ADD28C,0.0200*%
%ADD29C,0.0100*%
%ADD30OC8,0.0768*%
%ADD31C,0.0120*%
%ADD32C,0.0240*%
D10*
X000150Y000450D02*
X000150Y010450D01*
X019650Y010450D01*
X019650Y000450D01*
X000150Y000450D01*
D11*
X018400Y002200D03*
X018400Y005450D03*
X018400Y008700D03*
D12*
X013809Y007802D03*
X013809Y006348D03*
X013809Y004552D03*
X013809Y003098D03*
X013809Y001302D03*
X013809Y009598D03*
D13*
X016525Y008700D03*
X016525Y005450D03*
X016525Y002200D03*
D14*
X007650Y001800D03*
X007650Y009100D03*
D15*
X008500Y009950D03*
D16*
X000650Y009950D03*
X008500Y000950D03*
D17*
X003878Y001338D03*
X003878Y001662D03*
D18*
X002912Y002250D03*
X002588Y002250D03*
D19*
X000650Y000950D03*
D20*
X000650Y001950D03*
X000650Y002950D03*
X000650Y003950D03*
X000650Y004950D03*
X000650Y005950D03*
X000650Y006950D03*
X000650Y007950D03*
X000650Y008950D03*
D21*
X011500Y007550D02*
X011500Y001250D01*
X016525Y002200D02*
X018400Y002200D01*
X018400Y005450D02*
X016525Y005450D01*
X016525Y008700D02*
X018400Y008700D01*
D22*
X014650Y008808D02*
X012750Y008808D01*
X012750Y009107D02*
X013042Y009107D01*
X013025Y009123D02*
X013060Y009088D01*
X013100Y009061D01*
X013146Y009042D01*
X013194Y009033D01*
X013802Y009033D01*
X013802Y009590D01*
X013817Y009590D01*
X013817Y009033D01*
X014425Y009033D01*
X014473Y009042D01*
X014518Y009061D01*
X014559Y009088D01*
X014594Y009123D01*
X014622Y009164D01*
X014640Y009210D01*
X014650Y009258D01*
X014650Y009590D01*
X013817Y009590D01*
X013817Y009605D01*
X014650Y009605D01*
X014650Y009937D01*
X014640Y009986D01*
X014622Y010031D01*
X014594Y010072D01*
X014559Y010107D01*
X014518Y010134D01*
X014480Y010150D01*
X014650Y010150D01*
X014650Y002450D01*
X012750Y002450D01*
X012750Y010150D01*
X013139Y010150D01*
X013100Y010134D01*
X013060Y010107D01*
X013025Y010072D01*
X012997Y010031D01*
X012979Y009986D01*
X012969Y009937D01*
X012969Y009605D01*
X013802Y009605D01*
X013802Y009590D01*
X012969Y009590D01*
X012969Y009258D01*
X012979Y009210D01*
X012997Y009164D01*
X013025Y009123D01*
X012969Y009405D02*
X012750Y009405D01*
X012750Y009704D02*
X012969Y009704D01*
X012985Y010002D02*
X012750Y010002D01*
X013802Y009405D02*
X013817Y009405D01*
X013802Y009107D02*
X013817Y009107D01*
X013886Y008760D02*
X013733Y008760D01*
X013591Y008701D01*
X013483Y008593D01*
X013424Y008452D01*
X013424Y008367D01*
X013169Y008367D01*
X013077Y008329D01*
X013007Y008259D01*
X012969Y008167D01*
X012969Y007438D01*
X013007Y007346D01*
X013077Y007275D01*
X013169Y007237D01*
X014450Y007237D01*
X014542Y007275D01*
X014612Y007346D01*
X014650Y007438D01*
X014650Y008167D01*
X014612Y008259D01*
X014542Y008329D01*
X014450Y008367D01*
X014194Y008367D01*
X014194Y008452D01*
X014136Y008593D01*
X014028Y008701D01*
X013886Y008760D01*
X014170Y008510D02*
X014650Y008510D01*
X014632Y008211D02*
X014650Y008211D01*
X014650Y007913D02*
X014650Y007913D01*
X014650Y007614D02*
X014650Y007614D01*
X014650Y007316D02*
X014582Y007316D01*
X014650Y007017D02*
X012750Y007017D01*
X013025Y006822D02*
X012997Y006781D01*
X012979Y006736D01*
X012969Y006687D01*
X012969Y006355D01*
X013802Y006355D01*
X013802Y006340D01*
X013817Y006340D01*
X013817Y005783D01*
X014425Y005783D01*
X014473Y005792D01*
X014518Y005811D01*
X014559Y005838D01*
X014594Y005873D01*
X014622Y005914D01*
X014640Y005960D01*
X014650Y006008D01*
X014650Y006340D01*
X013817Y006340D01*
X013817Y006355D01*
X014650Y006355D01*
X014650Y006687D01*
X014640Y006736D01*
X014622Y006781D01*
X014594Y006822D01*
X014559Y006857D01*
X014518Y006884D01*
X014473Y006903D01*
X014425Y006913D01*
X013817Y006913D01*
X013817Y006355D01*
X013802Y006355D01*
X013802Y006913D01*
X013194Y006913D01*
X013146Y006903D01*
X013100Y006884D01*
X013060Y006857D01*
X013025Y006822D01*
X012975Y006719D02*
X012750Y006719D01*
X012750Y006420D02*
X012969Y006420D01*
X012969Y006340D02*
X012969Y006008D01*
X012979Y005960D01*
X012997Y005914D01*
X013025Y005873D01*
X013060Y005838D01*
X013100Y005811D01*
X013146Y005792D01*
X013194Y005783D01*
X013802Y005783D01*
X013802Y006340D01*
X012969Y006340D01*
X012969Y006122D02*
X012750Y006122D01*
X012750Y005823D02*
X013083Y005823D01*
X012750Y005525D02*
X014650Y005525D01*
X014136Y005343D02*
X014028Y005451D01*
X013886Y005510D01*
X013733Y005510D01*
X013591Y005451D01*
X013483Y005343D01*
X013424Y005202D01*
X013424Y005117D01*
X013169Y005117D01*
X013077Y005079D01*
X013007Y005009D01*
X012969Y004917D01*
X012969Y004188D01*
X013007Y004096D01*
X013077Y004025D01*
X013169Y003987D01*
X014450Y003987D01*
X014542Y004025D01*
X014612Y004096D01*
X014650Y004188D01*
X014650Y004917D01*
X014612Y005009D01*
X014542Y005079D01*
X014450Y005117D01*
X014194Y005117D01*
X014194Y005202D01*
X014136Y005343D01*
X014184Y005226D02*
X014650Y005226D01*
X014646Y004928D02*
X014650Y004928D01*
X014650Y004629D02*
X014650Y004629D01*
X014650Y004331D02*
X014650Y004331D01*
X014650Y004032D02*
X014548Y004032D01*
X014650Y003734D02*
X012750Y003734D01*
X013025Y003572D02*
X012997Y003531D01*
X012979Y003486D01*
X012969Y003437D01*
X012969Y003105D01*
X013802Y003105D01*
X013802Y003090D01*
X013817Y003090D01*
X013817Y002533D01*
X014425Y002533D01*
X014473Y002542D01*
X014518Y002561D01*
X014559Y002588D01*
X014594Y002623D01*
X014622Y002664D01*
X014640Y002710D01*
X014650Y002758D01*
X014650Y003090D01*
X013817Y003090D01*
X013817Y003105D01*
X014650Y003105D01*
X014650Y003437D01*
X014640Y003486D01*
X014622Y003531D01*
X014594Y003572D01*
X014559Y003607D01*
X014518Y003634D01*
X014473Y003653D01*
X014425Y003663D01*
X013817Y003663D01*
X013817Y003105D01*
X013802Y003105D01*
X013802Y003663D01*
X013194Y003663D01*
X013146Y003653D01*
X013100Y003634D01*
X013060Y003607D01*
X013025Y003572D01*
X012969Y003435D02*
X012750Y003435D01*
X012750Y003137D02*
X012969Y003137D01*
X012969Y003090D02*
X012969Y002758D01*
X012979Y002710D01*
X012997Y002664D01*
X013025Y002623D01*
X013060Y002588D01*
X013100Y002561D01*
X013146Y002542D01*
X013194Y002533D01*
X013802Y002533D01*
X013802Y003090D01*
X012969Y003090D01*
X012969Y002838D02*
X012750Y002838D01*
X012750Y002540D02*
X013160Y002540D01*
X013802Y002540D02*
X013817Y002540D01*
X013802Y002838D02*
X013817Y002838D01*
X013802Y003137D02*
X013817Y003137D01*
X013802Y003435D02*
X013817Y003435D01*
X014650Y003435D02*
X014650Y003435D01*
X014650Y003137D02*
X014650Y003137D01*
X014650Y002838D02*
X014650Y002838D01*
X014650Y002540D02*
X014459Y002540D01*
X013071Y004032D02*
X012750Y004032D01*
X012750Y004331D02*
X012969Y004331D01*
X012969Y004629D02*
X012750Y004629D01*
X012750Y004928D02*
X012973Y004928D01*
X012750Y005226D02*
X013435Y005226D01*
X013802Y005823D02*
X013817Y005823D01*
X013802Y006122D02*
X013817Y006122D01*
X013802Y006420D02*
X013817Y006420D01*
X013802Y006719D02*
X013817Y006719D01*
X014644Y006719D02*
X014650Y006719D01*
X014650Y006420D02*
X014650Y006420D01*
X014650Y006122D02*
X014650Y006122D01*
X014650Y005823D02*
X014536Y005823D01*
X013037Y007316D02*
X012750Y007316D01*
X012750Y007614D02*
X012969Y007614D01*
X012969Y007913D02*
X012750Y007913D01*
X012750Y008211D02*
X012987Y008211D01*
X012750Y008510D02*
X013448Y008510D01*
X014577Y009107D02*
X014650Y009107D01*
X014650Y009405D02*
X014650Y009405D01*
X014650Y009704D02*
X014650Y009704D01*
X014634Y010002D02*
X014650Y010002D01*
D23*
X008500Y008250D03*
X006800Y008250D03*
X006800Y009950D03*
X006800Y002650D03*
X008500Y002650D03*
X006800Y000950D03*
D24*
X008100Y001350D02*
X011350Y001350D01*
X012250Y009550D02*
X007600Y009550D01*
D25*
X009575Y008225D03*
X009050Y007125D03*
X010175Y006700D03*
X009050Y006000D03*
X007775Y005850D03*
X007400Y005900D03*
X007400Y006325D03*
X005750Y006950D03*
X004850Y007000D03*
X004150Y007300D03*
X004400Y007600D03*
X004750Y007800D03*
X004800Y008250D03*
X004850Y009100D03*
X007400Y007425D03*
X004600Y006400D03*
X004150Y006300D03*
X003800Y006100D03*
X003800Y006750D03*
X003650Y007350D03*
X002250Y006800D03*
X001900Y006150D03*
X002750Y005450D03*
X002750Y005050D03*
X002475Y004050D03*
X003500Y004050D03*
X003800Y003800D03*
X003850Y003400D03*
X004250Y003300D03*
X004450Y002700D03*
X003878Y002250D03*
X003250Y002850D03*
X002600Y002800D03*
X002222Y002250D03*
X003150Y001300D03*
X004350Y001300D03*
X005350Y001624D03*
X005250Y002000D03*
X005350Y000750D03*
X009575Y002350D03*
X009900Y001025D03*
X013550Y002150D03*
X013809Y001850D03*
X009900Y004275D03*
X009050Y003775D03*
X006825Y004627D03*
X005000Y004850D03*
X006100Y003250D03*
X009575Y005175D03*
X013575Y005425D03*
X013809Y005125D03*
X013809Y008375D03*
X013575Y008675D03*
D26*
X012825Y009050D02*
X012825Y010050D01*
X012075Y010050D01*
X012250Y009550D02*
X012250Y009050D01*
X012825Y009050D01*
D27*
X013809Y009598D02*
X013809Y010175D01*
X013100Y010175D01*
X013809Y010175D02*
X014650Y010175D01*
X013809Y003098D02*
X013800Y003098D01*
X013800Y002525D01*
X013550Y002525D01*
X013550Y002150D01*
D28*
X012150Y002237D02*
X009891Y002237D01*
X009910Y002283D02*
X009859Y002160D01*
X009765Y002066D01*
X009642Y002015D01*
X009525Y002015D01*
X009525Y000700D01*
X012150Y000700D01*
X012150Y008450D01*
X009824Y008450D01*
X009859Y008415D01*
X009910Y008292D01*
X009910Y008158D01*
X009859Y008035D01*
X009825Y008001D01*
X009825Y005399D01*
X009859Y005365D01*
X009910Y005242D01*
X009910Y005108D01*
X009859Y004985D01*
X009825Y004951D01*
X009825Y002574D01*
X009859Y002540D01*
X009910Y002417D01*
X009910Y002283D01*
X009902Y002435D02*
X012150Y002435D01*
X012150Y002634D02*
X009825Y002634D01*
X009825Y002832D02*
X012150Y002832D01*
X012150Y003031D02*
X009825Y003031D01*
X009825Y003229D02*
X012150Y003229D01*
X012150Y003428D02*
X009825Y003428D01*
X009825Y003626D02*
X012150Y003626D01*
X012150Y003825D02*
X009825Y003825D01*
X009825Y004023D02*
X012150Y004023D01*
X012150Y004222D02*
X009825Y004222D01*
X009825Y004420D02*
X012150Y004420D01*
X012150Y004619D02*
X009825Y004619D01*
X009825Y004817D02*
X012150Y004817D01*
X012150Y005016D02*
X009872Y005016D01*
X009910Y005214D02*
X012150Y005214D01*
X012150Y005413D02*
X009825Y005413D01*
X009825Y005611D02*
X012150Y005611D01*
X012150Y005810D02*
X009825Y005810D01*
X009825Y006008D02*
X012150Y006008D01*
X012150Y006207D02*
X009825Y006207D01*
X009825Y006405D02*
X012150Y006405D01*
X012150Y006604D02*
X009825Y006604D01*
X009825Y006802D02*
X012150Y006802D01*
X012150Y007001D02*
X009825Y007001D01*
X009825Y007199D02*
X012150Y007199D01*
X012150Y007398D02*
X009825Y007398D01*
X009825Y007596D02*
X012150Y007596D01*
X012150Y007795D02*
X009825Y007795D01*
X009825Y007993D02*
X012150Y007993D01*
X012150Y008192D02*
X009910Y008192D01*
X009869Y008390D02*
X012150Y008390D01*
X012150Y002038D02*
X009697Y002038D01*
X009525Y001840D02*
X012150Y001840D01*
X012150Y001641D02*
X009525Y001641D01*
X009525Y001443D02*
X012150Y001443D01*
X012150Y001244D02*
X009525Y001244D01*
X009525Y001046D02*
X012150Y001046D01*
X012150Y000847D02*
X009525Y000847D01*
D29*
X009525Y000844D02*
X008981Y000844D01*
X008981Y000746D02*
X009525Y000746D01*
X009525Y000650D02*
X008981Y000650D01*
X008981Y001750D01*
X007700Y001750D01*
X007700Y001850D01*
X007600Y001850D01*
X007600Y003131D01*
X006449Y003131D01*
X006411Y003121D01*
X006377Y003101D01*
X006349Y003073D01*
X006329Y003039D01*
X006319Y003001D01*
X006319Y001850D01*
X007600Y001850D01*
X007600Y001750D01*
X006319Y001750D01*
X006319Y000650D01*
X001130Y000650D01*
X001130Y000750D01*
X003859Y000750D01*
X003961Y000852D01*
X004078Y000969D01*
X004078Y001063D01*
X004184Y001063D01*
X004189Y001058D01*
X004293Y001015D01*
X004407Y001015D01*
X004511Y001058D01*
X004592Y001139D01*
X004592Y001140D02*
X006319Y001140D01*
X006319Y001238D02*
X004633Y001238D01*
X004635Y001243D02*
X004635Y001357D01*
X004592Y001461D01*
X004511Y001542D01*
X004407Y001585D01*
X004293Y001585D01*
X004278Y001579D01*
X004278Y001849D01*
X004190Y001937D01*
X004078Y001937D01*
X004078Y002047D01*
X004120Y002089D01*
X004163Y002193D01*
X004163Y002307D01*
X004131Y002384D01*
X004237Y002490D01*
X004240Y002490D01*
X004240Y002013D01*
X004363Y001890D01*
X004839Y001414D01*
X005157Y001414D01*
X005189Y001382D01*
X005293Y001339D01*
X005407Y001339D01*
X005511Y001382D01*
X005592Y001463D01*
X005635Y001567D01*
X005635Y001681D01*
X005592Y001785D01*
X005511Y001866D01*
X005407Y001909D01*
X005293Y001909D01*
X005189Y001866D01*
X005157Y001834D01*
X005013Y001834D01*
X004660Y002187D01*
X004660Y002490D01*
X005637Y002490D01*
X006112Y002965D01*
X006157Y002965D01*
X006261Y003008D01*
X006342Y003089D01*
X006385Y003193D01*
X006385Y003307D01*
X006342Y003411D01*
X006261Y003492D01*
X006157Y003535D01*
X006043Y003535D01*
X005997Y003516D01*
X006823Y004342D01*
X006882Y004342D01*
X006986Y004385D01*
X007067Y004465D01*
X007110Y004570D01*
X007110Y004683D01*
X007067Y004788D01*
X006986Y004868D01*
X006882Y004912D01*
X006794Y004912D01*
X007183Y005300D01*
X007508Y005300D01*
X007773Y005565D01*
X007832Y005565D01*
X007936Y005608D01*
X008017Y005689D01*
X008060Y005793D01*
X008060Y005907D01*
X008017Y006011D01*
X007936Y006092D01*
X007832Y006135D01*
X007718Y006135D01*
X007614Y006092D01*
X007613Y006091D01*
X007561Y006142D01*
X007457Y006185D01*
X007343Y006185D01*
X007239Y006142D01*
X007197Y006100D01*
X006867Y006100D01*
X006750Y005983D01*
X005517Y004750D01*
X004917Y004750D01*
X003852Y003685D01*
X003793Y003685D01*
X003700Y003646D01*
X003700Y003847D01*
X003742Y003889D01*
X003785Y003993D01*
X003785Y004107D01*
X003742Y004211D01*
X003661Y004292D01*
X003557Y004335D01*
X003443Y004335D01*
X003339Y004292D01*
X003258Y004211D01*
X003215Y004107D01*
X003215Y003993D01*
X003258Y003889D01*
X003300Y003847D01*
X003300Y003123D01*
X003506Y002917D01*
X003623Y002800D01*
X003953Y002800D01*
X003940Y002787D01*
X003913Y002760D01*
X003122Y002760D01*
X003122Y004575D01*
X003285Y004738D01*
X003285Y006624D01*
X003501Y006840D01*
X003863Y006840D01*
X004118Y006585D01*
X004093Y006585D01*
X003989Y006542D01*
X003908Y006461D01*
X003874Y006378D01*
X003857Y006385D01*
X003743Y006385D01*
X003639Y006342D01*
X003558Y006261D01*
X003515Y006157D01*
X003515Y006043D01*
X003558Y005939D01*
X003639Y005858D01*
X003743Y005815D01*
X003802Y005815D01*
X004017Y005600D01*
X006162Y005600D01*
X006279Y005717D01*
X006988Y006426D01*
X007916Y006426D01*
X008850Y005492D01*
X008850Y003978D01*
X008808Y003936D01*
X008765Y003832D01*
X008765Y003718D01*
X008808Y003614D01*
X008889Y003533D01*
X008993Y003490D01*
X009107Y003490D01*
X009211Y003533D01*
X009292Y003614D01*
X009335Y003718D01*
X009335Y003832D01*
X009292Y003936D01*
X009250Y003978D01*
X009250Y005658D01*
X009168Y005740D01*
X009211Y005758D01*
X009292Y005839D01*
X009335Y005943D01*
X009335Y006057D01*
X009292Y006161D01*
X009211Y006242D01*
X009107Y006285D01*
X009048Y006285D01*
X008408Y006925D01*
X008847Y006925D01*
X008889Y006883D01*
X008993Y006840D01*
X009107Y006840D01*
X009211Y006883D01*
X009292Y006964D01*
X009335Y007068D01*
X009335Y007182D01*
X009292Y007286D01*
X009211Y007367D01*
X009107Y007410D01*
X008993Y007410D01*
X008889Y007367D01*
X008847Y007325D01*
X006392Y007325D01*
X006275Y007208D01*
X006035Y006968D01*
X006035Y007007D01*
X005992Y007111D01*
X005911Y007192D01*
X005875Y007207D01*
X005845Y007237D01*
X005845Y008429D01*
X005804Y008528D01*
X005107Y009225D01*
X005092Y009261D01*
X005011Y009342D01*
X004907Y009385D01*
X004793Y009385D01*
X004689Y009342D01*
X004608Y009261D01*
X004565Y009157D01*
X004565Y009043D01*
X004608Y008939D01*
X004689Y008858D01*
X004725Y008843D01*
X005305Y008263D01*
X005305Y007071D01*
X005346Y006972D01*
X005408Y006910D01*
X004387Y006910D01*
X004260Y007037D01*
X004311Y007058D01*
X004392Y007139D01*
X004435Y007243D01*
X004435Y007315D01*
X004457Y007315D01*
X004561Y007358D01*
X004642Y007439D01*
X004676Y007522D01*
X004693Y007515D01*
X004807Y007515D01*
X004911Y007558D01*
X004992Y007639D01*
X005035Y007743D01*
X005035Y007857D01*
X004992Y007961D01*
X004911Y008042D01*
X004807Y008085D01*
X004748Y008085D01*
X002800Y010033D01*
X002683Y010150D01*
X001087Y010150D01*
X001057Y010222D01*
X001029Y010250D01*
X006000Y010250D01*
X006000Y007538D01*
X006088Y007450D01*
X009212Y007450D01*
X009300Y007538D01*
X009300Y008144D01*
X009333Y008064D01*
X009375Y008022D01*
X009375Y005378D01*
X009333Y005336D01*
X009290Y005232D01*
X009290Y005118D01*
X009333Y005014D01*
X009375Y004972D01*
X009375Y002553D01*
X009333Y002511D01*
X009290Y002407D01*
X009290Y002293D01*
X009333Y002189D01*
X009414Y002108D01*
X009518Y002065D01*
X009525Y002065D01*
X009525Y000650D01*
X009525Y000943D02*
X008981Y000943D01*
X008981Y001041D02*
X009525Y001041D01*
X009525Y001140D02*
X008981Y001140D01*
X008981Y001238D02*
X009525Y001238D01*
X009525Y001337D02*
X008981Y001337D01*
X008981Y001435D02*
X009525Y001435D01*
X009525Y001534D02*
X008981Y001534D01*
X008981Y001632D02*
X009525Y001632D01*
X009525Y001731D02*
X008981Y001731D01*
X008981Y001850D02*
X008981Y003001D01*
X008971Y003039D01*
X008951Y003073D01*
X008923Y003101D01*
X008889Y003121D01*
X008851Y003131D01*
X007700Y003131D01*
X007700Y001850D01*
X008981Y001850D01*
X008981Y001928D02*
X009525Y001928D01*
X009525Y002026D02*
X008981Y002026D01*
X008981Y002125D02*
X009397Y002125D01*
X009319Y002223D02*
X008981Y002223D01*
X008981Y002322D02*
X009290Y002322D01*
X009296Y002420D02*
X008981Y002420D01*
X008981Y002519D02*
X009340Y002519D01*
X009375Y002617D02*
X008981Y002617D01*
X008981Y002716D02*
X009375Y002716D01*
X009375Y002814D02*
X008981Y002814D01*
X008981Y002913D02*
X009375Y002913D01*
X009375Y003011D02*
X008978Y003011D01*
X008909Y003110D02*
X009375Y003110D01*
X009375Y003208D02*
X006385Y003208D01*
X006385Y003307D02*
X009375Y003307D01*
X009375Y003405D02*
X006344Y003405D01*
X006233Y003504D02*
X008961Y003504D01*
X008820Y003602D02*
X006083Y003602D01*
X006182Y003701D02*
X008772Y003701D01*
X008765Y003799D02*
X006280Y003799D01*
X006379Y003898D02*
X008792Y003898D01*
X008850Y003996D02*
X006477Y003996D01*
X006576Y004095D02*
X008850Y004095D01*
X008850Y004193D02*
X006674Y004193D01*
X006773Y004292D02*
X008850Y004292D01*
X008850Y004390D02*
X006991Y004390D01*
X007076Y004489D02*
X008850Y004489D01*
X008850Y004587D02*
X007110Y004587D01*
X007109Y004686D02*
X008850Y004686D01*
X008850Y004784D02*
X007068Y004784D01*
X006952Y004883D02*
X008850Y004883D01*
X008850Y004981D02*
X006864Y004981D01*
X006962Y005080D02*
X008850Y005080D01*
X008850Y005178D02*
X007061Y005178D01*
X007159Y005277D02*
X008850Y005277D01*
X008850Y005375D02*
X007583Y005375D01*
X007681Y005474D02*
X008850Y005474D01*
X008770Y005572D02*
X007849Y005572D01*
X007999Y005671D02*
X008672Y005671D01*
X008573Y005769D02*
X008050Y005769D01*
X008060Y005868D02*
X008475Y005868D01*
X008376Y005966D02*
X008035Y005966D01*
X007964Y006065D02*
X008278Y006065D01*
X008179Y006163D02*
X007510Y006163D01*
X007290Y006163D02*
X006725Y006163D01*
X006823Y006262D02*
X008081Y006262D01*
X007982Y006360D02*
X006922Y006360D01*
X006905Y006626D02*
X007999Y006626D01*
X009050Y005575D01*
X009050Y003775D01*
X009308Y003898D02*
X009375Y003898D01*
X009375Y003996D02*
X009250Y003996D01*
X009250Y004095D02*
X009375Y004095D01*
X009375Y004193D02*
X009250Y004193D01*
X009250Y004292D02*
X009375Y004292D01*
X009375Y004390D02*
X009250Y004390D01*
X009250Y004489D02*
X009375Y004489D01*
X009375Y004587D02*
X009250Y004587D01*
X009250Y004686D02*
X009375Y004686D01*
X009375Y004784D02*
X009250Y004784D01*
X009250Y004883D02*
X009375Y004883D01*
X009366Y004981D02*
X009250Y004981D01*
X009250Y005080D02*
X009306Y005080D01*
X009290Y005178D02*
X009250Y005178D01*
X009250Y005277D02*
X009309Y005277D01*
X009250Y005375D02*
X009372Y005375D01*
X009375Y005474D02*
X009250Y005474D01*
X009250Y005572D02*
X009375Y005572D01*
X009375Y005671D02*
X009237Y005671D01*
X009222Y005769D02*
X009375Y005769D01*
X009375Y005868D02*
X009304Y005868D01*
X009335Y005966D02*
X009375Y005966D01*
X009375Y006065D02*
X009332Y006065D01*
X009290Y006163D02*
X009375Y006163D01*
X009375Y006262D02*
X009163Y006262D01*
X008973Y006360D02*
X009375Y006360D01*
X009375Y006459D02*
X008874Y006459D01*
X008776Y006557D02*
X009375Y006557D01*
X009375Y006656D02*
X008677Y006656D01*
X008579Y006754D02*
X009375Y006754D01*
X009375Y006853D02*
X009137Y006853D01*
X009279Y006951D02*
X009375Y006951D01*
X009375Y007050D02*
X009327Y007050D01*
X009335Y007148D02*
X009375Y007148D01*
X009375Y007247D02*
X009308Y007247D01*
X009375Y007345D02*
X009233Y007345D01*
X009375Y007444D02*
X005845Y007444D01*
X005845Y007542D02*
X006000Y007542D01*
X006000Y007641D02*
X005845Y007641D01*
X005845Y007739D02*
X006000Y007739D01*
X006000Y007838D02*
X005845Y007838D01*
X005845Y007936D02*
X006000Y007936D01*
X006000Y008035D02*
X005845Y008035D01*
X005845Y008133D02*
X006000Y008133D01*
X006000Y008232D02*
X005845Y008232D01*
X005845Y008330D02*
X006000Y008330D01*
X006000Y008429D02*
X005845Y008429D01*
X005804Y008527D02*
X006000Y008527D01*
X006000Y008626D02*
X005706Y008626D01*
X005608Y008724D02*
X006000Y008724D01*
X006000Y008823D02*
X005509Y008823D01*
X005411Y008921D02*
X006000Y008921D01*
X006000Y009020D02*
X005312Y009020D01*
X005214Y009118D02*
X006000Y009118D01*
X006000Y009217D02*
X005115Y009217D01*
X005038Y009315D02*
X006000Y009315D01*
X006000Y009414D02*
X003419Y009414D01*
X003321Y009512D02*
X006000Y009512D01*
X006000Y009611D02*
X003222Y009611D01*
X003124Y009709D02*
X006000Y009709D01*
X006000Y009808D02*
X003025Y009808D01*
X002927Y009906D02*
X006000Y009906D01*
X006000Y010005D02*
X002828Y010005D01*
X002730Y010103D02*
X006000Y010103D01*
X006000Y010202D02*
X001065Y010202D01*
X000650Y009950D02*
X002600Y009950D01*
X004750Y007800D01*
X004872Y007542D02*
X005305Y007542D01*
X005305Y007444D02*
X004644Y007444D01*
X004529Y007345D02*
X005305Y007345D01*
X005305Y007247D02*
X004435Y007247D01*
X004396Y007148D02*
X005305Y007148D01*
X005314Y007050D02*
X004290Y007050D01*
X004346Y006951D02*
X005367Y006951D01*
X005845Y007247D02*
X006314Y007247D01*
X006215Y007148D02*
X005955Y007148D01*
X006017Y007050D02*
X006117Y007050D01*
X006475Y007125D02*
X009050Y007125D01*
X008867Y007345D02*
X005845Y007345D01*
X005305Y007641D02*
X004992Y007641D01*
X005033Y007739D02*
X005305Y007739D01*
X005305Y007838D02*
X005035Y007838D01*
X005002Y007936D02*
X005305Y007936D01*
X005305Y008035D02*
X004919Y008035D01*
X004700Y008133D02*
X005305Y008133D01*
X005305Y008232D02*
X004601Y008232D01*
X004503Y008330D02*
X005238Y008330D01*
X005140Y008429D02*
X004404Y008429D01*
X004306Y008527D02*
X005041Y008527D01*
X004943Y008626D02*
X004207Y008626D01*
X004109Y008724D02*
X004844Y008724D01*
X004746Y008823D02*
X004010Y008823D01*
X003912Y008921D02*
X004626Y008921D01*
X004575Y009020D02*
X003813Y009020D01*
X003715Y009118D02*
X004565Y009118D01*
X004590Y009217D02*
X003616Y009217D01*
X003518Y009315D02*
X004662Y009315D01*
X003050Y008950D02*
X000650Y008950D01*
X000650Y007950D02*
X003500Y007950D01*
X004150Y007300D01*
X003865Y007302D02*
X003865Y007260D01*
X003327Y007260D01*
X002988Y006921D01*
X002865Y006798D01*
X002865Y005950D01*
X002383Y005950D01*
X002185Y006148D01*
X002185Y006207D01*
X002142Y006311D01*
X002061Y006392D01*
X001957Y006435D01*
X001843Y006435D01*
X001739Y006392D01*
X001658Y006311D01*
X001633Y006250D01*
X001116Y006767D01*
X001150Y006851D01*
X001150Y007049D01*
X001074Y007233D01*
X000933Y007374D01*
X000749Y007450D01*
X000933Y007526D01*
X001074Y007667D01*
X001108Y007750D01*
X003417Y007750D01*
X003865Y007302D01*
X003822Y007345D02*
X000962Y007345D01*
X001061Y007247D02*
X003314Y007247D01*
X003215Y007148D02*
X001109Y007148D01*
X001150Y007050D02*
X003117Y007050D01*
X003018Y006951D02*
X001150Y006951D01*
X001150Y006853D02*
X002920Y006853D01*
X002865Y006754D02*
X001129Y006754D01*
X001227Y006656D02*
X002865Y006656D01*
X002865Y006557D02*
X001326Y006557D01*
X001424Y006459D02*
X002865Y006459D01*
X002865Y006360D02*
X002093Y006360D01*
X002162Y006262D02*
X002865Y006262D01*
X002865Y006163D02*
X002185Y006163D01*
X002268Y006065D02*
X002865Y006065D01*
X002865Y005966D02*
X002367Y005966D01*
X002300Y005750D02*
X001900Y006150D01*
X001638Y006262D02*
X001621Y006262D01*
X001707Y006360D02*
X001523Y006360D01*
X000650Y005950D02*
X001550Y005050D01*
X002750Y005050D01*
X002547Y004850D02*
X002589Y004808D01*
X002693Y004765D01*
X002718Y004765D01*
X002702Y004749D01*
X002702Y002650D01*
X002401Y002650D01*
X002313Y002562D01*
X002313Y002521D01*
X002278Y002535D01*
X002165Y002535D01*
X002060Y002492D01*
X001980Y002411D01*
X001937Y002307D01*
X001937Y002193D01*
X001980Y002089D01*
X002060Y002008D01*
X002165Y001965D01*
X002278Y001965D01*
X002313Y001979D01*
X002313Y001938D01*
X002401Y001850D01*
X003099Y001850D01*
X003187Y001938D01*
X003187Y002340D01*
X003607Y002340D01*
X003593Y002307D01*
X003593Y002193D01*
X003637Y002089D01*
X003678Y002047D01*
X003678Y001937D01*
X003566Y001937D01*
X003478Y001849D01*
X003478Y001151D01*
X003479Y001150D01*
X001130Y001150D01*
X001130Y001342D01*
X001042Y001430D01*
X000350Y001430D01*
X000350Y001543D01*
X000367Y001526D01*
X000551Y001450D01*
X000749Y001450D01*
X000933Y001526D01*
X001074Y001667D01*
X001150Y001851D01*
X001150Y002049D01*
X001074Y002233D01*
X000933Y002374D01*
X000749Y002450D01*
X000933Y002526D01*
X001074Y002667D01*
X001150Y002851D01*
X001150Y003049D01*
X001074Y003233D01*
X000933Y003374D01*
X000749Y003450D01*
X000933Y003526D01*
X001074Y003667D01*
X001150Y003851D01*
X001150Y004049D01*
X001074Y004233D01*
X000933Y004374D01*
X000749Y004450D01*
X000933Y004526D01*
X001074Y004667D01*
X001150Y004851D01*
X001150Y005049D01*
X001074Y005233D01*
X000933Y005374D01*
X000749Y005450D01*
X000833Y005484D01*
X001467Y004850D01*
X002547Y004850D01*
X002647Y004784D02*
X001122Y004784D01*
X001150Y004883D02*
X001435Y004883D01*
X001336Y004981D02*
X001150Y004981D01*
X001138Y005080D02*
X001238Y005080D01*
X001139Y005178D02*
X001097Y005178D01*
X001041Y005277D02*
X001031Y005277D01*
X000942Y005375D02*
X000930Y005375D01*
X000844Y005474D02*
X000806Y005474D01*
X000749Y005450D02*
X000551Y005450D01*
X000367Y005526D01*
X000350Y005543D01*
X000350Y005357D01*
X000367Y005374D01*
X000551Y005450D01*
X000749Y005450D01*
X000494Y005474D02*
X000350Y005474D01*
X000350Y005375D02*
X000370Y005375D01*
X001082Y004686D02*
X002702Y004686D01*
X002702Y004587D02*
X000994Y004587D01*
X000842Y004489D02*
X002702Y004489D01*
X002702Y004390D02*
X000894Y004390D01*
X001016Y004292D02*
X002702Y004292D01*
X002702Y004193D02*
X001091Y004193D01*
X001131Y004095D02*
X002702Y004095D01*
X002702Y003996D02*
X001150Y003996D01*
X001150Y003898D02*
X002702Y003898D01*
X002702Y003799D02*
X001129Y003799D01*
X001088Y003701D02*
X002702Y003701D01*
X002702Y003602D02*
X001009Y003602D01*
X000879Y003504D02*
X002702Y003504D01*
X002702Y003405D02*
X000858Y003405D01*
X000749Y003450D02*
X000551Y003450D01*
X000749Y003450D01*
X000551Y003450D02*
X000367Y003526D01*
X000350Y003543D01*
X000350Y003357D01*
X000367Y003374D01*
X000551Y003450D01*
X000442Y003405D02*
X000350Y003405D01*
X000350Y003504D02*
X000421Y003504D01*
X001001Y003307D02*
X002702Y003307D01*
X002702Y003208D02*
X001084Y003208D01*
X001125Y003110D02*
X002702Y003110D01*
X002702Y003011D02*
X001150Y003011D01*
X001150Y002913D02*
X002702Y002913D01*
X002702Y002814D02*
X001135Y002814D01*
X001094Y002716D02*
X002702Y002716D01*
X002368Y002617D02*
X001024Y002617D01*
X000915Y002519D02*
X002125Y002519D01*
X001989Y002420D02*
X000822Y002420D01*
X000749Y002450D02*
X000551Y002450D01*
X000367Y002526D01*
X000350Y002543D01*
X000350Y002357D01*
X000367Y002374D01*
X000551Y002450D01*
X000749Y002450D01*
X000986Y002322D02*
X001943Y002322D01*
X001937Y002223D02*
X001078Y002223D01*
X001119Y002125D02*
X001965Y002125D01*
X002043Y002026D02*
X001150Y002026D01*
X001150Y001928D02*
X002323Y001928D01*
X003177Y001928D02*
X003557Y001928D01*
X003478Y001829D02*
X001141Y001829D01*
X001100Y001731D02*
X003478Y001731D01*
X003478Y001632D02*
X001039Y001632D01*
X000941Y001534D02*
X003478Y001534D01*
X003478Y001435D02*
X000350Y001435D01*
X000350Y001534D02*
X000359Y001534D01*
X001130Y001337D02*
X003478Y001337D01*
X003478Y001238D02*
X001130Y001238D01*
X000650Y000950D02*
X003776Y000950D01*
X003878Y001052D01*
X003878Y001338D01*
X003878Y001300D01*
X004350Y001300D01*
X004603Y001435D02*
X004818Y001435D01*
X004720Y001534D02*
X004520Y001534D01*
X004621Y001632D02*
X004278Y001632D01*
X004278Y001731D02*
X004523Y001731D01*
X004424Y001829D02*
X004278Y001829D01*
X004326Y001928D02*
X004200Y001928D01*
X004240Y002026D02*
X004078Y002026D01*
X004135Y002125D02*
X004240Y002125D01*
X004240Y002223D02*
X004163Y002223D01*
X004157Y002322D02*
X004240Y002322D01*
X004240Y002420D02*
X004167Y002420D01*
X003878Y002250D02*
X003878Y001662D01*
X003678Y002026D02*
X003187Y002026D01*
X003187Y002125D02*
X003622Y002125D01*
X003593Y002223D02*
X003187Y002223D01*
X003187Y002322D02*
X003599Y002322D01*
X003609Y002814D02*
X003122Y002814D01*
X003122Y002913D02*
X003511Y002913D01*
X003412Y003011D02*
X003122Y003011D01*
X003122Y003110D02*
X003314Y003110D01*
X003300Y003208D02*
X003122Y003208D01*
X003122Y003307D02*
X003300Y003307D01*
X003300Y003405D02*
X003122Y003405D01*
X003122Y003504D02*
X003300Y003504D01*
X003300Y003602D02*
X003122Y003602D01*
X003122Y003701D02*
X003300Y003701D01*
X003300Y003799D02*
X003122Y003799D01*
X003122Y003898D02*
X003255Y003898D01*
X003215Y003996D02*
X003122Y003996D01*
X003122Y004095D02*
X003215Y004095D01*
X003251Y004193D02*
X003122Y004193D01*
X003122Y004292D02*
X003338Y004292D01*
X003122Y004390D02*
X004557Y004390D01*
X004459Y004292D02*
X003662Y004292D01*
X003749Y004193D02*
X004360Y004193D01*
X004262Y004095D02*
X003785Y004095D01*
X003785Y003996D02*
X004163Y003996D01*
X004065Y003898D02*
X003745Y003898D01*
X003700Y003799D02*
X003966Y003799D01*
X003868Y003701D02*
X003700Y003701D01*
X003850Y003400D02*
X005000Y004550D01*
X005600Y004550D01*
X006950Y005900D01*
X007400Y005900D01*
X007775Y005850D02*
X007425Y005500D01*
X007100Y005500D01*
X005850Y004250D01*
X005200Y004250D01*
X004250Y003300D01*
X003706Y003000D02*
X005198Y003000D01*
X006825Y004627D01*
X005945Y005178D02*
X003285Y005178D01*
X003285Y005080D02*
X005847Y005080D01*
X005748Y004981D02*
X003285Y004981D01*
X003285Y004883D02*
X005650Y004883D01*
X005551Y004784D02*
X003285Y004784D01*
X003232Y004686D02*
X004853Y004686D01*
X004754Y004587D02*
X003134Y004587D01*
X003122Y004489D02*
X004656Y004489D01*
X003500Y004050D02*
X003500Y003206D01*
X003706Y003000D01*
X004660Y002420D02*
X006319Y002420D01*
X006319Y002322D02*
X004660Y002322D01*
X004660Y002223D02*
X006319Y002223D01*
X006319Y002125D02*
X004722Y002125D01*
X004821Y002026D02*
X006319Y002026D01*
X006319Y001928D02*
X004919Y001928D01*
X005548Y001829D02*
X007600Y001829D01*
X007600Y001928D02*
X007700Y001928D01*
X007700Y002026D02*
X007600Y002026D01*
X007600Y002125D02*
X007700Y002125D01*
X007700Y002223D02*
X007600Y002223D01*
X007600Y002322D02*
X007700Y002322D01*
X007700Y002420D02*
X007600Y002420D01*
X007600Y002519D02*
X007700Y002519D01*
X007700Y002617D02*
X007600Y002617D01*
X007600Y002716D02*
X007700Y002716D01*
X007700Y002814D02*
X007600Y002814D01*
X007600Y002913D02*
X007700Y002913D01*
X007700Y003011D02*
X007600Y003011D01*
X007600Y003110D02*
X007700Y003110D01*
X006391Y003110D02*
X006350Y003110D01*
X006322Y003011D02*
X006264Y003011D01*
X006319Y002913D02*
X006059Y002913D01*
X005961Y002814D02*
X006319Y002814D01*
X006319Y002716D02*
X005862Y002716D01*
X005764Y002617D02*
X006319Y002617D01*
X006319Y002519D02*
X005665Y002519D01*
X005614Y001731D02*
X006319Y001731D01*
X006319Y001632D02*
X005635Y001632D01*
X005621Y001534D02*
X006319Y001534D01*
X006319Y001435D02*
X005564Y001435D01*
X006319Y001337D02*
X004635Y001337D01*
X004635Y001243D02*
X004592Y001139D01*
X004469Y001041D02*
X006319Y001041D01*
X006319Y000943D02*
X004051Y000943D01*
X004078Y001041D02*
X004231Y001041D01*
X003953Y000844D02*
X006319Y000844D01*
X006319Y000746D02*
X001130Y000746D01*
X000478Y002420D02*
X000350Y002420D01*
X000350Y002519D02*
X000385Y002519D01*
X000350Y004357D02*
X000350Y004543D01*
X000367Y004526D01*
X000551Y004450D01*
X000749Y004450D01*
X000551Y004450D01*
X000367Y004374D01*
X000350Y004357D01*
X000350Y004390D02*
X000406Y004390D01*
X000458Y004489D02*
X000350Y004489D01*
X002150Y005450D02*
X000650Y006950D01*
X000350Y007357D02*
X000350Y007543D01*
X000367Y007526D01*
X000551Y007450D01*
X000749Y007450D01*
X000551Y007450D01*
X000367Y007374D01*
X000350Y007357D01*
X000350Y007444D02*
X000535Y007444D01*
X000351Y007542D02*
X000350Y007542D01*
X000765Y007444D02*
X003724Y007444D01*
X003625Y007542D02*
X000949Y007542D01*
X001048Y007641D02*
X003527Y007641D01*
X003428Y007739D02*
X001104Y007739D01*
X003050Y008950D02*
X004400Y007600D01*
X003949Y006754D02*
X003415Y006754D01*
X003317Y006656D02*
X004047Y006656D01*
X004026Y006557D02*
X003285Y006557D01*
X003285Y006459D02*
X003907Y006459D01*
X003683Y006360D02*
X003285Y006360D01*
X003285Y006262D02*
X003558Y006262D01*
X003518Y006163D02*
X003285Y006163D01*
X003285Y006065D02*
X003515Y006065D01*
X003547Y005966D02*
X003285Y005966D01*
X003285Y005868D02*
X003629Y005868D01*
X003848Y005769D02*
X003285Y005769D01*
X003285Y005671D02*
X003947Y005671D01*
X004100Y005800D02*
X003800Y006100D01*
X004150Y006300D02*
X004400Y006050D01*
X005862Y006050D01*
X006674Y006863D01*
X008187Y006863D01*
X009050Y006000D01*
X009575Y005175D02*
X009575Y008225D01*
X009310Y008330D02*
X009300Y008330D01*
X009300Y008306D02*
X009300Y008500D01*
X009300Y008050D01*
X009300Y008035D02*
X009362Y008035D01*
X009375Y007936D02*
X009300Y007936D01*
X009300Y007838D02*
X009375Y007838D01*
X009375Y007739D02*
X009300Y007739D01*
X009300Y007641D02*
X009375Y007641D01*
X009375Y007542D02*
X009300Y007542D01*
X009300Y008133D02*
X009305Y008133D01*
X009300Y008306D02*
X009333Y008386D01*
X009414Y008467D01*
X009494Y008500D01*
X009300Y008500D01*
X009925Y008500D01*
X009375Y008429D02*
X009300Y008429D01*
X006475Y007125D02*
X005750Y006400D01*
X004600Y006400D01*
X004100Y005800D02*
X006079Y005800D01*
X006905Y006626D01*
X006832Y006065D02*
X006626Y006065D01*
X006528Y005966D02*
X006733Y005966D01*
X006635Y005868D02*
X006429Y005868D01*
X006331Y005769D02*
X006536Y005769D01*
X006438Y005671D02*
X006232Y005671D01*
X006339Y005572D02*
X003285Y005572D01*
X003285Y005474D02*
X006241Y005474D01*
X006142Y005375D02*
X003285Y005375D01*
X003285Y005277D02*
X006044Y005277D01*
X008480Y006853D02*
X008963Y006853D01*
X009575Y005175D02*
X009575Y002350D01*
X009525Y001829D02*
X007700Y001829D01*
X009139Y003504D02*
X009375Y003504D01*
X009375Y003602D02*
X009280Y003602D01*
X009328Y003701D02*
X009375Y003701D01*
X009375Y003799D02*
X009335Y003799D01*
X013809Y004552D02*
X013809Y005125D01*
X013809Y007802D02*
X013809Y008375D01*
X003075Y005750D02*
X002300Y005750D01*
X002150Y005450D02*
X002750Y005450D01*
X013809Y001850D02*
X013809Y001302D01*
D30*
X011850Y001000D03*
X011850Y004125D03*
X011850Y007375D03*
D31*
X005750Y006950D02*
X005500Y006700D01*
X004300Y006700D01*
X003950Y007050D01*
X003414Y007050D01*
X003075Y006711D01*
X003075Y005750D01*
X003075Y004825D01*
X002912Y004662D01*
X002912Y002550D01*
X004000Y002550D01*
X004150Y002700D01*
X004450Y002700D01*
X005550Y002700D01*
X006100Y003250D01*
X004450Y002700D02*
X004450Y002100D01*
X004926Y001624D01*
X005350Y001624D01*
X002912Y002250D02*
X002912Y002550D01*
X002588Y002250D02*
X002222Y002250D01*
D32*
X005750Y006950D02*
X005575Y007125D01*
X005575Y008375D01*
X004850Y009100D01*
M02*
