G75*
G70*
%OFA0B0*%
%FSLAX24Y24*%
%IPPOS*%
%LPD*%
%AMOC8*
5,1,8,0,0,1.08239X$1,22.5*
%
%ADD10C,0.0000*%
%ADD11R,0.1330X0.1900*%
%ADD12R,0.1181X0.0630*%
%ADD13R,0.2250X0.1900*%
%ADD14R,0.0354X0.0315*%
%ADD15R,0.0433X0.0394*%
%ADD16R,0.0394X0.0433*%
%ADD17R,0.2362X0.2362*%
%ADD18OC8,0.0660*%
%ADD19C,0.0660*%
%ADD20C,0.0059*%
%ADD21R,0.1142X0.1142*%
%ADD22R,0.0295X0.0374*%
%ADD23R,0.0880X0.0480*%
%ADD24R,0.0866X0.1417*%
%ADD25R,0.0630X0.0748*%
%ADD26R,0.0472X0.0217*%
%ADD27R,0.0660X0.0660*%
%ADD28C,0.0700*%
%ADD29R,0.0250X0.0500*%
%ADD30C,0.1250*%
%ADD31C,0.0100*%
%ADD32C,0.0591*%
%ADD33C,0.0320*%
%ADD34C,0.0270*%
%ADD35C,0.0200*%
%ADD36OC8,0.0768*%
%ADD37C,0.0120*%
D10*
X000140Y000600D02*
X000140Y010600D01*
X019140Y010600D01*
X019140Y000600D01*
X000140Y000600D01*
X017674Y002350D02*
X017676Y002398D01*
X017682Y002446D01*
X017692Y002493D01*
X017705Y002539D01*
X017723Y002584D01*
X017743Y002628D01*
X017768Y002670D01*
X017796Y002709D01*
X017826Y002746D01*
X017860Y002780D01*
X017897Y002812D01*
X017935Y002841D01*
X017976Y002866D01*
X018019Y002888D01*
X018064Y002906D01*
X018110Y002920D01*
X018157Y002931D01*
X018205Y002938D01*
X018253Y002941D01*
X018301Y002940D01*
X018349Y002935D01*
X018397Y002926D01*
X018443Y002914D01*
X018488Y002897D01*
X018532Y002877D01*
X018574Y002854D01*
X018614Y002827D01*
X018652Y002797D01*
X018687Y002764D01*
X018719Y002728D01*
X018749Y002690D01*
X018775Y002649D01*
X018797Y002606D01*
X018817Y002562D01*
X018832Y002517D01*
X018844Y002470D01*
X018852Y002422D01*
X018856Y002374D01*
X018856Y002326D01*
X018852Y002278D01*
X018844Y002230D01*
X018832Y002183D01*
X018817Y002138D01*
X018797Y002094D01*
X018775Y002051D01*
X018749Y002010D01*
X018719Y001972D01*
X018687Y001936D01*
X018652Y001903D01*
X018614Y001873D01*
X018574Y001846D01*
X018532Y001823D01*
X018488Y001803D01*
X018443Y001786D01*
X018397Y001774D01*
X018349Y001765D01*
X018301Y001760D01*
X018253Y001759D01*
X018205Y001762D01*
X018157Y001769D01*
X018110Y001780D01*
X018064Y001794D01*
X018019Y001812D01*
X017976Y001834D01*
X017935Y001859D01*
X017897Y001888D01*
X017860Y001920D01*
X017826Y001954D01*
X017796Y001991D01*
X017768Y002030D01*
X017743Y002072D01*
X017723Y002116D01*
X017705Y002161D01*
X017692Y002207D01*
X017682Y002254D01*
X017676Y002302D01*
X017674Y002350D01*
X017674Y005600D02*
X017676Y005648D01*
X017682Y005696D01*
X017692Y005743D01*
X017705Y005789D01*
X017723Y005834D01*
X017743Y005878D01*
X017768Y005920D01*
X017796Y005959D01*
X017826Y005996D01*
X017860Y006030D01*
X017897Y006062D01*
X017935Y006091D01*
X017976Y006116D01*
X018019Y006138D01*
X018064Y006156D01*
X018110Y006170D01*
X018157Y006181D01*
X018205Y006188D01*
X018253Y006191D01*
X018301Y006190D01*
X018349Y006185D01*
X018397Y006176D01*
X018443Y006164D01*
X018488Y006147D01*
X018532Y006127D01*
X018574Y006104D01*
X018614Y006077D01*
X018652Y006047D01*
X018687Y006014D01*
X018719Y005978D01*
X018749Y005940D01*
X018775Y005899D01*
X018797Y005856D01*
X018817Y005812D01*
X018832Y005767D01*
X018844Y005720D01*
X018852Y005672D01*
X018856Y005624D01*
X018856Y005576D01*
X018852Y005528D01*
X018844Y005480D01*
X018832Y005433D01*
X018817Y005388D01*
X018797Y005344D01*
X018775Y005301D01*
X018749Y005260D01*
X018719Y005222D01*
X018687Y005186D01*
X018652Y005153D01*
X018614Y005123D01*
X018574Y005096D01*
X018532Y005073D01*
X018488Y005053D01*
X018443Y005036D01*
X018397Y005024D01*
X018349Y005015D01*
X018301Y005010D01*
X018253Y005009D01*
X018205Y005012D01*
X018157Y005019D01*
X018110Y005030D01*
X018064Y005044D01*
X018019Y005062D01*
X017976Y005084D01*
X017935Y005109D01*
X017897Y005138D01*
X017860Y005170D01*
X017826Y005204D01*
X017796Y005241D01*
X017768Y005280D01*
X017743Y005322D01*
X017723Y005366D01*
X017705Y005411D01*
X017692Y005457D01*
X017682Y005504D01*
X017676Y005552D01*
X017674Y005600D01*
X017674Y008850D02*
X017676Y008898D01*
X017682Y008946D01*
X017692Y008993D01*
X017705Y009039D01*
X017723Y009084D01*
X017743Y009128D01*
X017768Y009170D01*
X017796Y009209D01*
X017826Y009246D01*
X017860Y009280D01*
X017897Y009312D01*
X017935Y009341D01*
X017976Y009366D01*
X018019Y009388D01*
X018064Y009406D01*
X018110Y009420D01*
X018157Y009431D01*
X018205Y009438D01*
X018253Y009441D01*
X018301Y009440D01*
X018349Y009435D01*
X018397Y009426D01*
X018443Y009414D01*
X018488Y009397D01*
X018532Y009377D01*
X018574Y009354D01*
X018614Y009327D01*
X018652Y009297D01*
X018687Y009264D01*
X018719Y009228D01*
X018749Y009190D01*
X018775Y009149D01*
X018797Y009106D01*
X018817Y009062D01*
X018832Y009017D01*
X018844Y008970D01*
X018852Y008922D01*
X018856Y008874D01*
X018856Y008826D01*
X018852Y008778D01*
X018844Y008730D01*
X018832Y008683D01*
X018817Y008638D01*
X018797Y008594D01*
X018775Y008551D01*
X018749Y008510D01*
X018719Y008472D01*
X018687Y008436D01*
X018652Y008403D01*
X018614Y008373D01*
X018574Y008346D01*
X018532Y008323D01*
X018488Y008303D01*
X018443Y008286D01*
X018397Y008274D01*
X018349Y008265D01*
X018301Y008260D01*
X018253Y008259D01*
X018205Y008262D01*
X018157Y008269D01*
X018110Y008280D01*
X018064Y008294D01*
X018019Y008312D01*
X017976Y008334D01*
X017935Y008359D01*
X017897Y008388D01*
X017860Y008420D01*
X017826Y008454D01*
X017796Y008491D01*
X017768Y008530D01*
X017743Y008572D01*
X017723Y008616D01*
X017705Y008661D01*
X017692Y008707D01*
X017682Y008754D01*
X017676Y008802D01*
X017674Y008850D01*
D11*
X018265Y008850D03*
X018265Y005600D03*
X018265Y002350D03*
D12*
X013799Y001452D03*
X013799Y003248D03*
X013799Y004702D03*
X013799Y006498D03*
X013799Y007952D03*
X013799Y009748D03*
D13*
X016515Y008850D03*
X016515Y005600D03*
X016515Y002350D03*
D14*
X011148Y001400D03*
X010321Y001774D03*
X010321Y001026D03*
X010321Y004276D03*
X011148Y004650D03*
X010321Y005024D03*
X010321Y007526D03*
X011148Y007900D03*
X010321Y008274D03*
X003184Y002999D03*
X002357Y002625D03*
X003184Y002251D03*
D15*
X009105Y004875D03*
X009775Y004875D03*
X010630Y003650D03*
X011300Y003650D03*
X012180Y003575D03*
X012850Y003575D03*
X012850Y002825D03*
X012180Y002825D03*
X012180Y002075D03*
X012850Y002075D03*
X012850Y005325D03*
X012180Y005325D03*
X012180Y006075D03*
X012850Y006075D03*
X012850Y006825D03*
X012180Y006825D03*
X011300Y006900D03*
X010630Y006900D03*
X008525Y007450D03*
X007855Y007450D03*
X012180Y008575D03*
X012850Y008575D03*
X012850Y009325D03*
X012180Y009325D03*
X012180Y010075D03*
X012850Y010075D03*
D16*
X011540Y009435D03*
X010790Y009435D03*
X010040Y009435D03*
X010040Y008765D03*
X010790Y008765D03*
X011540Y008765D03*
X009765Y007910D03*
X009765Y007240D03*
X010040Y006185D03*
X010790Y006185D03*
X011540Y006185D03*
X011540Y005515D03*
X010790Y005515D03*
X010040Y005515D03*
X006190Y006415D03*
X005285Y006415D03*
X005285Y007085D03*
X006190Y007085D03*
X002290Y005745D03*
X001540Y005745D03*
X001540Y005075D03*
X002290Y005075D03*
X004892Y003235D03*
X005640Y003235D03*
X005640Y002565D03*
X004892Y002565D03*
X002665Y001685D03*
X001915Y001685D03*
X001915Y001015D03*
X002665Y001015D03*
X009440Y001065D03*
X009440Y001735D03*
X010040Y002265D03*
X010790Y002265D03*
X011540Y002265D03*
X011540Y002935D03*
X010790Y002935D03*
X010040Y002935D03*
D17*
X007640Y001950D03*
X007640Y009250D03*
D18*
X008490Y010100D03*
X001890Y010100D03*
D19*
X000640Y010100D03*
X008490Y001100D03*
D20*
X005709Y003966D02*
X005709Y004184D01*
X005709Y003966D02*
X005649Y003966D01*
X005649Y004184D01*
X005709Y004184D01*
X005709Y004024D02*
X005649Y004024D01*
X005649Y004082D02*
X005709Y004082D01*
X005709Y004140D02*
X005649Y004140D01*
X005512Y004184D02*
X005512Y003966D01*
X005452Y003966D01*
X005452Y004184D01*
X005512Y004184D01*
X005512Y004024D02*
X005452Y004024D01*
X005452Y004082D02*
X005512Y004082D01*
X005512Y004140D02*
X005452Y004140D01*
X005315Y004184D02*
X005315Y003966D01*
X005255Y003966D01*
X005255Y004184D01*
X005315Y004184D01*
X005315Y004024D02*
X005255Y004024D01*
X005255Y004082D02*
X005315Y004082D01*
X005315Y004140D02*
X005255Y004140D01*
X005118Y004184D02*
X005118Y003966D01*
X005058Y003966D01*
X005058Y004184D01*
X005118Y004184D01*
X005118Y004024D02*
X005058Y004024D01*
X005058Y004082D02*
X005118Y004082D01*
X005118Y004140D02*
X005058Y004140D01*
X004922Y004184D02*
X004922Y003966D01*
X004862Y003966D01*
X004862Y004184D01*
X004922Y004184D01*
X004922Y004024D02*
X004862Y004024D01*
X004862Y004082D02*
X004922Y004082D01*
X004922Y004140D02*
X004862Y004140D01*
X004725Y004184D02*
X004725Y003966D01*
X004665Y003966D01*
X004665Y004184D01*
X004725Y004184D01*
X004725Y004024D02*
X004665Y004024D01*
X004665Y004082D02*
X004725Y004082D01*
X004725Y004140D02*
X004665Y004140D01*
X004528Y004184D02*
X004528Y003966D01*
X004468Y003966D01*
X004468Y004184D01*
X004528Y004184D01*
X004528Y004024D02*
X004468Y004024D01*
X004468Y004082D02*
X004528Y004082D01*
X004528Y004140D02*
X004468Y004140D01*
X004331Y004184D02*
X004331Y003966D01*
X004271Y003966D01*
X004271Y004184D01*
X004331Y004184D01*
X004331Y004024D02*
X004271Y004024D01*
X004271Y004082D02*
X004331Y004082D01*
X004331Y004140D02*
X004271Y004140D01*
X004174Y004281D02*
X004174Y004341D01*
X004174Y004281D02*
X003956Y004281D01*
X003956Y004341D01*
X004174Y004341D01*
X004174Y004339D02*
X003956Y004339D01*
X004174Y004478D02*
X004174Y004538D01*
X004174Y004478D02*
X003956Y004478D01*
X003956Y004538D01*
X004174Y004538D01*
X004174Y004536D02*
X003956Y004536D01*
X004174Y004675D02*
X004174Y004735D01*
X004174Y004675D02*
X003956Y004675D01*
X003956Y004735D01*
X004174Y004735D01*
X004174Y004733D02*
X003956Y004733D01*
X004174Y004872D02*
X004174Y004932D01*
X004174Y004872D02*
X003956Y004872D01*
X003956Y004932D01*
X004174Y004932D01*
X004174Y004930D02*
X003956Y004930D01*
X004174Y005068D02*
X004174Y005128D01*
X004174Y005068D02*
X003956Y005068D01*
X003956Y005128D01*
X004174Y005128D01*
X004174Y005126D02*
X003956Y005126D01*
X004174Y005265D02*
X004174Y005325D01*
X004174Y005265D02*
X003956Y005265D01*
X003956Y005325D01*
X004174Y005325D01*
X004174Y005323D02*
X003956Y005323D01*
X004174Y005462D02*
X004174Y005522D01*
X004174Y005462D02*
X003956Y005462D01*
X003956Y005522D01*
X004174Y005522D01*
X004174Y005520D02*
X003956Y005520D01*
X004174Y005659D02*
X004174Y005719D01*
X004174Y005659D02*
X003956Y005659D01*
X003956Y005719D01*
X004174Y005719D01*
X004174Y005717D02*
X003956Y005717D01*
X004331Y005816D02*
X004331Y006034D01*
X004331Y005816D02*
X004271Y005816D01*
X004271Y006034D01*
X004331Y006034D01*
X004331Y005874D02*
X004271Y005874D01*
X004271Y005932D02*
X004331Y005932D01*
X004331Y005990D02*
X004271Y005990D01*
X004528Y006034D02*
X004528Y005816D01*
X004468Y005816D01*
X004468Y006034D01*
X004528Y006034D01*
X004528Y005874D02*
X004468Y005874D01*
X004468Y005932D02*
X004528Y005932D01*
X004528Y005990D02*
X004468Y005990D01*
X004725Y006034D02*
X004725Y005816D01*
X004665Y005816D01*
X004665Y006034D01*
X004725Y006034D01*
X004725Y005874D02*
X004665Y005874D01*
X004665Y005932D02*
X004725Y005932D01*
X004725Y005990D02*
X004665Y005990D01*
X004922Y006034D02*
X004922Y005816D01*
X004862Y005816D01*
X004862Y006034D01*
X004922Y006034D01*
X004922Y005874D02*
X004862Y005874D01*
X004862Y005932D02*
X004922Y005932D01*
X004922Y005990D02*
X004862Y005990D01*
X005118Y006034D02*
X005118Y005816D01*
X005058Y005816D01*
X005058Y006034D01*
X005118Y006034D01*
X005118Y005874D02*
X005058Y005874D01*
X005058Y005932D02*
X005118Y005932D01*
X005118Y005990D02*
X005058Y005990D01*
X005315Y006034D02*
X005315Y005816D01*
X005255Y005816D01*
X005255Y006034D01*
X005315Y006034D01*
X005315Y005874D02*
X005255Y005874D01*
X005255Y005932D02*
X005315Y005932D01*
X005315Y005990D02*
X005255Y005990D01*
X005512Y006034D02*
X005512Y005816D01*
X005452Y005816D01*
X005452Y006034D01*
X005512Y006034D01*
X005512Y005874D02*
X005452Y005874D01*
X005452Y005932D02*
X005512Y005932D01*
X005512Y005990D02*
X005452Y005990D01*
X005709Y006034D02*
X005709Y005816D01*
X005649Y005816D01*
X005649Y006034D01*
X005709Y006034D01*
X005709Y005874D02*
X005649Y005874D01*
X005649Y005932D02*
X005709Y005932D01*
X005709Y005990D02*
X005649Y005990D01*
X006024Y005719D02*
X006024Y005659D01*
X005806Y005659D01*
X005806Y005719D01*
X006024Y005719D01*
X006024Y005717D02*
X005806Y005717D01*
X006024Y005522D02*
X006024Y005462D01*
X005806Y005462D01*
X005806Y005522D01*
X006024Y005522D01*
X006024Y005520D02*
X005806Y005520D01*
X006024Y005325D02*
X006024Y005265D01*
X005806Y005265D01*
X005806Y005325D01*
X006024Y005325D01*
X006024Y005323D02*
X005806Y005323D01*
X006024Y005128D02*
X006024Y005068D01*
X005806Y005068D01*
X005806Y005128D01*
X006024Y005128D01*
X006024Y005126D02*
X005806Y005126D01*
X006024Y004932D02*
X006024Y004872D01*
X005806Y004872D01*
X005806Y004932D01*
X006024Y004932D01*
X006024Y004930D02*
X005806Y004930D01*
X006024Y004735D02*
X006024Y004675D01*
X005806Y004675D01*
X005806Y004735D01*
X006024Y004735D01*
X006024Y004733D02*
X005806Y004733D01*
X006024Y004538D02*
X006024Y004478D01*
X005806Y004478D01*
X005806Y004538D01*
X006024Y004538D01*
X006024Y004536D02*
X005806Y004536D01*
X006024Y004341D02*
X006024Y004281D01*
X005806Y004281D01*
X005806Y004341D01*
X006024Y004341D01*
X006024Y004339D02*
X005806Y004339D01*
D21*
X004990Y005000D03*
D22*
X003934Y001625D03*
X003246Y001625D03*
X003246Y000975D03*
X003934Y000975D03*
D23*
X005560Y008340D03*
X005560Y009250D03*
X005560Y010160D03*
D24*
X003120Y009250D03*
D25*
X001890Y009150D03*
X001890Y007850D03*
D26*
X004828Y001774D03*
X004828Y001400D03*
X004828Y001026D03*
X005852Y001026D03*
X005852Y001774D03*
D27*
X000640Y001100D03*
D28*
X000640Y002100D03*
X000640Y003100D03*
X000640Y004100D03*
X000640Y005100D03*
X000640Y006100D03*
X000640Y007100D03*
X000640Y008100D03*
X000640Y009100D03*
D29*
X002613Y007350D03*
X002967Y007350D03*
X002967Y006550D03*
X002613Y006550D03*
X002249Y004263D03*
X001895Y004263D03*
D30*
X016515Y005600D02*
X018265Y005600D01*
X018265Y002350D02*
X016515Y002350D01*
X016515Y008850D02*
X018265Y008850D01*
D31*
X016515Y008850D02*
X016515Y008850D01*
X016515Y009225D01*
X012950Y009225D01*
X012850Y009325D01*
X012555Y008950D02*
X012180Y008575D01*
X012500Y008225D02*
X011473Y008225D01*
X011148Y007900D01*
X011475Y007889D02*
X012515Y007889D01*
X012515Y007791D02*
X011475Y007791D01*
X011475Y007692D02*
X012515Y007692D01*
X012515Y007594D02*
X011388Y007594D01*
X011387Y007593D02*
X011475Y007680D01*
X011475Y007944D01*
X011556Y008025D01*
X012515Y008025D01*
X012515Y007116D01*
X012459Y007172D01*
X011902Y007172D01*
X011814Y007084D01*
X011814Y006750D01*
X011666Y006750D01*
X011666Y007159D01*
X011578Y007247D01*
X011021Y007247D01*
X010965Y007191D01*
X010939Y007217D01*
X010905Y007237D01*
X010867Y007247D01*
X010679Y007247D01*
X010679Y006948D01*
X010582Y006948D01*
X010582Y006852D01*
X010264Y006852D01*
X010264Y006750D01*
X009557Y006750D01*
X009681Y006874D01*
X010024Y006874D01*
X010112Y006962D01*
X010112Y007222D01*
X010124Y007219D01*
X010293Y007219D01*
X010293Y007497D01*
X010350Y007497D01*
X010350Y007233D01*
X010322Y007217D01*
X010294Y007189D01*
X010274Y007155D01*
X010264Y007117D01*
X010264Y006948D01*
X010582Y006948D01*
X010582Y007243D01*
X010591Y007248D01*
X010618Y007276D01*
X010638Y007311D01*
X010648Y007349D01*
X010648Y007497D01*
X010350Y007497D01*
X010350Y007555D01*
X010293Y007555D01*
X010293Y007833D01*
X010124Y007833D01*
X010112Y007830D01*
X010112Y007875D01*
X010205Y007875D01*
X010297Y007967D01*
X010561Y007967D01*
X010648Y008054D01*
X010648Y008399D01*
X010742Y008399D01*
X010742Y008717D01*
X010838Y008717D01*
X010838Y008399D01*
X011007Y008399D01*
X011045Y008409D01*
X011079Y008429D01*
X011107Y008457D01*
X011127Y008491D01*
X011137Y008529D01*
X011137Y008717D01*
X010838Y008717D01*
X010838Y008814D01*
X011137Y008814D01*
X011137Y009002D01*
X011127Y009040D01*
X011107Y009074D01*
X011081Y009100D01*
X011137Y009156D01*
X011137Y009235D01*
X011193Y009235D01*
X011193Y009156D01*
X011249Y009100D01*
X011223Y009074D01*
X011203Y009040D01*
X011193Y009002D01*
X011193Y008814D01*
X011492Y008814D01*
X011492Y008717D01*
X011193Y008717D01*
X011193Y008529D01*
X011203Y008491D01*
X011223Y008457D01*
X011251Y008429D01*
X011285Y008409D01*
X011323Y008399D01*
X011364Y008399D01*
X011273Y008308D01*
X011273Y008308D01*
X011173Y008207D01*
X010909Y008207D01*
X010821Y008120D01*
X010821Y007680D01*
X010909Y007593D01*
X011387Y007593D01*
X010908Y007594D02*
X010648Y007594D01*
X010648Y007555D02*
X010648Y007703D01*
X010638Y007741D01*
X010618Y007776D01*
X010591Y007803D01*
X010556Y007823D01*
X010518Y007833D01*
X010350Y007833D01*
X010350Y007555D01*
X010648Y007555D01*
X010648Y007495D02*
X012515Y007495D01*
X012515Y007397D02*
X010648Y007397D01*
X010631Y007298D02*
X012515Y007298D01*
X012515Y007200D02*
X011626Y007200D01*
X011666Y007101D02*
X011831Y007101D01*
X011814Y007003D02*
X011666Y007003D01*
X011666Y006904D02*
X011814Y006904D01*
X011814Y006806D02*
X011666Y006806D01*
X011300Y006900D02*
X011300Y006550D01*
X011390Y006550D01*
X011905Y006550D01*
X012180Y006825D01*
X012515Y007116D02*
X012515Y007116D01*
X012850Y006825D02*
X012950Y006725D01*
X013799Y006725D01*
X013799Y006498D01*
X012850Y006075D02*
X012850Y005925D01*
X016515Y005925D01*
X016515Y005600D01*
X013799Y005275D02*
X012825Y005275D01*
X012525Y004975D01*
X011473Y004975D01*
X011148Y004650D01*
X011475Y004639D02*
X012515Y004639D01*
X012515Y004737D02*
X011518Y004737D01*
X011556Y004775D02*
X012515Y004775D01*
X012515Y003866D01*
X012459Y003922D01*
X011902Y003922D01*
X011814Y003834D01*
X011814Y003500D01*
X011666Y003500D01*
X011666Y003909D01*
X011578Y003997D01*
X011021Y003997D01*
X010965Y003941D01*
X010939Y003967D01*
X010905Y003987D01*
X010867Y003997D01*
X010679Y003997D01*
X010679Y003698D01*
X010582Y003698D01*
X010582Y003602D01*
X010264Y003602D01*
X010264Y003500D01*
X010223Y003500D01*
X009365Y004358D01*
X009248Y004475D01*
X006898Y004475D01*
X006878Y004494D01*
X006976Y004535D01*
X007057Y004615D01*
X007100Y004720D01*
X007100Y004833D01*
X007073Y004898D01*
X008739Y004898D01*
X008739Y004616D01*
X008827Y004528D01*
X009384Y004528D01*
X009440Y004584D01*
X009496Y004528D01*
X010027Y004528D01*
X010024Y004526D01*
X010004Y004491D01*
X009994Y004453D01*
X009994Y004305D01*
X010293Y004305D01*
X010293Y004583D01*
X010124Y004583D01*
X010103Y004578D01*
X010141Y004616D01*
X010141Y004717D01*
X010561Y004717D01*
X010648Y004804D01*
X010648Y005149D01*
X010742Y005149D01*
X010742Y005467D01*
X010838Y005467D01*
X010838Y005149D01*
X011007Y005149D01*
X011045Y005159D01*
X011079Y005179D01*
X011107Y005207D01*
X011127Y005241D01*
X011137Y005279D01*
X011137Y005467D01*
X010838Y005467D01*
X010838Y005564D01*
X011137Y005564D01*
X011137Y005752D01*
X011127Y005790D01*
X011107Y005824D01*
X011081Y005850D01*
X011137Y005906D01*
X011137Y005985D01*
X011193Y005985D01*
X011193Y005906D01*
X011249Y005850D01*
X011223Y005824D01*
X011203Y005790D01*
X011193Y005752D01*
X011193Y005564D01*
X011492Y005564D01*
X011492Y005467D01*
X011193Y005467D01*
X011193Y005279D01*
X011203Y005241D01*
X011223Y005207D01*
X011251Y005179D01*
X011285Y005159D01*
X011323Y005149D01*
X011364Y005149D01*
X011173Y004957D01*
X010909Y004957D01*
X010821Y004870D01*
X010821Y004430D01*
X010909Y004343D01*
X011387Y004343D01*
X011475Y004430D01*
X011475Y004694D01*
X011556Y004775D01*
X011475Y004540D02*
X012515Y004540D01*
X012515Y004442D02*
X011475Y004442D01*
X011388Y004343D02*
X012515Y004343D01*
X012515Y004245D02*
X010648Y004245D01*
X010648Y004247D02*
X010350Y004247D01*
X010350Y003983D01*
X010322Y003967D01*
X010294Y003939D01*
X010274Y003905D01*
X010264Y003867D01*
X010264Y003698D01*
X010582Y003698D01*
X010582Y003993D01*
X010591Y003998D01*
X010618Y004026D01*
X010638Y004061D01*
X010648Y004099D01*
X010648Y004247D01*
X010648Y004305D02*
X010648Y004453D01*
X010638Y004491D01*
X010618Y004526D01*
X010591Y004553D01*
X010556Y004573D01*
X010518Y004583D01*
X010350Y004583D01*
X010350Y004305D01*
X010293Y004305D01*
X010293Y004247D01*
X010350Y004247D01*
X010350Y004305D01*
X010648Y004305D01*
X010648Y004343D02*
X010908Y004343D01*
X010821Y004442D02*
X010648Y004442D01*
X010604Y004540D02*
X010821Y004540D01*
X010821Y004639D02*
X010141Y004639D01*
X010293Y004540D02*
X010350Y004540D01*
X010350Y004442D02*
X010293Y004442D01*
X010293Y004343D02*
X010350Y004343D01*
X010350Y004245D02*
X010293Y004245D01*
X010293Y004247D02*
X010293Y003969D01*
X010124Y003969D01*
X010086Y003979D01*
X010052Y003998D01*
X010024Y004026D01*
X010004Y004061D01*
X009994Y004099D01*
X009994Y004247D01*
X010293Y004247D01*
X010293Y004146D02*
X010350Y004146D01*
X010350Y004048D02*
X010293Y004048D01*
X010304Y003949D02*
X009774Y003949D01*
X009872Y003851D02*
X010264Y003851D01*
X010264Y003752D02*
X009971Y003752D01*
X010069Y003654D02*
X010582Y003654D01*
X010582Y003752D02*
X010679Y003752D01*
X010679Y003851D02*
X010582Y003851D01*
X010582Y003949D02*
X010679Y003949D01*
X010631Y004048D02*
X012515Y004048D01*
X012515Y004146D02*
X010648Y004146D01*
X010957Y003949D02*
X010973Y003949D01*
X011300Y003650D02*
X011300Y003300D01*
X010140Y003300D01*
X009165Y004275D01*
X006815Y004275D01*
X006385Y004705D01*
X005915Y004705D01*
X005915Y004902D02*
X006549Y004902D01*
X006815Y004777D01*
X007066Y004639D02*
X008739Y004639D01*
X008739Y004737D02*
X007100Y004737D01*
X007099Y004836D02*
X008739Y004836D01*
X008882Y005098D02*
X009105Y004875D01*
X008882Y005098D02*
X005915Y005098D01*
X005915Y005295D02*
X007610Y005295D01*
X008865Y006550D01*
X011300Y006550D01*
X011540Y006185D02*
X010790Y006185D01*
X010040Y006185D01*
X010005Y006150D01*
X009040Y006150D01*
X009565Y005675D02*
X010025Y005675D01*
X010040Y005515D01*
X010387Y005525D02*
X010742Y005525D01*
X010742Y005564D02*
X010742Y005467D01*
X010443Y005467D01*
X010443Y005331D01*
X010387Y005331D01*
X010387Y005794D01*
X010331Y005850D01*
X010387Y005906D01*
X010387Y005985D01*
X010443Y005985D01*
X010443Y005906D01*
X010499Y005850D01*
X010473Y005824D01*
X010453Y005790D01*
X010443Y005752D01*
X010443Y005564D01*
X010742Y005564D01*
X010838Y005525D02*
X011492Y005525D01*
X011193Y005427D02*
X011137Y005427D01*
X011137Y005328D02*
X011193Y005328D01*
X011210Y005230D02*
X011120Y005230D01*
X011346Y005131D02*
X010648Y005131D01*
X010648Y005033D02*
X011248Y005033D01*
X010885Y004934D02*
X010648Y004934D01*
X010648Y004836D02*
X010821Y004836D01*
X010821Y004737D02*
X010581Y004737D01*
X010321Y005024D02*
X009924Y005024D01*
X009775Y004875D01*
X009484Y004540D02*
X009396Y004540D01*
X009281Y004442D02*
X009994Y004442D01*
X009994Y004343D02*
X009380Y004343D01*
X009478Y004245D02*
X009994Y004245D01*
X009994Y004146D02*
X009577Y004146D01*
X009675Y004048D02*
X010012Y004048D01*
X010168Y003555D02*
X010264Y003555D01*
X009565Y003080D02*
X009565Y002500D01*
X009805Y002500D01*
X010040Y002265D01*
X010387Y002275D02*
X010742Y002275D01*
X010742Y002314D02*
X010742Y002217D01*
X010838Y002217D01*
X010838Y001899D01*
X011007Y001899D01*
X011045Y001909D01*
X011079Y001929D01*
X011107Y001957D01*
X011127Y001991D01*
X011137Y002029D01*
X011137Y002217D01*
X010838Y002217D01*
X010838Y002314D01*
X011137Y002314D01*
X011137Y002502D01*
X011127Y002540D01*
X011107Y002574D01*
X011081Y002600D01*
X011137Y002656D01*
X011137Y002735D01*
X011193Y002735D01*
X011193Y002656D01*
X011249Y002600D01*
X011223Y002574D01*
X011203Y002540D01*
X011193Y002502D01*
X011193Y002314D01*
X011492Y002314D01*
X011492Y002217D01*
X011193Y002217D01*
X011193Y002029D01*
X011203Y001991D01*
X011223Y001957D01*
X011251Y001929D01*
X011285Y001909D01*
X011323Y001899D01*
X011364Y001899D01*
X011173Y001707D01*
X010909Y001707D01*
X010821Y001620D01*
X010821Y001180D01*
X010909Y001093D01*
X011387Y001093D01*
X011475Y001180D01*
X011475Y001444D01*
X011556Y001525D01*
X012515Y001525D01*
X012515Y000800D01*
X010632Y000800D01*
X010638Y000811D01*
X010648Y000849D01*
X010648Y000997D01*
X010350Y000997D01*
X010350Y001055D01*
X010293Y001055D01*
X010293Y001333D01*
X010124Y001333D01*
X010086Y001323D01*
X010052Y001303D01*
X010024Y001276D01*
X010004Y001241D01*
X009994Y001203D01*
X009994Y001055D01*
X010293Y001055D01*
X010293Y000997D01*
X009994Y000997D01*
X009994Y000849D01*
X010004Y000811D01*
X010010Y000800D01*
X009787Y000800D01*
X009787Y001344D01*
X009731Y001400D01*
X009787Y001456D01*
X009787Y001574D01*
X009994Y001574D01*
X009994Y001554D01*
X010082Y001467D01*
X010561Y001467D01*
X010648Y001554D01*
X010648Y001899D01*
X010742Y001899D01*
X010742Y002217D01*
X010443Y002217D01*
X010443Y002081D01*
X010387Y002081D01*
X010387Y002544D01*
X010331Y002600D01*
X010387Y002656D01*
X010387Y002735D01*
X010443Y002735D01*
X010443Y002656D01*
X010499Y002600D01*
X010473Y002574D01*
X010453Y002540D01*
X010443Y002502D01*
X010443Y002314D01*
X010742Y002314D01*
X010838Y002275D02*
X011492Y002275D01*
X011193Y002373D02*
X011137Y002373D01*
X011137Y002472D02*
X011193Y002472D01*
X011221Y002570D02*
X011109Y002570D01*
X011137Y002669D02*
X011193Y002669D01*
X011540Y002935D02*
X010790Y002935D01*
X010040Y002935D01*
X010015Y002950D01*
X008990Y003975D01*
X009045Y003600D02*
X009565Y003080D01*
X009065Y003240D02*
X008930Y003375D01*
X007115Y003375D01*
X006179Y004311D01*
X005915Y004311D01*
X005915Y004508D02*
X006282Y004508D01*
X007190Y003600D01*
X009045Y003600D01*
X009065Y003240D02*
X009065Y001148D01*
X009148Y001065D01*
X009440Y001065D01*
X009787Y001093D02*
X009994Y001093D01*
X009994Y001191D02*
X009787Y001191D01*
X009787Y001290D02*
X010038Y001290D01*
X009743Y001388D02*
X010821Y001388D01*
X010821Y001290D02*
X010605Y001290D01*
X010591Y001303D02*
X010556Y001323D01*
X010518Y001333D01*
X010350Y001333D01*
X010350Y001055D01*
X010648Y001055D01*
X010648Y001203D01*
X010638Y001241D01*
X010618Y001276D01*
X010591Y001303D01*
X010648Y001191D02*
X010821Y001191D01*
X010648Y001093D02*
X012515Y001093D01*
X012515Y001191D02*
X011475Y001191D01*
X011475Y001290D02*
X012515Y001290D01*
X012515Y001388D02*
X011475Y001388D01*
X011517Y001487D02*
X012515Y001487D01*
X012575Y001725D02*
X011473Y001725D01*
X011148Y001400D01*
X010821Y001487D02*
X010581Y001487D01*
X010648Y001585D02*
X010821Y001585D01*
X010885Y001684D02*
X010648Y001684D01*
X010648Y001782D02*
X011247Y001782D01*
X011346Y001881D02*
X010648Y001881D01*
X010742Y001979D02*
X010838Y001979D01*
X010838Y002078D02*
X010742Y002078D01*
X010742Y002176D02*
X010838Y002176D01*
X011137Y002176D02*
X011193Y002176D01*
X011193Y002078D02*
X011137Y002078D01*
X011120Y001979D02*
X011210Y001979D01*
X010443Y002176D02*
X010387Y002176D01*
X010387Y002373D02*
X010443Y002373D01*
X010443Y002472D02*
X010387Y002472D01*
X010361Y002570D02*
X010471Y002570D01*
X010443Y002669D02*
X010387Y002669D01*
X011300Y003300D02*
X011905Y003300D01*
X012180Y003575D01*
X011814Y003555D02*
X011666Y003555D01*
X011666Y003654D02*
X011814Y003654D01*
X011814Y003752D02*
X011666Y003752D01*
X011666Y003851D02*
X011830Y003851D01*
X011626Y003949D02*
X012515Y003949D01*
X012515Y003866D02*
X012515Y003866D01*
X012850Y003575D02*
X012950Y003475D01*
X013799Y003475D01*
X013799Y003248D01*
X013000Y002675D02*
X016515Y002675D01*
X016515Y002350D01*
X016515Y002775D01*
X013799Y002000D02*
X012850Y002000D01*
X012575Y001725D01*
X012850Y002000D02*
X012850Y002075D01*
X012555Y002450D02*
X012180Y002075D01*
X012555Y002450D02*
X013390Y002450D01*
X013540Y002300D01*
X013000Y002675D02*
X012850Y002825D01*
X012850Y002775D01*
X012180Y002825D02*
X012071Y002935D01*
X011540Y002935D01*
X010321Y001774D02*
X009479Y001774D01*
X009440Y001735D01*
X009787Y001487D02*
X010062Y001487D01*
X010293Y001290D02*
X010350Y001290D01*
X010350Y001191D02*
X010293Y001191D01*
X010293Y001093D02*
X010350Y001093D01*
X010648Y000994D02*
X012515Y000994D01*
X012515Y000896D02*
X010648Y000896D01*
X009994Y000896D02*
X009787Y000896D01*
X009787Y000994D02*
X009994Y000994D01*
X006290Y001271D02*
X006290Y003175D01*
X006390Y003300D01*
X006390Y003574D01*
X006265Y003699D01*
X005641Y003699D01*
X005482Y003858D01*
X005482Y004075D01*
X005285Y004075D02*
X005285Y003755D01*
X005490Y003550D01*
X005490Y003385D01*
X005640Y003235D01*
X005640Y003400D01*
X006090Y003400D01*
X005640Y003235D02*
X005640Y003100D01*
X005816Y003100D01*
X006040Y002876D01*
X006040Y001774D01*
X005852Y001774D01*
X005840Y002032D02*
X005553Y002032D01*
X005519Y001998D01*
X005501Y002016D01*
X005397Y002059D01*
X005283Y002059D01*
X005179Y002016D01*
X005161Y001998D01*
X005156Y002002D01*
X005122Y002022D01*
X005084Y002032D01*
X004832Y002032D01*
X004832Y001778D01*
X004824Y001778D01*
X004824Y001770D01*
X004442Y001770D01*
X004442Y001716D01*
X004397Y001735D01*
X004283Y001735D01*
X004232Y001714D01*
X004232Y001874D01*
X004144Y001962D01*
X004134Y001962D01*
X004134Y001977D01*
X004176Y002019D01*
X004219Y002124D01*
X004219Y002237D01*
X004176Y002342D01*
X004096Y002422D01*
X003991Y002466D01*
X003878Y002466D01*
X003773Y002422D01*
X003693Y002342D01*
X003649Y002237D01*
X003649Y002124D01*
X003693Y002019D01*
X003734Y001977D01*
X003734Y001962D01*
X003725Y001962D01*
X003637Y001874D01*
X003637Y001376D01*
X003717Y001295D01*
X003695Y001282D01*
X003667Y001254D01*
X003647Y001220D01*
X003637Y001182D01*
X003637Y000999D01*
X003911Y000999D01*
X003911Y000951D01*
X003637Y000951D01*
X003637Y000800D01*
X003543Y000800D01*
X003543Y001224D01*
X003467Y001300D01*
X003543Y001376D01*
X003543Y001874D01*
X003455Y001962D01*
X003433Y001962D01*
X003453Y001973D01*
X003481Y002001D01*
X003501Y002036D01*
X003511Y002074D01*
X003511Y002222D01*
X003212Y002222D01*
X003212Y002280D01*
X003155Y002280D01*
X003155Y002558D01*
X003040Y002558D01*
X003173Y002692D01*
X003423Y002692D01*
X003511Y002779D01*
X003511Y003219D01*
X003423Y003306D01*
X002944Y003306D01*
X002857Y003219D01*
X002857Y002969D01*
X002684Y002796D01*
X002684Y002845D01*
X002596Y002932D01*
X002118Y002932D01*
X002059Y002874D01*
X001972Y002910D01*
X001858Y002910D01*
X001754Y002867D01*
X001673Y002786D01*
X001630Y002682D01*
X001630Y002568D01*
X001673Y002464D01*
X001705Y002432D01*
X001705Y002051D01*
X001656Y002051D01*
X001568Y001963D01*
X001568Y001406D01*
X001624Y001350D01*
X001598Y001324D01*
X001578Y001290D01*
X001568Y001252D01*
X001568Y001064D01*
X001867Y001064D01*
X001867Y000967D01*
X001568Y000967D01*
X001568Y000800D01*
X001265Y000800D01*
X001265Y002442D01*
X002348Y003525D01*
X003098Y003525D01*
X003488Y003915D01*
X003547Y003915D01*
X003604Y003939D01*
X003580Y003882D01*
X003580Y003768D01*
X003623Y003664D01*
X003704Y003583D01*
X003808Y003540D01*
X003922Y003540D01*
X003979Y003564D01*
X003955Y003507D01*
X003955Y003393D01*
X003998Y003289D01*
X004079Y003208D01*
X004183Y003165D01*
X004297Y003165D01*
X004401Y003208D01*
X004482Y003289D01*
X004525Y003393D01*
X004525Y003507D01*
X004512Y003539D01*
X004692Y003719D01*
X004692Y003601D01*
X004633Y003601D01*
X004545Y003513D01*
X004545Y003216D01*
X004450Y003135D01*
X004383Y003135D01*
X004279Y003092D01*
X004198Y003011D01*
X004155Y002907D01*
X004155Y002793D01*
X004198Y002689D01*
X004279Y002608D01*
X004383Y002565D01*
X004497Y002565D01*
X004601Y002608D01*
X004607Y002614D01*
X004843Y002614D01*
X004843Y002517D01*
X004545Y002517D01*
X004545Y002329D01*
X004555Y002291D01*
X004575Y002257D01*
X004603Y002229D01*
X004637Y002209D01*
X004675Y002199D01*
X004843Y002199D01*
X004843Y002517D01*
X004940Y002517D01*
X004940Y002614D01*
X005238Y002614D01*
X005238Y002802D01*
X005228Y002840D01*
X005208Y002874D01*
X005182Y002900D01*
X005238Y002956D01*
X005238Y003513D01*
X005151Y003601D01*
X005092Y003601D01*
X005092Y003666D01*
X005202Y003555D01*
X005197Y003555D01*
X005202Y003555D02*
X005290Y003467D01*
X005290Y003302D01*
X005293Y003299D01*
X005293Y002956D01*
X005349Y002900D01*
X005323Y002874D01*
X005303Y002840D01*
X005293Y002802D01*
X005293Y002614D01*
X005592Y002614D01*
X005592Y002517D01*
X005688Y002517D01*
X005688Y002199D01*
X005840Y002199D01*
X005840Y002032D01*
X005840Y002078D02*
X004200Y002078D01*
X004219Y002176D02*
X005840Y002176D01*
X005688Y002275D02*
X005592Y002275D01*
X005592Y002199D02*
X005592Y002517D01*
X005293Y002517D01*
X005293Y002329D01*
X005303Y002291D01*
X005323Y002257D01*
X005351Y002229D01*
X005385Y002209D01*
X005423Y002199D01*
X005592Y002199D01*
X005592Y002373D02*
X005688Y002373D01*
X005688Y002472D02*
X005592Y002472D01*
X005592Y002570D02*
X004940Y002570D01*
X004940Y002517D02*
X005238Y002517D01*
X005238Y002329D01*
X005228Y002291D01*
X005208Y002257D01*
X005181Y002229D01*
X005146Y002209D01*
X005108Y002199D01*
X004940Y002199D01*
X004940Y002517D01*
X004940Y002472D02*
X004843Y002472D01*
X004890Y002550D02*
X004240Y002550D01*
X004090Y002700D01*
X004090Y002950D01*
X004290Y003150D01*
X004428Y003150D01*
X004540Y003262D01*
X004540Y003550D01*
X004695Y003705D01*
X004695Y004075D01*
X004695Y004105D02*
X004695Y004475D01*
X004940Y004650D02*
X004940Y004950D01*
X004640Y004950D01*
X004640Y005050D01*
X004940Y005050D01*
X004940Y005350D01*
X005040Y005350D01*
X005040Y005050D01*
X004940Y005050D01*
X004940Y004950D01*
X005040Y004950D01*
X005340Y004950D01*
X005340Y005050D01*
X005040Y005050D01*
X005040Y004950D01*
X005040Y004650D01*
X004940Y004650D01*
X004940Y004737D02*
X005040Y004737D01*
X005040Y004836D02*
X004940Y004836D01*
X004940Y004934D02*
X005040Y004934D01*
X005088Y004902D02*
X004990Y005000D01*
X004892Y005098D01*
X004892Y005925D01*
X004892Y007198D01*
X004938Y007200D02*
X004280Y007200D01*
X004301Y007208D02*
X004343Y007250D01*
X004938Y007250D01*
X004938Y007133D01*
X005237Y007133D01*
X005237Y007036D01*
X004938Y007036D01*
X004938Y006848D01*
X004949Y006810D01*
X004968Y006776D01*
X004994Y006750D01*
X004938Y006694D01*
X004938Y006351D01*
X004903Y006316D01*
X004895Y006337D01*
X004895Y006380D01*
X004864Y006410D01*
X004852Y006439D01*
X004875Y006493D01*
X004875Y006607D01*
X004832Y006711D01*
X004751Y006792D01*
X004647Y006835D01*
X004533Y006835D01*
X004429Y006792D01*
X004348Y006711D01*
X004329Y006664D01*
X004301Y006692D01*
X004197Y006735D01*
X004083Y006735D01*
X003979Y006692D01*
X003898Y006611D01*
X003864Y006528D01*
X003847Y006535D01*
X003733Y006535D01*
X003690Y006517D01*
X003690Y007275D01*
X003532Y007433D01*
X003415Y007550D01*
X003242Y007550D01*
X003242Y007662D01*
X003154Y007750D01*
X002780Y007750D01*
X002775Y007745D01*
X002758Y007750D01*
X002625Y007750D01*
X002625Y007363D01*
X002600Y007363D01*
X002600Y007750D01*
X002468Y007750D01*
X002430Y007740D01*
X002396Y007720D01*
X002368Y007692D01*
X002355Y007670D01*
X002355Y007800D01*
X001940Y007800D01*
X001940Y007326D01*
X002225Y007326D01*
X002263Y007337D01*
X002297Y007356D01*
X002325Y007384D01*
X002338Y007407D01*
X002338Y007363D01*
X002600Y007363D01*
X002600Y007337D01*
X002625Y007337D01*
X002625Y006950D01*
X002758Y006950D01*
X002775Y006945D01*
X002780Y006950D01*
X003154Y006950D01*
X003242Y006862D01*
X003242Y006750D01*
X003290Y006750D01*
X003290Y007109D01*
X003249Y007150D01*
X003242Y007150D01*
X003242Y007038D01*
X003154Y006950D01*
X002780Y006950D01*
X002775Y006955D01*
X002758Y006950D01*
X002625Y006950D01*
X002625Y006563D01*
X002600Y006563D01*
X002600Y006950D01*
X002600Y007337D01*
X002338Y007337D01*
X002338Y007080D01*
X002348Y007042D01*
X002368Y007008D01*
X002396Y006980D01*
X002430Y006960D01*
X002468Y006950D01*
X002600Y006950D01*
X002468Y006950D01*
X002430Y006940D01*
X002396Y006920D01*
X002368Y006892D01*
X002348Y006858D01*
X002338Y006820D01*
X002338Y006563D01*
X002600Y006563D01*
X002600Y006537D01*
X002625Y006537D01*
X002625Y006150D01*
X002758Y006150D01*
X002775Y006155D01*
X002780Y006150D01*
X003090Y006150D01*
X003090Y005705D01*
X003207Y005588D01*
X003300Y005495D01*
X003228Y005495D01*
X003080Y005643D01*
X003064Y005682D01*
X003024Y005699D01*
X002996Y005727D01*
X002982Y005761D01*
X002901Y005842D01*
X002797Y005885D01*
X002683Y005885D01*
X002637Y005866D01*
X002637Y005981D01*
X002627Y006019D01*
X002607Y006053D01*
X002579Y006081D01*
X002545Y006101D01*
X002507Y006111D01*
X002338Y006111D01*
X002338Y005793D01*
X002242Y005793D01*
X002242Y006111D01*
X002104Y006111D01*
X002132Y006139D01*
X002175Y006243D01*
X002175Y006357D01*
X002132Y006461D01*
X002051Y006542D01*
X001947Y006585D01*
X001833Y006585D01*
X001729Y006542D01*
X001648Y006461D01*
X001605Y006357D01*
X001605Y006243D01*
X001648Y006139D01*
X001650Y006137D01*
X001624Y006111D01*
X001281Y006111D01*
X001265Y006095D01*
X001265Y010400D01*
X001511Y010400D01*
X001410Y010299D01*
X001410Y009901D01*
X001580Y009731D01*
X001580Y009674D01*
X001513Y009674D01*
X001425Y009586D01*
X001425Y008713D01*
X001513Y008626D01*
X002267Y008626D01*
X002355Y008713D01*
X002355Y008940D01*
X002537Y008940D01*
X002537Y008479D01*
X002625Y008391D01*
X003615Y008391D01*
X003703Y008479D01*
X003703Y008940D01*
X004978Y008940D01*
X005058Y008860D01*
X005990Y008860D01*
X005990Y008730D01*
X005610Y008730D01*
X005610Y008390D01*
X005510Y008390D01*
X005510Y008730D01*
X005100Y008730D01*
X005062Y008720D01*
X005028Y008700D01*
X005000Y008672D01*
X004980Y008638D01*
X004970Y008600D01*
X004970Y008390D01*
X005510Y008390D01*
X005510Y008290D01*
X004970Y008290D01*
X004970Y008123D01*
X004901Y008192D01*
X004797Y008235D01*
X004683Y008235D01*
X004579Y008192D01*
X004498Y008111D01*
X004464Y008028D01*
X004447Y008035D01*
X004333Y008035D01*
X004229Y007992D01*
X004148Y007911D01*
X004105Y007807D01*
X004105Y007735D01*
X004083Y007735D01*
X003979Y007692D01*
X003980Y007692D02*
X003212Y007692D01*
X003242Y007594D02*
X003891Y007594D01*
X003898Y007611D02*
X003855Y007507D01*
X003855Y007393D01*
X003898Y007289D01*
X003979Y007208D01*
X004083Y007165D01*
X004197Y007165D01*
X004301Y007208D01*
X004000Y007200D02*
X003690Y007200D01*
X003690Y007101D02*
X005237Y007101D01*
X004938Y007003D02*
X003690Y007003D01*
X003690Y006904D02*
X004938Y006904D01*
X004951Y006806D02*
X004718Y006806D01*
X004833Y006707D02*
X004951Y006707D01*
X004938Y006609D02*
X004874Y006609D01*
X004875Y006510D02*
X004938Y006510D01*
X004938Y006412D02*
X004864Y006412D01*
X004695Y006297D02*
X004590Y006550D01*
X004462Y006806D02*
X003690Y006806D01*
X003690Y006707D02*
X004016Y006707D01*
X003897Y006609D02*
X003690Y006609D01*
X003290Y006479D02*
X003219Y006550D01*
X002967Y006550D01*
X002625Y006510D02*
X002600Y006510D01*
X002600Y006537D02*
X002600Y006150D01*
X002468Y006150D01*
X002430Y006160D01*
X002396Y006180D01*
X002368Y006208D01*
X002348Y006242D01*
X002338Y006280D01*
X002338Y006537D01*
X002600Y006537D01*
X002600Y006609D02*
X002625Y006609D01*
X002625Y006707D02*
X002600Y006707D01*
X002600Y006806D02*
X002625Y006806D01*
X002625Y006904D02*
X002600Y006904D01*
X002600Y007003D02*
X002625Y007003D01*
X002625Y007101D02*
X002600Y007101D01*
X002600Y007200D02*
X002625Y007200D01*
X002625Y007298D02*
X002600Y007298D01*
X002600Y007397D02*
X002625Y007397D01*
X002625Y007495D02*
X002600Y007495D01*
X002600Y007594D02*
X002625Y007594D01*
X002625Y007692D02*
X002600Y007692D01*
X002368Y007692D02*
X002355Y007692D01*
X002355Y007791D02*
X004105Y007791D01*
X004139Y007889D02*
X001940Y007889D01*
X001940Y007900D02*
X002355Y007900D01*
X002355Y008244D01*
X002345Y008282D01*
X002325Y008317D01*
X002297Y008344D01*
X002263Y008364D01*
X002225Y008374D01*
X001940Y008374D01*
X001940Y007900D01*
X001940Y007800D01*
X001840Y007800D01*
X001840Y007326D01*
X001555Y007326D01*
X001517Y007337D01*
X001483Y007356D01*
X001455Y007384D01*
X001435Y007418D01*
X001425Y007457D01*
X001425Y007800D01*
X001840Y007800D01*
X001840Y007900D01*
X001425Y007900D01*
X001425Y008244D01*
X001435Y008282D01*
X001455Y008317D01*
X001483Y008344D01*
X001517Y008364D01*
X001555Y008374D01*
X001840Y008374D01*
X001840Y007900D01*
X001940Y007900D01*
X001940Y007988D02*
X001840Y007988D01*
X001840Y008086D02*
X001940Y008086D01*
X001940Y008185D02*
X001840Y008185D01*
X001840Y008283D02*
X001940Y008283D01*
X002344Y008283D02*
X004970Y008283D01*
X004970Y008185D02*
X004909Y008185D01*
X004571Y008185D02*
X002355Y008185D01*
X002355Y008086D02*
X004488Y008086D01*
X004224Y007988D02*
X002355Y007988D01*
X001940Y007791D02*
X001840Y007791D01*
X001840Y007889D02*
X001265Y007889D01*
X001265Y007791D02*
X001425Y007791D01*
X001425Y007692D02*
X001265Y007692D01*
X001265Y007594D02*
X001425Y007594D01*
X001425Y007495D02*
X001265Y007495D01*
X001265Y007397D02*
X001448Y007397D01*
X001265Y007298D02*
X002338Y007298D01*
X002338Y007200D02*
X001265Y007200D01*
X001265Y007101D02*
X002338Y007101D01*
X002373Y007003D02*
X001265Y007003D01*
X001265Y006904D02*
X002380Y006904D01*
X002338Y006806D02*
X001265Y006806D01*
X001265Y006707D02*
X002338Y006707D01*
X002338Y006609D02*
X001265Y006609D01*
X001265Y006510D02*
X001697Y006510D01*
X001628Y006412D02*
X001265Y006412D01*
X001265Y006313D02*
X001605Y006313D01*
X001617Y006215D02*
X001265Y006215D01*
X001265Y006116D02*
X001629Y006116D01*
X001890Y006095D02*
X001890Y006300D01*
X001890Y006095D02*
X001540Y005745D01*
X001887Y005722D02*
X002242Y005722D01*
X002242Y005696D02*
X001943Y005696D01*
X001943Y005508D01*
X001953Y005470D01*
X001973Y005436D01*
X001999Y005410D01*
X001943Y005354D01*
X001943Y005102D01*
X001887Y005102D01*
X001887Y005354D01*
X001831Y005410D01*
X001887Y005466D01*
X001887Y005809D01*
X001943Y005865D01*
X001943Y005793D01*
X002242Y005793D01*
X002242Y005696D01*
X002242Y005821D02*
X002338Y005821D01*
X002338Y005919D02*
X002242Y005919D01*
X002242Y006018D02*
X002338Y006018D01*
X002109Y006116D02*
X003090Y006116D01*
X003090Y006018D02*
X002627Y006018D01*
X002637Y005919D02*
X003090Y005919D01*
X003090Y005821D02*
X002923Y005821D01*
X003001Y005722D02*
X003090Y005722D01*
X003099Y005624D02*
X003171Y005624D01*
X003198Y005525D02*
X003270Y005525D01*
X003145Y005295D02*
X002911Y005529D01*
X002740Y005600D01*
X003145Y005295D02*
X004065Y005295D01*
X004065Y005098D02*
X002985Y005098D01*
X002740Y005200D01*
X001983Y005427D02*
X001847Y005427D01*
X001887Y005525D02*
X001943Y005525D01*
X001943Y005624D02*
X001887Y005624D01*
X001899Y005821D02*
X001943Y005821D01*
X002163Y006215D02*
X002364Y006215D01*
X002338Y006313D02*
X002175Y006313D01*
X002152Y006412D02*
X002338Y006412D01*
X002338Y006510D02*
X002083Y006510D01*
X002600Y006412D02*
X002625Y006412D01*
X002625Y006313D02*
X002600Y006313D01*
X002600Y006215D02*
X002625Y006215D01*
X003290Y006479D02*
X003290Y005788D01*
X003586Y005492D01*
X004065Y005492D01*
X004065Y005689D02*
X003710Y005689D01*
X003490Y005909D01*
X003490Y007192D01*
X003332Y007350D01*
X002967Y007350D01*
X003242Y007101D02*
X003290Y007101D01*
X003290Y007003D02*
X003207Y007003D01*
X003200Y006904D02*
X003290Y006904D01*
X003290Y006806D02*
X003242Y006806D01*
X004140Y006450D02*
X004237Y006410D01*
X004376Y006317D01*
X004498Y006195D01*
X004498Y005925D01*
X004695Y005925D02*
X004695Y006297D01*
X005088Y006219D02*
X005285Y006415D01*
X005285Y005925D01*
X005088Y005925D02*
X005088Y006219D01*
X005285Y006415D02*
X005482Y006219D01*
X005482Y005925D01*
X005679Y005925D02*
X005679Y006104D01*
X005725Y006150D01*
X005790Y006150D01*
X005940Y006000D01*
X006440Y006000D01*
X006590Y006150D01*
X006590Y007350D01*
X006490Y007450D01*
X004140Y007450D01*
X003855Y007495D02*
X003470Y007495D01*
X003568Y007397D02*
X003855Y007397D01*
X003894Y007298D02*
X003667Y007298D01*
X003898Y007611D02*
X003979Y007692D01*
X004390Y007750D02*
X004631Y007650D01*
X006640Y007650D01*
X006840Y007450D01*
X006840Y005995D01*
X006534Y005689D01*
X005915Y005689D01*
X005915Y005492D02*
X006724Y005492D01*
X007090Y005858D01*
X007090Y007550D01*
X006790Y007850D01*
X004981Y007850D01*
X004740Y007950D01*
X004970Y008480D02*
X003703Y008480D01*
X003703Y008579D02*
X004970Y008579D01*
X005005Y008677D02*
X003703Y008677D01*
X003703Y008776D02*
X005990Y008776D01*
X005610Y008677D02*
X005510Y008677D01*
X005510Y008579D02*
X005610Y008579D01*
X005610Y008480D02*
X005510Y008480D01*
X005510Y008382D02*
X001265Y008382D01*
X001265Y008480D02*
X002537Y008480D01*
X002537Y008579D02*
X001265Y008579D01*
X001265Y008677D02*
X001461Y008677D01*
X001425Y008776D02*
X001265Y008776D01*
X001265Y008874D02*
X001425Y008874D01*
X001425Y008973D02*
X001265Y008973D01*
X001265Y009071D02*
X001425Y009071D01*
X001425Y009170D02*
X001265Y009170D01*
X001265Y009268D02*
X001425Y009268D01*
X001425Y009367D02*
X001265Y009367D01*
X001265Y009465D02*
X001425Y009465D01*
X001425Y009564D02*
X001265Y009564D01*
X001265Y009662D02*
X001501Y009662D01*
X001551Y009761D02*
X001265Y009761D01*
X001265Y009859D02*
X001452Y009859D01*
X001410Y009958D02*
X001265Y009958D01*
X001265Y010056D02*
X001410Y010056D01*
X001410Y010155D02*
X001265Y010155D01*
X001265Y010253D02*
X001410Y010253D01*
X001463Y010352D02*
X001265Y010352D01*
X001890Y009450D02*
X001890Y009250D01*
X002355Y008874D02*
X002537Y008874D01*
X002537Y008776D02*
X002355Y008776D01*
X002319Y008677D02*
X002537Y008677D01*
X001436Y008283D02*
X001265Y008283D01*
X001265Y008185D02*
X001425Y008185D01*
X001425Y008086D02*
X001265Y008086D01*
X001265Y007988D02*
X001425Y007988D01*
X001840Y007692D02*
X001940Y007692D01*
X001940Y007594D02*
X001840Y007594D01*
X001840Y007495D02*
X001940Y007495D01*
X001940Y007397D02*
X001840Y007397D01*
X002332Y007397D02*
X002338Y007397D01*
X004264Y006707D02*
X004347Y006707D01*
X004031Y006150D02*
X003790Y006250D01*
X004031Y006150D02*
X004240Y006150D01*
X004301Y006089D01*
X004301Y005925D01*
X004940Y005328D02*
X005040Y005328D01*
X005040Y005230D02*
X004940Y005230D01*
X004940Y005131D02*
X005040Y005131D01*
X005040Y005033D02*
X005340Y005033D01*
X005088Y004902D02*
X005088Y004075D01*
X005088Y003652D01*
X005290Y003450D01*
X005290Y003457D02*
X005238Y003457D01*
X005238Y003358D02*
X005290Y003358D01*
X005293Y003260D02*
X005238Y003260D01*
X005238Y003161D02*
X005293Y003161D01*
X005293Y003063D02*
X005238Y003063D01*
X005238Y002964D02*
X005293Y002964D01*
X005318Y002866D02*
X005213Y002866D01*
X005238Y002767D02*
X005293Y002767D01*
X005293Y002669D02*
X005238Y002669D01*
X005238Y002472D02*
X005293Y002472D01*
X005293Y002373D02*
X005238Y002373D01*
X005219Y002275D02*
X005313Y002275D01*
X004940Y002275D02*
X004843Y002275D01*
X004843Y002373D02*
X004940Y002373D01*
X004564Y002275D02*
X004204Y002275D01*
X004145Y002373D02*
X004545Y002373D01*
X004545Y002472D02*
X003498Y002472D01*
X003501Y002466D02*
X003481Y002501D01*
X003453Y002528D01*
X003419Y002548D01*
X003381Y002558D01*
X003212Y002558D01*
X003212Y002280D01*
X003511Y002280D01*
X003511Y002428D01*
X003501Y002466D01*
X003511Y002373D02*
X003724Y002373D01*
X003665Y002275D02*
X003212Y002275D01*
X003212Y002373D02*
X003155Y002373D01*
X003155Y002472D02*
X003212Y002472D01*
X003052Y002570D02*
X004371Y002570D01*
X004509Y002570D02*
X004843Y002570D01*
X004218Y002669D02*
X003150Y002669D01*
X003498Y002767D02*
X004166Y002767D01*
X004155Y002866D02*
X003511Y002866D01*
X003511Y002964D02*
X004179Y002964D01*
X004249Y003063D02*
X003511Y003063D01*
X003511Y003161D02*
X004480Y003161D01*
X004453Y003260D02*
X004545Y003260D01*
X004545Y003358D02*
X004510Y003358D01*
X004525Y003457D02*
X004545Y003457D01*
X004528Y003555D02*
X004586Y003555D01*
X004626Y003654D02*
X004692Y003654D01*
X004498Y003808D02*
X004311Y003621D01*
X004240Y003450D01*
X003975Y003555D02*
X003958Y003555D01*
X003955Y003457D02*
X002279Y003457D01*
X002181Y003358D02*
X003970Y003358D01*
X004027Y003260D02*
X003470Y003260D01*
X003772Y003555D02*
X003128Y003555D01*
X003226Y003654D02*
X003633Y003654D01*
X003587Y003752D02*
X003325Y003752D01*
X003423Y003851D02*
X003580Y003851D01*
X003865Y003825D02*
X004215Y003825D01*
X004301Y003911D01*
X004301Y004075D01*
X004498Y004075D02*
X004498Y003808D01*
X004892Y004075D02*
X004892Y003235D01*
X005092Y003654D02*
X005104Y003654D01*
X005679Y003951D02*
X005679Y004075D01*
X005679Y003951D02*
X005705Y003925D01*
X006215Y003925D01*
X006981Y004540D02*
X008815Y004540D01*
X010387Y005427D02*
X010443Y005427D01*
X010443Y005624D02*
X010387Y005624D01*
X010387Y005722D02*
X010443Y005722D01*
X010471Y005821D02*
X010360Y005821D01*
X010387Y005919D02*
X010443Y005919D01*
X011109Y005821D02*
X011221Y005821D01*
X011193Y005919D02*
X011137Y005919D01*
X011137Y005722D02*
X011193Y005722D01*
X011193Y005624D02*
X011137Y005624D01*
X010838Y005427D02*
X010742Y005427D01*
X010742Y005328D02*
X010838Y005328D01*
X010838Y005230D02*
X010742Y005230D01*
X012180Y005325D02*
X012555Y005700D01*
X013440Y005700D01*
X013565Y005575D01*
X012850Y005325D02*
X012825Y005275D01*
X012180Y006075D02*
X012071Y006185D01*
X011540Y006185D01*
X010582Y006904D02*
X010054Y006904D01*
X010112Y007003D02*
X010264Y007003D01*
X010264Y007101D02*
X010112Y007101D01*
X010112Y007200D02*
X010304Y007200D01*
X010293Y007298D02*
X010350Y007298D01*
X010350Y007397D02*
X010293Y007397D01*
X010293Y007495D02*
X010350Y007495D01*
X010350Y007594D02*
X010293Y007594D01*
X010293Y007692D02*
X010350Y007692D01*
X010350Y007791D02*
X010293Y007791D01*
X010219Y007889D02*
X010821Y007889D01*
X010821Y007791D02*
X010604Y007791D01*
X010648Y007692D02*
X010821Y007692D01*
X010821Y007988D02*
X010582Y007988D01*
X010648Y008086D02*
X010821Y008086D01*
X010886Y008185D02*
X010648Y008185D01*
X010648Y008283D02*
X011248Y008283D01*
X011347Y008382D02*
X010648Y008382D01*
X010742Y008480D02*
X010838Y008480D01*
X010838Y008579D02*
X010742Y008579D01*
X010742Y008677D02*
X010838Y008677D01*
X010838Y008776D02*
X011492Y008776D01*
X011193Y008874D02*
X011137Y008874D01*
X011137Y008973D02*
X011193Y008973D01*
X011221Y009071D02*
X011109Y009071D01*
X011137Y009170D02*
X011193Y009170D01*
X011540Y009435D02*
X010790Y009435D01*
X010040Y009435D01*
X009290Y008685D01*
X009290Y008425D01*
X009290Y007525D01*
X009040Y007275D01*
X008690Y007600D02*
X008540Y007450D01*
X008525Y007450D01*
X008365Y007450D01*
X008365Y007025D01*
X007390Y006050D01*
X007765Y006000D02*
X008640Y006875D01*
X009400Y006875D01*
X009765Y007240D01*
X009613Y006806D02*
X010264Y006806D01*
X010582Y007003D02*
X010679Y007003D01*
X010679Y007101D02*
X010582Y007101D01*
X010582Y007200D02*
X010679Y007200D01*
X010956Y007200D02*
X010974Y007200D01*
X009915Y008075D02*
X009765Y007925D01*
X009765Y007910D01*
X009915Y008075D02*
X010122Y008075D01*
X010321Y008274D01*
X010387Y008581D02*
X010387Y009044D01*
X010331Y009100D01*
X010387Y009156D01*
X010387Y009235D01*
X010443Y009235D01*
X010443Y009156D01*
X010499Y009100D01*
X010473Y009074D01*
X010453Y009040D01*
X010443Y009002D01*
X010443Y008814D01*
X010742Y008814D01*
X010742Y008717D01*
X010443Y008717D01*
X010443Y008581D01*
X010387Y008581D01*
X010387Y008677D02*
X010443Y008677D01*
X010387Y008776D02*
X010742Y008776D01*
X010443Y008874D02*
X010387Y008874D01*
X010387Y008973D02*
X010443Y008973D01*
X010471Y009071D02*
X010360Y009071D01*
X010387Y009170D02*
X010443Y009170D01*
X010040Y008765D02*
X010040Y008600D01*
X009790Y008600D01*
X009565Y008375D01*
X009090Y007750D02*
X008940Y007600D01*
X008690Y007600D01*
X009090Y007750D02*
X009090Y009250D01*
X009915Y010075D01*
X012180Y010075D01*
X012850Y010075D02*
X012950Y009975D01*
X013415Y009975D01*
X013642Y009748D01*
X013799Y009748D01*
X013538Y009748D01*
X013440Y008950D02*
X012555Y008950D01*
X012180Y009325D02*
X012180Y009435D01*
X011540Y009435D01*
X011193Y008677D02*
X011137Y008677D01*
X011137Y008579D02*
X011193Y008579D01*
X011210Y008480D02*
X011120Y008480D01*
X011518Y007988D02*
X012515Y007988D01*
X012500Y008225D02*
X012850Y008575D01*
X012900Y008525D01*
X013799Y008525D01*
X013565Y008825D02*
X013440Y008950D01*
X008165Y007134D02*
X008165Y007108D01*
X007392Y006335D01*
X007333Y006335D01*
X007290Y006317D01*
X007290Y007600D01*
X007489Y007600D01*
X007489Y007498D01*
X007807Y007498D01*
X007807Y007402D01*
X007489Y007402D01*
X007489Y007233D01*
X007499Y007195D01*
X007519Y007161D01*
X007547Y007133D01*
X007581Y007113D01*
X007619Y007103D01*
X007807Y007103D01*
X007807Y007402D01*
X007904Y007402D01*
X007904Y007103D01*
X008092Y007103D01*
X008130Y007113D01*
X008164Y007133D01*
X008165Y007134D01*
X008158Y007101D02*
X007290Y007101D01*
X007290Y007003D02*
X008060Y007003D01*
X007961Y006904D02*
X007290Y006904D01*
X007290Y006806D02*
X007863Y006806D01*
X007764Y006707D02*
X007290Y006707D01*
X007290Y006609D02*
X007666Y006609D01*
X007567Y006510D02*
X007290Y006510D01*
X007290Y006412D02*
X007469Y006412D01*
X006190Y007085D02*
X006190Y007100D01*
X007290Y007200D02*
X007498Y007200D01*
X007489Y007298D02*
X007290Y007298D01*
X007290Y007397D02*
X007489Y007397D01*
X007489Y007594D02*
X007290Y007594D01*
X007290Y007495D02*
X007807Y007495D01*
X007807Y007397D02*
X007904Y007397D01*
X007904Y007298D02*
X007807Y007298D01*
X007807Y007200D02*
X007904Y007200D01*
X005044Y008874D02*
X003703Y008874D01*
X003120Y009250D02*
X003120Y009900D01*
X001943Y005328D02*
X001887Y005328D01*
X001887Y005230D02*
X001943Y005230D01*
X001943Y005131D02*
X001887Y005131D01*
X001714Y004902D02*
X001540Y005075D01*
X001515Y005100D01*
X000640Y005100D01*
X001245Y004705D02*
X000640Y004100D01*
X001265Y004146D02*
X001620Y004146D01*
X001620Y004048D02*
X001265Y004048D01*
X001265Y003949D02*
X001634Y003949D01*
X001630Y003955D02*
X001650Y003921D01*
X001678Y003893D01*
X001712Y003874D01*
X001750Y003863D01*
X001771Y003863D01*
X001265Y003358D01*
X001265Y003358D01*
X001265Y004442D01*
X001328Y004505D01*
X001620Y004505D01*
X001620Y004276D01*
X001883Y004276D01*
X001883Y004251D01*
X001620Y004251D01*
X001620Y003994D01*
X001630Y003955D01*
X001758Y003851D02*
X001265Y003851D01*
X001265Y003752D02*
X001659Y003752D01*
X001561Y003654D02*
X001265Y003654D01*
X001265Y003555D02*
X001462Y003555D01*
X001364Y003457D02*
X001265Y003457D01*
X001290Y003100D02*
X000640Y003100D01*
X001290Y003100D02*
X002249Y004059D01*
X002249Y004263D01*
X002249Y004508D01*
X004065Y004508D01*
X004065Y004705D02*
X001245Y004705D01*
X001714Y004902D02*
X004065Y004902D01*
X004640Y005033D02*
X004940Y005033D01*
X004065Y004311D02*
X003758Y004311D01*
X003490Y004200D01*
X003015Y003725D01*
X002265Y003725D01*
X000640Y002100D01*
X001265Y002078D02*
X001705Y002078D01*
X001705Y002176D02*
X001265Y002176D01*
X001265Y002275D02*
X001705Y002275D01*
X001705Y002373D02*
X001265Y002373D01*
X001294Y002472D02*
X001670Y002472D01*
X001630Y002570D02*
X001393Y002570D01*
X001491Y002669D02*
X001630Y002669D01*
X001665Y002767D02*
X001590Y002767D01*
X001688Y002866D02*
X001752Y002866D01*
X001787Y002964D02*
X002852Y002964D01*
X002857Y003063D02*
X001885Y003063D01*
X001984Y003161D02*
X002857Y003161D01*
X002897Y003260D02*
X002082Y003260D01*
X002663Y002866D02*
X002753Y002866D01*
X002530Y002318D02*
X002125Y002318D01*
X002125Y002051D01*
X002174Y002051D01*
X002262Y001963D01*
X002262Y001406D01*
X002206Y001350D01*
X002232Y001324D01*
X002252Y001290D01*
X002262Y001252D01*
X002262Y001064D01*
X001963Y001064D01*
X001963Y000967D01*
X002262Y000967D01*
X002262Y000800D01*
X002318Y000800D01*
X002318Y000967D01*
X002617Y000967D01*
X002617Y001064D01*
X002318Y001064D01*
X002318Y001252D01*
X002328Y001290D01*
X002348Y001324D01*
X002374Y001350D01*
X002318Y001406D01*
X002318Y001963D01*
X002406Y002051D01*
X002530Y002051D01*
X002530Y002318D01*
X002530Y002275D02*
X002125Y002275D01*
X002125Y002176D02*
X002530Y002176D01*
X002530Y002078D02*
X002125Y002078D01*
X002246Y001979D02*
X002334Y001979D01*
X002318Y001881D02*
X002262Y001881D01*
X002262Y001782D02*
X002318Y001782D01*
X002318Y001684D02*
X002262Y001684D01*
X002262Y001585D02*
X002318Y001585D01*
X002318Y001487D02*
X002262Y001487D01*
X002244Y001388D02*
X002336Y001388D01*
X002328Y001290D02*
X002252Y001290D01*
X002262Y001191D02*
X002318Y001191D01*
X002318Y001093D02*
X002262Y001093D01*
X002262Y000896D02*
X002318Y000896D01*
X002617Y000994D02*
X001963Y000994D01*
X001867Y000994D02*
X001265Y000994D01*
X001265Y000896D02*
X001568Y000896D01*
X001568Y001093D02*
X001265Y001093D01*
X001265Y001191D02*
X001568Y001191D01*
X001578Y001290D02*
X001265Y001290D01*
X001265Y001388D02*
X001586Y001388D01*
X001568Y001487D02*
X001265Y001487D01*
X001265Y001585D02*
X001568Y001585D01*
X001568Y001684D02*
X001265Y001684D01*
X001265Y001782D02*
X001568Y001782D01*
X001568Y001881D02*
X001265Y001881D01*
X001265Y001979D02*
X001584Y001979D01*
X003458Y001979D02*
X003733Y001979D01*
X003669Y002078D02*
X003511Y002078D01*
X003511Y002176D02*
X003649Y002176D01*
X003934Y002181D02*
X003934Y001625D01*
X003637Y001585D02*
X003543Y001585D01*
X003543Y001487D02*
X003637Y001487D01*
X003637Y001388D02*
X003543Y001388D01*
X003478Y001290D02*
X003707Y001290D01*
X003639Y001191D02*
X003543Y001191D01*
X003543Y001093D02*
X003637Y001093D01*
X003543Y000994D02*
X003911Y000994D01*
X003958Y000994D02*
X004442Y000994D01*
X004442Y001022D02*
X004442Y000898D01*
X004452Y000860D01*
X004472Y000826D01*
X004498Y000800D01*
X004232Y000800D01*
X004232Y000951D01*
X003958Y000951D01*
X003958Y000999D01*
X004232Y000999D01*
X004232Y001182D01*
X004231Y001187D01*
X004283Y001165D01*
X004397Y001165D01*
X004451Y001187D01*
X004442Y001154D01*
X004442Y001030D01*
X004824Y001030D01*
X004824Y001022D01*
X004442Y001022D01*
X004442Y001093D02*
X004232Y001093D01*
X004232Y000896D02*
X004443Y000896D01*
X004824Y000896D02*
X004832Y000896D01*
X004832Y000800D02*
X004832Y001022D01*
X004824Y001022D01*
X004824Y000800D01*
X004832Y000800D01*
X004824Y000994D02*
X004832Y000994D01*
X004832Y001022D02*
X004832Y001030D01*
X004824Y001030D01*
X004824Y001142D01*
X004832Y001142D01*
X004832Y001030D01*
X005214Y001030D01*
X005214Y001154D01*
X005204Y001192D01*
X005194Y001209D01*
X005214Y001230D01*
X005214Y001518D01*
X005283Y001489D01*
X005397Y001489D01*
X005501Y001532D01*
X005519Y001550D01*
X005553Y001516D01*
X006090Y001516D01*
X006090Y001354D01*
X006020Y001284D01*
X005553Y001284D01*
X005466Y001196D01*
X005466Y000856D01*
X005521Y000800D01*
X005159Y000800D01*
X005184Y000826D01*
X005204Y000860D01*
X005214Y000898D01*
X005214Y001022D01*
X004832Y001022D01*
X004824Y001093D02*
X004832Y001093D01*
X004828Y001400D02*
X004340Y001450D01*
X004442Y001778D02*
X004824Y001778D01*
X004824Y002032D01*
X004572Y002032D01*
X004534Y002022D01*
X004500Y002002D01*
X004472Y001974D01*
X004452Y001940D01*
X004442Y001902D01*
X004442Y001778D01*
X004442Y001782D02*
X004232Y001782D01*
X004226Y001881D02*
X004442Y001881D01*
X004477Y001979D02*
X004136Y001979D01*
X003643Y001881D02*
X003537Y001881D01*
X003543Y001782D02*
X003637Y001782D01*
X003637Y001684D02*
X003543Y001684D01*
X003543Y000896D02*
X003637Y000896D01*
X004824Y001782D02*
X004832Y001782D01*
X004824Y001881D02*
X004832Y001881D01*
X004824Y001979D02*
X004832Y001979D01*
X005214Y001487D02*
X006090Y001487D01*
X006090Y001388D02*
X005214Y001388D01*
X005214Y001290D02*
X006025Y001290D01*
X006045Y001026D02*
X006290Y001271D01*
X006045Y001026D02*
X005852Y001026D01*
X005466Y000994D02*
X005214Y000994D01*
X005214Y000896D02*
X005466Y000896D01*
X005466Y001093D02*
X005214Y001093D01*
X005204Y001191D02*
X005466Y001191D01*
X001620Y004245D02*
X001265Y004245D01*
X001265Y004343D02*
X001620Y004343D01*
X001620Y004442D02*
X001265Y004442D01*
D32*
X006790Y002800D03*
X008490Y002800D03*
X006790Y001100D03*
X006790Y008400D03*
X008490Y008400D03*
X006790Y010100D03*
D33*
X006765Y010160D02*
X005560Y010160D01*
X005560Y009250D02*
X004840Y009250D01*
X003120Y009250D01*
X001890Y009250D01*
X001890Y009150D01*
X001890Y009250D02*
X001890Y010100D01*
D34*
X004840Y009250D03*
X004790Y008400D03*
X004740Y007950D03*
X004390Y007750D03*
X004140Y007450D03*
X003640Y007500D03*
X004840Y007150D03*
X004590Y006550D03*
X004140Y006450D03*
X003790Y006250D03*
X003790Y006650D03*
X002240Y006950D03*
X001890Y006300D03*
X002740Y005600D03*
X002740Y005200D03*
X001490Y004263D03*
X003490Y004200D03*
X003865Y003825D03*
X004240Y003450D03*
X003640Y003000D03*
X004140Y002525D03*
X003934Y002181D03*
X004440Y002850D03*
X005240Y002150D03*
X005340Y001774D03*
X004340Y001450D03*
X004340Y001000D03*
X005340Y000900D03*
X002215Y002125D03*
X001440Y001850D03*
X001915Y002625D03*
X001440Y000975D03*
X006090Y003400D03*
X006815Y004777D03*
X008640Y004575D03*
X008990Y003975D03*
X009890Y004425D03*
X009565Y005675D03*
X009040Y006150D03*
X007765Y006000D03*
X007390Y006050D03*
X007390Y006475D03*
X005740Y007100D03*
X007390Y007575D03*
X009040Y007275D03*
X010165Y006850D03*
X009565Y008375D03*
X013565Y008825D03*
X013799Y008525D03*
X013565Y005575D03*
X013799Y005275D03*
X009565Y002500D03*
X009890Y001175D03*
X013540Y002300D03*
X013799Y002000D03*
X004990Y005000D03*
D35*
X012515Y004725D02*
X012515Y003937D01*
X012550Y003972D01*
X013149Y003972D01*
X013266Y003855D01*
X013266Y003763D01*
X014015Y003763D01*
X014015Y004187D01*
X013857Y004187D01*
X013857Y004645D01*
X013742Y004645D01*
X013009Y004645D01*
X013009Y004361D01*
X013023Y004310D01*
X013049Y004265D01*
X013086Y004227D01*
X013132Y004201D01*
X013183Y004187D01*
X013742Y004187D01*
X013742Y004645D01*
X013742Y004760D01*
X013009Y004760D01*
X013009Y004928D01*
X012831Y004928D01*
X012737Y004833D01*
X012666Y004763D01*
X012574Y004725D01*
X012515Y004725D01*
X012515Y004570D02*
X013009Y004570D01*
X013009Y004769D02*
X012672Y004769D01*
X012515Y004372D02*
X013009Y004372D01*
X012515Y004173D02*
X014015Y004173D01*
X014015Y003975D02*
X012515Y003975D01*
X013266Y003776D02*
X014015Y003776D01*
X013857Y004372D02*
X013742Y004372D01*
X013742Y004570D02*
X013857Y004570D01*
X014015Y007013D02*
X013266Y007013D01*
X013266Y007105D01*
X013149Y007222D01*
X012550Y007222D01*
X012515Y007187D01*
X012515Y007975D01*
X012549Y007975D01*
X012641Y008013D01*
X012712Y008083D01*
X012806Y008178D01*
X013009Y008178D01*
X013009Y008010D01*
X013742Y008010D01*
X013742Y007895D01*
X013009Y007895D01*
X013009Y007611D01*
X013023Y007560D01*
X013049Y007515D01*
X013086Y007477D01*
X013132Y007451D01*
X013183Y007437D01*
X013742Y007437D01*
X013742Y007895D01*
X013857Y007895D01*
X013857Y007437D01*
X014015Y007437D01*
X014015Y007013D01*
X014015Y007151D02*
X013220Y007151D01*
X012515Y007349D02*
X014015Y007349D01*
X013857Y007548D02*
X013742Y007548D01*
X013742Y007746D02*
X013857Y007746D01*
X013742Y007945D02*
X012515Y007945D01*
X012771Y008143D02*
X013009Y008143D01*
X013009Y007746D02*
X012515Y007746D01*
X012515Y007548D02*
X013030Y007548D01*
X013009Y001678D02*
X013009Y001510D01*
X013742Y001510D01*
X013742Y001395D01*
X013009Y001395D01*
X013009Y001111D01*
X013023Y001060D01*
X013049Y001015D01*
X013086Y000977D01*
X013132Y000951D01*
X013183Y000937D01*
X013742Y000937D01*
X013742Y001395D01*
X013857Y001395D01*
X013857Y000937D01*
X014015Y000937D01*
X014015Y000850D01*
X012515Y000850D01*
X012515Y001475D01*
X012624Y001475D01*
X012716Y001513D01*
X012787Y001583D01*
X012881Y001678D01*
X013009Y001678D01*
X013009Y001593D02*
X012796Y001593D01*
X013009Y001394D02*
X012515Y001394D01*
X012515Y001196D02*
X013009Y001196D01*
X013066Y000997D02*
X012515Y000997D01*
X013742Y000997D02*
X013857Y000997D01*
X013857Y001196D02*
X013742Y001196D01*
X013742Y001394D02*
X013857Y001394D01*
D36*
X011840Y001150D03*
X011840Y004275D03*
X011840Y007525D03*
D37*
X006190Y007100D02*
X005740Y007100D01*
X006190Y006415D02*
X005285Y006415D01*
X004790Y003150D02*
X004440Y002850D01*
X003184Y002999D02*
X002740Y002555D01*
X002740Y001685D01*
X002740Y001625D01*
X003246Y001625D01*
X003246Y000975D01*
X002740Y001685D02*
X002665Y001685D01*
X001915Y001685D02*
X001915Y002625D01*
X002357Y002625D01*
X005340Y001774D02*
X005852Y001774D01*
M02*
