G75*
G70*
%OFA0B0*%
%FSLAX24Y24*%
%IPPOS*%
%LPD*%
%AMOC8*
5,1,8,0,0,1.08239X$1,22.5*
%
%ADD10C,0.0000*%
%ADD11R,0.1330X0.1900*%
%ADD12R,0.1181X0.0630*%
%ADD13R,0.2250X0.1900*%
%ADD14R,0.2362X0.2362*%
%ADD15OC8,0.0660*%
%ADD16C,0.0660*%
%ADD17R,0.0500X0.0250*%
%ADD18R,0.0250X0.0500*%
%ADD19R,0.0660X0.0660*%
%ADD20C,0.0700*%
%ADD21C,0.1250*%
%ADD22C,0.0300*%
%ADD23C,0.0591*%
%ADD24C,0.1500*%
%ADD25C,0.0270*%
%ADD26C,0.0500*%
%ADD27C,0.0250*%
%ADD28C,0.0200*%
%ADD29C,0.0100*%
%ADD30OC8,0.0768*%
%ADD31C,0.0120*%
%ADD32C,0.0240*%
D10*
X000140Y000600D02*
X000140Y010600D01*
X019140Y010600D01*
X019140Y000600D01*
X000140Y000600D01*
X017674Y002350D02*
X017676Y002398D01*
X017682Y002446D01*
X017692Y002493D01*
X017705Y002539D01*
X017723Y002584D01*
X017743Y002628D01*
X017768Y002670D01*
X017796Y002709D01*
X017826Y002746D01*
X017860Y002780D01*
X017897Y002812D01*
X017935Y002841D01*
X017976Y002866D01*
X018019Y002888D01*
X018064Y002906D01*
X018110Y002920D01*
X018157Y002931D01*
X018205Y002938D01*
X018253Y002941D01*
X018301Y002940D01*
X018349Y002935D01*
X018397Y002926D01*
X018443Y002914D01*
X018488Y002897D01*
X018532Y002877D01*
X018574Y002854D01*
X018614Y002827D01*
X018652Y002797D01*
X018687Y002764D01*
X018719Y002728D01*
X018749Y002690D01*
X018775Y002649D01*
X018797Y002606D01*
X018817Y002562D01*
X018832Y002517D01*
X018844Y002470D01*
X018852Y002422D01*
X018856Y002374D01*
X018856Y002326D01*
X018852Y002278D01*
X018844Y002230D01*
X018832Y002183D01*
X018817Y002138D01*
X018797Y002094D01*
X018775Y002051D01*
X018749Y002010D01*
X018719Y001972D01*
X018687Y001936D01*
X018652Y001903D01*
X018614Y001873D01*
X018574Y001846D01*
X018532Y001823D01*
X018488Y001803D01*
X018443Y001786D01*
X018397Y001774D01*
X018349Y001765D01*
X018301Y001760D01*
X018253Y001759D01*
X018205Y001762D01*
X018157Y001769D01*
X018110Y001780D01*
X018064Y001794D01*
X018019Y001812D01*
X017976Y001834D01*
X017935Y001859D01*
X017897Y001888D01*
X017860Y001920D01*
X017826Y001954D01*
X017796Y001991D01*
X017768Y002030D01*
X017743Y002072D01*
X017723Y002116D01*
X017705Y002161D01*
X017692Y002207D01*
X017682Y002254D01*
X017676Y002302D01*
X017674Y002350D01*
X017674Y005600D02*
X017676Y005648D01*
X017682Y005696D01*
X017692Y005743D01*
X017705Y005789D01*
X017723Y005834D01*
X017743Y005878D01*
X017768Y005920D01*
X017796Y005959D01*
X017826Y005996D01*
X017860Y006030D01*
X017897Y006062D01*
X017935Y006091D01*
X017976Y006116D01*
X018019Y006138D01*
X018064Y006156D01*
X018110Y006170D01*
X018157Y006181D01*
X018205Y006188D01*
X018253Y006191D01*
X018301Y006190D01*
X018349Y006185D01*
X018397Y006176D01*
X018443Y006164D01*
X018488Y006147D01*
X018532Y006127D01*
X018574Y006104D01*
X018614Y006077D01*
X018652Y006047D01*
X018687Y006014D01*
X018719Y005978D01*
X018749Y005940D01*
X018775Y005899D01*
X018797Y005856D01*
X018817Y005812D01*
X018832Y005767D01*
X018844Y005720D01*
X018852Y005672D01*
X018856Y005624D01*
X018856Y005576D01*
X018852Y005528D01*
X018844Y005480D01*
X018832Y005433D01*
X018817Y005388D01*
X018797Y005344D01*
X018775Y005301D01*
X018749Y005260D01*
X018719Y005222D01*
X018687Y005186D01*
X018652Y005153D01*
X018614Y005123D01*
X018574Y005096D01*
X018532Y005073D01*
X018488Y005053D01*
X018443Y005036D01*
X018397Y005024D01*
X018349Y005015D01*
X018301Y005010D01*
X018253Y005009D01*
X018205Y005012D01*
X018157Y005019D01*
X018110Y005030D01*
X018064Y005044D01*
X018019Y005062D01*
X017976Y005084D01*
X017935Y005109D01*
X017897Y005138D01*
X017860Y005170D01*
X017826Y005204D01*
X017796Y005241D01*
X017768Y005280D01*
X017743Y005322D01*
X017723Y005366D01*
X017705Y005411D01*
X017692Y005457D01*
X017682Y005504D01*
X017676Y005552D01*
X017674Y005600D01*
X017674Y008850D02*
X017676Y008898D01*
X017682Y008946D01*
X017692Y008993D01*
X017705Y009039D01*
X017723Y009084D01*
X017743Y009128D01*
X017768Y009170D01*
X017796Y009209D01*
X017826Y009246D01*
X017860Y009280D01*
X017897Y009312D01*
X017935Y009341D01*
X017976Y009366D01*
X018019Y009388D01*
X018064Y009406D01*
X018110Y009420D01*
X018157Y009431D01*
X018205Y009438D01*
X018253Y009441D01*
X018301Y009440D01*
X018349Y009435D01*
X018397Y009426D01*
X018443Y009414D01*
X018488Y009397D01*
X018532Y009377D01*
X018574Y009354D01*
X018614Y009327D01*
X018652Y009297D01*
X018687Y009264D01*
X018719Y009228D01*
X018749Y009190D01*
X018775Y009149D01*
X018797Y009106D01*
X018817Y009062D01*
X018832Y009017D01*
X018844Y008970D01*
X018852Y008922D01*
X018856Y008874D01*
X018856Y008826D01*
X018852Y008778D01*
X018844Y008730D01*
X018832Y008683D01*
X018817Y008638D01*
X018797Y008594D01*
X018775Y008551D01*
X018749Y008510D01*
X018719Y008472D01*
X018687Y008436D01*
X018652Y008403D01*
X018614Y008373D01*
X018574Y008346D01*
X018532Y008323D01*
X018488Y008303D01*
X018443Y008286D01*
X018397Y008274D01*
X018349Y008265D01*
X018301Y008260D01*
X018253Y008259D01*
X018205Y008262D01*
X018157Y008269D01*
X018110Y008280D01*
X018064Y008294D01*
X018019Y008312D01*
X017976Y008334D01*
X017935Y008359D01*
X017897Y008388D01*
X017860Y008420D01*
X017826Y008454D01*
X017796Y008491D01*
X017768Y008530D01*
X017743Y008572D01*
X017723Y008616D01*
X017705Y008661D01*
X017692Y008707D01*
X017682Y008754D01*
X017676Y008802D01*
X017674Y008850D01*
D11*
X018265Y008850D03*
X018265Y005600D03*
X018265Y002350D03*
D12*
X013799Y001452D03*
X013799Y003248D03*
X013799Y004702D03*
X013799Y006498D03*
X013799Y007952D03*
X013799Y009748D03*
D13*
X016515Y008850D03*
X016515Y005600D03*
X016515Y002350D03*
D14*
X007640Y001950D03*
X007640Y009250D03*
D15*
X008490Y010100D03*
X001890Y010100D03*
D16*
X000640Y010100D03*
X008490Y001100D03*
D17*
X003868Y001488D03*
X003868Y001812D03*
D18*
X002877Y002500D03*
X002553Y002500D03*
D19*
X000640Y001100D03*
D20*
X000640Y002100D03*
X000640Y003100D03*
X000640Y004100D03*
X000640Y005100D03*
X000640Y006100D03*
X000640Y007100D03*
X000640Y008100D03*
X000640Y009100D03*
D21*
X011490Y007700D02*
X011490Y001400D01*
X016515Y002350D02*
X018265Y002350D01*
X018265Y005600D02*
X016515Y005600D01*
X016515Y008850D02*
X018265Y008850D01*
D22*
X014640Y008958D02*
X012740Y008958D01*
X013050Y009238D02*
X013090Y009211D01*
X013136Y009192D01*
X013184Y009183D01*
X013792Y009183D01*
X013792Y009740D01*
X013807Y009740D01*
X013807Y009183D01*
X014415Y009183D01*
X014463Y009192D01*
X014508Y009211D01*
X014549Y009238D01*
X014584Y009273D01*
X014612Y009314D01*
X014630Y009360D01*
X014640Y009408D01*
X014640Y009740D01*
X013807Y009740D01*
X013807Y009755D01*
X014640Y009755D01*
X014640Y010087D01*
X014630Y010136D01*
X014612Y010181D01*
X014584Y010222D01*
X014549Y010257D01*
X014508Y010284D01*
X014470Y010300D01*
X014640Y010300D01*
X014640Y002600D01*
X012740Y002600D01*
X012740Y010300D01*
X013129Y010300D01*
X013090Y010284D01*
X013050Y010257D01*
X013015Y010222D01*
X012987Y010181D01*
X012969Y010136D01*
X012959Y010087D01*
X012959Y009755D01*
X013792Y009755D01*
X013792Y009740D01*
X012959Y009740D01*
X012959Y009408D01*
X012969Y009360D01*
X012987Y009314D01*
X013015Y009273D01*
X013050Y009238D01*
X013032Y009257D02*
X012740Y009257D01*
X012740Y009555D02*
X012959Y009555D01*
X012959Y009854D02*
X012740Y009854D01*
X012740Y010152D02*
X012975Y010152D01*
X013792Y009555D02*
X013807Y009555D01*
X013792Y009257D02*
X013807Y009257D01*
X013876Y008910D02*
X013723Y008910D01*
X013581Y008851D01*
X013473Y008743D01*
X013414Y008602D01*
X013414Y008517D01*
X013159Y008517D01*
X013067Y008479D01*
X012997Y008409D01*
X012959Y008317D01*
X012959Y007588D01*
X012997Y007496D01*
X013067Y007425D01*
X013159Y007387D01*
X014440Y007387D01*
X014532Y007425D01*
X014602Y007496D01*
X014640Y007588D01*
X014640Y008317D01*
X014602Y008409D01*
X014532Y008479D01*
X014440Y008517D01*
X014184Y008517D01*
X014184Y008602D01*
X014126Y008743D01*
X014018Y008851D01*
X013876Y008910D01*
X014160Y008660D02*
X014640Y008660D01*
X014622Y008361D02*
X014640Y008361D01*
X014640Y008063D02*
X014640Y008063D01*
X014640Y007764D02*
X014640Y007764D01*
X014640Y007466D02*
X014572Y007466D01*
X014640Y007167D02*
X012740Y007167D01*
X013015Y006972D02*
X012987Y006931D01*
X012969Y006886D01*
X012959Y006837D01*
X012959Y006505D01*
X013792Y006505D01*
X013792Y006490D01*
X013807Y006490D01*
X013807Y005933D01*
X014415Y005933D01*
X014463Y005942D01*
X014508Y005961D01*
X014549Y005988D01*
X014584Y006023D01*
X014612Y006064D01*
X014630Y006110D01*
X014640Y006158D01*
X014640Y006490D01*
X013807Y006490D01*
X013807Y006505D01*
X014640Y006505D01*
X014640Y006837D01*
X014630Y006886D01*
X014612Y006931D01*
X014584Y006972D01*
X014549Y007007D01*
X014508Y007034D01*
X014463Y007053D01*
X014415Y007063D01*
X013807Y007063D01*
X013807Y006505D01*
X013792Y006505D01*
X013792Y007063D01*
X013184Y007063D01*
X013136Y007053D01*
X013090Y007034D01*
X013050Y007007D01*
X013015Y006972D01*
X012965Y006869D02*
X012740Y006869D01*
X012740Y006570D02*
X012959Y006570D01*
X012959Y006490D02*
X012959Y006158D01*
X012969Y006110D01*
X012987Y006064D01*
X013015Y006023D01*
X013050Y005988D01*
X013090Y005961D01*
X013136Y005942D01*
X013184Y005933D01*
X013792Y005933D01*
X013792Y006490D01*
X012959Y006490D01*
X012959Y006272D02*
X012740Y006272D01*
X012740Y005973D02*
X013073Y005973D01*
X012740Y005675D02*
X014640Y005675D01*
X014640Y005973D02*
X014526Y005973D01*
X014640Y006272D02*
X014640Y006272D01*
X014640Y006570D02*
X014640Y006570D01*
X014634Y006869D02*
X014640Y006869D01*
X013807Y006869D02*
X013792Y006869D01*
X013792Y006570D02*
X013807Y006570D01*
X013792Y006272D02*
X013807Y006272D01*
X013792Y005973D02*
X013807Y005973D01*
X013876Y005660D02*
X013723Y005660D01*
X013581Y005601D01*
X013473Y005493D01*
X013414Y005352D01*
X013414Y005267D01*
X013159Y005267D01*
X013067Y005229D01*
X012997Y005159D01*
X012959Y005067D01*
X012959Y004338D01*
X012997Y004246D01*
X013067Y004175D01*
X013159Y004137D01*
X014440Y004137D01*
X014532Y004175D01*
X014602Y004246D01*
X014640Y004338D01*
X014640Y005067D01*
X014602Y005159D01*
X014532Y005229D01*
X014440Y005267D01*
X014184Y005267D01*
X014184Y005352D01*
X014126Y005493D01*
X014018Y005601D01*
X013876Y005660D01*
X014174Y005376D02*
X014640Y005376D01*
X014636Y005078D02*
X014640Y005078D01*
X014640Y004779D02*
X014640Y004779D01*
X014640Y004481D02*
X014640Y004481D01*
X014640Y004182D02*
X014538Y004182D01*
X014640Y003884D02*
X012740Y003884D01*
X013015Y003722D02*
X012987Y003681D01*
X012969Y003636D01*
X012959Y003587D01*
X012959Y003255D01*
X013792Y003255D01*
X013792Y003240D01*
X013807Y003240D01*
X013807Y002683D01*
X014415Y002683D01*
X014463Y002692D01*
X014508Y002711D01*
X014549Y002738D01*
X014584Y002773D01*
X014612Y002814D01*
X014630Y002860D01*
X014640Y002908D01*
X014640Y003240D01*
X013807Y003240D01*
X013807Y003255D01*
X014640Y003255D01*
X014640Y003587D01*
X014630Y003636D01*
X014612Y003681D01*
X014584Y003722D01*
X014549Y003757D01*
X014508Y003784D01*
X014463Y003803D01*
X014415Y003813D01*
X013807Y003813D01*
X013807Y003255D01*
X013792Y003255D01*
X013792Y003813D01*
X013184Y003813D01*
X013136Y003803D01*
X013090Y003784D01*
X013050Y003757D01*
X013015Y003722D01*
X012959Y003585D02*
X012740Y003585D01*
X012740Y003287D02*
X012959Y003287D01*
X012959Y003240D02*
X012959Y002908D01*
X012969Y002860D01*
X012987Y002814D01*
X013015Y002773D01*
X013050Y002738D01*
X013090Y002711D01*
X013136Y002692D01*
X013184Y002683D01*
X013792Y002683D01*
X013792Y003240D01*
X012959Y003240D01*
X012959Y002988D02*
X012740Y002988D01*
X012740Y002690D02*
X013150Y002690D01*
X013792Y002690D02*
X013807Y002690D01*
X013792Y002988D02*
X013807Y002988D01*
X013792Y003287D02*
X013807Y003287D01*
X013792Y003585D02*
X013807Y003585D01*
X014640Y003585D02*
X014640Y003585D01*
X014640Y003287D02*
X014640Y003287D01*
X014640Y002988D02*
X014640Y002988D01*
X014640Y002690D02*
X014449Y002690D01*
X013061Y004182D02*
X012740Y004182D01*
X012740Y004481D02*
X012959Y004481D01*
X012959Y004779D02*
X012740Y004779D01*
X012740Y005078D02*
X012963Y005078D01*
X012740Y005376D02*
X013425Y005376D01*
X013027Y007466D02*
X012740Y007466D01*
X012740Y007764D02*
X012959Y007764D01*
X012959Y008063D02*
X012740Y008063D01*
X012740Y008361D02*
X012977Y008361D01*
X012740Y008660D02*
X013438Y008660D01*
X014567Y009257D02*
X014640Y009257D01*
X014640Y009555D02*
X014640Y009555D01*
X014640Y009854D02*
X014640Y009854D01*
X014624Y010152D02*
X014640Y010152D01*
D23*
X008490Y008400D03*
X006790Y008400D03*
X006790Y010100D03*
X006790Y002800D03*
X008490Y002800D03*
X006790Y001100D03*
D24*
X008090Y001500D02*
X011340Y001500D01*
X012240Y009700D02*
X007590Y009700D01*
D25*
X009565Y008375D03*
X009040Y007275D03*
X010165Y006850D03*
X009040Y006150D03*
X009565Y005675D03*
X007765Y006000D03*
X007390Y006050D03*
X007390Y006475D03*
X005740Y007100D03*
X004840Y007150D03*
X004140Y007450D03*
X003640Y007500D03*
X004390Y007750D03*
X004740Y007950D03*
X004790Y008400D03*
X004840Y009250D03*
X007390Y007575D03*
X004590Y006550D03*
X004140Y006450D03*
X003790Y006250D03*
X003790Y006650D03*
X002240Y006950D03*
X001890Y006300D03*
X002740Y005600D03*
X002740Y005200D03*
X001490Y004263D03*
X003490Y004200D03*
X003865Y003825D03*
X004240Y003450D03*
X003640Y003000D03*
X004140Y002525D03*
X003934Y002181D03*
X004440Y002850D03*
X005240Y002150D03*
X005340Y001774D03*
X004340Y001450D03*
X004340Y001000D03*
X005340Y000900D03*
X002215Y002125D03*
X001440Y001850D03*
X001915Y002625D03*
X001440Y000975D03*
X006090Y003400D03*
X006815Y004777D03*
X008640Y004575D03*
X008990Y003975D03*
X009890Y004425D03*
X009565Y002500D03*
X009890Y001175D03*
X013540Y002300D03*
X013799Y002000D03*
X013799Y005275D03*
X013565Y005575D03*
X013799Y008525D03*
X013565Y008825D03*
X004990Y005000D03*
D26*
X012240Y009200D02*
X012815Y009200D01*
X012815Y010200D01*
X012065Y010200D01*
X012240Y009700D02*
X012240Y009200D01*
D27*
X013799Y009748D02*
X013799Y010325D01*
X013090Y010325D01*
X013799Y010325D02*
X014640Y010325D01*
X013799Y003248D02*
X013790Y003248D01*
X013790Y002675D01*
X013540Y002675D01*
X013540Y002300D01*
D28*
X012140Y002387D02*
X009881Y002387D01*
X009900Y002433D02*
X009849Y002310D01*
X009755Y002216D01*
X009632Y002165D01*
X009515Y002165D01*
X009515Y000850D01*
X012140Y000850D01*
X012140Y008600D01*
X009814Y008600D01*
X009849Y008565D01*
X009900Y008442D01*
X009900Y008308D01*
X009849Y008185D01*
X009815Y008151D01*
X009815Y005899D01*
X009849Y005865D01*
X009900Y005742D01*
X009900Y005608D01*
X009849Y005485D01*
X009815Y005451D01*
X009815Y002724D01*
X009849Y002690D01*
X009900Y002567D01*
X009900Y002433D01*
X009892Y002585D02*
X012140Y002585D01*
X012140Y002784D02*
X009815Y002784D01*
X009815Y002982D02*
X012140Y002982D01*
X012140Y003181D02*
X009815Y003181D01*
X009815Y003379D02*
X012140Y003379D01*
X012140Y003578D02*
X009815Y003578D01*
X009815Y003776D02*
X012140Y003776D01*
X012140Y003975D02*
X009815Y003975D01*
X009815Y004173D02*
X012140Y004173D01*
X012140Y004372D02*
X009815Y004372D01*
X009815Y004570D02*
X012140Y004570D01*
X012140Y004769D02*
X009815Y004769D01*
X009815Y004967D02*
X012140Y004967D01*
X012140Y005166D02*
X009815Y005166D01*
X009815Y005364D02*
X012140Y005364D01*
X012140Y005563D02*
X009881Y005563D01*
X009892Y005761D02*
X012140Y005761D01*
X012140Y005960D02*
X009815Y005960D01*
X009815Y006158D02*
X012140Y006158D01*
X012140Y006357D02*
X009815Y006357D01*
X009815Y006555D02*
X012140Y006555D01*
X012140Y006754D02*
X009815Y006754D01*
X009815Y006952D02*
X012140Y006952D01*
X012140Y007151D02*
X009815Y007151D01*
X009815Y007349D02*
X012140Y007349D01*
X012140Y007548D02*
X009815Y007548D01*
X009815Y007746D02*
X012140Y007746D01*
X012140Y007945D02*
X009815Y007945D01*
X009815Y008143D02*
X012140Y008143D01*
X012140Y008342D02*
X009900Y008342D01*
X009859Y008540D02*
X012140Y008540D01*
X012140Y002188D02*
X009687Y002188D01*
X009515Y001990D02*
X012140Y001990D01*
X012140Y001791D02*
X009515Y001791D01*
X009515Y001593D02*
X012140Y001593D01*
X012140Y001394D02*
X009515Y001394D01*
X009515Y001196D02*
X012140Y001196D01*
X012140Y000997D02*
X009515Y000997D01*
D29*
X009515Y000994D02*
X008971Y000994D01*
X008971Y000896D02*
X009515Y000896D01*
X009515Y000800D02*
X008971Y000800D01*
X008971Y001900D01*
X007690Y001900D01*
X007690Y002000D01*
X007590Y002000D01*
X007590Y003281D01*
X006439Y003281D01*
X006401Y003271D01*
X006367Y003251D01*
X006339Y003223D01*
X006319Y003189D01*
X006309Y003151D01*
X006309Y002000D01*
X007590Y002000D01*
X007590Y001900D01*
X006309Y001900D01*
X006309Y000800D01*
X001265Y000800D01*
X001265Y001200D01*
X003863Y001200D01*
X003876Y001213D01*
X004174Y001213D01*
X004179Y001208D01*
X004283Y001165D01*
X004397Y001165D01*
X004501Y001208D01*
X004582Y001289D01*
X004582Y001290D02*
X006309Y001290D01*
X006309Y001388D02*
X004623Y001388D01*
X004625Y001393D02*
X004625Y001507D01*
X004582Y001611D01*
X004501Y001692D01*
X004397Y001735D01*
X004283Y001735D01*
X004268Y001729D01*
X004268Y001999D01*
X004197Y002070D01*
X004219Y002124D01*
X004219Y002237D01*
X004176Y002342D01*
X004096Y002422D01*
X003991Y002466D01*
X003878Y002466D01*
X003773Y002422D01*
X003693Y002342D01*
X003649Y002237D01*
X003649Y002124D01*
X003665Y002087D01*
X003556Y002087D01*
X003468Y001999D01*
X003468Y001600D01*
X001265Y001600D01*
X001265Y005192D01*
X001457Y005000D01*
X002537Y005000D01*
X002579Y004958D01*
X002683Y004915D01*
X002708Y004915D01*
X002692Y004899D01*
X002692Y002900D01*
X002366Y002900D01*
X002301Y002835D01*
X002108Y002835D01*
X002076Y002867D01*
X001972Y002910D01*
X001858Y002910D01*
X001754Y002867D01*
X001673Y002786D01*
X001630Y002682D01*
X001630Y002568D01*
X001673Y002464D01*
X001754Y002383D01*
X001858Y002340D01*
X001972Y002340D01*
X002076Y002383D01*
X002108Y002415D01*
X002278Y002415D01*
X002278Y002188D01*
X002366Y002100D01*
X003064Y002100D01*
X003152Y002188D01*
X003152Y002490D01*
X003952Y002490D01*
X004102Y002640D01*
X004230Y002640D01*
X004230Y002163D01*
X004353Y002040D01*
X004829Y001564D01*
X005147Y001564D01*
X005179Y001532D01*
X005283Y001489D01*
X005397Y001489D01*
X005501Y001532D01*
X005582Y001613D01*
X005625Y001717D01*
X005625Y001831D01*
X005582Y001935D01*
X005501Y002016D01*
X005397Y002059D01*
X005283Y002059D01*
X005179Y002016D01*
X005147Y001984D01*
X005003Y001984D01*
X004650Y002337D01*
X004650Y002640D01*
X005627Y002640D01*
X006102Y003115D01*
X006147Y003115D01*
X006251Y003158D01*
X006332Y003239D01*
X006375Y003343D01*
X006375Y003457D01*
X006332Y003561D01*
X006251Y003642D01*
X006147Y003685D01*
X006033Y003685D01*
X005987Y003666D01*
X006813Y004492D01*
X006872Y004492D01*
X006976Y004535D01*
X007057Y004615D01*
X007100Y004720D01*
X007100Y004833D01*
X007057Y004938D01*
X006976Y005018D01*
X006872Y005062D01*
X006784Y005062D01*
X007173Y005450D01*
X007498Y005450D01*
X007763Y005715D01*
X007822Y005715D01*
X007926Y005758D01*
X008007Y005839D01*
X008050Y005943D01*
X008050Y006057D01*
X008007Y006161D01*
X007926Y006242D01*
X007822Y006285D01*
X007708Y006285D01*
X007604Y006242D01*
X007602Y006241D01*
X007551Y006292D01*
X007447Y006335D01*
X007333Y006335D01*
X007229Y006292D01*
X007187Y006250D01*
X006857Y006250D01*
X005507Y004900D01*
X004657Y004900D01*
X003867Y004110D01*
X003808Y004110D01*
X003751Y004086D01*
X003775Y004143D01*
X003775Y004257D01*
X003732Y004361D01*
X003651Y004442D01*
X003547Y004485D01*
X003433Y004485D01*
X003329Y004442D01*
X003248Y004361D01*
X003205Y004257D01*
X003205Y004143D01*
X003248Y004039D01*
X003290Y003997D01*
X003290Y003493D01*
X003716Y003067D01*
X003825Y002957D01*
X003778Y002910D01*
X003112Y002910D01*
X003112Y004725D01*
X003275Y004888D01*
X003275Y006588D01*
X003455Y006768D01*
X003825Y006768D01*
X003940Y006653D01*
X003898Y006611D01*
X003864Y006528D01*
X003847Y006535D01*
X003733Y006535D01*
X003629Y006492D01*
X003548Y006411D01*
X003505Y006307D01*
X003505Y006193D01*
X003548Y006089D01*
X003629Y006008D01*
X003733Y005965D01*
X003792Y005965D01*
X003890Y005867D01*
X004007Y005750D01*
X006152Y005750D01*
X006269Y005867D01*
X006978Y006576D01*
X007906Y006576D01*
X008790Y005692D01*
X008790Y004178D01*
X008748Y004136D01*
X008705Y004032D01*
X008705Y003918D01*
X008748Y003814D01*
X008829Y003733D01*
X008933Y003690D01*
X009047Y003690D01*
X009151Y003733D01*
X009232Y003814D01*
X009275Y003918D01*
X009275Y004032D01*
X009232Y004136D01*
X009190Y004178D01*
X009190Y005858D01*
X009158Y005890D01*
X009201Y005908D01*
X009282Y005989D01*
X009325Y006093D01*
X009325Y006207D01*
X009282Y006311D01*
X009201Y006392D01*
X009097Y006435D01*
X009038Y006435D01*
X008398Y007075D01*
X008837Y007075D01*
X008879Y007033D01*
X008983Y006990D01*
X009097Y006990D01*
X009201Y007033D01*
X009282Y007114D01*
X009325Y007218D01*
X009325Y007332D01*
X009282Y007436D01*
X009201Y007517D01*
X009097Y007560D01*
X008983Y007560D01*
X008879Y007517D01*
X008837Y007475D01*
X006382Y007475D01*
X006265Y007358D01*
X006025Y007118D01*
X006025Y007157D01*
X005982Y007261D01*
X005901Y007342D01*
X005797Y007385D01*
X005710Y007385D01*
X005710Y008704D01*
X005669Y008803D01*
X005097Y009375D01*
X005082Y009411D01*
X005001Y009492D01*
X004897Y009535D01*
X004783Y009535D01*
X004679Y009492D01*
X004598Y009411D01*
X004555Y009307D01*
X004555Y009193D01*
X004598Y009089D01*
X004679Y009008D01*
X004715Y008993D01*
X005170Y008538D01*
X005170Y007127D01*
X005103Y007060D01*
X004127Y007060D01*
X004001Y007186D01*
X003999Y007188D01*
X003455Y007188D01*
X003281Y007188D01*
X002978Y006885D01*
X002855Y006762D01*
X002855Y006100D01*
X002373Y006100D01*
X002175Y006298D01*
X002175Y006357D01*
X002132Y006461D01*
X002051Y006542D01*
X001947Y006585D01*
X001833Y006585D01*
X001729Y006542D01*
X001648Y006461D01*
X001623Y006400D01*
X001265Y006758D01*
X001265Y007900D01*
X003407Y007900D01*
X003855Y007452D01*
X003855Y007393D01*
X003898Y007289D01*
X003979Y007208D01*
X004083Y007165D01*
X004197Y007165D01*
X004301Y007208D01*
X004382Y007289D01*
X004425Y007393D01*
X004425Y007465D01*
X004447Y007465D01*
X004551Y007508D01*
X004632Y007589D01*
X004666Y007672D01*
X004683Y007665D01*
X004797Y007665D01*
X004901Y007708D01*
X004982Y007789D01*
X005025Y007893D01*
X005025Y008007D01*
X004982Y008111D01*
X004901Y008192D01*
X004797Y008235D01*
X004738Y008235D01*
X004290Y008683D01*
X004173Y008800D01*
X002223Y008800D01*
X001265Y009758D01*
X001265Y010400D01*
X001511Y010400D01*
X001410Y010299D01*
X001410Y009901D01*
X001691Y009620D01*
X002089Y009620D01*
X002370Y009901D01*
X002370Y010299D01*
X002269Y010400D01*
X005990Y010400D01*
X005990Y007688D01*
X006078Y007600D01*
X009202Y007600D01*
X009290Y007688D01*
X009290Y008294D01*
X009323Y008214D01*
X009365Y008172D01*
X009365Y005878D01*
X009323Y005836D01*
X009280Y005732D01*
X009280Y005618D01*
X009323Y005514D01*
X009365Y005472D01*
X009365Y002703D01*
X009323Y002661D01*
X009280Y002557D01*
X009280Y002443D01*
X009323Y002339D01*
X009404Y002258D01*
X009508Y002215D01*
X009515Y002215D01*
X009515Y000800D01*
X009515Y001093D02*
X008971Y001093D01*
X008971Y001191D02*
X009515Y001191D01*
X009515Y001290D02*
X008971Y001290D01*
X008971Y001388D02*
X009515Y001388D01*
X009515Y001487D02*
X008971Y001487D01*
X008971Y001585D02*
X009515Y001585D01*
X009515Y001684D02*
X008971Y001684D01*
X008971Y001782D02*
X009515Y001782D01*
X009515Y001881D02*
X008971Y001881D01*
X008971Y002000D02*
X008971Y003151D01*
X008961Y003189D01*
X008941Y003223D01*
X008913Y003251D01*
X008879Y003271D01*
X008841Y003281D01*
X007690Y003281D01*
X007690Y002000D01*
X008971Y002000D01*
X008971Y002078D02*
X009515Y002078D01*
X009515Y002176D02*
X008971Y002176D01*
X008971Y002275D02*
X009387Y002275D01*
X009309Y002373D02*
X008971Y002373D01*
X008971Y002472D02*
X009280Y002472D01*
X009286Y002570D02*
X008971Y002570D01*
X008971Y002669D02*
X009330Y002669D01*
X009365Y002767D02*
X008971Y002767D01*
X008971Y002866D02*
X009365Y002866D01*
X009365Y002964D02*
X008971Y002964D01*
X008971Y003063D02*
X009365Y003063D01*
X009365Y003161D02*
X008968Y003161D01*
X008899Y003260D02*
X009365Y003260D01*
X009365Y003358D02*
X006375Y003358D01*
X006375Y003457D02*
X009365Y003457D01*
X009365Y003555D02*
X006334Y003555D01*
X006223Y003654D02*
X009365Y003654D01*
X009365Y003752D02*
X009170Y003752D01*
X009247Y003851D02*
X009365Y003851D01*
X009365Y003949D02*
X009275Y003949D01*
X009268Y004048D02*
X009365Y004048D01*
X009365Y004146D02*
X009222Y004146D01*
X009190Y004245D02*
X009365Y004245D01*
X009365Y004343D02*
X009190Y004343D01*
X009190Y004442D02*
X009365Y004442D01*
X009365Y004540D02*
X009190Y004540D01*
X009190Y004639D02*
X009365Y004639D01*
X009365Y004737D02*
X009190Y004737D01*
X009190Y004836D02*
X009365Y004836D01*
X009365Y004934D02*
X009190Y004934D01*
X009190Y005033D02*
X009365Y005033D01*
X009365Y005131D02*
X009190Y005131D01*
X009190Y005230D02*
X009365Y005230D01*
X009365Y005328D02*
X009190Y005328D01*
X009190Y005427D02*
X009365Y005427D01*
X009319Y005525D02*
X009190Y005525D01*
X009190Y005624D02*
X009280Y005624D01*
X009280Y005722D02*
X009190Y005722D01*
X009190Y005821D02*
X009317Y005821D01*
X009365Y005919D02*
X009212Y005919D01*
X009294Y006018D02*
X009365Y006018D01*
X009365Y006116D02*
X009325Y006116D01*
X009322Y006215D02*
X009365Y006215D01*
X009365Y006313D02*
X009280Y006313D01*
X009365Y006412D02*
X009153Y006412D01*
X008963Y006510D02*
X009365Y006510D01*
X009365Y006609D02*
X008864Y006609D01*
X008766Y006707D02*
X009365Y006707D01*
X009365Y006806D02*
X008667Y006806D01*
X008569Y006904D02*
X009365Y006904D01*
X009365Y007003D02*
X009127Y007003D01*
X009269Y007101D02*
X009365Y007101D01*
X009365Y007200D02*
X009317Y007200D01*
X009325Y007298D02*
X009365Y007298D01*
X009365Y007397D02*
X009298Y007397D01*
X009365Y007495D02*
X009223Y007495D01*
X009365Y007594D02*
X005710Y007594D01*
X005710Y007692D02*
X005990Y007692D01*
X005990Y007791D02*
X005710Y007791D01*
X005710Y007889D02*
X005990Y007889D01*
X005990Y007988D02*
X005710Y007988D01*
X005710Y008086D02*
X005990Y008086D01*
X005990Y008185D02*
X005710Y008185D01*
X005710Y008283D02*
X005990Y008283D01*
X005990Y008382D02*
X005710Y008382D01*
X005710Y008480D02*
X005990Y008480D01*
X005990Y008579D02*
X005710Y008579D01*
X005710Y008677D02*
X005990Y008677D01*
X005990Y008776D02*
X005680Y008776D01*
X005598Y008874D02*
X005990Y008874D01*
X005990Y008973D02*
X005499Y008973D01*
X005401Y009071D02*
X005990Y009071D01*
X005990Y009170D02*
X005302Y009170D01*
X005204Y009268D02*
X005990Y009268D01*
X005990Y009367D02*
X005105Y009367D01*
X005028Y009465D02*
X005990Y009465D01*
X005990Y009564D02*
X001459Y009564D01*
X001361Y009662D02*
X001649Y009662D01*
X001551Y009761D02*
X001265Y009761D01*
X001265Y009859D02*
X001452Y009859D01*
X001410Y009958D02*
X001265Y009958D01*
X001265Y010056D02*
X001410Y010056D01*
X001410Y010155D02*
X001265Y010155D01*
X001265Y010253D02*
X001410Y010253D01*
X001463Y010352D02*
X001265Y010352D01*
X000640Y010100D02*
X002140Y008600D01*
X004090Y008600D01*
X004740Y007950D01*
X004992Y008086D02*
X005170Y008086D01*
X005170Y007988D02*
X005025Y007988D01*
X005023Y007889D02*
X005170Y007889D01*
X005170Y007791D02*
X004982Y007791D01*
X004862Y007692D02*
X005170Y007692D01*
X005170Y007594D02*
X004634Y007594D01*
X004519Y007495D02*
X005170Y007495D01*
X005170Y007397D02*
X004425Y007397D01*
X004386Y007298D02*
X005170Y007298D01*
X005170Y007200D02*
X004280Y007200D01*
X004086Y007101D02*
X005144Y007101D01*
X005710Y007397D02*
X006304Y007397D01*
X006205Y007298D02*
X005945Y007298D01*
X006007Y007200D02*
X006107Y007200D01*
X006465Y007275D02*
X009040Y007275D01*
X008953Y007003D02*
X008470Y007003D01*
X008177Y007013D02*
X009040Y006150D01*
X008563Y005919D02*
X008040Y005919D01*
X008050Y006018D02*
X008465Y006018D01*
X008366Y006116D02*
X008025Y006116D01*
X007954Y006215D02*
X008268Y006215D01*
X008169Y006313D02*
X007500Y006313D01*
X007280Y006313D02*
X006715Y006313D01*
X006813Y006412D02*
X008071Y006412D01*
X007972Y006510D02*
X006912Y006510D01*
X006822Y006215D02*
X006616Y006215D01*
X006518Y006116D02*
X006723Y006116D01*
X006625Y006018D02*
X006419Y006018D01*
X006321Y005919D02*
X006526Y005919D01*
X006428Y005821D02*
X006222Y005821D01*
X006329Y005722D02*
X003275Y005722D01*
X003275Y005624D02*
X006231Y005624D01*
X006132Y005525D02*
X003275Y005525D01*
X003275Y005427D02*
X006034Y005427D01*
X005935Y005328D02*
X003275Y005328D01*
X003275Y005230D02*
X005837Y005230D01*
X005738Y005131D02*
X003275Y005131D01*
X003275Y005033D02*
X005640Y005033D01*
X005541Y004934D02*
X003275Y004934D01*
X003222Y004836D02*
X004593Y004836D01*
X004494Y004737D02*
X003124Y004737D01*
X003112Y004639D02*
X004396Y004639D01*
X004297Y004540D02*
X003112Y004540D01*
X003112Y004442D02*
X003328Y004442D01*
X003241Y004343D02*
X003112Y004343D01*
X003112Y004245D02*
X003205Y004245D01*
X003205Y004146D02*
X003112Y004146D01*
X003112Y004048D02*
X003245Y004048D01*
X003290Y003949D02*
X003112Y003949D01*
X003112Y003851D02*
X003290Y003851D01*
X003290Y003752D02*
X003112Y003752D01*
X003112Y003654D02*
X003290Y003654D01*
X003290Y003555D02*
X003112Y003555D01*
X003112Y003457D02*
X003326Y003457D01*
X003425Y003358D02*
X003112Y003358D01*
X003112Y003260D02*
X003523Y003260D01*
X003622Y003161D02*
X003112Y003161D01*
X003112Y003063D02*
X003720Y003063D01*
X003819Y002964D02*
X003112Y002964D01*
X002692Y002964D02*
X001265Y002964D01*
X001265Y002866D02*
X001752Y002866D01*
X001665Y002767D02*
X001265Y002767D01*
X001265Y002669D02*
X001630Y002669D01*
X001630Y002570D02*
X001265Y002570D01*
X001265Y002472D02*
X001670Y002472D01*
X001779Y002373D02*
X001265Y002373D01*
X001265Y002275D02*
X002278Y002275D01*
X002278Y002373D02*
X002051Y002373D01*
X002290Y002176D02*
X001265Y002176D01*
X001265Y002078D02*
X003547Y002078D01*
X003468Y001979D02*
X001265Y001979D01*
X001265Y001881D02*
X003468Y001881D01*
X003468Y001782D02*
X001265Y001782D01*
X001265Y001684D02*
X003468Y001684D01*
X003868Y001812D02*
X003934Y001878D01*
X003934Y002181D01*
X003649Y002176D02*
X003140Y002176D01*
X003152Y002275D02*
X003665Y002275D01*
X003724Y002373D02*
X003152Y002373D01*
X003152Y002472D02*
X004230Y002472D01*
X004230Y002570D02*
X004032Y002570D01*
X004145Y002373D02*
X004230Y002373D01*
X004230Y002275D02*
X004204Y002275D01*
X004219Y002176D02*
X004230Y002176D01*
X004200Y002078D02*
X004316Y002078D01*
X004268Y001979D02*
X004414Y001979D01*
X004513Y001881D02*
X004268Y001881D01*
X004268Y001782D02*
X004611Y001782D01*
X004710Y001684D02*
X004510Y001684D01*
X004593Y001585D02*
X004808Y001585D01*
X004625Y001487D02*
X006309Y001487D01*
X006309Y001585D02*
X005554Y001585D01*
X005611Y001684D02*
X006309Y001684D01*
X006309Y001782D02*
X005625Y001782D01*
X005604Y001881D02*
X006309Y001881D01*
X006309Y002078D02*
X004909Y002078D01*
X004811Y002176D02*
X006309Y002176D01*
X006309Y002275D02*
X004712Y002275D01*
X004650Y002373D02*
X006309Y002373D01*
X006309Y002472D02*
X004650Y002472D01*
X004650Y002570D02*
X006309Y002570D01*
X006309Y002669D02*
X005655Y002669D01*
X005754Y002767D02*
X006309Y002767D01*
X006309Y002866D02*
X005852Y002866D01*
X005951Y002964D02*
X006309Y002964D01*
X006309Y003063D02*
X006049Y003063D01*
X006254Y003161D02*
X006312Y003161D01*
X006340Y003260D02*
X006381Y003260D01*
X006073Y003752D02*
X008810Y003752D01*
X008733Y003851D02*
X006172Y003851D01*
X006270Y003949D02*
X008705Y003949D01*
X008712Y004048D02*
X006369Y004048D01*
X006467Y004146D02*
X008758Y004146D01*
X008790Y004245D02*
X006566Y004245D01*
X006664Y004343D02*
X008790Y004343D01*
X008790Y004442D02*
X006763Y004442D01*
X006981Y004540D02*
X008790Y004540D01*
X008790Y004639D02*
X007066Y004639D01*
X007100Y004737D02*
X008790Y004737D01*
X008790Y004836D02*
X007099Y004836D01*
X007058Y004934D02*
X008790Y004934D01*
X008790Y005033D02*
X006942Y005033D01*
X006854Y005131D02*
X008790Y005131D01*
X008790Y005230D02*
X006952Y005230D01*
X007051Y005328D02*
X008790Y005328D01*
X008790Y005427D02*
X007149Y005427D01*
X007090Y005650D02*
X007415Y005650D01*
X007765Y006000D01*
X007989Y005821D02*
X008662Y005821D01*
X008760Y005722D02*
X007839Y005722D01*
X007671Y005624D02*
X008790Y005624D01*
X008790Y005525D02*
X007573Y005525D01*
X007090Y005650D02*
X005840Y004400D01*
X005190Y004400D01*
X004240Y003450D01*
X003916Y003150D02*
X005188Y003150D01*
X006815Y004777D01*
X005590Y004700D02*
X004740Y004700D01*
X003865Y003825D01*
X003903Y004146D02*
X003775Y004146D01*
X003775Y004245D02*
X004002Y004245D01*
X004100Y004343D02*
X003739Y004343D01*
X003652Y004442D02*
X004199Y004442D01*
X003490Y004200D02*
X003490Y003576D01*
X003916Y003150D01*
X002692Y003161D02*
X001265Y003161D01*
X001265Y003063D02*
X002692Y003063D01*
X002692Y003260D02*
X001265Y003260D01*
X001265Y003358D02*
X002692Y003358D01*
X002692Y003457D02*
X001265Y003457D01*
X001265Y003555D02*
X002692Y003555D01*
X002692Y003654D02*
X001265Y003654D01*
X001265Y003752D02*
X002692Y003752D01*
X002692Y003851D02*
X001265Y003851D01*
X001265Y003949D02*
X002692Y003949D01*
X002692Y004048D02*
X001265Y004048D01*
X001265Y004146D02*
X002692Y004146D01*
X002692Y004245D02*
X001265Y004245D01*
X001265Y004343D02*
X002692Y004343D01*
X002692Y004442D02*
X001265Y004442D01*
X001265Y004540D02*
X002692Y004540D01*
X002692Y004639D02*
X001265Y004639D01*
X001265Y004737D02*
X002692Y004737D01*
X002692Y004836D02*
X001265Y004836D01*
X001265Y004934D02*
X002637Y004934D01*
X002740Y005200D02*
X001540Y005200D01*
X000640Y006100D01*
X001414Y006609D02*
X002855Y006609D01*
X002855Y006707D02*
X001316Y006707D01*
X001265Y006806D02*
X002899Y006806D01*
X002997Y006904D02*
X001265Y006904D01*
X001265Y007003D02*
X003096Y007003D01*
X003194Y007101D02*
X001265Y007101D01*
X001265Y007200D02*
X004000Y007200D01*
X003894Y007298D02*
X001265Y007298D01*
X001265Y007397D02*
X003855Y007397D01*
X003812Y007495D02*
X001265Y007495D01*
X001265Y007594D02*
X003714Y007594D01*
X003615Y007692D02*
X001265Y007692D01*
X001265Y007791D02*
X003517Y007791D01*
X003418Y007889D02*
X001265Y007889D01*
X000640Y008100D02*
X003490Y008100D01*
X004140Y007450D01*
X004390Y007750D02*
X003790Y008350D01*
X001390Y008350D01*
X000640Y009100D01*
X001558Y009465D02*
X004652Y009465D01*
X004580Y009367D02*
X001656Y009367D01*
X001755Y009268D02*
X004555Y009268D01*
X004565Y009170D02*
X001853Y009170D01*
X001952Y009071D02*
X004616Y009071D01*
X004736Y008973D02*
X002050Y008973D01*
X002149Y008874D02*
X004834Y008874D01*
X004933Y008776D02*
X004197Y008776D01*
X004296Y008677D02*
X005031Y008677D01*
X005130Y008579D02*
X004394Y008579D01*
X004493Y008480D02*
X005170Y008480D01*
X005170Y008382D02*
X004591Y008382D01*
X004690Y008283D02*
X005170Y008283D01*
X005170Y008185D02*
X004909Y008185D01*
X005710Y007495D02*
X008857Y007495D01*
X009290Y007692D02*
X009365Y007692D01*
X009365Y007791D02*
X009290Y007791D01*
X009290Y007889D02*
X009365Y007889D01*
X009365Y007988D02*
X009290Y007988D01*
X009290Y008086D02*
X009365Y008086D01*
X009352Y008185D02*
X009290Y008185D01*
X009290Y008200D02*
X009290Y008650D01*
X009915Y008650D01*
X009565Y008375D02*
X009565Y005675D01*
X009565Y002500D01*
X009515Y001979D02*
X007690Y001979D01*
X007690Y002078D02*
X007590Y002078D01*
X007590Y002176D02*
X007690Y002176D01*
X007690Y002275D02*
X007590Y002275D01*
X007590Y002373D02*
X007690Y002373D01*
X007690Y002472D02*
X007590Y002472D01*
X007590Y002570D02*
X007690Y002570D01*
X007690Y002669D02*
X007590Y002669D01*
X007590Y002767D02*
X007690Y002767D01*
X007690Y002866D02*
X007590Y002866D01*
X007590Y002964D02*
X007690Y002964D01*
X007690Y003063D02*
X007590Y003063D01*
X007590Y003161D02*
X007690Y003161D01*
X007690Y003260D02*
X007590Y003260D01*
X008990Y003975D02*
X008990Y005775D01*
X007989Y006776D01*
X006895Y006776D01*
X006069Y005950D01*
X004090Y005950D01*
X003790Y006250D01*
X003673Y006510D02*
X003275Y006510D01*
X003275Y006412D02*
X003548Y006412D01*
X003508Y006313D02*
X003275Y006313D01*
X003275Y006215D02*
X003505Y006215D01*
X003537Y006116D02*
X003275Y006116D01*
X003275Y006018D02*
X003619Y006018D01*
X003838Y005919D02*
X003275Y005919D01*
X003275Y005821D02*
X003937Y005821D01*
X003890Y005867D02*
X003890Y005867D01*
X004390Y006200D02*
X004140Y006450D01*
X003897Y006609D02*
X003296Y006609D01*
X003394Y006707D02*
X003886Y006707D01*
X004390Y006200D02*
X005852Y006200D01*
X006664Y007013D01*
X008177Y007013D01*
X007390Y006050D02*
X006940Y006050D01*
X005590Y004700D01*
X003065Y005900D02*
X002290Y005900D01*
X001890Y006300D01*
X001628Y006412D02*
X001611Y006412D01*
X001697Y006510D02*
X001513Y006510D01*
X002083Y006510D02*
X002855Y006510D01*
X002855Y006412D02*
X002152Y006412D01*
X002175Y006313D02*
X002855Y006313D01*
X002855Y006215D02*
X002258Y006215D01*
X002357Y006116D02*
X002855Y006116D01*
X002740Y005600D02*
X002140Y005600D01*
X000640Y007100D01*
X001265Y005131D02*
X001326Y005131D01*
X001265Y005033D02*
X001425Y005033D01*
X004590Y006550D02*
X005740Y006550D01*
X006465Y007275D01*
X009290Y008283D02*
X009295Y008283D01*
X009290Y008456D02*
X009290Y008650D01*
X009484Y008650D01*
X009404Y008617D01*
X009323Y008536D01*
X009290Y008456D01*
X009290Y008480D02*
X009300Y008480D01*
X009290Y008579D02*
X009365Y008579D01*
X005990Y009662D02*
X002131Y009662D01*
X002229Y009761D02*
X005990Y009761D01*
X005990Y009859D02*
X002328Y009859D01*
X002370Y009958D02*
X005990Y009958D01*
X005990Y010056D02*
X002370Y010056D01*
X002370Y010155D02*
X005990Y010155D01*
X005990Y010253D02*
X002370Y010253D01*
X002317Y010352D02*
X005990Y010352D01*
X013799Y008525D02*
X013799Y007952D01*
X013799Y005275D02*
X013799Y004702D01*
X013799Y002000D02*
X013799Y001452D01*
X007590Y001979D02*
X005538Y001979D01*
X004625Y001393D02*
X004582Y001289D01*
X004459Y001191D02*
X006309Y001191D01*
X006309Y001093D02*
X001265Y001093D01*
X001265Y001191D02*
X004221Y001191D01*
X003868Y001488D02*
X003781Y001400D01*
X000940Y001400D01*
X000640Y001100D01*
X001265Y000994D02*
X006309Y000994D01*
X006309Y000896D02*
X001265Y000896D01*
X003868Y001450D02*
X003868Y001488D01*
X003868Y001450D02*
X004340Y001450D01*
X002331Y002866D02*
X002078Y002866D01*
D30*
X011840Y004275D03*
X011840Y001150D03*
X011840Y007525D03*
D31*
X005440Y007100D02*
X005190Y006850D01*
X004040Y006850D01*
X003912Y006978D01*
X003368Y006978D01*
X003065Y006675D01*
X003065Y005900D01*
X003065Y004975D01*
X002902Y004812D01*
X002902Y002700D01*
X003865Y002700D01*
X004015Y002850D01*
X004440Y002850D01*
X005540Y002850D01*
X006090Y003400D01*
X004440Y002850D02*
X004440Y002250D01*
X004916Y001774D01*
X005340Y001774D01*
X002877Y002500D02*
X002902Y002700D01*
X002553Y002625D02*
X002553Y002500D01*
X002553Y002625D02*
X001915Y002625D01*
D32*
X005440Y007100D02*
X005440Y008650D01*
X004840Y009250D01*
X005440Y007100D02*
X005740Y007100D01*
M02*
