G75*
G70*
%OFA0B0*%
%FSLAX24Y24*%
%IPPOS*%
%LPD*%
%AMOC8*
5,1,8,0,0,1.08239X$1,22.5*
%
%ADD10C,0.0000*%
%ADD11C,0.0030*%
%ADD12C,0.0080*%
%ADD13R,0.0300X0.0340*%
%ADD14R,0.0156X0.0300*%
%ADD15R,0.0300X0.0156*%
%ADD16C,0.0100*%
%ADD17C,0.0050*%
%ADD18C,0.0150*%
D10*
X000150Y000450D02*
X000150Y010450D01*
X019650Y010450D01*
X019650Y000450D01*
X000150Y000450D01*
D11*
X000500Y000832D02*
X000500Y000928D01*
X000500Y000880D02*
X000742Y000880D01*
X000790Y000832D01*
X000790Y000783D01*
X000742Y000735D01*
X000790Y001030D02*
X000500Y001030D01*
X000500Y001175D01*
X000548Y001223D01*
X000645Y001223D01*
X000693Y001175D01*
X000693Y001030D01*
X000645Y001324D02*
X000645Y001469D01*
X000693Y001518D01*
X000742Y001518D01*
X000790Y001469D01*
X000790Y001373D01*
X000742Y001324D01*
X000645Y001324D01*
X000548Y001421D01*
X000500Y001518D01*
X001645Y001555D02*
X001645Y001458D01*
X001693Y001410D01*
X001645Y001308D02*
X001887Y001308D01*
X001935Y001260D01*
X001935Y001163D01*
X001887Y001115D01*
X001645Y001115D01*
X001935Y001410D02*
X001742Y001603D01*
X001693Y001603D01*
X001645Y001555D01*
X001935Y001603D02*
X001935Y001410D01*
X002513Y002640D02*
X002610Y002640D01*
X002658Y002688D01*
X002760Y002688D02*
X002808Y002640D01*
X002905Y002640D01*
X002953Y002688D01*
X002953Y002737D01*
X002905Y002785D01*
X002760Y002785D01*
X002760Y002688D01*
X002760Y002785D02*
X002856Y002882D01*
X002953Y002930D01*
X002658Y002882D02*
X002610Y002930D01*
X002513Y002930D01*
X002465Y002882D01*
X002465Y002688D01*
X002513Y002640D01*
X001795Y002957D02*
X001761Y002923D01*
X001693Y002923D01*
X001624Y002992D01*
X001624Y003060D01*
X001761Y003060D02*
X001795Y003026D01*
X001795Y002957D01*
X001795Y003026D02*
X001864Y003026D01*
X001898Y003060D01*
X001898Y003128D01*
X001830Y003197D01*
X001761Y003197D01*
X001724Y003302D02*
X001655Y003371D01*
X001690Y003337D02*
X001519Y003166D01*
X001450Y003166D01*
X001416Y003200D01*
X001416Y003268D01*
X001344Y003340D02*
X001276Y003340D01*
X001208Y003408D01*
X001208Y003477D01*
X001310Y003511D02*
X001379Y003442D01*
X001379Y003374D01*
X001344Y003340D01*
X001310Y003511D02*
X001310Y003579D01*
X001344Y003613D01*
X001413Y003613D01*
X001481Y003545D01*
X001481Y003477D01*
X002688Y004761D02*
X002882Y004761D01*
X002930Y004809D01*
X002930Y004906D01*
X002882Y004954D01*
X002882Y005055D02*
X002930Y005055D01*
X002882Y005055D02*
X002688Y005249D01*
X002640Y005249D01*
X002640Y005055D01*
X002688Y004954D02*
X002640Y004906D01*
X002640Y004809D01*
X002688Y004761D01*
X004380Y003689D02*
X004380Y003495D01*
X004380Y003592D02*
X004090Y003592D01*
X004187Y003495D01*
X004090Y003394D02*
X004332Y003394D01*
X004380Y003346D01*
X004380Y003249D01*
X004332Y003201D01*
X004090Y003201D01*
X004316Y003015D02*
X004461Y002870D01*
X004461Y003064D01*
X004316Y003015D02*
X004607Y003015D01*
X004558Y002769D02*
X004607Y002721D01*
X004607Y002624D01*
X004558Y002576D01*
X004365Y002576D01*
X004316Y002624D01*
X004316Y002721D01*
X004365Y002769D01*
X005665Y002105D02*
X005762Y002105D01*
X005713Y002105D02*
X005713Y001815D01*
X005665Y001815D02*
X005762Y001815D01*
X005861Y001863D02*
X005910Y001815D01*
X006007Y001815D01*
X006055Y001863D01*
X006156Y001815D02*
X006350Y002008D01*
X006350Y002057D01*
X006301Y002105D01*
X006204Y002105D01*
X006156Y002057D01*
X006055Y002057D02*
X006007Y002105D01*
X005910Y002105D01*
X005861Y002057D01*
X005861Y001863D01*
X006156Y001815D02*
X006350Y001815D01*
X006207Y002526D02*
X006013Y002526D01*
X005965Y002574D01*
X005965Y002671D01*
X006013Y002719D01*
X005965Y002820D02*
X006110Y002820D01*
X006062Y002917D01*
X006062Y002965D01*
X006110Y003014D01*
X006207Y003014D01*
X006255Y002965D01*
X006255Y002869D01*
X006207Y002820D01*
X006207Y002719D02*
X006255Y002671D01*
X006255Y002574D01*
X006207Y002526D01*
X005965Y002820D02*
X005965Y003014D01*
X008995Y003178D02*
X009043Y003081D01*
X009140Y002985D01*
X009140Y003130D01*
X009188Y003178D01*
X009237Y003178D01*
X009285Y003130D01*
X009285Y003033D01*
X009237Y002985D01*
X009140Y002985D01*
X009140Y002883D02*
X009043Y002883D01*
X008995Y002835D01*
X008995Y002690D01*
X009285Y002690D01*
X009188Y002690D02*
X009188Y002835D01*
X009140Y002883D01*
X009188Y002787D02*
X009285Y002883D01*
X009420Y002835D02*
X009420Y002738D01*
X009468Y002690D01*
X009662Y002690D01*
X009710Y002738D01*
X009710Y002835D01*
X009662Y002883D01*
X009662Y002985D02*
X009613Y002985D01*
X009565Y003033D01*
X009565Y003130D01*
X009613Y003178D01*
X009662Y003178D01*
X009710Y003130D01*
X009710Y003033D01*
X009662Y002985D01*
X009565Y003033D02*
X009517Y002985D01*
X009468Y002985D01*
X009420Y003033D01*
X009420Y003130D01*
X009468Y003178D01*
X009517Y003178D01*
X009565Y003130D01*
X009826Y003420D02*
X009826Y003710D01*
X009971Y003710D01*
X010019Y003662D01*
X010019Y003565D01*
X009971Y003517D01*
X009826Y003517D01*
X009922Y003517D02*
X010019Y003420D01*
X010265Y003420D02*
X010265Y003710D01*
X010120Y003565D01*
X010314Y003565D01*
X011595Y003580D02*
X011595Y003483D01*
X011643Y003435D01*
X011643Y003333D02*
X011740Y003333D01*
X011788Y003285D01*
X011788Y003140D01*
X011788Y003237D02*
X011885Y003333D01*
X011837Y003435D02*
X011885Y003483D01*
X011885Y003580D01*
X011837Y003628D01*
X011788Y003628D01*
X011740Y003580D01*
X011740Y003531D01*
X011740Y003580D02*
X011692Y003628D01*
X011643Y003628D01*
X011595Y003580D01*
X011643Y003333D02*
X011595Y003285D01*
X011595Y003140D01*
X011885Y003140D01*
X013240Y002630D02*
X013385Y002630D01*
X013433Y002582D01*
X013433Y002485D01*
X013385Y002437D01*
X013240Y002437D01*
X013337Y002437D02*
X013433Y002340D01*
X013535Y002388D02*
X013583Y002340D01*
X013680Y002340D01*
X013728Y002388D01*
X013728Y002485D01*
X013680Y002533D01*
X013631Y002533D01*
X013535Y002485D01*
X013535Y002630D01*
X013728Y002630D01*
X013240Y002630D02*
X013240Y002340D01*
X013240Y002005D02*
X013385Y002005D01*
X013433Y001957D01*
X013433Y001860D01*
X013385Y001812D01*
X013240Y001812D01*
X013337Y001812D02*
X013433Y001715D01*
X013535Y001715D02*
X013728Y001715D01*
X013631Y001715D02*
X013631Y002005D01*
X013535Y001908D01*
X013240Y002005D02*
X013240Y001715D01*
X011814Y001712D02*
X011620Y001518D01*
X011620Y001470D01*
X011519Y001470D02*
X011422Y001567D01*
X011471Y001567D02*
X011326Y001567D01*
X011326Y001470D02*
X011326Y001760D01*
X011471Y001760D01*
X011519Y001712D01*
X011519Y001615D01*
X011471Y001567D01*
X011620Y001760D02*
X011814Y001760D01*
X011814Y001712D01*
X010060Y001405D02*
X010060Y001308D01*
X010012Y001260D01*
X010012Y001158D02*
X009818Y001158D01*
X009770Y001110D01*
X009770Y001013D01*
X009818Y000965D01*
X010012Y000965D01*
X010060Y001013D01*
X010060Y001110D01*
X010012Y001158D01*
X010060Y001158D02*
X009963Y001062D01*
X009818Y001260D02*
X009770Y001308D01*
X009770Y001405D01*
X009818Y001453D01*
X009867Y001453D01*
X009915Y001405D01*
X009963Y001453D01*
X010012Y001453D01*
X010060Y001405D01*
X009915Y001405D02*
X009915Y001356D01*
X009703Y001915D02*
X009510Y001915D01*
X009703Y002108D01*
X009703Y002157D01*
X009655Y002205D01*
X009558Y002205D01*
X009510Y002157D01*
X009408Y002157D02*
X009408Y002060D01*
X009360Y002012D01*
X009215Y002012D01*
X009312Y002012D02*
X009408Y001915D01*
X009215Y001915D02*
X009215Y002205D01*
X009360Y002205D01*
X009408Y002157D01*
X009420Y002835D02*
X009468Y002883D01*
X014583Y003113D02*
X014631Y003065D01*
X014728Y003065D01*
X014776Y003113D01*
X014776Y003307D01*
X014728Y003355D01*
X014631Y003355D01*
X014583Y003307D01*
X014583Y003113D01*
X014679Y003162D02*
X014776Y003065D01*
X014877Y003065D02*
X015071Y003258D01*
X015071Y003307D01*
X015022Y003355D01*
X014926Y003355D01*
X014877Y003307D01*
X014877Y003065D02*
X015071Y003065D01*
X017415Y003315D02*
X017415Y003605D01*
X017560Y003605D01*
X017608Y003557D01*
X017608Y003460D01*
X017560Y003412D01*
X017415Y003412D01*
X017710Y003460D02*
X017758Y003508D01*
X017855Y003508D01*
X017903Y003460D01*
X017903Y003315D01*
X018004Y003363D02*
X018053Y003412D01*
X018198Y003412D01*
X018198Y003460D02*
X018198Y003315D01*
X018053Y003315D01*
X018004Y003363D01*
X018053Y003508D02*
X018149Y003508D01*
X018198Y003460D01*
X018299Y003460D02*
X018347Y003412D01*
X018444Y003412D01*
X018492Y003363D01*
X018444Y003315D01*
X018299Y003315D01*
X018594Y003363D02*
X018594Y003460D01*
X018642Y003508D01*
X018739Y003508D01*
X018787Y003460D01*
X018787Y003412D01*
X018594Y003412D01*
X018594Y003363D02*
X018642Y003315D01*
X018739Y003315D01*
X018888Y003460D02*
X019082Y003460D01*
X019183Y003460D02*
X019376Y003460D01*
X019376Y003508D02*
X019376Y003315D01*
X019183Y003315D02*
X019183Y003508D01*
X019280Y003605D01*
X019376Y003508D01*
X018492Y003508D02*
X018347Y003508D01*
X018299Y003460D01*
X017710Y003605D02*
X017710Y003315D01*
X015022Y006315D02*
X014926Y006315D01*
X014877Y006363D01*
X014877Y006460D02*
X014974Y006508D01*
X015022Y006508D01*
X015071Y006460D01*
X015071Y006363D01*
X015022Y006315D01*
X014776Y006315D02*
X014679Y006412D01*
X014583Y006363D02*
X014631Y006315D01*
X014728Y006315D01*
X014776Y006363D01*
X014776Y006557D01*
X014728Y006605D01*
X014631Y006605D01*
X014583Y006557D01*
X014583Y006363D01*
X014877Y006460D02*
X014877Y006605D01*
X015071Y006605D01*
X017415Y006565D02*
X017415Y006855D01*
X017560Y006855D01*
X017608Y006807D01*
X017608Y006710D01*
X017560Y006662D01*
X017415Y006662D01*
X017710Y006710D02*
X017758Y006758D01*
X017855Y006758D01*
X017903Y006710D01*
X017903Y006565D01*
X018004Y006613D02*
X018053Y006662D01*
X018198Y006662D01*
X018198Y006710D02*
X018198Y006565D01*
X018053Y006565D01*
X018004Y006613D01*
X018149Y006758D02*
X018198Y006710D01*
X018149Y006758D02*
X018053Y006758D01*
X018299Y006710D02*
X018347Y006758D01*
X018492Y006758D01*
X018444Y006662D02*
X018347Y006662D01*
X018299Y006710D01*
X018299Y006565D02*
X018444Y006565D01*
X018492Y006613D01*
X018444Y006662D01*
X018594Y006662D02*
X018787Y006662D01*
X018787Y006710D01*
X018739Y006758D01*
X018642Y006758D01*
X018594Y006710D01*
X018594Y006613D01*
X018642Y006565D01*
X018739Y006565D01*
X018888Y006710D02*
X019082Y006710D01*
X019183Y006710D02*
X019328Y006710D01*
X019376Y006662D01*
X019376Y006613D01*
X019328Y006565D01*
X019183Y006565D01*
X019183Y006855D01*
X019328Y006855D01*
X019376Y006807D01*
X019376Y006758D01*
X019328Y006710D01*
X017710Y006855D02*
X017710Y006565D01*
X014997Y009565D02*
X014901Y009565D01*
X014852Y009613D01*
X014852Y009662D01*
X014901Y009710D01*
X014997Y009710D01*
X015046Y009662D01*
X015046Y009613D01*
X014997Y009565D01*
X014997Y009710D02*
X015046Y009758D01*
X015046Y009807D01*
X014997Y009855D01*
X014901Y009855D01*
X014852Y009807D01*
X014852Y009758D01*
X014901Y009710D01*
X014751Y009613D02*
X014703Y009565D01*
X014606Y009565D01*
X014558Y009613D01*
X014558Y009807D01*
X014606Y009855D01*
X014703Y009855D01*
X014751Y009807D01*
X014751Y009613D01*
X014751Y009565D02*
X014654Y009662D01*
X017415Y009790D02*
X017415Y010080D01*
X017560Y010080D01*
X017608Y010032D01*
X017608Y009935D01*
X017560Y009887D01*
X017415Y009887D01*
X017710Y009935D02*
X017758Y009983D01*
X017855Y009983D01*
X017903Y009935D01*
X017903Y009790D01*
X018004Y009838D02*
X018053Y009887D01*
X018198Y009887D01*
X018198Y009935D02*
X018198Y009790D01*
X018053Y009790D01*
X018004Y009838D01*
X018149Y009983D02*
X018198Y009935D01*
X018149Y009983D02*
X018053Y009983D01*
X018299Y009935D02*
X018347Y009983D01*
X018492Y009983D01*
X018444Y009887D02*
X018347Y009887D01*
X018299Y009935D01*
X018299Y009790D02*
X018444Y009790D01*
X018492Y009838D01*
X018444Y009887D01*
X018594Y009887D02*
X018787Y009887D01*
X018787Y009935D01*
X018739Y009983D01*
X018642Y009983D01*
X018594Y009935D01*
X018594Y009838D01*
X018642Y009790D01*
X018739Y009790D01*
X018888Y009935D02*
X019082Y009935D01*
X019183Y009838D02*
X019231Y009790D01*
X019328Y009790D01*
X019376Y009838D01*
X019183Y009838D02*
X019183Y010032D01*
X019231Y010080D01*
X019328Y010080D01*
X019376Y010032D01*
X017710Y010080D02*
X017710Y009790D01*
X006503Y007290D02*
X006310Y007290D01*
X006406Y007290D02*
X006406Y007580D01*
X006310Y007483D01*
X006015Y007580D02*
X006015Y007290D01*
X006208Y007290D01*
X005528Y007318D02*
X005480Y007270D01*
X005383Y007270D01*
X005335Y007318D01*
X005233Y007318D02*
X005185Y007270D01*
X005088Y007270D01*
X005040Y007318D01*
X005040Y007512D01*
X005088Y007560D01*
X005185Y007560D01*
X005233Y007512D01*
X005335Y007512D02*
X005383Y007560D01*
X005480Y007560D01*
X005528Y007512D01*
X005528Y007463D01*
X005480Y007415D01*
X005528Y007366D01*
X005528Y007318D01*
X005480Y007415D02*
X005431Y007415D01*
X002263Y007310D02*
X002069Y007310D01*
X002069Y007165D01*
X002166Y007213D01*
X002214Y007213D01*
X002263Y007165D01*
X002263Y007068D01*
X002214Y007020D01*
X002118Y007020D01*
X002069Y007068D01*
X001920Y007068D02*
X001920Y007310D01*
X001968Y007310D02*
X001871Y007310D01*
X001673Y007262D02*
X001625Y007310D01*
X001528Y007310D01*
X001480Y007262D01*
X001480Y007213D01*
X001528Y007165D01*
X001625Y007165D01*
X001673Y007117D01*
X001673Y007068D01*
X001625Y007020D01*
X001528Y007020D01*
X001480Y007068D01*
X001775Y007068D02*
X001823Y007020D01*
X001871Y007020D01*
X001920Y007068D01*
X002135Y006688D02*
X002135Y006494D01*
X001990Y006639D01*
X002280Y006639D01*
X002232Y006345D02*
X001990Y006345D01*
X001990Y006393D02*
X001990Y006296D01*
X002232Y006345D02*
X002280Y006296D01*
X002280Y006248D01*
X002232Y006200D01*
X002232Y006098D02*
X002280Y006050D01*
X002280Y005953D01*
X002232Y005905D01*
X002135Y005953D02*
X002135Y006050D01*
X002183Y006098D01*
X002232Y006098D01*
X002135Y005953D02*
X002087Y005905D01*
X002038Y005905D01*
X001990Y005953D01*
X001990Y006050D01*
X002038Y006098D01*
X001635Y006123D02*
X001538Y006027D01*
X001538Y006075D02*
X001538Y005930D01*
X001635Y005930D02*
X001345Y005930D01*
X001345Y006075D01*
X001393Y006123D01*
X001490Y006123D01*
X001538Y006075D01*
X001635Y006225D02*
X001442Y006418D01*
X001393Y006418D01*
X001345Y006370D01*
X001345Y006273D01*
X001393Y006225D01*
X001635Y006225D02*
X001635Y006418D01*
X001635Y006519D02*
X001442Y006713D01*
X001393Y006713D01*
X001345Y006664D01*
X001345Y006568D01*
X001393Y006519D01*
X001635Y006519D02*
X001635Y006713D01*
X002538Y009934D02*
X002635Y009934D01*
X002683Y009982D01*
X002785Y009934D02*
X002978Y010127D01*
X002978Y010176D01*
X002930Y010224D01*
X002833Y010224D01*
X002785Y010176D01*
X002683Y010176D02*
X002635Y010224D01*
X002538Y010224D01*
X002490Y010176D01*
X002490Y009982D01*
X002538Y009934D01*
X002785Y009934D02*
X002978Y009934D01*
X003965Y009940D02*
X004062Y009940D01*
X004013Y009940D02*
X004013Y010230D01*
X003965Y010230D02*
X004062Y010230D01*
X004161Y010182D02*
X004161Y009988D01*
X004210Y009940D01*
X004307Y009940D01*
X004355Y009988D01*
X004456Y009940D02*
X004650Y009940D01*
X004553Y009940D02*
X004553Y010230D01*
X004456Y010133D01*
X004355Y010182D02*
X004307Y010230D01*
X004210Y010230D01*
X004161Y010182D01*
D12*
X003700Y010390D02*
X003700Y007810D01*
X005000Y007810D01*
X005000Y010390D01*
X003700Y010390D01*
X002372Y010124D02*
X002215Y010281D01*
X001585Y010281D01*
X001428Y010124D01*
X001428Y009494D01*
X001150Y009700D02*
X001150Y010200D01*
X000900Y010450D01*
X000400Y010450D01*
X000150Y010200D01*
X000150Y009700D01*
X000400Y009450D01*
X000150Y009200D01*
X000150Y008700D01*
X000400Y008450D01*
X000150Y008200D01*
X000150Y007700D01*
X000400Y007450D01*
X000150Y007200D01*
X000150Y006700D01*
X000400Y006450D01*
X000150Y006200D01*
X000150Y005700D01*
X000400Y005450D01*
X000150Y005200D01*
X000150Y004700D01*
X000400Y004450D01*
X000150Y004200D01*
X000150Y003700D01*
X000400Y003450D01*
X000150Y003200D01*
X000150Y002700D01*
X000400Y002450D01*
X000150Y002200D01*
X000150Y001700D01*
X000400Y001450D01*
X000150Y001200D01*
X000150Y000700D01*
X000400Y000450D01*
X000900Y000450D01*
X001150Y000700D01*
X001150Y001200D01*
X000900Y001450D01*
X001150Y001700D01*
X001150Y002200D01*
X000900Y002450D01*
X001150Y002700D01*
X001150Y003200D01*
X000900Y003450D01*
X001150Y003700D01*
X001150Y004200D01*
X000900Y004450D01*
X001150Y004700D01*
X001150Y005200D01*
X000900Y005450D01*
X001150Y005700D01*
X001150Y006200D01*
X000900Y006450D01*
X001150Y006700D01*
X001150Y007200D01*
X000900Y007450D01*
X001150Y007700D01*
X001150Y008200D01*
X000900Y008450D01*
X001150Y008700D01*
X001150Y009200D01*
X000900Y009450D01*
X001150Y009700D01*
X002372Y009494D02*
X002372Y010124D01*
X002372Y008706D02*
X002372Y007919D01*
X001428Y007919D01*
X001428Y008706D01*
X002485Y007594D02*
X003115Y007594D01*
X003115Y007593D02*
X003131Y007588D01*
X003147Y007580D01*
X003161Y007570D01*
X003173Y007558D01*
X003183Y007543D01*
X003190Y007527D01*
X003194Y007510D01*
X003195Y007493D01*
X003193Y007475D01*
X002485Y007593D02*
X002469Y007588D01*
X002453Y007580D01*
X002439Y007570D01*
X002427Y007558D01*
X002417Y007543D01*
X002410Y007527D01*
X002406Y007510D01*
X002405Y007493D01*
X002407Y007475D01*
X002407Y006925D02*
X002405Y006907D01*
X002406Y006890D01*
X002410Y006873D01*
X002417Y006857D01*
X002427Y006842D01*
X002439Y006830D01*
X002453Y006820D01*
X002469Y006812D01*
X002485Y006807D01*
X002485Y006806D02*
X003115Y006806D01*
X003115Y006794D02*
X002485Y006794D01*
X002485Y006793D02*
X002469Y006788D01*
X002453Y006780D01*
X002439Y006770D01*
X002427Y006758D01*
X002417Y006743D01*
X002410Y006727D01*
X002406Y006710D01*
X002405Y006693D01*
X002407Y006675D01*
X003115Y006793D02*
X003131Y006788D01*
X003147Y006780D01*
X003161Y006770D01*
X003173Y006758D01*
X003183Y006743D01*
X003190Y006727D01*
X003194Y006710D01*
X003195Y006693D01*
X003193Y006675D01*
X003115Y006807D02*
X003131Y006812D01*
X003147Y006820D01*
X003161Y006830D01*
X003173Y006842D01*
X003183Y006857D01*
X003190Y006873D01*
X003194Y006890D01*
X003195Y006907D01*
X003193Y006925D01*
X003193Y006125D02*
X003195Y006107D01*
X003194Y006090D01*
X003190Y006073D01*
X003183Y006057D01*
X003173Y006042D01*
X003161Y006030D01*
X003147Y006020D01*
X003131Y006012D01*
X003115Y006007D01*
X003115Y006006D02*
X002485Y006006D01*
X002485Y006007D02*
X002469Y006012D01*
X002453Y006020D01*
X002439Y006030D01*
X002427Y006042D01*
X002417Y006057D01*
X002410Y006073D01*
X002406Y006090D01*
X002405Y006107D01*
X002407Y006125D01*
X001923Y004363D02*
X002369Y003917D01*
X002368Y003917D02*
X002377Y003902D01*
X002382Y003886D01*
X002385Y003868D01*
X002384Y003851D01*
X002381Y003834D01*
X002375Y003818D01*
X002366Y003803D01*
X002354Y003790D01*
X002340Y003779D01*
X001951Y003389D02*
X001940Y003375D01*
X001927Y003363D01*
X001912Y003354D01*
X001896Y003348D01*
X001879Y003345D01*
X001862Y003344D01*
X001844Y003347D01*
X001828Y003352D01*
X001813Y003361D01*
X001812Y003361D02*
X001367Y003806D01*
X001367Y003807D02*
X001358Y003822D01*
X001353Y003838D01*
X001350Y003856D01*
X001351Y003873D01*
X001354Y003890D01*
X001360Y003906D01*
X001369Y003921D01*
X001381Y003934D01*
X001395Y003945D01*
X001785Y004334D02*
X001796Y004348D01*
X001809Y004360D01*
X001824Y004369D01*
X001840Y004375D01*
X001857Y004378D01*
X001874Y004379D01*
X001892Y004376D01*
X001908Y004371D01*
X001923Y004362D01*
X002914Y001930D02*
X003386Y001930D01*
X004134Y001418D02*
X004134Y001182D01*
X003386Y000670D02*
X002914Y000670D01*
X002166Y001182D02*
X002166Y001418D01*
X005181Y001810D02*
X005519Y001810D01*
X005669Y001356D02*
X005669Y001144D01*
X005519Y000690D02*
X005181Y000690D01*
X010686Y000699D02*
X011001Y000699D01*
X011001Y000935D01*
X011001Y001565D02*
X011001Y001801D01*
X010686Y001801D01*
X014432Y000910D02*
X014432Y003490D01*
X016871Y003490D01*
X016871Y004160D02*
X014432Y004160D01*
X014432Y006740D01*
X016871Y006740D01*
X016871Y007410D02*
X014432Y007410D01*
X014432Y009990D01*
X016871Y009990D01*
X011001Y008301D02*
X011001Y008065D01*
X011001Y008301D02*
X010686Y008301D01*
X011001Y007435D02*
X011001Y007199D01*
X010686Y007199D01*
X010686Y005051D02*
X011001Y005051D01*
X011001Y004815D01*
X011001Y004185D02*
X011001Y003949D01*
X010686Y003949D01*
X014432Y000910D02*
X016871Y000910D01*
D13*
X014242Y002200D03*
X014242Y005450D03*
X014242Y008700D03*
D14*
X012525Y008425D03*
X012525Y009175D03*
X012525Y009925D03*
X008200Y007300D03*
X010975Y006750D03*
X012525Y006675D03*
X012525Y005925D03*
X012525Y005175D03*
X010975Y003500D03*
X012525Y003425D03*
X012525Y002675D03*
X012525Y001925D03*
X009450Y004725D03*
D15*
X010050Y005700D03*
X011550Y005700D03*
X009775Y007425D03*
X010050Y008950D03*
X011550Y008950D03*
X001550Y005260D03*
X009450Y001250D03*
X010050Y002450D03*
X011550Y002450D03*
D16*
X005925Y004043D02*
X005807Y003925D01*
X004193Y003925D02*
X004075Y004043D01*
X003956Y003865D02*
X003958Y003880D01*
X003963Y003893D01*
X003972Y003905D01*
X003983Y003915D01*
X003997Y003921D01*
X004011Y003924D01*
X004026Y003923D01*
X004040Y003918D01*
X004053Y003910D01*
X004063Y003900D01*
X004070Y003887D01*
X004074Y003872D01*
X004074Y003858D01*
X004070Y003843D01*
X004063Y003830D01*
X004053Y003820D01*
X004040Y003812D01*
X004026Y003807D01*
X004011Y003806D01*
X003997Y003809D01*
X003983Y003815D01*
X003972Y003825D01*
X003963Y003837D01*
X003958Y003850D01*
X003956Y003865D01*
X004075Y005657D02*
X004193Y005775D01*
X005807Y005775D02*
X005925Y005657D01*
D17*
X002300Y009250D02*
X001500Y009250D01*
X001762Y000796D02*
X001764Y000802D01*
X001768Y000806D01*
X001775Y000807D01*
X001780Y000804D01*
X001784Y000799D01*
X001784Y000793D01*
X001780Y000788D01*
X001775Y000785D01*
X001768Y000786D01*
X001764Y000790D01*
X001762Y000796D01*
X001716Y000796D02*
X001718Y000811D01*
X001724Y000824D01*
X001733Y000836D01*
X001744Y000845D01*
X001758Y000851D01*
X001773Y000853D01*
X001788Y000851D01*
X001801Y000845D01*
X001813Y000836D01*
X001822Y000825D01*
X001828Y000811D01*
X001830Y000796D01*
X001828Y000781D01*
X001822Y000768D01*
X001813Y000756D01*
X001802Y000747D01*
X001788Y000741D01*
X001773Y000739D01*
X001758Y000741D01*
X001745Y000747D01*
X001733Y000756D01*
X001724Y000767D01*
X001718Y000781D01*
X001716Y000796D01*
X001669Y000796D02*
X001671Y000816D01*
X001676Y000835D01*
X001686Y000852D01*
X001698Y000868D01*
X001713Y000881D01*
X001730Y000891D01*
X001748Y000897D01*
X001768Y000900D01*
X001788Y000899D01*
X001807Y000894D01*
X001825Y000886D01*
X001841Y000875D01*
X001855Y000860D01*
X001865Y000844D01*
X001873Y000825D01*
X001877Y000806D01*
X001877Y000786D01*
X001873Y000767D01*
X001865Y000748D01*
X001855Y000732D01*
X001841Y000717D01*
X001825Y000706D01*
X001807Y000698D01*
X001788Y000693D01*
X001768Y000692D01*
X001748Y000695D01*
X001730Y000701D01*
X001713Y000711D01*
X001698Y000724D01*
X001686Y000740D01*
X001676Y000757D01*
X001671Y000776D01*
X001669Y000796D01*
D18*
X003050Y002338D02*
X003050Y002362D01*
X004890Y002750D02*
X004914Y002750D01*
X005638Y002750D02*
X005662Y002750D01*
X002312Y005260D02*
X002288Y005260D01*
X005283Y006600D02*
X005307Y006600D01*
X010788Y005700D02*
X010812Y005700D01*
X010812Y008950D02*
X010788Y008950D01*
X010812Y002450D02*
X010788Y002450D01*
M02*
