G75*
G70*
%OFA0B0*%
%FSLAX24Y24*%
%IPPOS*%
%LPD*%
%AMOC8*
5,1,8,0,0,1.08239X$1,22.5*
%
%ADD10C,0.0000*%
%ADD11C,0.0001*%
%ADD12R,0.1181X0.0630*%
%ADD13R,0.2250X0.1900*%
%ADD14R,0.0354X0.0315*%
%ADD15R,0.0433X0.0394*%
%ADD16R,0.0394X0.0433*%
%ADD17C,0.0059*%
%ADD18R,0.0500X0.0500*%
%ADD19R,0.0295X0.0374*%
%ADD20R,0.0880X0.0480*%
%ADD21R,0.0866X0.1417*%
%ADD22R,0.0630X0.0748*%
%ADD23R,0.0472X0.0217*%
D10*
X000140Y000600D02*
X000140Y010600D01*
X019140Y010600D01*
X019140Y000600D01*
X000140Y000600D01*
X011440Y000750D02*
X014115Y000750D01*
X014115Y001775D01*
X012840Y001775D01*
X012640Y001575D01*
X011540Y001575D01*
X011440Y001475D01*
X011440Y000750D01*
X017674Y002350D02*
X017676Y002398D01*
X017682Y002446D01*
X017692Y002493D01*
X017705Y002539D01*
X017723Y002584D01*
X017743Y002628D01*
X017768Y002670D01*
X017796Y002709D01*
X017826Y002746D01*
X017860Y002780D01*
X017897Y002812D01*
X017935Y002841D01*
X017976Y002866D01*
X018019Y002888D01*
X018064Y002906D01*
X018110Y002920D01*
X018157Y002931D01*
X018205Y002938D01*
X018253Y002941D01*
X018301Y002940D01*
X018349Y002935D01*
X018397Y002926D01*
X018443Y002914D01*
X018488Y002897D01*
X018532Y002877D01*
X018574Y002854D01*
X018614Y002827D01*
X018652Y002797D01*
X018687Y002764D01*
X018719Y002728D01*
X018749Y002690D01*
X018775Y002649D01*
X018797Y002606D01*
X018817Y002562D01*
X018832Y002517D01*
X018844Y002470D01*
X018852Y002422D01*
X018856Y002374D01*
X018856Y002326D01*
X018852Y002278D01*
X018844Y002230D01*
X018832Y002183D01*
X018817Y002138D01*
X018797Y002094D01*
X018775Y002051D01*
X018749Y002010D01*
X018719Y001972D01*
X018687Y001936D01*
X018652Y001903D01*
X018614Y001873D01*
X018574Y001846D01*
X018532Y001823D01*
X018488Y001803D01*
X018443Y001786D01*
X018397Y001774D01*
X018349Y001765D01*
X018301Y001760D01*
X018253Y001759D01*
X018205Y001762D01*
X018157Y001769D01*
X018110Y001780D01*
X018064Y001794D01*
X018019Y001812D01*
X017976Y001834D01*
X017935Y001859D01*
X017897Y001888D01*
X017860Y001920D01*
X017826Y001954D01*
X017796Y001991D01*
X017768Y002030D01*
X017743Y002072D01*
X017723Y002116D01*
X017705Y002161D01*
X017692Y002207D01*
X017682Y002254D01*
X017676Y002302D01*
X017674Y002350D01*
X017674Y005600D02*
X017676Y005648D01*
X017682Y005696D01*
X017692Y005743D01*
X017705Y005789D01*
X017723Y005834D01*
X017743Y005878D01*
X017768Y005920D01*
X017796Y005959D01*
X017826Y005996D01*
X017860Y006030D01*
X017897Y006062D01*
X017935Y006091D01*
X017976Y006116D01*
X018019Y006138D01*
X018064Y006156D01*
X018110Y006170D01*
X018157Y006181D01*
X018205Y006188D01*
X018253Y006191D01*
X018301Y006190D01*
X018349Y006185D01*
X018397Y006176D01*
X018443Y006164D01*
X018488Y006147D01*
X018532Y006127D01*
X018574Y006104D01*
X018614Y006077D01*
X018652Y006047D01*
X018687Y006014D01*
X018719Y005978D01*
X018749Y005940D01*
X018775Y005899D01*
X018797Y005856D01*
X018817Y005812D01*
X018832Y005767D01*
X018844Y005720D01*
X018852Y005672D01*
X018856Y005624D01*
X018856Y005576D01*
X018852Y005528D01*
X018844Y005480D01*
X018832Y005433D01*
X018817Y005388D01*
X018797Y005344D01*
X018775Y005301D01*
X018749Y005260D01*
X018719Y005222D01*
X018687Y005186D01*
X018652Y005153D01*
X018614Y005123D01*
X018574Y005096D01*
X018532Y005073D01*
X018488Y005053D01*
X018443Y005036D01*
X018397Y005024D01*
X018349Y005015D01*
X018301Y005010D01*
X018253Y005009D01*
X018205Y005012D01*
X018157Y005019D01*
X018110Y005030D01*
X018064Y005044D01*
X018019Y005062D01*
X017976Y005084D01*
X017935Y005109D01*
X017897Y005138D01*
X017860Y005170D01*
X017826Y005204D01*
X017796Y005241D01*
X017768Y005280D01*
X017743Y005322D01*
X017723Y005366D01*
X017705Y005411D01*
X017692Y005457D01*
X017682Y005504D01*
X017676Y005552D01*
X017674Y005600D01*
X014115Y006925D02*
X013240Y006925D01*
X013140Y007125D01*
X011640Y007125D01*
X011565Y007200D01*
X011440Y007200D01*
X011440Y007975D01*
X011540Y008075D01*
X012565Y008075D01*
X012765Y008275D01*
X014115Y008275D01*
X014115Y006925D01*
X014115Y008275D01*
X012790Y008275D01*
X012590Y008075D01*
X011540Y008075D01*
X011440Y007975D01*
X011440Y007200D01*
X011565Y007200D01*
X011640Y007125D01*
X013140Y007125D01*
X013240Y006925D01*
X014115Y006925D01*
X017674Y008850D02*
X017676Y008898D01*
X017682Y008946D01*
X017692Y008993D01*
X017705Y009039D01*
X017723Y009084D01*
X017743Y009128D01*
X017768Y009170D01*
X017796Y009209D01*
X017826Y009246D01*
X017860Y009280D01*
X017897Y009312D01*
X017935Y009341D01*
X017976Y009366D01*
X018019Y009388D01*
X018064Y009406D01*
X018110Y009420D01*
X018157Y009431D01*
X018205Y009438D01*
X018253Y009441D01*
X018301Y009440D01*
X018349Y009435D01*
X018397Y009426D01*
X018443Y009414D01*
X018488Y009397D01*
X018532Y009377D01*
X018574Y009354D01*
X018614Y009327D01*
X018652Y009297D01*
X018687Y009264D01*
X018719Y009228D01*
X018749Y009190D01*
X018775Y009149D01*
X018797Y009106D01*
X018817Y009062D01*
X018832Y009017D01*
X018844Y008970D01*
X018852Y008922D01*
X018856Y008874D01*
X018856Y008826D01*
X018852Y008778D01*
X018844Y008730D01*
X018832Y008683D01*
X018817Y008638D01*
X018797Y008594D01*
X018775Y008551D01*
X018749Y008510D01*
X018719Y008472D01*
X018687Y008436D01*
X018652Y008403D01*
X018614Y008373D01*
X018574Y008346D01*
X018532Y008323D01*
X018488Y008303D01*
X018443Y008286D01*
X018397Y008274D01*
X018349Y008265D01*
X018301Y008260D01*
X018253Y008259D01*
X018205Y008262D01*
X018157Y008269D01*
X018110Y008280D01*
X018064Y008294D01*
X018019Y008312D01*
X017976Y008334D01*
X017935Y008359D01*
X017897Y008388D01*
X017860Y008420D01*
X017826Y008454D01*
X017796Y008491D01*
X017768Y008530D01*
X017743Y008572D01*
X017723Y008616D01*
X017705Y008661D01*
X017692Y008707D01*
X017682Y008754D01*
X017676Y008802D01*
X017674Y008850D01*
D11*
X014115Y008274D02*
X012764Y008274D01*
X012763Y008273D02*
X014115Y008273D01*
X012788Y008273D01*
X012787Y008272D02*
X014115Y008272D01*
X012762Y008272D01*
X012761Y008271D02*
X014115Y008271D01*
X012786Y008271D01*
X012785Y008270D02*
X014115Y008270D01*
X012760Y008270D01*
X012759Y008269D02*
X014115Y008269D01*
X012784Y008269D01*
X012783Y008268D02*
X014115Y008268D01*
X012758Y008268D01*
X012757Y008267D02*
X014115Y008267D01*
X012782Y008267D01*
X012781Y008266D02*
X014115Y008266D01*
X012756Y008266D01*
X012755Y008265D02*
X014115Y008265D01*
X012780Y008265D01*
X012779Y008264D02*
X014115Y008264D01*
X012754Y008264D01*
X012753Y008263D02*
X014115Y008263D01*
X012778Y008263D01*
X012777Y008262D02*
X014115Y008262D01*
X012752Y008262D01*
X012751Y008261D02*
X014115Y008261D01*
X012776Y008261D01*
X012775Y008260D02*
X014115Y008260D01*
X012750Y008260D01*
X012749Y008259D02*
X014115Y008259D01*
X012774Y008259D01*
X012773Y008258D02*
X014115Y008258D01*
X012748Y008258D01*
X012747Y008257D02*
X014115Y008257D01*
X012772Y008257D01*
X012771Y008256D02*
X014115Y008256D01*
X012746Y008256D01*
X012745Y008255D02*
X014115Y008255D01*
X012770Y008255D01*
X012769Y008254D02*
X014115Y008254D01*
X012744Y008254D01*
X012743Y008253D02*
X014115Y008253D01*
X012768Y008253D01*
X012767Y008252D02*
X014115Y008252D01*
X012742Y008252D01*
X012741Y008251D02*
X014115Y008251D01*
X012766Y008251D01*
X012765Y008250D02*
X014115Y008250D01*
X012740Y008250D01*
X012739Y008249D02*
X014115Y008249D01*
X012764Y008249D01*
X012763Y008248D02*
X014115Y008248D01*
X012738Y008248D01*
X012737Y008247D02*
X014115Y008247D01*
X012762Y008247D01*
X012761Y008246D02*
X014115Y008246D01*
X012736Y008246D01*
X012735Y008245D02*
X014115Y008245D01*
X012760Y008245D01*
X012759Y008244D02*
X014115Y008244D01*
X012734Y008244D01*
X012733Y008243D02*
X014115Y008243D01*
X012758Y008243D01*
X012757Y008242D02*
X014115Y008242D01*
X012732Y008242D01*
X012731Y008241D02*
X014115Y008241D01*
X012756Y008241D01*
X012755Y008240D02*
X014115Y008240D01*
X012730Y008240D01*
X012729Y008239D02*
X014115Y008239D01*
X012754Y008239D01*
X012753Y008238D02*
X014115Y008238D01*
X012728Y008238D01*
X012727Y008237D02*
X014115Y008237D01*
X012752Y008237D01*
X012751Y008236D02*
X014115Y008236D01*
X012726Y008236D01*
X012725Y008235D02*
X014115Y008235D01*
X012750Y008235D01*
X012749Y008234D02*
X014115Y008234D01*
X012724Y008234D01*
X012723Y008233D02*
X014115Y008233D01*
X012748Y008233D01*
X012747Y008232D02*
X014115Y008232D01*
X012722Y008232D01*
X012721Y008231D02*
X014115Y008231D01*
X012746Y008231D01*
X012745Y008230D02*
X014115Y008230D01*
X012720Y008230D01*
X012719Y008229D02*
X014115Y008229D01*
X012744Y008229D01*
X012743Y008228D02*
X014115Y008228D01*
X012718Y008228D01*
X012717Y008227D02*
X014115Y008227D01*
X012742Y008227D01*
X012741Y008226D02*
X014115Y008226D01*
X012716Y008226D01*
X012715Y008225D02*
X014115Y008225D01*
X012740Y008225D01*
X012739Y008224D02*
X014115Y008224D01*
X012714Y008224D01*
X012713Y008223D02*
X014115Y008223D01*
X012738Y008223D01*
X012737Y008222D02*
X014115Y008222D01*
X012712Y008222D01*
X012711Y008221D02*
X014115Y008221D01*
X012736Y008221D01*
X012735Y008220D02*
X014115Y008220D01*
X012710Y008220D01*
X012709Y008219D02*
X014115Y008219D01*
X012734Y008219D01*
X012733Y008218D02*
X014115Y008218D01*
X012708Y008218D01*
X012707Y008217D02*
X014115Y008217D01*
X012732Y008217D01*
X012731Y008216D02*
X014115Y008216D01*
X012706Y008216D01*
X012705Y008215D02*
X014115Y008215D01*
X012730Y008215D01*
X012729Y008214D02*
X014115Y008214D01*
X012704Y008214D01*
X012703Y008213D02*
X014115Y008213D01*
X012703Y008213D01*
X012702Y008212D02*
X014115Y008212D01*
X014115Y008213D02*
X012728Y008213D01*
X014115Y008213D01*
X014115Y008212D02*
X012727Y008212D01*
X012726Y008211D02*
X014115Y008211D01*
X012701Y008211D01*
X012700Y008210D02*
X014115Y008210D01*
X012725Y008210D01*
X012724Y008209D02*
X014115Y008209D01*
X012699Y008209D01*
X012698Y008208D02*
X014115Y008208D01*
X012723Y008208D01*
X012722Y008207D02*
X014115Y008207D01*
X012697Y008207D01*
X012696Y008206D02*
X014115Y008206D01*
X012721Y008206D01*
X012720Y008205D02*
X014115Y008205D01*
X012695Y008205D01*
X012694Y008204D02*
X014115Y008204D01*
X012719Y008204D01*
X012718Y008203D02*
X014115Y008203D01*
X012693Y008203D01*
X012692Y008202D02*
X014115Y008202D01*
X012717Y008202D01*
X012716Y008201D02*
X014115Y008201D01*
X012691Y008201D01*
X012690Y008200D02*
X014115Y008200D01*
X012715Y008200D01*
X012714Y008199D02*
X014115Y008199D01*
X012689Y008199D01*
X012688Y008198D02*
X014115Y008198D01*
X012713Y008198D01*
X012712Y008197D02*
X014115Y008197D01*
X012687Y008197D01*
X012686Y008196D02*
X014115Y008196D01*
X012711Y008196D01*
X012710Y008195D02*
X014115Y008195D01*
X012685Y008195D01*
X012684Y008194D02*
X014115Y008194D01*
X012709Y008194D01*
X012708Y008193D02*
X014115Y008193D01*
X012683Y008193D01*
X012682Y008192D02*
X014115Y008192D01*
X012707Y008192D01*
X012706Y008191D02*
X014115Y008191D01*
X012681Y008191D01*
X012680Y008190D02*
X014115Y008190D01*
X012705Y008190D01*
X012704Y008189D02*
X014115Y008189D01*
X012679Y008189D01*
X012678Y008188D02*
X014115Y008188D01*
X012703Y008188D01*
X012702Y008187D02*
X014115Y008187D01*
X012677Y008187D01*
X012676Y008186D02*
X014115Y008186D01*
X012701Y008186D01*
X012700Y008185D02*
X014115Y008185D01*
X012675Y008185D01*
X012674Y008184D02*
X014115Y008184D01*
X012699Y008184D01*
X012698Y008183D02*
X014115Y008183D01*
X012673Y008183D01*
X012672Y008182D02*
X014115Y008182D01*
X012697Y008182D01*
X012696Y008181D02*
X014115Y008181D01*
X012671Y008181D01*
X012670Y008180D02*
X014115Y008180D01*
X012695Y008180D01*
X012694Y008179D02*
X014115Y008179D01*
X012669Y008179D01*
X012668Y008178D02*
X014115Y008178D01*
X012693Y008178D01*
X012692Y008177D02*
X014115Y008177D01*
X012667Y008177D01*
X012666Y008176D02*
X014115Y008176D01*
X012691Y008176D01*
X012690Y008175D02*
X014115Y008175D01*
X012665Y008175D01*
X012664Y008174D02*
X014115Y008174D01*
X012689Y008174D01*
X012688Y008173D02*
X014115Y008173D01*
X012663Y008173D01*
X012662Y008172D02*
X014115Y008172D01*
X012687Y008172D01*
X012686Y008171D02*
X014115Y008171D01*
X012661Y008171D01*
X012660Y008170D02*
X014115Y008170D01*
X012685Y008170D01*
X012684Y008169D02*
X014115Y008169D01*
X012659Y008169D01*
X012658Y008168D02*
X014115Y008168D01*
X012683Y008168D01*
X012682Y008167D02*
X014115Y008167D01*
X012657Y008167D01*
X012656Y008166D02*
X014115Y008166D01*
X012681Y008166D01*
X012680Y008165D02*
X014115Y008165D01*
X012655Y008165D01*
X012654Y008164D02*
X014115Y008164D01*
X012679Y008164D01*
X012678Y008163D02*
X014115Y008163D01*
X012653Y008163D01*
X012652Y008162D02*
X014115Y008162D01*
X012677Y008162D01*
X012676Y008161D02*
X014115Y008161D01*
X012651Y008161D01*
X012650Y008160D02*
X014115Y008160D01*
X012675Y008160D01*
X012674Y008159D02*
X014115Y008159D01*
X012649Y008159D01*
X012648Y008158D02*
X014115Y008158D01*
X012673Y008158D01*
X012672Y008157D02*
X014115Y008157D01*
X012647Y008157D01*
X012646Y008156D02*
X014115Y008156D01*
X012671Y008156D01*
X012670Y008155D02*
X014115Y008155D01*
X012645Y008155D01*
X012644Y008154D02*
X014115Y008154D01*
X012669Y008154D01*
X012668Y008153D02*
X014115Y008153D01*
X012643Y008153D01*
X012642Y008152D02*
X014115Y008152D01*
X012667Y008152D01*
X012666Y008151D02*
X014115Y008151D01*
X012641Y008151D01*
X012640Y008150D02*
X014115Y008150D01*
X012665Y008150D01*
X012664Y008149D02*
X014115Y008149D01*
X012639Y008149D01*
X012638Y008148D02*
X014115Y008148D01*
X012663Y008148D01*
X012662Y008147D02*
X014115Y008147D01*
X012637Y008147D01*
X012636Y008146D02*
X014115Y008146D01*
X012661Y008146D01*
X012660Y008145D02*
X014115Y008145D01*
X012635Y008145D01*
X012634Y008144D02*
X014115Y008144D01*
X012659Y008144D01*
X012658Y008143D02*
X014115Y008143D01*
X012633Y008143D01*
X012632Y008142D02*
X014115Y008142D01*
X012657Y008142D01*
X012656Y008141D02*
X014115Y008141D01*
X012631Y008141D01*
X012630Y008140D02*
X014115Y008140D01*
X012655Y008140D01*
X012654Y008139D02*
X014115Y008139D01*
X012629Y008139D01*
X012628Y008138D02*
X014115Y008138D01*
X012653Y008138D01*
X012652Y008137D02*
X014115Y008137D01*
X012627Y008137D01*
X012626Y008136D02*
X014115Y008136D01*
X012651Y008136D01*
X012650Y008135D02*
X014115Y008135D01*
X012625Y008135D01*
X012624Y008134D02*
X014115Y008134D01*
X012649Y008134D01*
X012648Y008133D02*
X014115Y008133D01*
X012623Y008133D01*
X012622Y008132D02*
X014115Y008132D01*
X012647Y008132D01*
X012646Y008131D02*
X014115Y008131D01*
X012621Y008131D01*
X012620Y008130D02*
X014115Y008130D01*
X012645Y008130D01*
X012644Y008129D02*
X014115Y008129D01*
X012619Y008129D01*
X012618Y008128D02*
X014115Y008128D01*
X012643Y008128D01*
X012642Y008127D02*
X014115Y008127D01*
X012617Y008127D01*
X012616Y008126D02*
X014115Y008126D01*
X012641Y008126D01*
X012640Y008125D02*
X014115Y008125D01*
X012615Y008125D01*
X012614Y008124D02*
X014115Y008124D01*
X012639Y008124D01*
X012638Y008123D02*
X014115Y008123D01*
X012613Y008123D01*
X012612Y008122D02*
X014115Y008122D01*
X012637Y008122D01*
X012636Y008121D02*
X014115Y008121D01*
X012611Y008121D01*
X012610Y008120D02*
X014115Y008120D01*
X012635Y008120D01*
X012634Y008119D02*
X014115Y008119D01*
X012609Y008119D01*
X012608Y008118D02*
X014115Y008118D01*
X012633Y008118D01*
X012632Y008117D02*
X014115Y008117D01*
X012607Y008117D01*
X012606Y008116D02*
X014115Y008116D01*
X012631Y008116D01*
X012630Y008115D02*
X014115Y008115D01*
X012605Y008115D01*
X012604Y008114D02*
X014115Y008114D01*
X012629Y008114D01*
X012628Y008113D02*
X014115Y008113D01*
X012603Y008113D01*
X012602Y008112D02*
X014115Y008112D01*
X012627Y008112D01*
X012626Y008111D02*
X014115Y008111D01*
X012601Y008111D01*
X012600Y008110D02*
X014115Y008110D01*
X012625Y008110D01*
X012624Y008109D02*
X014115Y008109D01*
X012599Y008109D01*
X012598Y008108D02*
X014115Y008108D01*
X012623Y008108D01*
X012622Y008107D02*
X014115Y008107D01*
X012597Y008107D01*
X012596Y008106D02*
X014115Y008106D01*
X012621Y008106D01*
X012620Y008105D02*
X014115Y008105D01*
X012595Y008105D01*
X012594Y008104D02*
X014115Y008104D01*
X012619Y008104D01*
X012618Y008103D02*
X014115Y008103D01*
X012593Y008103D01*
X012592Y008102D02*
X014115Y008102D01*
X012617Y008102D01*
X012616Y008101D02*
X014115Y008101D01*
X012591Y008101D01*
X012590Y008100D02*
X014115Y008100D01*
X012615Y008100D01*
X012614Y008099D02*
X014115Y008099D01*
X012589Y008099D01*
X012588Y008098D02*
X014115Y008098D01*
X012613Y008098D01*
X012612Y008097D02*
X014115Y008097D01*
X012587Y008097D01*
X012586Y008096D02*
X014115Y008096D01*
X012611Y008096D01*
X012610Y008095D02*
X014115Y008095D01*
X012585Y008095D01*
X012584Y008094D02*
X014115Y008094D01*
X012609Y008094D01*
X012608Y008093D02*
X014115Y008093D01*
X012583Y008093D01*
X012582Y008092D02*
X014115Y008092D01*
X012607Y008092D01*
X012606Y008091D02*
X014115Y008091D01*
X012581Y008091D01*
X012580Y008090D02*
X014115Y008090D01*
X012605Y008090D01*
X012604Y008089D02*
X014115Y008089D01*
X012579Y008089D01*
X012578Y008088D02*
X014115Y008088D01*
X012603Y008088D01*
X012602Y008087D02*
X014115Y008087D01*
X012577Y008087D01*
X012576Y008086D02*
X014115Y008086D01*
X012601Y008086D01*
X012600Y008085D02*
X014115Y008085D01*
X012575Y008085D01*
X012574Y008084D02*
X014115Y008084D01*
X012599Y008084D01*
X012598Y008083D02*
X014115Y008083D01*
X012573Y008083D01*
X012572Y008082D02*
X014115Y008082D01*
X012597Y008082D01*
X012596Y008081D02*
X014115Y008081D01*
X012571Y008081D01*
X012570Y008080D02*
X014115Y008080D01*
X012595Y008080D01*
X012594Y008079D02*
X014115Y008079D01*
X012569Y008079D01*
X012568Y008078D02*
X014115Y008078D01*
X012593Y008078D01*
X012592Y008077D02*
X014115Y008077D01*
X012567Y008077D01*
X012566Y008076D02*
X014115Y008076D01*
X012591Y008076D01*
X012789Y008274D02*
X014115Y008274D01*
X014115Y008075D02*
X011540Y008075D01*
X014115Y008075D01*
X014115Y008074D02*
X011539Y008074D01*
X014115Y008074D01*
X014115Y008073D02*
X011538Y008073D01*
X014115Y008073D01*
X014115Y008072D02*
X011537Y008072D01*
X014115Y008072D01*
X014115Y008071D02*
X011536Y008071D01*
X014115Y008071D01*
X014115Y008070D02*
X011535Y008070D01*
X014115Y008070D01*
X014115Y008069D02*
X011534Y008069D01*
X014115Y008069D01*
X014115Y008068D02*
X011533Y008068D01*
X014115Y008068D01*
X014115Y008067D02*
X011532Y008067D01*
X014115Y008067D01*
X014115Y008066D02*
X011531Y008066D01*
X014115Y008066D01*
X014115Y008065D02*
X011530Y008065D01*
X014115Y008065D01*
X014115Y008064D02*
X011529Y008064D01*
X014115Y008064D01*
X014115Y008063D02*
X011528Y008063D01*
X014115Y008063D01*
X014115Y008062D02*
X011527Y008062D01*
X014115Y008062D01*
X014115Y008061D02*
X011526Y008061D01*
X014115Y008061D01*
X014115Y008060D02*
X011525Y008060D01*
X014115Y008060D01*
X014115Y008059D02*
X011524Y008059D01*
X014115Y008059D01*
X014115Y008058D02*
X011523Y008058D01*
X014115Y008058D01*
X014115Y008057D02*
X011522Y008057D01*
X014115Y008057D01*
X014115Y008056D02*
X011521Y008056D01*
X014115Y008056D01*
X014115Y008055D02*
X011520Y008055D01*
X014115Y008055D01*
X014115Y008054D02*
X011519Y008054D01*
X014115Y008054D01*
X014115Y008053D02*
X011518Y008053D01*
X014115Y008053D01*
X014115Y008052D02*
X011517Y008052D01*
X014115Y008052D01*
X014115Y008051D02*
X011516Y008051D01*
X014115Y008051D01*
X014115Y008050D02*
X011515Y008050D01*
X014115Y008050D01*
X014115Y008049D02*
X011514Y008049D01*
X014115Y008049D01*
X014115Y008048D02*
X011513Y008048D01*
X014115Y008048D01*
X014115Y008047D02*
X011512Y008047D01*
X014115Y008047D01*
X014115Y008046D02*
X011511Y008046D01*
X014115Y008046D01*
X014115Y008045D02*
X011510Y008045D01*
X014115Y008045D01*
X014115Y008044D02*
X011509Y008044D01*
X014115Y008044D01*
X014115Y008043D02*
X011508Y008043D01*
X014115Y008043D01*
X014115Y008042D02*
X011507Y008042D01*
X014115Y008042D01*
X014115Y008041D02*
X011506Y008041D01*
X014115Y008041D01*
X014115Y008040D02*
X011505Y008040D01*
X014115Y008040D01*
X014115Y008039D02*
X011504Y008039D01*
X014115Y008039D01*
X014115Y008038D02*
X011503Y008038D01*
X014115Y008038D01*
X014115Y008037D02*
X011502Y008037D01*
X014115Y008037D01*
X014115Y008036D02*
X011501Y008036D01*
X014115Y008036D01*
X014115Y008035D02*
X011500Y008035D01*
X014115Y008035D01*
X014115Y008034D02*
X011499Y008034D01*
X014115Y008034D01*
X014115Y008033D02*
X011498Y008033D01*
X014115Y008033D01*
X014115Y008032D02*
X011497Y008032D01*
X014115Y008032D01*
X014115Y008031D02*
X011496Y008031D01*
X014115Y008031D01*
X014115Y008030D02*
X011495Y008030D01*
X014115Y008030D01*
X014115Y008029D02*
X011494Y008029D01*
X014115Y008029D01*
X014115Y008028D02*
X011493Y008028D01*
X014115Y008028D01*
X014115Y008027D02*
X011492Y008027D01*
X014115Y008027D01*
X014115Y008026D02*
X011491Y008026D01*
X014115Y008026D01*
X014115Y008025D02*
X011490Y008025D01*
X014115Y008025D01*
X014115Y008024D02*
X011489Y008024D01*
X014115Y008024D01*
X014115Y008023D02*
X011488Y008023D01*
X014115Y008023D01*
X014115Y008022D02*
X011487Y008022D01*
X014115Y008022D01*
X014115Y008021D02*
X011486Y008021D01*
X014115Y008021D01*
X014115Y008020D02*
X011485Y008020D01*
X014115Y008020D01*
X014115Y008019D02*
X011484Y008019D01*
X014115Y008019D01*
X014115Y008018D02*
X011483Y008018D01*
X014115Y008018D01*
X014115Y008017D02*
X011482Y008017D01*
X014115Y008017D01*
X014115Y008016D02*
X011481Y008016D01*
X014115Y008016D01*
X014115Y008015D02*
X011480Y008015D01*
X014115Y008015D01*
X014115Y008014D02*
X011479Y008014D01*
X014115Y008014D01*
X014115Y008013D02*
X011478Y008013D01*
X014115Y008013D01*
X014115Y008012D02*
X011477Y008012D01*
X014115Y008012D01*
X014115Y008011D02*
X011476Y008011D01*
X014115Y008011D01*
X014115Y008010D02*
X011475Y008010D01*
X014115Y008010D01*
X014115Y008009D02*
X011474Y008009D01*
X014115Y008009D01*
X014115Y008008D02*
X011473Y008008D01*
X014115Y008008D01*
X014115Y008007D02*
X011472Y008007D01*
X014115Y008007D01*
X014115Y008006D02*
X011471Y008006D01*
X014115Y008006D01*
X014115Y008005D02*
X011470Y008005D01*
X014115Y008005D01*
X014115Y008004D02*
X011469Y008004D01*
X014115Y008004D01*
X014115Y008003D02*
X011468Y008003D01*
X014115Y008003D01*
X014115Y008002D02*
X011467Y008002D01*
X014115Y008002D01*
X014115Y008001D02*
X011466Y008001D01*
X014115Y008001D01*
X014115Y008000D02*
X011465Y008000D01*
X014115Y008000D01*
X014115Y007999D02*
X011464Y007999D01*
X014115Y007999D01*
X014115Y007998D02*
X011463Y007998D01*
X014115Y007998D01*
X014115Y007997D02*
X011462Y007997D01*
X014115Y007997D01*
X014115Y007996D02*
X011461Y007996D01*
X014115Y007996D01*
X014115Y007995D02*
X011460Y007995D01*
X014115Y007995D01*
X014115Y007994D02*
X011459Y007994D01*
X014115Y007994D01*
X014115Y007993D02*
X011458Y007993D01*
X014115Y007993D01*
X014115Y007992D02*
X011457Y007992D01*
X014115Y007992D01*
X014115Y007991D02*
X011456Y007991D01*
X014115Y007991D01*
X014115Y007990D02*
X011455Y007990D01*
X014115Y007990D01*
X014115Y007989D02*
X011454Y007989D01*
X014115Y007989D01*
X014115Y007988D02*
X011453Y007988D01*
X014115Y007988D01*
X014115Y007987D02*
X011452Y007987D01*
X014115Y007987D01*
X014115Y007986D02*
X011451Y007986D01*
X014115Y007986D01*
X014115Y007985D02*
X011450Y007985D01*
X014115Y007985D01*
X014115Y007984D02*
X011449Y007984D01*
X014115Y007984D01*
X014115Y007983D02*
X011448Y007983D01*
X014115Y007983D01*
X014115Y007982D02*
X011447Y007982D01*
X014115Y007982D01*
X014115Y007981D02*
X011446Y007981D01*
X014115Y007981D01*
X014115Y007980D02*
X011445Y007980D01*
X014115Y007980D01*
X014115Y007979D02*
X011444Y007979D01*
X014115Y007979D01*
X014115Y007978D02*
X011443Y007978D01*
X014115Y007978D01*
X014115Y007977D02*
X011442Y007977D01*
X014115Y007977D01*
X014115Y007976D02*
X011441Y007976D01*
X014115Y007976D01*
X014115Y007975D02*
X011440Y007975D01*
X014115Y007975D01*
X014115Y007974D02*
X011440Y007974D01*
X014115Y007974D01*
X014115Y007973D02*
X011440Y007973D01*
X014115Y007973D01*
X014115Y007972D02*
X011440Y007972D01*
X014115Y007972D01*
X014115Y007971D02*
X011440Y007971D01*
X014115Y007971D01*
X014115Y007970D02*
X011440Y007970D01*
X014115Y007970D01*
X014115Y007969D02*
X011440Y007969D01*
X014115Y007969D01*
X014115Y007968D02*
X011440Y007968D01*
X014115Y007968D01*
X014115Y007967D02*
X011440Y007967D01*
X014115Y007967D01*
X014115Y007966D02*
X011440Y007966D01*
X014115Y007966D01*
X014115Y007965D02*
X011440Y007965D01*
X014115Y007965D01*
X014115Y007964D02*
X011440Y007964D01*
X014115Y007964D01*
X014115Y007963D02*
X011440Y007963D01*
X014115Y007963D01*
X014115Y007962D02*
X011440Y007962D01*
X014115Y007962D01*
X014115Y007961D02*
X011440Y007961D01*
X014115Y007961D01*
X014115Y007960D02*
X011440Y007960D01*
X014115Y007960D01*
X014115Y007959D02*
X011440Y007959D01*
X014115Y007959D01*
X014115Y007958D02*
X011440Y007958D01*
X014115Y007958D01*
X014115Y007957D02*
X011440Y007957D01*
X014115Y007957D01*
X014115Y007956D02*
X011440Y007956D01*
X014115Y007956D01*
X014115Y007955D02*
X011440Y007955D01*
X014115Y007955D01*
X014115Y007954D02*
X011440Y007954D01*
X014115Y007954D01*
X014115Y007953D02*
X011440Y007953D01*
X014115Y007953D01*
X014115Y007952D02*
X011440Y007952D01*
X014115Y007952D01*
X014115Y007951D02*
X011440Y007951D01*
X014115Y007951D01*
X014115Y007950D02*
X011440Y007950D01*
X014115Y007950D01*
X014115Y007949D02*
X011440Y007949D01*
X014115Y007949D01*
X014115Y007948D02*
X011440Y007948D01*
X014115Y007948D01*
X014115Y007947D02*
X011440Y007947D01*
X014115Y007947D01*
X014115Y007946D02*
X011440Y007946D01*
X014115Y007946D01*
X014115Y007945D02*
X011440Y007945D01*
X014115Y007945D01*
X014115Y007944D02*
X011440Y007944D01*
X014115Y007944D01*
X014115Y007943D02*
X011440Y007943D01*
X014115Y007943D01*
X014115Y007942D02*
X011440Y007942D01*
X014115Y007942D01*
X014115Y007941D02*
X011440Y007941D01*
X014115Y007941D01*
X014115Y007940D02*
X011440Y007940D01*
X014115Y007940D01*
X014115Y007939D02*
X011440Y007939D01*
X014115Y007939D01*
X014115Y007938D02*
X011440Y007938D01*
X014115Y007938D01*
X014115Y007937D02*
X011440Y007937D01*
X014115Y007937D01*
X014115Y007936D02*
X011440Y007936D01*
X014115Y007936D01*
X014115Y007935D02*
X011440Y007935D01*
X014115Y007935D01*
X014115Y007934D02*
X011440Y007934D01*
X014115Y007934D01*
X014115Y007933D02*
X011440Y007933D01*
X014115Y007933D01*
X014115Y007932D02*
X011440Y007932D01*
X014115Y007932D01*
X014115Y007931D02*
X011440Y007931D01*
X014115Y007931D01*
X014115Y007930D02*
X011440Y007930D01*
X014115Y007930D01*
X014115Y007929D02*
X011440Y007929D01*
X014115Y007929D01*
X014115Y007928D02*
X011440Y007928D01*
X014115Y007928D01*
X014115Y007927D02*
X011440Y007927D01*
X014115Y007927D01*
X014115Y007926D02*
X011440Y007926D01*
X014115Y007926D01*
X014115Y007925D02*
X011440Y007925D01*
X014115Y007925D01*
X014115Y007924D02*
X011440Y007924D01*
X014115Y007924D01*
X014115Y007923D02*
X011440Y007923D01*
X014115Y007923D01*
X014115Y007922D02*
X011440Y007922D01*
X014115Y007922D01*
X014115Y007921D02*
X011440Y007921D01*
X014115Y007921D01*
X014115Y007920D02*
X011440Y007920D01*
X014115Y007920D01*
X014115Y007919D02*
X011440Y007919D01*
X014115Y007919D01*
X014115Y007918D02*
X011440Y007918D01*
X014115Y007918D01*
X014115Y007917D02*
X011440Y007917D01*
X014115Y007917D01*
X014115Y007916D02*
X011440Y007916D01*
X014115Y007916D01*
X014115Y007915D02*
X011440Y007915D01*
X014115Y007915D01*
X014115Y007914D02*
X011440Y007914D01*
X014115Y007914D01*
X014115Y007913D02*
X011440Y007913D01*
X014115Y007913D01*
X014115Y007912D02*
X011440Y007912D01*
X014115Y007912D01*
X014115Y007911D02*
X011440Y007911D01*
X014115Y007911D01*
X014115Y007910D02*
X011440Y007910D01*
X014115Y007910D01*
X014115Y007909D02*
X011440Y007909D01*
X014115Y007909D01*
X014115Y007908D02*
X011440Y007908D01*
X014115Y007908D01*
X014115Y007907D02*
X011440Y007907D01*
X014115Y007907D01*
X014115Y007906D02*
X011440Y007906D01*
X014115Y007906D01*
X014115Y007905D02*
X011440Y007905D01*
X014115Y007905D01*
X014115Y007904D02*
X011440Y007904D01*
X014115Y007904D01*
X014115Y007903D02*
X011440Y007903D01*
X014115Y007903D01*
X014115Y007902D02*
X011440Y007902D01*
X014115Y007902D01*
X014115Y007901D02*
X011440Y007901D01*
X014115Y007901D01*
X014115Y007900D02*
X011440Y007900D01*
X014115Y007900D01*
X014115Y007899D02*
X011440Y007899D01*
X014115Y007899D01*
X014115Y007898D02*
X011440Y007898D01*
X014115Y007898D01*
X014115Y007897D02*
X011440Y007897D01*
X014115Y007897D01*
X014115Y007896D02*
X011440Y007896D01*
X014115Y007896D01*
X014115Y007895D02*
X011440Y007895D01*
X014115Y007895D01*
X014115Y007894D02*
X011440Y007894D01*
X014115Y007894D01*
X014115Y007893D02*
X011440Y007893D01*
X014115Y007893D01*
X014115Y007892D02*
X011440Y007892D01*
X014115Y007892D01*
X014115Y007891D02*
X011440Y007891D01*
X014115Y007891D01*
X014115Y007890D02*
X011440Y007890D01*
X014115Y007890D01*
X014115Y007889D02*
X011440Y007889D01*
X014115Y007889D01*
X014115Y007888D02*
X011440Y007888D01*
X014115Y007888D01*
X014115Y007887D02*
X011440Y007887D01*
X014115Y007887D01*
X014115Y007886D02*
X011440Y007886D01*
X014115Y007886D01*
X014115Y007885D02*
X011440Y007885D01*
X014115Y007885D01*
X014115Y007884D02*
X011440Y007884D01*
X014115Y007884D01*
X014115Y007883D02*
X011440Y007883D01*
X014115Y007883D01*
X014115Y007882D02*
X011440Y007882D01*
X014115Y007882D01*
X014115Y007881D02*
X011440Y007881D01*
X014115Y007881D01*
X014115Y007880D02*
X011440Y007880D01*
X014115Y007880D01*
X014115Y007879D02*
X011440Y007879D01*
X014115Y007879D01*
X014115Y007878D02*
X011440Y007878D01*
X014115Y007878D01*
X014115Y007877D02*
X011440Y007877D01*
X014115Y007877D01*
X014115Y007876D02*
X011440Y007876D01*
X014115Y007876D01*
X014115Y007875D02*
X011440Y007875D01*
X014115Y007875D01*
X014115Y007874D02*
X011440Y007874D01*
X014115Y007874D01*
X014115Y007873D02*
X011440Y007873D01*
X014115Y007873D01*
X014115Y007872D02*
X011440Y007872D01*
X014115Y007872D01*
X014115Y007871D02*
X011440Y007871D01*
X014115Y007871D01*
X014115Y007870D02*
X011440Y007870D01*
X014115Y007870D01*
X014115Y007869D02*
X011440Y007869D01*
X014115Y007869D01*
X014115Y007868D02*
X011440Y007868D01*
X014115Y007868D01*
X014115Y007867D02*
X011440Y007867D01*
X014115Y007867D01*
X014115Y007866D02*
X011440Y007866D01*
X014115Y007866D01*
X014115Y007865D02*
X011440Y007865D01*
X014115Y007865D01*
X014115Y007864D02*
X011440Y007864D01*
X014115Y007864D01*
X014115Y007863D02*
X011440Y007863D01*
X014115Y007863D01*
X014115Y007862D02*
X011440Y007862D01*
X014115Y007862D01*
X014115Y007861D02*
X011440Y007861D01*
X014115Y007861D01*
X014115Y007860D02*
X011440Y007860D01*
X014115Y007860D01*
X014115Y007859D02*
X011440Y007859D01*
X014115Y007859D01*
X014115Y007858D02*
X011440Y007858D01*
X014115Y007858D01*
X014115Y007857D02*
X011440Y007857D01*
X014115Y007857D01*
X014115Y007856D02*
X011440Y007856D01*
X014115Y007856D01*
X014115Y007855D02*
X011440Y007855D01*
X014115Y007855D01*
X014115Y007854D02*
X011440Y007854D01*
X014115Y007854D01*
X014115Y007853D02*
X011440Y007853D01*
X014115Y007853D01*
X014115Y007852D02*
X011440Y007852D01*
X014115Y007852D01*
X014115Y007851D02*
X011440Y007851D01*
X014115Y007851D01*
X014115Y007850D02*
X011440Y007850D01*
X014115Y007850D01*
X014115Y007849D02*
X011440Y007849D01*
X014115Y007849D01*
X014115Y007848D02*
X011440Y007848D01*
X014115Y007848D01*
X014115Y007847D02*
X011440Y007847D01*
X014115Y007847D01*
X014115Y007846D02*
X011440Y007846D01*
X014115Y007846D01*
X014115Y007845D02*
X011440Y007845D01*
X014115Y007845D01*
X014115Y007844D02*
X011440Y007844D01*
X014115Y007844D01*
X014115Y007843D02*
X011440Y007843D01*
X014115Y007843D01*
X014115Y007842D02*
X011440Y007842D01*
X014115Y007842D01*
X014115Y007841D02*
X011440Y007841D01*
X014115Y007841D01*
X014115Y007840D02*
X011440Y007840D01*
X014115Y007840D01*
X014115Y007839D02*
X011440Y007839D01*
X014115Y007839D01*
X014115Y007838D02*
X011440Y007838D01*
X014115Y007838D01*
X014115Y007837D02*
X011440Y007837D01*
X014115Y007837D01*
X014115Y007836D02*
X011440Y007836D01*
X014115Y007836D01*
X014115Y007835D02*
X011440Y007835D01*
X014115Y007835D01*
X014115Y007834D02*
X011440Y007834D01*
X014115Y007834D01*
X014115Y007833D02*
X011440Y007833D01*
X014115Y007833D01*
X014115Y007832D02*
X011440Y007832D01*
X014115Y007832D01*
X014115Y007831D02*
X011440Y007831D01*
X014115Y007831D01*
X014115Y007830D02*
X011440Y007830D01*
X014115Y007830D01*
X014115Y007829D02*
X011440Y007829D01*
X014115Y007829D01*
X014115Y007828D02*
X011440Y007828D01*
X014115Y007828D01*
X014115Y007827D02*
X011440Y007827D01*
X014115Y007827D01*
X014115Y007826D02*
X011440Y007826D01*
X014115Y007826D01*
X014115Y007825D02*
X011440Y007825D01*
X014115Y007825D01*
X014115Y007824D02*
X011440Y007824D01*
X014115Y007824D01*
X014115Y007823D02*
X011440Y007823D01*
X014115Y007823D01*
X014115Y007822D02*
X011440Y007822D01*
X014115Y007822D01*
X014115Y007821D02*
X011440Y007821D01*
X014115Y007821D01*
X014115Y007820D02*
X011440Y007820D01*
X014115Y007820D01*
X014115Y007819D02*
X011440Y007819D01*
X014115Y007819D01*
X014115Y007818D02*
X011440Y007818D01*
X014115Y007818D01*
X014115Y007817D02*
X011440Y007817D01*
X014115Y007817D01*
X014115Y007816D02*
X011440Y007816D01*
X014115Y007816D01*
X014115Y007815D02*
X011440Y007815D01*
X014115Y007815D01*
X014115Y007814D02*
X011440Y007814D01*
X014115Y007814D01*
X014115Y007813D02*
X011440Y007813D01*
X014115Y007813D01*
X014115Y007812D02*
X011440Y007812D01*
X014115Y007812D01*
X014115Y007811D02*
X011440Y007811D01*
X014115Y007811D01*
X014115Y007810D02*
X011440Y007810D01*
X014115Y007810D01*
X014115Y007809D02*
X011440Y007809D01*
X014115Y007809D01*
X014115Y007808D02*
X011440Y007808D01*
X014115Y007808D01*
X014115Y007807D02*
X011440Y007807D01*
X014115Y007807D01*
X014115Y007806D02*
X011440Y007806D01*
X014115Y007806D01*
X014115Y007805D02*
X011440Y007805D01*
X014115Y007805D01*
X014115Y007804D02*
X011440Y007804D01*
X014115Y007804D01*
X014115Y007803D02*
X011440Y007803D01*
X014115Y007803D01*
X014115Y007802D02*
X011440Y007802D01*
X014115Y007802D01*
X014115Y007801D02*
X011440Y007801D01*
X014115Y007801D01*
X014115Y007800D02*
X011440Y007800D01*
X014115Y007800D01*
X014115Y007799D02*
X011440Y007799D01*
X014115Y007799D01*
X014115Y007798D02*
X011440Y007798D01*
X014115Y007798D01*
X014115Y007797D02*
X011440Y007797D01*
X014115Y007797D01*
X014115Y007796D02*
X011440Y007796D01*
X014115Y007796D01*
X014115Y007795D02*
X011440Y007795D01*
X014115Y007795D01*
X014115Y007794D02*
X011440Y007794D01*
X014115Y007794D01*
X014115Y007793D02*
X011440Y007793D01*
X014115Y007793D01*
X014115Y007792D02*
X011440Y007792D01*
X014115Y007792D01*
X014115Y007791D02*
X011440Y007791D01*
X014115Y007791D01*
X014115Y007790D02*
X011440Y007790D01*
X014115Y007790D01*
X014115Y007789D02*
X011440Y007789D01*
X014115Y007789D01*
X014115Y007788D02*
X011440Y007788D01*
X014115Y007788D01*
X014115Y007787D02*
X011440Y007787D01*
X014115Y007787D01*
X014115Y007786D02*
X011440Y007786D01*
X014115Y007786D01*
X014115Y007785D02*
X011440Y007785D01*
X014115Y007785D01*
X014115Y007784D02*
X011440Y007784D01*
X014115Y007784D01*
X014115Y007783D02*
X011440Y007783D01*
X014115Y007783D01*
X014115Y007782D02*
X011440Y007782D01*
X014115Y007782D01*
X014115Y007781D02*
X011440Y007781D01*
X014115Y007781D01*
X014115Y007780D02*
X011440Y007780D01*
X014115Y007780D01*
X014115Y007779D02*
X011440Y007779D01*
X014115Y007779D01*
X014115Y007778D02*
X011440Y007778D01*
X014115Y007778D01*
X014115Y007777D02*
X011440Y007777D01*
X014115Y007777D01*
X014115Y007776D02*
X011440Y007776D01*
X014115Y007776D01*
X014115Y007775D02*
X011440Y007775D01*
X014115Y007775D01*
X014115Y007774D02*
X011440Y007774D01*
X014115Y007774D01*
X014115Y007773D02*
X011440Y007773D01*
X014115Y007773D01*
X014115Y007772D02*
X011440Y007772D01*
X014115Y007772D01*
X014115Y007771D02*
X011440Y007771D01*
X014115Y007771D01*
X014115Y007770D02*
X011440Y007770D01*
X014115Y007770D01*
X014115Y007769D02*
X011440Y007769D01*
X014115Y007769D01*
X014115Y007768D02*
X011440Y007768D01*
X014115Y007768D01*
X014115Y007767D02*
X011440Y007767D01*
X014115Y007767D01*
X014115Y007766D02*
X011440Y007766D01*
X014115Y007766D01*
X014115Y007765D02*
X011440Y007765D01*
X014115Y007765D01*
X014115Y007764D02*
X011440Y007764D01*
X014115Y007764D01*
X014115Y007763D02*
X011440Y007763D01*
X014115Y007763D01*
X014115Y007762D02*
X011440Y007762D01*
X014115Y007762D01*
X014115Y007761D02*
X011440Y007761D01*
X014115Y007761D01*
X014115Y007760D02*
X011440Y007760D01*
X014115Y007760D01*
X014115Y007759D02*
X011440Y007759D01*
X014115Y007759D01*
X014115Y007758D02*
X011440Y007758D01*
X014115Y007758D01*
X014115Y007757D02*
X011440Y007757D01*
X014115Y007757D01*
X014115Y007756D02*
X011440Y007756D01*
X014115Y007756D01*
X014115Y007755D02*
X011440Y007755D01*
X014115Y007755D01*
X014115Y007754D02*
X011440Y007754D01*
X014115Y007754D01*
X014115Y007753D02*
X011440Y007753D01*
X014115Y007753D01*
X014115Y007752D02*
X011440Y007752D01*
X014115Y007752D01*
X014115Y007751D02*
X011440Y007751D01*
X014115Y007751D01*
X014115Y007750D02*
X011440Y007750D01*
X014115Y007750D01*
X014115Y007749D02*
X011440Y007749D01*
X014115Y007749D01*
X014115Y007748D02*
X011440Y007748D01*
X014115Y007748D01*
X014115Y007747D02*
X011440Y007747D01*
X014115Y007747D01*
X014115Y007746D02*
X011440Y007746D01*
X014115Y007746D01*
X014115Y007745D02*
X011440Y007745D01*
X014115Y007745D01*
X014115Y007744D02*
X011440Y007744D01*
X014115Y007744D01*
X014115Y007743D02*
X011440Y007743D01*
X014115Y007743D01*
X014115Y007742D02*
X011440Y007742D01*
X014115Y007742D01*
X014115Y007741D02*
X011440Y007741D01*
X014115Y007741D01*
X014115Y007740D02*
X011440Y007740D01*
X014115Y007740D01*
X014115Y007739D02*
X011440Y007739D01*
X014115Y007739D01*
X014115Y007738D02*
X011440Y007738D01*
X014115Y007738D01*
X014115Y007737D02*
X011440Y007737D01*
X014115Y007737D01*
X014115Y007736D02*
X011440Y007736D01*
X014115Y007736D01*
X014115Y007735D02*
X011440Y007735D01*
X014115Y007735D01*
X014115Y007734D02*
X011440Y007734D01*
X014115Y007734D01*
X014115Y007733D02*
X011440Y007733D01*
X014115Y007733D01*
X014115Y007732D02*
X011440Y007732D01*
X014115Y007732D01*
X014115Y007731D02*
X011440Y007731D01*
X014115Y007731D01*
X014115Y007730D02*
X011440Y007730D01*
X014115Y007730D01*
X014115Y007729D02*
X011440Y007729D01*
X014115Y007729D01*
X014115Y007728D02*
X011440Y007728D01*
X014115Y007728D01*
X014115Y007727D02*
X011440Y007727D01*
X014115Y007727D01*
X014115Y007726D02*
X011440Y007726D01*
X014115Y007726D01*
X014115Y007725D02*
X011440Y007725D01*
X014115Y007725D01*
X014115Y007724D02*
X011440Y007724D01*
X014115Y007724D01*
X014115Y007723D02*
X011440Y007723D01*
X014115Y007723D01*
X014115Y007722D02*
X011440Y007722D01*
X014115Y007722D01*
X014115Y007721D02*
X011440Y007721D01*
X014115Y007721D01*
X014115Y007720D02*
X011440Y007720D01*
X014115Y007720D01*
X014115Y007719D02*
X011440Y007719D01*
X014115Y007719D01*
X014115Y007718D02*
X011440Y007718D01*
X014115Y007718D01*
X014115Y007717D02*
X011440Y007717D01*
X014115Y007717D01*
X014115Y007716D02*
X011440Y007716D01*
X014115Y007716D01*
X014115Y007715D02*
X011440Y007715D01*
X014115Y007715D01*
X014115Y007714D02*
X011440Y007714D01*
X014115Y007714D01*
X014115Y007713D02*
X011440Y007713D01*
X014115Y007713D01*
X014115Y007712D02*
X011440Y007712D01*
X014115Y007712D01*
X014115Y007711D02*
X011440Y007711D01*
X014115Y007711D01*
X014115Y007710D02*
X011440Y007710D01*
X014115Y007710D01*
X014115Y007709D02*
X011440Y007709D01*
X014115Y007709D01*
X014115Y007708D02*
X011440Y007708D01*
X014115Y007708D01*
X014115Y007707D02*
X011440Y007707D01*
X014115Y007707D01*
X014115Y007706D02*
X011440Y007706D01*
X014115Y007706D01*
X014115Y007705D02*
X011440Y007705D01*
X014115Y007705D01*
X014115Y007704D02*
X011440Y007704D01*
X014115Y007704D01*
X014115Y007703D02*
X011440Y007703D01*
X014115Y007703D01*
X014115Y007702D02*
X011440Y007702D01*
X014115Y007702D01*
X014115Y007701D02*
X011440Y007701D01*
X014115Y007701D01*
X014115Y007700D02*
X011440Y007700D01*
X014115Y007700D01*
X014115Y007699D02*
X011440Y007699D01*
X014115Y007699D01*
X014115Y007698D02*
X011440Y007698D01*
X014115Y007698D01*
X014115Y007697D02*
X011440Y007697D01*
X014115Y007697D01*
X014115Y007696D02*
X011440Y007696D01*
X014115Y007696D01*
X014115Y007695D02*
X011440Y007695D01*
X014115Y007695D01*
X014115Y007694D02*
X011440Y007694D01*
X014115Y007694D01*
X014115Y007693D02*
X011440Y007693D01*
X014115Y007693D01*
X014115Y007692D02*
X011440Y007692D01*
X014115Y007692D01*
X014115Y007691D02*
X011440Y007691D01*
X014115Y007691D01*
X014115Y007690D02*
X011440Y007690D01*
X014115Y007690D01*
X014115Y007689D02*
X011440Y007689D01*
X014115Y007689D01*
X014115Y007688D02*
X011440Y007688D01*
X014115Y007688D01*
X014115Y007687D02*
X011440Y007687D01*
X014115Y007687D01*
X014115Y007686D02*
X011440Y007686D01*
X014115Y007686D01*
X014115Y007685D02*
X011440Y007685D01*
X014115Y007685D01*
X014115Y007684D02*
X011440Y007684D01*
X014115Y007684D01*
X014115Y007683D02*
X011440Y007683D01*
X014115Y007683D01*
X014115Y007682D02*
X011440Y007682D01*
X014115Y007682D01*
X014115Y007681D02*
X011440Y007681D01*
X014115Y007681D01*
X014115Y007680D02*
X011440Y007680D01*
X014115Y007680D01*
X014115Y007679D02*
X011440Y007679D01*
X014115Y007679D01*
X014115Y007678D02*
X011440Y007678D01*
X014115Y007678D01*
X014115Y007677D02*
X011440Y007677D01*
X014115Y007677D01*
X014115Y007676D02*
X011440Y007676D01*
X014115Y007676D01*
X014115Y007675D02*
X011440Y007675D01*
X014115Y007675D01*
X014115Y007674D02*
X011440Y007674D01*
X014115Y007674D01*
X014115Y007673D02*
X011440Y007673D01*
X014115Y007673D01*
X014115Y007672D02*
X011440Y007672D01*
X014115Y007672D01*
X014115Y007671D02*
X011440Y007671D01*
X014115Y007671D01*
X014115Y007670D02*
X011440Y007670D01*
X014115Y007670D01*
X014115Y007669D02*
X011440Y007669D01*
X014115Y007669D01*
X014115Y007668D02*
X011440Y007668D01*
X014115Y007668D01*
X014115Y007667D02*
X011440Y007667D01*
X014115Y007667D01*
X014115Y007666D02*
X011440Y007666D01*
X014115Y007666D01*
X014115Y007665D02*
X011440Y007665D01*
X014115Y007665D01*
X014115Y007664D02*
X011440Y007664D01*
X014115Y007664D01*
X014115Y007663D02*
X011440Y007663D01*
X014115Y007663D01*
X014115Y007662D02*
X011440Y007662D01*
X014115Y007662D01*
X014115Y007661D02*
X011440Y007661D01*
X014115Y007661D01*
X014115Y007660D02*
X011440Y007660D01*
X014115Y007660D01*
X014115Y007659D02*
X011440Y007659D01*
X014115Y007659D01*
X014115Y007658D02*
X011440Y007658D01*
X014115Y007658D01*
X014115Y007657D02*
X011440Y007657D01*
X014115Y007657D01*
X014115Y007656D02*
X011440Y007656D01*
X014115Y007656D01*
X014115Y007655D02*
X011440Y007655D01*
X014115Y007655D01*
X014115Y007654D02*
X011440Y007654D01*
X014115Y007654D01*
X014115Y007653D02*
X011440Y007653D01*
X014115Y007653D01*
X014115Y007652D02*
X011440Y007652D01*
X014115Y007652D01*
X014115Y007651D02*
X011440Y007651D01*
X014115Y007651D01*
X014115Y007650D02*
X011440Y007650D01*
X014115Y007650D01*
X014115Y007649D02*
X011440Y007649D01*
X014115Y007649D01*
X014115Y007648D02*
X011440Y007648D01*
X014115Y007648D01*
X014115Y007647D02*
X011440Y007647D01*
X014115Y007647D01*
X014115Y007646D02*
X011440Y007646D01*
X014115Y007646D01*
X014115Y007645D02*
X011440Y007645D01*
X014115Y007645D01*
X014115Y007644D02*
X011440Y007644D01*
X014115Y007644D01*
X014115Y007643D02*
X011440Y007643D01*
X014115Y007643D01*
X014115Y007642D02*
X011440Y007642D01*
X014115Y007642D01*
X014115Y007641D02*
X011440Y007641D01*
X014115Y007641D01*
X014115Y007640D02*
X011440Y007640D01*
X014115Y007640D01*
X014115Y007639D02*
X011440Y007639D01*
X014115Y007639D01*
X014115Y007638D02*
X011440Y007638D01*
X014115Y007638D01*
X014115Y007637D02*
X011440Y007637D01*
X014115Y007637D01*
X014115Y007636D02*
X011440Y007636D01*
X014115Y007636D01*
X014115Y007635D02*
X011440Y007635D01*
X014115Y007635D01*
X014115Y007634D02*
X011440Y007634D01*
X014115Y007634D01*
X014115Y007633D02*
X011440Y007633D01*
X014115Y007633D01*
X014115Y007632D02*
X011440Y007632D01*
X014115Y007632D01*
X014115Y007631D02*
X011440Y007631D01*
X014115Y007631D01*
X014115Y007630D02*
X011440Y007630D01*
X014115Y007630D01*
X014115Y007629D02*
X011440Y007629D01*
X014115Y007629D01*
X014115Y007628D02*
X011440Y007628D01*
X014115Y007628D01*
X014115Y007627D02*
X011440Y007627D01*
X014115Y007627D01*
X014115Y007626D02*
X011440Y007626D01*
X014115Y007626D01*
X014115Y007625D02*
X011440Y007625D01*
X014115Y007625D01*
X014115Y007624D02*
X011440Y007624D01*
X014115Y007624D01*
X014115Y007623D02*
X011440Y007623D01*
X014115Y007623D01*
X014115Y007622D02*
X011440Y007622D01*
X014115Y007622D01*
X014115Y007621D02*
X011440Y007621D01*
X014115Y007621D01*
X014115Y007620D02*
X011440Y007620D01*
X014115Y007620D01*
X014115Y007619D02*
X011440Y007619D01*
X014115Y007619D01*
X014115Y007618D02*
X011440Y007618D01*
X014115Y007618D01*
X014115Y007617D02*
X011440Y007617D01*
X014115Y007617D01*
X014115Y007616D02*
X011440Y007616D01*
X014115Y007616D01*
X014115Y007615D02*
X011440Y007615D01*
X014115Y007615D01*
X014115Y007614D02*
X011440Y007614D01*
X014115Y007614D01*
X014115Y007613D02*
X011440Y007613D01*
X014115Y007613D01*
X014115Y007612D02*
X011440Y007612D01*
X014115Y007612D01*
X014115Y007611D02*
X011440Y007611D01*
X014115Y007611D01*
X014115Y007610D02*
X011440Y007610D01*
X014115Y007610D01*
X014115Y007609D02*
X011440Y007609D01*
X014115Y007609D01*
X014115Y007608D02*
X011440Y007608D01*
X014115Y007608D01*
X014115Y007607D02*
X011440Y007607D01*
X014115Y007607D01*
X014115Y007606D02*
X011440Y007606D01*
X014115Y007606D01*
X014115Y007605D02*
X011440Y007605D01*
X014115Y007605D01*
X014115Y007604D02*
X011440Y007604D01*
X014115Y007604D01*
X014115Y007603D02*
X011440Y007603D01*
X014115Y007603D01*
X014115Y007602D02*
X011440Y007602D01*
X014115Y007602D01*
X014115Y007601D02*
X011440Y007601D01*
X014115Y007601D01*
X014115Y007600D02*
X011440Y007600D01*
X014115Y007600D01*
X014115Y007599D02*
X011440Y007599D01*
X014115Y007599D01*
X014115Y007598D02*
X011440Y007598D01*
X014115Y007598D01*
X014115Y007597D02*
X011440Y007597D01*
X014115Y007597D01*
X014115Y007596D02*
X011440Y007596D01*
X014115Y007596D01*
X014115Y007595D02*
X011440Y007595D01*
X014115Y007595D01*
X014115Y007594D02*
X011440Y007594D01*
X014115Y007594D01*
X014115Y007593D02*
X011440Y007593D01*
X014115Y007593D01*
X014115Y007592D02*
X011440Y007592D01*
X014115Y007592D01*
X014115Y007591D02*
X011440Y007591D01*
X014115Y007591D01*
X014115Y007590D02*
X011440Y007590D01*
X014115Y007590D01*
X014115Y007589D02*
X011440Y007589D01*
X014115Y007589D01*
X014115Y007588D02*
X011440Y007588D01*
X014115Y007588D01*
X014115Y007587D02*
X011440Y007587D01*
X014115Y007587D01*
X014115Y007586D02*
X011440Y007586D01*
X014115Y007586D01*
X014115Y007585D02*
X011440Y007585D01*
X014115Y007585D01*
X014115Y007584D02*
X011440Y007584D01*
X014115Y007584D01*
X014115Y007583D02*
X011440Y007583D01*
X014115Y007583D01*
X014115Y007582D02*
X011440Y007582D01*
X014115Y007582D01*
X014115Y007581D02*
X011440Y007581D01*
X014115Y007581D01*
X014115Y007580D02*
X011440Y007580D01*
X014115Y007580D01*
X014115Y007579D02*
X011440Y007579D01*
X014115Y007579D01*
X014115Y007578D02*
X011440Y007578D01*
X014115Y007578D01*
X014115Y007577D02*
X011440Y007577D01*
X014115Y007577D01*
X014115Y007576D02*
X011440Y007576D01*
X014115Y007576D01*
X014115Y007575D02*
X011440Y007575D01*
X014115Y007575D01*
X014115Y007574D02*
X011440Y007574D01*
X014115Y007574D01*
X014115Y007573D02*
X011440Y007573D01*
X014115Y007573D01*
X014115Y007572D02*
X011440Y007572D01*
X014115Y007572D01*
X014115Y007571D02*
X011440Y007571D01*
X014115Y007571D01*
X014115Y007570D02*
X011440Y007570D01*
X014115Y007570D01*
X014115Y007569D02*
X011440Y007569D01*
X014115Y007569D01*
X014115Y007568D02*
X011440Y007568D01*
X014115Y007568D01*
X014115Y007567D02*
X011440Y007567D01*
X014115Y007567D01*
X014115Y007566D02*
X011440Y007566D01*
X014115Y007566D01*
X014115Y007565D02*
X011440Y007565D01*
X014115Y007565D01*
X014115Y007564D02*
X011440Y007564D01*
X014115Y007564D01*
X014115Y007563D02*
X011440Y007563D01*
X014115Y007563D01*
X014115Y007562D02*
X011440Y007562D01*
X014115Y007562D01*
X014115Y007561D02*
X011440Y007561D01*
X014115Y007561D01*
X014115Y007560D02*
X011440Y007560D01*
X014115Y007560D01*
X014115Y007559D02*
X011440Y007559D01*
X014115Y007559D01*
X014115Y007558D02*
X011440Y007558D01*
X014115Y007558D01*
X014115Y007557D02*
X011440Y007557D01*
X014115Y007557D01*
X014115Y007556D02*
X011440Y007556D01*
X014115Y007556D01*
X014115Y007555D02*
X011440Y007555D01*
X014115Y007555D01*
X014115Y007554D02*
X011440Y007554D01*
X014115Y007554D01*
X014115Y007553D02*
X011440Y007553D01*
X014115Y007553D01*
X014115Y007552D02*
X011440Y007552D01*
X014115Y007552D01*
X014115Y007551D02*
X011440Y007551D01*
X014115Y007551D01*
X014115Y007550D02*
X011440Y007550D01*
X014115Y007550D01*
X014115Y007549D02*
X011440Y007549D01*
X014115Y007549D01*
X014115Y007548D02*
X011440Y007548D01*
X014115Y007548D01*
X014115Y007547D02*
X011440Y007547D01*
X014115Y007547D01*
X014115Y007546D02*
X011440Y007546D01*
X014115Y007546D01*
X014115Y007545D02*
X011440Y007545D01*
X014115Y007545D01*
X014115Y007544D02*
X011440Y007544D01*
X014115Y007544D01*
X014115Y007543D02*
X011440Y007543D01*
X014115Y007543D01*
X014115Y007542D02*
X011440Y007542D01*
X014115Y007542D01*
X014115Y007541D02*
X011440Y007541D01*
X014115Y007541D01*
X014115Y007540D02*
X011440Y007540D01*
X014115Y007540D01*
X014115Y007539D02*
X011440Y007539D01*
X014115Y007539D01*
X014115Y007538D02*
X011440Y007538D01*
X014115Y007538D01*
X014115Y007537D02*
X011440Y007537D01*
X014115Y007537D01*
X014115Y007536D02*
X011440Y007536D01*
X014115Y007536D01*
X014115Y007535D02*
X011440Y007535D01*
X014115Y007535D01*
X014115Y007534D02*
X011440Y007534D01*
X014115Y007534D01*
X014115Y007533D02*
X011440Y007533D01*
X014115Y007533D01*
X014115Y007532D02*
X011440Y007532D01*
X014115Y007532D01*
X014115Y007531D02*
X011440Y007531D01*
X014115Y007531D01*
X014115Y007530D02*
X011440Y007530D01*
X014115Y007530D01*
X014115Y007529D02*
X011440Y007529D01*
X014115Y007529D01*
X014115Y007528D02*
X011440Y007528D01*
X014115Y007528D01*
X014115Y007527D02*
X011440Y007527D01*
X014115Y007527D01*
X014115Y007526D02*
X011440Y007526D01*
X014115Y007526D01*
X014115Y007525D02*
X011440Y007525D01*
X014115Y007525D01*
X014115Y007524D02*
X011440Y007524D01*
X014115Y007524D01*
X014115Y007523D02*
X011440Y007523D01*
X014115Y007523D01*
X014115Y007522D02*
X011440Y007522D01*
X014115Y007522D01*
X014115Y007521D02*
X011440Y007521D01*
X014115Y007521D01*
X014115Y007520D02*
X011440Y007520D01*
X014115Y007520D01*
X014115Y007519D02*
X011440Y007519D01*
X014115Y007519D01*
X014115Y007518D02*
X011440Y007518D01*
X014115Y007518D01*
X014115Y007517D02*
X011440Y007517D01*
X014115Y007517D01*
X014115Y007516D02*
X011440Y007516D01*
X014115Y007516D01*
X014115Y007515D02*
X011440Y007515D01*
X014115Y007515D01*
X014115Y007514D02*
X011440Y007514D01*
X014115Y007514D01*
X014115Y007513D02*
X011440Y007513D01*
X014115Y007513D01*
X014115Y007512D02*
X011440Y007512D01*
X014115Y007512D01*
X014115Y007511D02*
X011440Y007511D01*
X014115Y007511D01*
X014115Y007510D02*
X011440Y007510D01*
X014115Y007510D01*
X014115Y007509D02*
X011440Y007509D01*
X014115Y007509D01*
X014115Y007508D02*
X011440Y007508D01*
X014115Y007508D01*
X014115Y007507D02*
X011440Y007507D01*
X014115Y007507D01*
X014115Y007506D02*
X011440Y007506D01*
X014115Y007506D01*
X014115Y007505D02*
X011440Y007505D01*
X014115Y007505D01*
X014115Y007504D02*
X011440Y007504D01*
X014115Y007504D01*
X014115Y007503D02*
X011440Y007503D01*
X014115Y007503D01*
X014115Y007502D02*
X011440Y007502D01*
X014115Y007502D01*
X014115Y007501D02*
X011440Y007501D01*
X014115Y007501D01*
X014115Y007500D02*
X011440Y007500D01*
X014115Y007500D01*
X014115Y007499D02*
X011440Y007499D01*
X014115Y007499D01*
X014115Y007498D02*
X011440Y007498D01*
X014115Y007498D01*
X014115Y007497D02*
X011440Y007497D01*
X014115Y007497D01*
X014115Y007496D02*
X011440Y007496D01*
X014115Y007496D01*
X014115Y007495D02*
X011440Y007495D01*
X014115Y007495D01*
X014115Y007494D02*
X011440Y007494D01*
X014115Y007494D01*
X014115Y007493D02*
X011440Y007493D01*
X014115Y007493D01*
X014115Y007492D02*
X011440Y007492D01*
X014115Y007492D01*
X014115Y007491D02*
X011440Y007491D01*
X014115Y007491D01*
X014115Y007490D02*
X011440Y007490D01*
X014115Y007490D01*
X014115Y007489D02*
X011440Y007489D01*
X014115Y007489D01*
X014115Y007488D02*
X011440Y007488D01*
X014115Y007488D01*
X014115Y007487D02*
X011440Y007487D01*
X014115Y007487D01*
X014115Y007486D02*
X011440Y007486D01*
X014115Y007486D01*
X014115Y007485D02*
X011440Y007485D01*
X014115Y007485D01*
X014115Y007484D02*
X011440Y007484D01*
X014115Y007484D01*
X014115Y007483D02*
X011440Y007483D01*
X014115Y007483D01*
X014115Y007482D02*
X011440Y007482D01*
X014115Y007482D01*
X014115Y007481D02*
X011440Y007481D01*
X014115Y007481D01*
X014115Y007480D02*
X011440Y007480D01*
X014115Y007480D01*
X014115Y007479D02*
X011440Y007479D01*
X014115Y007479D01*
X014115Y007478D02*
X011440Y007478D01*
X014115Y007478D01*
X014115Y007477D02*
X011440Y007477D01*
X014115Y007477D01*
X014115Y007476D02*
X011440Y007476D01*
X014115Y007476D01*
X014115Y007475D02*
X011440Y007475D01*
X014115Y007475D01*
X014115Y007474D02*
X011440Y007474D01*
X014115Y007474D01*
X014115Y007473D02*
X011440Y007473D01*
X014115Y007473D01*
X014115Y007472D02*
X011440Y007472D01*
X014115Y007472D01*
X014115Y007471D02*
X011440Y007471D01*
X014115Y007471D01*
X014115Y007470D02*
X011440Y007470D01*
X014115Y007470D01*
X014115Y007469D02*
X011440Y007469D01*
X014115Y007469D01*
X014115Y007468D02*
X011440Y007468D01*
X014115Y007468D01*
X014115Y007467D02*
X011440Y007467D01*
X014115Y007467D01*
X014115Y007466D02*
X011440Y007466D01*
X014115Y007466D01*
X014115Y007465D02*
X011440Y007465D01*
X014115Y007465D01*
X014115Y007464D02*
X011440Y007464D01*
X014115Y007464D01*
X014115Y007463D02*
X011440Y007463D01*
X014115Y007463D01*
X014115Y007462D02*
X011440Y007462D01*
X014115Y007462D01*
X014115Y007461D02*
X011440Y007461D01*
X014115Y007461D01*
X014115Y007460D02*
X011440Y007460D01*
X014115Y007460D01*
X014115Y007459D02*
X011440Y007459D01*
X014115Y007459D01*
X014115Y007458D02*
X011440Y007458D01*
X014115Y007458D01*
X014115Y007457D02*
X011440Y007457D01*
X014115Y007457D01*
X014115Y007456D02*
X011440Y007456D01*
X014115Y007456D01*
X014115Y007455D02*
X011440Y007455D01*
X014115Y007455D01*
X014115Y007454D02*
X011440Y007454D01*
X014115Y007454D01*
X014115Y007453D02*
X011440Y007453D01*
X014115Y007453D01*
X014115Y007452D02*
X011440Y007452D01*
X014115Y007452D01*
X014115Y007451D02*
X011440Y007451D01*
X014115Y007451D01*
X014115Y007450D02*
X011440Y007450D01*
X014115Y007450D01*
X014115Y007449D02*
X011440Y007449D01*
X014115Y007449D01*
X014115Y007448D02*
X011440Y007448D01*
X014115Y007448D01*
X014115Y007447D02*
X011440Y007447D01*
X014115Y007447D01*
X014115Y007446D02*
X011440Y007446D01*
X014115Y007446D01*
X014115Y007445D02*
X011440Y007445D01*
X014115Y007445D01*
X014115Y007444D02*
X011440Y007444D01*
X014115Y007444D01*
X014115Y007443D02*
X011440Y007443D01*
X014115Y007443D01*
X014115Y007442D02*
X011440Y007442D01*
X014115Y007442D01*
X014115Y007441D02*
X011440Y007441D01*
X014115Y007441D01*
X014115Y007440D02*
X011440Y007440D01*
X014115Y007440D01*
X014115Y007439D02*
X011440Y007439D01*
X014115Y007439D01*
X014115Y007438D02*
X011440Y007438D01*
X014115Y007438D01*
X014115Y007437D02*
X011440Y007437D01*
X014115Y007437D01*
X014115Y007436D02*
X011440Y007436D01*
X014115Y007436D01*
X014115Y007435D02*
X011440Y007435D01*
X014115Y007435D01*
X014115Y007434D02*
X011440Y007434D01*
X014115Y007434D01*
X014115Y007433D02*
X011440Y007433D01*
X014115Y007433D01*
X014115Y007432D02*
X011440Y007432D01*
X014115Y007432D01*
X014115Y007431D02*
X011440Y007431D01*
X014115Y007431D01*
X014115Y007430D02*
X011440Y007430D01*
X014115Y007430D01*
X014115Y007429D02*
X011440Y007429D01*
X014115Y007429D01*
X014115Y007428D02*
X011440Y007428D01*
X014115Y007428D01*
X014115Y007427D02*
X011440Y007427D01*
X014115Y007427D01*
X014115Y007426D02*
X011440Y007426D01*
X014115Y007426D01*
X014115Y007425D02*
X011440Y007425D01*
X014115Y007425D01*
X014115Y007424D02*
X011440Y007424D01*
X014115Y007424D01*
X014115Y007423D02*
X011440Y007423D01*
X014115Y007423D01*
X014115Y007422D02*
X011440Y007422D01*
X014115Y007422D01*
X014115Y007421D02*
X011440Y007421D01*
X014115Y007421D01*
X014115Y007420D02*
X011440Y007420D01*
X014115Y007420D01*
X014115Y007419D02*
X011440Y007419D01*
X014115Y007419D01*
X014115Y007418D02*
X011440Y007418D01*
X014115Y007418D01*
X014115Y007417D02*
X011440Y007417D01*
X014115Y007417D01*
X014115Y007416D02*
X011440Y007416D01*
X014115Y007416D01*
X014115Y007415D02*
X011440Y007415D01*
X014115Y007415D01*
X014115Y007414D02*
X011440Y007414D01*
X014115Y007414D01*
X014115Y007413D02*
X011440Y007413D01*
X014115Y007413D01*
X014115Y007412D02*
X011440Y007412D01*
X014115Y007412D01*
X014115Y007411D02*
X011440Y007411D01*
X014115Y007411D01*
X014115Y007410D02*
X011440Y007410D01*
X014115Y007410D01*
X014115Y007409D02*
X011440Y007409D01*
X014115Y007409D01*
X014115Y007408D02*
X011440Y007408D01*
X014115Y007408D01*
X014115Y007407D02*
X011440Y007407D01*
X014115Y007407D01*
X014115Y007406D02*
X011440Y007406D01*
X014115Y007406D01*
X014115Y007405D02*
X011440Y007405D01*
X014115Y007405D01*
X014115Y007404D02*
X011440Y007404D01*
X014115Y007404D01*
X014115Y007403D02*
X011440Y007403D01*
X014115Y007403D01*
X014115Y007402D02*
X011440Y007402D01*
X014115Y007402D01*
X014115Y007401D02*
X011440Y007401D01*
X014115Y007401D01*
X014115Y007400D02*
X011440Y007400D01*
X014115Y007400D01*
X014115Y007399D02*
X011440Y007399D01*
X014115Y007399D01*
X014115Y007398D02*
X011440Y007398D01*
X014115Y007398D01*
X014115Y007397D02*
X011440Y007397D01*
X014115Y007397D01*
X014115Y007396D02*
X011440Y007396D01*
X014115Y007396D01*
X014115Y007395D02*
X011440Y007395D01*
X014115Y007395D01*
X014115Y007394D02*
X011440Y007394D01*
X014115Y007394D01*
X014115Y007393D02*
X011440Y007393D01*
X014115Y007393D01*
X014115Y007392D02*
X011440Y007392D01*
X014115Y007392D01*
X014115Y007391D02*
X011440Y007391D01*
X014115Y007391D01*
X014115Y007390D02*
X011440Y007390D01*
X014115Y007390D01*
X014115Y007389D02*
X011440Y007389D01*
X014115Y007389D01*
X014115Y007388D02*
X011440Y007388D01*
X014115Y007388D01*
X014115Y007387D02*
X011440Y007387D01*
X014115Y007387D01*
X014115Y007386D02*
X011440Y007386D01*
X014115Y007386D01*
X014115Y007385D02*
X011440Y007385D01*
X014115Y007385D01*
X014115Y007384D02*
X011440Y007384D01*
X014115Y007384D01*
X014115Y007383D02*
X011440Y007383D01*
X014115Y007383D01*
X014115Y007382D02*
X011440Y007382D01*
X014115Y007382D01*
X014115Y007381D02*
X011440Y007381D01*
X014115Y007381D01*
X014115Y007380D02*
X011440Y007380D01*
X014115Y007380D01*
X014115Y007379D02*
X011440Y007379D01*
X014115Y007379D01*
X014115Y007378D02*
X011440Y007378D01*
X014115Y007378D01*
X014115Y007377D02*
X011440Y007377D01*
X014115Y007377D01*
X014115Y007376D02*
X011440Y007376D01*
X014115Y007376D01*
X014115Y007375D02*
X011440Y007375D01*
X014115Y007375D01*
X014115Y007374D02*
X011440Y007374D01*
X014115Y007374D01*
X014115Y007373D02*
X011440Y007373D01*
X014115Y007373D01*
X014115Y007372D02*
X011440Y007372D01*
X014115Y007372D01*
X014115Y007371D02*
X011440Y007371D01*
X014115Y007371D01*
X014115Y007370D02*
X011440Y007370D01*
X014115Y007370D01*
X014115Y007369D02*
X011440Y007369D01*
X014115Y007369D01*
X014115Y007368D02*
X011440Y007368D01*
X014115Y007368D01*
X014115Y007367D02*
X011440Y007367D01*
X014115Y007367D01*
X014115Y007366D02*
X011440Y007366D01*
X014115Y007366D01*
X014115Y007365D02*
X011440Y007365D01*
X014115Y007365D01*
X014115Y007364D02*
X011440Y007364D01*
X014115Y007364D01*
X014115Y007363D02*
X011440Y007363D01*
X014115Y007363D01*
X014115Y007362D02*
X011440Y007362D01*
X014115Y007362D01*
X014115Y007361D02*
X011440Y007361D01*
X014115Y007361D01*
X014115Y007360D02*
X011440Y007360D01*
X014115Y007360D01*
X014115Y007359D02*
X011440Y007359D01*
X014115Y007359D01*
X014115Y007358D02*
X011440Y007358D01*
X014115Y007358D01*
X014115Y007357D02*
X011440Y007357D01*
X014115Y007357D01*
X014115Y007356D02*
X011440Y007356D01*
X014115Y007356D01*
X014115Y007355D02*
X011440Y007355D01*
X014115Y007355D01*
X014115Y007354D02*
X011440Y007354D01*
X014115Y007354D01*
X014115Y007353D02*
X011440Y007353D01*
X014115Y007353D01*
X014115Y007352D02*
X011440Y007352D01*
X014115Y007352D01*
X014115Y007351D02*
X011440Y007351D01*
X014115Y007351D01*
X014115Y007350D02*
X011440Y007350D01*
X014115Y007350D01*
X014115Y007349D02*
X011440Y007349D01*
X014115Y007349D01*
X014115Y007348D02*
X011440Y007348D01*
X014115Y007348D01*
X014115Y007347D02*
X011440Y007347D01*
X014115Y007347D01*
X014115Y007346D02*
X011440Y007346D01*
X014115Y007346D01*
X014115Y007345D02*
X011440Y007345D01*
X014115Y007345D01*
X014115Y007344D02*
X011440Y007344D01*
X014115Y007344D01*
X014115Y007343D02*
X011440Y007343D01*
X014115Y007343D01*
X014115Y007342D02*
X011440Y007342D01*
X014115Y007342D01*
X014115Y007341D02*
X011440Y007341D01*
X014115Y007341D01*
X014115Y007340D02*
X011440Y007340D01*
X014115Y007340D01*
X014115Y007339D02*
X011440Y007339D01*
X014115Y007339D01*
X014115Y007338D02*
X011440Y007338D01*
X014115Y007338D01*
X014115Y007337D02*
X011440Y007337D01*
X014115Y007337D01*
X014115Y007336D02*
X011440Y007336D01*
X014115Y007336D01*
X014115Y007335D02*
X011440Y007335D01*
X014115Y007335D01*
X014115Y007334D02*
X011440Y007334D01*
X014115Y007334D01*
X014115Y007333D02*
X011440Y007333D01*
X014115Y007333D01*
X014115Y007332D02*
X011440Y007332D01*
X014115Y007332D01*
X014115Y007331D02*
X011440Y007331D01*
X014115Y007331D01*
X014115Y007330D02*
X011440Y007330D01*
X014115Y007330D01*
X014115Y007329D02*
X011440Y007329D01*
X014115Y007329D01*
X014115Y007328D02*
X011440Y007328D01*
X014115Y007328D01*
X014115Y007327D02*
X011440Y007327D01*
X014115Y007327D01*
X014115Y007326D02*
X011440Y007326D01*
X014115Y007326D01*
X014115Y007325D02*
X011440Y007325D01*
X014115Y007325D01*
X014115Y007324D02*
X011440Y007324D01*
X014115Y007324D01*
X014115Y007323D02*
X011440Y007323D01*
X014115Y007323D01*
X014115Y007322D02*
X011440Y007322D01*
X014115Y007322D01*
X014115Y007321D02*
X011440Y007321D01*
X014115Y007321D01*
X014115Y007320D02*
X011440Y007320D01*
X014115Y007320D01*
X014115Y007319D02*
X011440Y007319D01*
X014115Y007319D01*
X014115Y007318D02*
X011440Y007318D01*
X014115Y007318D01*
X014115Y007317D02*
X011440Y007317D01*
X014115Y007317D01*
X014115Y007316D02*
X011440Y007316D01*
X014115Y007316D01*
X014115Y007315D02*
X011440Y007315D01*
X014115Y007315D01*
X014115Y007314D02*
X011440Y007314D01*
X014115Y007314D01*
X014115Y007313D02*
X011440Y007313D01*
X014115Y007313D01*
X014115Y007312D02*
X011440Y007312D01*
X014115Y007312D01*
X014115Y007311D02*
X011440Y007311D01*
X014115Y007311D01*
X014115Y007310D02*
X011440Y007310D01*
X014115Y007310D01*
X014115Y007309D02*
X011440Y007309D01*
X014115Y007309D01*
X014115Y007308D02*
X011440Y007308D01*
X014115Y007308D01*
X014115Y007307D02*
X011440Y007307D01*
X014115Y007307D01*
X014115Y007306D02*
X011440Y007306D01*
X014115Y007306D01*
X014115Y007305D02*
X011440Y007305D01*
X014115Y007305D01*
X014115Y007304D02*
X011440Y007304D01*
X014115Y007304D01*
X014115Y007303D02*
X011440Y007303D01*
X014115Y007303D01*
X014115Y007302D02*
X011440Y007302D01*
X014115Y007302D01*
X014115Y007301D02*
X011440Y007301D01*
X014115Y007301D01*
X014115Y007300D02*
X011440Y007300D01*
X014115Y007300D01*
X014115Y007299D02*
X011440Y007299D01*
X014115Y007299D01*
X014115Y007298D02*
X011440Y007298D01*
X014115Y007298D01*
X014115Y007297D02*
X011440Y007297D01*
X014115Y007297D01*
X014115Y007296D02*
X011440Y007296D01*
X014115Y007296D01*
X014115Y007295D02*
X011440Y007295D01*
X014115Y007295D01*
X014115Y007294D02*
X011440Y007294D01*
X014115Y007294D01*
X014115Y007293D02*
X011440Y007293D01*
X014115Y007293D01*
X014115Y007292D02*
X011440Y007292D01*
X014115Y007292D01*
X014115Y007291D02*
X011440Y007291D01*
X014115Y007291D01*
X014115Y007290D02*
X011440Y007290D01*
X014115Y007290D01*
X014115Y007289D02*
X011440Y007289D01*
X014115Y007289D01*
X014115Y007288D02*
X011440Y007288D01*
X014115Y007288D01*
X014115Y007287D02*
X011440Y007287D01*
X014115Y007287D01*
X014115Y007286D02*
X011440Y007286D01*
X014115Y007286D01*
X014115Y007285D02*
X011440Y007285D01*
X014115Y007285D01*
X014115Y007284D02*
X011440Y007284D01*
X014115Y007284D01*
X014115Y007283D02*
X011440Y007283D01*
X014115Y007283D01*
X014115Y007282D02*
X011440Y007282D01*
X014115Y007282D01*
X014115Y007281D02*
X011440Y007281D01*
X014115Y007281D01*
X014115Y007280D02*
X011440Y007280D01*
X014115Y007280D01*
X014115Y007279D02*
X011440Y007279D01*
X014115Y007279D01*
X014115Y007278D02*
X011440Y007278D01*
X014115Y007278D01*
X014115Y007277D02*
X011440Y007277D01*
X014115Y007277D01*
X014115Y007276D02*
X011440Y007276D01*
X014115Y007276D01*
X014115Y007275D02*
X011440Y007275D01*
X014115Y007275D01*
X014115Y007274D02*
X011440Y007274D01*
X014115Y007274D01*
X014115Y007273D02*
X011440Y007273D01*
X014115Y007273D01*
X014115Y007272D02*
X011440Y007272D01*
X014115Y007272D01*
X014115Y007271D02*
X011440Y007271D01*
X014115Y007271D01*
X014115Y007270D02*
X011440Y007270D01*
X014115Y007270D01*
X014115Y007269D02*
X011440Y007269D01*
X014115Y007269D01*
X014115Y007268D02*
X011440Y007268D01*
X014115Y007268D01*
X014115Y007267D02*
X011440Y007267D01*
X014115Y007267D01*
X014115Y007266D02*
X011440Y007266D01*
X014115Y007266D01*
X014115Y007265D02*
X011440Y007265D01*
X014115Y007265D01*
X014115Y007264D02*
X011440Y007264D01*
X014115Y007264D01*
X014115Y007263D02*
X011440Y007263D01*
X014115Y007263D01*
X014115Y007262D02*
X011440Y007262D01*
X014115Y007262D01*
X014115Y007261D02*
X011440Y007261D01*
X014115Y007261D01*
X014115Y007260D02*
X011440Y007260D01*
X014115Y007260D01*
X014115Y007259D02*
X011440Y007259D01*
X014115Y007259D01*
X014115Y007258D02*
X011440Y007258D01*
X014115Y007258D01*
X014115Y007257D02*
X011440Y007257D01*
X014115Y007257D01*
X014115Y007256D02*
X011440Y007256D01*
X014115Y007256D01*
X014115Y007255D02*
X011440Y007255D01*
X014115Y007255D01*
X014115Y007254D02*
X011440Y007254D01*
X014115Y007254D01*
X014115Y007253D02*
X011440Y007253D01*
X014115Y007253D01*
X014115Y007252D02*
X011440Y007252D01*
X014115Y007252D01*
X014115Y007251D02*
X011440Y007251D01*
X014115Y007251D01*
X014115Y007250D02*
X011440Y007250D01*
X014115Y007250D01*
X014115Y007249D02*
X011440Y007249D01*
X014115Y007249D01*
X014115Y007248D02*
X011440Y007248D01*
X014115Y007248D01*
X014115Y007247D02*
X011440Y007247D01*
X014115Y007247D01*
X014115Y007246D02*
X011440Y007246D01*
X014115Y007246D01*
X014115Y007245D02*
X011440Y007245D01*
X014115Y007245D01*
X014115Y007244D02*
X011440Y007244D01*
X014115Y007244D01*
X014115Y007243D02*
X011440Y007243D01*
X014115Y007243D01*
X014115Y007242D02*
X011440Y007242D01*
X014115Y007242D01*
X014115Y007241D02*
X011440Y007241D01*
X014115Y007241D01*
X014115Y007240D02*
X011440Y007240D01*
X014115Y007240D01*
X014115Y007239D02*
X011440Y007239D01*
X014115Y007239D01*
X014115Y007238D02*
X011440Y007238D01*
X014115Y007238D01*
X014115Y007237D02*
X011440Y007237D01*
X014115Y007237D01*
X014115Y007236D02*
X011440Y007236D01*
X014115Y007236D01*
X014115Y007235D02*
X011440Y007235D01*
X014115Y007235D01*
X014115Y007234D02*
X011440Y007234D01*
X014115Y007234D01*
X014115Y007233D02*
X011440Y007233D01*
X014115Y007233D01*
X014115Y007232D02*
X011440Y007232D01*
X014115Y007232D01*
X014115Y007231D02*
X011440Y007231D01*
X014115Y007231D01*
X014115Y007230D02*
X011440Y007230D01*
X014115Y007230D01*
X014115Y007229D02*
X011440Y007229D01*
X014115Y007229D01*
X014115Y007228D02*
X011440Y007228D01*
X014115Y007228D01*
X014115Y007227D02*
X011440Y007227D01*
X014115Y007227D01*
X014115Y007226D02*
X011440Y007226D01*
X014115Y007226D01*
X014115Y007225D02*
X011440Y007225D01*
X014115Y007225D01*
X014115Y007224D02*
X011440Y007224D01*
X014115Y007224D01*
X014115Y007223D02*
X011440Y007223D01*
X014115Y007223D01*
X014115Y007222D02*
X011440Y007222D01*
X014115Y007222D01*
X014115Y007221D02*
X011440Y007221D01*
X014115Y007221D01*
X014115Y007220D02*
X011440Y007220D01*
X014115Y007220D01*
X014115Y007219D02*
X011440Y007219D01*
X014115Y007219D01*
X014115Y007218D02*
X011440Y007218D01*
X014115Y007218D01*
X014115Y007217D02*
X011440Y007217D01*
X014115Y007217D01*
X014115Y007216D02*
X011440Y007216D01*
X014115Y007216D01*
X014115Y007215D02*
X011440Y007215D01*
X014115Y007215D01*
X014115Y007214D02*
X011440Y007214D01*
X014115Y007214D01*
X014115Y007213D02*
X011440Y007213D01*
X014115Y007213D01*
X014115Y007212D02*
X011440Y007212D01*
X014115Y007212D01*
X014115Y007211D02*
X011440Y007211D01*
X014115Y007211D01*
X014115Y007210D02*
X011440Y007210D01*
X014115Y007210D01*
X014115Y007209D02*
X011440Y007209D01*
X014115Y007209D01*
X014115Y007208D02*
X011440Y007208D01*
X014115Y007208D01*
X014115Y007207D02*
X011440Y007207D01*
X014115Y007207D01*
X014115Y007206D02*
X011440Y007206D01*
X014115Y007206D01*
X014115Y007205D02*
X011440Y007205D01*
X014115Y007205D01*
X014115Y007204D02*
X011440Y007204D01*
X014115Y007204D01*
X014115Y007203D02*
X011440Y007203D01*
X014115Y007203D01*
X014115Y007202D02*
X011440Y007202D01*
X014115Y007202D01*
X014115Y007201D02*
X011440Y007201D01*
X014115Y007201D01*
X014115Y007200D02*
X011440Y007200D01*
X014115Y007200D01*
X014115Y007199D02*
X011566Y007199D01*
X014115Y007199D01*
X014115Y007198D02*
X011567Y007198D01*
X011568Y007198D02*
X014115Y007198D01*
X011567Y007198D01*
X011568Y007198D02*
X014115Y007198D01*
X014115Y007197D02*
X011568Y007197D01*
X014115Y007197D01*
X014115Y007196D02*
X011569Y007196D01*
X014115Y007196D01*
X014115Y007195D02*
X011570Y007195D01*
X014115Y007195D01*
X014115Y007194D02*
X011571Y007194D01*
X014115Y007194D01*
X014115Y007193D02*
X011572Y007193D01*
X014115Y007193D01*
X014115Y007192D02*
X011573Y007192D01*
X014115Y007192D01*
X014115Y007191D02*
X011574Y007191D01*
X014115Y007191D01*
X014115Y007190D02*
X011575Y007190D01*
X014115Y007190D01*
X014115Y007189D02*
X011576Y007189D01*
X014115Y007189D01*
X014115Y007188D02*
X011577Y007188D01*
X014115Y007188D01*
X014115Y007187D02*
X011578Y007187D01*
X014115Y007187D01*
X014115Y007186D02*
X011579Y007186D01*
X014115Y007186D01*
X014115Y007185D02*
X011580Y007185D01*
X014115Y007185D01*
X014115Y007184D02*
X011581Y007184D01*
X014115Y007184D01*
X014115Y007183D02*
X011582Y007183D01*
X014115Y007183D01*
X014115Y007182D02*
X011583Y007182D01*
X014115Y007182D01*
X014115Y007181D02*
X011584Y007181D01*
X014115Y007181D01*
X014115Y007180D02*
X011585Y007180D01*
X014115Y007180D01*
X014115Y007179D02*
X011586Y007179D01*
X014115Y007179D01*
X014115Y007178D02*
X011587Y007178D01*
X014115Y007178D01*
X014115Y007177D02*
X011588Y007177D01*
X014115Y007177D01*
X014115Y007176D02*
X011589Y007176D01*
X014115Y007176D01*
X014115Y007175D02*
X011590Y007175D01*
X014115Y007175D01*
X014115Y007174D02*
X011591Y007174D01*
X014115Y007174D01*
X014115Y007173D02*
X011592Y007173D01*
X014115Y007173D01*
X014115Y007172D02*
X011593Y007172D01*
X014115Y007172D01*
X014115Y007171D02*
X011594Y007171D01*
X014115Y007171D01*
X014115Y007170D02*
X011595Y007170D01*
X014115Y007170D01*
X014115Y007169D02*
X011596Y007169D01*
X014115Y007169D01*
X014115Y007168D02*
X011597Y007168D01*
X014115Y007168D01*
X014115Y007167D02*
X011598Y007167D01*
X014115Y007167D01*
X014115Y007166D02*
X011599Y007166D01*
X014115Y007166D01*
X014115Y007165D02*
X011600Y007165D01*
X014115Y007165D01*
X014115Y007164D02*
X011601Y007164D01*
X014115Y007164D01*
X014115Y007163D02*
X011602Y007163D01*
X014115Y007163D01*
X014115Y007162D02*
X011603Y007162D01*
X014115Y007162D01*
X014115Y007161D02*
X011604Y007161D01*
X014115Y007161D01*
X014115Y007160D02*
X011605Y007160D01*
X014115Y007160D01*
X014115Y007159D02*
X011606Y007159D01*
X014115Y007159D01*
X014115Y007158D02*
X011607Y007158D01*
X014115Y007158D01*
X014115Y007157D02*
X011608Y007157D01*
X014115Y007157D01*
X014115Y007156D02*
X011609Y007156D01*
X014115Y007156D01*
X014115Y007155D02*
X011610Y007155D01*
X014115Y007155D01*
X014115Y007154D02*
X011611Y007154D01*
X014115Y007154D01*
X014115Y007153D02*
X011612Y007153D01*
X014115Y007153D01*
X014115Y007152D02*
X011613Y007152D01*
X014115Y007152D01*
X014115Y007151D02*
X011614Y007151D01*
X014115Y007151D01*
X014115Y007150D02*
X011615Y007150D01*
X014115Y007150D01*
X014115Y007149D02*
X011616Y007149D01*
X014115Y007149D01*
X014115Y007148D02*
X011617Y007148D01*
X014115Y007148D01*
X014115Y007147D02*
X011618Y007147D01*
X014115Y007147D01*
X014115Y007146D02*
X011619Y007146D01*
X014115Y007146D01*
X014115Y007145D02*
X011620Y007145D01*
X014115Y007145D01*
X014115Y007144D02*
X011621Y007144D01*
X014115Y007144D01*
X014115Y007143D02*
X011622Y007143D01*
X014115Y007143D01*
X014115Y007142D02*
X011623Y007142D01*
X014115Y007142D01*
X014115Y007141D02*
X011624Y007141D01*
X014115Y007141D01*
X014115Y007140D02*
X011625Y007140D01*
X014115Y007140D01*
X014115Y007139D02*
X011626Y007139D01*
X014115Y007139D01*
X014115Y007138D02*
X011627Y007138D01*
X014115Y007138D01*
X014115Y007137D02*
X011628Y007137D01*
X014115Y007137D01*
X014115Y007136D02*
X011629Y007136D01*
X014115Y007136D01*
X014115Y007135D02*
X011630Y007135D01*
X014115Y007135D01*
X014115Y007134D02*
X011631Y007134D01*
X014115Y007134D01*
X014115Y007133D02*
X011632Y007133D01*
X014115Y007133D01*
X014115Y007132D02*
X011633Y007132D01*
X014115Y007132D01*
X014115Y007131D02*
X011634Y007131D01*
X014115Y007131D01*
X014115Y007130D02*
X011635Y007130D01*
X014115Y007130D01*
X014115Y007129D02*
X011636Y007129D01*
X014115Y007129D01*
X014115Y007128D02*
X011637Y007128D01*
X014115Y007128D01*
X014115Y007127D02*
X011638Y007127D01*
X014115Y007127D01*
X014115Y007126D02*
X011639Y007126D01*
X014115Y007126D01*
X014115Y007125D02*
X013140Y007125D01*
X014115Y007125D01*
X014115Y007124D02*
X013141Y007124D01*
X014115Y007124D01*
X014115Y007123D02*
X013141Y007123D01*
X014115Y007123D01*
X014115Y007122D02*
X013142Y007122D01*
X014115Y007122D01*
X014115Y007121D02*
X013142Y007121D01*
X014115Y007121D01*
X014115Y007120D02*
X013143Y007120D01*
X014115Y007120D01*
X014115Y007119D02*
X013143Y007119D01*
X014115Y007119D01*
X014115Y007118D02*
X013144Y007118D01*
X014115Y007118D01*
X014115Y007117D02*
X013144Y007117D01*
X014115Y007117D01*
X014115Y007116D02*
X013145Y007116D01*
X014115Y007116D01*
X014115Y007115D02*
X013145Y007115D01*
X014115Y007115D01*
X014115Y007114D02*
X013146Y007114D01*
X014115Y007114D01*
X014115Y007113D02*
X013146Y007113D01*
X014115Y007113D01*
X014115Y007112D02*
X013147Y007112D01*
X014115Y007112D01*
X014115Y007111D02*
X013147Y007111D01*
X014115Y007111D01*
X014115Y007110D02*
X013148Y007110D01*
X014115Y007110D01*
X014115Y007109D02*
X013148Y007109D01*
X014115Y007109D01*
X014115Y007108D02*
X013149Y007108D01*
X014115Y007108D01*
X014115Y007107D02*
X013149Y007107D01*
X014115Y007107D01*
X014115Y007106D02*
X013150Y007106D01*
X014115Y007106D01*
X014115Y007105D02*
X013150Y007105D01*
X014115Y007105D01*
X014115Y007104D02*
X013151Y007104D01*
X014115Y007104D01*
X014115Y007103D02*
X013151Y007103D01*
X014115Y007103D01*
X014115Y007102D02*
X013152Y007102D01*
X014115Y007102D01*
X014115Y007101D02*
X013152Y007101D01*
X014115Y007101D01*
X014115Y007100D02*
X013153Y007100D01*
X014115Y007100D01*
X014115Y007099D02*
X013153Y007099D01*
X014115Y007099D01*
X014115Y007098D02*
X013154Y007098D01*
X014115Y007098D01*
X014115Y007097D02*
X013154Y007097D01*
X014115Y007097D01*
X014115Y007096D02*
X013155Y007096D01*
X014115Y007096D01*
X014115Y007095D02*
X013155Y007095D01*
X014115Y007095D01*
X014115Y007094D02*
X013156Y007094D01*
X014115Y007094D01*
X014115Y007093D02*
X013156Y007093D01*
X014115Y007093D01*
X014115Y007092D02*
X013157Y007092D01*
X014115Y007092D01*
X014115Y007091D02*
X013157Y007091D01*
X014115Y007091D01*
X014115Y007090D02*
X013158Y007090D01*
X014115Y007090D01*
X014115Y007089D02*
X013158Y007089D01*
X014115Y007089D01*
X014115Y007088D02*
X013159Y007088D01*
X014115Y007088D01*
X014115Y007087D02*
X013159Y007087D01*
X014115Y007087D01*
X014115Y007086D02*
X013160Y007086D01*
X014115Y007086D01*
X014115Y007085D02*
X013160Y007085D01*
X014115Y007085D01*
X014115Y007084D02*
X013161Y007084D01*
X014115Y007084D01*
X014115Y007083D02*
X013161Y007083D01*
X014115Y007083D01*
X014115Y007082D02*
X013162Y007082D01*
X014115Y007082D01*
X014115Y007081D02*
X013162Y007081D01*
X014115Y007081D01*
X014115Y007080D02*
X013163Y007080D01*
X014115Y007080D01*
X014115Y007079D02*
X013163Y007079D01*
X014115Y007079D01*
X014115Y007078D02*
X013164Y007078D01*
X014115Y007078D01*
X014115Y007077D02*
X013164Y007077D01*
X014115Y007077D01*
X014115Y007076D02*
X013165Y007076D01*
X014115Y007076D01*
X014115Y007075D02*
X013165Y007075D01*
X014115Y007075D01*
X014115Y007074D02*
X013166Y007074D01*
X014115Y007074D01*
X014115Y007073D02*
X013166Y007073D01*
X014115Y007073D01*
X014115Y007072D02*
X013167Y007072D01*
X014115Y007072D01*
X014115Y007071D02*
X013167Y007071D01*
X014115Y007071D01*
X014115Y007070D02*
X013168Y007070D01*
X014115Y007070D01*
X014115Y007069D02*
X013168Y007069D01*
X014115Y007069D01*
X014115Y007068D02*
X013169Y007068D01*
X014115Y007068D01*
X014115Y007067D02*
X013169Y007067D01*
X014115Y007067D01*
X014115Y007066D02*
X013170Y007066D01*
X014115Y007066D01*
X014115Y007065D02*
X013170Y007065D01*
X014115Y007065D01*
X014115Y007064D02*
X013171Y007064D01*
X014115Y007064D01*
X014115Y007063D02*
X013171Y007063D01*
X014115Y007063D01*
X014115Y007062D02*
X013172Y007062D01*
X014115Y007062D01*
X014115Y007061D02*
X013172Y007061D01*
X014115Y007061D01*
X014115Y007060D02*
X013173Y007060D01*
X014115Y007060D01*
X014115Y007059D02*
X013173Y007059D01*
X014115Y007059D01*
X014115Y007058D02*
X013174Y007058D01*
X014115Y007058D01*
X014115Y007057D02*
X013174Y007057D01*
X014115Y007057D01*
X014115Y007056D02*
X013175Y007056D01*
X014115Y007056D01*
X014115Y007055D02*
X013175Y007055D01*
X014115Y007055D01*
X014115Y007054D02*
X013176Y007054D01*
X014115Y007054D01*
X014115Y007053D02*
X013176Y007053D01*
X014115Y007053D01*
X014115Y007052D02*
X013177Y007052D01*
X014115Y007052D01*
X014115Y007051D02*
X013177Y007051D01*
X014115Y007051D01*
X014115Y007050D02*
X013178Y007050D01*
X014115Y007050D01*
X014115Y007049D02*
X013178Y007049D01*
X014115Y007049D01*
X014115Y007048D02*
X013179Y007048D01*
X014115Y007048D01*
X014115Y007047D02*
X013179Y007047D01*
X014115Y007047D01*
X014115Y007046D02*
X013180Y007046D01*
X014115Y007046D01*
X014115Y007045D02*
X013180Y007045D01*
X014115Y007045D01*
X014115Y007044D02*
X013181Y007044D01*
X014115Y007044D01*
X014115Y007043D02*
X013181Y007043D01*
X014115Y007043D01*
X014115Y007042D02*
X013182Y007042D01*
X014115Y007042D01*
X014115Y007041D02*
X013182Y007041D01*
X014115Y007041D01*
X014115Y007040D02*
X013183Y007040D01*
X014115Y007040D01*
X014115Y007039D02*
X013183Y007039D01*
X014115Y007039D01*
X014115Y007038D02*
X013184Y007038D01*
X014115Y007038D01*
X014115Y007037D02*
X013184Y007037D01*
X014115Y007037D01*
X014115Y007036D02*
X013185Y007036D01*
X014115Y007036D01*
X014115Y007035D02*
X013185Y007035D01*
X014115Y007035D01*
X014115Y007034D02*
X013186Y007034D01*
X014115Y007034D01*
X014115Y007033D02*
X013186Y007033D01*
X014115Y007033D01*
X014115Y007032D02*
X013187Y007032D01*
X014115Y007032D01*
X014115Y007031D02*
X013187Y007031D01*
X014115Y007031D01*
X014115Y007030D02*
X013188Y007030D01*
X014115Y007030D01*
X014115Y007029D02*
X013188Y007029D01*
X014115Y007029D01*
X014115Y007028D02*
X013189Y007028D01*
X014115Y007028D01*
X014115Y007027D02*
X013189Y007027D01*
X014115Y007027D01*
X014115Y007026D02*
X013190Y007026D01*
X014115Y007026D01*
X014115Y007025D02*
X013190Y007025D01*
X014115Y007025D01*
X014115Y007024D02*
X013191Y007024D01*
X014115Y007024D01*
X014115Y007023D02*
X013191Y007023D01*
X014115Y007023D01*
X014115Y007022D02*
X013192Y007022D01*
X014115Y007022D01*
X014115Y007021D02*
X013192Y007021D01*
X014115Y007021D01*
X014115Y007020D02*
X013193Y007020D01*
X014115Y007020D01*
X014115Y007019D02*
X013193Y007019D01*
X014115Y007019D01*
X014115Y007018D02*
X013194Y007018D01*
X014115Y007018D01*
X014115Y007017D02*
X013194Y007017D01*
X014115Y007017D01*
X014115Y007016D02*
X013195Y007016D01*
X014115Y007016D01*
X014115Y007015D02*
X013195Y007015D01*
X014115Y007015D01*
X014115Y007014D02*
X013196Y007014D01*
X014115Y007014D01*
X014115Y007013D02*
X013196Y007013D01*
X014115Y007013D01*
X014115Y007012D02*
X013197Y007012D01*
X014115Y007012D01*
X014115Y007011D02*
X013197Y007011D01*
X014115Y007011D01*
X014115Y007010D02*
X013198Y007010D01*
X014115Y007010D01*
X014115Y007009D02*
X013198Y007009D01*
X014115Y007009D01*
X014115Y007008D02*
X013199Y007008D01*
X014115Y007008D01*
X014115Y007007D02*
X013199Y007007D01*
X014115Y007007D01*
X014115Y007006D02*
X013200Y007006D01*
X014115Y007006D01*
X014115Y007005D02*
X013200Y007005D01*
X014115Y007005D01*
X014115Y007004D02*
X013201Y007004D01*
X014115Y007004D01*
X014115Y007003D02*
X013201Y007003D01*
X014115Y007003D01*
X014115Y007002D02*
X013202Y007002D01*
X014115Y007002D01*
X014115Y007001D02*
X013202Y007001D01*
X014115Y007001D01*
X014115Y007000D02*
X013203Y007000D01*
X014115Y007000D01*
X014115Y006999D02*
X013203Y006999D01*
X014115Y006999D01*
X014115Y006998D02*
X013204Y006998D01*
X014115Y006998D01*
X014115Y006997D02*
X013204Y006997D01*
X014115Y006997D01*
X014115Y006996D02*
X013205Y006996D01*
X014115Y006996D01*
X014115Y006995D02*
X013205Y006995D01*
X014115Y006995D01*
X014115Y006994D02*
X013206Y006994D01*
X014115Y006994D01*
X014115Y006993D02*
X013206Y006993D01*
X014115Y006993D01*
X014115Y006992D02*
X013207Y006992D01*
X014115Y006992D01*
X014115Y006991D02*
X013207Y006991D01*
X014115Y006991D01*
X014115Y006990D02*
X013208Y006990D01*
X014115Y006990D01*
X014115Y006989D02*
X013208Y006989D01*
X014115Y006989D01*
X014115Y006988D02*
X013209Y006988D01*
X014115Y006988D01*
X014115Y006987D02*
X013209Y006987D01*
X014115Y006987D01*
X014115Y006986D02*
X013210Y006986D01*
X014115Y006986D01*
X014115Y006985D02*
X013210Y006985D01*
X014115Y006985D01*
X014115Y006984D02*
X013211Y006984D01*
X014115Y006984D01*
X014115Y006983D02*
X013211Y006983D01*
X014115Y006983D01*
X014115Y006982D02*
X013212Y006982D01*
X014115Y006982D01*
X014115Y006981D02*
X013212Y006981D01*
X014115Y006981D01*
X014115Y006980D02*
X013213Y006980D01*
X014115Y006980D01*
X014115Y006979D02*
X013213Y006979D01*
X014115Y006979D01*
X014115Y006978D02*
X013214Y006978D01*
X014115Y006978D01*
X014115Y006977D02*
X013214Y006977D01*
X014115Y006977D01*
X014115Y006976D02*
X013215Y006976D01*
X014115Y006976D01*
X014115Y006975D02*
X013215Y006975D01*
X014115Y006975D01*
X014115Y006974D02*
X013216Y006974D01*
X014115Y006974D01*
X014115Y006973D02*
X013216Y006973D01*
X014115Y006973D01*
X014115Y006972D02*
X013217Y006972D01*
X014115Y006972D01*
X014115Y006971D02*
X013217Y006971D01*
X014115Y006971D01*
X014115Y006970D02*
X013218Y006970D01*
X014115Y006970D01*
X014115Y006969D02*
X013218Y006969D01*
X014115Y006969D01*
X014115Y006968D02*
X013219Y006968D01*
X014115Y006968D01*
X014115Y006967D02*
X013219Y006967D01*
X014115Y006967D01*
X014115Y006966D02*
X013220Y006966D01*
X014115Y006966D01*
X014115Y006965D02*
X013220Y006965D01*
X014115Y006965D01*
X014115Y006964D02*
X013221Y006964D01*
X014115Y006964D01*
X014115Y006963D02*
X013221Y006963D01*
X014115Y006963D01*
X014115Y006962D02*
X013222Y006962D01*
X014115Y006962D01*
X014115Y006961D02*
X013222Y006961D01*
X014115Y006961D01*
X014115Y006960D02*
X013223Y006960D01*
X014115Y006960D01*
X014115Y006959D02*
X013223Y006959D01*
X014115Y006959D01*
X014115Y006958D02*
X013224Y006958D01*
X014115Y006958D01*
X014115Y006957D02*
X013224Y006957D01*
X014115Y006957D01*
X014115Y006956D02*
X013225Y006956D01*
X014115Y006956D01*
X014115Y006955D02*
X013225Y006955D01*
X014115Y006955D01*
X014115Y006954D02*
X013226Y006954D01*
X014115Y006954D01*
X014115Y006953D02*
X013226Y006953D01*
X014115Y006953D01*
X014115Y006952D02*
X013227Y006952D01*
X014115Y006952D01*
X014115Y006951D02*
X013227Y006951D01*
X014115Y006951D01*
X014115Y006950D02*
X013228Y006950D01*
X014115Y006950D01*
X014115Y006949D02*
X013228Y006949D01*
X014115Y006949D01*
X014115Y006948D02*
X013229Y006948D01*
X014115Y006948D01*
X014115Y006947D02*
X013229Y006947D01*
X014115Y006947D01*
X014115Y006946D02*
X013230Y006946D01*
X014115Y006946D01*
X014115Y006945D02*
X013230Y006945D01*
X014115Y006945D01*
X014115Y006944D02*
X013231Y006944D01*
X014115Y006944D01*
X014115Y006943D02*
X013231Y006943D01*
X014115Y006943D01*
X014115Y006942D02*
X013232Y006942D01*
X014115Y006942D01*
X014115Y006941D02*
X013232Y006941D01*
X014115Y006941D01*
X014115Y006940D02*
X013233Y006940D01*
X014115Y006940D01*
X014115Y006939D02*
X013233Y006939D01*
X014115Y006939D01*
X014115Y006938D02*
X013234Y006938D01*
X014115Y006938D01*
X014115Y006937D02*
X013234Y006937D01*
X014115Y006937D01*
X014115Y006936D02*
X013235Y006936D01*
X014115Y006936D01*
X014115Y006935D02*
X013235Y006935D01*
X014115Y006935D01*
X014115Y006934D02*
X013236Y006934D01*
X014115Y006934D01*
X014115Y006933D02*
X013236Y006933D01*
X014115Y006933D01*
X014115Y006932D02*
X013237Y006932D01*
X014115Y006932D01*
X014115Y006931D02*
X013237Y006931D01*
X014115Y006931D01*
X014115Y006930D02*
X013238Y006930D01*
X014115Y006930D01*
X014115Y006929D02*
X013238Y006929D01*
X014115Y006929D01*
X014115Y006928D02*
X013239Y006928D01*
X014115Y006928D01*
X014115Y006927D02*
X013239Y006927D01*
X014115Y006927D01*
X014115Y006926D02*
X013240Y006926D01*
X014115Y006926D01*
X014115Y001775D02*
X012840Y001775D01*
X012839Y001774D02*
X014115Y001774D01*
X014115Y001773D02*
X012838Y001773D01*
X012837Y001772D02*
X014115Y001772D01*
X014115Y001771D02*
X012836Y001771D01*
X012835Y001770D02*
X014115Y001770D01*
X014115Y001769D02*
X012834Y001769D01*
X012833Y001768D02*
X014115Y001768D01*
X014115Y001767D02*
X012832Y001767D01*
X012831Y001766D02*
X014115Y001766D01*
X014115Y001765D02*
X012830Y001765D01*
X012829Y001764D02*
X014115Y001764D01*
X014115Y001763D02*
X012828Y001763D01*
X012827Y001762D02*
X014115Y001762D01*
X014115Y001761D02*
X012826Y001761D01*
X012825Y001760D02*
X014115Y001760D01*
X014115Y001759D02*
X012824Y001759D01*
X012823Y001758D02*
X014115Y001758D01*
X014115Y001757D02*
X012822Y001757D01*
X012821Y001756D02*
X014115Y001756D01*
X014115Y001755D02*
X012820Y001755D01*
X012819Y001754D02*
X014115Y001754D01*
X014115Y001753D02*
X012818Y001753D01*
X012817Y001752D02*
X014115Y001752D01*
X014115Y001751D02*
X012816Y001751D01*
X012815Y001750D02*
X014115Y001750D01*
X014115Y001749D02*
X012814Y001749D01*
X012813Y001748D02*
X014115Y001748D01*
X014115Y001747D02*
X012812Y001747D01*
X012811Y001746D02*
X014115Y001746D01*
X014115Y001745D02*
X012810Y001745D01*
X012809Y001744D02*
X014115Y001744D01*
X014115Y001743D02*
X012808Y001743D01*
X012807Y001742D02*
X014115Y001742D01*
X014115Y001741D02*
X012806Y001741D01*
X012805Y001740D02*
X014115Y001740D01*
X014115Y001739D02*
X012804Y001739D01*
X012803Y001738D02*
X014115Y001738D01*
X014115Y001737D02*
X012802Y001737D01*
X012801Y001736D02*
X014115Y001736D01*
X014115Y001735D02*
X012800Y001735D01*
X012799Y001734D02*
X014115Y001734D01*
X014115Y001733D02*
X012798Y001733D01*
X012797Y001732D02*
X014115Y001732D01*
X014115Y001731D02*
X012796Y001731D01*
X012795Y001730D02*
X014115Y001730D01*
X014115Y001729D02*
X012794Y001729D01*
X012793Y001728D02*
X014115Y001728D01*
X014115Y001727D02*
X012792Y001727D01*
X012791Y001726D02*
X014115Y001726D01*
X014115Y001725D02*
X012790Y001725D01*
X012789Y001724D02*
X014115Y001724D01*
X014115Y001723D02*
X012788Y001723D01*
X012787Y001722D02*
X014115Y001722D01*
X014115Y001721D02*
X012786Y001721D01*
X012785Y001720D02*
X014115Y001720D01*
X014115Y001719D02*
X012784Y001719D01*
X012783Y001718D02*
X014115Y001718D01*
X014115Y001717D02*
X012782Y001717D01*
X012781Y001716D02*
X014115Y001716D01*
X014115Y001715D02*
X012780Y001715D01*
X012779Y001714D02*
X014115Y001714D01*
X014115Y001713D02*
X012778Y001713D01*
X012777Y001712D02*
X014115Y001712D01*
X014115Y001711D02*
X012776Y001711D01*
X012775Y001710D02*
X014115Y001710D01*
X014115Y001709D02*
X012774Y001709D01*
X012773Y001708D02*
X014115Y001708D01*
X014115Y001707D02*
X012772Y001707D01*
X012771Y001706D02*
X014115Y001706D01*
X014115Y001705D02*
X012770Y001705D01*
X012769Y001704D02*
X014115Y001704D01*
X014115Y001703D02*
X012768Y001703D01*
X012767Y001702D02*
X014115Y001702D01*
X014115Y001701D02*
X012766Y001701D01*
X012765Y001700D02*
X014115Y001700D01*
X014115Y001699D02*
X012764Y001699D01*
X012763Y001698D02*
X014115Y001698D01*
X014115Y001697D02*
X012762Y001697D01*
X012761Y001696D02*
X014115Y001696D01*
X014115Y001695D02*
X012760Y001695D01*
X012759Y001694D02*
X014115Y001694D01*
X014115Y001693D02*
X012758Y001693D01*
X012757Y001692D02*
X014115Y001692D01*
X014115Y001691D02*
X012756Y001691D01*
X012755Y001690D02*
X014115Y001690D01*
X014115Y001689D02*
X012754Y001689D01*
X012753Y001688D02*
X014115Y001688D01*
X014115Y001687D02*
X012752Y001687D01*
X012751Y001686D02*
X014115Y001686D01*
X014115Y001685D02*
X012750Y001685D01*
X012749Y001684D02*
X014115Y001684D01*
X014115Y001683D02*
X012748Y001683D01*
X012747Y001682D02*
X014115Y001682D01*
X014115Y001681D02*
X012746Y001681D01*
X012745Y001680D02*
X014115Y001680D01*
X014115Y001679D02*
X012744Y001679D01*
X012743Y001678D02*
X014115Y001678D01*
X014115Y001677D02*
X012742Y001677D01*
X012741Y001676D02*
X014115Y001676D01*
X014115Y001675D02*
X012740Y001675D01*
X012739Y001674D02*
X014115Y001674D01*
X014115Y001673D02*
X012738Y001673D01*
X012737Y001672D02*
X014115Y001672D01*
X014115Y001671D02*
X012736Y001671D01*
X012735Y001670D02*
X014115Y001670D01*
X014115Y001669D02*
X012734Y001669D01*
X012733Y001668D02*
X014115Y001668D01*
X014115Y001667D02*
X012732Y001667D01*
X012731Y001666D02*
X014115Y001666D01*
X014115Y001665D02*
X012730Y001665D01*
X012729Y001664D02*
X014115Y001664D01*
X014115Y001663D02*
X012728Y001663D01*
X012727Y001662D02*
X014115Y001662D01*
X014115Y001661D02*
X012726Y001661D01*
X012725Y001660D02*
X014115Y001660D01*
X014115Y001659D02*
X012724Y001659D01*
X012723Y001658D02*
X014115Y001658D01*
X014115Y001657D02*
X012722Y001657D01*
X012721Y001656D02*
X014115Y001656D01*
X014115Y001655D02*
X012720Y001655D01*
X012719Y001654D02*
X014115Y001654D01*
X014115Y001653D02*
X012718Y001653D01*
X012717Y001652D02*
X014115Y001652D01*
X014115Y001651D02*
X012716Y001651D01*
X012715Y001650D02*
X014115Y001650D01*
X014115Y001649D02*
X012714Y001649D01*
X012713Y001648D02*
X014115Y001648D01*
X014115Y001647D02*
X012712Y001647D01*
X012711Y001646D02*
X014115Y001646D01*
X014115Y001645D02*
X012710Y001645D01*
X012709Y001644D02*
X014115Y001644D01*
X014115Y001643D02*
X012708Y001643D01*
X012707Y001642D02*
X014115Y001642D01*
X014115Y001641D02*
X012706Y001641D01*
X012705Y001640D02*
X014115Y001640D01*
X014115Y001639D02*
X012704Y001639D01*
X012703Y001638D02*
X014115Y001638D01*
X014115Y001637D02*
X012702Y001637D01*
X012701Y001636D02*
X014115Y001636D01*
X014115Y001635D02*
X012700Y001635D01*
X012699Y001634D02*
X014115Y001634D01*
X014115Y001633D02*
X012698Y001633D01*
X012697Y001632D02*
X014115Y001632D01*
X014115Y001631D02*
X012696Y001631D01*
X012695Y001630D02*
X014115Y001630D01*
X014115Y001629D02*
X012694Y001629D01*
X012693Y001628D02*
X014115Y001628D01*
X014115Y001627D02*
X012692Y001627D01*
X012691Y001626D02*
X014115Y001626D01*
X014115Y001625D02*
X012690Y001625D01*
X012689Y001624D02*
X014115Y001624D01*
X014115Y001623D02*
X012688Y001623D01*
X012687Y001622D02*
X014115Y001622D01*
X014115Y001621D02*
X012686Y001621D01*
X012685Y001620D02*
X014115Y001620D01*
X014115Y001619D02*
X012684Y001619D01*
X012683Y001618D02*
X014115Y001618D01*
X014115Y001617D02*
X012682Y001617D01*
X012681Y001616D02*
X014115Y001616D01*
X014115Y001615D02*
X012680Y001615D01*
X012679Y001614D02*
X014115Y001614D01*
X014115Y001613D02*
X012678Y001613D01*
X012677Y001612D02*
X014115Y001612D01*
X014115Y001611D02*
X012676Y001611D01*
X012675Y001610D02*
X014115Y001610D01*
X014115Y001609D02*
X012674Y001609D01*
X012673Y001608D02*
X014115Y001608D01*
X014115Y001607D02*
X012672Y001607D01*
X012671Y001606D02*
X014115Y001606D01*
X014115Y001605D02*
X012670Y001605D01*
X012669Y001604D02*
X014115Y001604D01*
X014115Y001603D02*
X012668Y001603D01*
X012667Y001602D02*
X014115Y001602D01*
X014115Y001601D02*
X012666Y001601D01*
X012665Y001600D02*
X014115Y001600D01*
X014115Y001599D02*
X012664Y001599D01*
X012663Y001598D02*
X014115Y001598D01*
X014115Y001597D02*
X012662Y001597D01*
X012661Y001596D02*
X014115Y001596D01*
X014115Y001595D02*
X012660Y001595D01*
X012659Y001594D02*
X014115Y001594D01*
X014115Y001593D02*
X012658Y001593D01*
X012657Y001592D02*
X014115Y001592D01*
X014115Y001591D02*
X012656Y001591D01*
X012655Y001590D02*
X014115Y001590D01*
X014115Y001589D02*
X012654Y001589D01*
X012653Y001588D02*
X014115Y001588D01*
X014115Y001587D02*
X012652Y001587D01*
X012651Y001586D02*
X014115Y001586D01*
X014115Y001585D02*
X012650Y001585D01*
X012649Y001584D02*
X014115Y001584D01*
X014115Y001583D02*
X012648Y001583D01*
X012647Y001582D02*
X014115Y001582D01*
X014115Y001581D02*
X012646Y001581D01*
X012645Y001580D02*
X014115Y001580D01*
X014115Y001579D02*
X012644Y001579D01*
X012643Y001578D02*
X014115Y001578D01*
X014115Y001577D02*
X012642Y001577D01*
X012641Y001576D02*
X014115Y001576D01*
X014115Y001575D02*
X012640Y001575D01*
X011539Y001574D02*
X014115Y001574D01*
X014115Y001573D02*
X011538Y001573D01*
X011537Y001572D02*
X014115Y001572D01*
X014115Y001571D02*
X011536Y001571D01*
X011535Y001570D02*
X014115Y001570D01*
X014115Y001569D02*
X011534Y001569D01*
X011533Y001568D02*
X014115Y001568D01*
X014115Y001567D02*
X011532Y001567D01*
X011531Y001566D02*
X014115Y001566D01*
X014115Y001565D02*
X011530Y001565D01*
X011529Y001564D02*
X014115Y001564D01*
X014115Y001563D02*
X011528Y001563D01*
X011527Y001562D02*
X014115Y001562D01*
X014115Y001561D02*
X011526Y001561D01*
X011525Y001560D02*
X014115Y001560D01*
X014115Y001559D02*
X011524Y001559D01*
X011523Y001558D02*
X014115Y001558D01*
X014115Y001557D02*
X011522Y001557D01*
X011521Y001556D02*
X014115Y001556D01*
X014115Y001555D02*
X011520Y001555D01*
X011519Y001554D02*
X014115Y001554D01*
X014115Y001553D02*
X011518Y001553D01*
X011517Y001552D02*
X014115Y001552D01*
X014115Y001551D02*
X011516Y001551D01*
X011515Y001550D02*
X014115Y001550D01*
X014115Y001549D02*
X011514Y001549D01*
X011513Y001548D02*
X014115Y001548D01*
X014115Y001547D02*
X011512Y001547D01*
X011511Y001546D02*
X014115Y001546D01*
X014115Y001545D02*
X011510Y001545D01*
X011509Y001544D02*
X014115Y001544D01*
X014115Y001543D02*
X011508Y001543D01*
X011507Y001542D02*
X014115Y001542D01*
X014115Y001541D02*
X011506Y001541D01*
X011505Y001540D02*
X014115Y001540D01*
X014115Y001539D02*
X011504Y001539D01*
X011503Y001538D02*
X014115Y001538D01*
X014115Y001537D02*
X011502Y001537D01*
X011501Y001536D02*
X014115Y001536D01*
X014115Y001535D02*
X011500Y001535D01*
X011499Y001534D02*
X014115Y001534D01*
X014115Y001533D02*
X011498Y001533D01*
X011497Y001532D02*
X014115Y001532D01*
X014115Y001531D02*
X011496Y001531D01*
X011495Y001530D02*
X014115Y001530D01*
X014115Y001529D02*
X011494Y001529D01*
X011493Y001528D02*
X014115Y001528D01*
X014115Y001527D02*
X011492Y001527D01*
X011491Y001526D02*
X014115Y001526D01*
X014115Y001525D02*
X011490Y001525D01*
X011489Y001524D02*
X014115Y001524D01*
X014115Y001523D02*
X011488Y001523D01*
X011487Y001522D02*
X014115Y001522D01*
X014115Y001521D02*
X011486Y001521D01*
X011485Y001520D02*
X014115Y001520D01*
X014115Y001519D02*
X011484Y001519D01*
X011483Y001518D02*
X014115Y001518D01*
X014115Y001517D02*
X011482Y001517D01*
X011481Y001516D02*
X014115Y001516D01*
X014115Y001515D02*
X011480Y001515D01*
X011479Y001514D02*
X014115Y001514D01*
X014115Y001513D02*
X011478Y001513D01*
X011477Y001512D02*
X014115Y001512D01*
X014115Y001511D02*
X011476Y001511D01*
X011475Y001510D02*
X014115Y001510D01*
X014115Y001509D02*
X011474Y001509D01*
X011473Y001508D02*
X014115Y001508D01*
X014115Y001507D02*
X011472Y001507D01*
X011471Y001506D02*
X014115Y001506D01*
X014115Y001505D02*
X011470Y001505D01*
X011469Y001504D02*
X014115Y001504D01*
X014115Y001503D02*
X011468Y001503D01*
X011467Y001502D02*
X014115Y001502D01*
X014115Y001501D02*
X011466Y001501D01*
X011465Y001500D02*
X014115Y001500D01*
X014115Y001499D02*
X011464Y001499D01*
X011463Y001498D02*
X014115Y001498D01*
X014115Y001497D02*
X011462Y001497D01*
X011461Y001496D02*
X014115Y001496D01*
X014115Y001495D02*
X011460Y001495D01*
X011459Y001494D02*
X014115Y001494D01*
X014115Y001493D02*
X011458Y001493D01*
X011457Y001492D02*
X014115Y001492D01*
X014115Y001491D02*
X011456Y001491D01*
X011455Y001490D02*
X014115Y001490D01*
X014115Y001489D02*
X011454Y001489D01*
X011453Y001488D02*
X014115Y001488D01*
X014115Y001487D02*
X011452Y001487D01*
X011451Y001486D02*
X014115Y001486D01*
X014115Y001485D02*
X011450Y001485D01*
X011449Y001484D02*
X014115Y001484D01*
X014115Y001483D02*
X011448Y001483D01*
X011447Y001482D02*
X014115Y001482D01*
X014115Y001481D02*
X011446Y001481D01*
X011445Y001480D02*
X014115Y001480D01*
X014115Y001479D02*
X011444Y001479D01*
X011443Y001478D02*
X014115Y001478D01*
X014115Y001477D02*
X011442Y001477D01*
X011441Y001476D02*
X014115Y001476D01*
X014115Y001475D02*
X011440Y001475D01*
X011440Y001474D02*
X014115Y001474D01*
X014115Y001473D02*
X011440Y001473D01*
X011440Y001472D02*
X014115Y001472D01*
X014115Y001471D02*
X011440Y001471D01*
X011440Y001470D02*
X014115Y001470D01*
X014115Y001469D02*
X011440Y001469D01*
X011440Y001468D02*
X014115Y001468D01*
X014115Y001467D02*
X011440Y001467D01*
X011440Y001466D02*
X014115Y001466D01*
X014115Y001465D02*
X011440Y001465D01*
X011440Y001464D02*
X014115Y001464D01*
X014115Y001463D02*
X011440Y001463D01*
X011440Y001462D02*
X014115Y001462D01*
X014115Y001461D02*
X011440Y001461D01*
X011440Y001460D02*
X014115Y001460D01*
X014115Y001459D02*
X011440Y001459D01*
X011440Y001458D02*
X014115Y001458D01*
X014115Y001457D02*
X011440Y001457D01*
X011440Y001456D02*
X014115Y001456D01*
X014115Y001455D02*
X011440Y001455D01*
X011440Y001454D02*
X014115Y001454D01*
X014115Y001453D02*
X011440Y001453D01*
X011440Y001452D02*
X014115Y001452D01*
X014115Y001451D02*
X011440Y001451D01*
X011440Y001450D02*
X014115Y001450D01*
X014115Y001449D02*
X011440Y001449D01*
X011440Y001448D02*
X014115Y001448D01*
X014115Y001447D02*
X011440Y001447D01*
X011440Y001446D02*
X014115Y001446D01*
X014115Y001445D02*
X011440Y001445D01*
X011440Y001444D02*
X014115Y001444D01*
X014115Y001443D02*
X011440Y001443D01*
X011440Y001442D02*
X014115Y001442D01*
X014115Y001441D02*
X011440Y001441D01*
X011440Y001440D02*
X014115Y001440D01*
X014115Y001439D02*
X011440Y001439D01*
X011440Y001438D02*
X014115Y001438D01*
X014115Y001437D02*
X011440Y001437D01*
X011440Y001436D02*
X014115Y001436D01*
X014115Y001435D02*
X011440Y001435D01*
X011440Y001434D02*
X014115Y001434D01*
X014115Y001433D02*
X011440Y001433D01*
X011440Y001432D02*
X014115Y001432D01*
X014115Y001431D02*
X011440Y001431D01*
X011440Y001430D02*
X014115Y001430D01*
X014115Y001429D02*
X011440Y001429D01*
X011440Y001428D02*
X014115Y001428D01*
X014115Y001427D02*
X011440Y001427D01*
X011440Y001426D02*
X014115Y001426D01*
X014115Y001425D02*
X011440Y001425D01*
X011440Y001424D02*
X014115Y001424D01*
X014115Y001423D02*
X011440Y001423D01*
X011440Y001422D02*
X014115Y001422D01*
X014115Y001421D02*
X011440Y001421D01*
X011440Y001420D02*
X014115Y001420D01*
X014115Y001419D02*
X011440Y001419D01*
X011440Y001418D02*
X014115Y001418D01*
X014115Y001417D02*
X011440Y001417D01*
X011440Y001416D02*
X014115Y001416D01*
X014115Y001415D02*
X011440Y001415D01*
X011440Y001414D02*
X014115Y001414D01*
X014115Y001413D02*
X011440Y001413D01*
X011440Y001412D02*
X014115Y001412D01*
X014115Y001411D02*
X011440Y001411D01*
X011440Y001410D02*
X014115Y001410D01*
X014115Y001409D02*
X011440Y001409D01*
X011440Y001408D02*
X014115Y001408D01*
X014115Y001407D02*
X011440Y001407D01*
X011440Y001406D02*
X014115Y001406D01*
X014115Y001405D02*
X011440Y001405D01*
X011440Y001404D02*
X014115Y001404D01*
X014115Y001403D02*
X011440Y001403D01*
X011440Y001402D02*
X014115Y001402D01*
X014115Y001401D02*
X011440Y001401D01*
X011440Y001400D02*
X014115Y001400D01*
X014115Y001399D02*
X011440Y001399D01*
X011440Y001398D02*
X014115Y001398D01*
X014115Y001397D02*
X011440Y001397D01*
X011440Y001396D02*
X014115Y001396D01*
X014115Y001395D02*
X011440Y001395D01*
X011440Y001394D02*
X014115Y001394D01*
X014115Y001393D02*
X011440Y001393D01*
X011440Y001392D02*
X014115Y001392D01*
X014115Y001391D02*
X011440Y001391D01*
X011440Y001390D02*
X014115Y001390D01*
X014115Y001389D02*
X011440Y001389D01*
X011440Y001388D02*
X014115Y001388D01*
X014115Y001387D02*
X011440Y001387D01*
X011440Y001386D02*
X014115Y001386D01*
X014115Y001385D02*
X011440Y001385D01*
X011440Y001384D02*
X014115Y001384D01*
X014115Y001383D02*
X011440Y001383D01*
X011440Y001382D02*
X014115Y001382D01*
X014115Y001381D02*
X011440Y001381D01*
X011440Y001380D02*
X014115Y001380D01*
X014115Y001379D02*
X011440Y001379D01*
X011440Y001378D02*
X014115Y001378D01*
X014115Y001377D02*
X011440Y001377D01*
X011440Y001376D02*
X014115Y001376D01*
X014115Y001375D02*
X011440Y001375D01*
X011440Y001374D02*
X014115Y001374D01*
X014115Y001373D02*
X011440Y001373D01*
X011440Y001372D02*
X014115Y001372D01*
X014115Y001371D02*
X011440Y001371D01*
X011440Y001370D02*
X014115Y001370D01*
X014115Y001369D02*
X011440Y001369D01*
X011440Y001368D02*
X014115Y001368D01*
X014115Y001367D02*
X011440Y001367D01*
X011440Y001366D02*
X014115Y001366D01*
X014115Y001365D02*
X011440Y001365D01*
X011440Y001364D02*
X014115Y001364D01*
X014115Y001363D02*
X011440Y001363D01*
X011440Y001362D02*
X014115Y001362D01*
X014115Y001361D02*
X011440Y001361D01*
X011440Y001360D02*
X014115Y001360D01*
X014115Y001359D02*
X011440Y001359D01*
X011440Y001358D02*
X014115Y001358D01*
X014115Y001357D02*
X011440Y001357D01*
X011440Y001356D02*
X014115Y001356D01*
X014115Y001355D02*
X011440Y001355D01*
X011440Y001354D02*
X014115Y001354D01*
X014115Y001353D02*
X011440Y001353D01*
X011440Y001352D02*
X014115Y001352D01*
X014115Y001351D02*
X011440Y001351D01*
X011440Y001350D02*
X014115Y001350D01*
X014115Y001349D02*
X011440Y001349D01*
X011440Y001348D02*
X014115Y001348D01*
X014115Y001347D02*
X011440Y001347D01*
X011440Y001346D02*
X014115Y001346D01*
X014115Y001345D02*
X011440Y001345D01*
X011440Y001344D02*
X014115Y001344D01*
X014115Y001343D02*
X011440Y001343D01*
X011440Y001342D02*
X014115Y001342D01*
X014115Y001341D02*
X011440Y001341D01*
X011440Y001340D02*
X014115Y001340D01*
X014115Y001339D02*
X011440Y001339D01*
X011440Y001338D02*
X014115Y001338D01*
X014115Y001337D02*
X011440Y001337D01*
X011440Y001336D02*
X014115Y001336D01*
X014115Y001335D02*
X011440Y001335D01*
X011440Y001334D02*
X014115Y001334D01*
X014115Y001333D02*
X011440Y001333D01*
X011440Y001332D02*
X014115Y001332D01*
X014115Y001331D02*
X011440Y001331D01*
X011440Y001330D02*
X014115Y001330D01*
X014115Y001329D02*
X011440Y001329D01*
X011440Y001328D02*
X014115Y001328D01*
X014115Y001327D02*
X011440Y001327D01*
X011440Y001326D02*
X014115Y001326D01*
X014115Y001325D02*
X011440Y001325D01*
X011440Y001324D02*
X014115Y001324D01*
X014115Y001323D02*
X011440Y001323D01*
X011440Y001322D02*
X014115Y001322D01*
X014115Y001321D02*
X011440Y001321D01*
X011440Y001320D02*
X014115Y001320D01*
X014115Y001319D02*
X011440Y001319D01*
X011440Y001318D02*
X014115Y001318D01*
X014115Y001317D02*
X011440Y001317D01*
X011440Y001316D02*
X014115Y001316D01*
X014115Y001315D02*
X011440Y001315D01*
X011440Y001314D02*
X014115Y001314D01*
X014115Y001313D02*
X011440Y001313D01*
X011440Y001312D02*
X014115Y001312D01*
X014115Y001311D02*
X011440Y001311D01*
X011440Y001310D02*
X014115Y001310D01*
X014115Y001309D02*
X011440Y001309D01*
X011440Y001308D02*
X014115Y001308D01*
X014115Y001307D02*
X011440Y001307D01*
X011440Y001306D02*
X014115Y001306D01*
X014115Y001305D02*
X011440Y001305D01*
X011440Y001304D02*
X014115Y001304D01*
X014115Y001303D02*
X011440Y001303D01*
X011440Y001302D02*
X014115Y001302D01*
X014115Y001301D02*
X011440Y001301D01*
X011440Y001300D02*
X014115Y001300D01*
X014115Y001299D02*
X011440Y001299D01*
X011440Y001298D02*
X014115Y001298D01*
X014115Y001297D02*
X011440Y001297D01*
X011440Y001296D02*
X014115Y001296D01*
X014115Y001295D02*
X011440Y001295D01*
X011440Y001294D02*
X014115Y001294D01*
X014115Y001293D02*
X011440Y001293D01*
X011440Y001292D02*
X014115Y001292D01*
X014115Y001291D02*
X011440Y001291D01*
X011440Y001290D02*
X014115Y001290D01*
X014115Y001289D02*
X011440Y001289D01*
X011440Y001288D02*
X014115Y001288D01*
X014115Y001287D02*
X011440Y001287D01*
X011440Y001286D02*
X014115Y001286D01*
X014115Y001285D02*
X011440Y001285D01*
X011440Y001284D02*
X014115Y001284D01*
X014115Y001283D02*
X011440Y001283D01*
X011440Y001282D02*
X014115Y001282D01*
X014115Y001281D02*
X011440Y001281D01*
X011440Y001280D02*
X014115Y001280D01*
X014115Y001279D02*
X011440Y001279D01*
X011440Y001278D02*
X014115Y001278D01*
X014115Y001277D02*
X011440Y001277D01*
X011440Y001276D02*
X014115Y001276D01*
X014115Y001275D02*
X011440Y001275D01*
X011440Y001274D02*
X014115Y001274D01*
X014115Y001273D02*
X011440Y001273D01*
X011440Y001272D02*
X014115Y001272D01*
X014115Y001271D02*
X011440Y001271D01*
X011440Y001270D02*
X014115Y001270D01*
X014115Y001269D02*
X011440Y001269D01*
X011440Y001268D02*
X014115Y001268D01*
X014115Y001267D02*
X011440Y001267D01*
X011440Y001266D02*
X014115Y001266D01*
X014115Y001265D02*
X011440Y001265D01*
X011440Y001264D02*
X014115Y001264D01*
X014115Y001263D02*
X011440Y001263D01*
X011440Y001262D02*
X014115Y001262D01*
X014115Y001261D02*
X011440Y001261D01*
X011440Y001260D02*
X014115Y001260D01*
X014115Y001259D02*
X011440Y001259D01*
X011440Y001258D02*
X014115Y001258D01*
X014115Y001257D02*
X011440Y001257D01*
X011440Y001256D02*
X014115Y001256D01*
X014115Y001255D02*
X011440Y001255D01*
X011440Y001254D02*
X014115Y001254D01*
X014115Y001253D02*
X011440Y001253D01*
X011440Y001252D02*
X014115Y001252D01*
X014115Y001251D02*
X011440Y001251D01*
X011440Y001250D02*
X014115Y001250D01*
X014115Y001249D02*
X011440Y001249D01*
X011440Y001248D02*
X014115Y001248D01*
X014115Y001247D02*
X011440Y001247D01*
X011440Y001246D02*
X014115Y001246D01*
X014115Y001245D02*
X011440Y001245D01*
X011440Y001244D02*
X014115Y001244D01*
X014115Y001243D02*
X011440Y001243D01*
X011440Y001242D02*
X014115Y001242D01*
X014115Y001241D02*
X011440Y001241D01*
X011440Y001240D02*
X014115Y001240D01*
X014115Y001239D02*
X011440Y001239D01*
X011440Y001238D02*
X014115Y001238D01*
X014115Y001237D02*
X011440Y001237D01*
X011440Y001236D02*
X014115Y001236D01*
X014115Y001235D02*
X011440Y001235D01*
X011440Y001234D02*
X014115Y001234D01*
X014115Y001233D02*
X011440Y001233D01*
X011440Y001232D02*
X014115Y001232D01*
X014115Y001231D02*
X011440Y001231D01*
X011440Y001230D02*
X014115Y001230D01*
X014115Y001229D02*
X011440Y001229D01*
X011440Y001228D02*
X014115Y001228D01*
X014115Y001227D02*
X011440Y001227D01*
X011440Y001226D02*
X014115Y001226D01*
X014115Y001225D02*
X011440Y001225D01*
X011440Y001224D02*
X014115Y001224D01*
X014115Y001223D02*
X011440Y001223D01*
X011440Y001222D02*
X014115Y001222D01*
X014115Y001221D02*
X011440Y001221D01*
X011440Y001220D02*
X014115Y001220D01*
X014115Y001219D02*
X011440Y001219D01*
X011440Y001218D02*
X014115Y001218D01*
X014115Y001217D02*
X011440Y001217D01*
X011440Y001216D02*
X014115Y001216D01*
X014115Y001215D02*
X011440Y001215D01*
X011440Y001214D02*
X014115Y001214D01*
X014115Y001213D02*
X011440Y001213D01*
X011440Y001212D02*
X014115Y001212D01*
X014115Y001211D02*
X011440Y001211D01*
X011440Y001210D02*
X014115Y001210D01*
X014115Y001209D02*
X011440Y001209D01*
X011440Y001208D02*
X014115Y001208D01*
X014115Y001207D02*
X011440Y001207D01*
X011440Y001206D02*
X014115Y001206D01*
X014115Y001205D02*
X011440Y001205D01*
X011440Y001204D02*
X014115Y001204D01*
X014115Y001203D02*
X011440Y001203D01*
X011440Y001202D02*
X014115Y001202D01*
X014115Y001201D02*
X011440Y001201D01*
X011440Y001200D02*
X014115Y001200D01*
X014115Y001199D02*
X011440Y001199D01*
X011440Y001198D02*
X014115Y001198D01*
X014115Y001197D02*
X011440Y001197D01*
X011440Y001196D02*
X014115Y001196D01*
X014115Y001195D02*
X011440Y001195D01*
X011440Y001194D02*
X014115Y001194D01*
X014115Y001193D02*
X011440Y001193D01*
X011440Y001192D02*
X014115Y001192D01*
X014115Y001191D02*
X011440Y001191D01*
X011440Y001190D02*
X014115Y001190D01*
X014115Y001189D02*
X011440Y001189D01*
X011440Y001188D02*
X014115Y001188D01*
X014115Y001187D02*
X011440Y001187D01*
X011440Y001186D02*
X014115Y001186D01*
X014115Y001185D02*
X011440Y001185D01*
X011440Y001184D02*
X014115Y001184D01*
X014115Y001183D02*
X011440Y001183D01*
X011440Y001182D02*
X014115Y001182D01*
X014115Y001181D02*
X011440Y001181D01*
X011440Y001180D02*
X014115Y001180D01*
X014115Y001179D02*
X011440Y001179D01*
X011440Y001178D02*
X014115Y001178D01*
X014115Y001177D02*
X011440Y001177D01*
X011440Y001176D02*
X014115Y001176D01*
X014115Y001175D02*
X011440Y001175D01*
X011440Y001174D02*
X014115Y001174D01*
X014115Y001173D02*
X011440Y001173D01*
X011440Y001172D02*
X014115Y001172D01*
X014115Y001171D02*
X011440Y001171D01*
X011440Y001170D02*
X014115Y001170D01*
X014115Y001169D02*
X011440Y001169D01*
X011440Y001168D02*
X014115Y001168D01*
X014115Y001167D02*
X011440Y001167D01*
X011440Y001166D02*
X014115Y001166D01*
X014115Y001165D02*
X011440Y001165D01*
X011440Y001164D02*
X014115Y001164D01*
X014115Y001163D02*
X011440Y001163D01*
X011440Y001162D02*
X014115Y001162D01*
X014115Y001161D02*
X011440Y001161D01*
X011440Y001160D02*
X014115Y001160D01*
X014115Y001159D02*
X011440Y001159D01*
X011440Y001158D02*
X014115Y001158D01*
X014115Y001157D02*
X011440Y001157D01*
X011440Y001156D02*
X014115Y001156D01*
X014115Y001155D02*
X011440Y001155D01*
X011440Y001154D02*
X014115Y001154D01*
X014115Y001153D02*
X011440Y001153D01*
X011440Y001152D02*
X014115Y001152D01*
X014115Y001151D02*
X011440Y001151D01*
X011440Y001150D02*
X014115Y001150D01*
X014115Y001149D02*
X011440Y001149D01*
X011440Y001148D02*
X014115Y001148D01*
X014115Y001147D02*
X011440Y001147D01*
X011440Y001146D02*
X014115Y001146D01*
X014115Y001145D02*
X011440Y001145D01*
X011440Y001144D02*
X014115Y001144D01*
X014115Y001143D02*
X011440Y001143D01*
X011440Y001142D02*
X014115Y001142D01*
X014115Y001141D02*
X011440Y001141D01*
X011440Y001140D02*
X014115Y001140D01*
X014115Y001139D02*
X011440Y001139D01*
X011440Y001138D02*
X014115Y001138D01*
X014115Y001137D02*
X011440Y001137D01*
X011440Y001136D02*
X014115Y001136D01*
X014115Y001135D02*
X011440Y001135D01*
X011440Y001134D02*
X014115Y001134D01*
X014115Y001133D02*
X011440Y001133D01*
X011440Y001132D02*
X014115Y001132D01*
X014115Y001131D02*
X011440Y001131D01*
X011440Y001130D02*
X014115Y001130D01*
X014115Y001129D02*
X011440Y001129D01*
X011440Y001128D02*
X014115Y001128D01*
X014115Y001127D02*
X011440Y001127D01*
X011440Y001126D02*
X014115Y001126D01*
X014115Y001125D02*
X011440Y001125D01*
X011440Y001124D02*
X014115Y001124D01*
X014115Y001123D02*
X011440Y001123D01*
X011440Y001122D02*
X014115Y001122D01*
X014115Y001121D02*
X011440Y001121D01*
X011440Y001120D02*
X014115Y001120D01*
X014115Y001119D02*
X011440Y001119D01*
X011440Y001118D02*
X014115Y001118D01*
X014115Y001117D02*
X011440Y001117D01*
X011440Y001116D02*
X014115Y001116D01*
X014115Y001115D02*
X011440Y001115D01*
X011440Y001114D02*
X014115Y001114D01*
X014115Y001113D02*
X011440Y001113D01*
X011440Y001112D02*
X014115Y001112D01*
X014115Y001111D02*
X011440Y001111D01*
X011440Y001110D02*
X014115Y001110D01*
X014115Y001109D02*
X011440Y001109D01*
X011440Y001108D02*
X014115Y001108D01*
X011440Y001108D01*
X011440Y001107D02*
X014115Y001107D01*
X014115Y001106D02*
X011440Y001106D01*
X011440Y001105D02*
X014115Y001105D01*
X014115Y001104D02*
X011440Y001104D01*
X011440Y001103D02*
X014115Y001103D01*
X014115Y001102D02*
X011440Y001102D01*
X011440Y001101D02*
X014115Y001101D01*
X014115Y001100D02*
X011440Y001100D01*
X011440Y001099D02*
X014115Y001099D01*
X014115Y001098D02*
X011440Y001098D01*
X011440Y001097D02*
X014115Y001097D01*
X014115Y001096D02*
X011440Y001096D01*
X011440Y001095D02*
X014115Y001095D01*
X014115Y001094D02*
X011440Y001094D01*
X011440Y001093D02*
X014115Y001093D01*
X014115Y001092D02*
X011440Y001092D01*
X011440Y001091D02*
X014115Y001091D01*
X014115Y001090D02*
X011440Y001090D01*
X011440Y001089D02*
X014115Y001089D01*
X014115Y001088D02*
X011440Y001088D01*
X011440Y001087D02*
X014115Y001087D01*
X014115Y001086D02*
X011440Y001086D01*
X011440Y001085D02*
X014115Y001085D01*
X014115Y001084D02*
X011440Y001084D01*
X011440Y001083D02*
X014115Y001083D01*
X014115Y001082D02*
X011440Y001082D01*
X011440Y001081D02*
X014115Y001081D01*
X014115Y001080D02*
X011440Y001080D01*
X011440Y001079D02*
X014115Y001079D01*
X014115Y001078D02*
X011440Y001078D01*
X011440Y001077D02*
X014115Y001077D01*
X014115Y001076D02*
X011440Y001076D01*
X011440Y001075D02*
X014115Y001075D01*
X014115Y001074D02*
X011440Y001074D01*
X011440Y001073D02*
X014115Y001073D01*
X014115Y001072D02*
X011440Y001072D01*
X011440Y001071D02*
X014115Y001071D01*
X014115Y001070D02*
X011440Y001070D01*
X011440Y001069D02*
X014115Y001069D01*
X014115Y001068D02*
X011440Y001068D01*
X011440Y001067D02*
X014115Y001067D01*
X014115Y001066D02*
X011440Y001066D01*
X011440Y001065D02*
X014115Y001065D01*
X014115Y001064D02*
X011440Y001064D01*
X011440Y001063D02*
X014115Y001063D01*
X014115Y001062D02*
X011440Y001062D01*
X011440Y001061D02*
X014115Y001061D01*
X014115Y001060D02*
X011440Y001060D01*
X011440Y001059D02*
X014115Y001059D01*
X014115Y001058D02*
X011440Y001058D01*
X011440Y001057D02*
X014115Y001057D01*
X014115Y001056D02*
X011440Y001056D01*
X011440Y001055D02*
X014115Y001055D01*
X014115Y001054D02*
X011440Y001054D01*
X011440Y001053D02*
X014115Y001053D01*
X014115Y001052D02*
X011440Y001052D01*
X011440Y001051D02*
X014115Y001051D01*
X014115Y001050D02*
X011440Y001050D01*
X011440Y001049D02*
X014115Y001049D01*
X014115Y001048D02*
X011440Y001048D01*
X011440Y001047D02*
X014115Y001047D01*
X014115Y001046D02*
X011440Y001046D01*
X011440Y001045D02*
X014115Y001045D01*
X014115Y001044D02*
X011440Y001044D01*
X011440Y001043D02*
X014115Y001043D01*
X014115Y001042D02*
X011440Y001042D01*
X011440Y001041D02*
X014115Y001041D01*
X014115Y001040D02*
X011440Y001040D01*
X011440Y001039D02*
X014115Y001039D01*
X014115Y001038D02*
X011440Y001038D01*
X011440Y001037D02*
X014115Y001037D01*
X014115Y001036D02*
X011440Y001036D01*
X011440Y001035D02*
X014115Y001035D01*
X014115Y001034D02*
X011440Y001034D01*
X011440Y001033D02*
X014115Y001033D01*
X014115Y001032D02*
X011440Y001032D01*
X011440Y001031D02*
X014115Y001031D01*
X014115Y001030D02*
X011440Y001030D01*
X011440Y001029D02*
X014115Y001029D01*
X014115Y001028D02*
X011440Y001028D01*
X011440Y001027D02*
X014115Y001027D01*
X014115Y001026D02*
X011440Y001026D01*
X011440Y001025D02*
X014115Y001025D01*
X014115Y001024D02*
X011440Y001024D01*
X011440Y001023D02*
X014115Y001023D01*
X014115Y001022D02*
X011440Y001022D01*
X011440Y001021D02*
X014115Y001021D01*
X014115Y001020D02*
X011440Y001020D01*
X011440Y001019D02*
X014115Y001019D01*
X014115Y001018D02*
X011440Y001018D01*
X011440Y001017D02*
X014115Y001017D01*
X014115Y001016D02*
X011440Y001016D01*
X011440Y001015D02*
X014115Y001015D01*
X014115Y001014D02*
X011440Y001014D01*
X011440Y001013D02*
X014115Y001013D01*
X014115Y001012D02*
X011440Y001012D01*
X011440Y001011D02*
X014115Y001011D01*
X014115Y001010D02*
X011440Y001010D01*
X011440Y001009D02*
X014115Y001009D01*
X014115Y001008D02*
X011440Y001008D01*
X011440Y001007D02*
X014115Y001007D01*
X014115Y001006D02*
X011440Y001006D01*
X011440Y001005D02*
X014115Y001005D01*
X014115Y001004D02*
X011440Y001004D01*
X011440Y001003D02*
X014115Y001003D01*
X014115Y001002D02*
X011440Y001002D01*
X011440Y001001D02*
X014115Y001001D01*
X014115Y001000D02*
X011440Y001000D01*
X011440Y000999D02*
X014115Y000999D01*
X014115Y000998D02*
X011440Y000998D01*
X011440Y000997D02*
X014115Y000997D01*
X014115Y000996D02*
X011440Y000996D01*
X011440Y000995D02*
X014115Y000995D01*
X014115Y000994D02*
X011440Y000994D01*
X011440Y000993D02*
X014115Y000993D01*
X014115Y000992D02*
X011440Y000992D01*
X011440Y000991D02*
X014115Y000991D01*
X014115Y000990D02*
X011440Y000990D01*
X011440Y000989D02*
X014115Y000989D01*
X014115Y000988D02*
X011440Y000988D01*
X011440Y000987D02*
X014115Y000987D01*
X014115Y000986D02*
X011440Y000986D01*
X011440Y000985D02*
X014115Y000985D01*
X014115Y000984D02*
X011440Y000984D01*
X011440Y000983D02*
X014115Y000983D01*
X014115Y000982D02*
X011440Y000982D01*
X011440Y000981D02*
X014115Y000981D01*
X014115Y000980D02*
X011440Y000980D01*
X011440Y000979D02*
X014115Y000979D01*
X014115Y000978D02*
X011440Y000978D01*
X011440Y000977D02*
X014115Y000977D01*
X014115Y000976D02*
X011440Y000976D01*
X011440Y000975D02*
X014115Y000975D01*
X014115Y000974D02*
X011440Y000974D01*
X011440Y000973D02*
X014115Y000973D01*
X014115Y000972D02*
X011440Y000972D01*
X011440Y000971D02*
X014115Y000971D01*
X014115Y000970D02*
X011440Y000970D01*
X011440Y000969D02*
X014115Y000969D01*
X014115Y000968D02*
X011440Y000968D01*
X011440Y000967D02*
X014115Y000967D01*
X014115Y000966D02*
X011440Y000966D01*
X011440Y000965D02*
X014115Y000965D01*
X014115Y000964D02*
X011440Y000964D01*
X011440Y000963D02*
X014115Y000963D01*
X014115Y000962D02*
X011440Y000962D01*
X011440Y000961D02*
X014115Y000961D01*
X014115Y000960D02*
X011440Y000960D01*
X011440Y000959D02*
X014115Y000959D01*
X014115Y000958D02*
X011440Y000958D01*
X011440Y000957D02*
X014115Y000957D01*
X014115Y000956D02*
X011440Y000956D01*
X011440Y000955D02*
X014115Y000955D01*
X014115Y000954D02*
X011440Y000954D01*
X011440Y000953D02*
X014115Y000953D01*
X014115Y000952D02*
X011440Y000952D01*
X011440Y000951D02*
X014115Y000951D01*
X014115Y000950D02*
X011440Y000950D01*
X011440Y000949D02*
X014115Y000949D01*
X014115Y000948D02*
X011440Y000948D01*
X011440Y000947D02*
X014115Y000947D01*
X014115Y000946D02*
X011440Y000946D01*
X011440Y000945D02*
X014115Y000945D01*
X014115Y000944D02*
X011440Y000944D01*
X011440Y000943D02*
X014115Y000943D01*
X014115Y000942D02*
X011440Y000942D01*
X011440Y000941D02*
X014115Y000941D01*
X014115Y000940D02*
X011440Y000940D01*
X011440Y000939D02*
X014115Y000939D01*
X014115Y000938D02*
X011440Y000938D01*
X011440Y000937D02*
X014115Y000937D01*
X014115Y000936D02*
X011440Y000936D01*
X011440Y000935D02*
X014115Y000935D01*
X014115Y000934D02*
X011440Y000934D01*
X011440Y000933D02*
X014115Y000933D01*
X014115Y000932D02*
X011440Y000932D01*
X011440Y000931D02*
X014115Y000931D01*
X014115Y000930D02*
X011440Y000930D01*
X011440Y000929D02*
X014115Y000929D01*
X014115Y000928D02*
X011440Y000928D01*
X011440Y000927D02*
X014115Y000927D01*
X014115Y000926D02*
X011440Y000926D01*
X011440Y000925D02*
X014115Y000925D01*
X014115Y000924D02*
X011440Y000924D01*
X011440Y000923D02*
X014115Y000923D01*
X014115Y000922D02*
X011440Y000922D01*
X011440Y000921D02*
X014115Y000921D01*
X014115Y000920D02*
X011440Y000920D01*
X011440Y000919D02*
X014115Y000919D01*
X014115Y000918D02*
X011440Y000918D01*
X011440Y000917D02*
X014115Y000917D01*
X014115Y000916D02*
X011440Y000916D01*
X011440Y000915D02*
X014115Y000915D01*
X014115Y000914D02*
X011440Y000914D01*
X011440Y000913D02*
X014115Y000913D01*
X014115Y000912D02*
X011440Y000912D01*
X011440Y000911D02*
X014115Y000911D01*
X014115Y000910D02*
X011440Y000910D01*
X011440Y000909D02*
X014115Y000909D01*
X014115Y000908D02*
X011440Y000908D01*
X011440Y000907D02*
X014115Y000907D01*
X014115Y000906D02*
X011440Y000906D01*
X011440Y000905D02*
X014115Y000905D01*
X014115Y000904D02*
X011440Y000904D01*
X011440Y000903D02*
X014115Y000903D01*
X014115Y000902D02*
X011440Y000902D01*
X011440Y000901D02*
X014115Y000901D01*
X014115Y000900D02*
X011440Y000900D01*
X011440Y000899D02*
X014115Y000899D01*
X014115Y000898D02*
X011440Y000898D01*
X011440Y000897D02*
X014115Y000897D01*
X014115Y000896D02*
X011440Y000896D01*
X011440Y000895D02*
X014115Y000895D01*
X014115Y000894D02*
X011440Y000894D01*
X011440Y000893D02*
X014115Y000893D01*
X014115Y000892D02*
X011440Y000892D01*
X011440Y000891D02*
X014115Y000891D01*
X014115Y000890D02*
X011440Y000890D01*
X011440Y000889D02*
X014115Y000889D01*
X014115Y000888D02*
X011440Y000888D01*
X011440Y000887D02*
X014115Y000887D01*
X014115Y000886D02*
X011440Y000886D01*
X011440Y000885D02*
X014115Y000885D01*
X014115Y000884D02*
X011440Y000884D01*
X011440Y000883D02*
X014115Y000883D01*
X014115Y000882D02*
X011440Y000882D01*
X011440Y000881D02*
X014115Y000881D01*
X014115Y000880D02*
X011440Y000880D01*
X011440Y000879D02*
X014115Y000879D01*
X014115Y000878D02*
X011440Y000878D01*
X011440Y000877D02*
X014115Y000877D01*
X014115Y000876D02*
X011440Y000876D01*
X011440Y000875D02*
X014115Y000875D01*
X014115Y000874D02*
X011440Y000874D01*
X011440Y000873D02*
X014115Y000873D01*
X014115Y000872D02*
X011440Y000872D01*
X011440Y000871D02*
X014115Y000871D01*
X014115Y000870D02*
X011440Y000870D01*
X011440Y000869D02*
X014115Y000869D01*
X014115Y000868D02*
X011440Y000868D01*
X011440Y000867D02*
X014115Y000867D01*
X014115Y000866D02*
X011440Y000866D01*
X011440Y000865D02*
X014115Y000865D01*
X014115Y000864D02*
X011440Y000864D01*
X011440Y000863D02*
X014115Y000863D01*
X014115Y000862D02*
X011440Y000862D01*
X011440Y000861D02*
X014115Y000861D01*
X014115Y000860D02*
X011440Y000860D01*
X011440Y000859D02*
X014115Y000859D01*
X014115Y000858D02*
X011440Y000858D01*
X011440Y000857D02*
X014115Y000857D01*
X014115Y000856D02*
X011440Y000856D01*
X011440Y000855D02*
X014115Y000855D01*
X014115Y000854D02*
X011440Y000854D01*
X011440Y000853D02*
X014115Y000853D01*
X014115Y000852D02*
X011440Y000852D01*
X011440Y000851D02*
X014115Y000851D01*
X014115Y000850D02*
X011440Y000850D01*
X011440Y000849D02*
X014115Y000849D01*
X014115Y000848D02*
X011440Y000848D01*
X011440Y000847D02*
X014115Y000847D01*
X014115Y000846D02*
X011440Y000846D01*
X011440Y000845D02*
X014115Y000845D01*
X014115Y000844D02*
X011440Y000844D01*
X011440Y000843D02*
X014115Y000843D01*
X014115Y000842D02*
X011440Y000842D01*
X011440Y000841D02*
X014115Y000841D01*
X014115Y000840D02*
X011440Y000840D01*
X011440Y000839D02*
X014115Y000839D01*
X014115Y000838D02*
X011440Y000838D01*
X011440Y000837D02*
X014115Y000837D01*
X014115Y000836D02*
X011440Y000836D01*
X011440Y000835D02*
X014115Y000835D01*
X014115Y000834D02*
X011440Y000834D01*
X011440Y000833D02*
X014115Y000833D01*
X014115Y000832D02*
X011440Y000832D01*
X011440Y000831D02*
X014115Y000831D01*
X014115Y000830D02*
X011440Y000830D01*
X011440Y000829D02*
X014115Y000829D01*
X014115Y000828D02*
X011440Y000828D01*
X011440Y000827D02*
X014115Y000827D01*
X014115Y000826D02*
X011440Y000826D01*
X011440Y000825D02*
X014115Y000825D01*
X014115Y000824D02*
X011440Y000824D01*
X011440Y000823D02*
X014115Y000823D01*
X014115Y000822D02*
X011440Y000822D01*
X011440Y000821D02*
X014115Y000821D01*
X014115Y000820D02*
X011440Y000820D01*
X011440Y000819D02*
X014115Y000819D01*
X014115Y000818D02*
X011440Y000818D01*
X011440Y000817D02*
X014115Y000817D01*
X014115Y000816D02*
X011440Y000816D01*
X011440Y000815D02*
X014115Y000815D01*
X014115Y000814D02*
X011440Y000814D01*
X011440Y000813D02*
X014115Y000813D01*
X014115Y000812D02*
X011440Y000812D01*
X011440Y000811D02*
X014115Y000811D01*
X014115Y000810D02*
X011440Y000810D01*
X011440Y000809D02*
X014115Y000809D01*
X014115Y000808D02*
X011440Y000808D01*
X011440Y000807D02*
X014115Y000807D01*
X014115Y000806D02*
X011440Y000806D01*
X011440Y000805D02*
X014115Y000805D01*
X014115Y000804D02*
X011440Y000804D01*
X011440Y000803D02*
X014115Y000803D01*
X014115Y000802D02*
X011440Y000802D01*
X011440Y000801D02*
X014115Y000801D01*
X014115Y000800D02*
X011440Y000800D01*
X011440Y000799D02*
X014115Y000799D01*
X014115Y000798D02*
X011440Y000798D01*
X011440Y000797D02*
X014115Y000797D01*
X014115Y000796D02*
X011440Y000796D01*
X011440Y000795D02*
X014115Y000795D01*
X014115Y000794D02*
X011440Y000794D01*
X011440Y000793D02*
X014115Y000793D01*
X014115Y000792D02*
X011440Y000792D01*
X011440Y000791D02*
X014115Y000791D01*
X014115Y000790D02*
X011440Y000790D01*
X011440Y000789D02*
X014115Y000789D01*
X014115Y000788D02*
X011440Y000788D01*
X011440Y000787D02*
X014115Y000787D01*
X014115Y000786D02*
X011440Y000786D01*
X011440Y000785D02*
X014115Y000785D01*
X014115Y000784D02*
X011440Y000784D01*
X011440Y000783D02*
X014115Y000783D01*
X014115Y000782D02*
X011440Y000782D01*
X011440Y000781D02*
X014115Y000781D01*
X014115Y000780D02*
X011440Y000780D01*
X011440Y000779D02*
X014115Y000779D01*
X014115Y000778D02*
X011440Y000778D01*
X011440Y000777D02*
X014115Y000777D01*
X014115Y000776D02*
X011440Y000776D01*
X011440Y000775D02*
X014115Y000775D01*
X014115Y000774D02*
X011440Y000774D01*
X011440Y000773D02*
X014115Y000773D01*
X014115Y000772D02*
X011440Y000772D01*
X011440Y000771D02*
X014115Y000771D01*
X014115Y000770D02*
X011440Y000770D01*
X011440Y000769D02*
X014115Y000769D01*
X014115Y000768D02*
X011440Y000768D01*
X011440Y000767D02*
X014115Y000767D01*
X014115Y000766D02*
X011440Y000766D01*
X011440Y000765D02*
X014115Y000765D01*
X014115Y000764D02*
X011440Y000764D01*
X011440Y000763D02*
X014115Y000763D01*
X014115Y000762D02*
X011440Y000762D01*
X011440Y000761D02*
X014115Y000761D01*
X014115Y000760D02*
X011440Y000760D01*
X011440Y000759D02*
X014115Y000759D01*
X014115Y000758D02*
X011440Y000758D01*
X011440Y000757D02*
X014115Y000757D01*
X014115Y000756D02*
X011440Y000756D01*
X011440Y000755D02*
X014115Y000755D01*
X014115Y000754D02*
X011440Y000754D01*
X011440Y000753D02*
X014115Y000753D01*
X014115Y000752D02*
X011440Y000752D01*
X011440Y000751D02*
X014115Y000751D01*
D12*
X013799Y001452D03*
X013799Y003248D03*
X013799Y004702D03*
X013799Y006498D03*
X013799Y007952D03*
X013799Y009748D03*
D13*
X016515Y008850D03*
X016515Y005600D03*
X016515Y002350D03*
D14*
X011148Y001400D03*
X010321Y001774D03*
X010321Y001026D03*
X010321Y004276D03*
X011148Y004650D03*
X010321Y005024D03*
X010321Y007526D03*
X011148Y007900D03*
X010321Y008274D03*
X003184Y002999D03*
X002357Y002625D03*
X003184Y002251D03*
D15*
X009105Y004875D03*
X009775Y004875D03*
X010630Y003650D03*
X011300Y003650D03*
X012180Y003575D03*
X012850Y003575D03*
X012850Y002825D03*
X012180Y002825D03*
X012180Y002075D03*
X012850Y002075D03*
X012850Y005325D03*
X012180Y005325D03*
X012180Y006075D03*
X012850Y006075D03*
X012850Y006825D03*
X012180Y006825D03*
X011300Y006900D03*
X010630Y006900D03*
X008525Y007450D03*
X007855Y007450D03*
X012180Y008575D03*
X012850Y008575D03*
X012850Y009325D03*
X012180Y009325D03*
X012180Y010075D03*
X012850Y010075D03*
D16*
X011540Y009435D03*
X010790Y009435D03*
X010040Y009435D03*
X010040Y008765D03*
X010790Y008765D03*
X011540Y008765D03*
X009765Y007910D03*
X009765Y007240D03*
X010040Y006185D03*
X010790Y006185D03*
X011540Y006185D03*
X011540Y005515D03*
X010790Y005515D03*
X010040Y005515D03*
X006190Y006415D03*
X005285Y006415D03*
X005285Y007085D03*
X006190Y007085D03*
X002290Y005745D03*
X001540Y005745D03*
X001540Y005075D03*
X002290Y005075D03*
X004892Y003235D03*
X005640Y003235D03*
X005640Y002565D03*
X004892Y002565D03*
X002665Y001685D03*
X001915Y001685D03*
X001915Y001015D03*
X002665Y001015D03*
X009440Y001065D03*
X009440Y001735D03*
X010040Y002265D03*
X010790Y002265D03*
X011540Y002265D03*
X011540Y002935D03*
X010790Y002935D03*
X010040Y002935D03*
D17*
X006024Y004281D02*
X006024Y004341D01*
X006024Y004281D02*
X005806Y004281D01*
X005806Y004341D01*
X006024Y004341D01*
X006024Y004339D02*
X005806Y004339D01*
X006024Y004478D02*
X006024Y004538D01*
X006024Y004478D02*
X005806Y004478D01*
X005806Y004538D01*
X006024Y004538D01*
X006024Y004536D02*
X005806Y004536D01*
X006024Y004675D02*
X006024Y004735D01*
X006024Y004675D02*
X005806Y004675D01*
X005806Y004735D01*
X006024Y004735D01*
X006024Y004733D02*
X005806Y004733D01*
X006024Y004872D02*
X006024Y004932D01*
X006024Y004872D02*
X005806Y004872D01*
X005806Y004932D01*
X006024Y004932D01*
X006024Y004930D02*
X005806Y004930D01*
X006024Y005068D02*
X006024Y005128D01*
X006024Y005068D02*
X005806Y005068D01*
X005806Y005128D01*
X006024Y005128D01*
X006024Y005126D02*
X005806Y005126D01*
X006024Y005265D02*
X006024Y005325D01*
X006024Y005265D02*
X005806Y005265D01*
X005806Y005325D01*
X006024Y005325D01*
X006024Y005323D02*
X005806Y005323D01*
X006024Y005462D02*
X006024Y005522D01*
X006024Y005462D02*
X005806Y005462D01*
X005806Y005522D01*
X006024Y005522D01*
X006024Y005520D02*
X005806Y005520D01*
X006024Y005659D02*
X006024Y005719D01*
X006024Y005659D02*
X005806Y005659D01*
X005806Y005719D01*
X006024Y005719D01*
X006024Y005717D02*
X005806Y005717D01*
X005709Y005816D02*
X005709Y006034D01*
X005709Y005816D02*
X005649Y005816D01*
X005649Y006034D01*
X005709Y006034D01*
X005709Y005874D02*
X005649Y005874D01*
X005649Y005932D02*
X005709Y005932D01*
X005709Y005990D02*
X005649Y005990D01*
X005512Y006034D02*
X005512Y005816D01*
X005452Y005816D01*
X005452Y006034D01*
X005512Y006034D01*
X005512Y005874D02*
X005452Y005874D01*
X005452Y005932D02*
X005512Y005932D01*
X005512Y005990D02*
X005452Y005990D01*
X005315Y006034D02*
X005315Y005816D01*
X005255Y005816D01*
X005255Y006034D01*
X005315Y006034D01*
X005315Y005874D02*
X005255Y005874D01*
X005255Y005932D02*
X005315Y005932D01*
X005315Y005990D02*
X005255Y005990D01*
X005118Y006034D02*
X005118Y005816D01*
X005058Y005816D01*
X005058Y006034D01*
X005118Y006034D01*
X005118Y005874D02*
X005058Y005874D01*
X005058Y005932D02*
X005118Y005932D01*
X005118Y005990D02*
X005058Y005990D01*
X004922Y006034D02*
X004922Y005816D01*
X004862Y005816D01*
X004862Y006034D01*
X004922Y006034D01*
X004922Y005874D02*
X004862Y005874D01*
X004862Y005932D02*
X004922Y005932D01*
X004922Y005990D02*
X004862Y005990D01*
X004725Y006034D02*
X004725Y005816D01*
X004665Y005816D01*
X004665Y006034D01*
X004725Y006034D01*
X004725Y005874D02*
X004665Y005874D01*
X004665Y005932D02*
X004725Y005932D01*
X004725Y005990D02*
X004665Y005990D01*
X004528Y006034D02*
X004528Y005816D01*
X004468Y005816D01*
X004468Y006034D01*
X004528Y006034D01*
X004528Y005874D02*
X004468Y005874D01*
X004468Y005932D02*
X004528Y005932D01*
X004528Y005990D02*
X004468Y005990D01*
X004331Y006034D02*
X004331Y005816D01*
X004271Y005816D01*
X004271Y006034D01*
X004331Y006034D01*
X004331Y005874D02*
X004271Y005874D01*
X004271Y005932D02*
X004331Y005932D01*
X004331Y005990D02*
X004271Y005990D01*
X004174Y005719D02*
X004174Y005659D01*
X003956Y005659D01*
X003956Y005719D01*
X004174Y005719D01*
X004174Y005717D02*
X003956Y005717D01*
X004174Y005522D02*
X004174Y005462D01*
X003956Y005462D01*
X003956Y005522D01*
X004174Y005522D01*
X004174Y005520D02*
X003956Y005520D01*
X004174Y005325D02*
X004174Y005265D01*
X003956Y005265D01*
X003956Y005325D01*
X004174Y005325D01*
X004174Y005323D02*
X003956Y005323D01*
X004174Y005128D02*
X004174Y005068D01*
X003956Y005068D01*
X003956Y005128D01*
X004174Y005128D01*
X004174Y005126D02*
X003956Y005126D01*
X004174Y004932D02*
X004174Y004872D01*
X003956Y004872D01*
X003956Y004932D01*
X004174Y004932D01*
X004174Y004930D02*
X003956Y004930D01*
X004174Y004735D02*
X004174Y004675D01*
X003956Y004675D01*
X003956Y004735D01*
X004174Y004735D01*
X004174Y004733D02*
X003956Y004733D01*
X004174Y004538D02*
X004174Y004478D01*
X003956Y004478D01*
X003956Y004538D01*
X004174Y004538D01*
X004174Y004536D02*
X003956Y004536D01*
X004174Y004341D02*
X004174Y004281D01*
X003956Y004281D01*
X003956Y004341D01*
X004174Y004341D01*
X004174Y004339D02*
X003956Y004339D01*
X004331Y004184D02*
X004331Y003966D01*
X004271Y003966D01*
X004271Y004184D01*
X004331Y004184D01*
X004331Y004024D02*
X004271Y004024D01*
X004271Y004082D02*
X004331Y004082D01*
X004331Y004140D02*
X004271Y004140D01*
X004528Y004184D02*
X004528Y003966D01*
X004468Y003966D01*
X004468Y004184D01*
X004528Y004184D01*
X004528Y004024D02*
X004468Y004024D01*
X004468Y004082D02*
X004528Y004082D01*
X004528Y004140D02*
X004468Y004140D01*
X004725Y004184D02*
X004725Y003966D01*
X004665Y003966D01*
X004665Y004184D01*
X004725Y004184D01*
X004725Y004024D02*
X004665Y004024D01*
X004665Y004082D02*
X004725Y004082D01*
X004725Y004140D02*
X004665Y004140D01*
X004922Y004184D02*
X004922Y003966D01*
X004862Y003966D01*
X004862Y004184D01*
X004922Y004184D01*
X004922Y004024D02*
X004862Y004024D01*
X004862Y004082D02*
X004922Y004082D01*
X004922Y004140D02*
X004862Y004140D01*
X005118Y004184D02*
X005118Y003966D01*
X005058Y003966D01*
X005058Y004184D01*
X005118Y004184D01*
X005118Y004024D02*
X005058Y004024D01*
X005058Y004082D02*
X005118Y004082D01*
X005118Y004140D02*
X005058Y004140D01*
X005315Y004184D02*
X005315Y003966D01*
X005255Y003966D01*
X005255Y004184D01*
X005315Y004184D01*
X005315Y004024D02*
X005255Y004024D01*
X005255Y004082D02*
X005315Y004082D01*
X005315Y004140D02*
X005255Y004140D01*
X005512Y004184D02*
X005512Y003966D01*
X005452Y003966D01*
X005452Y004184D01*
X005512Y004184D01*
X005512Y004024D02*
X005452Y004024D01*
X005452Y004082D02*
X005512Y004082D01*
X005512Y004140D02*
X005452Y004140D01*
X005709Y004184D02*
X005709Y003966D01*
X005649Y003966D01*
X005649Y004184D01*
X005709Y004184D01*
X005709Y004024D02*
X005649Y004024D01*
X005649Y004082D02*
X005709Y004082D01*
X005709Y004140D02*
X005649Y004140D01*
D18*
X004990Y005000D03*
D19*
X003934Y001625D03*
X003246Y001625D03*
X003246Y000975D03*
X003934Y000975D03*
D20*
X005560Y008340D03*
X005560Y009250D03*
X005560Y010160D03*
D21*
X003120Y009250D03*
D22*
X001890Y009150D03*
X001890Y007850D03*
D23*
X004828Y001774D03*
X004828Y001400D03*
X004828Y001026D03*
X005852Y001026D03*
X005852Y001774D03*
M02*
