G75*
G70*
%OFA0B0*%
%FSLAX24Y24*%
%IPPOS*%
%LPD*%
%AMOC8*
5,1,8,0,0,1.08239X$1,22.5*
%
%ADD10C,0.0000*%
%ADD11C,0.0030*%
%ADD12C,0.0080*%
%ADD13R,0.0300X0.0340*%
%ADD14R,0.0156X0.0300*%
%ADD15R,0.0300X0.0156*%
%ADD16C,0.0100*%
%ADD17C,0.0118*%
%ADD18C,0.0050*%
%ADD19C,0.0150*%
D10*
X000140Y000205D02*
X000140Y010205D01*
X019140Y010205D01*
X019140Y000205D01*
X000140Y000205D01*
X017674Y001955D02*
X017676Y002003D01*
X017682Y002051D01*
X017692Y002098D01*
X017705Y002144D01*
X017723Y002189D01*
X017743Y002233D01*
X017768Y002275D01*
X017796Y002314D01*
X017826Y002351D01*
X017860Y002385D01*
X017897Y002417D01*
X017935Y002446D01*
X017976Y002471D01*
X018019Y002493D01*
X018064Y002511D01*
X018110Y002525D01*
X018157Y002536D01*
X018205Y002543D01*
X018253Y002546D01*
X018301Y002545D01*
X018349Y002540D01*
X018397Y002531D01*
X018443Y002519D01*
X018488Y002502D01*
X018532Y002482D01*
X018574Y002459D01*
X018614Y002432D01*
X018652Y002402D01*
X018687Y002369D01*
X018719Y002333D01*
X018749Y002295D01*
X018775Y002254D01*
X018797Y002211D01*
X018817Y002167D01*
X018832Y002122D01*
X018844Y002075D01*
X018852Y002027D01*
X018856Y001979D01*
X018856Y001931D01*
X018852Y001883D01*
X018844Y001835D01*
X018832Y001788D01*
X018817Y001743D01*
X018797Y001699D01*
X018775Y001656D01*
X018749Y001615D01*
X018719Y001577D01*
X018687Y001541D01*
X018652Y001508D01*
X018614Y001478D01*
X018574Y001451D01*
X018532Y001428D01*
X018488Y001408D01*
X018443Y001391D01*
X018397Y001379D01*
X018349Y001370D01*
X018301Y001365D01*
X018253Y001364D01*
X018205Y001367D01*
X018157Y001374D01*
X018110Y001385D01*
X018064Y001399D01*
X018019Y001417D01*
X017976Y001439D01*
X017935Y001464D01*
X017897Y001493D01*
X017860Y001525D01*
X017826Y001559D01*
X017796Y001596D01*
X017768Y001635D01*
X017743Y001677D01*
X017723Y001721D01*
X017705Y001766D01*
X017692Y001812D01*
X017682Y001859D01*
X017676Y001907D01*
X017674Y001955D01*
X017674Y005205D02*
X017676Y005253D01*
X017682Y005301D01*
X017692Y005348D01*
X017705Y005394D01*
X017723Y005439D01*
X017743Y005483D01*
X017768Y005525D01*
X017796Y005564D01*
X017826Y005601D01*
X017860Y005635D01*
X017897Y005667D01*
X017935Y005696D01*
X017976Y005721D01*
X018019Y005743D01*
X018064Y005761D01*
X018110Y005775D01*
X018157Y005786D01*
X018205Y005793D01*
X018253Y005796D01*
X018301Y005795D01*
X018349Y005790D01*
X018397Y005781D01*
X018443Y005769D01*
X018488Y005752D01*
X018532Y005732D01*
X018574Y005709D01*
X018614Y005682D01*
X018652Y005652D01*
X018687Y005619D01*
X018719Y005583D01*
X018749Y005545D01*
X018775Y005504D01*
X018797Y005461D01*
X018817Y005417D01*
X018832Y005372D01*
X018844Y005325D01*
X018852Y005277D01*
X018856Y005229D01*
X018856Y005181D01*
X018852Y005133D01*
X018844Y005085D01*
X018832Y005038D01*
X018817Y004993D01*
X018797Y004949D01*
X018775Y004906D01*
X018749Y004865D01*
X018719Y004827D01*
X018687Y004791D01*
X018652Y004758D01*
X018614Y004728D01*
X018574Y004701D01*
X018532Y004678D01*
X018488Y004658D01*
X018443Y004641D01*
X018397Y004629D01*
X018349Y004620D01*
X018301Y004615D01*
X018253Y004614D01*
X018205Y004617D01*
X018157Y004624D01*
X018110Y004635D01*
X018064Y004649D01*
X018019Y004667D01*
X017976Y004689D01*
X017935Y004714D01*
X017897Y004743D01*
X017860Y004775D01*
X017826Y004809D01*
X017796Y004846D01*
X017768Y004885D01*
X017743Y004927D01*
X017723Y004971D01*
X017705Y005016D01*
X017692Y005062D01*
X017682Y005109D01*
X017676Y005157D01*
X017674Y005205D01*
X017674Y008455D02*
X017676Y008503D01*
X017682Y008551D01*
X017692Y008598D01*
X017705Y008644D01*
X017723Y008689D01*
X017743Y008733D01*
X017768Y008775D01*
X017796Y008814D01*
X017826Y008851D01*
X017860Y008885D01*
X017897Y008917D01*
X017935Y008946D01*
X017976Y008971D01*
X018019Y008993D01*
X018064Y009011D01*
X018110Y009025D01*
X018157Y009036D01*
X018205Y009043D01*
X018253Y009046D01*
X018301Y009045D01*
X018349Y009040D01*
X018397Y009031D01*
X018443Y009019D01*
X018488Y009002D01*
X018532Y008982D01*
X018574Y008959D01*
X018614Y008932D01*
X018652Y008902D01*
X018687Y008869D01*
X018719Y008833D01*
X018749Y008795D01*
X018775Y008754D01*
X018797Y008711D01*
X018817Y008667D01*
X018832Y008622D01*
X018844Y008575D01*
X018852Y008527D01*
X018856Y008479D01*
X018856Y008431D01*
X018852Y008383D01*
X018844Y008335D01*
X018832Y008288D01*
X018817Y008243D01*
X018797Y008199D01*
X018775Y008156D01*
X018749Y008115D01*
X018719Y008077D01*
X018687Y008041D01*
X018652Y008008D01*
X018614Y007978D01*
X018574Y007951D01*
X018532Y007928D01*
X018488Y007908D01*
X018443Y007891D01*
X018397Y007879D01*
X018349Y007870D01*
X018301Y007865D01*
X018253Y007864D01*
X018205Y007867D01*
X018157Y007874D01*
X018110Y007885D01*
X018064Y007899D01*
X018019Y007917D01*
X017976Y007939D01*
X017935Y007964D01*
X017897Y007993D01*
X017860Y008025D01*
X017826Y008059D01*
X017796Y008096D01*
X017768Y008135D01*
X017743Y008177D01*
X017723Y008221D01*
X017705Y008266D01*
X017692Y008312D01*
X017682Y008359D01*
X017676Y008407D01*
X017674Y008455D01*
D11*
X017618Y009545D02*
X017569Y009593D01*
X017618Y009642D01*
X017763Y009642D01*
X017763Y009690D02*
X017763Y009545D01*
X017618Y009545D01*
X017468Y009545D02*
X017468Y009690D01*
X017420Y009738D01*
X017323Y009738D01*
X017275Y009690D01*
X017173Y009690D02*
X017173Y009787D01*
X017125Y009835D01*
X016980Y009835D01*
X016980Y009545D01*
X016980Y009642D02*
X017125Y009642D01*
X017173Y009690D01*
X017275Y009835D02*
X017275Y009545D01*
X017618Y009738D02*
X017714Y009738D01*
X017763Y009690D01*
X017864Y009690D02*
X017912Y009738D01*
X018057Y009738D01*
X018009Y009642D02*
X017912Y009642D01*
X017864Y009690D01*
X017864Y009545D02*
X018009Y009545D01*
X018057Y009593D01*
X018009Y009642D01*
X018159Y009642D02*
X018352Y009642D01*
X018352Y009690D01*
X018304Y009738D01*
X018207Y009738D01*
X018159Y009690D01*
X018159Y009593D01*
X018207Y009545D01*
X018304Y009545D01*
X018453Y009690D02*
X018647Y009690D01*
X018748Y009593D02*
X018796Y009545D01*
X018893Y009545D01*
X018941Y009593D01*
X018748Y009593D02*
X018748Y009787D01*
X018796Y009835D01*
X018893Y009835D01*
X018941Y009787D01*
X015036Y009562D02*
X015036Y009513D01*
X014987Y009465D01*
X014891Y009465D01*
X014842Y009513D01*
X014842Y009562D01*
X014891Y009610D01*
X014987Y009610D01*
X015036Y009562D01*
X014987Y009465D02*
X015036Y009417D01*
X015036Y009368D01*
X014987Y009320D01*
X014891Y009320D01*
X014842Y009368D01*
X014842Y009417D01*
X014891Y009465D01*
X014741Y009368D02*
X014693Y009320D01*
X014596Y009320D01*
X014548Y009368D01*
X014548Y009562D01*
X014596Y009610D01*
X014693Y009610D01*
X014741Y009562D01*
X014741Y009368D01*
X014741Y009320D02*
X014644Y009417D01*
X016955Y006610D02*
X017100Y006610D01*
X017148Y006562D01*
X017148Y006465D01*
X017100Y006417D01*
X016955Y006417D01*
X016955Y006320D02*
X016955Y006610D01*
X017250Y006610D02*
X017250Y006320D01*
X017250Y006465D02*
X017298Y006513D01*
X017395Y006513D01*
X017443Y006465D01*
X017443Y006320D01*
X017544Y006368D02*
X017593Y006417D01*
X017738Y006417D01*
X017738Y006465D02*
X017738Y006320D01*
X017593Y006320D01*
X017544Y006368D01*
X017689Y006513D02*
X017738Y006465D01*
X017689Y006513D02*
X017593Y006513D01*
X017839Y006465D02*
X017887Y006513D01*
X018032Y006513D01*
X017984Y006417D02*
X017887Y006417D01*
X017839Y006465D01*
X017839Y006320D02*
X017984Y006320D01*
X018032Y006368D01*
X017984Y006417D01*
X018134Y006417D02*
X018327Y006417D01*
X018327Y006465D01*
X018279Y006513D01*
X018182Y006513D01*
X018134Y006465D01*
X018134Y006368D01*
X018182Y006320D01*
X018279Y006320D01*
X018428Y006465D02*
X018622Y006465D01*
X018723Y006465D02*
X018868Y006465D01*
X018916Y006417D01*
X018916Y006368D01*
X018868Y006320D01*
X018723Y006320D01*
X018723Y006610D01*
X018868Y006610D01*
X018916Y006562D01*
X018916Y006513D01*
X018868Y006465D01*
X015061Y006360D02*
X014867Y006360D01*
X014867Y006215D01*
X014964Y006263D01*
X015012Y006263D01*
X015061Y006215D01*
X015061Y006118D01*
X015012Y006070D01*
X014916Y006070D01*
X014867Y006118D01*
X014766Y006118D02*
X014718Y006070D01*
X014621Y006070D01*
X014573Y006118D01*
X014573Y006312D01*
X014621Y006360D01*
X014718Y006360D01*
X014766Y006312D01*
X014766Y006118D01*
X014766Y006070D02*
X014669Y006167D01*
X010255Y003465D02*
X010110Y003320D01*
X010304Y003320D01*
X010255Y003175D02*
X010255Y003465D01*
X010009Y003417D02*
X010009Y003320D01*
X009961Y003272D01*
X009816Y003272D01*
X009912Y003272D02*
X010009Y003175D01*
X009816Y003175D02*
X009816Y003465D01*
X009961Y003465D01*
X010009Y003417D01*
X009652Y002933D02*
X009700Y002885D01*
X009700Y002788D01*
X009652Y002740D01*
X009603Y002740D01*
X009555Y002788D01*
X009555Y002885D01*
X009603Y002933D01*
X009652Y002933D01*
X009555Y002885D02*
X009507Y002933D01*
X009458Y002933D01*
X009410Y002885D01*
X009410Y002788D01*
X009458Y002740D01*
X009507Y002740D01*
X009555Y002788D01*
X009652Y002638D02*
X009700Y002590D01*
X009700Y002493D01*
X009652Y002445D01*
X009458Y002445D01*
X009410Y002493D01*
X009410Y002590D01*
X009458Y002638D01*
X009275Y002638D02*
X009178Y002542D01*
X009178Y002590D02*
X009178Y002445D01*
X009275Y002445D02*
X008985Y002445D01*
X008985Y002590D01*
X009033Y002638D01*
X009130Y002638D01*
X009178Y002590D01*
X009130Y002740D02*
X009130Y002885D01*
X009178Y002933D01*
X009227Y002933D01*
X009275Y002885D01*
X009275Y002788D01*
X009227Y002740D01*
X009130Y002740D01*
X009033Y002836D01*
X008985Y002933D01*
X009205Y001960D02*
X009350Y001960D01*
X009398Y001912D01*
X009398Y001815D01*
X009350Y001767D01*
X009205Y001767D01*
X009302Y001767D02*
X009398Y001670D01*
X009500Y001670D02*
X009693Y001863D01*
X009693Y001912D01*
X009645Y001960D01*
X009548Y001960D01*
X009500Y001912D01*
X009205Y001960D02*
X009205Y001670D01*
X009500Y001670D02*
X009693Y001670D01*
X009808Y001208D02*
X009857Y001208D01*
X009905Y001160D01*
X009953Y001208D01*
X010002Y001208D01*
X010050Y001160D01*
X010050Y001063D01*
X010002Y001015D01*
X010002Y000913D02*
X009808Y000913D01*
X009760Y000865D01*
X009760Y000768D01*
X009808Y000720D01*
X010002Y000720D01*
X010050Y000768D01*
X010050Y000865D01*
X010002Y000913D01*
X010050Y000913D02*
X009953Y000817D01*
X009808Y001015D02*
X009760Y001063D01*
X009760Y001160D01*
X009808Y001208D01*
X009905Y001160D02*
X009905Y001111D01*
X011316Y001225D02*
X011316Y001515D01*
X011461Y001515D01*
X011509Y001467D01*
X011509Y001370D01*
X011461Y001322D01*
X011316Y001322D01*
X011412Y001322D02*
X011509Y001225D01*
X011610Y001225D02*
X011610Y001273D01*
X011804Y001467D01*
X011804Y001515D01*
X011610Y001515D01*
X013230Y001470D02*
X013230Y001760D01*
X013375Y001760D01*
X013423Y001712D01*
X013423Y001615D01*
X013375Y001567D01*
X013230Y001567D01*
X013327Y001567D02*
X013423Y001470D01*
X013525Y001470D02*
X013718Y001470D01*
X013621Y001470D02*
X013621Y001760D01*
X013525Y001663D01*
X013573Y002095D02*
X013525Y002143D01*
X013573Y002095D02*
X013670Y002095D01*
X013718Y002143D01*
X013718Y002240D01*
X013670Y002288D01*
X013621Y002288D01*
X013525Y002240D01*
X013525Y002385D01*
X013718Y002385D01*
X013423Y002337D02*
X013423Y002240D01*
X013375Y002192D01*
X013230Y002192D01*
X013327Y002192D02*
X013423Y002095D01*
X013230Y002095D02*
X013230Y002385D01*
X013375Y002385D01*
X013423Y002337D01*
X014573Y002868D02*
X014621Y002820D01*
X014718Y002820D01*
X014766Y002868D01*
X014766Y003062D01*
X014718Y003110D01*
X014621Y003110D01*
X014573Y003062D01*
X014573Y002868D01*
X014669Y002917D02*
X014766Y002820D01*
X014867Y002820D02*
X015061Y003013D01*
X015061Y003062D01*
X015012Y003110D01*
X014916Y003110D01*
X014867Y003062D01*
X014867Y002820D02*
X015061Y002820D01*
X017005Y003070D02*
X017005Y003360D01*
X017150Y003360D01*
X017198Y003312D01*
X017198Y003215D01*
X017150Y003167D01*
X017005Y003167D01*
X017300Y003215D02*
X017348Y003263D01*
X017445Y003263D01*
X017493Y003215D01*
X017493Y003070D01*
X017594Y003118D02*
X017643Y003167D01*
X017788Y003167D01*
X017788Y003215D02*
X017788Y003070D01*
X017643Y003070D01*
X017594Y003118D01*
X017739Y003263D02*
X017788Y003215D01*
X017739Y003263D02*
X017643Y003263D01*
X017889Y003215D02*
X017937Y003263D01*
X018082Y003263D01*
X018034Y003167D02*
X017937Y003167D01*
X017889Y003215D01*
X017889Y003070D02*
X018034Y003070D01*
X018082Y003118D01*
X018034Y003167D01*
X018184Y003167D02*
X018377Y003167D01*
X018377Y003215D01*
X018329Y003263D01*
X018232Y003263D01*
X018184Y003215D01*
X018184Y003118D01*
X018232Y003070D01*
X018329Y003070D01*
X018478Y003215D02*
X018672Y003215D01*
X018773Y003215D02*
X018966Y003215D01*
X018966Y003263D02*
X018966Y003070D01*
X018773Y003070D02*
X018773Y003263D01*
X018870Y003360D01*
X018966Y003263D01*
X017300Y003360D02*
X017300Y003070D01*
X011875Y003088D02*
X011778Y002992D01*
X011778Y003040D02*
X011778Y002895D01*
X011875Y002895D02*
X011585Y002895D01*
X011585Y003040D01*
X011633Y003088D01*
X011730Y003088D01*
X011778Y003040D01*
X011827Y003190D02*
X011875Y003238D01*
X011875Y003335D01*
X011827Y003383D01*
X011778Y003383D01*
X011730Y003335D01*
X011730Y003286D01*
X011730Y003335D02*
X011682Y003383D01*
X011633Y003383D01*
X011585Y003335D01*
X011585Y003238D01*
X011633Y003190D01*
X006340Y001812D02*
X006340Y001763D01*
X006146Y001570D01*
X006340Y001570D01*
X006045Y001618D02*
X005997Y001570D01*
X005900Y001570D01*
X005851Y001618D01*
X005851Y001812D01*
X005900Y001860D01*
X005997Y001860D01*
X006045Y001812D01*
X006146Y001812D02*
X006194Y001860D01*
X006291Y001860D01*
X006340Y001812D01*
X005752Y001860D02*
X005655Y001860D01*
X005703Y001860D02*
X005703Y001570D01*
X005655Y001570D02*
X005752Y001570D01*
X006003Y002281D02*
X006197Y002281D01*
X006245Y002329D01*
X006245Y002426D01*
X006197Y002474D01*
X006197Y002575D02*
X006245Y002624D01*
X006245Y002720D01*
X006197Y002769D01*
X006100Y002769D01*
X006052Y002720D01*
X006052Y002672D01*
X006100Y002575D01*
X005955Y002575D01*
X005955Y002769D01*
X006003Y002474D02*
X005955Y002426D01*
X005955Y002329D01*
X006003Y002281D01*
X004597Y002379D02*
X004597Y002476D01*
X004548Y002524D01*
X004451Y002625D02*
X004451Y002819D01*
X004306Y002770D02*
X004451Y002625D01*
X004355Y002524D02*
X004306Y002476D01*
X004306Y002379D01*
X004355Y002331D01*
X004548Y002331D01*
X004597Y002379D01*
X004597Y002770D02*
X004306Y002770D01*
X004322Y002956D02*
X004080Y002956D01*
X004322Y002956D02*
X004370Y003004D01*
X004370Y003101D01*
X004322Y003149D01*
X004080Y003149D01*
X004177Y003250D02*
X004080Y003347D01*
X004370Y003347D01*
X004370Y003250D02*
X004370Y003444D01*
X002993Y003868D02*
X002993Y003917D01*
X002945Y003965D01*
X002800Y003965D01*
X002800Y003868D01*
X002848Y003820D01*
X002945Y003820D01*
X002993Y003868D01*
X002896Y004062D02*
X002800Y003965D01*
X002896Y004062D02*
X002993Y004110D01*
X002698Y004062D02*
X002650Y004110D01*
X002553Y004110D01*
X002505Y004062D01*
X002505Y003868D01*
X002553Y003820D01*
X002650Y003820D01*
X002698Y003868D01*
X002678Y004516D02*
X002872Y004516D01*
X002920Y004564D01*
X002920Y004661D01*
X002872Y004709D01*
X002872Y004810D02*
X002920Y004810D01*
X002872Y004810D02*
X002678Y005004D01*
X002630Y005004D01*
X002630Y004810D01*
X002678Y004709D02*
X002630Y004661D01*
X002630Y004564D01*
X002678Y004516D01*
X002222Y005660D02*
X002270Y005708D01*
X002270Y005805D01*
X002222Y005853D01*
X002173Y005853D01*
X002125Y005805D01*
X002125Y005708D01*
X002077Y005660D01*
X002028Y005660D01*
X001980Y005708D01*
X001980Y005805D01*
X002028Y005853D01*
X002222Y005955D02*
X002270Y006003D01*
X002270Y006051D01*
X002222Y006100D01*
X001980Y006100D01*
X001980Y006148D02*
X001980Y006051D01*
X002125Y006249D02*
X002125Y006443D01*
X002270Y006394D02*
X001980Y006394D01*
X002125Y006249D01*
X001625Y006274D02*
X001625Y006468D01*
X001613Y006550D02*
X001565Y006598D01*
X001613Y006550D02*
X001661Y006550D01*
X001710Y006598D01*
X001710Y006840D01*
X001758Y006840D02*
X001661Y006840D01*
X001859Y006840D02*
X001859Y006695D01*
X001956Y006743D01*
X002004Y006743D01*
X002053Y006695D01*
X002053Y006598D01*
X002004Y006550D01*
X001908Y006550D01*
X001859Y006598D01*
X001463Y006598D02*
X001415Y006550D01*
X001318Y006550D01*
X001270Y006598D01*
X001318Y006695D02*
X001415Y006695D01*
X001463Y006647D01*
X001463Y006598D01*
X001432Y006468D02*
X001383Y006468D01*
X001335Y006419D01*
X001335Y006323D01*
X001383Y006274D01*
X001383Y006173D02*
X001335Y006125D01*
X001335Y006028D01*
X001383Y005980D01*
X001383Y005878D02*
X001480Y005878D01*
X001528Y005830D01*
X001528Y005685D01*
X001528Y005782D02*
X001625Y005878D01*
X001625Y005980D02*
X001432Y006173D01*
X001383Y006173D01*
X001625Y006173D02*
X001625Y005980D01*
X001383Y005878D02*
X001335Y005830D01*
X001335Y005685D01*
X001625Y005685D01*
X001625Y006274D02*
X001432Y006468D01*
X001318Y006695D02*
X001270Y006743D01*
X001270Y006792D01*
X001318Y006840D01*
X001415Y006840D01*
X001463Y006792D01*
X001859Y006840D02*
X002053Y006840D01*
X002522Y007506D02*
X002715Y007506D01*
X002764Y007554D01*
X002764Y007651D01*
X002715Y007699D01*
X002764Y007800D02*
X002570Y007994D01*
X002522Y007994D01*
X002473Y007945D01*
X002473Y007849D01*
X002522Y007800D01*
X002522Y007699D02*
X002473Y007651D01*
X002473Y007554D01*
X002522Y007506D01*
X002764Y007800D02*
X002764Y007994D01*
X005030Y007267D02*
X005030Y007073D01*
X005078Y007025D01*
X005175Y007025D01*
X005223Y007073D01*
X005325Y007073D02*
X005373Y007025D01*
X005470Y007025D01*
X005518Y007073D01*
X005518Y007121D01*
X005470Y007170D01*
X005421Y007170D01*
X005470Y007170D02*
X005518Y007218D01*
X005518Y007267D01*
X005470Y007315D01*
X005373Y007315D01*
X005325Y007267D01*
X005223Y007267D02*
X005175Y007315D01*
X005078Y007315D01*
X005030Y007267D01*
X006005Y007335D02*
X006005Y007045D01*
X006198Y007045D01*
X006300Y007045D02*
X006493Y007045D01*
X006396Y007045D02*
X006396Y007335D01*
X006300Y007238D01*
X004640Y009695D02*
X004446Y009695D01*
X004543Y009695D02*
X004543Y009985D01*
X004446Y009888D01*
X004345Y009937D02*
X004297Y009985D01*
X004200Y009985D01*
X004151Y009937D01*
X004151Y009743D01*
X004200Y009695D01*
X004297Y009695D01*
X004345Y009743D01*
X004052Y009695D02*
X003955Y009695D01*
X004003Y009695D02*
X004003Y009985D01*
X003955Y009985D02*
X004052Y009985D01*
X002720Y002985D02*
X002623Y002985D01*
X002575Y002937D01*
X002473Y002985D02*
X002473Y002743D01*
X002425Y002695D01*
X002328Y002695D01*
X002280Y002743D01*
X002280Y002985D01*
X002575Y002695D02*
X002768Y002888D01*
X002768Y002937D01*
X002720Y002985D01*
X002768Y002695D02*
X002575Y002695D01*
X000780Y001224D02*
X000732Y001273D01*
X000683Y001273D01*
X000635Y001224D01*
X000635Y001079D01*
X000732Y001079D01*
X000780Y001128D01*
X000780Y001224D01*
X000635Y001079D02*
X000538Y001176D01*
X000490Y001273D01*
X000538Y000978D02*
X000635Y000978D01*
X000683Y000930D01*
X000683Y000785D01*
X000780Y000785D02*
X000490Y000785D01*
X000490Y000930D01*
X000538Y000978D01*
X000490Y000683D02*
X000490Y000587D01*
X000490Y000635D02*
X000732Y000635D01*
X000780Y000587D01*
X000780Y000538D01*
X000732Y000490D01*
D12*
X000890Y000205D02*
X001140Y000455D01*
X001140Y000955D01*
X000890Y001205D01*
X001140Y001455D01*
X001140Y001955D01*
X000890Y002205D01*
X001140Y002455D01*
X001140Y002955D01*
X000890Y003205D01*
X001140Y003455D01*
X001140Y003955D01*
X000890Y004205D01*
X001140Y004455D01*
X001140Y004955D01*
X000890Y005205D01*
X001140Y005455D01*
X001140Y005955D01*
X000890Y006205D01*
X001140Y006455D01*
X001140Y006955D01*
X000890Y007205D01*
X001140Y007455D01*
X001140Y007955D01*
X000890Y008205D01*
X001140Y008455D01*
X001140Y008955D01*
X000890Y009205D01*
X001140Y009455D01*
X001140Y009955D01*
X000890Y010205D01*
X000390Y010205D01*
X000140Y009955D01*
X000140Y009455D01*
X000390Y009205D01*
X000140Y008955D01*
X000140Y008455D01*
X000390Y008205D01*
X000140Y007955D01*
X000140Y007455D01*
X000390Y007205D01*
X000140Y006955D01*
X000140Y006455D01*
X000390Y006205D01*
X000140Y005955D01*
X000140Y005455D01*
X000390Y005205D01*
X000140Y004955D01*
X000140Y004455D01*
X000390Y004205D01*
X000140Y003955D01*
X000140Y003455D01*
X000390Y003205D01*
X000140Y002955D01*
X000140Y002455D01*
X000390Y002205D01*
X000140Y001955D01*
X000140Y001455D01*
X000390Y001205D01*
X000140Y000955D01*
X000140Y000455D01*
X000390Y000205D01*
X000890Y000205D01*
X005171Y000445D02*
X005509Y000445D01*
X005659Y000899D02*
X005659Y001111D01*
X005509Y001565D02*
X005171Y001565D01*
X010676Y001556D02*
X010991Y001556D01*
X010991Y001320D01*
X010991Y000690D02*
X010991Y000454D01*
X010676Y000454D01*
X014422Y000665D02*
X014422Y003245D01*
X016861Y003245D01*
X016861Y003915D02*
X014422Y003915D01*
X014422Y006495D01*
X016861Y006495D01*
X016861Y007165D02*
X014422Y007165D01*
X014422Y009745D01*
X016861Y009745D01*
X010991Y008056D02*
X010991Y007820D01*
X010991Y008056D02*
X010676Y008056D01*
X010991Y007190D02*
X010991Y006954D01*
X010676Y006954D01*
X010676Y004806D02*
X010991Y004806D01*
X010991Y004570D01*
X010991Y003940D02*
X010991Y003704D01*
X010676Y003704D01*
X014422Y000665D02*
X016861Y000665D01*
X004990Y007565D02*
X003690Y007565D01*
X003690Y010145D01*
X004990Y010145D01*
X004990Y007565D01*
X003105Y007349D02*
X002475Y007349D01*
X002475Y007348D02*
X002459Y007343D01*
X002443Y007335D01*
X002429Y007325D01*
X002417Y007313D01*
X002407Y007298D01*
X002400Y007282D01*
X002396Y007265D01*
X002395Y007248D01*
X002397Y007230D01*
X002362Y006924D02*
X001418Y006924D01*
X001418Y007711D01*
X002362Y007711D02*
X002362Y006924D01*
X002397Y006680D02*
X002395Y006662D01*
X002396Y006645D01*
X002400Y006628D01*
X002407Y006612D01*
X002417Y006597D01*
X002429Y006585D01*
X002443Y006575D01*
X002459Y006567D01*
X002475Y006562D01*
X002475Y006561D02*
X003105Y006561D01*
X003105Y006549D02*
X002475Y006549D01*
X002475Y006548D02*
X002459Y006543D01*
X002443Y006535D01*
X002429Y006525D01*
X002417Y006513D01*
X002407Y006498D01*
X002400Y006482D01*
X002396Y006465D01*
X002395Y006448D01*
X002397Y006430D01*
X003105Y006548D02*
X003121Y006543D01*
X003137Y006535D01*
X003151Y006525D01*
X003163Y006513D01*
X003173Y006498D01*
X003180Y006482D01*
X003184Y006465D01*
X003185Y006448D01*
X003183Y006430D01*
X003105Y006562D02*
X003121Y006567D01*
X003137Y006575D01*
X003151Y006585D01*
X003163Y006597D01*
X003173Y006612D01*
X003180Y006628D01*
X003184Y006645D01*
X003185Y006662D01*
X003183Y006680D01*
X003183Y007230D02*
X003185Y007248D01*
X003184Y007265D01*
X003180Y007282D01*
X003173Y007298D01*
X003163Y007313D01*
X003151Y007325D01*
X003137Y007335D01*
X003121Y007343D01*
X003105Y007348D01*
X002362Y008499D02*
X002362Y009129D01*
X002205Y009286D01*
X001575Y009286D01*
X001418Y009129D01*
X001418Y008499D01*
X002397Y005880D02*
X002395Y005862D01*
X002396Y005845D01*
X002400Y005828D01*
X002407Y005812D01*
X002417Y005797D01*
X002429Y005785D01*
X002443Y005775D01*
X002459Y005767D01*
X002475Y005762D01*
X002475Y005761D02*
X003105Y005761D01*
X003105Y005762D02*
X003121Y005767D01*
X003137Y005775D01*
X003151Y005785D01*
X003163Y005797D01*
X003173Y005812D01*
X003180Y005828D01*
X003184Y005845D01*
X003185Y005862D01*
X003183Y005880D01*
D13*
X014232Y005205D03*
X014232Y001955D03*
X014232Y008455D03*
D14*
X012515Y008180D03*
X012515Y008930D03*
X012515Y009680D03*
X008190Y007055D03*
X010965Y006505D03*
X012515Y006430D03*
X012515Y005680D03*
X012515Y004930D03*
X010965Y003255D03*
X012515Y003180D03*
X012515Y002430D03*
X012515Y001680D03*
X009440Y004480D03*
D15*
X010040Y005455D03*
X011540Y005455D03*
X009765Y007180D03*
X010040Y008705D03*
X011540Y008705D03*
X001540Y005015D03*
X009440Y001005D03*
X010040Y002205D03*
X011540Y002205D03*
D16*
X005915Y003798D02*
X005797Y003680D01*
X004183Y003680D02*
X004065Y003798D01*
X003946Y003620D02*
X003948Y003635D01*
X003953Y003648D01*
X003962Y003660D01*
X003973Y003670D01*
X003987Y003676D01*
X004001Y003679D01*
X004016Y003678D01*
X004030Y003673D01*
X004043Y003665D01*
X004053Y003655D01*
X004060Y003642D01*
X004064Y003627D01*
X004064Y003613D01*
X004060Y003598D01*
X004053Y003585D01*
X004043Y003575D01*
X004030Y003567D01*
X004016Y003562D01*
X004001Y003561D01*
X003987Y003564D01*
X003973Y003570D01*
X003962Y003580D01*
X003953Y003592D01*
X003948Y003605D01*
X003946Y003620D01*
X004065Y005412D02*
X004183Y005530D01*
X005797Y005530D02*
X005915Y005412D01*
D17*
X003524Y003158D02*
X001556Y003158D01*
X001556Y000402D01*
X003524Y000402D01*
X003524Y003158D01*
X001220Y003434D02*
X001222Y003454D01*
X001227Y003474D01*
X001237Y003492D01*
X001249Y003509D01*
X001264Y003523D01*
X001282Y003533D01*
X001301Y003541D01*
X001321Y003545D01*
X001341Y003545D01*
X001361Y003541D01*
X001380Y003533D01*
X001398Y003523D01*
X001413Y003509D01*
X001425Y003492D01*
X001435Y003474D01*
X001440Y003454D01*
X001442Y003434D01*
X001440Y003414D01*
X001435Y003394D01*
X001425Y003376D01*
X001413Y003359D01*
X001398Y003345D01*
X001380Y003335D01*
X001361Y003327D01*
X001341Y003323D01*
X001321Y003323D01*
X001301Y003327D01*
X001282Y003335D01*
X001264Y003345D01*
X001249Y003359D01*
X001237Y003376D01*
X001227Y003394D01*
X001222Y003414D01*
X001220Y003434D01*
D18*
X001490Y008255D02*
X002290Y008255D01*
D19*
X005273Y006355D02*
X005297Y006355D01*
X002302Y005015D02*
X002278Y005015D01*
X002540Y003517D02*
X002540Y003493D01*
X004880Y002505D02*
X004904Y002505D01*
X005628Y002505D02*
X005652Y002505D01*
X010778Y002205D02*
X010802Y002205D01*
X010802Y005455D02*
X010778Y005455D01*
X010802Y008705D02*
X010778Y008705D01*
M02*
