G75*
G70*
%OFA0B0*%
%FSLAX24Y24*%
%IPPOS*%
%LPD*%
%AMOC8*
5,1,8,0,0,1.08239X$1,22.5*
%
%ADD10C,0.0000*%
%ADD11C,0.0001*%
%ADD12R,0.1181X0.0630*%
%ADD13R,0.2250X0.1900*%
%ADD14R,0.0354X0.0315*%
%ADD15R,0.0433X0.0394*%
%ADD16R,0.0394X0.0433*%
%ADD17C,0.0059*%
%ADD18R,0.0500X0.0500*%
%ADD19R,0.0748X0.0433*%
%ADD20R,0.0880X0.0480*%
%ADD21R,0.0866X0.1417*%
%ADD22R,0.0630X0.0748*%
%ADD23R,0.0472X0.0217*%
D10*
X000150Y000450D02*
X000150Y010450D01*
X019650Y010450D01*
X019650Y000450D01*
X000150Y000450D01*
X011450Y000600D02*
X014125Y000600D01*
X014125Y001625D01*
X012850Y001625D01*
X012650Y001425D01*
X011550Y001425D01*
X011450Y001325D01*
X011450Y000600D01*
X013250Y006775D02*
X013150Y006975D01*
X011650Y006975D01*
X011575Y007050D01*
X011450Y007050D01*
X011450Y007825D01*
X011550Y007925D01*
X012575Y007925D01*
X012775Y008125D01*
X014125Y008125D01*
X014125Y006775D01*
X013250Y006775D01*
X014125Y006775D01*
X014125Y008125D01*
X012800Y008125D01*
X012600Y007925D01*
X011550Y007925D01*
X011450Y007825D01*
X011450Y007050D01*
X011575Y007050D01*
X011650Y006975D01*
X013150Y006975D01*
X013250Y006775D01*
D11*
X013250Y006776D02*
X014125Y006776D01*
X013250Y006776D01*
X013249Y006777D02*
X014125Y006777D01*
X013249Y006777D01*
X013249Y006778D02*
X014125Y006778D01*
X013249Y006778D01*
X013248Y006779D02*
X014125Y006779D01*
X013248Y006779D01*
X013248Y006780D02*
X014125Y006780D01*
X013248Y006780D01*
X013247Y006781D02*
X014125Y006781D01*
X013247Y006781D01*
X013247Y006782D02*
X014125Y006782D01*
X013247Y006782D01*
X013246Y006783D02*
X014125Y006783D01*
X013246Y006783D01*
X013246Y006784D02*
X014125Y006784D01*
X013246Y006784D01*
X013245Y006785D02*
X014125Y006785D01*
X013245Y006785D01*
X013245Y006786D02*
X014125Y006786D01*
X013245Y006786D01*
X013244Y006787D02*
X014125Y006787D01*
X013244Y006787D01*
X013244Y006788D02*
X014125Y006788D01*
X013244Y006788D01*
X013243Y006789D02*
X014125Y006789D01*
X013243Y006789D01*
X013243Y006790D02*
X014125Y006790D01*
X013243Y006790D01*
X013242Y006791D02*
X014125Y006791D01*
X013242Y006791D01*
X013242Y006792D02*
X014125Y006792D01*
X013242Y006792D01*
X013241Y006793D02*
X014125Y006793D01*
X013241Y006793D01*
X013241Y006794D02*
X014125Y006794D01*
X013241Y006794D01*
X013240Y006795D02*
X014125Y006795D01*
X013240Y006795D01*
X013240Y006796D02*
X014125Y006796D01*
X013240Y006796D01*
X013239Y006797D02*
X014125Y006797D01*
X013239Y006797D01*
X013239Y006798D02*
X014125Y006798D01*
X013239Y006798D01*
X013238Y006799D02*
X014125Y006799D01*
X013238Y006799D01*
X013238Y006800D02*
X014125Y006800D01*
X013238Y006800D01*
X013237Y006801D02*
X014125Y006801D01*
X013237Y006801D01*
X013237Y006802D02*
X014125Y006802D01*
X013237Y006802D01*
X013236Y006803D02*
X014125Y006803D01*
X013236Y006803D01*
X013236Y006804D02*
X014125Y006804D01*
X013236Y006804D01*
X013235Y006805D02*
X014125Y006805D01*
X013235Y006805D01*
X013235Y006806D02*
X014125Y006806D01*
X013235Y006806D01*
X013234Y006807D02*
X014125Y006807D01*
X013234Y006807D01*
X013234Y006808D02*
X014125Y006808D01*
X013234Y006808D01*
X013233Y006809D02*
X014125Y006809D01*
X013233Y006809D01*
X013233Y006810D02*
X014125Y006810D01*
X013233Y006810D01*
X013232Y006811D02*
X014125Y006811D01*
X013232Y006811D01*
X013232Y006812D02*
X014125Y006812D01*
X013232Y006812D01*
X013231Y006813D02*
X014125Y006813D01*
X013231Y006813D01*
X013231Y006814D02*
X014125Y006814D01*
X013231Y006814D01*
X013230Y006815D02*
X014125Y006815D01*
X013230Y006815D01*
X013230Y006816D02*
X014125Y006816D01*
X013230Y006816D01*
X013229Y006817D02*
X014125Y006817D01*
X013229Y006817D01*
X013229Y006818D02*
X014125Y006818D01*
X013229Y006818D01*
X013228Y006819D02*
X014125Y006819D01*
X013228Y006819D01*
X013228Y006820D02*
X014125Y006820D01*
X013228Y006820D01*
X013227Y006821D02*
X014125Y006821D01*
X013227Y006821D01*
X013227Y006822D02*
X014125Y006822D01*
X013227Y006822D01*
X013226Y006823D02*
X014125Y006823D01*
X013226Y006823D01*
X013226Y006824D02*
X014125Y006824D01*
X013226Y006824D01*
X013225Y006825D02*
X014125Y006825D01*
X013225Y006825D01*
X013225Y006826D02*
X014125Y006826D01*
X013225Y006826D01*
X013224Y006827D02*
X014125Y006827D01*
X013224Y006827D01*
X013224Y006828D02*
X014125Y006828D01*
X013224Y006828D01*
X013223Y006829D02*
X014125Y006829D01*
X013223Y006829D01*
X013223Y006830D02*
X014125Y006830D01*
X013223Y006830D01*
X013222Y006831D02*
X014125Y006831D01*
X013222Y006831D01*
X013222Y006832D02*
X014125Y006832D01*
X013222Y006832D01*
X013221Y006833D02*
X014125Y006833D01*
X013221Y006833D01*
X013221Y006834D02*
X014125Y006834D01*
X013221Y006834D01*
X013220Y006835D02*
X014125Y006835D01*
X013220Y006835D01*
X013220Y006836D02*
X014125Y006836D01*
X013220Y006836D01*
X013219Y006837D02*
X014125Y006837D01*
X013219Y006837D01*
X013219Y006838D02*
X014125Y006838D01*
X013219Y006838D01*
X013218Y006839D02*
X014125Y006839D01*
X013218Y006839D01*
X013218Y006840D02*
X014125Y006840D01*
X013218Y006840D01*
X013217Y006841D02*
X014125Y006841D01*
X013217Y006841D01*
X013217Y006842D02*
X014125Y006842D01*
X013217Y006842D01*
X013216Y006843D02*
X014125Y006843D01*
X013216Y006843D01*
X013216Y006844D02*
X014125Y006844D01*
X013216Y006844D01*
X013215Y006845D02*
X014125Y006845D01*
X013215Y006845D01*
X013215Y006846D02*
X014125Y006846D01*
X013215Y006846D01*
X013214Y006847D02*
X014125Y006847D01*
X013214Y006847D01*
X013214Y006848D02*
X014125Y006848D01*
X013214Y006848D01*
X013213Y006849D02*
X014125Y006849D01*
X013213Y006849D01*
X013213Y006850D02*
X014125Y006850D01*
X013213Y006850D01*
X013212Y006851D02*
X014125Y006851D01*
X013212Y006851D01*
X013212Y006852D02*
X014125Y006852D01*
X013212Y006852D01*
X013211Y006853D02*
X014125Y006853D01*
X013211Y006853D01*
X013211Y006854D02*
X014125Y006854D01*
X013211Y006854D01*
X013210Y006855D02*
X014125Y006855D01*
X013210Y006855D01*
X013210Y006856D02*
X014125Y006856D01*
X013210Y006856D01*
X013209Y006857D02*
X014125Y006857D01*
X013209Y006857D01*
X013209Y006858D02*
X014125Y006858D01*
X013209Y006858D01*
X013208Y006859D02*
X014125Y006859D01*
X013208Y006859D01*
X013208Y006860D02*
X014125Y006860D01*
X013208Y006860D01*
X013207Y006861D02*
X014125Y006861D01*
X013207Y006861D01*
X013207Y006862D02*
X014125Y006862D01*
X013207Y006862D01*
X013206Y006863D02*
X014125Y006863D01*
X013206Y006863D01*
X013206Y006864D02*
X014125Y006864D01*
X013206Y006864D01*
X013205Y006865D02*
X014125Y006865D01*
X013205Y006865D01*
X013205Y006866D02*
X014125Y006866D01*
X013205Y006866D01*
X013204Y006867D02*
X014125Y006867D01*
X013204Y006867D01*
X013204Y006868D02*
X014125Y006868D01*
X013204Y006868D01*
X013203Y006869D02*
X014125Y006869D01*
X013203Y006869D01*
X013203Y006870D02*
X014125Y006870D01*
X013203Y006870D01*
X013202Y006871D02*
X014125Y006871D01*
X013202Y006871D01*
X013202Y006872D02*
X014125Y006872D01*
X013202Y006872D01*
X013201Y006873D02*
X014125Y006873D01*
X013201Y006873D01*
X013201Y006874D02*
X014125Y006874D01*
X013201Y006874D01*
X013200Y006875D02*
X014125Y006875D01*
X013200Y006875D01*
X013200Y006876D02*
X014125Y006876D01*
X013200Y006876D01*
X013199Y006877D02*
X014125Y006877D01*
X013199Y006877D01*
X013199Y006878D02*
X014125Y006878D01*
X013199Y006878D01*
X013198Y006879D02*
X014125Y006879D01*
X013198Y006879D01*
X013198Y006880D02*
X014125Y006880D01*
X013198Y006880D01*
X013197Y006881D02*
X014125Y006881D01*
X013197Y006881D01*
X013197Y006882D02*
X014125Y006882D01*
X013197Y006882D01*
X013196Y006883D02*
X014125Y006883D01*
X013196Y006883D01*
X013196Y006884D02*
X014125Y006884D01*
X013196Y006884D01*
X013195Y006885D02*
X014125Y006885D01*
X013195Y006885D01*
X013195Y006886D02*
X014125Y006886D01*
X013195Y006886D01*
X013194Y006887D02*
X014125Y006887D01*
X013194Y006887D01*
X013194Y006888D02*
X014125Y006888D01*
X013194Y006888D01*
X013193Y006889D02*
X014125Y006889D01*
X013193Y006889D01*
X013193Y006890D02*
X014125Y006890D01*
X013193Y006890D01*
X013192Y006891D02*
X014125Y006891D01*
X013192Y006891D01*
X013192Y006892D02*
X014125Y006892D01*
X013192Y006892D01*
X013191Y006893D02*
X014125Y006893D01*
X013191Y006893D01*
X013191Y006894D02*
X014125Y006894D01*
X013191Y006894D01*
X013190Y006895D02*
X014125Y006895D01*
X013190Y006895D01*
X013190Y006896D02*
X014125Y006896D01*
X013190Y006896D01*
X013189Y006897D02*
X014125Y006897D01*
X013189Y006897D01*
X013189Y006898D02*
X014125Y006898D01*
X013189Y006898D01*
X013188Y006899D02*
X014125Y006899D01*
X013188Y006899D01*
X013188Y006900D02*
X014125Y006900D01*
X013188Y006900D01*
X013187Y006901D02*
X014125Y006901D01*
X013187Y006901D01*
X013187Y006902D02*
X014125Y006902D01*
X013187Y006902D01*
X013186Y006903D02*
X014125Y006903D01*
X013186Y006903D01*
X013186Y006904D02*
X014125Y006904D01*
X013186Y006904D01*
X013185Y006905D02*
X014125Y006905D01*
X013185Y006905D01*
X013185Y006906D02*
X014125Y006906D01*
X013185Y006906D01*
X013184Y006907D02*
X014125Y006907D01*
X013184Y006907D01*
X013184Y006908D02*
X014125Y006908D01*
X013184Y006908D01*
X013183Y006909D02*
X014125Y006909D01*
X013183Y006909D01*
X013183Y006910D02*
X014125Y006910D01*
X013183Y006910D01*
X013182Y006911D02*
X014125Y006911D01*
X013182Y006911D01*
X013182Y006912D02*
X014125Y006912D01*
X013182Y006912D01*
X013181Y006913D02*
X014125Y006913D01*
X013181Y006913D01*
X013181Y006914D02*
X014125Y006914D01*
X013181Y006914D01*
X013180Y006915D02*
X014125Y006915D01*
X013180Y006915D01*
X013180Y006916D02*
X014125Y006916D01*
X013180Y006916D01*
X013179Y006917D02*
X014125Y006917D01*
X013179Y006917D01*
X013179Y006918D02*
X014125Y006918D01*
X013179Y006918D01*
X013178Y006919D02*
X014125Y006919D01*
X013178Y006919D01*
X013178Y006920D02*
X014125Y006920D01*
X013178Y006920D01*
X013177Y006921D02*
X014125Y006921D01*
X013177Y006921D01*
X013177Y006922D02*
X014125Y006922D01*
X013177Y006922D01*
X013176Y006923D02*
X014125Y006923D01*
X013176Y006923D01*
X013176Y006924D02*
X014125Y006924D01*
X013176Y006924D01*
X013175Y006925D02*
X014125Y006925D01*
X013175Y006925D01*
X013175Y006926D02*
X014125Y006926D01*
X013175Y006926D01*
X013174Y006927D02*
X014125Y006927D01*
X013174Y006927D01*
X013174Y006928D02*
X014125Y006928D01*
X013174Y006928D01*
X013173Y006929D02*
X014125Y006929D01*
X013173Y006929D01*
X013173Y006930D02*
X014125Y006930D01*
X013173Y006930D01*
X013172Y006931D02*
X014125Y006931D01*
X013172Y006931D01*
X013172Y006932D02*
X014125Y006932D01*
X013172Y006932D01*
X013171Y006933D02*
X014125Y006933D01*
X013171Y006933D01*
X013171Y006934D02*
X014125Y006934D01*
X013171Y006934D01*
X013170Y006935D02*
X014125Y006935D01*
X013170Y006935D01*
X013170Y006936D02*
X014125Y006936D01*
X013170Y006936D01*
X013169Y006937D02*
X014125Y006937D01*
X013169Y006937D01*
X013169Y006938D02*
X014125Y006938D01*
X013169Y006938D01*
X013168Y006939D02*
X014125Y006939D01*
X013168Y006939D01*
X013168Y006940D02*
X014125Y006940D01*
X013168Y006940D01*
X013167Y006941D02*
X014125Y006941D01*
X013167Y006941D01*
X013167Y006942D02*
X014125Y006942D01*
X013167Y006942D01*
X013166Y006943D02*
X014125Y006943D01*
X013166Y006943D01*
X013166Y006944D02*
X014125Y006944D01*
X013166Y006944D01*
X013165Y006945D02*
X014125Y006945D01*
X013165Y006945D01*
X013165Y006946D02*
X014125Y006946D01*
X013165Y006946D01*
X013164Y006947D02*
X014125Y006947D01*
X013164Y006947D01*
X013164Y006948D02*
X014125Y006948D01*
X013164Y006948D01*
X013163Y006949D02*
X014125Y006949D01*
X013163Y006949D01*
X013163Y006950D02*
X014125Y006950D01*
X013163Y006950D01*
X013162Y006951D02*
X014125Y006951D01*
X013162Y006951D01*
X013162Y006952D02*
X014125Y006952D01*
X013162Y006952D01*
X013161Y006953D02*
X014125Y006953D01*
X013161Y006953D01*
X013161Y006954D02*
X014125Y006954D01*
X013161Y006954D01*
X013160Y006955D02*
X014125Y006955D01*
X013160Y006955D01*
X013160Y006956D02*
X014125Y006956D01*
X013160Y006956D01*
X013159Y006957D02*
X014125Y006957D01*
X013159Y006957D01*
X013159Y006958D02*
X014125Y006958D01*
X013159Y006958D01*
X013158Y006959D02*
X014125Y006959D01*
X013158Y006959D01*
X013158Y006960D02*
X014125Y006960D01*
X013158Y006960D01*
X013157Y006961D02*
X014125Y006961D01*
X013157Y006961D01*
X013157Y006962D02*
X014125Y006962D01*
X013157Y006962D01*
X013156Y006963D02*
X014125Y006963D01*
X013156Y006963D01*
X013156Y006964D02*
X014125Y006964D01*
X013156Y006964D01*
X013155Y006965D02*
X014125Y006965D01*
X013155Y006965D01*
X013155Y006966D02*
X014125Y006966D01*
X013155Y006966D01*
X013154Y006967D02*
X014125Y006967D01*
X013154Y006967D01*
X013154Y006968D02*
X014125Y006968D01*
X013154Y006968D01*
X013153Y006969D02*
X014125Y006969D01*
X013153Y006969D01*
X013153Y006970D02*
X014125Y006970D01*
X013153Y006970D01*
X013152Y006971D02*
X014125Y006971D01*
X013152Y006971D01*
X013152Y006972D02*
X014125Y006972D01*
X013152Y006972D01*
X013151Y006973D02*
X014125Y006973D01*
X013151Y006973D01*
X013151Y006974D02*
X014125Y006974D01*
X013151Y006974D01*
X013150Y006975D02*
X014125Y006975D01*
X013150Y006975D01*
X014125Y006976D02*
X011649Y006976D01*
X014125Y006976D01*
X014125Y006977D02*
X011648Y006977D01*
X014125Y006977D01*
X014125Y006978D02*
X011647Y006978D01*
X014125Y006978D01*
X014125Y006979D02*
X011646Y006979D01*
X014125Y006979D01*
X014125Y006980D02*
X011645Y006980D01*
X014125Y006980D01*
X014125Y006981D02*
X011644Y006981D01*
X014125Y006981D01*
X014125Y006982D02*
X011643Y006982D01*
X014125Y006982D01*
X014125Y006983D02*
X011642Y006983D01*
X014125Y006983D01*
X014125Y006984D02*
X011641Y006984D01*
X014125Y006984D01*
X014125Y006985D02*
X011640Y006985D01*
X014125Y006985D01*
X014125Y006986D02*
X011639Y006986D01*
X014125Y006986D01*
X014125Y006987D02*
X011638Y006987D01*
X014125Y006987D01*
X014125Y006988D02*
X011637Y006988D01*
X014125Y006988D01*
X014125Y006989D02*
X011636Y006989D01*
X014125Y006989D01*
X014125Y006990D02*
X011635Y006990D01*
X014125Y006990D01*
X014125Y006991D02*
X011634Y006991D01*
X014125Y006991D01*
X014125Y006992D02*
X011633Y006992D01*
X014125Y006992D01*
X014125Y006993D02*
X011632Y006993D01*
X014125Y006993D01*
X014125Y006994D02*
X011631Y006994D01*
X014125Y006994D01*
X014125Y006995D02*
X011630Y006995D01*
X014125Y006995D01*
X014125Y006996D02*
X011629Y006996D01*
X014125Y006996D01*
X014125Y006997D02*
X011628Y006997D01*
X014125Y006997D01*
X014125Y006998D02*
X011627Y006998D01*
X014125Y006998D01*
X014125Y006999D02*
X011626Y006999D01*
X014125Y006999D01*
X014125Y007000D02*
X011625Y007000D01*
X014125Y007000D01*
X014125Y007001D02*
X011624Y007001D01*
X014125Y007001D01*
X014125Y007002D02*
X011623Y007002D01*
X014125Y007002D01*
X014125Y007003D02*
X011622Y007003D01*
X014125Y007003D01*
X014125Y007004D02*
X011621Y007004D01*
X014125Y007004D01*
X014125Y007005D02*
X011620Y007005D01*
X014125Y007005D01*
X014125Y007006D02*
X011619Y007006D01*
X014125Y007006D01*
X014125Y007007D02*
X011618Y007007D01*
X014125Y007007D01*
X014125Y007008D02*
X011617Y007008D01*
X014125Y007008D01*
X014125Y007009D02*
X011616Y007009D01*
X014125Y007009D01*
X014125Y007010D02*
X011615Y007010D01*
X014125Y007010D01*
X014125Y007011D02*
X011614Y007011D01*
X014125Y007011D01*
X014125Y007012D02*
X011613Y007012D01*
X014125Y007012D01*
X014125Y007013D02*
X011612Y007013D01*
X014125Y007013D01*
X014125Y007014D02*
X011611Y007014D01*
X014125Y007014D01*
X014125Y007015D02*
X011610Y007015D01*
X014125Y007015D01*
X014125Y007016D02*
X011609Y007016D01*
X014125Y007016D01*
X014125Y007017D02*
X011608Y007017D01*
X014125Y007017D01*
X014125Y007018D02*
X011607Y007018D01*
X014125Y007018D01*
X014125Y007019D02*
X011606Y007019D01*
X014125Y007019D01*
X014125Y007020D02*
X011605Y007020D01*
X014125Y007020D01*
X014125Y007021D02*
X011604Y007021D01*
X014125Y007021D01*
X014125Y007022D02*
X011603Y007022D01*
X014125Y007022D01*
X014125Y007023D02*
X011602Y007023D01*
X014125Y007023D01*
X014125Y007024D02*
X011601Y007024D01*
X014125Y007024D01*
X014125Y007025D02*
X011600Y007025D01*
X014125Y007025D01*
X014125Y007026D02*
X011599Y007026D01*
X014125Y007026D01*
X014125Y007027D02*
X011598Y007027D01*
X014125Y007027D01*
X014125Y007028D02*
X011597Y007028D01*
X014125Y007028D01*
X014125Y007029D02*
X011596Y007029D01*
X014125Y007029D01*
X014125Y007030D02*
X011595Y007030D01*
X014125Y007030D01*
X014125Y007031D02*
X011594Y007031D01*
X014125Y007031D01*
X014125Y007032D02*
X011593Y007032D01*
X014125Y007032D01*
X014125Y007033D02*
X011592Y007033D01*
X014125Y007033D01*
X014125Y007034D02*
X011591Y007034D01*
X014125Y007034D01*
X014125Y007035D02*
X011590Y007035D01*
X014125Y007035D01*
X014125Y007036D02*
X011589Y007036D01*
X014125Y007036D01*
X014125Y007037D02*
X011588Y007037D01*
X014125Y007037D01*
X014125Y007038D02*
X011587Y007038D01*
X014125Y007038D01*
X014125Y007039D02*
X011586Y007039D01*
X014125Y007039D01*
X014125Y007040D02*
X011585Y007040D01*
X014125Y007040D01*
X014125Y007041D02*
X011584Y007041D01*
X014125Y007041D01*
X014125Y007042D02*
X011583Y007042D01*
X014125Y007042D01*
X014125Y007043D02*
X011582Y007043D01*
X014125Y007043D01*
X014125Y007044D02*
X011581Y007044D01*
X014125Y007044D01*
X014125Y007045D02*
X011580Y007045D01*
X014125Y007045D01*
X014125Y007046D02*
X011579Y007046D01*
X014125Y007046D01*
X014125Y007047D02*
X011578Y007047D01*
X011578Y007048D02*
X014125Y007048D01*
X011577Y007048D01*
X014125Y007048D01*
X011578Y007048D01*
X011578Y007047D02*
X014125Y007047D01*
X014125Y007049D02*
X011576Y007049D01*
X014125Y007049D01*
X014125Y007050D02*
X011450Y007050D01*
X014125Y007050D01*
X014125Y007051D02*
X011450Y007051D01*
X014125Y007051D01*
X014125Y007052D02*
X011450Y007052D01*
X014125Y007052D01*
X014125Y007053D02*
X011450Y007053D01*
X014125Y007053D01*
X014125Y007054D02*
X011450Y007054D01*
X014125Y007054D01*
X014125Y007055D02*
X011450Y007055D01*
X014125Y007055D01*
X014125Y007056D02*
X011450Y007056D01*
X014125Y007056D01*
X014125Y007057D02*
X011450Y007057D01*
X014125Y007057D01*
X014125Y007058D02*
X011450Y007058D01*
X014125Y007058D01*
X014125Y007059D02*
X011450Y007059D01*
X014125Y007059D01*
X014125Y007060D02*
X011450Y007060D01*
X014125Y007060D01*
X014125Y007061D02*
X011450Y007061D01*
X014125Y007061D01*
X014125Y007062D02*
X011450Y007062D01*
X014125Y007062D01*
X014125Y007063D02*
X011450Y007063D01*
X014125Y007063D01*
X014125Y007064D02*
X011450Y007064D01*
X014125Y007064D01*
X014125Y007065D02*
X011450Y007065D01*
X014125Y007065D01*
X014125Y007066D02*
X011450Y007066D01*
X014125Y007066D01*
X014125Y007067D02*
X011450Y007067D01*
X014125Y007067D01*
X014125Y007068D02*
X011450Y007068D01*
X014125Y007068D01*
X014125Y007069D02*
X011450Y007069D01*
X014125Y007069D01*
X014125Y007070D02*
X011450Y007070D01*
X014125Y007070D01*
X014125Y007071D02*
X011450Y007071D01*
X014125Y007071D01*
X014125Y007072D02*
X011450Y007072D01*
X014125Y007072D01*
X014125Y007073D02*
X011450Y007073D01*
X014125Y007073D01*
X014125Y007074D02*
X011450Y007074D01*
X014125Y007074D01*
X014125Y007075D02*
X011450Y007075D01*
X014125Y007075D01*
X014125Y007076D02*
X011450Y007076D01*
X014125Y007076D01*
X014125Y007077D02*
X011450Y007077D01*
X014125Y007077D01*
X014125Y007078D02*
X011450Y007078D01*
X014125Y007078D01*
X014125Y007079D02*
X011450Y007079D01*
X014125Y007079D01*
X014125Y007080D02*
X011450Y007080D01*
X014125Y007080D01*
X014125Y007081D02*
X011450Y007081D01*
X014125Y007081D01*
X014125Y007082D02*
X011450Y007082D01*
X014125Y007082D01*
X014125Y007083D02*
X011450Y007083D01*
X014125Y007083D01*
X014125Y007084D02*
X011450Y007084D01*
X014125Y007084D01*
X014125Y007085D02*
X011450Y007085D01*
X014125Y007085D01*
X014125Y007086D02*
X011450Y007086D01*
X014125Y007086D01*
X014125Y007087D02*
X011450Y007087D01*
X014125Y007087D01*
X014125Y007088D02*
X011450Y007088D01*
X014125Y007088D01*
X014125Y007089D02*
X011450Y007089D01*
X014125Y007089D01*
X014125Y007090D02*
X011450Y007090D01*
X014125Y007090D01*
X014125Y007091D02*
X011450Y007091D01*
X014125Y007091D01*
X014125Y007092D02*
X011450Y007092D01*
X014125Y007092D01*
X014125Y007093D02*
X011450Y007093D01*
X014125Y007093D01*
X014125Y007094D02*
X011450Y007094D01*
X014125Y007094D01*
X014125Y007095D02*
X011450Y007095D01*
X014125Y007095D01*
X014125Y007096D02*
X011450Y007096D01*
X014125Y007096D01*
X014125Y007097D02*
X011450Y007097D01*
X014125Y007097D01*
X014125Y007098D02*
X011450Y007098D01*
X014125Y007098D01*
X014125Y007099D02*
X011450Y007099D01*
X014125Y007099D01*
X014125Y007100D02*
X011450Y007100D01*
X014125Y007100D01*
X014125Y007101D02*
X011450Y007101D01*
X014125Y007101D01*
X014125Y007102D02*
X011450Y007102D01*
X014125Y007102D01*
X014125Y007103D02*
X011450Y007103D01*
X014125Y007103D01*
X014125Y007104D02*
X011450Y007104D01*
X014125Y007104D01*
X014125Y007105D02*
X011450Y007105D01*
X014125Y007105D01*
X014125Y007106D02*
X011450Y007106D01*
X014125Y007106D01*
X014125Y007107D02*
X011450Y007107D01*
X014125Y007107D01*
X014125Y007108D02*
X011450Y007108D01*
X014125Y007108D01*
X014125Y007109D02*
X011450Y007109D01*
X014125Y007109D01*
X014125Y007110D02*
X011450Y007110D01*
X014125Y007110D01*
X014125Y007111D02*
X011450Y007111D01*
X014125Y007111D01*
X014125Y007112D02*
X011450Y007112D01*
X014125Y007112D01*
X014125Y007113D02*
X011450Y007113D01*
X014125Y007113D01*
X014125Y007114D02*
X011450Y007114D01*
X014125Y007114D01*
X014125Y007115D02*
X011450Y007115D01*
X014125Y007115D01*
X014125Y007116D02*
X011450Y007116D01*
X014125Y007116D01*
X014125Y007117D02*
X011450Y007117D01*
X014125Y007117D01*
X014125Y007118D02*
X011450Y007118D01*
X014125Y007118D01*
X014125Y007119D02*
X011450Y007119D01*
X014125Y007119D01*
X014125Y007120D02*
X011450Y007120D01*
X014125Y007120D01*
X014125Y007121D02*
X011450Y007121D01*
X014125Y007121D01*
X014125Y007122D02*
X011450Y007122D01*
X014125Y007122D01*
X014125Y007123D02*
X011450Y007123D01*
X014125Y007123D01*
X014125Y007124D02*
X011450Y007124D01*
X014125Y007124D01*
X014125Y007125D02*
X011450Y007125D01*
X014125Y007125D01*
X014125Y007126D02*
X011450Y007126D01*
X014125Y007126D01*
X014125Y007127D02*
X011450Y007127D01*
X014125Y007127D01*
X014125Y007128D02*
X011450Y007128D01*
X014125Y007128D01*
X014125Y007129D02*
X011450Y007129D01*
X014125Y007129D01*
X014125Y007130D02*
X011450Y007130D01*
X014125Y007130D01*
X014125Y007131D02*
X011450Y007131D01*
X014125Y007131D01*
X014125Y007132D02*
X011450Y007132D01*
X014125Y007132D01*
X014125Y007133D02*
X011450Y007133D01*
X014125Y007133D01*
X014125Y007134D02*
X011450Y007134D01*
X014125Y007134D01*
X014125Y007135D02*
X011450Y007135D01*
X014125Y007135D01*
X014125Y007136D02*
X011450Y007136D01*
X014125Y007136D01*
X014125Y007137D02*
X011450Y007137D01*
X014125Y007137D01*
X014125Y007138D02*
X011450Y007138D01*
X014125Y007138D01*
X014125Y007139D02*
X011450Y007139D01*
X014125Y007139D01*
X014125Y007140D02*
X011450Y007140D01*
X014125Y007140D01*
X014125Y007141D02*
X011450Y007141D01*
X014125Y007141D01*
X014125Y007142D02*
X011450Y007142D01*
X014125Y007142D01*
X014125Y007143D02*
X011450Y007143D01*
X014125Y007143D01*
X014125Y007144D02*
X011450Y007144D01*
X014125Y007144D01*
X014125Y007145D02*
X011450Y007145D01*
X014125Y007145D01*
X014125Y007146D02*
X011450Y007146D01*
X014125Y007146D01*
X014125Y007147D02*
X011450Y007147D01*
X014125Y007147D01*
X014125Y007148D02*
X011450Y007148D01*
X014125Y007148D01*
X014125Y007149D02*
X011450Y007149D01*
X014125Y007149D01*
X014125Y007150D02*
X011450Y007150D01*
X014125Y007150D01*
X014125Y007151D02*
X011450Y007151D01*
X014125Y007151D01*
X014125Y007152D02*
X011450Y007152D01*
X014125Y007152D01*
X014125Y007153D02*
X011450Y007153D01*
X014125Y007153D01*
X014125Y007154D02*
X011450Y007154D01*
X014125Y007154D01*
X014125Y007155D02*
X011450Y007155D01*
X014125Y007155D01*
X014125Y007156D02*
X011450Y007156D01*
X014125Y007156D01*
X014125Y007157D02*
X011450Y007157D01*
X014125Y007157D01*
X014125Y007158D02*
X011450Y007158D01*
X014125Y007158D01*
X014125Y007159D02*
X011450Y007159D01*
X014125Y007159D01*
X014125Y007160D02*
X011450Y007160D01*
X014125Y007160D01*
X014125Y007161D02*
X011450Y007161D01*
X014125Y007161D01*
X014125Y007162D02*
X011450Y007162D01*
X014125Y007162D01*
X014125Y007163D02*
X011450Y007163D01*
X014125Y007163D01*
X014125Y007164D02*
X011450Y007164D01*
X014125Y007164D01*
X014125Y007165D02*
X011450Y007165D01*
X014125Y007165D01*
X014125Y007166D02*
X011450Y007166D01*
X014125Y007166D01*
X014125Y007167D02*
X011450Y007167D01*
X014125Y007167D01*
X014125Y007168D02*
X011450Y007168D01*
X014125Y007168D01*
X014125Y007169D02*
X011450Y007169D01*
X014125Y007169D01*
X014125Y007170D02*
X011450Y007170D01*
X014125Y007170D01*
X014125Y007171D02*
X011450Y007171D01*
X014125Y007171D01*
X014125Y007172D02*
X011450Y007172D01*
X014125Y007172D01*
X014125Y007173D02*
X011450Y007173D01*
X014125Y007173D01*
X014125Y007174D02*
X011450Y007174D01*
X014125Y007174D01*
X014125Y007175D02*
X011450Y007175D01*
X014125Y007175D01*
X014125Y007176D02*
X011450Y007176D01*
X014125Y007176D01*
X014125Y007177D02*
X011450Y007177D01*
X014125Y007177D01*
X014125Y007178D02*
X011450Y007178D01*
X014125Y007178D01*
X014125Y007179D02*
X011450Y007179D01*
X014125Y007179D01*
X014125Y007180D02*
X011450Y007180D01*
X014125Y007180D01*
X014125Y007181D02*
X011450Y007181D01*
X014125Y007181D01*
X014125Y007182D02*
X011450Y007182D01*
X014125Y007182D01*
X014125Y007183D02*
X011450Y007183D01*
X014125Y007183D01*
X014125Y007184D02*
X011450Y007184D01*
X014125Y007184D01*
X014125Y007185D02*
X011450Y007185D01*
X014125Y007185D01*
X014125Y007186D02*
X011450Y007186D01*
X014125Y007186D01*
X014125Y007187D02*
X011450Y007187D01*
X014125Y007187D01*
X014125Y007188D02*
X011450Y007188D01*
X014125Y007188D01*
X014125Y007189D02*
X011450Y007189D01*
X014125Y007189D01*
X014125Y007190D02*
X011450Y007190D01*
X014125Y007190D01*
X014125Y007191D02*
X011450Y007191D01*
X014125Y007191D01*
X014125Y007192D02*
X011450Y007192D01*
X014125Y007192D01*
X014125Y007193D02*
X011450Y007193D01*
X014125Y007193D01*
X014125Y007194D02*
X011450Y007194D01*
X014125Y007194D01*
X014125Y007195D02*
X011450Y007195D01*
X014125Y007195D01*
X014125Y007196D02*
X011450Y007196D01*
X014125Y007196D01*
X014125Y007197D02*
X011450Y007197D01*
X014125Y007197D01*
X014125Y007198D02*
X011450Y007198D01*
X014125Y007198D01*
X014125Y007199D02*
X011450Y007199D01*
X014125Y007199D01*
X014125Y007200D02*
X011450Y007200D01*
X014125Y007200D01*
X014125Y007201D02*
X011450Y007201D01*
X014125Y007201D01*
X014125Y007202D02*
X011450Y007202D01*
X014125Y007202D01*
X014125Y007203D02*
X011450Y007203D01*
X014125Y007203D01*
X014125Y007204D02*
X011450Y007204D01*
X014125Y007204D01*
X014125Y007205D02*
X011450Y007205D01*
X014125Y007205D01*
X014125Y007206D02*
X011450Y007206D01*
X014125Y007206D01*
X014125Y007207D02*
X011450Y007207D01*
X014125Y007207D01*
X014125Y007208D02*
X011450Y007208D01*
X014125Y007208D01*
X014125Y007209D02*
X011450Y007209D01*
X014125Y007209D01*
X014125Y007210D02*
X011450Y007210D01*
X014125Y007210D01*
X014125Y007211D02*
X011450Y007211D01*
X014125Y007211D01*
X014125Y007212D02*
X011450Y007212D01*
X014125Y007212D01*
X014125Y007213D02*
X011450Y007213D01*
X014125Y007213D01*
X014125Y007214D02*
X011450Y007214D01*
X014125Y007214D01*
X014125Y007215D02*
X011450Y007215D01*
X014125Y007215D01*
X014125Y007216D02*
X011450Y007216D01*
X014125Y007216D01*
X014125Y007217D02*
X011450Y007217D01*
X014125Y007217D01*
X014125Y007218D02*
X011450Y007218D01*
X014125Y007218D01*
X014125Y007219D02*
X011450Y007219D01*
X014125Y007219D01*
X014125Y007220D02*
X011450Y007220D01*
X014125Y007220D01*
X014125Y007221D02*
X011450Y007221D01*
X014125Y007221D01*
X014125Y007222D02*
X011450Y007222D01*
X014125Y007222D01*
X014125Y007223D02*
X011450Y007223D01*
X014125Y007223D01*
X014125Y007224D02*
X011450Y007224D01*
X014125Y007224D01*
X014125Y007225D02*
X011450Y007225D01*
X014125Y007225D01*
X014125Y007226D02*
X011450Y007226D01*
X014125Y007226D01*
X014125Y007227D02*
X011450Y007227D01*
X014125Y007227D01*
X014125Y007228D02*
X011450Y007228D01*
X014125Y007228D01*
X014125Y007229D02*
X011450Y007229D01*
X014125Y007229D01*
X014125Y007230D02*
X011450Y007230D01*
X014125Y007230D01*
X014125Y007231D02*
X011450Y007231D01*
X014125Y007231D01*
X014125Y007232D02*
X011450Y007232D01*
X014125Y007232D01*
X014125Y007233D02*
X011450Y007233D01*
X014125Y007233D01*
X014125Y007234D02*
X011450Y007234D01*
X014125Y007234D01*
X014125Y007235D02*
X011450Y007235D01*
X014125Y007235D01*
X014125Y007236D02*
X011450Y007236D01*
X014125Y007236D01*
X014125Y007237D02*
X011450Y007237D01*
X014125Y007237D01*
X014125Y007238D02*
X011450Y007238D01*
X014125Y007238D01*
X014125Y007239D02*
X011450Y007239D01*
X014125Y007239D01*
X014125Y007240D02*
X011450Y007240D01*
X014125Y007240D01*
X014125Y007241D02*
X011450Y007241D01*
X014125Y007241D01*
X014125Y007242D02*
X011450Y007242D01*
X014125Y007242D01*
X014125Y007243D02*
X011450Y007243D01*
X014125Y007243D01*
X014125Y007244D02*
X011450Y007244D01*
X014125Y007244D01*
X014125Y007245D02*
X011450Y007245D01*
X014125Y007245D01*
X014125Y007246D02*
X011450Y007246D01*
X014125Y007246D01*
X014125Y007247D02*
X011450Y007247D01*
X014125Y007247D01*
X014125Y007248D02*
X011450Y007248D01*
X014125Y007248D01*
X014125Y007249D02*
X011450Y007249D01*
X014125Y007249D01*
X014125Y007250D02*
X011450Y007250D01*
X014125Y007250D01*
X014125Y007251D02*
X011450Y007251D01*
X014125Y007251D01*
X014125Y007252D02*
X011450Y007252D01*
X014125Y007252D01*
X014125Y007253D02*
X011450Y007253D01*
X014125Y007253D01*
X014125Y007254D02*
X011450Y007254D01*
X014125Y007254D01*
X014125Y007255D02*
X011450Y007255D01*
X014125Y007255D01*
X014125Y007256D02*
X011450Y007256D01*
X014125Y007256D01*
X014125Y007257D02*
X011450Y007257D01*
X014125Y007257D01*
X014125Y007258D02*
X011450Y007258D01*
X014125Y007258D01*
X014125Y007259D02*
X011450Y007259D01*
X014125Y007259D01*
X014125Y007260D02*
X011450Y007260D01*
X014125Y007260D01*
X014125Y007261D02*
X011450Y007261D01*
X014125Y007261D01*
X014125Y007262D02*
X011450Y007262D01*
X014125Y007262D01*
X014125Y007263D02*
X011450Y007263D01*
X014125Y007263D01*
X014125Y007264D02*
X011450Y007264D01*
X014125Y007264D01*
X014125Y007265D02*
X011450Y007265D01*
X014125Y007265D01*
X014125Y007266D02*
X011450Y007266D01*
X014125Y007266D01*
X014125Y007267D02*
X011450Y007267D01*
X014125Y007267D01*
X014125Y007268D02*
X011450Y007268D01*
X014125Y007268D01*
X014125Y007269D02*
X011450Y007269D01*
X014125Y007269D01*
X014125Y007270D02*
X011450Y007270D01*
X014125Y007270D01*
X014125Y007271D02*
X011450Y007271D01*
X014125Y007271D01*
X014125Y007272D02*
X011450Y007272D01*
X014125Y007272D01*
X014125Y007273D02*
X011450Y007273D01*
X014125Y007273D01*
X014125Y007274D02*
X011450Y007274D01*
X014125Y007274D01*
X014125Y007275D02*
X011450Y007275D01*
X014125Y007275D01*
X014125Y007276D02*
X011450Y007276D01*
X014125Y007276D01*
X014125Y007277D02*
X011450Y007277D01*
X014125Y007277D01*
X014125Y007278D02*
X011450Y007278D01*
X014125Y007278D01*
X014125Y007279D02*
X011450Y007279D01*
X014125Y007279D01*
X014125Y007280D02*
X011450Y007280D01*
X014125Y007280D01*
X014125Y007281D02*
X011450Y007281D01*
X014125Y007281D01*
X014125Y007282D02*
X011450Y007282D01*
X014125Y007282D01*
X014125Y007283D02*
X011450Y007283D01*
X014125Y007283D01*
X014125Y007284D02*
X011450Y007284D01*
X014125Y007284D01*
X014125Y007285D02*
X011450Y007285D01*
X014125Y007285D01*
X014125Y007286D02*
X011450Y007286D01*
X014125Y007286D01*
X014125Y007287D02*
X011450Y007287D01*
X014125Y007287D01*
X014125Y007288D02*
X011450Y007288D01*
X014125Y007288D01*
X014125Y007289D02*
X011450Y007289D01*
X014125Y007289D01*
X014125Y007290D02*
X011450Y007290D01*
X014125Y007290D01*
X014125Y007291D02*
X011450Y007291D01*
X014125Y007291D01*
X014125Y007292D02*
X011450Y007292D01*
X014125Y007292D01*
X014125Y007293D02*
X011450Y007293D01*
X014125Y007293D01*
X014125Y007294D02*
X011450Y007294D01*
X014125Y007294D01*
X014125Y007295D02*
X011450Y007295D01*
X014125Y007295D01*
X014125Y007296D02*
X011450Y007296D01*
X014125Y007296D01*
X014125Y007297D02*
X011450Y007297D01*
X014125Y007297D01*
X014125Y007298D02*
X011450Y007298D01*
X014125Y007298D01*
X014125Y007299D02*
X011450Y007299D01*
X014125Y007299D01*
X014125Y007300D02*
X011450Y007300D01*
X014125Y007300D01*
X014125Y007301D02*
X011450Y007301D01*
X014125Y007301D01*
X014125Y007302D02*
X011450Y007302D01*
X014125Y007302D01*
X014125Y007303D02*
X011450Y007303D01*
X014125Y007303D01*
X014125Y007304D02*
X011450Y007304D01*
X014125Y007304D01*
X014125Y007305D02*
X011450Y007305D01*
X014125Y007305D01*
X014125Y007306D02*
X011450Y007306D01*
X014125Y007306D01*
X014125Y007307D02*
X011450Y007307D01*
X014125Y007307D01*
X014125Y007308D02*
X011450Y007308D01*
X014125Y007308D01*
X014125Y007309D02*
X011450Y007309D01*
X014125Y007309D01*
X014125Y007310D02*
X011450Y007310D01*
X014125Y007310D01*
X014125Y007311D02*
X011450Y007311D01*
X014125Y007311D01*
X014125Y007312D02*
X011450Y007312D01*
X014125Y007312D01*
X014125Y007313D02*
X011450Y007313D01*
X014125Y007313D01*
X014125Y007314D02*
X011450Y007314D01*
X014125Y007314D01*
X014125Y007315D02*
X011450Y007315D01*
X014125Y007315D01*
X014125Y007316D02*
X011450Y007316D01*
X014125Y007316D01*
X014125Y007317D02*
X011450Y007317D01*
X014125Y007317D01*
X014125Y007318D02*
X011450Y007318D01*
X014125Y007318D01*
X014125Y007319D02*
X011450Y007319D01*
X014125Y007319D01*
X014125Y007320D02*
X011450Y007320D01*
X014125Y007320D01*
X014125Y007321D02*
X011450Y007321D01*
X014125Y007321D01*
X014125Y007322D02*
X011450Y007322D01*
X014125Y007322D01*
X014125Y007323D02*
X011450Y007323D01*
X014125Y007323D01*
X014125Y007324D02*
X011450Y007324D01*
X014125Y007324D01*
X014125Y007325D02*
X011450Y007325D01*
X014125Y007325D01*
X014125Y007326D02*
X011450Y007326D01*
X014125Y007326D01*
X014125Y007327D02*
X011450Y007327D01*
X014125Y007327D01*
X014125Y007328D02*
X011450Y007328D01*
X014125Y007328D01*
X014125Y007329D02*
X011450Y007329D01*
X014125Y007329D01*
X014125Y007330D02*
X011450Y007330D01*
X014125Y007330D01*
X014125Y007331D02*
X011450Y007331D01*
X014125Y007331D01*
X014125Y007332D02*
X011450Y007332D01*
X014125Y007332D01*
X014125Y007333D02*
X011450Y007333D01*
X014125Y007333D01*
X014125Y007334D02*
X011450Y007334D01*
X014125Y007334D01*
X014125Y007335D02*
X011450Y007335D01*
X014125Y007335D01*
X014125Y007336D02*
X011450Y007336D01*
X014125Y007336D01*
X014125Y007337D02*
X011450Y007337D01*
X014125Y007337D01*
X014125Y007338D02*
X011450Y007338D01*
X014125Y007338D01*
X014125Y007339D02*
X011450Y007339D01*
X014125Y007339D01*
X014125Y007340D02*
X011450Y007340D01*
X014125Y007340D01*
X014125Y007341D02*
X011450Y007341D01*
X014125Y007341D01*
X014125Y007342D02*
X011450Y007342D01*
X014125Y007342D01*
X014125Y007343D02*
X011450Y007343D01*
X014125Y007343D01*
X014125Y007344D02*
X011450Y007344D01*
X014125Y007344D01*
X014125Y007345D02*
X011450Y007345D01*
X014125Y007345D01*
X014125Y007346D02*
X011450Y007346D01*
X014125Y007346D01*
X014125Y007347D02*
X011450Y007347D01*
X014125Y007347D01*
X014125Y007348D02*
X011450Y007348D01*
X014125Y007348D01*
X014125Y007349D02*
X011450Y007349D01*
X014125Y007349D01*
X014125Y007350D02*
X011450Y007350D01*
X014125Y007350D01*
X014125Y007351D02*
X011450Y007351D01*
X014125Y007351D01*
X014125Y007352D02*
X011450Y007352D01*
X014125Y007352D01*
X014125Y007353D02*
X011450Y007353D01*
X014125Y007353D01*
X014125Y007354D02*
X011450Y007354D01*
X014125Y007354D01*
X014125Y007355D02*
X011450Y007355D01*
X014125Y007355D01*
X014125Y007356D02*
X011450Y007356D01*
X014125Y007356D01*
X014125Y007357D02*
X011450Y007357D01*
X014125Y007357D01*
X014125Y007358D02*
X011450Y007358D01*
X014125Y007358D01*
X014125Y007359D02*
X011450Y007359D01*
X014125Y007359D01*
X014125Y007360D02*
X011450Y007360D01*
X014125Y007360D01*
X014125Y007361D02*
X011450Y007361D01*
X014125Y007361D01*
X014125Y007362D02*
X011450Y007362D01*
X014125Y007362D01*
X014125Y007363D02*
X011450Y007363D01*
X014125Y007363D01*
X014125Y007364D02*
X011450Y007364D01*
X014125Y007364D01*
X014125Y007365D02*
X011450Y007365D01*
X014125Y007365D01*
X014125Y007366D02*
X011450Y007366D01*
X014125Y007366D01*
X014125Y007367D02*
X011450Y007367D01*
X014125Y007367D01*
X014125Y007368D02*
X011450Y007368D01*
X014125Y007368D01*
X014125Y007369D02*
X011450Y007369D01*
X014125Y007369D01*
X014125Y007370D02*
X011450Y007370D01*
X014125Y007370D01*
X014125Y007371D02*
X011450Y007371D01*
X014125Y007371D01*
X014125Y007372D02*
X011450Y007372D01*
X014125Y007372D01*
X014125Y007373D02*
X011450Y007373D01*
X014125Y007373D01*
X014125Y007374D02*
X011450Y007374D01*
X014125Y007374D01*
X014125Y007375D02*
X011450Y007375D01*
X014125Y007375D01*
X014125Y007376D02*
X011450Y007376D01*
X014125Y007376D01*
X014125Y007377D02*
X011450Y007377D01*
X014125Y007377D01*
X014125Y007378D02*
X011450Y007378D01*
X014125Y007378D01*
X014125Y007379D02*
X011450Y007379D01*
X014125Y007379D01*
X014125Y007380D02*
X011450Y007380D01*
X014125Y007380D01*
X014125Y007381D02*
X011450Y007381D01*
X014125Y007381D01*
X014125Y007382D02*
X011450Y007382D01*
X014125Y007382D01*
X014125Y007383D02*
X011450Y007383D01*
X014125Y007383D01*
X014125Y007384D02*
X011450Y007384D01*
X014125Y007384D01*
X014125Y007385D02*
X011450Y007385D01*
X014125Y007385D01*
X014125Y007386D02*
X011450Y007386D01*
X014125Y007386D01*
X014125Y007387D02*
X011450Y007387D01*
X014125Y007387D01*
X014125Y007388D02*
X011450Y007388D01*
X014125Y007388D01*
X014125Y007389D02*
X011450Y007389D01*
X014125Y007389D01*
X014125Y007390D02*
X011450Y007390D01*
X014125Y007390D01*
X014125Y007391D02*
X011450Y007391D01*
X014125Y007391D01*
X014125Y007392D02*
X011450Y007392D01*
X014125Y007392D01*
X014125Y007393D02*
X011450Y007393D01*
X014125Y007393D01*
X014125Y007394D02*
X011450Y007394D01*
X014125Y007394D01*
X014125Y007395D02*
X011450Y007395D01*
X014125Y007395D01*
X014125Y007396D02*
X011450Y007396D01*
X014125Y007396D01*
X014125Y007397D02*
X011450Y007397D01*
X014125Y007397D01*
X014125Y007398D02*
X011450Y007398D01*
X014125Y007398D01*
X014125Y007399D02*
X011450Y007399D01*
X014125Y007399D01*
X014125Y007400D02*
X011450Y007400D01*
X014125Y007400D01*
X014125Y007401D02*
X011450Y007401D01*
X014125Y007401D01*
X014125Y007402D02*
X011450Y007402D01*
X014125Y007402D01*
X014125Y007403D02*
X011450Y007403D01*
X014125Y007403D01*
X014125Y007404D02*
X011450Y007404D01*
X014125Y007404D01*
X014125Y007405D02*
X011450Y007405D01*
X014125Y007405D01*
X014125Y007406D02*
X011450Y007406D01*
X014125Y007406D01*
X014125Y007407D02*
X011450Y007407D01*
X014125Y007407D01*
X014125Y007408D02*
X011450Y007408D01*
X014125Y007408D01*
X014125Y007409D02*
X011450Y007409D01*
X014125Y007409D01*
X014125Y007410D02*
X011450Y007410D01*
X014125Y007410D01*
X014125Y007411D02*
X011450Y007411D01*
X014125Y007411D01*
X014125Y007412D02*
X011450Y007412D01*
X014125Y007412D01*
X014125Y007413D02*
X011450Y007413D01*
X014125Y007413D01*
X014125Y007414D02*
X011450Y007414D01*
X014125Y007414D01*
X014125Y007415D02*
X011450Y007415D01*
X014125Y007415D01*
X014125Y007416D02*
X011450Y007416D01*
X014125Y007416D01*
X014125Y007417D02*
X011450Y007417D01*
X014125Y007417D01*
X014125Y007418D02*
X011450Y007418D01*
X014125Y007418D01*
X014125Y007419D02*
X011450Y007419D01*
X014125Y007419D01*
X014125Y007420D02*
X011450Y007420D01*
X014125Y007420D01*
X014125Y007421D02*
X011450Y007421D01*
X014125Y007421D01*
X014125Y007422D02*
X011450Y007422D01*
X014125Y007422D01*
X014125Y007423D02*
X011450Y007423D01*
X014125Y007423D01*
X014125Y007424D02*
X011450Y007424D01*
X014125Y007424D01*
X014125Y007425D02*
X011450Y007425D01*
X014125Y007425D01*
X014125Y007426D02*
X011450Y007426D01*
X014125Y007426D01*
X014125Y007427D02*
X011450Y007427D01*
X014125Y007427D01*
X014125Y007428D02*
X011450Y007428D01*
X014125Y007428D01*
X014125Y007429D02*
X011450Y007429D01*
X014125Y007429D01*
X014125Y007430D02*
X011450Y007430D01*
X014125Y007430D01*
X014125Y007431D02*
X011450Y007431D01*
X014125Y007431D01*
X014125Y007432D02*
X011450Y007432D01*
X014125Y007432D01*
X014125Y007433D02*
X011450Y007433D01*
X014125Y007433D01*
X014125Y007434D02*
X011450Y007434D01*
X014125Y007434D01*
X014125Y007435D02*
X011450Y007435D01*
X014125Y007435D01*
X014125Y007436D02*
X011450Y007436D01*
X014125Y007436D01*
X014125Y007437D02*
X011450Y007437D01*
X014125Y007437D01*
X014125Y007438D02*
X011450Y007438D01*
X014125Y007438D01*
X014125Y007439D02*
X011450Y007439D01*
X014125Y007439D01*
X014125Y007440D02*
X011450Y007440D01*
X014125Y007440D01*
X014125Y007441D02*
X011450Y007441D01*
X014125Y007441D01*
X014125Y007442D02*
X011450Y007442D01*
X014125Y007442D01*
X014125Y007443D02*
X011450Y007443D01*
X014125Y007443D01*
X014125Y007444D02*
X011450Y007444D01*
X014125Y007444D01*
X014125Y007445D02*
X011450Y007445D01*
X014125Y007445D01*
X014125Y007446D02*
X011450Y007446D01*
X014125Y007446D01*
X014125Y007447D02*
X011450Y007447D01*
X014125Y007447D01*
X014125Y007448D02*
X011450Y007448D01*
X014125Y007448D01*
X014125Y007449D02*
X011450Y007449D01*
X014125Y007449D01*
X014125Y007450D02*
X011450Y007450D01*
X014125Y007450D01*
X014125Y007451D02*
X011450Y007451D01*
X014125Y007451D01*
X014125Y007452D02*
X011450Y007452D01*
X014125Y007452D01*
X014125Y007453D02*
X011450Y007453D01*
X014125Y007453D01*
X014125Y007454D02*
X011450Y007454D01*
X014125Y007454D01*
X014125Y007455D02*
X011450Y007455D01*
X014125Y007455D01*
X014125Y007456D02*
X011450Y007456D01*
X014125Y007456D01*
X014125Y007457D02*
X011450Y007457D01*
X014125Y007457D01*
X014125Y007458D02*
X011450Y007458D01*
X014125Y007458D01*
X014125Y007459D02*
X011450Y007459D01*
X014125Y007459D01*
X014125Y007460D02*
X011450Y007460D01*
X014125Y007460D01*
X014125Y007461D02*
X011450Y007461D01*
X014125Y007461D01*
X014125Y007462D02*
X011450Y007462D01*
X014125Y007462D01*
X014125Y007463D02*
X011450Y007463D01*
X014125Y007463D01*
X014125Y007464D02*
X011450Y007464D01*
X014125Y007464D01*
X014125Y007465D02*
X011450Y007465D01*
X014125Y007465D01*
X014125Y007466D02*
X011450Y007466D01*
X014125Y007466D01*
X014125Y007467D02*
X011450Y007467D01*
X014125Y007467D01*
X014125Y007468D02*
X011450Y007468D01*
X014125Y007468D01*
X014125Y007469D02*
X011450Y007469D01*
X014125Y007469D01*
X014125Y007470D02*
X011450Y007470D01*
X014125Y007470D01*
X014125Y007471D02*
X011450Y007471D01*
X014125Y007471D01*
X014125Y007472D02*
X011450Y007472D01*
X014125Y007472D01*
X014125Y007473D02*
X011450Y007473D01*
X014125Y007473D01*
X014125Y007474D02*
X011450Y007474D01*
X014125Y007474D01*
X014125Y007475D02*
X011450Y007475D01*
X014125Y007475D01*
X014125Y007476D02*
X011450Y007476D01*
X014125Y007476D01*
X014125Y007477D02*
X011450Y007477D01*
X014125Y007477D01*
X014125Y007478D02*
X011450Y007478D01*
X014125Y007478D01*
X014125Y007479D02*
X011450Y007479D01*
X014125Y007479D01*
X014125Y007480D02*
X011450Y007480D01*
X014125Y007480D01*
X014125Y007481D02*
X011450Y007481D01*
X014125Y007481D01*
X014125Y007482D02*
X011450Y007482D01*
X014125Y007482D01*
X014125Y007483D02*
X011450Y007483D01*
X014125Y007483D01*
X014125Y007484D02*
X011450Y007484D01*
X014125Y007484D01*
X014125Y007485D02*
X011450Y007485D01*
X014125Y007485D01*
X014125Y007486D02*
X011450Y007486D01*
X014125Y007486D01*
X014125Y007487D02*
X011450Y007487D01*
X014125Y007487D01*
X014125Y007488D02*
X011450Y007488D01*
X014125Y007488D01*
X014125Y007489D02*
X011450Y007489D01*
X014125Y007489D01*
X014125Y007490D02*
X011450Y007490D01*
X014125Y007490D01*
X014125Y007491D02*
X011450Y007491D01*
X014125Y007491D01*
X014125Y007492D02*
X011450Y007492D01*
X014125Y007492D01*
X014125Y007493D02*
X011450Y007493D01*
X014125Y007493D01*
X014125Y007494D02*
X011450Y007494D01*
X014125Y007494D01*
X014125Y007495D02*
X011450Y007495D01*
X014125Y007495D01*
X014125Y007496D02*
X011450Y007496D01*
X014125Y007496D01*
X014125Y007497D02*
X011450Y007497D01*
X014125Y007497D01*
X014125Y007498D02*
X011450Y007498D01*
X014125Y007498D01*
X014125Y007499D02*
X011450Y007499D01*
X014125Y007499D01*
X014125Y007500D02*
X011450Y007500D01*
X014125Y007500D01*
X014125Y007501D02*
X011450Y007501D01*
X014125Y007501D01*
X014125Y007502D02*
X011450Y007502D01*
X014125Y007502D01*
X014125Y007503D02*
X011450Y007503D01*
X014125Y007503D01*
X014125Y007504D02*
X011450Y007504D01*
X014125Y007504D01*
X014125Y007505D02*
X011450Y007505D01*
X014125Y007505D01*
X014125Y007506D02*
X011450Y007506D01*
X014125Y007506D01*
X014125Y007507D02*
X011450Y007507D01*
X014125Y007507D01*
X014125Y007508D02*
X011450Y007508D01*
X014125Y007508D01*
X014125Y007509D02*
X011450Y007509D01*
X014125Y007509D01*
X014125Y007510D02*
X011450Y007510D01*
X014125Y007510D01*
X014125Y007511D02*
X011450Y007511D01*
X014125Y007511D01*
X014125Y007512D02*
X011450Y007512D01*
X014125Y007512D01*
X014125Y007513D02*
X011450Y007513D01*
X014125Y007513D01*
X014125Y007514D02*
X011450Y007514D01*
X014125Y007514D01*
X014125Y007515D02*
X011450Y007515D01*
X014125Y007515D01*
X014125Y007516D02*
X011450Y007516D01*
X014125Y007516D01*
X014125Y007517D02*
X011450Y007517D01*
X014125Y007517D01*
X014125Y007518D02*
X011450Y007518D01*
X014125Y007518D01*
X014125Y007519D02*
X011450Y007519D01*
X014125Y007519D01*
X014125Y007520D02*
X011450Y007520D01*
X014125Y007520D01*
X014125Y007521D02*
X011450Y007521D01*
X014125Y007521D01*
X014125Y007522D02*
X011450Y007522D01*
X014125Y007522D01*
X014125Y007523D02*
X011450Y007523D01*
X014125Y007523D01*
X014125Y007524D02*
X011450Y007524D01*
X014125Y007524D01*
X014125Y007525D02*
X011450Y007525D01*
X014125Y007525D01*
X014125Y007526D02*
X011450Y007526D01*
X014125Y007526D01*
X014125Y007527D02*
X011450Y007527D01*
X014125Y007527D01*
X014125Y007528D02*
X011450Y007528D01*
X014125Y007528D01*
X014125Y007529D02*
X011450Y007529D01*
X014125Y007529D01*
X014125Y007530D02*
X011450Y007530D01*
X014125Y007530D01*
X014125Y007531D02*
X011450Y007531D01*
X014125Y007531D01*
X014125Y007532D02*
X011450Y007532D01*
X014125Y007532D01*
X014125Y007533D02*
X011450Y007533D01*
X014125Y007533D01*
X014125Y007534D02*
X011450Y007534D01*
X014125Y007534D01*
X014125Y007535D02*
X011450Y007535D01*
X014125Y007535D01*
X014125Y007536D02*
X011450Y007536D01*
X014125Y007536D01*
X014125Y007537D02*
X011450Y007537D01*
X014125Y007537D01*
X014125Y007538D02*
X011450Y007538D01*
X014125Y007538D01*
X014125Y007539D02*
X011450Y007539D01*
X014125Y007539D01*
X014125Y007540D02*
X011450Y007540D01*
X014125Y007540D01*
X014125Y007541D02*
X011450Y007541D01*
X014125Y007541D01*
X014125Y007542D02*
X011450Y007542D01*
X014125Y007542D01*
X014125Y007543D02*
X011450Y007543D01*
X014125Y007543D01*
X014125Y007544D02*
X011450Y007544D01*
X014125Y007544D01*
X014125Y007545D02*
X011450Y007545D01*
X014125Y007545D01*
X014125Y007546D02*
X011450Y007546D01*
X014125Y007546D01*
X014125Y007547D02*
X011450Y007547D01*
X014125Y007547D01*
X014125Y007548D02*
X011450Y007548D01*
X014125Y007548D01*
X014125Y007549D02*
X011450Y007549D01*
X014125Y007549D01*
X014125Y007550D02*
X011450Y007550D01*
X014125Y007550D01*
X014125Y007551D02*
X011450Y007551D01*
X014125Y007551D01*
X014125Y007552D02*
X011450Y007552D01*
X014125Y007552D01*
X014125Y007553D02*
X011450Y007553D01*
X014125Y007553D01*
X014125Y007554D02*
X011450Y007554D01*
X014125Y007554D01*
X014125Y007555D02*
X011450Y007555D01*
X014125Y007555D01*
X014125Y007556D02*
X011450Y007556D01*
X014125Y007556D01*
X014125Y007557D02*
X011450Y007557D01*
X014125Y007557D01*
X014125Y007558D02*
X011450Y007558D01*
X014125Y007558D01*
X014125Y007559D02*
X011450Y007559D01*
X014125Y007559D01*
X014125Y007560D02*
X011450Y007560D01*
X014125Y007560D01*
X014125Y007561D02*
X011450Y007561D01*
X014125Y007561D01*
X014125Y007562D02*
X011450Y007562D01*
X014125Y007562D01*
X014125Y007563D02*
X011450Y007563D01*
X014125Y007563D01*
X014125Y007564D02*
X011450Y007564D01*
X014125Y007564D01*
X014125Y007565D02*
X011450Y007565D01*
X014125Y007565D01*
X014125Y007566D02*
X011450Y007566D01*
X014125Y007566D01*
X014125Y007567D02*
X011450Y007567D01*
X014125Y007567D01*
X014125Y007568D02*
X011450Y007568D01*
X014125Y007568D01*
X014125Y007569D02*
X011450Y007569D01*
X014125Y007569D01*
X014125Y007570D02*
X011450Y007570D01*
X014125Y007570D01*
X014125Y007571D02*
X011450Y007571D01*
X014125Y007571D01*
X014125Y007572D02*
X011450Y007572D01*
X014125Y007572D01*
X014125Y007573D02*
X011450Y007573D01*
X014125Y007573D01*
X014125Y007574D02*
X011450Y007574D01*
X014125Y007574D01*
X014125Y007575D02*
X011450Y007575D01*
X014125Y007575D01*
X014125Y007576D02*
X011450Y007576D01*
X014125Y007576D01*
X014125Y007577D02*
X011450Y007577D01*
X014125Y007577D01*
X014125Y007578D02*
X011450Y007578D01*
X014125Y007578D01*
X014125Y007579D02*
X011450Y007579D01*
X014125Y007579D01*
X014125Y007580D02*
X011450Y007580D01*
X014125Y007580D01*
X014125Y007581D02*
X011450Y007581D01*
X014125Y007581D01*
X014125Y007582D02*
X011450Y007582D01*
X014125Y007582D01*
X014125Y007583D02*
X011450Y007583D01*
X014125Y007583D01*
X014125Y007584D02*
X011450Y007584D01*
X014125Y007584D01*
X014125Y007585D02*
X011450Y007585D01*
X014125Y007585D01*
X014125Y007586D02*
X011450Y007586D01*
X014125Y007586D01*
X014125Y007587D02*
X011450Y007587D01*
X014125Y007587D01*
X014125Y007588D02*
X011450Y007588D01*
X014125Y007588D01*
X014125Y007589D02*
X011450Y007589D01*
X014125Y007589D01*
X014125Y007590D02*
X011450Y007590D01*
X014125Y007590D01*
X014125Y007591D02*
X011450Y007591D01*
X014125Y007591D01*
X014125Y007592D02*
X011450Y007592D01*
X014125Y007592D01*
X014125Y007593D02*
X011450Y007593D01*
X014125Y007593D01*
X014125Y007594D02*
X011450Y007594D01*
X014125Y007594D01*
X014125Y007595D02*
X011450Y007595D01*
X014125Y007595D01*
X014125Y007596D02*
X011450Y007596D01*
X014125Y007596D01*
X014125Y007597D02*
X011450Y007597D01*
X014125Y007597D01*
X014125Y007598D02*
X011450Y007598D01*
X014125Y007598D01*
X014125Y007599D02*
X011450Y007599D01*
X014125Y007599D01*
X014125Y007600D02*
X011450Y007600D01*
X014125Y007600D01*
X014125Y007601D02*
X011450Y007601D01*
X014125Y007601D01*
X014125Y007602D02*
X011450Y007602D01*
X014125Y007602D01*
X014125Y007603D02*
X011450Y007603D01*
X014125Y007603D01*
X014125Y007604D02*
X011450Y007604D01*
X014125Y007604D01*
X014125Y007605D02*
X011450Y007605D01*
X014125Y007605D01*
X014125Y007606D02*
X011450Y007606D01*
X014125Y007606D01*
X014125Y007607D02*
X011450Y007607D01*
X014125Y007607D01*
X014125Y007608D02*
X011450Y007608D01*
X014125Y007608D01*
X014125Y007609D02*
X011450Y007609D01*
X014125Y007609D01*
X014125Y007610D02*
X011450Y007610D01*
X014125Y007610D01*
X014125Y007611D02*
X011450Y007611D01*
X014125Y007611D01*
X014125Y007612D02*
X011450Y007612D01*
X014125Y007612D01*
X014125Y007613D02*
X011450Y007613D01*
X014125Y007613D01*
X014125Y007614D02*
X011450Y007614D01*
X014125Y007614D01*
X014125Y007615D02*
X011450Y007615D01*
X014125Y007615D01*
X014125Y007616D02*
X011450Y007616D01*
X014125Y007616D01*
X014125Y007617D02*
X011450Y007617D01*
X014125Y007617D01*
X014125Y007618D02*
X011450Y007618D01*
X014125Y007618D01*
X014125Y007619D02*
X011450Y007619D01*
X014125Y007619D01*
X014125Y007620D02*
X011450Y007620D01*
X014125Y007620D01*
X014125Y007621D02*
X011450Y007621D01*
X014125Y007621D01*
X014125Y007622D02*
X011450Y007622D01*
X014125Y007622D01*
X014125Y007623D02*
X011450Y007623D01*
X014125Y007623D01*
X014125Y007624D02*
X011450Y007624D01*
X014125Y007624D01*
X014125Y007625D02*
X011450Y007625D01*
X014125Y007625D01*
X014125Y007626D02*
X011450Y007626D01*
X014125Y007626D01*
X014125Y007627D02*
X011450Y007627D01*
X014125Y007627D01*
X014125Y007628D02*
X011450Y007628D01*
X014125Y007628D01*
X014125Y007629D02*
X011450Y007629D01*
X014125Y007629D01*
X014125Y007630D02*
X011450Y007630D01*
X014125Y007630D01*
X014125Y007631D02*
X011450Y007631D01*
X014125Y007631D01*
X014125Y007632D02*
X011450Y007632D01*
X014125Y007632D01*
X014125Y007633D02*
X011450Y007633D01*
X014125Y007633D01*
X014125Y007634D02*
X011450Y007634D01*
X014125Y007634D01*
X014125Y007635D02*
X011450Y007635D01*
X014125Y007635D01*
X014125Y007636D02*
X011450Y007636D01*
X014125Y007636D01*
X014125Y007637D02*
X011450Y007637D01*
X014125Y007637D01*
X014125Y007638D02*
X011450Y007638D01*
X014125Y007638D01*
X014125Y007639D02*
X011450Y007639D01*
X014125Y007639D01*
X014125Y007640D02*
X011450Y007640D01*
X014125Y007640D01*
X014125Y007641D02*
X011450Y007641D01*
X014125Y007641D01*
X014125Y007642D02*
X011450Y007642D01*
X014125Y007642D01*
X014125Y007643D02*
X011450Y007643D01*
X014125Y007643D01*
X014125Y007644D02*
X011450Y007644D01*
X014125Y007644D01*
X014125Y007645D02*
X011450Y007645D01*
X014125Y007645D01*
X014125Y007646D02*
X011450Y007646D01*
X014125Y007646D01*
X014125Y007647D02*
X011450Y007647D01*
X014125Y007647D01*
X014125Y007648D02*
X011450Y007648D01*
X014125Y007648D01*
X014125Y007649D02*
X011450Y007649D01*
X014125Y007649D01*
X014125Y007650D02*
X011450Y007650D01*
X014125Y007650D01*
X014125Y007651D02*
X011450Y007651D01*
X014125Y007651D01*
X014125Y007652D02*
X011450Y007652D01*
X014125Y007652D01*
X014125Y007653D02*
X011450Y007653D01*
X014125Y007653D01*
X014125Y007654D02*
X011450Y007654D01*
X014125Y007654D01*
X014125Y007655D02*
X011450Y007655D01*
X014125Y007655D01*
X014125Y007656D02*
X011450Y007656D01*
X014125Y007656D01*
X014125Y007657D02*
X011450Y007657D01*
X014125Y007657D01*
X014125Y007658D02*
X011450Y007658D01*
X014125Y007658D01*
X014125Y007659D02*
X011450Y007659D01*
X014125Y007659D01*
X014125Y007660D02*
X011450Y007660D01*
X014125Y007660D01*
X014125Y007661D02*
X011450Y007661D01*
X014125Y007661D01*
X014125Y007662D02*
X011450Y007662D01*
X014125Y007662D01*
X014125Y007663D02*
X011450Y007663D01*
X014125Y007663D01*
X014125Y007664D02*
X011450Y007664D01*
X014125Y007664D01*
X014125Y007665D02*
X011450Y007665D01*
X014125Y007665D01*
X014125Y007666D02*
X011450Y007666D01*
X014125Y007666D01*
X014125Y007667D02*
X011450Y007667D01*
X014125Y007667D01*
X014125Y007668D02*
X011450Y007668D01*
X014125Y007668D01*
X014125Y007669D02*
X011450Y007669D01*
X014125Y007669D01*
X014125Y007670D02*
X011450Y007670D01*
X014125Y007670D01*
X014125Y007671D02*
X011450Y007671D01*
X014125Y007671D01*
X014125Y007672D02*
X011450Y007672D01*
X014125Y007672D01*
X014125Y007673D02*
X011450Y007673D01*
X014125Y007673D01*
X014125Y007674D02*
X011450Y007674D01*
X014125Y007674D01*
X014125Y007675D02*
X011450Y007675D01*
X014125Y007675D01*
X014125Y007676D02*
X011450Y007676D01*
X014125Y007676D01*
X014125Y007677D02*
X011450Y007677D01*
X014125Y007677D01*
X014125Y007678D02*
X011450Y007678D01*
X014125Y007678D01*
X014125Y007679D02*
X011450Y007679D01*
X014125Y007679D01*
X014125Y007680D02*
X011450Y007680D01*
X014125Y007680D01*
X014125Y007681D02*
X011450Y007681D01*
X014125Y007681D01*
X014125Y007682D02*
X011450Y007682D01*
X014125Y007682D01*
X014125Y007683D02*
X011450Y007683D01*
X014125Y007683D01*
X014125Y007684D02*
X011450Y007684D01*
X014125Y007684D01*
X014125Y007685D02*
X011450Y007685D01*
X014125Y007685D01*
X014125Y007686D02*
X011450Y007686D01*
X014125Y007686D01*
X014125Y007687D02*
X011450Y007687D01*
X014125Y007687D01*
X014125Y007688D02*
X011450Y007688D01*
X014125Y007688D01*
X014125Y007689D02*
X011450Y007689D01*
X014125Y007689D01*
X014125Y007690D02*
X011450Y007690D01*
X014125Y007690D01*
X014125Y007691D02*
X011450Y007691D01*
X014125Y007691D01*
X014125Y007692D02*
X011450Y007692D01*
X014125Y007692D01*
X014125Y007693D02*
X011450Y007693D01*
X014125Y007693D01*
X014125Y007694D02*
X011450Y007694D01*
X014125Y007694D01*
X014125Y007695D02*
X011450Y007695D01*
X014125Y007695D01*
X014125Y007696D02*
X011450Y007696D01*
X014125Y007696D01*
X014125Y007697D02*
X011450Y007697D01*
X014125Y007697D01*
X014125Y007698D02*
X011450Y007698D01*
X014125Y007698D01*
X014125Y007699D02*
X011450Y007699D01*
X014125Y007699D01*
X014125Y007700D02*
X011450Y007700D01*
X014125Y007700D01*
X014125Y007701D02*
X011450Y007701D01*
X014125Y007701D01*
X014125Y007702D02*
X011450Y007702D01*
X014125Y007702D01*
X014125Y007703D02*
X011450Y007703D01*
X014125Y007703D01*
X014125Y007704D02*
X011450Y007704D01*
X014125Y007704D01*
X014125Y007705D02*
X011450Y007705D01*
X014125Y007705D01*
X014125Y007706D02*
X011450Y007706D01*
X014125Y007706D01*
X014125Y007707D02*
X011450Y007707D01*
X014125Y007707D01*
X014125Y007708D02*
X011450Y007708D01*
X014125Y007708D01*
X014125Y007709D02*
X011450Y007709D01*
X014125Y007709D01*
X014125Y007710D02*
X011450Y007710D01*
X014125Y007710D01*
X014125Y007711D02*
X011450Y007711D01*
X014125Y007711D01*
X014125Y007712D02*
X011450Y007712D01*
X014125Y007712D01*
X014125Y007713D02*
X011450Y007713D01*
X014125Y007713D01*
X014125Y007714D02*
X011450Y007714D01*
X014125Y007714D01*
X014125Y007715D02*
X011450Y007715D01*
X014125Y007715D01*
X014125Y007716D02*
X011450Y007716D01*
X014125Y007716D01*
X014125Y007717D02*
X011450Y007717D01*
X014125Y007717D01*
X014125Y007718D02*
X011450Y007718D01*
X014125Y007718D01*
X014125Y007719D02*
X011450Y007719D01*
X014125Y007719D01*
X014125Y007720D02*
X011450Y007720D01*
X014125Y007720D01*
X014125Y007721D02*
X011450Y007721D01*
X014125Y007721D01*
X014125Y007722D02*
X011450Y007722D01*
X014125Y007722D01*
X014125Y007723D02*
X011450Y007723D01*
X014125Y007723D01*
X014125Y007724D02*
X011450Y007724D01*
X014125Y007724D01*
X014125Y007725D02*
X011450Y007725D01*
X014125Y007725D01*
X014125Y007726D02*
X011450Y007726D01*
X014125Y007726D01*
X014125Y007727D02*
X011450Y007727D01*
X014125Y007727D01*
X014125Y007728D02*
X011450Y007728D01*
X014125Y007728D01*
X014125Y007729D02*
X011450Y007729D01*
X014125Y007729D01*
X014125Y007730D02*
X011450Y007730D01*
X014125Y007730D01*
X014125Y007731D02*
X011450Y007731D01*
X014125Y007731D01*
X014125Y007732D02*
X011450Y007732D01*
X014125Y007732D01*
X014125Y007733D02*
X011450Y007733D01*
X014125Y007733D01*
X014125Y007734D02*
X011450Y007734D01*
X014125Y007734D01*
X014125Y007735D02*
X011450Y007735D01*
X014125Y007735D01*
X014125Y007736D02*
X011450Y007736D01*
X014125Y007736D01*
X014125Y007737D02*
X011450Y007737D01*
X014125Y007737D01*
X014125Y007738D02*
X011450Y007738D01*
X014125Y007738D01*
X014125Y007739D02*
X011450Y007739D01*
X014125Y007739D01*
X014125Y007740D02*
X011450Y007740D01*
X014125Y007740D01*
X014125Y007741D02*
X011450Y007741D01*
X014125Y007741D01*
X014125Y007742D02*
X011450Y007742D01*
X014125Y007742D01*
X014125Y007743D02*
X011450Y007743D01*
X014125Y007743D01*
X014125Y007744D02*
X011450Y007744D01*
X014125Y007744D01*
X014125Y007745D02*
X011450Y007745D01*
X014125Y007745D01*
X014125Y007746D02*
X011450Y007746D01*
X014125Y007746D01*
X014125Y007747D02*
X011450Y007747D01*
X014125Y007747D01*
X014125Y007748D02*
X011450Y007748D01*
X014125Y007748D01*
X014125Y007749D02*
X011450Y007749D01*
X014125Y007749D01*
X014125Y007750D02*
X011450Y007750D01*
X014125Y007750D01*
X014125Y007751D02*
X011450Y007751D01*
X014125Y007751D01*
X014125Y007752D02*
X011450Y007752D01*
X014125Y007752D01*
X014125Y007753D02*
X011450Y007753D01*
X014125Y007753D01*
X014125Y007754D02*
X011450Y007754D01*
X014125Y007754D01*
X014125Y007755D02*
X011450Y007755D01*
X014125Y007755D01*
X014125Y007756D02*
X011450Y007756D01*
X014125Y007756D01*
X014125Y007757D02*
X011450Y007757D01*
X014125Y007757D01*
X014125Y007758D02*
X011450Y007758D01*
X014125Y007758D01*
X014125Y007759D02*
X011450Y007759D01*
X014125Y007759D01*
X014125Y007760D02*
X011450Y007760D01*
X014125Y007760D01*
X014125Y007761D02*
X011450Y007761D01*
X014125Y007761D01*
X014125Y007762D02*
X011450Y007762D01*
X014125Y007762D01*
X014125Y007763D02*
X011450Y007763D01*
X014125Y007763D01*
X014125Y007764D02*
X011450Y007764D01*
X014125Y007764D01*
X014125Y007765D02*
X011450Y007765D01*
X014125Y007765D01*
X014125Y007766D02*
X011450Y007766D01*
X014125Y007766D01*
X014125Y007767D02*
X011450Y007767D01*
X014125Y007767D01*
X014125Y007768D02*
X011450Y007768D01*
X014125Y007768D01*
X014125Y007769D02*
X011450Y007769D01*
X014125Y007769D01*
X014125Y007770D02*
X011450Y007770D01*
X014125Y007770D01*
X014125Y007771D02*
X011450Y007771D01*
X014125Y007771D01*
X014125Y007772D02*
X011450Y007772D01*
X014125Y007772D01*
X014125Y007773D02*
X011450Y007773D01*
X014125Y007773D01*
X014125Y007774D02*
X011450Y007774D01*
X014125Y007774D01*
X014125Y007775D02*
X011450Y007775D01*
X014125Y007775D01*
X014125Y007776D02*
X011450Y007776D01*
X014125Y007776D01*
X014125Y007777D02*
X011450Y007777D01*
X014125Y007777D01*
X014125Y007778D02*
X011450Y007778D01*
X014125Y007778D01*
X014125Y007779D02*
X011450Y007779D01*
X014125Y007779D01*
X014125Y007780D02*
X011450Y007780D01*
X014125Y007780D01*
X014125Y007781D02*
X011450Y007781D01*
X014125Y007781D01*
X014125Y007782D02*
X011450Y007782D01*
X014125Y007782D01*
X014125Y007783D02*
X011450Y007783D01*
X014125Y007783D01*
X014125Y007784D02*
X011450Y007784D01*
X014125Y007784D01*
X014125Y007785D02*
X011450Y007785D01*
X014125Y007785D01*
X014125Y007786D02*
X011450Y007786D01*
X014125Y007786D01*
X014125Y007787D02*
X011450Y007787D01*
X014125Y007787D01*
X014125Y007788D02*
X011450Y007788D01*
X014125Y007788D01*
X014125Y007789D02*
X011450Y007789D01*
X014125Y007789D01*
X014125Y007790D02*
X011450Y007790D01*
X014125Y007790D01*
X014125Y007791D02*
X011450Y007791D01*
X014125Y007791D01*
X014125Y007792D02*
X011450Y007792D01*
X014125Y007792D01*
X014125Y007793D02*
X011450Y007793D01*
X014125Y007793D01*
X014125Y007794D02*
X011450Y007794D01*
X014125Y007794D01*
X014125Y007795D02*
X011450Y007795D01*
X014125Y007795D01*
X014125Y007796D02*
X011450Y007796D01*
X014125Y007796D01*
X014125Y007797D02*
X011450Y007797D01*
X014125Y007797D01*
X014125Y007798D02*
X011450Y007798D01*
X014125Y007798D01*
X014125Y007799D02*
X011450Y007799D01*
X014125Y007799D01*
X014125Y007800D02*
X011450Y007800D01*
X014125Y007800D01*
X014125Y007801D02*
X011450Y007801D01*
X014125Y007801D01*
X014125Y007802D02*
X011450Y007802D01*
X014125Y007802D01*
X014125Y007803D02*
X011450Y007803D01*
X014125Y007803D01*
X014125Y007804D02*
X011450Y007804D01*
X014125Y007804D01*
X014125Y007805D02*
X011450Y007805D01*
X014125Y007805D01*
X014125Y007806D02*
X011450Y007806D01*
X014125Y007806D01*
X014125Y007807D02*
X011450Y007807D01*
X014125Y007807D01*
X014125Y007808D02*
X011450Y007808D01*
X014125Y007808D01*
X014125Y007809D02*
X011450Y007809D01*
X014125Y007809D01*
X014125Y007810D02*
X011450Y007810D01*
X014125Y007810D01*
X014125Y007811D02*
X011450Y007811D01*
X014125Y007811D01*
X014125Y007812D02*
X011450Y007812D01*
X014125Y007812D01*
X014125Y007813D02*
X011450Y007813D01*
X014125Y007813D01*
X014125Y007814D02*
X011450Y007814D01*
X014125Y007814D01*
X014125Y007815D02*
X011450Y007815D01*
X014125Y007815D01*
X014125Y007816D02*
X011450Y007816D01*
X014125Y007816D01*
X014125Y007817D02*
X011450Y007817D01*
X014125Y007817D01*
X014125Y007818D02*
X011450Y007818D01*
X014125Y007818D01*
X014125Y007819D02*
X011450Y007819D01*
X014125Y007819D01*
X014125Y007820D02*
X011450Y007820D01*
X014125Y007820D01*
X014125Y007821D02*
X011450Y007821D01*
X014125Y007821D01*
X014125Y007822D02*
X011450Y007822D01*
X014125Y007822D01*
X014125Y007823D02*
X011450Y007823D01*
X014125Y007823D01*
X014125Y007824D02*
X011450Y007824D01*
X014125Y007824D01*
X014125Y007825D02*
X011450Y007825D01*
X014125Y007825D01*
X014125Y007826D02*
X011451Y007826D01*
X014125Y007826D01*
X014125Y007827D02*
X011452Y007827D01*
X014125Y007827D01*
X014125Y007828D02*
X011453Y007828D01*
X014125Y007828D01*
X014125Y007829D02*
X011454Y007829D01*
X014125Y007829D01*
X014125Y007830D02*
X011455Y007830D01*
X014125Y007830D01*
X014125Y007831D02*
X011456Y007831D01*
X014125Y007831D01*
X014125Y007832D02*
X011457Y007832D01*
X014125Y007832D01*
X014125Y007833D02*
X011458Y007833D01*
X014125Y007833D01*
X014125Y007834D02*
X011459Y007834D01*
X014125Y007834D01*
X014125Y007835D02*
X011460Y007835D01*
X014125Y007835D01*
X014125Y007836D02*
X011461Y007836D01*
X014125Y007836D01*
X014125Y007837D02*
X011462Y007837D01*
X014125Y007837D01*
X014125Y007838D02*
X011463Y007838D01*
X014125Y007838D01*
X014125Y007839D02*
X011464Y007839D01*
X014125Y007839D01*
X014125Y007840D02*
X011465Y007840D01*
X014125Y007840D01*
X014125Y007841D02*
X011466Y007841D01*
X014125Y007841D01*
X014125Y007842D02*
X011467Y007842D01*
X014125Y007842D01*
X014125Y007843D02*
X011468Y007843D01*
X014125Y007843D01*
X014125Y007844D02*
X011469Y007844D01*
X014125Y007844D01*
X014125Y007845D02*
X011470Y007845D01*
X014125Y007845D01*
X014125Y007846D02*
X011471Y007846D01*
X014125Y007846D01*
X014125Y007847D02*
X011472Y007847D01*
X014125Y007847D01*
X014125Y007848D02*
X011473Y007848D01*
X014125Y007848D01*
X014125Y007849D02*
X011474Y007849D01*
X014125Y007849D01*
X014125Y007850D02*
X011475Y007850D01*
X014125Y007850D01*
X014125Y007851D02*
X011476Y007851D01*
X014125Y007851D01*
X014125Y007852D02*
X011477Y007852D01*
X014125Y007852D01*
X014125Y007853D02*
X011478Y007853D01*
X014125Y007853D01*
X014125Y007854D02*
X011479Y007854D01*
X014125Y007854D01*
X014125Y007855D02*
X011480Y007855D01*
X014125Y007855D01*
X014125Y007856D02*
X011481Y007856D01*
X014125Y007856D01*
X014125Y007857D02*
X011482Y007857D01*
X014125Y007857D01*
X014125Y007858D02*
X011483Y007858D01*
X014125Y007858D01*
X014125Y007859D02*
X011484Y007859D01*
X014125Y007859D01*
X014125Y007860D02*
X011485Y007860D01*
X014125Y007860D01*
X014125Y007861D02*
X011486Y007861D01*
X014125Y007861D01*
X014125Y007862D02*
X011487Y007862D01*
X014125Y007862D01*
X014125Y007863D02*
X011488Y007863D01*
X014125Y007863D01*
X014125Y007864D02*
X011489Y007864D01*
X014125Y007864D01*
X014125Y007865D02*
X011490Y007865D01*
X014125Y007865D01*
X014125Y007866D02*
X011491Y007866D01*
X014125Y007866D01*
X014125Y007867D02*
X011492Y007867D01*
X014125Y007867D01*
X014125Y007868D02*
X011493Y007868D01*
X014125Y007868D01*
X014125Y007869D02*
X011494Y007869D01*
X014125Y007869D01*
X014125Y007870D02*
X011495Y007870D01*
X014125Y007870D01*
X014125Y007871D02*
X011496Y007871D01*
X014125Y007871D01*
X014125Y007872D02*
X011497Y007872D01*
X014125Y007872D01*
X014125Y007873D02*
X011498Y007873D01*
X014125Y007873D01*
X014125Y007874D02*
X011499Y007874D01*
X014125Y007874D01*
X014125Y007875D02*
X011500Y007875D01*
X014125Y007875D01*
X014125Y007876D02*
X011501Y007876D01*
X014125Y007876D01*
X014125Y007877D02*
X011502Y007877D01*
X014125Y007877D01*
X014125Y007878D02*
X011503Y007878D01*
X014125Y007878D01*
X014125Y007879D02*
X011504Y007879D01*
X014125Y007879D01*
X014125Y007880D02*
X011505Y007880D01*
X014125Y007880D01*
X014125Y007881D02*
X011506Y007881D01*
X014125Y007881D01*
X014125Y007882D02*
X011507Y007882D01*
X014125Y007882D01*
X014125Y007883D02*
X011508Y007883D01*
X014125Y007883D01*
X014125Y007884D02*
X011509Y007884D01*
X014125Y007884D01*
X014125Y007885D02*
X011510Y007885D01*
X014125Y007885D01*
X014125Y007886D02*
X011511Y007886D01*
X014125Y007886D01*
X014125Y007887D02*
X011512Y007887D01*
X014125Y007887D01*
X014125Y007888D02*
X011513Y007888D01*
X014125Y007888D01*
X014125Y007889D02*
X011514Y007889D01*
X014125Y007889D01*
X014125Y007890D02*
X011515Y007890D01*
X014125Y007890D01*
X014125Y007891D02*
X011516Y007891D01*
X014125Y007891D01*
X014125Y007892D02*
X011517Y007892D01*
X014125Y007892D01*
X014125Y007893D02*
X011518Y007893D01*
X014125Y007893D01*
X014125Y007894D02*
X011519Y007894D01*
X014125Y007894D01*
X014125Y007895D02*
X011520Y007895D01*
X014125Y007895D01*
X014125Y007896D02*
X011521Y007896D01*
X014125Y007896D01*
X014125Y007897D02*
X011522Y007897D01*
X014125Y007897D01*
X014125Y007898D02*
X011523Y007898D01*
X014125Y007898D01*
X014125Y007899D02*
X011524Y007899D01*
X014125Y007899D01*
X014125Y007900D02*
X011525Y007900D01*
X014125Y007900D01*
X014125Y007901D02*
X011526Y007901D01*
X014125Y007901D01*
X014125Y007902D02*
X011527Y007902D01*
X014125Y007902D01*
X014125Y007903D02*
X011528Y007903D01*
X014125Y007903D01*
X014125Y007904D02*
X011529Y007904D01*
X014125Y007904D01*
X014125Y007905D02*
X011530Y007905D01*
X014125Y007905D01*
X014125Y007906D02*
X011531Y007906D01*
X014125Y007906D01*
X014125Y007907D02*
X011532Y007907D01*
X014125Y007907D01*
X014125Y007908D02*
X011533Y007908D01*
X014125Y007908D01*
X014125Y007909D02*
X011534Y007909D01*
X014125Y007909D01*
X014125Y007910D02*
X011535Y007910D01*
X014125Y007910D01*
X014125Y007911D02*
X011536Y007911D01*
X014125Y007911D01*
X014125Y007912D02*
X011537Y007912D01*
X014125Y007912D01*
X014125Y007913D02*
X011538Y007913D01*
X014125Y007913D01*
X014125Y007914D02*
X011539Y007914D01*
X014125Y007914D01*
X014125Y007915D02*
X011540Y007915D01*
X014125Y007915D01*
X014125Y007916D02*
X011541Y007916D01*
X014125Y007916D01*
X014125Y007917D02*
X011542Y007917D01*
X014125Y007917D01*
X014125Y007918D02*
X011543Y007918D01*
X014125Y007918D01*
X014125Y007919D02*
X011544Y007919D01*
X014125Y007919D01*
X014125Y007920D02*
X011545Y007920D01*
X014125Y007920D01*
X014125Y007921D02*
X011546Y007921D01*
X014125Y007921D01*
X014125Y007922D02*
X011547Y007922D01*
X014125Y007922D01*
X014125Y007923D02*
X011548Y007923D01*
X014125Y007923D01*
X014125Y007924D02*
X011549Y007924D01*
X014125Y007924D01*
X014125Y007925D02*
X011550Y007925D01*
X014125Y007925D01*
X014125Y007926D02*
X012576Y007926D01*
X012577Y007927D02*
X014125Y007927D01*
X012602Y007927D01*
X012603Y007928D02*
X014125Y007928D01*
X012578Y007928D01*
X012579Y007929D02*
X014125Y007929D01*
X012604Y007929D01*
X012605Y007930D02*
X014125Y007930D01*
X012580Y007930D01*
X012581Y007931D02*
X014125Y007931D01*
X012606Y007931D01*
X012607Y007932D02*
X014125Y007932D01*
X012582Y007932D01*
X012583Y007933D02*
X014125Y007933D01*
X012608Y007933D01*
X012609Y007934D02*
X014125Y007934D01*
X012584Y007934D01*
X012585Y007935D02*
X014125Y007935D01*
X012610Y007935D01*
X012611Y007936D02*
X014125Y007936D01*
X012586Y007936D01*
X012587Y007937D02*
X014125Y007937D01*
X012612Y007937D01*
X012613Y007938D02*
X014125Y007938D01*
X012588Y007938D01*
X012589Y007939D02*
X014125Y007939D01*
X012614Y007939D01*
X012615Y007940D02*
X014125Y007940D01*
X012590Y007940D01*
X012591Y007941D02*
X014125Y007941D01*
X012616Y007941D01*
X012617Y007942D02*
X014125Y007942D01*
X012592Y007942D01*
X012593Y007943D02*
X014125Y007943D01*
X012618Y007943D01*
X012619Y007944D02*
X014125Y007944D01*
X012594Y007944D01*
X012595Y007945D02*
X014125Y007945D01*
X012620Y007945D01*
X012621Y007946D02*
X014125Y007946D01*
X012596Y007946D01*
X012597Y007947D02*
X014125Y007947D01*
X012622Y007947D01*
X012623Y007948D02*
X014125Y007948D01*
X012598Y007948D01*
X012599Y007949D02*
X014125Y007949D01*
X012624Y007949D01*
X012625Y007950D02*
X014125Y007950D01*
X012600Y007950D01*
X012601Y007951D02*
X014125Y007951D01*
X012626Y007951D01*
X012627Y007952D02*
X014125Y007952D01*
X012602Y007952D01*
X012603Y007953D02*
X014125Y007953D01*
X012628Y007953D01*
X012629Y007954D02*
X014125Y007954D01*
X012604Y007954D01*
X012605Y007955D02*
X014125Y007955D01*
X012630Y007955D01*
X012631Y007956D02*
X014125Y007956D01*
X012606Y007956D01*
X012607Y007957D02*
X014125Y007957D01*
X012632Y007957D01*
X012633Y007958D02*
X014125Y007958D01*
X012608Y007958D01*
X012609Y007959D02*
X014125Y007959D01*
X012634Y007959D01*
X012635Y007960D02*
X014125Y007960D01*
X012610Y007960D01*
X012611Y007961D02*
X014125Y007961D01*
X012636Y007961D01*
X012637Y007962D02*
X014125Y007962D01*
X012612Y007962D01*
X012613Y007963D02*
X014125Y007963D01*
X012638Y007963D01*
X012639Y007964D02*
X014125Y007964D01*
X012614Y007964D01*
X012615Y007965D02*
X014125Y007965D01*
X012640Y007965D01*
X012641Y007966D02*
X014125Y007966D01*
X012616Y007966D01*
X012617Y007967D02*
X014125Y007967D01*
X012642Y007967D01*
X012643Y007968D02*
X014125Y007968D01*
X012618Y007968D01*
X012619Y007969D02*
X014125Y007969D01*
X012644Y007969D01*
X012645Y007970D02*
X014125Y007970D01*
X012620Y007970D01*
X012621Y007971D02*
X014125Y007971D01*
X012646Y007971D01*
X012647Y007972D02*
X014125Y007972D01*
X012622Y007972D01*
X012623Y007973D02*
X014125Y007973D01*
X012648Y007973D01*
X012649Y007974D02*
X014125Y007974D01*
X012624Y007974D01*
X012625Y007975D02*
X014125Y007975D01*
X012650Y007975D01*
X012651Y007976D02*
X014125Y007976D01*
X012626Y007976D01*
X012627Y007977D02*
X014125Y007977D01*
X012652Y007977D01*
X012653Y007978D02*
X014125Y007978D01*
X012628Y007978D01*
X012629Y007979D02*
X014125Y007979D01*
X012654Y007979D01*
X012655Y007980D02*
X014125Y007980D01*
X012630Y007980D01*
X012631Y007981D02*
X014125Y007981D01*
X012656Y007981D01*
X012657Y007982D02*
X014125Y007982D01*
X012632Y007982D01*
X012633Y007983D02*
X014125Y007983D01*
X012658Y007983D01*
X012659Y007984D02*
X014125Y007984D01*
X012634Y007984D01*
X012635Y007985D02*
X014125Y007985D01*
X012660Y007985D01*
X012661Y007986D02*
X014125Y007986D01*
X012636Y007986D01*
X012637Y007987D02*
X014125Y007987D01*
X012662Y007987D01*
X012663Y007988D02*
X014125Y007988D01*
X012638Y007988D01*
X012639Y007989D02*
X014125Y007989D01*
X012664Y007989D01*
X012665Y007990D02*
X014125Y007990D01*
X012640Y007990D01*
X012641Y007991D02*
X014125Y007991D01*
X012666Y007991D01*
X012667Y007992D02*
X014125Y007992D01*
X012642Y007992D01*
X012643Y007993D02*
X014125Y007993D01*
X012668Y007993D01*
X012669Y007994D02*
X014125Y007994D01*
X012644Y007994D01*
X012645Y007995D02*
X014125Y007995D01*
X012670Y007995D01*
X012671Y007996D02*
X014125Y007996D01*
X012646Y007996D01*
X012647Y007997D02*
X014125Y007997D01*
X012672Y007997D01*
X012673Y007998D02*
X014125Y007998D01*
X012648Y007998D01*
X012649Y007999D02*
X014125Y007999D01*
X012674Y007999D01*
X012675Y008000D02*
X014125Y008000D01*
X012650Y008000D01*
X012651Y008001D02*
X014125Y008001D01*
X012676Y008001D01*
X012677Y008002D02*
X014125Y008002D01*
X012652Y008002D01*
X012653Y008003D02*
X014125Y008003D01*
X012678Y008003D01*
X012679Y008004D02*
X014125Y008004D01*
X012654Y008004D01*
X012655Y008005D02*
X014125Y008005D01*
X012680Y008005D01*
X012681Y008006D02*
X014125Y008006D01*
X012656Y008006D01*
X012657Y008007D02*
X014125Y008007D01*
X012682Y008007D01*
X012683Y008008D02*
X014125Y008008D01*
X012658Y008008D01*
X012659Y008009D02*
X014125Y008009D01*
X012684Y008009D01*
X012685Y008010D02*
X014125Y008010D01*
X012660Y008010D01*
X012661Y008011D02*
X014125Y008011D01*
X012686Y008011D01*
X012687Y008012D02*
X014125Y008012D01*
X012662Y008012D01*
X012663Y008013D02*
X014125Y008013D01*
X012688Y008013D01*
X012689Y008014D02*
X014125Y008014D01*
X012664Y008014D01*
X012665Y008015D02*
X014125Y008015D01*
X012690Y008015D01*
X012691Y008016D02*
X014125Y008016D01*
X012666Y008016D01*
X012667Y008017D02*
X014125Y008017D01*
X012692Y008017D01*
X012693Y008018D02*
X014125Y008018D01*
X012668Y008018D01*
X012669Y008019D02*
X014125Y008019D01*
X012694Y008019D01*
X012695Y008020D02*
X014125Y008020D01*
X012670Y008020D01*
X012671Y008021D02*
X014125Y008021D01*
X012696Y008021D01*
X012697Y008022D02*
X014125Y008022D01*
X012672Y008022D01*
X012673Y008023D02*
X014125Y008023D01*
X012698Y008023D01*
X012699Y008024D02*
X014125Y008024D01*
X012674Y008024D01*
X012675Y008025D02*
X014125Y008025D01*
X012700Y008025D01*
X012701Y008026D02*
X014125Y008026D01*
X012676Y008026D01*
X012677Y008027D02*
X014125Y008027D01*
X012702Y008027D01*
X012703Y008028D02*
X014125Y008028D01*
X012678Y008028D01*
X012679Y008029D02*
X014125Y008029D01*
X012704Y008029D01*
X012705Y008030D02*
X014125Y008030D01*
X012680Y008030D01*
X012681Y008031D02*
X014125Y008031D01*
X012706Y008031D01*
X012707Y008032D02*
X014125Y008032D01*
X012682Y008032D01*
X012683Y008033D02*
X014125Y008033D01*
X012708Y008033D01*
X012709Y008034D02*
X014125Y008034D01*
X012684Y008034D01*
X012685Y008035D02*
X014125Y008035D01*
X012710Y008035D01*
X012711Y008036D02*
X014125Y008036D01*
X012686Y008036D01*
X012687Y008037D02*
X014125Y008037D01*
X012712Y008037D01*
X012713Y008038D02*
X014125Y008038D01*
X012688Y008038D01*
X012689Y008039D02*
X014125Y008039D01*
X012714Y008039D01*
X012715Y008040D02*
X014125Y008040D01*
X012690Y008040D01*
X012691Y008041D02*
X014125Y008041D01*
X012716Y008041D01*
X012717Y008042D02*
X014125Y008042D01*
X012692Y008042D01*
X012693Y008043D02*
X014125Y008043D01*
X012718Y008043D01*
X012719Y008044D02*
X014125Y008044D01*
X012694Y008044D01*
X012695Y008045D02*
X014125Y008045D01*
X012720Y008045D01*
X012721Y008046D02*
X014125Y008046D01*
X012696Y008046D01*
X012697Y008047D02*
X014125Y008047D01*
X012722Y008047D01*
X012723Y008048D02*
X014125Y008048D01*
X012698Y008048D01*
X012699Y008049D02*
X014125Y008049D01*
X012724Y008049D01*
X012725Y008050D02*
X014125Y008050D01*
X012700Y008050D01*
X012701Y008051D02*
X014125Y008051D01*
X012726Y008051D01*
X012727Y008052D02*
X014125Y008052D01*
X012702Y008052D01*
X012703Y008053D02*
X014125Y008053D01*
X012728Y008053D01*
X012729Y008054D02*
X014125Y008054D01*
X012704Y008054D01*
X012705Y008055D02*
X014125Y008055D01*
X012730Y008055D01*
X012731Y008056D02*
X014125Y008056D01*
X012706Y008056D01*
X012707Y008057D02*
X014125Y008057D01*
X012732Y008057D01*
X012733Y008058D02*
X014125Y008058D01*
X012708Y008058D01*
X012709Y008059D02*
X014125Y008059D01*
X012734Y008059D01*
X012735Y008060D02*
X014125Y008060D01*
X012710Y008060D01*
X012711Y008061D02*
X014125Y008061D01*
X012736Y008061D01*
X012737Y008062D02*
X014125Y008062D01*
X014125Y008063D02*
X012713Y008063D01*
X014125Y008063D01*
X012738Y008063D01*
X014125Y008063D01*
X014125Y008064D02*
X012714Y008064D01*
X012715Y008065D02*
X014125Y008065D01*
X012740Y008065D01*
X012739Y008064D02*
X014125Y008064D01*
X014125Y008066D02*
X012716Y008066D01*
X012717Y008067D02*
X014125Y008067D01*
X012742Y008067D01*
X012741Y008066D02*
X014125Y008066D01*
X014125Y008068D02*
X012718Y008068D01*
X012719Y008069D02*
X014125Y008069D01*
X012744Y008069D01*
X012743Y008068D02*
X014125Y008068D01*
X014125Y008070D02*
X012720Y008070D01*
X012721Y008071D02*
X014125Y008071D01*
X012746Y008071D01*
X012745Y008070D02*
X014125Y008070D01*
X014125Y008072D02*
X012722Y008072D01*
X012723Y008073D02*
X014125Y008073D01*
X012748Y008073D01*
X012747Y008072D02*
X014125Y008072D01*
X014125Y008074D02*
X012724Y008074D01*
X012725Y008075D02*
X014125Y008075D01*
X012750Y008075D01*
X012749Y008074D02*
X014125Y008074D01*
X014125Y008076D02*
X012726Y008076D01*
X012727Y008077D02*
X014125Y008077D01*
X012752Y008077D01*
X012751Y008076D02*
X014125Y008076D01*
X014125Y008078D02*
X012728Y008078D01*
X012729Y008079D02*
X014125Y008079D01*
X012754Y008079D01*
X012753Y008078D02*
X014125Y008078D01*
X014125Y008080D02*
X012730Y008080D01*
X012731Y008081D02*
X014125Y008081D01*
X012756Y008081D01*
X012755Y008080D02*
X014125Y008080D01*
X014125Y008082D02*
X012732Y008082D01*
X012733Y008083D02*
X014125Y008083D01*
X012758Y008083D01*
X012757Y008082D02*
X014125Y008082D01*
X014125Y008084D02*
X012734Y008084D01*
X012735Y008085D02*
X014125Y008085D01*
X012760Y008085D01*
X012759Y008084D02*
X014125Y008084D01*
X014125Y008086D02*
X012736Y008086D01*
X012737Y008087D02*
X014125Y008087D01*
X012762Y008087D01*
X012761Y008086D02*
X014125Y008086D01*
X014125Y008088D02*
X012738Y008088D01*
X012739Y008089D02*
X014125Y008089D01*
X012764Y008089D01*
X012763Y008088D02*
X014125Y008088D01*
X014125Y008090D02*
X012740Y008090D01*
X012741Y008091D02*
X014125Y008091D01*
X012766Y008091D01*
X012765Y008090D02*
X014125Y008090D01*
X014125Y008092D02*
X012742Y008092D01*
X012743Y008093D02*
X014125Y008093D01*
X012768Y008093D01*
X012767Y008092D02*
X014125Y008092D01*
X014125Y008094D02*
X012744Y008094D01*
X012745Y008095D02*
X014125Y008095D01*
X012770Y008095D01*
X012769Y008094D02*
X014125Y008094D01*
X014125Y008096D02*
X012746Y008096D01*
X012747Y008097D02*
X014125Y008097D01*
X012772Y008097D01*
X012771Y008096D02*
X014125Y008096D01*
X014125Y008098D02*
X012748Y008098D01*
X012749Y008099D02*
X014125Y008099D01*
X012774Y008099D01*
X012773Y008098D02*
X014125Y008098D01*
X014125Y008100D02*
X012750Y008100D01*
X012751Y008101D02*
X014125Y008101D01*
X012776Y008101D01*
X012775Y008100D02*
X014125Y008100D01*
X014125Y008102D02*
X012752Y008102D01*
X012753Y008103D02*
X014125Y008103D01*
X012778Y008103D01*
X012777Y008102D02*
X014125Y008102D01*
X014125Y008104D02*
X012754Y008104D01*
X012755Y008105D02*
X014125Y008105D01*
X012780Y008105D01*
X012779Y008104D02*
X014125Y008104D01*
X014125Y008106D02*
X012756Y008106D01*
X012757Y008107D02*
X014125Y008107D01*
X012782Y008107D01*
X012781Y008106D02*
X014125Y008106D01*
X014125Y008108D02*
X012758Y008108D01*
X012759Y008109D02*
X014125Y008109D01*
X012784Y008109D01*
X012783Y008108D02*
X014125Y008108D01*
X014125Y008110D02*
X012760Y008110D01*
X012761Y008111D02*
X014125Y008111D01*
X012786Y008111D01*
X012785Y008110D02*
X014125Y008110D01*
X014125Y008112D02*
X012762Y008112D01*
X012763Y008113D02*
X014125Y008113D01*
X012788Y008113D01*
X012787Y008112D02*
X014125Y008112D01*
X014125Y008114D02*
X012764Y008114D01*
X012765Y008115D02*
X014125Y008115D01*
X012790Y008115D01*
X012789Y008114D02*
X014125Y008114D01*
X014125Y008116D02*
X012766Y008116D01*
X012767Y008117D02*
X014125Y008117D01*
X012792Y008117D01*
X012791Y008116D02*
X014125Y008116D01*
X014125Y008118D02*
X012768Y008118D01*
X012769Y008119D02*
X014125Y008119D01*
X012794Y008119D01*
X012793Y008118D02*
X014125Y008118D01*
X014125Y008120D02*
X012770Y008120D01*
X012771Y008121D02*
X014125Y008121D01*
X012796Y008121D01*
X012795Y008120D02*
X014125Y008120D01*
X014125Y008122D02*
X012772Y008122D01*
X012773Y008123D02*
X014125Y008123D01*
X012798Y008123D01*
X012797Y008122D02*
X014125Y008122D01*
X014125Y008124D02*
X012774Y008124D01*
X012799Y008124D02*
X014125Y008124D01*
X014125Y008062D02*
X012712Y008062D01*
X012601Y007926D02*
X014125Y007926D01*
X014125Y001625D02*
X012850Y001625D01*
X012849Y001624D02*
X014125Y001624D01*
X014125Y001623D02*
X012848Y001623D01*
X012847Y001622D02*
X014125Y001622D01*
X014125Y001621D02*
X012846Y001621D01*
X012845Y001620D02*
X014125Y001620D01*
X014125Y001619D02*
X012844Y001619D01*
X012843Y001618D02*
X014125Y001618D01*
X014125Y001617D02*
X012842Y001617D01*
X012841Y001616D02*
X014125Y001616D01*
X014125Y001615D02*
X012840Y001615D01*
X012839Y001614D02*
X014125Y001614D01*
X014125Y001613D02*
X012838Y001613D01*
X012837Y001612D02*
X014125Y001612D01*
X014125Y001611D02*
X012836Y001611D01*
X012835Y001610D02*
X014125Y001610D01*
X014125Y001609D02*
X012834Y001609D01*
X012833Y001608D02*
X014125Y001608D01*
X014125Y001607D02*
X012832Y001607D01*
X012831Y001606D02*
X014125Y001606D01*
X014125Y001605D02*
X012830Y001605D01*
X012829Y001604D02*
X014125Y001604D01*
X014125Y001603D02*
X012828Y001603D01*
X012827Y001602D02*
X014125Y001602D01*
X014125Y001601D02*
X012826Y001601D01*
X012825Y001600D02*
X014125Y001600D01*
X014125Y001599D02*
X012824Y001599D01*
X012823Y001598D02*
X014125Y001598D01*
X014125Y001597D02*
X012822Y001597D01*
X012821Y001596D02*
X014125Y001596D01*
X014125Y001595D02*
X012820Y001595D01*
X012819Y001594D02*
X014125Y001594D01*
X014125Y001593D02*
X012818Y001593D01*
X012817Y001592D02*
X014125Y001592D01*
X014125Y001591D02*
X012816Y001591D01*
X012815Y001590D02*
X014125Y001590D01*
X014125Y001589D02*
X012814Y001589D01*
X012813Y001588D02*
X014125Y001588D01*
X014125Y001587D02*
X012812Y001587D01*
X012811Y001586D02*
X014125Y001586D01*
X014125Y001585D02*
X012810Y001585D01*
X012809Y001584D02*
X014125Y001584D01*
X014125Y001583D02*
X012808Y001583D01*
X012807Y001582D02*
X014125Y001582D01*
X014125Y001581D02*
X012806Y001581D01*
X012805Y001580D02*
X014125Y001580D01*
X014125Y001579D02*
X012804Y001579D01*
X012803Y001578D02*
X014125Y001578D01*
X014125Y001577D02*
X012802Y001577D01*
X012801Y001576D02*
X014125Y001576D01*
X014125Y001575D02*
X012800Y001575D01*
X012799Y001574D02*
X014125Y001574D01*
X014125Y001573D02*
X012798Y001573D01*
X012797Y001572D02*
X014125Y001572D01*
X014125Y001571D02*
X012796Y001571D01*
X012795Y001570D02*
X014125Y001570D01*
X014125Y001569D02*
X012794Y001569D01*
X012793Y001568D02*
X014125Y001568D01*
X014125Y001567D02*
X012792Y001567D01*
X012791Y001566D02*
X014125Y001566D01*
X014125Y001565D02*
X012790Y001565D01*
X012789Y001564D02*
X014125Y001564D01*
X014125Y001563D02*
X012788Y001563D01*
X012787Y001562D02*
X014125Y001562D01*
X014125Y001561D02*
X012786Y001561D01*
X012785Y001560D02*
X014125Y001560D01*
X014125Y001559D02*
X012784Y001559D01*
X012783Y001558D02*
X014125Y001558D01*
X014125Y001557D02*
X012782Y001557D01*
X012781Y001556D02*
X014125Y001556D01*
X014125Y001555D02*
X012780Y001555D01*
X012779Y001554D02*
X014125Y001554D01*
X014125Y001553D02*
X012778Y001553D01*
X012777Y001552D02*
X014125Y001552D01*
X014125Y001551D02*
X012776Y001551D01*
X012775Y001550D02*
X014125Y001550D01*
X014125Y001549D02*
X012774Y001549D01*
X012773Y001548D02*
X014125Y001548D01*
X014125Y001547D02*
X012772Y001547D01*
X012771Y001546D02*
X014125Y001546D01*
X014125Y001545D02*
X012770Y001545D01*
X012769Y001544D02*
X014125Y001544D01*
X014125Y001543D02*
X012768Y001543D01*
X012767Y001542D02*
X014125Y001542D01*
X014125Y001541D02*
X012766Y001541D01*
X012765Y001540D02*
X014125Y001540D01*
X014125Y001539D02*
X012764Y001539D01*
X012763Y001538D02*
X014125Y001538D01*
X014125Y001537D02*
X012762Y001537D01*
X012761Y001536D02*
X014125Y001536D01*
X014125Y001535D02*
X012760Y001535D01*
X012759Y001534D02*
X014125Y001534D01*
X014125Y001533D02*
X012758Y001533D01*
X012757Y001532D02*
X014125Y001532D01*
X014125Y001531D02*
X012756Y001531D01*
X012755Y001530D02*
X014125Y001530D01*
X014125Y001529D02*
X012754Y001529D01*
X012753Y001528D02*
X014125Y001528D01*
X014125Y001527D02*
X012752Y001527D01*
X012751Y001526D02*
X014125Y001526D01*
X014125Y001525D02*
X012750Y001525D01*
X012749Y001524D02*
X014125Y001524D01*
X014125Y001523D02*
X012748Y001523D01*
X012747Y001522D02*
X014125Y001522D01*
X014125Y001521D02*
X012746Y001521D01*
X012745Y001520D02*
X014125Y001520D01*
X014125Y001519D02*
X012744Y001519D01*
X012743Y001518D02*
X014125Y001518D01*
X014125Y001517D02*
X012742Y001517D01*
X012741Y001516D02*
X014125Y001516D01*
X014125Y001515D02*
X012740Y001515D01*
X012739Y001514D02*
X014125Y001514D01*
X014125Y001513D02*
X012738Y001513D01*
X012737Y001512D02*
X014125Y001512D01*
X014125Y001511D02*
X012736Y001511D01*
X012735Y001510D02*
X014125Y001510D01*
X014125Y001509D02*
X012734Y001509D01*
X012733Y001508D02*
X014125Y001508D01*
X014125Y001507D02*
X012732Y001507D01*
X012731Y001506D02*
X014125Y001506D01*
X014125Y001505D02*
X012730Y001505D01*
X012729Y001504D02*
X014125Y001504D01*
X014125Y001503D02*
X012728Y001503D01*
X012727Y001502D02*
X014125Y001502D01*
X014125Y001501D02*
X012726Y001501D01*
X012725Y001500D02*
X014125Y001500D01*
X014125Y001499D02*
X012724Y001499D01*
X012723Y001498D02*
X014125Y001498D01*
X014125Y001497D02*
X012722Y001497D01*
X012721Y001496D02*
X014125Y001496D01*
X014125Y001495D02*
X012720Y001495D01*
X012719Y001494D02*
X014125Y001494D01*
X014125Y001493D02*
X012718Y001493D01*
X012717Y001492D02*
X014125Y001492D01*
X014125Y001491D02*
X012716Y001491D01*
X012715Y001490D02*
X014125Y001490D01*
X014125Y001489D02*
X012714Y001489D01*
X012713Y001488D02*
X014125Y001488D01*
X014125Y001487D02*
X012712Y001487D01*
X012711Y001486D02*
X014125Y001486D01*
X014125Y001485D02*
X012710Y001485D01*
X012709Y001484D02*
X014125Y001484D01*
X014125Y001483D02*
X012708Y001483D01*
X012707Y001482D02*
X014125Y001482D01*
X014125Y001481D02*
X012706Y001481D01*
X012705Y001480D02*
X014125Y001480D01*
X014125Y001479D02*
X012704Y001479D01*
X012703Y001478D02*
X014125Y001478D01*
X014125Y001477D02*
X012702Y001477D01*
X012701Y001476D02*
X014125Y001476D01*
X014125Y001475D02*
X012700Y001475D01*
X012699Y001474D02*
X014125Y001474D01*
X014125Y001473D02*
X012698Y001473D01*
X012697Y001472D02*
X014125Y001472D01*
X014125Y001471D02*
X012696Y001471D01*
X012695Y001470D02*
X014125Y001470D01*
X014125Y001469D02*
X012694Y001469D01*
X012693Y001468D02*
X014125Y001468D01*
X014125Y001467D02*
X012692Y001467D01*
X012691Y001466D02*
X014125Y001466D01*
X014125Y001465D02*
X012690Y001465D01*
X012689Y001464D02*
X014125Y001464D01*
X014125Y001463D02*
X012688Y001463D01*
X012687Y001462D02*
X014125Y001462D01*
X014125Y001461D02*
X012686Y001461D01*
X012685Y001460D02*
X014125Y001460D01*
X014125Y001459D02*
X012684Y001459D01*
X012683Y001458D02*
X014125Y001458D01*
X014125Y001457D02*
X012682Y001457D01*
X012681Y001456D02*
X014125Y001456D01*
X014125Y001455D02*
X012680Y001455D01*
X012679Y001454D02*
X014125Y001454D01*
X014125Y001453D02*
X012678Y001453D01*
X012677Y001452D02*
X014125Y001452D01*
X014125Y001451D02*
X012676Y001451D01*
X012675Y001450D02*
X014125Y001450D01*
X014125Y001449D02*
X012674Y001449D01*
X012673Y001448D02*
X014125Y001448D01*
X014125Y001447D02*
X012672Y001447D01*
X012671Y001446D02*
X014125Y001446D01*
X014125Y001445D02*
X012670Y001445D01*
X012669Y001444D02*
X014125Y001444D01*
X014125Y001443D02*
X012668Y001443D01*
X012667Y001442D02*
X014125Y001442D01*
X014125Y001441D02*
X012666Y001441D01*
X012665Y001440D02*
X014125Y001440D01*
X014125Y001439D02*
X012664Y001439D01*
X012663Y001438D02*
X014125Y001438D01*
X014125Y001437D02*
X012662Y001437D01*
X012661Y001436D02*
X014125Y001436D01*
X014125Y001435D02*
X012660Y001435D01*
X012659Y001434D02*
X014125Y001434D01*
X014125Y001433D02*
X012658Y001433D01*
X012657Y001432D02*
X014125Y001432D01*
X014125Y001431D02*
X012656Y001431D01*
X012655Y001430D02*
X014125Y001430D01*
X014125Y001429D02*
X012654Y001429D01*
X012653Y001428D02*
X014125Y001428D01*
X014125Y001427D02*
X012652Y001427D01*
X012651Y001426D02*
X014125Y001426D01*
X014125Y001425D02*
X012650Y001425D01*
X011549Y001424D02*
X014125Y001424D01*
X014125Y001423D02*
X011548Y001423D01*
X011547Y001422D02*
X014125Y001422D01*
X014125Y001421D02*
X011546Y001421D01*
X011545Y001420D02*
X014125Y001420D01*
X014125Y001419D02*
X011544Y001419D01*
X011543Y001418D02*
X014125Y001418D01*
X014125Y001417D02*
X011542Y001417D01*
X011541Y001416D02*
X014125Y001416D01*
X014125Y001415D02*
X011540Y001415D01*
X011539Y001414D02*
X014125Y001414D01*
X014125Y001413D02*
X011538Y001413D01*
X011537Y001412D02*
X014125Y001412D01*
X014125Y001411D02*
X011536Y001411D01*
X011535Y001410D02*
X014125Y001410D01*
X014125Y001409D02*
X011534Y001409D01*
X011533Y001408D02*
X014125Y001408D01*
X014125Y001407D02*
X011532Y001407D01*
X011531Y001406D02*
X014125Y001406D01*
X014125Y001405D02*
X011530Y001405D01*
X011529Y001404D02*
X014125Y001404D01*
X014125Y001403D02*
X011528Y001403D01*
X011527Y001402D02*
X014125Y001402D01*
X014125Y001401D02*
X011526Y001401D01*
X011525Y001400D02*
X014125Y001400D01*
X014125Y001399D02*
X011524Y001399D01*
X011523Y001398D02*
X014125Y001398D01*
X014125Y001397D02*
X011522Y001397D01*
X011521Y001396D02*
X014125Y001396D01*
X014125Y001395D02*
X011520Y001395D01*
X011519Y001394D02*
X014125Y001394D01*
X014125Y001393D02*
X011518Y001393D01*
X011517Y001392D02*
X014125Y001392D01*
X014125Y001391D02*
X011516Y001391D01*
X011515Y001390D02*
X014125Y001390D01*
X014125Y001389D02*
X011514Y001389D01*
X011513Y001388D02*
X014125Y001388D01*
X014125Y001387D02*
X011512Y001387D01*
X011511Y001386D02*
X014125Y001386D01*
X014125Y001385D02*
X011510Y001385D01*
X011509Y001384D02*
X014125Y001384D01*
X014125Y001383D02*
X011508Y001383D01*
X011507Y001382D02*
X014125Y001382D01*
X014125Y001381D02*
X011506Y001381D01*
X011505Y001380D02*
X014125Y001380D01*
X014125Y001379D02*
X011504Y001379D01*
X011503Y001378D02*
X014125Y001378D01*
X014125Y001377D02*
X011502Y001377D01*
X011501Y001376D02*
X014125Y001376D01*
X014125Y001375D02*
X011500Y001375D01*
X011499Y001374D02*
X014125Y001374D01*
X014125Y001373D02*
X011498Y001373D01*
X011497Y001372D02*
X014125Y001372D01*
X014125Y001371D02*
X011496Y001371D01*
X011495Y001370D02*
X014125Y001370D01*
X014125Y001369D02*
X011494Y001369D01*
X011493Y001368D02*
X014125Y001368D01*
X014125Y001367D02*
X011492Y001367D01*
X011491Y001366D02*
X014125Y001366D01*
X014125Y001365D02*
X011490Y001365D01*
X011489Y001364D02*
X014125Y001364D01*
X014125Y001363D02*
X011488Y001363D01*
X011487Y001362D02*
X014125Y001362D01*
X014125Y001361D02*
X011486Y001361D01*
X011485Y001360D02*
X014125Y001360D01*
X014125Y001359D02*
X011484Y001359D01*
X011483Y001358D02*
X014125Y001358D01*
X014125Y001357D02*
X011482Y001357D01*
X011481Y001356D02*
X014125Y001356D01*
X014125Y001355D02*
X011480Y001355D01*
X011479Y001354D02*
X014125Y001354D01*
X014125Y001353D02*
X011478Y001353D01*
X011477Y001352D02*
X014125Y001352D01*
X014125Y001351D02*
X011476Y001351D01*
X011475Y001350D02*
X014125Y001350D01*
X014125Y001349D02*
X011474Y001349D01*
X011473Y001348D02*
X014125Y001348D01*
X014125Y001347D02*
X011472Y001347D01*
X011471Y001346D02*
X014125Y001346D01*
X014125Y001345D02*
X011470Y001345D01*
X011469Y001344D02*
X014125Y001344D01*
X014125Y001343D02*
X011468Y001343D01*
X011467Y001342D02*
X014125Y001342D01*
X014125Y001341D02*
X011466Y001341D01*
X011465Y001340D02*
X014125Y001340D01*
X014125Y001339D02*
X011464Y001339D01*
X011463Y001338D02*
X014125Y001338D01*
X014125Y001337D02*
X011462Y001337D01*
X011461Y001336D02*
X014125Y001336D01*
X014125Y001335D02*
X011460Y001335D01*
X011459Y001334D02*
X014125Y001334D01*
X014125Y001333D02*
X011458Y001333D01*
X011457Y001332D02*
X014125Y001332D01*
X014125Y001331D02*
X011456Y001331D01*
X011455Y001330D02*
X014125Y001330D01*
X014125Y001329D02*
X011454Y001329D01*
X011453Y001328D02*
X014125Y001328D01*
X014125Y001327D02*
X011452Y001327D01*
X011451Y001326D02*
X014125Y001326D01*
X014125Y001325D02*
X011450Y001325D01*
X011450Y001324D02*
X014125Y001324D01*
X014125Y001323D02*
X011450Y001323D01*
X011450Y001322D02*
X014125Y001322D01*
X014125Y001321D02*
X011450Y001321D01*
X011450Y001320D02*
X014125Y001320D01*
X014125Y001319D02*
X011450Y001319D01*
X011450Y001318D02*
X014125Y001318D01*
X014125Y001317D02*
X011450Y001317D01*
X011450Y001316D02*
X014125Y001316D01*
X014125Y001315D02*
X011450Y001315D01*
X011450Y001314D02*
X014125Y001314D01*
X014125Y001313D02*
X011450Y001313D01*
X011450Y001312D02*
X014125Y001312D01*
X014125Y001311D02*
X011450Y001311D01*
X011450Y001310D02*
X014125Y001310D01*
X014125Y001309D02*
X011450Y001309D01*
X011450Y001308D02*
X014125Y001308D01*
X014125Y001307D02*
X011450Y001307D01*
X011450Y001306D02*
X014125Y001306D01*
X014125Y001305D02*
X011450Y001305D01*
X011450Y001304D02*
X014125Y001304D01*
X014125Y001303D02*
X011450Y001303D01*
X011450Y001302D02*
X014125Y001302D01*
X014125Y001301D02*
X011450Y001301D01*
X011450Y001300D02*
X014125Y001300D01*
X014125Y001299D02*
X011450Y001299D01*
X011450Y001298D02*
X014125Y001298D01*
X014125Y001297D02*
X011450Y001297D01*
X011450Y001296D02*
X014125Y001296D01*
X014125Y001295D02*
X011450Y001295D01*
X011450Y001294D02*
X014125Y001294D01*
X014125Y001293D02*
X011450Y001293D01*
X011450Y001292D02*
X014125Y001292D01*
X014125Y001291D02*
X011450Y001291D01*
X011450Y001290D02*
X014125Y001290D01*
X014125Y001289D02*
X011450Y001289D01*
X011450Y001288D02*
X014125Y001288D01*
X014125Y001287D02*
X011450Y001287D01*
X011450Y001286D02*
X014125Y001286D01*
X014125Y001285D02*
X011450Y001285D01*
X011450Y001284D02*
X014125Y001284D01*
X014125Y001283D02*
X011450Y001283D01*
X011450Y001282D02*
X014125Y001282D01*
X014125Y001281D02*
X011450Y001281D01*
X011450Y001280D02*
X014125Y001280D01*
X014125Y001279D02*
X011450Y001279D01*
X011450Y001278D02*
X014125Y001278D01*
X014125Y001277D02*
X011450Y001277D01*
X011450Y001276D02*
X014125Y001276D01*
X014125Y001275D02*
X011450Y001275D01*
X011450Y001274D02*
X014125Y001274D01*
X014125Y001273D02*
X011450Y001273D01*
X011450Y001272D02*
X014125Y001272D01*
X014125Y001271D02*
X011450Y001271D01*
X011450Y001270D02*
X014125Y001270D01*
X014125Y001269D02*
X011450Y001269D01*
X011450Y001268D02*
X014125Y001268D01*
X014125Y001267D02*
X011450Y001267D01*
X011450Y001266D02*
X014125Y001266D01*
X014125Y001265D02*
X011450Y001265D01*
X011450Y001264D02*
X014125Y001264D01*
X014125Y001263D02*
X011450Y001263D01*
X011450Y001262D02*
X014125Y001262D01*
X014125Y001261D02*
X011450Y001261D01*
X011450Y001260D02*
X014125Y001260D01*
X014125Y001259D02*
X011450Y001259D01*
X011450Y001258D02*
X014125Y001258D01*
X014125Y001257D02*
X011450Y001257D01*
X011450Y001256D02*
X014125Y001256D01*
X014125Y001255D02*
X011450Y001255D01*
X011450Y001254D02*
X014125Y001254D01*
X014125Y001253D02*
X011450Y001253D01*
X011450Y001252D02*
X014125Y001252D01*
X014125Y001251D02*
X011450Y001251D01*
X011450Y001250D02*
X014125Y001250D01*
X014125Y001249D02*
X011450Y001249D01*
X011450Y001248D02*
X014125Y001248D01*
X014125Y001247D02*
X011450Y001247D01*
X011450Y001246D02*
X014125Y001246D01*
X014125Y001245D02*
X011450Y001245D01*
X011450Y001244D02*
X014125Y001244D01*
X014125Y001243D02*
X011450Y001243D01*
X011450Y001242D02*
X014125Y001242D01*
X014125Y001241D02*
X011450Y001241D01*
X011450Y001240D02*
X014125Y001240D01*
X014125Y001239D02*
X011450Y001239D01*
X011450Y001238D02*
X014125Y001238D01*
X014125Y001237D02*
X011450Y001237D01*
X011450Y001236D02*
X014125Y001236D01*
X014125Y001235D02*
X011450Y001235D01*
X011450Y001234D02*
X014125Y001234D01*
X014125Y001233D02*
X011450Y001233D01*
X011450Y001232D02*
X014125Y001232D01*
X014125Y001231D02*
X011450Y001231D01*
X011450Y001230D02*
X014125Y001230D01*
X014125Y001229D02*
X011450Y001229D01*
X011450Y001228D02*
X014125Y001228D01*
X014125Y001227D02*
X011450Y001227D01*
X011450Y001226D02*
X014125Y001226D01*
X014125Y001225D02*
X011450Y001225D01*
X011450Y001224D02*
X014125Y001224D01*
X014125Y001223D02*
X011450Y001223D01*
X011450Y001222D02*
X014125Y001222D01*
X014125Y001221D02*
X011450Y001221D01*
X011450Y001220D02*
X014125Y001220D01*
X014125Y001219D02*
X011450Y001219D01*
X011450Y001218D02*
X014125Y001218D01*
X014125Y001217D02*
X011450Y001217D01*
X011450Y001216D02*
X014125Y001216D01*
X014125Y001215D02*
X011450Y001215D01*
X011450Y001214D02*
X014125Y001214D01*
X014125Y001213D02*
X011450Y001213D01*
X011450Y001212D02*
X014125Y001212D01*
X014125Y001211D02*
X011450Y001211D01*
X011450Y001210D02*
X014125Y001210D01*
X014125Y001209D02*
X011450Y001209D01*
X011450Y001208D02*
X014125Y001208D01*
X014125Y001207D02*
X011450Y001207D01*
X011450Y001206D02*
X014125Y001206D01*
X014125Y001205D02*
X011450Y001205D01*
X011450Y001204D02*
X014125Y001204D01*
X014125Y001203D02*
X011450Y001203D01*
X011450Y001202D02*
X014125Y001202D01*
X014125Y001201D02*
X011450Y001201D01*
X011450Y001200D02*
X014125Y001200D01*
X014125Y001199D02*
X011450Y001199D01*
X011450Y001198D02*
X014125Y001198D01*
X014125Y001197D02*
X011450Y001197D01*
X011450Y001196D02*
X014125Y001196D01*
X014125Y001195D02*
X011450Y001195D01*
X011450Y001194D02*
X014125Y001194D01*
X014125Y001193D02*
X011450Y001193D01*
X011450Y001192D02*
X014125Y001192D01*
X014125Y001191D02*
X011450Y001191D01*
X011450Y001190D02*
X014125Y001190D01*
X014125Y001189D02*
X011450Y001189D01*
X011450Y001188D02*
X014125Y001188D01*
X014125Y001187D02*
X011450Y001187D01*
X011450Y001186D02*
X014125Y001186D01*
X014125Y001185D02*
X011450Y001185D01*
X011450Y001184D02*
X014125Y001184D01*
X014125Y001183D02*
X011450Y001183D01*
X011450Y001182D02*
X014125Y001182D01*
X014125Y001181D02*
X011450Y001181D01*
X011450Y001180D02*
X014125Y001180D01*
X014125Y001179D02*
X011450Y001179D01*
X011450Y001178D02*
X014125Y001178D01*
X014125Y001177D02*
X011450Y001177D01*
X011450Y001176D02*
X014125Y001176D01*
X014125Y001175D02*
X011450Y001175D01*
X011450Y001174D02*
X014125Y001174D01*
X014125Y001173D02*
X011450Y001173D01*
X011450Y001172D02*
X014125Y001172D01*
X014125Y001171D02*
X011450Y001171D01*
X011450Y001170D02*
X014125Y001170D01*
X014125Y001169D02*
X011450Y001169D01*
X011450Y001168D02*
X014125Y001168D01*
X014125Y001167D02*
X011450Y001167D01*
X011450Y001166D02*
X014125Y001166D01*
X014125Y001165D02*
X011450Y001165D01*
X011450Y001164D02*
X014125Y001164D01*
X014125Y001163D02*
X011450Y001163D01*
X011450Y001162D02*
X014125Y001162D01*
X014125Y001161D02*
X011450Y001161D01*
X011450Y001160D02*
X014125Y001160D01*
X014125Y001159D02*
X011450Y001159D01*
X011450Y001158D02*
X014125Y001158D01*
X014125Y001157D02*
X011450Y001157D01*
X011450Y001156D02*
X014125Y001156D01*
X014125Y001155D02*
X011450Y001155D01*
X011450Y001154D02*
X014125Y001154D01*
X014125Y001153D02*
X011450Y001153D01*
X011450Y001152D02*
X014125Y001152D01*
X014125Y001151D02*
X011450Y001151D01*
X011450Y001150D02*
X014125Y001150D01*
X014125Y001149D02*
X011450Y001149D01*
X011450Y001148D02*
X014125Y001148D01*
X014125Y001147D02*
X011450Y001147D01*
X011450Y001146D02*
X014125Y001146D01*
X014125Y001145D02*
X011450Y001145D01*
X011450Y001144D02*
X014125Y001144D01*
X014125Y001143D02*
X011450Y001143D01*
X011450Y001142D02*
X014125Y001142D01*
X014125Y001141D02*
X011450Y001141D01*
X011450Y001140D02*
X014125Y001140D01*
X014125Y001139D02*
X011450Y001139D01*
X011450Y001138D02*
X014125Y001138D01*
X014125Y001137D02*
X011450Y001137D01*
X011450Y001136D02*
X014125Y001136D01*
X014125Y001135D02*
X011450Y001135D01*
X011450Y001134D02*
X014125Y001134D01*
X014125Y001133D02*
X011450Y001133D01*
X011450Y001132D02*
X014125Y001132D01*
X014125Y001131D02*
X011450Y001131D01*
X011450Y001130D02*
X014125Y001130D01*
X014125Y001129D02*
X011450Y001129D01*
X011450Y001128D02*
X014125Y001128D01*
X014125Y001127D02*
X011450Y001127D01*
X011450Y001126D02*
X014125Y001126D01*
X014125Y001125D02*
X011450Y001125D01*
X011450Y001124D02*
X014125Y001124D01*
X014125Y001123D02*
X011450Y001123D01*
X011450Y001122D02*
X014125Y001122D01*
X014125Y001121D02*
X011450Y001121D01*
X011450Y001120D02*
X014125Y001120D01*
X014125Y001119D02*
X011450Y001119D01*
X011450Y001118D02*
X014125Y001118D01*
X014125Y001117D02*
X011450Y001117D01*
X011450Y001116D02*
X014125Y001116D01*
X014125Y001115D02*
X011450Y001115D01*
X011450Y001114D02*
X014125Y001114D01*
X014125Y001113D02*
X011450Y001113D01*
X011450Y001112D02*
X014125Y001112D01*
X014125Y001111D02*
X011450Y001111D01*
X011450Y001110D02*
X014125Y001110D01*
X014125Y001109D02*
X011450Y001109D01*
X011450Y001108D02*
X014125Y001108D01*
X014125Y001107D02*
X011450Y001107D01*
X011450Y001106D02*
X014125Y001106D01*
X014125Y001105D02*
X011450Y001105D01*
X011450Y001104D02*
X014125Y001104D01*
X014125Y001103D02*
X011450Y001103D01*
X011450Y001102D02*
X014125Y001102D01*
X014125Y001101D02*
X011450Y001101D01*
X011450Y001100D02*
X014125Y001100D01*
X014125Y001099D02*
X011450Y001099D01*
X011450Y001098D02*
X014125Y001098D01*
X014125Y001097D02*
X011450Y001097D01*
X011450Y001096D02*
X014125Y001096D01*
X014125Y001095D02*
X011450Y001095D01*
X011450Y001094D02*
X014125Y001094D01*
X014125Y001093D02*
X011450Y001093D01*
X011450Y001092D02*
X014125Y001092D01*
X014125Y001091D02*
X011450Y001091D01*
X011450Y001090D02*
X014125Y001090D01*
X014125Y001089D02*
X011450Y001089D01*
X011450Y001088D02*
X014125Y001088D01*
X014125Y001087D02*
X011450Y001087D01*
X011450Y001086D02*
X014125Y001086D01*
X014125Y001085D02*
X011450Y001085D01*
X011450Y001084D02*
X014125Y001084D01*
X014125Y001083D02*
X011450Y001083D01*
X011450Y001082D02*
X014125Y001082D01*
X014125Y001081D02*
X011450Y001081D01*
X011450Y001080D02*
X014125Y001080D01*
X014125Y001079D02*
X011450Y001079D01*
X011450Y001078D02*
X014125Y001078D01*
X014125Y001077D02*
X011450Y001077D01*
X011450Y001076D02*
X014125Y001076D01*
X014125Y001075D02*
X011450Y001075D01*
X011450Y001074D02*
X014125Y001074D01*
X014125Y001073D02*
X011450Y001073D01*
X011450Y001072D02*
X014125Y001072D01*
X014125Y001071D02*
X011450Y001071D01*
X011450Y001070D02*
X014125Y001070D01*
X014125Y001069D02*
X011450Y001069D01*
X011450Y001068D02*
X014125Y001068D01*
X014125Y001067D02*
X011450Y001067D01*
X011450Y001066D02*
X014125Y001066D01*
X014125Y001065D02*
X011450Y001065D01*
X011450Y001064D02*
X014125Y001064D01*
X014125Y001063D02*
X011450Y001063D01*
X011450Y001062D02*
X014125Y001062D01*
X014125Y001061D02*
X011450Y001061D01*
X011450Y001060D02*
X014125Y001060D01*
X014125Y001059D02*
X011450Y001059D01*
X011450Y001058D02*
X014125Y001058D01*
X014125Y001057D02*
X011450Y001057D01*
X011450Y001056D02*
X014125Y001056D01*
X014125Y001055D02*
X011450Y001055D01*
X011450Y001054D02*
X014125Y001054D01*
X014125Y001053D02*
X011450Y001053D01*
X011450Y001052D02*
X014125Y001052D01*
X014125Y001051D02*
X011450Y001051D01*
X011450Y001050D02*
X014125Y001050D01*
X014125Y001049D02*
X011450Y001049D01*
X011450Y001048D02*
X014125Y001048D01*
X014125Y001047D02*
X011450Y001047D01*
X011450Y001046D02*
X014125Y001046D01*
X014125Y001045D02*
X011450Y001045D01*
X011450Y001044D02*
X014125Y001044D01*
X014125Y001043D02*
X011450Y001043D01*
X011450Y001042D02*
X014125Y001042D01*
X014125Y001041D02*
X011450Y001041D01*
X011450Y001040D02*
X014125Y001040D01*
X014125Y001039D02*
X011450Y001039D01*
X011450Y001038D02*
X014125Y001038D01*
X014125Y001037D02*
X011450Y001037D01*
X011450Y001036D02*
X014125Y001036D01*
X014125Y001035D02*
X011450Y001035D01*
X011450Y001034D02*
X014125Y001034D01*
X014125Y001033D02*
X011450Y001033D01*
X011450Y001032D02*
X014125Y001032D01*
X014125Y001031D02*
X011450Y001031D01*
X011450Y001030D02*
X014125Y001030D01*
X014125Y001029D02*
X011450Y001029D01*
X011450Y001028D02*
X014125Y001028D01*
X014125Y001027D02*
X011450Y001027D01*
X011450Y001026D02*
X014125Y001026D01*
X014125Y001025D02*
X011450Y001025D01*
X011450Y001024D02*
X014125Y001024D01*
X014125Y001023D02*
X011450Y001023D01*
X011450Y001022D02*
X014125Y001022D01*
X014125Y001021D02*
X011450Y001021D01*
X011450Y001020D02*
X014125Y001020D01*
X014125Y001019D02*
X011450Y001019D01*
X011450Y001018D02*
X014125Y001018D01*
X014125Y001017D02*
X011450Y001017D01*
X011450Y001016D02*
X014125Y001016D01*
X014125Y001015D02*
X011450Y001015D01*
X011450Y001014D02*
X014125Y001014D01*
X014125Y001013D02*
X011450Y001013D01*
X011450Y001012D02*
X014125Y001012D01*
X014125Y001011D02*
X011450Y001011D01*
X011450Y001010D02*
X014125Y001010D01*
X014125Y001009D02*
X011450Y001009D01*
X011450Y001008D02*
X014125Y001008D01*
X014125Y001007D02*
X011450Y001007D01*
X011450Y001006D02*
X014125Y001006D01*
X014125Y001005D02*
X011450Y001005D01*
X011450Y001004D02*
X014125Y001004D01*
X014125Y001003D02*
X011450Y001003D01*
X011450Y001002D02*
X014125Y001002D01*
X014125Y001001D02*
X011450Y001001D01*
X011450Y001000D02*
X014125Y001000D01*
X014125Y000999D02*
X011450Y000999D01*
X011450Y000998D02*
X014125Y000998D01*
X014125Y000997D02*
X011450Y000997D01*
X011450Y000996D02*
X014125Y000996D01*
X014125Y000995D02*
X011450Y000995D01*
X011450Y000994D02*
X014125Y000994D01*
X014125Y000993D02*
X011450Y000993D01*
X011450Y000992D02*
X014125Y000992D01*
X014125Y000991D02*
X011450Y000991D01*
X011450Y000990D02*
X014125Y000990D01*
X014125Y000989D02*
X011450Y000989D01*
X011450Y000988D02*
X014125Y000988D01*
X014125Y000987D02*
X011450Y000987D01*
X011450Y000986D02*
X014125Y000986D01*
X014125Y000985D02*
X011450Y000985D01*
X011450Y000984D02*
X014125Y000984D01*
X014125Y000983D02*
X011450Y000983D01*
X011450Y000982D02*
X014125Y000982D01*
X014125Y000981D02*
X011450Y000981D01*
X011450Y000980D02*
X014125Y000980D01*
X014125Y000979D02*
X011450Y000979D01*
X011450Y000978D02*
X014125Y000978D01*
X014125Y000977D02*
X011450Y000977D01*
X011450Y000976D02*
X014125Y000976D01*
X014125Y000975D02*
X011450Y000975D01*
X011450Y000974D02*
X014125Y000974D01*
X014125Y000973D02*
X011450Y000973D01*
X011450Y000972D02*
X014125Y000972D01*
X014125Y000971D02*
X011450Y000971D01*
X011450Y000970D02*
X014125Y000970D01*
X014125Y000969D02*
X011450Y000969D01*
X011450Y000968D02*
X014125Y000968D01*
X014125Y000967D02*
X011450Y000967D01*
X011450Y000966D02*
X014125Y000966D01*
X014125Y000965D02*
X011450Y000965D01*
X011450Y000964D02*
X014125Y000964D01*
X014125Y000963D02*
X011450Y000963D01*
X011450Y000962D02*
X014125Y000962D01*
X014125Y000961D02*
X011450Y000961D01*
X011450Y000960D02*
X014125Y000960D01*
X014125Y000959D02*
X011450Y000959D01*
X011450Y000958D02*
X014125Y000958D01*
X011450Y000958D01*
X011450Y000957D02*
X014125Y000957D01*
X014125Y000956D02*
X011450Y000956D01*
X011450Y000955D02*
X014125Y000955D01*
X014125Y000954D02*
X011450Y000954D01*
X011450Y000953D02*
X014125Y000953D01*
X014125Y000952D02*
X011450Y000952D01*
X011450Y000951D02*
X014125Y000951D01*
X014125Y000950D02*
X011450Y000950D01*
X011450Y000949D02*
X014125Y000949D01*
X014125Y000948D02*
X011450Y000948D01*
X011450Y000947D02*
X014125Y000947D01*
X014125Y000946D02*
X011450Y000946D01*
X011450Y000945D02*
X014125Y000945D01*
X014125Y000944D02*
X011450Y000944D01*
X011450Y000943D02*
X014125Y000943D01*
X014125Y000942D02*
X011450Y000942D01*
X011450Y000941D02*
X014125Y000941D01*
X014125Y000940D02*
X011450Y000940D01*
X011450Y000939D02*
X014125Y000939D01*
X014125Y000938D02*
X011450Y000938D01*
X011450Y000937D02*
X014125Y000937D01*
X014125Y000936D02*
X011450Y000936D01*
X011450Y000935D02*
X014125Y000935D01*
X014125Y000934D02*
X011450Y000934D01*
X011450Y000933D02*
X014125Y000933D01*
X014125Y000932D02*
X011450Y000932D01*
X011450Y000931D02*
X014125Y000931D01*
X014125Y000930D02*
X011450Y000930D01*
X011450Y000929D02*
X014125Y000929D01*
X014125Y000928D02*
X011450Y000928D01*
X011450Y000927D02*
X014125Y000927D01*
X014125Y000926D02*
X011450Y000926D01*
X011450Y000925D02*
X014125Y000925D01*
X014125Y000924D02*
X011450Y000924D01*
X011450Y000923D02*
X014125Y000923D01*
X014125Y000922D02*
X011450Y000922D01*
X011450Y000921D02*
X014125Y000921D01*
X014125Y000920D02*
X011450Y000920D01*
X011450Y000919D02*
X014125Y000919D01*
X014125Y000918D02*
X011450Y000918D01*
X011450Y000917D02*
X014125Y000917D01*
X014125Y000916D02*
X011450Y000916D01*
X011450Y000915D02*
X014125Y000915D01*
X014125Y000914D02*
X011450Y000914D01*
X011450Y000913D02*
X014125Y000913D01*
X014125Y000912D02*
X011450Y000912D01*
X011450Y000911D02*
X014125Y000911D01*
X014125Y000910D02*
X011450Y000910D01*
X011450Y000909D02*
X014125Y000909D01*
X014125Y000908D02*
X011450Y000908D01*
X011450Y000907D02*
X014125Y000907D01*
X014125Y000906D02*
X011450Y000906D01*
X011450Y000905D02*
X014125Y000905D01*
X014125Y000904D02*
X011450Y000904D01*
X011450Y000903D02*
X014125Y000903D01*
X014125Y000902D02*
X011450Y000902D01*
X011450Y000901D02*
X014125Y000901D01*
X014125Y000900D02*
X011450Y000900D01*
X011450Y000899D02*
X014125Y000899D01*
X014125Y000898D02*
X011450Y000898D01*
X011450Y000897D02*
X014125Y000897D01*
X014125Y000896D02*
X011450Y000896D01*
X011450Y000895D02*
X014125Y000895D01*
X014125Y000894D02*
X011450Y000894D01*
X011450Y000893D02*
X014125Y000893D01*
X014125Y000892D02*
X011450Y000892D01*
X011450Y000891D02*
X014125Y000891D01*
X014125Y000890D02*
X011450Y000890D01*
X011450Y000889D02*
X014125Y000889D01*
X014125Y000888D02*
X011450Y000888D01*
X011450Y000887D02*
X014125Y000887D01*
X014125Y000886D02*
X011450Y000886D01*
X011450Y000885D02*
X014125Y000885D01*
X014125Y000884D02*
X011450Y000884D01*
X011450Y000883D02*
X014125Y000883D01*
X014125Y000882D02*
X011450Y000882D01*
X011450Y000881D02*
X014125Y000881D01*
X014125Y000880D02*
X011450Y000880D01*
X011450Y000879D02*
X014125Y000879D01*
X014125Y000878D02*
X011450Y000878D01*
X011450Y000877D02*
X014125Y000877D01*
X014125Y000876D02*
X011450Y000876D01*
X011450Y000875D02*
X014125Y000875D01*
X014125Y000874D02*
X011450Y000874D01*
X011450Y000873D02*
X014125Y000873D01*
X014125Y000872D02*
X011450Y000872D01*
X011450Y000871D02*
X014125Y000871D01*
X014125Y000870D02*
X011450Y000870D01*
X011450Y000869D02*
X014125Y000869D01*
X014125Y000868D02*
X011450Y000868D01*
X011450Y000867D02*
X014125Y000867D01*
X014125Y000866D02*
X011450Y000866D01*
X011450Y000865D02*
X014125Y000865D01*
X014125Y000864D02*
X011450Y000864D01*
X011450Y000863D02*
X014125Y000863D01*
X014125Y000862D02*
X011450Y000862D01*
X011450Y000861D02*
X014125Y000861D01*
X014125Y000860D02*
X011450Y000860D01*
X011450Y000859D02*
X014125Y000859D01*
X014125Y000858D02*
X011450Y000858D01*
X011450Y000857D02*
X014125Y000857D01*
X014125Y000856D02*
X011450Y000856D01*
X011450Y000855D02*
X014125Y000855D01*
X014125Y000854D02*
X011450Y000854D01*
X011450Y000853D02*
X014125Y000853D01*
X014125Y000852D02*
X011450Y000852D01*
X011450Y000851D02*
X014125Y000851D01*
X014125Y000850D02*
X011450Y000850D01*
X011450Y000849D02*
X014125Y000849D01*
X014125Y000848D02*
X011450Y000848D01*
X011450Y000847D02*
X014125Y000847D01*
X014125Y000846D02*
X011450Y000846D01*
X011450Y000845D02*
X014125Y000845D01*
X014125Y000844D02*
X011450Y000844D01*
X011450Y000843D02*
X014125Y000843D01*
X014125Y000842D02*
X011450Y000842D01*
X011450Y000841D02*
X014125Y000841D01*
X014125Y000840D02*
X011450Y000840D01*
X011450Y000839D02*
X014125Y000839D01*
X014125Y000838D02*
X011450Y000838D01*
X011450Y000837D02*
X014125Y000837D01*
X014125Y000836D02*
X011450Y000836D01*
X011450Y000835D02*
X014125Y000835D01*
X014125Y000834D02*
X011450Y000834D01*
X011450Y000833D02*
X014125Y000833D01*
X014125Y000832D02*
X011450Y000832D01*
X011450Y000831D02*
X014125Y000831D01*
X014125Y000830D02*
X011450Y000830D01*
X011450Y000829D02*
X014125Y000829D01*
X014125Y000828D02*
X011450Y000828D01*
X011450Y000827D02*
X014125Y000827D01*
X014125Y000826D02*
X011450Y000826D01*
X011450Y000825D02*
X014125Y000825D01*
X014125Y000824D02*
X011450Y000824D01*
X011450Y000823D02*
X014125Y000823D01*
X014125Y000822D02*
X011450Y000822D01*
X011450Y000821D02*
X014125Y000821D01*
X014125Y000820D02*
X011450Y000820D01*
X011450Y000819D02*
X014125Y000819D01*
X014125Y000818D02*
X011450Y000818D01*
X011450Y000817D02*
X014125Y000817D01*
X014125Y000816D02*
X011450Y000816D01*
X011450Y000815D02*
X014125Y000815D01*
X014125Y000814D02*
X011450Y000814D01*
X011450Y000813D02*
X014125Y000813D01*
X014125Y000812D02*
X011450Y000812D01*
X011450Y000811D02*
X014125Y000811D01*
X014125Y000810D02*
X011450Y000810D01*
X011450Y000809D02*
X014125Y000809D01*
X014125Y000808D02*
X011450Y000808D01*
X011450Y000807D02*
X014125Y000807D01*
X014125Y000806D02*
X011450Y000806D01*
X011450Y000805D02*
X014125Y000805D01*
X014125Y000804D02*
X011450Y000804D01*
X011450Y000803D02*
X014125Y000803D01*
X014125Y000802D02*
X011450Y000802D01*
X011450Y000801D02*
X014125Y000801D01*
X014125Y000800D02*
X011450Y000800D01*
X011450Y000799D02*
X014125Y000799D01*
X014125Y000798D02*
X011450Y000798D01*
X011450Y000797D02*
X014125Y000797D01*
X014125Y000796D02*
X011450Y000796D01*
X011450Y000795D02*
X014125Y000795D01*
X014125Y000794D02*
X011450Y000794D01*
X011450Y000793D02*
X014125Y000793D01*
X014125Y000792D02*
X011450Y000792D01*
X011450Y000791D02*
X014125Y000791D01*
X014125Y000790D02*
X011450Y000790D01*
X011450Y000789D02*
X014125Y000789D01*
X014125Y000788D02*
X011450Y000788D01*
X011450Y000787D02*
X014125Y000787D01*
X014125Y000786D02*
X011450Y000786D01*
X011450Y000785D02*
X014125Y000785D01*
X014125Y000784D02*
X011450Y000784D01*
X011450Y000783D02*
X014125Y000783D01*
X014125Y000782D02*
X011450Y000782D01*
X011450Y000781D02*
X014125Y000781D01*
X014125Y000780D02*
X011450Y000780D01*
X011450Y000779D02*
X014125Y000779D01*
X014125Y000778D02*
X011450Y000778D01*
X011450Y000777D02*
X014125Y000777D01*
X014125Y000776D02*
X011450Y000776D01*
X011450Y000775D02*
X014125Y000775D01*
X014125Y000774D02*
X011450Y000774D01*
X011450Y000773D02*
X014125Y000773D01*
X014125Y000772D02*
X011450Y000772D01*
X011450Y000771D02*
X014125Y000771D01*
X014125Y000770D02*
X011450Y000770D01*
X011450Y000769D02*
X014125Y000769D01*
X014125Y000768D02*
X011450Y000768D01*
X011450Y000767D02*
X014125Y000767D01*
X014125Y000766D02*
X011450Y000766D01*
X011450Y000765D02*
X014125Y000765D01*
X014125Y000764D02*
X011450Y000764D01*
X011450Y000763D02*
X014125Y000763D01*
X014125Y000762D02*
X011450Y000762D01*
X011450Y000761D02*
X014125Y000761D01*
X014125Y000760D02*
X011450Y000760D01*
X011450Y000759D02*
X014125Y000759D01*
X014125Y000758D02*
X011450Y000758D01*
X011450Y000757D02*
X014125Y000757D01*
X014125Y000756D02*
X011450Y000756D01*
X011450Y000755D02*
X014125Y000755D01*
X014125Y000754D02*
X011450Y000754D01*
X011450Y000753D02*
X014125Y000753D01*
X014125Y000752D02*
X011450Y000752D01*
X011450Y000751D02*
X014125Y000751D01*
X014125Y000750D02*
X011450Y000750D01*
X011450Y000749D02*
X014125Y000749D01*
X014125Y000748D02*
X011450Y000748D01*
X011450Y000747D02*
X014125Y000747D01*
X014125Y000746D02*
X011450Y000746D01*
X011450Y000745D02*
X014125Y000745D01*
X014125Y000744D02*
X011450Y000744D01*
X011450Y000743D02*
X014125Y000743D01*
X014125Y000742D02*
X011450Y000742D01*
X011450Y000741D02*
X014125Y000741D01*
X014125Y000740D02*
X011450Y000740D01*
X011450Y000739D02*
X014125Y000739D01*
X014125Y000738D02*
X011450Y000738D01*
X011450Y000737D02*
X014125Y000737D01*
X014125Y000736D02*
X011450Y000736D01*
X011450Y000735D02*
X014125Y000735D01*
X014125Y000734D02*
X011450Y000734D01*
X011450Y000733D02*
X014125Y000733D01*
X014125Y000732D02*
X011450Y000732D01*
X011450Y000731D02*
X014125Y000731D01*
X014125Y000730D02*
X011450Y000730D01*
X011450Y000729D02*
X014125Y000729D01*
X014125Y000728D02*
X011450Y000728D01*
X011450Y000727D02*
X014125Y000727D01*
X014125Y000726D02*
X011450Y000726D01*
X011450Y000725D02*
X014125Y000725D01*
X014125Y000724D02*
X011450Y000724D01*
X011450Y000723D02*
X014125Y000723D01*
X014125Y000722D02*
X011450Y000722D01*
X011450Y000721D02*
X014125Y000721D01*
X014125Y000720D02*
X011450Y000720D01*
X011450Y000719D02*
X014125Y000719D01*
X014125Y000718D02*
X011450Y000718D01*
X011450Y000717D02*
X014125Y000717D01*
X014125Y000716D02*
X011450Y000716D01*
X011450Y000715D02*
X014125Y000715D01*
X014125Y000714D02*
X011450Y000714D01*
X011450Y000713D02*
X014125Y000713D01*
X014125Y000712D02*
X011450Y000712D01*
X011450Y000711D02*
X014125Y000711D01*
X014125Y000710D02*
X011450Y000710D01*
X011450Y000709D02*
X014125Y000709D01*
X014125Y000708D02*
X011450Y000708D01*
X011450Y000707D02*
X014125Y000707D01*
X014125Y000706D02*
X011450Y000706D01*
X011450Y000705D02*
X014125Y000705D01*
X014125Y000704D02*
X011450Y000704D01*
X011450Y000703D02*
X014125Y000703D01*
X014125Y000702D02*
X011450Y000702D01*
X011450Y000701D02*
X014125Y000701D01*
X014125Y000700D02*
X011450Y000700D01*
X011450Y000699D02*
X014125Y000699D01*
X014125Y000698D02*
X011450Y000698D01*
X011450Y000697D02*
X014125Y000697D01*
X014125Y000696D02*
X011450Y000696D01*
X011450Y000695D02*
X014125Y000695D01*
X014125Y000694D02*
X011450Y000694D01*
X011450Y000693D02*
X014125Y000693D01*
X014125Y000692D02*
X011450Y000692D01*
X011450Y000691D02*
X014125Y000691D01*
X014125Y000690D02*
X011450Y000690D01*
X011450Y000689D02*
X014125Y000689D01*
X014125Y000688D02*
X011450Y000688D01*
X011450Y000687D02*
X014125Y000687D01*
X014125Y000686D02*
X011450Y000686D01*
X011450Y000685D02*
X014125Y000685D01*
X014125Y000684D02*
X011450Y000684D01*
X011450Y000683D02*
X014125Y000683D01*
X014125Y000682D02*
X011450Y000682D01*
X011450Y000681D02*
X014125Y000681D01*
X014125Y000680D02*
X011450Y000680D01*
X011450Y000679D02*
X014125Y000679D01*
X014125Y000678D02*
X011450Y000678D01*
X011450Y000677D02*
X014125Y000677D01*
X014125Y000676D02*
X011450Y000676D01*
X011450Y000675D02*
X014125Y000675D01*
X014125Y000674D02*
X011450Y000674D01*
X011450Y000673D02*
X014125Y000673D01*
X014125Y000672D02*
X011450Y000672D01*
X011450Y000671D02*
X014125Y000671D01*
X014125Y000670D02*
X011450Y000670D01*
X011450Y000669D02*
X014125Y000669D01*
X014125Y000668D02*
X011450Y000668D01*
X011450Y000667D02*
X014125Y000667D01*
X014125Y000666D02*
X011450Y000666D01*
X011450Y000665D02*
X014125Y000665D01*
X014125Y000664D02*
X011450Y000664D01*
X011450Y000663D02*
X014125Y000663D01*
X014125Y000662D02*
X011450Y000662D01*
X011450Y000661D02*
X014125Y000661D01*
X014125Y000660D02*
X011450Y000660D01*
X011450Y000659D02*
X014125Y000659D01*
X014125Y000658D02*
X011450Y000658D01*
X011450Y000657D02*
X014125Y000657D01*
X014125Y000656D02*
X011450Y000656D01*
X011450Y000655D02*
X014125Y000655D01*
X014125Y000654D02*
X011450Y000654D01*
X011450Y000653D02*
X014125Y000653D01*
X014125Y000652D02*
X011450Y000652D01*
X011450Y000651D02*
X014125Y000651D01*
X014125Y000650D02*
X011450Y000650D01*
X011450Y000649D02*
X014125Y000649D01*
X014125Y000648D02*
X011450Y000648D01*
X011450Y000647D02*
X014125Y000647D01*
X014125Y000646D02*
X011450Y000646D01*
X011450Y000645D02*
X014125Y000645D01*
X014125Y000644D02*
X011450Y000644D01*
X011450Y000643D02*
X014125Y000643D01*
X014125Y000642D02*
X011450Y000642D01*
X011450Y000641D02*
X014125Y000641D01*
X014125Y000640D02*
X011450Y000640D01*
X011450Y000639D02*
X014125Y000639D01*
X014125Y000638D02*
X011450Y000638D01*
X011450Y000637D02*
X014125Y000637D01*
X014125Y000636D02*
X011450Y000636D01*
X011450Y000635D02*
X014125Y000635D01*
X014125Y000634D02*
X011450Y000634D01*
X011450Y000633D02*
X014125Y000633D01*
X014125Y000632D02*
X011450Y000632D01*
X011450Y000631D02*
X014125Y000631D01*
X014125Y000630D02*
X011450Y000630D01*
X011450Y000629D02*
X014125Y000629D01*
X014125Y000628D02*
X011450Y000628D01*
X011450Y000627D02*
X014125Y000627D01*
X014125Y000626D02*
X011450Y000626D01*
X011450Y000625D02*
X014125Y000625D01*
X014125Y000624D02*
X011450Y000624D01*
X011450Y000623D02*
X014125Y000623D01*
X014125Y000622D02*
X011450Y000622D01*
X011450Y000621D02*
X014125Y000621D01*
X014125Y000620D02*
X011450Y000620D01*
X011450Y000619D02*
X014125Y000619D01*
X014125Y000618D02*
X011450Y000618D01*
X011450Y000617D02*
X014125Y000617D01*
X014125Y000616D02*
X011450Y000616D01*
X011450Y000615D02*
X014125Y000615D01*
X014125Y000614D02*
X011450Y000614D01*
X011450Y000613D02*
X014125Y000613D01*
X014125Y000612D02*
X011450Y000612D01*
X011450Y000611D02*
X014125Y000611D01*
X014125Y000610D02*
X011450Y000610D01*
X011450Y000609D02*
X014125Y000609D01*
X014125Y000608D02*
X011450Y000608D01*
X011450Y000607D02*
X014125Y000607D01*
X014125Y000606D02*
X011450Y000606D01*
X011450Y000605D02*
X014125Y000605D01*
X014125Y000604D02*
X011450Y000604D01*
X011450Y000603D02*
X014125Y000603D01*
X014125Y000602D02*
X011450Y000602D01*
X011450Y000601D02*
X014125Y000601D01*
D12*
X013809Y001302D03*
X013809Y003098D03*
X013809Y004552D03*
X013809Y006348D03*
X013809Y007802D03*
X013809Y009598D03*
D13*
X016525Y008700D03*
X016525Y005450D03*
X016525Y002200D03*
D14*
X011158Y001250D03*
X010331Y001624D03*
X010331Y000876D03*
X010331Y004126D03*
X011158Y004500D03*
X010331Y004874D03*
X010331Y007376D03*
X011158Y007750D03*
X010331Y008124D03*
D15*
X012190Y008425D03*
X012860Y008425D03*
X012860Y009175D03*
X012190Y009175D03*
X012190Y009925D03*
X012860Y009925D03*
X008535Y007300D03*
X007865Y007300D03*
X010640Y006750D03*
X011310Y006750D03*
X012190Y006675D03*
X012860Y006675D03*
X012860Y005925D03*
X012190Y005925D03*
X012190Y005175D03*
X012860Y005175D03*
X009785Y004725D03*
X009115Y004725D03*
X010640Y003500D03*
X011310Y003500D03*
X012190Y003425D03*
X012860Y003425D03*
X012860Y002675D03*
X012190Y002675D03*
X012190Y001925D03*
X012860Y001925D03*
X003385Y002350D03*
X002715Y002350D03*
D16*
X004902Y002415D03*
X005650Y002415D03*
X005650Y003085D03*
X004902Y003085D03*
X002300Y004925D03*
X001550Y004925D03*
X001550Y005595D03*
X002300Y005595D03*
X005295Y006265D03*
X006200Y006265D03*
X006200Y006935D03*
X005295Y006935D03*
X009775Y007090D03*
X009775Y007760D03*
X010050Y008615D03*
X010800Y008615D03*
X011550Y008615D03*
X011550Y009285D03*
X010800Y009285D03*
X010050Y009285D03*
X010050Y006035D03*
X010800Y006035D03*
X011550Y006035D03*
X011550Y005365D03*
X010800Y005365D03*
X010050Y005365D03*
X010050Y002785D03*
X010800Y002785D03*
X011550Y002785D03*
X011550Y002115D03*
X010800Y002115D03*
X010050Y002115D03*
X009450Y001585D03*
X009450Y000915D03*
D17*
X005719Y003816D02*
X005719Y004034D01*
X005719Y003816D02*
X005659Y003816D01*
X005659Y004034D01*
X005719Y004034D01*
X005719Y003874D02*
X005659Y003874D01*
X005659Y003932D02*
X005719Y003932D01*
X005719Y003990D02*
X005659Y003990D01*
X005522Y004034D02*
X005522Y003816D01*
X005462Y003816D01*
X005462Y004034D01*
X005522Y004034D01*
X005522Y003874D02*
X005462Y003874D01*
X005462Y003932D02*
X005522Y003932D01*
X005522Y003990D02*
X005462Y003990D01*
X005325Y004034D02*
X005325Y003816D01*
X005265Y003816D01*
X005265Y004034D01*
X005325Y004034D01*
X005325Y003874D02*
X005265Y003874D01*
X005265Y003932D02*
X005325Y003932D01*
X005325Y003990D02*
X005265Y003990D01*
X005128Y004034D02*
X005128Y003816D01*
X005068Y003816D01*
X005068Y004034D01*
X005128Y004034D01*
X005128Y003874D02*
X005068Y003874D01*
X005068Y003932D02*
X005128Y003932D01*
X005128Y003990D02*
X005068Y003990D01*
X004932Y004034D02*
X004932Y003816D01*
X004872Y003816D01*
X004872Y004034D01*
X004932Y004034D01*
X004932Y003874D02*
X004872Y003874D01*
X004872Y003932D02*
X004932Y003932D01*
X004932Y003990D02*
X004872Y003990D01*
X004735Y004034D02*
X004735Y003816D01*
X004675Y003816D01*
X004675Y004034D01*
X004735Y004034D01*
X004735Y003874D02*
X004675Y003874D01*
X004675Y003932D02*
X004735Y003932D01*
X004735Y003990D02*
X004675Y003990D01*
X004538Y004034D02*
X004538Y003816D01*
X004478Y003816D01*
X004478Y004034D01*
X004538Y004034D01*
X004538Y003874D02*
X004478Y003874D01*
X004478Y003932D02*
X004538Y003932D01*
X004538Y003990D02*
X004478Y003990D01*
X004341Y004034D02*
X004341Y003816D01*
X004281Y003816D01*
X004281Y004034D01*
X004341Y004034D01*
X004341Y003874D02*
X004281Y003874D01*
X004281Y003932D02*
X004341Y003932D01*
X004341Y003990D02*
X004281Y003990D01*
X004184Y004131D02*
X004184Y004191D01*
X004184Y004131D02*
X003966Y004131D01*
X003966Y004191D01*
X004184Y004191D01*
X004184Y004189D02*
X003966Y004189D01*
X004184Y004328D02*
X004184Y004388D01*
X004184Y004328D02*
X003966Y004328D01*
X003966Y004388D01*
X004184Y004388D01*
X004184Y004386D02*
X003966Y004386D01*
X004184Y004525D02*
X004184Y004585D01*
X004184Y004525D02*
X003966Y004525D01*
X003966Y004585D01*
X004184Y004585D01*
X004184Y004583D02*
X003966Y004583D01*
X004184Y004722D02*
X004184Y004782D01*
X004184Y004722D02*
X003966Y004722D01*
X003966Y004782D01*
X004184Y004782D01*
X004184Y004780D02*
X003966Y004780D01*
X004184Y004918D02*
X004184Y004978D01*
X004184Y004918D02*
X003966Y004918D01*
X003966Y004978D01*
X004184Y004978D01*
X004184Y004976D02*
X003966Y004976D01*
X004184Y005115D02*
X004184Y005175D01*
X004184Y005115D02*
X003966Y005115D01*
X003966Y005175D01*
X004184Y005175D01*
X004184Y005173D02*
X003966Y005173D01*
X004184Y005312D02*
X004184Y005372D01*
X004184Y005312D02*
X003966Y005312D01*
X003966Y005372D01*
X004184Y005372D01*
X004184Y005370D02*
X003966Y005370D01*
X004184Y005509D02*
X004184Y005569D01*
X004184Y005509D02*
X003966Y005509D01*
X003966Y005569D01*
X004184Y005569D01*
X004184Y005567D02*
X003966Y005567D01*
X004341Y005666D02*
X004341Y005884D01*
X004341Y005666D02*
X004281Y005666D01*
X004281Y005884D01*
X004341Y005884D01*
X004341Y005724D02*
X004281Y005724D01*
X004281Y005782D02*
X004341Y005782D01*
X004341Y005840D02*
X004281Y005840D01*
X004538Y005884D02*
X004538Y005666D01*
X004478Y005666D01*
X004478Y005884D01*
X004538Y005884D01*
X004538Y005724D02*
X004478Y005724D01*
X004478Y005782D02*
X004538Y005782D01*
X004538Y005840D02*
X004478Y005840D01*
X004735Y005884D02*
X004735Y005666D01*
X004675Y005666D01*
X004675Y005884D01*
X004735Y005884D01*
X004735Y005724D02*
X004675Y005724D01*
X004675Y005782D02*
X004735Y005782D01*
X004735Y005840D02*
X004675Y005840D01*
X004932Y005884D02*
X004932Y005666D01*
X004872Y005666D01*
X004872Y005884D01*
X004932Y005884D01*
X004932Y005724D02*
X004872Y005724D01*
X004872Y005782D02*
X004932Y005782D01*
X004932Y005840D02*
X004872Y005840D01*
X005128Y005884D02*
X005128Y005666D01*
X005068Y005666D01*
X005068Y005884D01*
X005128Y005884D01*
X005128Y005724D02*
X005068Y005724D01*
X005068Y005782D02*
X005128Y005782D01*
X005128Y005840D02*
X005068Y005840D01*
X005325Y005884D02*
X005325Y005666D01*
X005265Y005666D01*
X005265Y005884D01*
X005325Y005884D01*
X005325Y005724D02*
X005265Y005724D01*
X005265Y005782D02*
X005325Y005782D01*
X005325Y005840D02*
X005265Y005840D01*
X005522Y005884D02*
X005522Y005666D01*
X005462Y005666D01*
X005462Y005884D01*
X005522Y005884D01*
X005522Y005724D02*
X005462Y005724D01*
X005462Y005782D02*
X005522Y005782D01*
X005522Y005840D02*
X005462Y005840D01*
X005719Y005884D02*
X005719Y005666D01*
X005659Y005666D01*
X005659Y005884D01*
X005719Y005884D01*
X005719Y005724D02*
X005659Y005724D01*
X005659Y005782D02*
X005719Y005782D01*
X005719Y005840D02*
X005659Y005840D01*
X006034Y005569D02*
X006034Y005509D01*
X005816Y005509D01*
X005816Y005569D01*
X006034Y005569D01*
X006034Y005567D02*
X005816Y005567D01*
X006034Y005372D02*
X006034Y005312D01*
X005816Y005312D01*
X005816Y005372D01*
X006034Y005372D01*
X006034Y005370D02*
X005816Y005370D01*
X006034Y005175D02*
X006034Y005115D01*
X005816Y005115D01*
X005816Y005175D01*
X006034Y005175D01*
X006034Y005173D02*
X005816Y005173D01*
X006034Y004978D02*
X006034Y004918D01*
X005816Y004918D01*
X005816Y004978D01*
X006034Y004978D01*
X006034Y004976D02*
X005816Y004976D01*
X006034Y004782D02*
X006034Y004722D01*
X005816Y004722D01*
X005816Y004782D01*
X006034Y004782D01*
X006034Y004780D02*
X005816Y004780D01*
X006034Y004585D02*
X006034Y004525D01*
X005816Y004525D01*
X005816Y004585D01*
X006034Y004585D01*
X006034Y004583D02*
X005816Y004583D01*
X006034Y004388D02*
X006034Y004328D01*
X005816Y004328D01*
X005816Y004388D01*
X006034Y004388D01*
X006034Y004386D02*
X005816Y004386D01*
X006034Y004191D02*
X006034Y004131D01*
X005816Y004131D01*
X005816Y004191D01*
X006034Y004191D01*
X006034Y004189D02*
X005816Y004189D01*
D18*
X005000Y004850D03*
D19*
X003878Y001753D03*
X002422Y001753D03*
X002422Y000847D03*
X003878Y000847D03*
D20*
X005570Y008190D03*
X005570Y009100D03*
X005570Y010010D03*
D21*
X003130Y009100D03*
D22*
X001900Y008450D03*
X001900Y009750D03*
D23*
X004838Y001624D03*
X004838Y001250D03*
X004838Y000876D03*
X005862Y000876D03*
X005862Y001624D03*
M02*
