%
M48
M72
T01C0.0130
T02C0.0354
T03C0.0394
T04C0.0400
T05C0.0512
T06C0.1181
T07C0.1575
%
T01
X13550Y2150
X13575Y5425
X13575Y8675
X5350Y750
X5250Y2000
X4850Y7000
X2600Y2800
X2250Y6800
X4800Y8250
X3800Y3800
X3800Y6500
X3650Y7350
X5000Y4850
X3250Y2850
X3150Y1300
X2475Y4050
X9900Y4275
X9900Y1025
X7400Y7425
X7400Y6325
X10175Y6700
X8650Y4425
X13809Y1850
X3800Y6100
X9000Y3825
X9575Y2350
X9575Y5525
X9575Y8225
X13809Y5125
X4150Y6300
X9050Y6000
X13809Y8375
X4600Y6400
X9050Y7125
X4250Y3300
X7775Y5850
X3850Y3400
X7400Y5900
X5750Y6950
X5350Y1624
X1900Y6150
X4850Y9100
X6100Y3250
X4450Y2700
X2750Y5450
X2750Y5050
X4350Y1300
X3878Y2250
X4150Y7300
X4400Y7600
X4750Y7800
X2222Y2250
X6825Y4627
X3500Y4050
T02
X1900Y9950
T03
X8500Y9950
X8500Y950
X6800Y8250
X8500Y8250
X6800Y9950
X6800Y2650
X6800Y950
X8500Y2650
T04
X650Y950
X650Y1950
X650Y2950
X650Y3950
X650Y4950
X650Y5950
X650Y6950
X650Y7950
X650Y8950
X650Y9950
T05
X11850Y1000
X11850Y4125
X11850Y7375
T06
X18400Y2200
X18400Y5450
X18400Y8700
T07
X7650Y9100
X7650Y1800
M30
