%
M48
M72
T01C0.0130
T02C0.0354
T03C0.0394
T04C0.0400
T05C0.0512
T06C0.1181
T07C0.1575
%
T01
X13540Y1905
X13565Y5180
X13565Y8430
X5340Y505
X5240Y1755
X4840Y6755
X2240Y6555
X4790Y8005
X3790Y6255
X3640Y7105
X4990Y4605
X9890Y4030
X9890Y780
X7390Y7180
X7390Y6080
X10165Y6455
X8640Y4180
X1740Y3430
X1365Y1430
X2090Y2130
X4115Y1980
X2540Y3080
X13799Y1605
X3790Y5855
X8990Y3580
X9565Y2105
X9565Y5280
X9565Y7980
X13799Y4880
X4140Y6055
X9040Y5755
X13799Y8130
X4590Y6155
X9040Y6880
X4240Y3055
X7765Y5605
X3865Y3430
X7390Y5655
X5740Y6705
X5340Y1379
X1890Y5905
X4840Y8855
X6090Y3005
X4440Y2455
X2740Y5205
X2740Y4805
X4340Y1055
X3340Y1430
X4140Y7055
X4390Y7355
X4740Y7555
X2590Y2605
X1906Y1439
X6815Y4382
X3490Y3805
X1615Y3805
T02
X1890Y9705
T03
X8490Y9705
X8490Y705
X6790Y8005
X8490Y8005
X6790Y9705
X6790Y2405
X6790Y705
X8490Y2405
T04
X640Y705
X640Y1705
X640Y2705
X640Y3705
X640Y4705
X640Y5705
X640Y6705
X640Y7705
X640Y8705
X640Y9705
T05
X11840Y755
X11840Y3880
X11840Y7130
T06
X18265Y1955
X18265Y5205
X18265Y8455
T07
X7640Y8855
X7640Y1555
M30
