G75*
G70*
%OFA0B0*%
%FSLAX24Y24*%
%IPPOS*%
%LPD*%
%AMOC8*
5,1,8,0,0,1.08239X$1,22.5*
%
%ADD10C,0.0000*%
%ADD11C,0.0001*%
%ADD12C,0.1221*%
%ADD13R,0.1370X0.1940*%
%ADD14R,0.1221X0.0670*%
%ADD15R,0.2290X0.1940*%
%ADD16R,0.0394X0.0355*%
%ADD17R,0.0473X0.0434*%
%ADD18R,0.0434X0.0473*%
%ADD19R,0.2402X0.2402*%
%ADD20OC8,0.0700*%
%ADD21C,0.0700*%
%ADD22C,0.0079*%
%ADD23R,0.1182X0.1182*%
%ADD24R,0.0788X0.0473*%
%ADD25R,0.0920X0.0520*%
%ADD26R,0.0906X0.1457*%
%ADD27R,0.0670X0.0788*%
%ADD28R,0.0512X0.0257*%
%ADD29R,0.0700X0.0700*%
%ADD30C,0.0740*%
%ADD31R,0.0290X0.0540*%
%ADD32C,0.0631*%
%ADD33OC8,0.0808*%
D10*
X000140Y000450D02*
X000140Y010450D01*
X019140Y010450D01*
X019140Y000450D01*
X000140Y000450D01*
X011440Y000600D02*
X014115Y000600D01*
X014115Y001625D01*
X012840Y001625D01*
X012640Y001425D01*
X011540Y001425D01*
X011440Y001325D01*
X011440Y000600D01*
X013240Y003525D02*
X014115Y003525D01*
X014115Y004875D01*
X012790Y004875D01*
X012590Y004675D01*
X011540Y004675D01*
X011440Y004575D01*
X011440Y003800D01*
X011565Y003800D01*
X011640Y003725D01*
X013140Y003725D01*
X013240Y003525D01*
X017674Y002200D02*
X017676Y002248D01*
X017682Y002296D01*
X017692Y002343D01*
X017705Y002389D01*
X017723Y002434D01*
X017743Y002478D01*
X017768Y002520D01*
X017796Y002559D01*
X017826Y002596D01*
X017860Y002630D01*
X017897Y002662D01*
X017935Y002691D01*
X017976Y002716D01*
X018019Y002738D01*
X018064Y002756D01*
X018110Y002770D01*
X018157Y002781D01*
X018205Y002788D01*
X018253Y002791D01*
X018301Y002790D01*
X018349Y002785D01*
X018397Y002776D01*
X018443Y002764D01*
X018488Y002747D01*
X018532Y002727D01*
X018574Y002704D01*
X018614Y002677D01*
X018652Y002647D01*
X018687Y002614D01*
X018719Y002578D01*
X018749Y002540D01*
X018775Y002499D01*
X018797Y002456D01*
X018817Y002412D01*
X018832Y002367D01*
X018844Y002320D01*
X018852Y002272D01*
X018856Y002224D01*
X018856Y002176D01*
X018852Y002128D01*
X018844Y002080D01*
X018832Y002033D01*
X018817Y001988D01*
X018797Y001944D01*
X018775Y001901D01*
X018749Y001860D01*
X018719Y001822D01*
X018687Y001786D01*
X018652Y001753D01*
X018614Y001723D01*
X018574Y001696D01*
X018532Y001673D01*
X018488Y001653D01*
X018443Y001636D01*
X018397Y001624D01*
X018349Y001615D01*
X018301Y001610D01*
X018253Y001609D01*
X018205Y001612D01*
X018157Y001619D01*
X018110Y001630D01*
X018064Y001644D01*
X018019Y001662D01*
X017976Y001684D01*
X017935Y001709D01*
X017897Y001738D01*
X017860Y001770D01*
X017826Y001804D01*
X017796Y001841D01*
X017768Y001880D01*
X017743Y001922D01*
X017723Y001966D01*
X017705Y002011D01*
X017692Y002057D01*
X017682Y002104D01*
X017676Y002152D01*
X017674Y002200D01*
X017674Y005450D02*
X017676Y005498D01*
X017682Y005546D01*
X017692Y005593D01*
X017705Y005639D01*
X017723Y005684D01*
X017743Y005728D01*
X017768Y005770D01*
X017796Y005809D01*
X017826Y005846D01*
X017860Y005880D01*
X017897Y005912D01*
X017935Y005941D01*
X017976Y005966D01*
X018019Y005988D01*
X018064Y006006D01*
X018110Y006020D01*
X018157Y006031D01*
X018205Y006038D01*
X018253Y006041D01*
X018301Y006040D01*
X018349Y006035D01*
X018397Y006026D01*
X018443Y006014D01*
X018488Y005997D01*
X018532Y005977D01*
X018574Y005954D01*
X018614Y005927D01*
X018652Y005897D01*
X018687Y005864D01*
X018719Y005828D01*
X018749Y005790D01*
X018775Y005749D01*
X018797Y005706D01*
X018817Y005662D01*
X018832Y005617D01*
X018844Y005570D01*
X018852Y005522D01*
X018856Y005474D01*
X018856Y005426D01*
X018852Y005378D01*
X018844Y005330D01*
X018832Y005283D01*
X018817Y005238D01*
X018797Y005194D01*
X018775Y005151D01*
X018749Y005110D01*
X018719Y005072D01*
X018687Y005036D01*
X018652Y005003D01*
X018614Y004973D01*
X018574Y004946D01*
X018532Y004923D01*
X018488Y004903D01*
X018443Y004886D01*
X018397Y004874D01*
X018349Y004865D01*
X018301Y004860D01*
X018253Y004859D01*
X018205Y004862D01*
X018157Y004869D01*
X018110Y004880D01*
X018064Y004894D01*
X018019Y004912D01*
X017976Y004934D01*
X017935Y004959D01*
X017897Y004988D01*
X017860Y005020D01*
X017826Y005054D01*
X017796Y005091D01*
X017768Y005130D01*
X017743Y005172D01*
X017723Y005216D01*
X017705Y005261D01*
X017692Y005307D01*
X017682Y005354D01*
X017676Y005402D01*
X017674Y005450D01*
X014115Y006775D02*
X013240Y006775D01*
X013140Y006975D01*
X011665Y006975D01*
X011640Y006975D01*
X011565Y007050D01*
X011440Y007050D01*
X011440Y007825D01*
X011540Y007925D01*
X012565Y007925D01*
X012765Y008125D01*
X014115Y008125D01*
X014115Y006775D01*
X017674Y008700D02*
X017676Y008748D01*
X017682Y008796D01*
X017692Y008843D01*
X017705Y008889D01*
X017723Y008934D01*
X017743Y008978D01*
X017768Y009020D01*
X017796Y009059D01*
X017826Y009096D01*
X017860Y009130D01*
X017897Y009162D01*
X017935Y009191D01*
X017976Y009216D01*
X018019Y009238D01*
X018064Y009256D01*
X018110Y009270D01*
X018157Y009281D01*
X018205Y009288D01*
X018253Y009291D01*
X018301Y009290D01*
X018349Y009285D01*
X018397Y009276D01*
X018443Y009264D01*
X018488Y009247D01*
X018532Y009227D01*
X018574Y009204D01*
X018614Y009177D01*
X018652Y009147D01*
X018687Y009114D01*
X018719Y009078D01*
X018749Y009040D01*
X018775Y008999D01*
X018797Y008956D01*
X018817Y008912D01*
X018832Y008867D01*
X018844Y008820D01*
X018852Y008772D01*
X018856Y008724D01*
X018856Y008676D01*
X018852Y008628D01*
X018844Y008580D01*
X018832Y008533D01*
X018817Y008488D01*
X018797Y008444D01*
X018775Y008401D01*
X018749Y008360D01*
X018719Y008322D01*
X018687Y008286D01*
X018652Y008253D01*
X018614Y008223D01*
X018574Y008196D01*
X018532Y008173D01*
X018488Y008153D01*
X018443Y008136D01*
X018397Y008124D01*
X018349Y008115D01*
X018301Y008110D01*
X018253Y008109D01*
X018205Y008112D01*
X018157Y008119D01*
X018110Y008130D01*
X018064Y008144D01*
X018019Y008162D01*
X017976Y008184D01*
X017935Y008209D01*
X017897Y008238D01*
X017860Y008270D01*
X017826Y008304D01*
X017796Y008341D01*
X017768Y008380D01*
X017743Y008422D01*
X017723Y008466D01*
X017705Y008511D01*
X017692Y008557D01*
X017682Y008604D01*
X017676Y008652D01*
X017674Y008700D01*
D11*
X014115Y008124D02*
X012764Y008124D01*
X012763Y008123D02*
X014115Y008123D01*
X014115Y008122D02*
X012762Y008122D01*
X012761Y008121D02*
X014115Y008121D01*
X014115Y008120D02*
X012760Y008120D01*
X012759Y008119D02*
X014115Y008119D01*
X014115Y008118D02*
X012758Y008118D01*
X012757Y008117D02*
X014115Y008117D01*
X014115Y008116D02*
X012756Y008116D01*
X012755Y008115D02*
X014115Y008115D01*
X014115Y008114D02*
X012754Y008114D01*
X012753Y008113D02*
X014115Y008113D01*
X014115Y008112D02*
X012752Y008112D01*
X012751Y008111D02*
X014115Y008111D01*
X014115Y008110D02*
X012750Y008110D01*
X012749Y008109D02*
X014115Y008109D01*
X014115Y008108D02*
X012748Y008108D01*
X012747Y008107D02*
X014115Y008107D01*
X014115Y008106D02*
X012746Y008106D01*
X012745Y008105D02*
X014115Y008105D01*
X014115Y008104D02*
X012744Y008104D01*
X012743Y008103D02*
X014115Y008103D01*
X014115Y008102D02*
X012742Y008102D01*
X012741Y008101D02*
X014115Y008101D01*
X014115Y008100D02*
X012740Y008100D01*
X012739Y008099D02*
X014115Y008099D01*
X014115Y008098D02*
X012738Y008098D01*
X012737Y008097D02*
X014115Y008097D01*
X014115Y008096D02*
X012736Y008096D01*
X012735Y008095D02*
X014115Y008095D01*
X014115Y008094D02*
X012734Y008094D01*
X012733Y008093D02*
X014115Y008093D01*
X014115Y008092D02*
X012732Y008092D01*
X012731Y008091D02*
X014115Y008091D01*
X014115Y008090D02*
X012730Y008090D01*
X012729Y008089D02*
X014115Y008089D01*
X014115Y008088D02*
X012728Y008088D01*
X012727Y008087D02*
X014115Y008087D01*
X014115Y008086D02*
X012726Y008086D01*
X012725Y008085D02*
X014115Y008085D01*
X014115Y008084D02*
X012724Y008084D01*
X012723Y008083D02*
X014115Y008083D01*
X014115Y008082D02*
X012722Y008082D01*
X012721Y008081D02*
X014115Y008081D01*
X014115Y008080D02*
X012720Y008080D01*
X012719Y008079D02*
X014115Y008079D01*
X014115Y008078D02*
X012718Y008078D01*
X012717Y008077D02*
X014115Y008077D01*
X014115Y008076D02*
X012716Y008076D01*
X012715Y008075D02*
X014115Y008075D01*
X014115Y008074D02*
X012714Y008074D01*
X012713Y008073D02*
X014115Y008073D01*
X014115Y008072D02*
X012712Y008072D01*
X012711Y008071D02*
X014115Y008071D01*
X014115Y008070D02*
X012710Y008070D01*
X012709Y008069D02*
X014115Y008069D01*
X014115Y008068D02*
X012708Y008068D01*
X012707Y008067D02*
X014115Y008067D01*
X014115Y008066D02*
X012706Y008066D01*
X012705Y008065D02*
X014115Y008065D01*
X014115Y008064D02*
X012704Y008064D01*
X012703Y008063D02*
X014115Y008063D01*
X012703Y008063D01*
X012702Y008062D02*
X014115Y008062D01*
X014115Y008061D02*
X012701Y008061D01*
X012700Y008060D02*
X014115Y008060D01*
X014115Y008059D02*
X012699Y008059D01*
X012698Y008058D02*
X014115Y008058D01*
X014115Y008057D02*
X012697Y008057D01*
X012696Y008056D02*
X014115Y008056D01*
X014115Y008055D02*
X012695Y008055D01*
X012694Y008054D02*
X014115Y008054D01*
X014115Y008053D02*
X012693Y008053D01*
X012692Y008052D02*
X014115Y008052D01*
X014115Y008051D02*
X012691Y008051D01*
X012690Y008050D02*
X014115Y008050D01*
X014115Y008049D02*
X012689Y008049D01*
X012688Y008048D02*
X014115Y008048D01*
X014115Y008047D02*
X012687Y008047D01*
X012686Y008046D02*
X014115Y008046D01*
X014115Y008045D02*
X012685Y008045D01*
X012684Y008044D02*
X014115Y008044D01*
X014115Y008043D02*
X012683Y008043D01*
X012682Y008042D02*
X014115Y008042D01*
X014115Y008041D02*
X012681Y008041D01*
X012680Y008040D02*
X014115Y008040D01*
X014115Y008039D02*
X012679Y008039D01*
X012678Y008038D02*
X014115Y008038D01*
X014115Y008037D02*
X012677Y008037D01*
X012676Y008036D02*
X014115Y008036D01*
X014115Y008035D02*
X012675Y008035D01*
X012674Y008034D02*
X014115Y008034D01*
X014115Y008033D02*
X012673Y008033D01*
X012672Y008032D02*
X014115Y008032D01*
X014115Y008031D02*
X012671Y008031D01*
X012670Y008030D02*
X014115Y008030D01*
X014115Y008029D02*
X012669Y008029D01*
X012668Y008028D02*
X014115Y008028D01*
X014115Y008027D02*
X012667Y008027D01*
X012666Y008026D02*
X014115Y008026D01*
X014115Y008025D02*
X012665Y008025D01*
X012664Y008024D02*
X014115Y008024D01*
X014115Y008023D02*
X012663Y008023D01*
X012662Y008022D02*
X014115Y008022D01*
X014115Y008021D02*
X012661Y008021D01*
X012660Y008020D02*
X014115Y008020D01*
X014115Y008019D02*
X012659Y008019D01*
X012658Y008018D02*
X014115Y008018D01*
X014115Y008017D02*
X012657Y008017D01*
X012656Y008016D02*
X014115Y008016D01*
X014115Y008015D02*
X012655Y008015D01*
X012654Y008014D02*
X014115Y008014D01*
X014115Y008013D02*
X012653Y008013D01*
X012652Y008012D02*
X014115Y008012D01*
X014115Y008011D02*
X012651Y008011D01*
X012650Y008010D02*
X014115Y008010D01*
X014115Y008009D02*
X012649Y008009D01*
X012648Y008008D02*
X014115Y008008D01*
X014115Y008007D02*
X012647Y008007D01*
X012646Y008006D02*
X014115Y008006D01*
X014115Y008005D02*
X012645Y008005D01*
X012644Y008004D02*
X014115Y008004D01*
X014115Y008003D02*
X012643Y008003D01*
X012642Y008002D02*
X014115Y008002D01*
X014115Y008001D02*
X012641Y008001D01*
X012640Y008000D02*
X014115Y008000D01*
X014115Y007999D02*
X012639Y007999D01*
X012638Y007998D02*
X014115Y007998D01*
X014115Y007997D02*
X012637Y007997D01*
X012636Y007996D02*
X014115Y007996D01*
X014115Y007995D02*
X012635Y007995D01*
X012634Y007994D02*
X014115Y007994D01*
X014115Y007993D02*
X012633Y007993D01*
X012632Y007992D02*
X014115Y007992D01*
X014115Y007991D02*
X012631Y007991D01*
X012630Y007990D02*
X014115Y007990D01*
X014115Y007989D02*
X012629Y007989D01*
X012628Y007988D02*
X014115Y007988D01*
X014115Y007987D02*
X012627Y007987D01*
X012626Y007986D02*
X014115Y007986D01*
X014115Y007985D02*
X012625Y007985D01*
X012624Y007984D02*
X014115Y007984D01*
X014115Y007983D02*
X012623Y007983D01*
X012622Y007982D02*
X014115Y007982D01*
X014115Y007981D02*
X012621Y007981D01*
X012620Y007980D02*
X014115Y007980D01*
X014115Y007979D02*
X012619Y007979D01*
X012618Y007978D02*
X014115Y007978D01*
X014115Y007977D02*
X012617Y007977D01*
X012616Y007976D02*
X014115Y007976D01*
X014115Y007975D02*
X012615Y007975D01*
X012614Y007974D02*
X014115Y007974D01*
X014115Y007973D02*
X012613Y007973D01*
X012612Y007972D02*
X014115Y007972D01*
X014115Y007971D02*
X012611Y007971D01*
X012610Y007970D02*
X014115Y007970D01*
X014115Y007969D02*
X012609Y007969D01*
X012608Y007968D02*
X014115Y007968D01*
X014115Y007967D02*
X012607Y007967D01*
X012606Y007966D02*
X014115Y007966D01*
X014115Y007965D02*
X012605Y007965D01*
X012604Y007964D02*
X014115Y007964D01*
X014115Y007963D02*
X012603Y007963D01*
X012602Y007962D02*
X014115Y007962D01*
X014115Y007961D02*
X012601Y007961D01*
X012600Y007960D02*
X014115Y007960D01*
X014115Y007959D02*
X012599Y007959D01*
X012598Y007958D02*
X014115Y007958D01*
X014115Y007957D02*
X012597Y007957D01*
X012596Y007956D02*
X014115Y007956D01*
X014115Y007955D02*
X012595Y007955D01*
X012594Y007954D02*
X014115Y007954D01*
X014115Y007953D02*
X012593Y007953D01*
X012592Y007952D02*
X014115Y007952D01*
X014115Y007951D02*
X012591Y007951D01*
X012590Y007950D02*
X014115Y007950D01*
X014115Y007949D02*
X012589Y007949D01*
X012588Y007948D02*
X014115Y007948D01*
X014115Y007947D02*
X012587Y007947D01*
X012586Y007946D02*
X014115Y007946D01*
X014115Y007945D02*
X012585Y007945D01*
X012584Y007944D02*
X014115Y007944D01*
X014115Y007943D02*
X012583Y007943D01*
X012582Y007942D02*
X014115Y007942D01*
X014115Y007941D02*
X012581Y007941D01*
X012580Y007940D02*
X014115Y007940D01*
X014115Y007939D02*
X012579Y007939D01*
X012578Y007938D02*
X014115Y007938D01*
X014115Y007937D02*
X012577Y007937D01*
X012576Y007936D02*
X014115Y007936D01*
X014115Y007935D02*
X012575Y007935D01*
X012574Y007934D02*
X014115Y007934D01*
X014115Y007933D02*
X012573Y007933D01*
X012572Y007932D02*
X014115Y007932D01*
X014115Y007931D02*
X012571Y007931D01*
X012570Y007930D02*
X014115Y007930D01*
X014115Y007929D02*
X012569Y007929D01*
X012568Y007928D02*
X014115Y007928D01*
X014115Y007927D02*
X012567Y007927D01*
X012566Y007926D02*
X014115Y007926D01*
X014115Y007925D02*
X011540Y007925D01*
X011539Y007924D02*
X014115Y007924D01*
X014115Y007923D02*
X011538Y007923D01*
X011537Y007922D02*
X014115Y007922D01*
X014115Y007921D02*
X011536Y007921D01*
X011535Y007920D02*
X014115Y007920D01*
X014115Y007919D02*
X011534Y007919D01*
X011533Y007918D02*
X014115Y007918D01*
X014115Y007917D02*
X011532Y007917D01*
X011531Y007916D02*
X014115Y007916D01*
X014115Y007915D02*
X011530Y007915D01*
X011529Y007914D02*
X014115Y007914D01*
X014115Y007913D02*
X011528Y007913D01*
X011527Y007912D02*
X014115Y007912D01*
X014115Y007911D02*
X011526Y007911D01*
X011525Y007910D02*
X014115Y007910D01*
X014115Y007909D02*
X011524Y007909D01*
X011523Y007908D02*
X014115Y007908D01*
X014115Y007907D02*
X011522Y007907D01*
X011521Y007906D02*
X014115Y007906D01*
X014115Y007905D02*
X011520Y007905D01*
X011519Y007904D02*
X014115Y007904D01*
X014115Y007903D02*
X011518Y007903D01*
X011517Y007902D02*
X014115Y007902D01*
X014115Y007901D02*
X011516Y007901D01*
X011515Y007900D02*
X014115Y007900D01*
X014115Y007899D02*
X011514Y007899D01*
X011513Y007898D02*
X014115Y007898D01*
X014115Y007897D02*
X011512Y007897D01*
X011511Y007896D02*
X014115Y007896D01*
X014115Y007895D02*
X011510Y007895D01*
X011509Y007894D02*
X014115Y007894D01*
X014115Y007893D02*
X011508Y007893D01*
X011507Y007892D02*
X014115Y007892D01*
X014115Y007891D02*
X011506Y007891D01*
X011505Y007890D02*
X014115Y007890D01*
X014115Y007889D02*
X011504Y007889D01*
X011503Y007888D02*
X014115Y007888D01*
X014115Y007887D02*
X011502Y007887D01*
X011501Y007886D02*
X014115Y007886D01*
X014115Y007885D02*
X011500Y007885D01*
X011499Y007884D02*
X014115Y007884D01*
X014115Y007883D02*
X011498Y007883D01*
X011497Y007882D02*
X014115Y007882D01*
X014115Y007881D02*
X011496Y007881D01*
X011495Y007880D02*
X014115Y007880D01*
X014115Y007879D02*
X011494Y007879D01*
X011493Y007878D02*
X014115Y007878D01*
X014115Y007877D02*
X011492Y007877D01*
X011491Y007876D02*
X014115Y007876D01*
X014115Y007875D02*
X011490Y007875D01*
X011489Y007874D02*
X014115Y007874D01*
X014115Y007873D02*
X011488Y007873D01*
X011487Y007872D02*
X014115Y007872D01*
X014115Y007871D02*
X011486Y007871D01*
X011485Y007870D02*
X014115Y007870D01*
X014115Y007869D02*
X011484Y007869D01*
X011483Y007868D02*
X014115Y007868D01*
X014115Y007867D02*
X011482Y007867D01*
X011481Y007866D02*
X014115Y007866D01*
X014115Y007865D02*
X011480Y007865D01*
X011479Y007864D02*
X014115Y007864D01*
X014115Y007863D02*
X011478Y007863D01*
X011477Y007862D02*
X014115Y007862D01*
X014115Y007861D02*
X011476Y007861D01*
X011475Y007860D02*
X014115Y007860D01*
X014115Y007859D02*
X011474Y007859D01*
X011473Y007858D02*
X014115Y007858D01*
X014115Y007857D02*
X011472Y007857D01*
X011471Y007856D02*
X014115Y007856D01*
X014115Y007855D02*
X011470Y007855D01*
X011469Y007854D02*
X014115Y007854D01*
X014115Y007853D02*
X011468Y007853D01*
X011467Y007852D02*
X014115Y007852D01*
X014115Y007851D02*
X011466Y007851D01*
X011465Y007850D02*
X014115Y007850D01*
X014115Y007849D02*
X011464Y007849D01*
X011463Y007848D02*
X014115Y007848D01*
X014115Y007847D02*
X011462Y007847D01*
X011461Y007846D02*
X014115Y007846D01*
X014115Y007845D02*
X011460Y007845D01*
X011459Y007844D02*
X014115Y007844D01*
X014115Y007843D02*
X011458Y007843D01*
X011457Y007842D02*
X014115Y007842D01*
X014115Y007841D02*
X011456Y007841D01*
X011455Y007840D02*
X014115Y007840D01*
X014115Y007839D02*
X011454Y007839D01*
X011453Y007838D02*
X014115Y007838D01*
X014115Y007837D02*
X011452Y007837D01*
X011451Y007836D02*
X014115Y007836D01*
X014115Y007835D02*
X011450Y007835D01*
X011449Y007834D02*
X014115Y007834D01*
X014115Y007833D02*
X011448Y007833D01*
X011447Y007832D02*
X014115Y007832D01*
X014115Y007831D02*
X011446Y007831D01*
X011445Y007830D02*
X014115Y007830D01*
X014115Y007829D02*
X011444Y007829D01*
X011443Y007828D02*
X014115Y007828D01*
X014115Y007827D02*
X011442Y007827D01*
X011441Y007826D02*
X014115Y007826D01*
X014115Y007825D02*
X011440Y007825D01*
X011440Y007824D02*
X014115Y007824D01*
X014115Y007823D02*
X011440Y007823D01*
X011440Y007822D02*
X014115Y007822D01*
X014115Y007821D02*
X011440Y007821D01*
X011440Y007820D02*
X014115Y007820D01*
X014115Y007819D02*
X011440Y007819D01*
X011440Y007818D02*
X014115Y007818D01*
X014115Y007817D02*
X011440Y007817D01*
X011440Y007816D02*
X014115Y007816D01*
X014115Y007815D02*
X011440Y007815D01*
X011440Y007814D02*
X014115Y007814D01*
X014115Y007813D02*
X011440Y007813D01*
X011440Y007812D02*
X014115Y007812D01*
X014115Y007811D02*
X011440Y007811D01*
X011440Y007810D02*
X014115Y007810D01*
X014115Y007809D02*
X011440Y007809D01*
X011440Y007808D02*
X014115Y007808D01*
X014115Y007807D02*
X011440Y007807D01*
X011440Y007806D02*
X014115Y007806D01*
X014115Y007805D02*
X011440Y007805D01*
X011440Y007804D02*
X014115Y007804D01*
X014115Y007803D02*
X011440Y007803D01*
X011440Y007802D02*
X014115Y007802D01*
X014115Y007801D02*
X011440Y007801D01*
X011440Y007800D02*
X014115Y007800D01*
X014115Y007799D02*
X011440Y007799D01*
X011440Y007798D02*
X014115Y007798D01*
X014115Y007797D02*
X011440Y007797D01*
X011440Y007796D02*
X014115Y007796D01*
X014115Y007795D02*
X011440Y007795D01*
X011440Y007794D02*
X014115Y007794D01*
X014115Y007793D02*
X011440Y007793D01*
X011440Y007792D02*
X014115Y007792D01*
X014115Y007791D02*
X011440Y007791D01*
X011440Y007790D02*
X014115Y007790D01*
X014115Y007789D02*
X011440Y007789D01*
X011440Y007788D02*
X014115Y007788D01*
X014115Y007787D02*
X011440Y007787D01*
X011440Y007786D02*
X014115Y007786D01*
X014115Y007785D02*
X011440Y007785D01*
X011440Y007784D02*
X014115Y007784D01*
X014115Y007783D02*
X011440Y007783D01*
X011440Y007782D02*
X014115Y007782D01*
X014115Y007781D02*
X011440Y007781D01*
X011440Y007780D02*
X014115Y007780D01*
X014115Y007779D02*
X011440Y007779D01*
X011440Y007778D02*
X014115Y007778D01*
X014115Y007777D02*
X011440Y007777D01*
X011440Y007776D02*
X014115Y007776D01*
X014115Y007775D02*
X011440Y007775D01*
X011440Y007774D02*
X014115Y007774D01*
X014115Y007773D02*
X011440Y007773D01*
X011440Y007772D02*
X014115Y007772D01*
X014115Y007771D02*
X011440Y007771D01*
X011440Y007770D02*
X014115Y007770D01*
X014115Y007769D02*
X011440Y007769D01*
X011440Y007768D02*
X014115Y007768D01*
X014115Y007767D02*
X011440Y007767D01*
X011440Y007766D02*
X014115Y007766D01*
X014115Y007765D02*
X011440Y007765D01*
X011440Y007764D02*
X014115Y007764D01*
X014115Y007763D02*
X011440Y007763D01*
X011440Y007762D02*
X014115Y007762D01*
X014115Y007761D02*
X011440Y007761D01*
X011440Y007760D02*
X014115Y007760D01*
X014115Y007759D02*
X011440Y007759D01*
X011440Y007758D02*
X014115Y007758D01*
X014115Y007757D02*
X011440Y007757D01*
X011440Y007756D02*
X014115Y007756D01*
X014115Y007755D02*
X011440Y007755D01*
X011440Y007754D02*
X014115Y007754D01*
X014115Y007753D02*
X011440Y007753D01*
X011440Y007752D02*
X014115Y007752D01*
X014115Y007751D02*
X011440Y007751D01*
X011440Y007750D02*
X014115Y007750D01*
X014115Y007749D02*
X011440Y007749D01*
X011440Y007748D02*
X014115Y007748D01*
X014115Y007747D02*
X011440Y007747D01*
X011440Y007746D02*
X014115Y007746D01*
X014115Y007745D02*
X011440Y007745D01*
X011440Y007744D02*
X014115Y007744D01*
X014115Y007743D02*
X011440Y007743D01*
X011440Y007742D02*
X014115Y007742D01*
X014115Y007741D02*
X011440Y007741D01*
X011440Y007740D02*
X014115Y007740D01*
X014115Y007739D02*
X011440Y007739D01*
X011440Y007738D02*
X014115Y007738D01*
X014115Y007737D02*
X011440Y007737D01*
X011440Y007736D02*
X014115Y007736D01*
X014115Y007735D02*
X011440Y007735D01*
X011440Y007734D02*
X014115Y007734D01*
X014115Y007733D02*
X011440Y007733D01*
X011440Y007732D02*
X014115Y007732D01*
X014115Y007731D02*
X011440Y007731D01*
X011440Y007730D02*
X014115Y007730D01*
X014115Y007729D02*
X011440Y007729D01*
X011440Y007728D02*
X014115Y007728D01*
X014115Y007727D02*
X011440Y007727D01*
X011440Y007726D02*
X014115Y007726D01*
X014115Y007725D02*
X011440Y007725D01*
X011440Y007724D02*
X014115Y007724D01*
X014115Y007723D02*
X011440Y007723D01*
X011440Y007722D02*
X014115Y007722D01*
X014115Y007721D02*
X011440Y007721D01*
X011440Y007720D02*
X014115Y007720D01*
X014115Y007719D02*
X011440Y007719D01*
X011440Y007718D02*
X014115Y007718D01*
X014115Y007717D02*
X011440Y007717D01*
X011440Y007716D02*
X014115Y007716D01*
X014115Y007715D02*
X011440Y007715D01*
X011440Y007714D02*
X014115Y007714D01*
X014115Y007713D02*
X011440Y007713D01*
X011440Y007712D02*
X014115Y007712D01*
X014115Y007711D02*
X011440Y007711D01*
X011440Y007710D02*
X014115Y007710D01*
X014115Y007709D02*
X011440Y007709D01*
X011440Y007708D02*
X014115Y007708D01*
X014115Y007707D02*
X011440Y007707D01*
X011440Y007706D02*
X014115Y007706D01*
X014115Y007705D02*
X011440Y007705D01*
X011440Y007704D02*
X014115Y007704D01*
X014115Y007703D02*
X011440Y007703D01*
X011440Y007702D02*
X014115Y007702D01*
X014115Y007701D02*
X011440Y007701D01*
X011440Y007700D02*
X014115Y007700D01*
X014115Y007699D02*
X011440Y007699D01*
X011440Y007698D02*
X014115Y007698D01*
X014115Y007697D02*
X011440Y007697D01*
X011440Y007696D02*
X014115Y007696D01*
X014115Y007695D02*
X011440Y007695D01*
X011440Y007694D02*
X014115Y007694D01*
X014115Y007693D02*
X011440Y007693D01*
X011440Y007692D02*
X014115Y007692D01*
X014115Y007691D02*
X011440Y007691D01*
X011440Y007690D02*
X014115Y007690D01*
X014115Y007689D02*
X011440Y007689D01*
X011440Y007688D02*
X014115Y007688D01*
X014115Y007687D02*
X011440Y007687D01*
X011440Y007686D02*
X014115Y007686D01*
X014115Y007685D02*
X011440Y007685D01*
X011440Y007684D02*
X014115Y007684D01*
X014115Y007683D02*
X011440Y007683D01*
X011440Y007682D02*
X014115Y007682D01*
X014115Y007681D02*
X011440Y007681D01*
X011440Y007680D02*
X014115Y007680D01*
X014115Y007679D02*
X011440Y007679D01*
X011440Y007678D02*
X014115Y007678D01*
X014115Y007677D02*
X011440Y007677D01*
X011440Y007676D02*
X014115Y007676D01*
X014115Y007675D02*
X011440Y007675D01*
X011440Y007674D02*
X014115Y007674D01*
X014115Y007673D02*
X011440Y007673D01*
X011440Y007672D02*
X014115Y007672D01*
X014115Y007671D02*
X011440Y007671D01*
X011440Y007670D02*
X014115Y007670D01*
X014115Y007669D02*
X011440Y007669D01*
X011440Y007668D02*
X014115Y007668D01*
X014115Y007667D02*
X011440Y007667D01*
X011440Y007666D02*
X014115Y007666D01*
X014115Y007665D02*
X011440Y007665D01*
X011440Y007664D02*
X014115Y007664D01*
X014115Y007663D02*
X011440Y007663D01*
X011440Y007662D02*
X014115Y007662D01*
X014115Y007661D02*
X011440Y007661D01*
X011440Y007660D02*
X014115Y007660D01*
X014115Y007659D02*
X011440Y007659D01*
X011440Y007658D02*
X014115Y007658D01*
X014115Y007657D02*
X011440Y007657D01*
X011440Y007656D02*
X014115Y007656D01*
X014115Y007655D02*
X011440Y007655D01*
X011440Y007654D02*
X014115Y007654D01*
X014115Y007653D02*
X011440Y007653D01*
X011440Y007652D02*
X014115Y007652D01*
X014115Y007651D02*
X011440Y007651D01*
X011440Y007650D02*
X014115Y007650D01*
X014115Y007649D02*
X011440Y007649D01*
X011440Y007648D02*
X014115Y007648D01*
X014115Y007647D02*
X011440Y007647D01*
X011440Y007646D02*
X014115Y007646D01*
X014115Y007645D02*
X011440Y007645D01*
X011440Y007644D02*
X014115Y007644D01*
X014115Y007643D02*
X011440Y007643D01*
X011440Y007642D02*
X014115Y007642D01*
X014115Y007641D02*
X011440Y007641D01*
X011440Y007640D02*
X014115Y007640D01*
X014115Y007639D02*
X011440Y007639D01*
X011440Y007638D02*
X014115Y007638D01*
X014115Y007637D02*
X011440Y007637D01*
X011440Y007636D02*
X014115Y007636D01*
X014115Y007635D02*
X011440Y007635D01*
X011440Y007634D02*
X014115Y007634D01*
X014115Y007633D02*
X011440Y007633D01*
X011440Y007632D02*
X014115Y007632D01*
X014115Y007631D02*
X011440Y007631D01*
X011440Y007630D02*
X014115Y007630D01*
X014115Y007629D02*
X011440Y007629D01*
X011440Y007628D02*
X014115Y007628D01*
X014115Y007627D02*
X011440Y007627D01*
X011440Y007626D02*
X014115Y007626D01*
X014115Y007625D02*
X011440Y007625D01*
X011440Y007624D02*
X014115Y007624D01*
X014115Y007623D02*
X011440Y007623D01*
X011440Y007622D02*
X014115Y007622D01*
X014115Y007621D02*
X011440Y007621D01*
X011440Y007620D02*
X014115Y007620D01*
X014115Y007619D02*
X011440Y007619D01*
X011440Y007618D02*
X014115Y007618D01*
X014115Y007617D02*
X011440Y007617D01*
X011440Y007616D02*
X014115Y007616D01*
X014115Y007615D02*
X011440Y007615D01*
X011440Y007614D02*
X014115Y007614D01*
X014115Y007613D02*
X011440Y007613D01*
X011440Y007612D02*
X014115Y007612D01*
X014115Y007611D02*
X011440Y007611D01*
X011440Y007610D02*
X014115Y007610D01*
X014115Y007609D02*
X011440Y007609D01*
X011440Y007608D02*
X014115Y007608D01*
X014115Y007607D02*
X011440Y007607D01*
X011440Y007606D02*
X014115Y007606D01*
X014115Y007605D02*
X011440Y007605D01*
X011440Y007604D02*
X014115Y007604D01*
X014115Y007603D02*
X011440Y007603D01*
X011440Y007602D02*
X014115Y007602D01*
X014115Y007601D02*
X011440Y007601D01*
X011440Y007600D02*
X014115Y007600D01*
X014115Y007599D02*
X011440Y007599D01*
X011440Y007598D02*
X014115Y007598D01*
X014115Y007597D02*
X011440Y007597D01*
X011440Y007596D02*
X014115Y007596D01*
X014115Y007595D02*
X011440Y007595D01*
X011440Y007594D02*
X014115Y007594D01*
X014115Y007593D02*
X011440Y007593D01*
X011440Y007592D02*
X014115Y007592D01*
X014115Y007591D02*
X011440Y007591D01*
X011440Y007590D02*
X014115Y007590D01*
X014115Y007589D02*
X011440Y007589D01*
X011440Y007588D02*
X014115Y007588D01*
X014115Y007587D02*
X011440Y007587D01*
X011440Y007586D02*
X014115Y007586D01*
X014115Y007585D02*
X011440Y007585D01*
X011440Y007584D02*
X014115Y007584D01*
X014115Y007583D02*
X011440Y007583D01*
X011440Y007582D02*
X014115Y007582D01*
X014115Y007581D02*
X011440Y007581D01*
X011440Y007580D02*
X014115Y007580D01*
X014115Y007579D02*
X011440Y007579D01*
X011440Y007578D02*
X014115Y007578D01*
X014115Y007577D02*
X011440Y007577D01*
X011440Y007576D02*
X014115Y007576D01*
X014115Y007575D02*
X011440Y007575D01*
X011440Y007574D02*
X014115Y007574D01*
X014115Y007573D02*
X011440Y007573D01*
X011440Y007572D02*
X014115Y007572D01*
X014115Y007571D02*
X011440Y007571D01*
X011440Y007570D02*
X014115Y007570D01*
X014115Y007569D02*
X011440Y007569D01*
X011440Y007568D02*
X014115Y007568D01*
X014115Y007567D02*
X011440Y007567D01*
X011440Y007566D02*
X014115Y007566D01*
X014115Y007565D02*
X011440Y007565D01*
X011440Y007564D02*
X014115Y007564D01*
X014115Y007563D02*
X011440Y007563D01*
X011440Y007562D02*
X014115Y007562D01*
X014115Y007561D02*
X011440Y007561D01*
X011440Y007560D02*
X014115Y007560D01*
X014115Y007559D02*
X011440Y007559D01*
X011440Y007558D02*
X014115Y007558D01*
X014115Y007557D02*
X011440Y007557D01*
X011440Y007556D02*
X014115Y007556D01*
X014115Y007555D02*
X011440Y007555D01*
X011440Y007554D02*
X014115Y007554D01*
X014115Y007553D02*
X011440Y007553D01*
X011440Y007552D02*
X014115Y007552D01*
X014115Y007551D02*
X011440Y007551D01*
X011440Y007550D02*
X014115Y007550D01*
X014115Y007549D02*
X011440Y007549D01*
X011440Y007548D02*
X014115Y007548D01*
X014115Y007547D02*
X011440Y007547D01*
X011440Y007546D02*
X014115Y007546D01*
X014115Y007545D02*
X011440Y007545D01*
X011440Y007544D02*
X014115Y007544D01*
X014115Y007543D02*
X011440Y007543D01*
X011440Y007542D02*
X014115Y007542D01*
X014115Y007541D02*
X011440Y007541D01*
X011440Y007540D02*
X014115Y007540D01*
X014115Y007539D02*
X011440Y007539D01*
X011440Y007538D02*
X014115Y007538D01*
X014115Y007537D02*
X011440Y007537D01*
X011440Y007536D02*
X014115Y007536D01*
X014115Y007535D02*
X011440Y007535D01*
X011440Y007534D02*
X014115Y007534D01*
X014115Y007533D02*
X011440Y007533D01*
X011440Y007532D02*
X014115Y007532D01*
X014115Y007531D02*
X011440Y007531D01*
X011440Y007530D02*
X014115Y007530D01*
X014115Y007529D02*
X011440Y007529D01*
X011440Y007528D02*
X014115Y007528D01*
X014115Y007527D02*
X011440Y007527D01*
X011440Y007526D02*
X014115Y007526D01*
X014115Y007525D02*
X011440Y007525D01*
X011440Y007524D02*
X014115Y007524D01*
X014115Y007523D02*
X011440Y007523D01*
X011440Y007522D02*
X014115Y007522D01*
X014115Y007521D02*
X011440Y007521D01*
X011440Y007520D02*
X014115Y007520D01*
X014115Y007519D02*
X011440Y007519D01*
X011440Y007518D02*
X014115Y007518D01*
X014115Y007517D02*
X011440Y007517D01*
X011440Y007516D02*
X014115Y007516D01*
X014115Y007515D02*
X011440Y007515D01*
X011440Y007514D02*
X014115Y007514D01*
X014115Y007513D02*
X011440Y007513D01*
X011440Y007512D02*
X014115Y007512D01*
X014115Y007511D02*
X011440Y007511D01*
X011440Y007510D02*
X014115Y007510D01*
X014115Y007509D02*
X011440Y007509D01*
X011440Y007508D02*
X014115Y007508D01*
X014115Y007507D02*
X011440Y007507D01*
X011440Y007506D02*
X014115Y007506D01*
X014115Y007505D02*
X011440Y007505D01*
X011440Y007504D02*
X014115Y007504D01*
X014115Y007503D02*
X011440Y007503D01*
X011440Y007502D02*
X014115Y007502D01*
X014115Y007501D02*
X011440Y007501D01*
X011440Y007500D02*
X014115Y007500D01*
X014115Y007499D02*
X011440Y007499D01*
X011440Y007498D02*
X014115Y007498D01*
X014115Y007497D02*
X011440Y007497D01*
X011440Y007496D02*
X014115Y007496D01*
X014115Y007495D02*
X011440Y007495D01*
X011440Y007494D02*
X014115Y007494D01*
X014115Y007493D02*
X011440Y007493D01*
X011440Y007492D02*
X014115Y007492D01*
X014115Y007491D02*
X011440Y007491D01*
X011440Y007490D02*
X014115Y007490D01*
X014115Y007489D02*
X011440Y007489D01*
X011440Y007488D02*
X014115Y007488D01*
X014115Y007487D02*
X011440Y007487D01*
X011440Y007486D02*
X014115Y007486D01*
X014115Y007485D02*
X011440Y007485D01*
X011440Y007484D02*
X014115Y007484D01*
X014115Y007483D02*
X011440Y007483D01*
X011440Y007482D02*
X014115Y007482D01*
X014115Y007481D02*
X011440Y007481D01*
X011440Y007480D02*
X014115Y007480D01*
X014115Y007479D02*
X011440Y007479D01*
X011440Y007478D02*
X014115Y007478D01*
X014115Y007477D02*
X011440Y007477D01*
X011440Y007476D02*
X014115Y007476D01*
X014115Y007475D02*
X011440Y007475D01*
X011440Y007474D02*
X014115Y007474D01*
X014115Y007473D02*
X011440Y007473D01*
X011440Y007472D02*
X014115Y007472D01*
X014115Y007471D02*
X011440Y007471D01*
X011440Y007470D02*
X014115Y007470D01*
X014115Y007469D02*
X011440Y007469D01*
X011440Y007468D02*
X014115Y007468D01*
X014115Y007467D02*
X011440Y007467D01*
X011440Y007466D02*
X014115Y007466D01*
X014115Y007465D02*
X011440Y007465D01*
X011440Y007464D02*
X014115Y007464D01*
X014115Y007463D02*
X011440Y007463D01*
X011440Y007462D02*
X014115Y007462D01*
X014115Y007461D02*
X011440Y007461D01*
X011440Y007460D02*
X014115Y007460D01*
X014115Y007459D02*
X011440Y007459D01*
X011440Y007458D02*
X014115Y007458D01*
X014115Y007457D02*
X011440Y007457D01*
X011440Y007456D02*
X014115Y007456D01*
X014115Y007455D02*
X011440Y007455D01*
X011440Y007454D02*
X014115Y007454D01*
X014115Y007453D02*
X011440Y007453D01*
X011440Y007452D02*
X014115Y007452D01*
X014115Y007451D02*
X011440Y007451D01*
X011440Y007450D02*
X014115Y007450D01*
X014115Y007449D02*
X011440Y007449D01*
X011440Y007448D02*
X014115Y007448D01*
X014115Y007447D02*
X011440Y007447D01*
X011440Y007446D02*
X014115Y007446D01*
X014115Y007445D02*
X011440Y007445D01*
X011440Y007444D02*
X014115Y007444D01*
X014115Y007443D02*
X011440Y007443D01*
X011440Y007442D02*
X014115Y007442D01*
X014115Y007441D02*
X011440Y007441D01*
X011440Y007440D02*
X014115Y007440D01*
X014115Y007439D02*
X011440Y007439D01*
X011440Y007438D02*
X014115Y007438D01*
X014115Y007437D02*
X011440Y007437D01*
X011440Y007436D02*
X014115Y007436D01*
X014115Y007435D02*
X011440Y007435D01*
X011440Y007434D02*
X014115Y007434D01*
X014115Y007433D02*
X011440Y007433D01*
X011440Y007432D02*
X014115Y007432D01*
X014115Y007431D02*
X011440Y007431D01*
X011440Y007430D02*
X014115Y007430D01*
X014115Y007429D02*
X011440Y007429D01*
X011440Y007428D02*
X014115Y007428D01*
X014115Y007427D02*
X011440Y007427D01*
X011440Y007426D02*
X014115Y007426D01*
X014115Y007425D02*
X011440Y007425D01*
X011440Y007424D02*
X014115Y007424D01*
X014115Y007423D02*
X011440Y007423D01*
X011440Y007422D02*
X014115Y007422D01*
X014115Y007421D02*
X011440Y007421D01*
X011440Y007420D02*
X014115Y007420D01*
X014115Y007419D02*
X011440Y007419D01*
X011440Y007418D02*
X014115Y007418D01*
X014115Y007417D02*
X011440Y007417D01*
X011440Y007416D02*
X014115Y007416D01*
X014115Y007415D02*
X011440Y007415D01*
X011440Y007414D02*
X014115Y007414D01*
X014115Y007413D02*
X011440Y007413D01*
X011440Y007412D02*
X014115Y007412D01*
X014115Y007411D02*
X011440Y007411D01*
X011440Y007410D02*
X014115Y007410D01*
X014115Y007409D02*
X011440Y007409D01*
X011440Y007408D02*
X014115Y007408D01*
X014115Y007407D02*
X011440Y007407D01*
X011440Y007406D02*
X014115Y007406D01*
X014115Y007405D02*
X011440Y007405D01*
X011440Y007404D02*
X014115Y007404D01*
X014115Y007403D02*
X011440Y007403D01*
X011440Y007402D02*
X014115Y007402D01*
X014115Y007401D02*
X011440Y007401D01*
X011440Y007400D02*
X014115Y007400D01*
X014115Y007399D02*
X011440Y007399D01*
X011440Y007398D02*
X014115Y007398D01*
X014115Y007397D02*
X011440Y007397D01*
X011440Y007396D02*
X014115Y007396D01*
X014115Y007395D02*
X011440Y007395D01*
X011440Y007394D02*
X014115Y007394D01*
X014115Y007393D02*
X011440Y007393D01*
X011440Y007392D02*
X014115Y007392D01*
X014115Y007391D02*
X011440Y007391D01*
X011440Y007390D02*
X014115Y007390D01*
X014115Y007389D02*
X011440Y007389D01*
X011440Y007388D02*
X014115Y007388D01*
X014115Y007387D02*
X011440Y007387D01*
X011440Y007386D02*
X014115Y007386D01*
X014115Y007385D02*
X011440Y007385D01*
X011440Y007384D02*
X014115Y007384D01*
X014115Y007383D02*
X011440Y007383D01*
X011440Y007382D02*
X014115Y007382D01*
X014115Y007381D02*
X011440Y007381D01*
X011440Y007380D02*
X014115Y007380D01*
X014115Y007379D02*
X011440Y007379D01*
X011440Y007378D02*
X014115Y007378D01*
X014115Y007377D02*
X011440Y007377D01*
X011440Y007376D02*
X014115Y007376D01*
X014115Y007375D02*
X011440Y007375D01*
X011440Y007374D02*
X014115Y007374D01*
X014115Y007373D02*
X011440Y007373D01*
X011440Y007372D02*
X014115Y007372D01*
X014115Y007371D02*
X011440Y007371D01*
X011440Y007370D02*
X014115Y007370D01*
X014115Y007369D02*
X011440Y007369D01*
X011440Y007368D02*
X014115Y007368D01*
X014115Y007367D02*
X011440Y007367D01*
X011440Y007366D02*
X014115Y007366D01*
X014115Y007365D02*
X011440Y007365D01*
X011440Y007364D02*
X014115Y007364D01*
X014115Y007363D02*
X011440Y007363D01*
X011440Y007362D02*
X014115Y007362D01*
X014115Y007361D02*
X011440Y007361D01*
X011440Y007360D02*
X014115Y007360D01*
X014115Y007359D02*
X011440Y007359D01*
X011440Y007358D02*
X014115Y007358D01*
X014115Y007357D02*
X011440Y007357D01*
X011440Y007356D02*
X014115Y007356D01*
X014115Y007355D02*
X011440Y007355D01*
X011440Y007354D02*
X014115Y007354D01*
X014115Y007353D02*
X011440Y007353D01*
X011440Y007352D02*
X014115Y007352D01*
X014115Y007351D02*
X011440Y007351D01*
X011440Y007350D02*
X014115Y007350D01*
X014115Y007349D02*
X011440Y007349D01*
X011440Y007348D02*
X014115Y007348D01*
X014115Y007347D02*
X011440Y007347D01*
X011440Y007346D02*
X014115Y007346D01*
X014115Y007345D02*
X011440Y007345D01*
X011440Y007344D02*
X014115Y007344D01*
X014115Y007343D02*
X011440Y007343D01*
X011440Y007342D02*
X014115Y007342D01*
X014115Y007341D02*
X011440Y007341D01*
X011440Y007340D02*
X014115Y007340D01*
X014115Y007339D02*
X011440Y007339D01*
X011440Y007338D02*
X014115Y007338D01*
X014115Y007337D02*
X011440Y007337D01*
X011440Y007336D02*
X014115Y007336D01*
X014115Y007335D02*
X011440Y007335D01*
X011440Y007334D02*
X014115Y007334D01*
X014115Y007333D02*
X011440Y007333D01*
X011440Y007332D02*
X014115Y007332D01*
X014115Y007331D02*
X011440Y007331D01*
X011440Y007330D02*
X014115Y007330D01*
X014115Y007329D02*
X011440Y007329D01*
X011440Y007328D02*
X014115Y007328D01*
X014115Y007327D02*
X011440Y007327D01*
X011440Y007326D02*
X014115Y007326D01*
X014115Y007325D02*
X011440Y007325D01*
X011440Y007324D02*
X014115Y007324D01*
X014115Y007323D02*
X011440Y007323D01*
X011440Y007322D02*
X014115Y007322D01*
X014115Y007321D02*
X011440Y007321D01*
X011440Y007320D02*
X014115Y007320D01*
X014115Y007319D02*
X011440Y007319D01*
X011440Y007318D02*
X014115Y007318D01*
X014115Y007317D02*
X011440Y007317D01*
X011440Y007316D02*
X014115Y007316D01*
X014115Y007315D02*
X011440Y007315D01*
X011440Y007314D02*
X014115Y007314D01*
X014115Y007313D02*
X011440Y007313D01*
X011440Y007312D02*
X014115Y007312D01*
X014115Y007311D02*
X011440Y007311D01*
X011440Y007310D02*
X014115Y007310D01*
X014115Y007309D02*
X011440Y007309D01*
X011440Y007308D02*
X014115Y007308D01*
X014115Y007307D02*
X011440Y007307D01*
X011440Y007306D02*
X014115Y007306D01*
X014115Y007305D02*
X011440Y007305D01*
X011440Y007304D02*
X014115Y007304D01*
X014115Y007303D02*
X011440Y007303D01*
X011440Y007302D02*
X014115Y007302D01*
X014115Y007301D02*
X011440Y007301D01*
X011440Y007300D02*
X014115Y007300D01*
X014115Y007299D02*
X011440Y007299D01*
X011440Y007298D02*
X014115Y007298D01*
X014115Y007297D02*
X011440Y007297D01*
X011440Y007296D02*
X014115Y007296D01*
X014115Y007295D02*
X011440Y007295D01*
X011440Y007294D02*
X014115Y007294D01*
X014115Y007293D02*
X011440Y007293D01*
X011440Y007292D02*
X014115Y007292D01*
X014115Y007291D02*
X011440Y007291D01*
X011440Y007290D02*
X014115Y007290D01*
X014115Y007289D02*
X011440Y007289D01*
X011440Y007288D02*
X014115Y007288D01*
X014115Y007287D02*
X011440Y007287D01*
X011440Y007286D02*
X014115Y007286D01*
X014115Y007285D02*
X011440Y007285D01*
X011440Y007284D02*
X014115Y007284D01*
X014115Y007283D02*
X011440Y007283D01*
X011440Y007282D02*
X014115Y007282D01*
X014115Y007281D02*
X011440Y007281D01*
X011440Y007280D02*
X014115Y007280D01*
X014115Y007279D02*
X011440Y007279D01*
X011440Y007278D02*
X014115Y007278D01*
X014115Y007277D02*
X011440Y007277D01*
X011440Y007276D02*
X014115Y007276D01*
X014115Y007275D02*
X011440Y007275D01*
X011440Y007274D02*
X014115Y007274D01*
X014115Y007273D02*
X011440Y007273D01*
X011440Y007272D02*
X014115Y007272D01*
X014115Y007271D02*
X011440Y007271D01*
X011440Y007270D02*
X014115Y007270D01*
X014115Y007269D02*
X011440Y007269D01*
X011440Y007268D02*
X014115Y007268D01*
X014115Y007267D02*
X011440Y007267D01*
X011440Y007266D02*
X014115Y007266D01*
X014115Y007265D02*
X011440Y007265D01*
X011440Y007264D02*
X014115Y007264D01*
X014115Y007263D02*
X011440Y007263D01*
X011440Y007262D02*
X014115Y007262D01*
X014115Y007261D02*
X011440Y007261D01*
X011440Y007260D02*
X014115Y007260D01*
X014115Y007259D02*
X011440Y007259D01*
X011440Y007258D02*
X014115Y007258D01*
X014115Y007257D02*
X011440Y007257D01*
X011440Y007256D02*
X014115Y007256D01*
X014115Y007255D02*
X011440Y007255D01*
X011440Y007254D02*
X014115Y007254D01*
X014115Y007253D02*
X011440Y007253D01*
X011440Y007252D02*
X014115Y007252D01*
X014115Y007251D02*
X011440Y007251D01*
X011440Y007250D02*
X014115Y007250D01*
X014115Y007249D02*
X011440Y007249D01*
X011440Y007248D02*
X014115Y007248D01*
X014115Y007247D02*
X011440Y007247D01*
X011440Y007246D02*
X014115Y007246D01*
X014115Y007245D02*
X011440Y007245D01*
X011440Y007244D02*
X014115Y007244D01*
X014115Y007243D02*
X011440Y007243D01*
X011440Y007242D02*
X014115Y007242D01*
X014115Y007241D02*
X011440Y007241D01*
X011440Y007240D02*
X014115Y007240D01*
X014115Y007239D02*
X011440Y007239D01*
X011440Y007238D02*
X014115Y007238D01*
X014115Y007237D02*
X011440Y007237D01*
X011440Y007236D02*
X014115Y007236D01*
X014115Y007235D02*
X011440Y007235D01*
X011440Y007234D02*
X014115Y007234D01*
X014115Y007233D02*
X011440Y007233D01*
X011440Y007232D02*
X014115Y007232D01*
X014115Y007231D02*
X011440Y007231D01*
X011440Y007230D02*
X014115Y007230D01*
X014115Y007229D02*
X011440Y007229D01*
X011440Y007228D02*
X014115Y007228D01*
X014115Y007227D02*
X011440Y007227D01*
X011440Y007226D02*
X014115Y007226D01*
X014115Y007225D02*
X011440Y007225D01*
X011440Y007224D02*
X014115Y007224D01*
X014115Y007223D02*
X011440Y007223D01*
X011440Y007222D02*
X014115Y007222D01*
X014115Y007221D02*
X011440Y007221D01*
X011440Y007220D02*
X014115Y007220D01*
X014115Y007219D02*
X011440Y007219D01*
X011440Y007218D02*
X014115Y007218D01*
X014115Y007217D02*
X011440Y007217D01*
X011440Y007216D02*
X014115Y007216D01*
X014115Y007215D02*
X011440Y007215D01*
X011440Y007214D02*
X014115Y007214D01*
X014115Y007213D02*
X011440Y007213D01*
X011440Y007212D02*
X014115Y007212D01*
X014115Y007211D02*
X011440Y007211D01*
X011440Y007210D02*
X014115Y007210D01*
X014115Y007209D02*
X011440Y007209D01*
X011440Y007208D02*
X014115Y007208D01*
X014115Y007207D02*
X011440Y007207D01*
X011440Y007206D02*
X014115Y007206D01*
X014115Y007205D02*
X011440Y007205D01*
X011440Y007204D02*
X014115Y007204D01*
X014115Y007203D02*
X011440Y007203D01*
X011440Y007202D02*
X014115Y007202D01*
X014115Y007201D02*
X011440Y007201D01*
X011440Y007200D02*
X014115Y007200D01*
X014115Y007199D02*
X011440Y007199D01*
X011440Y007198D02*
X014115Y007198D01*
X014115Y007197D02*
X011440Y007197D01*
X011440Y007196D02*
X014115Y007196D01*
X014115Y007195D02*
X011440Y007195D01*
X011440Y007194D02*
X014115Y007194D01*
X014115Y007193D02*
X011440Y007193D01*
X011440Y007192D02*
X014115Y007192D01*
X014115Y007191D02*
X011440Y007191D01*
X011440Y007190D02*
X014115Y007190D01*
X014115Y007189D02*
X011440Y007189D01*
X011440Y007188D02*
X014115Y007188D01*
X014115Y007187D02*
X011440Y007187D01*
X011440Y007186D02*
X014115Y007186D01*
X014115Y007185D02*
X011440Y007185D01*
X011440Y007184D02*
X014115Y007184D01*
X014115Y007183D02*
X011440Y007183D01*
X011440Y007182D02*
X014115Y007182D01*
X014115Y007181D02*
X011440Y007181D01*
X011440Y007180D02*
X014115Y007180D01*
X014115Y007179D02*
X011440Y007179D01*
X011440Y007178D02*
X014115Y007178D01*
X014115Y007177D02*
X011440Y007177D01*
X011440Y007176D02*
X014115Y007176D01*
X014115Y007175D02*
X011440Y007175D01*
X011440Y007174D02*
X014115Y007174D01*
X014115Y007173D02*
X011440Y007173D01*
X011440Y007172D02*
X014115Y007172D01*
X014115Y007171D02*
X011440Y007171D01*
X011440Y007170D02*
X014115Y007170D01*
X014115Y007169D02*
X011440Y007169D01*
X011440Y007168D02*
X014115Y007168D01*
X014115Y007167D02*
X011440Y007167D01*
X011440Y007166D02*
X014115Y007166D01*
X014115Y007165D02*
X011440Y007165D01*
X011440Y007164D02*
X014115Y007164D01*
X014115Y007163D02*
X011440Y007163D01*
X011440Y007162D02*
X014115Y007162D01*
X014115Y007161D02*
X011440Y007161D01*
X011440Y007160D02*
X014115Y007160D01*
X014115Y007159D02*
X011440Y007159D01*
X011440Y007158D02*
X014115Y007158D01*
X014115Y007157D02*
X011440Y007157D01*
X011440Y007156D02*
X014115Y007156D01*
X014115Y007155D02*
X011440Y007155D01*
X011440Y007154D02*
X014115Y007154D01*
X014115Y007153D02*
X011440Y007153D01*
X011440Y007152D02*
X014115Y007152D01*
X014115Y007151D02*
X011440Y007151D01*
X011440Y007150D02*
X014115Y007150D01*
X014115Y007149D02*
X011440Y007149D01*
X011440Y007148D02*
X014115Y007148D01*
X014115Y007147D02*
X011440Y007147D01*
X011440Y007146D02*
X014115Y007146D01*
X014115Y007145D02*
X011440Y007145D01*
X011440Y007144D02*
X014115Y007144D01*
X014115Y007143D02*
X011440Y007143D01*
X011440Y007142D02*
X014115Y007142D01*
X014115Y007141D02*
X011440Y007141D01*
X011440Y007140D02*
X014115Y007140D01*
X014115Y007139D02*
X011440Y007139D01*
X011440Y007138D02*
X014115Y007138D01*
X014115Y007137D02*
X011440Y007137D01*
X011440Y007136D02*
X014115Y007136D01*
X014115Y007135D02*
X011440Y007135D01*
X011440Y007134D02*
X014115Y007134D01*
X014115Y007133D02*
X011440Y007133D01*
X011440Y007132D02*
X014115Y007132D01*
X014115Y007131D02*
X011440Y007131D01*
X011440Y007130D02*
X014115Y007130D01*
X014115Y007129D02*
X011440Y007129D01*
X011440Y007128D02*
X014115Y007128D01*
X014115Y007127D02*
X011440Y007127D01*
X011440Y007126D02*
X014115Y007126D01*
X014115Y007125D02*
X011440Y007125D01*
X011440Y007124D02*
X014115Y007124D01*
X014115Y007123D02*
X011440Y007123D01*
X011440Y007122D02*
X014115Y007122D01*
X014115Y007121D02*
X011440Y007121D01*
X011440Y007120D02*
X014115Y007120D01*
X014115Y007119D02*
X011440Y007119D01*
X011440Y007118D02*
X014115Y007118D01*
X014115Y007117D02*
X011440Y007117D01*
X011440Y007116D02*
X014115Y007116D01*
X014115Y007115D02*
X011440Y007115D01*
X011440Y007114D02*
X014115Y007114D01*
X014115Y007113D02*
X011440Y007113D01*
X011440Y007112D02*
X014115Y007112D01*
X014115Y007111D02*
X011440Y007111D01*
X011440Y007110D02*
X014115Y007110D01*
X014115Y007109D02*
X011440Y007109D01*
X011440Y007108D02*
X014115Y007108D01*
X014115Y007107D02*
X011440Y007107D01*
X011440Y007106D02*
X014115Y007106D01*
X014115Y007105D02*
X011440Y007105D01*
X011440Y007104D02*
X014115Y007104D01*
X014115Y007103D02*
X011440Y007103D01*
X011440Y007102D02*
X014115Y007102D01*
X014115Y007101D02*
X011440Y007101D01*
X011440Y007100D02*
X014115Y007100D01*
X014115Y007099D02*
X011440Y007099D01*
X011440Y007098D02*
X014115Y007098D01*
X014115Y007097D02*
X011440Y007097D01*
X011440Y007096D02*
X014115Y007096D01*
X014115Y007095D02*
X011440Y007095D01*
X011440Y007094D02*
X014115Y007094D01*
X014115Y007093D02*
X011440Y007093D01*
X011440Y007092D02*
X014115Y007092D01*
X014115Y007091D02*
X011440Y007091D01*
X011440Y007090D02*
X014115Y007090D01*
X014115Y007089D02*
X011440Y007089D01*
X011440Y007088D02*
X014115Y007088D01*
X014115Y007087D02*
X011440Y007087D01*
X011440Y007086D02*
X014115Y007086D01*
X014115Y007085D02*
X011440Y007085D01*
X011440Y007084D02*
X014115Y007084D01*
X014115Y007083D02*
X011440Y007083D01*
X011440Y007082D02*
X014115Y007082D01*
X014115Y007081D02*
X011440Y007081D01*
X011440Y007080D02*
X014115Y007080D01*
X014115Y007079D02*
X011440Y007079D01*
X011440Y007078D02*
X014115Y007078D01*
X014115Y007077D02*
X011440Y007077D01*
X011440Y007076D02*
X014115Y007076D01*
X014115Y007075D02*
X011440Y007075D01*
X011440Y007074D02*
X014115Y007074D01*
X014115Y007073D02*
X011440Y007073D01*
X011440Y007072D02*
X014115Y007072D01*
X014115Y007071D02*
X011440Y007071D01*
X011440Y007070D02*
X014115Y007070D01*
X014115Y007069D02*
X011440Y007069D01*
X011440Y007068D02*
X014115Y007068D01*
X014115Y007067D02*
X011440Y007067D01*
X011440Y007066D02*
X014115Y007066D01*
X014115Y007065D02*
X011440Y007065D01*
X011440Y007064D02*
X014115Y007064D01*
X014115Y007063D02*
X011440Y007063D01*
X011440Y007062D02*
X014115Y007062D01*
X014115Y007061D02*
X011440Y007061D01*
X011440Y007060D02*
X014115Y007060D01*
X014115Y007059D02*
X011440Y007059D01*
X011440Y007058D02*
X014115Y007058D01*
X014115Y007057D02*
X011440Y007057D01*
X011440Y007056D02*
X014115Y007056D01*
X014115Y007055D02*
X011440Y007055D01*
X011440Y007054D02*
X014115Y007054D01*
X014115Y007053D02*
X011440Y007053D01*
X011440Y007052D02*
X014115Y007052D01*
X014115Y007051D02*
X011440Y007051D01*
X011440Y007050D02*
X014115Y007050D01*
X014115Y007049D02*
X011566Y007049D01*
X011567Y007048D02*
X014115Y007048D01*
X011568Y007048D01*
X011568Y007047D02*
X014115Y007047D01*
X014115Y007046D02*
X011569Y007046D01*
X011570Y007045D02*
X014115Y007045D01*
X014115Y007044D02*
X011571Y007044D01*
X011572Y007043D02*
X014115Y007043D01*
X014115Y007042D02*
X011573Y007042D01*
X011574Y007041D02*
X014115Y007041D01*
X014115Y007040D02*
X011575Y007040D01*
X011576Y007039D02*
X014115Y007039D01*
X014115Y007038D02*
X011577Y007038D01*
X011578Y007037D02*
X014115Y007037D01*
X014115Y007036D02*
X011579Y007036D01*
X011580Y007035D02*
X014115Y007035D01*
X014115Y007034D02*
X011581Y007034D01*
X011582Y007033D02*
X014115Y007033D01*
X014115Y007032D02*
X011583Y007032D01*
X011584Y007031D02*
X014115Y007031D01*
X014115Y007030D02*
X011585Y007030D01*
X011586Y007029D02*
X014115Y007029D01*
X014115Y007028D02*
X011587Y007028D01*
X011588Y007027D02*
X014115Y007027D01*
X014115Y007026D02*
X011589Y007026D01*
X011590Y007025D02*
X014115Y007025D01*
X014115Y007024D02*
X011591Y007024D01*
X011592Y007023D02*
X014115Y007023D01*
X014115Y007022D02*
X011593Y007022D01*
X011594Y007021D02*
X014115Y007021D01*
X014115Y007020D02*
X011595Y007020D01*
X011596Y007019D02*
X014115Y007019D01*
X014115Y007018D02*
X011597Y007018D01*
X011598Y007017D02*
X014115Y007017D01*
X014115Y007016D02*
X011599Y007016D01*
X011600Y007015D02*
X014115Y007015D01*
X014115Y007014D02*
X011601Y007014D01*
X011602Y007013D02*
X014115Y007013D01*
X014115Y007012D02*
X011603Y007012D01*
X011604Y007011D02*
X014115Y007011D01*
X014115Y007010D02*
X011605Y007010D01*
X011606Y007009D02*
X014115Y007009D01*
X014115Y007008D02*
X011607Y007008D01*
X011608Y007007D02*
X014115Y007007D01*
X014115Y007006D02*
X011609Y007006D01*
X011610Y007005D02*
X014115Y007005D01*
X014115Y007004D02*
X011611Y007004D01*
X011612Y007003D02*
X014115Y007003D01*
X014115Y007002D02*
X011613Y007002D01*
X011614Y007001D02*
X014115Y007001D01*
X014115Y007000D02*
X011615Y007000D01*
X011616Y006999D02*
X014115Y006999D01*
X014115Y006998D02*
X011617Y006998D01*
X011618Y006997D02*
X014115Y006997D01*
X014115Y006996D02*
X011619Y006996D01*
X011620Y006995D02*
X014115Y006995D01*
X014115Y006994D02*
X011621Y006994D01*
X011622Y006993D02*
X014115Y006993D01*
X014115Y006992D02*
X011623Y006992D01*
X011624Y006991D02*
X014115Y006991D01*
X014115Y006990D02*
X011625Y006990D01*
X011626Y006989D02*
X014115Y006989D01*
X014115Y006988D02*
X011627Y006988D01*
X011628Y006987D02*
X014115Y006987D01*
X014115Y006986D02*
X011629Y006986D01*
X011630Y006985D02*
X014115Y006985D01*
X014115Y006984D02*
X011631Y006984D01*
X011632Y006983D02*
X014115Y006983D01*
X014115Y006982D02*
X011633Y006982D01*
X011634Y006981D02*
X014115Y006981D01*
X014115Y006980D02*
X011635Y006980D01*
X011636Y006979D02*
X014115Y006979D01*
X014115Y006978D02*
X011637Y006978D01*
X011638Y006977D02*
X014115Y006977D01*
X014115Y006976D02*
X011639Y006976D01*
X013140Y006975D02*
X014115Y006975D01*
X014115Y006974D02*
X013141Y006974D01*
X013141Y006973D02*
X014115Y006973D01*
X014115Y006972D02*
X013142Y006972D01*
X013142Y006971D02*
X014115Y006971D01*
X014115Y006970D02*
X013143Y006970D01*
X013143Y006969D02*
X014115Y006969D01*
X014115Y006968D02*
X013144Y006968D01*
X013144Y006967D02*
X014115Y006967D01*
X014115Y006966D02*
X013145Y006966D01*
X013145Y006965D02*
X014115Y006965D01*
X014115Y006964D02*
X013146Y006964D01*
X013146Y006963D02*
X014115Y006963D01*
X014115Y006962D02*
X013147Y006962D01*
X013147Y006961D02*
X014115Y006961D01*
X014115Y006960D02*
X013148Y006960D01*
X013148Y006959D02*
X014115Y006959D01*
X014115Y006958D02*
X013149Y006958D01*
X013149Y006957D02*
X014115Y006957D01*
X014115Y006956D02*
X013150Y006956D01*
X013150Y006955D02*
X014115Y006955D01*
X014115Y006954D02*
X013151Y006954D01*
X013151Y006953D02*
X014115Y006953D01*
X014115Y006952D02*
X013152Y006952D01*
X013152Y006951D02*
X014115Y006951D01*
X014115Y006950D02*
X013153Y006950D01*
X013153Y006949D02*
X014115Y006949D01*
X014115Y006948D02*
X013154Y006948D01*
X013154Y006947D02*
X014115Y006947D01*
X014115Y006946D02*
X013155Y006946D01*
X013155Y006945D02*
X014115Y006945D01*
X014115Y006944D02*
X013156Y006944D01*
X013156Y006943D02*
X014115Y006943D01*
X014115Y006942D02*
X013157Y006942D01*
X013157Y006941D02*
X014115Y006941D01*
X014115Y006940D02*
X013158Y006940D01*
X013158Y006939D02*
X014115Y006939D01*
X014115Y006938D02*
X013159Y006938D01*
X013159Y006937D02*
X014115Y006937D01*
X014115Y006936D02*
X013160Y006936D01*
X013160Y006935D02*
X014115Y006935D01*
X014115Y006934D02*
X013161Y006934D01*
X013161Y006933D02*
X014115Y006933D01*
X014115Y006932D02*
X013162Y006932D01*
X013162Y006931D02*
X014115Y006931D01*
X014115Y006930D02*
X013163Y006930D01*
X013163Y006929D02*
X014115Y006929D01*
X014115Y006928D02*
X013164Y006928D01*
X013164Y006927D02*
X014115Y006927D01*
X014115Y006926D02*
X013165Y006926D01*
X013165Y006925D02*
X014115Y006925D01*
X014115Y006924D02*
X013166Y006924D01*
X013166Y006923D02*
X014115Y006923D01*
X014115Y006922D02*
X013167Y006922D01*
X013167Y006921D02*
X014115Y006921D01*
X014115Y006920D02*
X013168Y006920D01*
X013168Y006919D02*
X014115Y006919D01*
X014115Y006918D02*
X013169Y006918D01*
X013169Y006917D02*
X014115Y006917D01*
X014115Y006916D02*
X013170Y006916D01*
X013170Y006915D02*
X014115Y006915D01*
X014115Y006914D02*
X013171Y006914D01*
X013171Y006913D02*
X014115Y006913D01*
X014115Y006912D02*
X013172Y006912D01*
X013172Y006911D02*
X014115Y006911D01*
X014115Y006910D02*
X013173Y006910D01*
X013173Y006909D02*
X014115Y006909D01*
X014115Y006908D02*
X013174Y006908D01*
X013174Y006907D02*
X014115Y006907D01*
X014115Y006906D02*
X013175Y006906D01*
X013175Y006905D02*
X014115Y006905D01*
X014115Y006904D02*
X013176Y006904D01*
X013176Y006903D02*
X014115Y006903D01*
X014115Y006902D02*
X013177Y006902D01*
X013177Y006901D02*
X014115Y006901D01*
X014115Y006900D02*
X013178Y006900D01*
X013178Y006899D02*
X014115Y006899D01*
X014115Y006898D02*
X013179Y006898D01*
X013179Y006897D02*
X014115Y006897D01*
X014115Y006896D02*
X013180Y006896D01*
X013180Y006895D02*
X014115Y006895D01*
X014115Y006894D02*
X013181Y006894D01*
X013181Y006893D02*
X014115Y006893D01*
X014115Y006892D02*
X013182Y006892D01*
X013182Y006891D02*
X014115Y006891D01*
X014115Y006890D02*
X013183Y006890D01*
X013183Y006889D02*
X014115Y006889D01*
X014115Y006888D02*
X013184Y006888D01*
X013184Y006887D02*
X014115Y006887D01*
X014115Y006886D02*
X013185Y006886D01*
X013185Y006885D02*
X014115Y006885D01*
X014115Y006884D02*
X013186Y006884D01*
X013186Y006883D02*
X014115Y006883D01*
X014115Y006882D02*
X013187Y006882D01*
X013187Y006881D02*
X014115Y006881D01*
X014115Y006880D02*
X013188Y006880D01*
X013188Y006879D02*
X014115Y006879D01*
X014115Y006878D02*
X013189Y006878D01*
X013189Y006877D02*
X014115Y006877D01*
X014115Y006876D02*
X013190Y006876D01*
X013190Y006875D02*
X014115Y006875D01*
X014115Y006874D02*
X013191Y006874D01*
X013191Y006873D02*
X014115Y006873D01*
X014115Y006872D02*
X013192Y006872D01*
X013192Y006871D02*
X014115Y006871D01*
X014115Y006870D02*
X013193Y006870D01*
X013193Y006869D02*
X014115Y006869D01*
X014115Y006868D02*
X013194Y006868D01*
X013194Y006867D02*
X014115Y006867D01*
X014115Y006866D02*
X013195Y006866D01*
X013195Y006865D02*
X014115Y006865D01*
X014115Y006864D02*
X013196Y006864D01*
X013196Y006863D02*
X014115Y006863D01*
X014115Y006862D02*
X013197Y006862D01*
X013197Y006861D02*
X014115Y006861D01*
X014115Y006860D02*
X013198Y006860D01*
X013198Y006859D02*
X014115Y006859D01*
X014115Y006858D02*
X013199Y006858D01*
X013199Y006857D02*
X014115Y006857D01*
X014115Y006856D02*
X013200Y006856D01*
X013200Y006855D02*
X014115Y006855D01*
X014115Y006854D02*
X013201Y006854D01*
X013201Y006853D02*
X014115Y006853D01*
X014115Y006852D02*
X013202Y006852D01*
X013202Y006851D02*
X014115Y006851D01*
X014115Y006850D02*
X013203Y006850D01*
X013203Y006849D02*
X014115Y006849D01*
X014115Y006848D02*
X013204Y006848D01*
X013204Y006847D02*
X014115Y006847D01*
X014115Y006846D02*
X013205Y006846D01*
X013205Y006845D02*
X014115Y006845D01*
X014115Y006844D02*
X013206Y006844D01*
X013206Y006843D02*
X014115Y006843D01*
X014115Y006842D02*
X013207Y006842D01*
X013207Y006841D02*
X014115Y006841D01*
X014115Y006840D02*
X013208Y006840D01*
X013208Y006839D02*
X014115Y006839D01*
X014115Y006838D02*
X013209Y006838D01*
X013209Y006837D02*
X014115Y006837D01*
X014115Y006836D02*
X013210Y006836D01*
X013210Y006835D02*
X014115Y006835D01*
X014115Y006834D02*
X013211Y006834D01*
X013211Y006833D02*
X014115Y006833D01*
X014115Y006832D02*
X013212Y006832D01*
X013212Y006831D02*
X014115Y006831D01*
X014115Y006830D02*
X013213Y006830D01*
X013213Y006829D02*
X014115Y006829D01*
X014115Y006828D02*
X013214Y006828D01*
X013214Y006827D02*
X014115Y006827D01*
X014115Y006826D02*
X013215Y006826D01*
X013215Y006825D02*
X014115Y006825D01*
X014115Y006824D02*
X013216Y006824D01*
X013216Y006823D02*
X014115Y006823D01*
X014115Y006822D02*
X013217Y006822D01*
X013217Y006821D02*
X014115Y006821D01*
X014115Y006820D02*
X013218Y006820D01*
X013218Y006819D02*
X014115Y006819D01*
X014115Y006818D02*
X013219Y006818D01*
X013219Y006817D02*
X014115Y006817D01*
X014115Y006816D02*
X013220Y006816D01*
X013220Y006815D02*
X014115Y006815D01*
X014115Y006814D02*
X013221Y006814D01*
X013221Y006813D02*
X014115Y006813D01*
X014115Y006812D02*
X013222Y006812D01*
X013222Y006811D02*
X014115Y006811D01*
X014115Y006810D02*
X013223Y006810D01*
X013223Y006809D02*
X014115Y006809D01*
X014115Y006808D02*
X013224Y006808D01*
X013224Y006807D02*
X014115Y006807D01*
X014115Y006806D02*
X013225Y006806D01*
X013225Y006805D02*
X014115Y006805D01*
X014115Y006804D02*
X013226Y006804D01*
X013226Y006803D02*
X014115Y006803D01*
X014115Y006802D02*
X013227Y006802D01*
X013227Y006801D02*
X014115Y006801D01*
X014115Y006800D02*
X013228Y006800D01*
X013228Y006799D02*
X014115Y006799D01*
X014115Y006798D02*
X013229Y006798D01*
X013229Y006797D02*
X014115Y006797D01*
X014115Y006796D02*
X013230Y006796D01*
X013230Y006795D02*
X014115Y006795D01*
X014115Y006794D02*
X013231Y006794D01*
X013231Y006793D02*
X014115Y006793D01*
X014115Y006792D02*
X013232Y006792D01*
X013232Y006791D02*
X014115Y006791D01*
X014115Y006790D02*
X013233Y006790D01*
X013233Y006789D02*
X014115Y006789D01*
X014115Y006788D02*
X013234Y006788D01*
X013234Y006787D02*
X014115Y006787D01*
X014115Y006786D02*
X013235Y006786D01*
X013235Y006785D02*
X014115Y006785D01*
X014115Y006784D02*
X013236Y006784D01*
X013236Y006783D02*
X014115Y006783D01*
X014115Y006782D02*
X013237Y006782D01*
X013237Y006781D02*
X014115Y006781D01*
X014115Y006780D02*
X013238Y006780D01*
X013238Y006779D02*
X014115Y006779D01*
X014115Y006778D02*
X013239Y006778D01*
X013239Y006777D02*
X014115Y006777D01*
X014115Y006776D02*
X013240Y006776D01*
X012790Y004875D02*
X014115Y004875D01*
X014115Y004874D02*
X012789Y004874D01*
X012788Y004873D02*
X014115Y004873D01*
X014115Y004872D02*
X012787Y004872D01*
X012786Y004871D02*
X014115Y004871D01*
X014115Y004870D02*
X012785Y004870D01*
X012784Y004869D02*
X014115Y004869D01*
X014115Y004868D02*
X012783Y004868D01*
X012782Y004867D02*
X014115Y004867D01*
X014115Y004866D02*
X012781Y004866D01*
X012780Y004865D02*
X014115Y004865D01*
X014115Y004864D02*
X012779Y004864D01*
X012778Y004863D02*
X014115Y004863D01*
X014115Y004862D02*
X012777Y004862D01*
X012776Y004861D02*
X014115Y004861D01*
X014115Y004860D02*
X012775Y004860D01*
X012774Y004859D02*
X014115Y004859D01*
X014115Y004858D02*
X012773Y004858D01*
X012772Y004857D02*
X014115Y004857D01*
X014115Y004856D02*
X012771Y004856D01*
X012770Y004855D02*
X014115Y004855D01*
X014115Y004854D02*
X012769Y004854D01*
X012768Y004853D02*
X014115Y004853D01*
X014115Y004852D02*
X012767Y004852D01*
X012766Y004851D02*
X014115Y004851D01*
X014115Y004850D02*
X012765Y004850D01*
X012764Y004849D02*
X014115Y004849D01*
X014115Y004848D02*
X012763Y004848D01*
X012762Y004847D02*
X014115Y004847D01*
X014115Y004846D02*
X012761Y004846D01*
X012760Y004845D02*
X014115Y004845D01*
X014115Y004844D02*
X012759Y004844D01*
X012758Y004843D02*
X014115Y004843D01*
X014115Y004842D02*
X012757Y004842D01*
X012756Y004841D02*
X014115Y004841D01*
X014115Y004840D02*
X012755Y004840D01*
X012754Y004839D02*
X014115Y004839D01*
X014115Y004838D02*
X012753Y004838D01*
X012752Y004837D02*
X014115Y004837D01*
X014115Y004836D02*
X012751Y004836D01*
X012750Y004835D02*
X014115Y004835D01*
X014115Y004834D02*
X012749Y004834D01*
X012748Y004833D02*
X014115Y004833D01*
X014115Y004832D02*
X012747Y004832D01*
X012746Y004831D02*
X014115Y004831D01*
X014115Y004830D02*
X012745Y004830D01*
X012744Y004829D02*
X014115Y004829D01*
X014115Y004828D02*
X012743Y004828D01*
X012742Y004827D02*
X014115Y004827D01*
X014115Y004826D02*
X012741Y004826D01*
X012740Y004825D02*
X014115Y004825D01*
X014115Y004824D02*
X012739Y004824D01*
X012738Y004823D02*
X014115Y004823D01*
X014115Y004822D02*
X012737Y004822D01*
X012736Y004821D02*
X014115Y004821D01*
X014115Y004820D02*
X012735Y004820D01*
X012734Y004819D02*
X014115Y004819D01*
X014115Y004818D02*
X012733Y004818D01*
X012732Y004817D02*
X014115Y004817D01*
X014115Y004816D02*
X012731Y004816D01*
X012730Y004815D02*
X014115Y004815D01*
X014115Y004814D02*
X012729Y004814D01*
X012728Y004813D02*
X014115Y004813D01*
X014115Y004812D02*
X012727Y004812D01*
X012726Y004811D02*
X014115Y004811D01*
X014115Y004810D02*
X012725Y004810D01*
X012724Y004809D02*
X014115Y004809D01*
X014115Y004808D02*
X012723Y004808D01*
X012722Y004807D02*
X014115Y004807D01*
X014115Y004806D02*
X012721Y004806D01*
X012720Y004805D02*
X014115Y004805D01*
X014115Y004804D02*
X012719Y004804D01*
X012718Y004803D02*
X014115Y004803D01*
X014115Y004802D02*
X012717Y004802D01*
X012716Y004801D02*
X014115Y004801D01*
X014115Y004800D02*
X012715Y004800D01*
X012714Y004799D02*
X014115Y004799D01*
X014115Y004798D02*
X012713Y004798D01*
X012712Y004797D02*
X014115Y004797D01*
X014115Y004796D02*
X012711Y004796D01*
X012710Y004795D02*
X014115Y004795D01*
X014115Y004794D02*
X012709Y004794D01*
X012708Y004793D02*
X014115Y004793D01*
X014115Y004792D02*
X012707Y004792D01*
X012706Y004791D02*
X014115Y004791D01*
X014115Y004790D02*
X012705Y004790D01*
X012704Y004789D02*
X014115Y004789D01*
X014115Y004788D02*
X012703Y004788D01*
X012702Y004787D02*
X014115Y004787D01*
X014115Y004786D02*
X012701Y004786D01*
X012700Y004785D02*
X014115Y004785D01*
X014115Y004784D02*
X012699Y004784D01*
X012698Y004783D02*
X014115Y004783D01*
X014115Y004782D02*
X012697Y004782D01*
X012696Y004781D02*
X014115Y004781D01*
X014115Y004780D02*
X012695Y004780D01*
X012694Y004779D02*
X014115Y004779D01*
X014115Y004778D02*
X012693Y004778D01*
X012692Y004777D02*
X014115Y004777D01*
X014115Y004776D02*
X012691Y004776D01*
X012690Y004775D02*
X014115Y004775D01*
X014115Y004774D02*
X012689Y004774D01*
X012688Y004773D02*
X014115Y004773D01*
X014115Y004772D02*
X012687Y004772D01*
X012686Y004771D02*
X014115Y004771D01*
X014115Y004770D02*
X012685Y004770D01*
X012684Y004769D02*
X014115Y004769D01*
X014115Y004768D02*
X012683Y004768D01*
X012682Y004767D02*
X014115Y004767D01*
X014115Y004766D02*
X012681Y004766D01*
X012680Y004765D02*
X014115Y004765D01*
X014115Y004764D02*
X012679Y004764D01*
X012678Y004763D02*
X014115Y004763D01*
X014115Y004762D02*
X012677Y004762D01*
X012676Y004761D02*
X014115Y004761D01*
X014115Y004760D02*
X012675Y004760D01*
X012674Y004759D02*
X014115Y004759D01*
X014115Y004758D02*
X012673Y004758D01*
X012672Y004757D02*
X014115Y004757D01*
X014115Y004756D02*
X012671Y004756D01*
X012670Y004755D02*
X014115Y004755D01*
X014115Y004754D02*
X012669Y004754D01*
X012668Y004753D02*
X014115Y004753D01*
X014115Y004752D02*
X012667Y004752D01*
X012666Y004751D02*
X014115Y004751D01*
X014115Y004750D02*
X012665Y004750D01*
X012664Y004749D02*
X014115Y004749D01*
X014115Y004748D02*
X012663Y004748D01*
X012662Y004747D02*
X014115Y004747D01*
X014115Y004746D02*
X012661Y004746D01*
X012660Y004745D02*
X014115Y004745D01*
X014115Y004744D02*
X012659Y004744D01*
X012658Y004743D02*
X014115Y004743D01*
X014115Y004742D02*
X012657Y004742D01*
X012656Y004741D02*
X014115Y004741D01*
X014115Y004740D02*
X012655Y004740D01*
X012654Y004739D02*
X014115Y004739D01*
X014115Y004738D02*
X012653Y004738D01*
X012652Y004737D02*
X014115Y004737D01*
X014115Y004736D02*
X012651Y004736D01*
X012650Y004735D02*
X014115Y004735D01*
X014115Y004734D02*
X012649Y004734D01*
X012648Y004733D02*
X014115Y004733D01*
X014115Y004732D02*
X012647Y004732D01*
X012646Y004731D02*
X014115Y004731D01*
X014115Y004730D02*
X012645Y004730D01*
X012644Y004729D02*
X014115Y004729D01*
X014115Y004728D02*
X012643Y004728D01*
X012642Y004727D02*
X014115Y004727D01*
X014115Y004726D02*
X012641Y004726D01*
X012640Y004725D02*
X014115Y004725D01*
X014115Y004724D02*
X012639Y004724D01*
X012638Y004723D02*
X014115Y004723D01*
X014115Y004722D02*
X012637Y004722D01*
X012636Y004721D02*
X014115Y004721D01*
X014115Y004720D02*
X012635Y004720D01*
X012634Y004719D02*
X014115Y004719D01*
X014115Y004718D02*
X012633Y004718D01*
X012632Y004717D02*
X014115Y004717D01*
X014115Y004716D02*
X012631Y004716D01*
X012630Y004715D02*
X014115Y004715D01*
X014115Y004714D02*
X012629Y004714D01*
X012628Y004713D02*
X014115Y004713D01*
X014115Y004712D02*
X012627Y004712D01*
X012626Y004711D02*
X014115Y004711D01*
X014115Y004710D02*
X012625Y004710D01*
X012624Y004709D02*
X014115Y004709D01*
X014115Y004708D02*
X012623Y004708D01*
X012622Y004707D02*
X014115Y004707D01*
X014115Y004706D02*
X012621Y004706D01*
X012620Y004705D02*
X014115Y004705D01*
X014115Y004704D02*
X012619Y004704D01*
X012618Y004703D02*
X014115Y004703D01*
X014115Y004702D02*
X012617Y004702D01*
X012616Y004701D02*
X014115Y004701D01*
X014115Y004700D02*
X012615Y004700D01*
X012614Y004699D02*
X014115Y004699D01*
X014115Y004698D02*
X012613Y004698D01*
X012612Y004697D02*
X014115Y004697D01*
X014115Y004696D02*
X012611Y004696D01*
X012610Y004695D02*
X014115Y004695D01*
X014115Y004694D02*
X012609Y004694D01*
X012608Y004693D02*
X014115Y004693D01*
X014115Y004692D02*
X012607Y004692D01*
X012606Y004691D02*
X014115Y004691D01*
X014115Y004690D02*
X012605Y004690D01*
X012604Y004689D02*
X014115Y004689D01*
X014115Y004688D02*
X012603Y004688D01*
X012602Y004687D02*
X014115Y004687D01*
X014115Y004686D02*
X012601Y004686D01*
X012600Y004685D02*
X014115Y004685D01*
X014115Y004684D02*
X012599Y004684D01*
X012598Y004683D02*
X014115Y004683D01*
X014115Y004682D02*
X012597Y004682D01*
X012596Y004681D02*
X014115Y004681D01*
X014115Y004680D02*
X012595Y004680D01*
X012594Y004679D02*
X014115Y004679D01*
X014115Y004678D02*
X012593Y004678D01*
X012592Y004677D02*
X014115Y004677D01*
X014115Y004676D02*
X012591Y004676D01*
X011540Y004675D02*
X014115Y004675D01*
X014115Y004674D02*
X011539Y004674D01*
X011538Y004673D02*
X014115Y004673D01*
X014115Y004672D02*
X011537Y004672D01*
X011536Y004671D02*
X014115Y004671D01*
X014115Y004670D02*
X011535Y004670D01*
X011534Y004669D02*
X014115Y004669D01*
X014115Y004668D02*
X011533Y004668D01*
X011532Y004667D02*
X014115Y004667D01*
X014115Y004666D02*
X011531Y004666D01*
X011530Y004665D02*
X014115Y004665D01*
X014115Y004664D02*
X011529Y004664D01*
X011528Y004663D02*
X014115Y004663D01*
X014115Y004662D02*
X011527Y004662D01*
X011526Y004661D02*
X014115Y004661D01*
X014115Y004660D02*
X011525Y004660D01*
X011524Y004659D02*
X014115Y004659D01*
X014115Y004658D02*
X011523Y004658D01*
X011522Y004657D02*
X014115Y004657D01*
X014115Y004656D02*
X011521Y004656D01*
X011520Y004655D02*
X014115Y004655D01*
X014115Y004654D02*
X011519Y004654D01*
X011518Y004653D02*
X014115Y004653D01*
X014115Y004652D02*
X011517Y004652D01*
X011516Y004651D02*
X014115Y004651D01*
X014115Y004650D02*
X011515Y004650D01*
X011514Y004649D02*
X014115Y004649D01*
X014115Y004648D02*
X011513Y004648D01*
X011512Y004647D02*
X014115Y004647D01*
X014115Y004646D02*
X011511Y004646D01*
X011510Y004645D02*
X014115Y004645D01*
X014115Y004644D02*
X011509Y004644D01*
X011508Y004643D02*
X014115Y004643D01*
X014115Y004642D02*
X011507Y004642D01*
X011506Y004641D02*
X014115Y004641D01*
X014115Y004640D02*
X011505Y004640D01*
X011504Y004639D02*
X014115Y004639D01*
X014115Y004638D02*
X011503Y004638D01*
X011502Y004637D02*
X014115Y004637D01*
X014115Y004636D02*
X011501Y004636D01*
X011500Y004635D02*
X014115Y004635D01*
X014115Y004634D02*
X011499Y004634D01*
X011498Y004633D02*
X014115Y004633D01*
X014115Y004632D02*
X011497Y004632D01*
X011496Y004631D02*
X014115Y004631D01*
X014115Y004630D02*
X011495Y004630D01*
X011494Y004629D02*
X014115Y004629D01*
X014115Y004628D02*
X011493Y004628D01*
X011492Y004627D02*
X014115Y004627D01*
X014115Y004626D02*
X011491Y004626D01*
X011490Y004625D02*
X014115Y004625D01*
X014115Y004624D02*
X011489Y004624D01*
X011488Y004623D02*
X014115Y004623D01*
X014115Y004622D02*
X011487Y004622D01*
X011486Y004621D02*
X014115Y004621D01*
X014115Y004620D02*
X011485Y004620D01*
X011484Y004619D02*
X014115Y004619D01*
X014115Y004618D02*
X011483Y004618D01*
X011482Y004617D02*
X014115Y004617D01*
X014115Y004616D02*
X011481Y004616D01*
X011480Y004615D02*
X014115Y004615D01*
X014115Y004614D02*
X011479Y004614D01*
X011478Y004613D02*
X014115Y004613D01*
X014115Y004612D02*
X011477Y004612D01*
X011476Y004611D02*
X014115Y004611D01*
X014115Y004610D02*
X011475Y004610D01*
X011474Y004609D02*
X014115Y004609D01*
X014115Y004608D02*
X011473Y004608D01*
X011472Y004607D02*
X014115Y004607D01*
X014115Y004606D02*
X011471Y004606D01*
X011470Y004605D02*
X014115Y004605D01*
X014115Y004604D02*
X011469Y004604D01*
X011468Y004603D02*
X014115Y004603D01*
X014115Y004602D02*
X011467Y004602D01*
X011466Y004601D02*
X014115Y004601D01*
X014115Y004600D02*
X011465Y004600D01*
X011464Y004599D02*
X014115Y004599D01*
X014115Y004598D02*
X011463Y004598D01*
X011462Y004597D02*
X014115Y004597D01*
X014115Y004596D02*
X011461Y004596D01*
X011460Y004595D02*
X014115Y004595D01*
X014115Y004594D02*
X011459Y004594D01*
X011458Y004593D02*
X014115Y004593D01*
X014115Y004592D02*
X011457Y004592D01*
X011456Y004591D02*
X014115Y004591D01*
X014115Y004590D02*
X011455Y004590D01*
X011454Y004589D02*
X014115Y004589D01*
X014115Y004588D02*
X011453Y004588D01*
X011452Y004587D02*
X014115Y004587D01*
X014115Y004586D02*
X011451Y004586D01*
X011450Y004585D02*
X014115Y004585D01*
X014115Y004584D02*
X011449Y004584D01*
X011448Y004583D02*
X014115Y004583D01*
X014115Y004582D02*
X011447Y004582D01*
X011446Y004581D02*
X014115Y004581D01*
X014115Y004580D02*
X011445Y004580D01*
X011444Y004579D02*
X014115Y004579D01*
X014115Y004578D02*
X011443Y004578D01*
X011442Y004577D02*
X014115Y004577D01*
X014115Y004576D02*
X011441Y004576D01*
X011440Y004575D02*
X014115Y004575D01*
X014115Y004574D02*
X011440Y004574D01*
X011440Y004573D02*
X014115Y004573D01*
X014115Y004572D02*
X011440Y004572D01*
X011440Y004571D02*
X014115Y004571D01*
X014115Y004570D02*
X011440Y004570D01*
X011440Y004569D02*
X014115Y004569D01*
X014115Y004568D02*
X011440Y004568D01*
X011440Y004567D02*
X014115Y004567D01*
X014115Y004566D02*
X011440Y004566D01*
X011440Y004565D02*
X014115Y004565D01*
X014115Y004564D02*
X011440Y004564D01*
X011440Y004563D02*
X014115Y004563D01*
X014115Y004562D02*
X011440Y004562D01*
X011440Y004561D02*
X014115Y004561D01*
X014115Y004560D02*
X011440Y004560D01*
X011440Y004559D02*
X014115Y004559D01*
X014115Y004558D02*
X011440Y004558D01*
X011440Y004557D02*
X014115Y004557D01*
X014115Y004556D02*
X011440Y004556D01*
X011440Y004555D02*
X014115Y004555D01*
X014115Y004554D02*
X011440Y004554D01*
X011440Y004553D02*
X014115Y004553D01*
X014115Y004552D02*
X011440Y004552D01*
X011440Y004551D02*
X014115Y004551D01*
X014115Y004550D02*
X011440Y004550D01*
X011440Y004549D02*
X014115Y004549D01*
X014115Y004548D02*
X011440Y004548D01*
X011440Y004547D02*
X014115Y004547D01*
X014115Y004546D02*
X011440Y004546D01*
X011440Y004545D02*
X014115Y004545D01*
X014115Y004544D02*
X011440Y004544D01*
X011440Y004543D02*
X014115Y004543D01*
X014115Y004542D02*
X011440Y004542D01*
X011440Y004541D02*
X014115Y004541D01*
X014115Y004540D02*
X011440Y004540D01*
X011440Y004539D02*
X014115Y004539D01*
X014115Y004538D02*
X011440Y004538D01*
X011440Y004537D02*
X014115Y004537D01*
X014115Y004536D02*
X011440Y004536D01*
X011440Y004535D02*
X014115Y004535D01*
X014115Y004534D02*
X011440Y004534D01*
X011440Y004533D02*
X014115Y004533D01*
X014115Y004532D02*
X011440Y004532D01*
X011440Y004531D02*
X014115Y004531D01*
X014115Y004530D02*
X011440Y004530D01*
X011440Y004529D02*
X014115Y004529D01*
X014115Y004528D02*
X011440Y004528D01*
X011440Y004527D02*
X014115Y004527D01*
X014115Y004526D02*
X011440Y004526D01*
X011440Y004525D02*
X014115Y004525D01*
X014115Y004524D02*
X011440Y004524D01*
X011440Y004523D02*
X014115Y004523D01*
X014115Y004522D02*
X011440Y004522D01*
X011440Y004521D02*
X014115Y004521D01*
X014115Y004520D02*
X011440Y004520D01*
X011440Y004519D02*
X014115Y004519D01*
X014115Y004518D02*
X011440Y004518D01*
X011440Y004517D02*
X014115Y004517D01*
X014115Y004516D02*
X011440Y004516D01*
X011440Y004515D02*
X014115Y004515D01*
X014115Y004514D02*
X011440Y004514D01*
X011440Y004513D02*
X014115Y004513D01*
X014115Y004512D02*
X011440Y004512D01*
X011440Y004511D02*
X014115Y004511D01*
X014115Y004510D02*
X011440Y004510D01*
X011440Y004509D02*
X014115Y004509D01*
X014115Y004508D02*
X011440Y004508D01*
X011440Y004507D02*
X014115Y004507D01*
X014115Y004506D02*
X011440Y004506D01*
X011440Y004505D02*
X014115Y004505D01*
X014115Y004504D02*
X011440Y004504D01*
X011440Y004503D02*
X014115Y004503D01*
X014115Y004502D02*
X011440Y004502D01*
X011440Y004501D02*
X014115Y004501D01*
X014115Y004500D02*
X011440Y004500D01*
X011440Y004499D02*
X014115Y004499D01*
X014115Y004498D02*
X011440Y004498D01*
X011440Y004497D02*
X014115Y004497D01*
X014115Y004496D02*
X011440Y004496D01*
X011440Y004495D02*
X014115Y004495D01*
X014115Y004494D02*
X011440Y004494D01*
X011440Y004493D02*
X014115Y004493D01*
X014115Y004492D02*
X011440Y004492D01*
X011440Y004491D02*
X014115Y004491D01*
X014115Y004490D02*
X011440Y004490D01*
X011440Y004489D02*
X014115Y004489D01*
X014115Y004488D02*
X011440Y004488D01*
X011440Y004487D02*
X014115Y004487D01*
X014115Y004486D02*
X011440Y004486D01*
X011440Y004485D02*
X014115Y004485D01*
X014115Y004484D02*
X011440Y004484D01*
X011440Y004483D02*
X014115Y004483D01*
X014115Y004482D02*
X011440Y004482D01*
X011440Y004481D02*
X014115Y004481D01*
X014115Y004480D02*
X011440Y004480D01*
X011440Y004479D02*
X014115Y004479D01*
X014115Y004478D02*
X011440Y004478D01*
X011440Y004477D02*
X014115Y004477D01*
X014115Y004476D02*
X011440Y004476D01*
X011440Y004475D02*
X014115Y004475D01*
X014115Y004474D02*
X011440Y004474D01*
X011440Y004473D02*
X014115Y004473D01*
X014115Y004472D02*
X011440Y004472D01*
X011440Y004471D02*
X014115Y004471D01*
X014115Y004470D02*
X011440Y004470D01*
X011440Y004469D02*
X014115Y004469D01*
X014115Y004468D02*
X011440Y004468D01*
X011440Y004467D02*
X014115Y004467D01*
X014115Y004466D02*
X011440Y004466D01*
X011440Y004465D02*
X014115Y004465D01*
X014115Y004464D02*
X011440Y004464D01*
X011440Y004463D02*
X014115Y004463D01*
X014115Y004462D02*
X011440Y004462D01*
X011440Y004461D02*
X014115Y004461D01*
X014115Y004460D02*
X011440Y004460D01*
X011440Y004459D02*
X014115Y004459D01*
X014115Y004458D02*
X011440Y004458D01*
X011440Y004457D02*
X014115Y004457D01*
X014115Y004456D02*
X011440Y004456D01*
X011440Y004455D02*
X014115Y004455D01*
X014115Y004454D02*
X011440Y004454D01*
X011440Y004453D02*
X014115Y004453D01*
X014115Y004452D02*
X011440Y004452D01*
X011440Y004451D02*
X014115Y004451D01*
X014115Y004450D02*
X011440Y004450D01*
X011440Y004449D02*
X014115Y004449D01*
X014115Y004448D02*
X011440Y004448D01*
X011440Y004447D02*
X014115Y004447D01*
X014115Y004446D02*
X011440Y004446D01*
X011440Y004445D02*
X014115Y004445D01*
X014115Y004444D02*
X011440Y004444D01*
X011440Y004443D02*
X014115Y004443D01*
X014115Y004442D02*
X011440Y004442D01*
X011440Y004441D02*
X014115Y004441D01*
X014115Y004440D02*
X011440Y004440D01*
X011440Y004439D02*
X014115Y004439D01*
X014115Y004438D02*
X011440Y004438D01*
X011440Y004437D02*
X014115Y004437D01*
X014115Y004436D02*
X011440Y004436D01*
X011440Y004435D02*
X014115Y004435D01*
X014115Y004434D02*
X011440Y004434D01*
X011440Y004433D02*
X014115Y004433D01*
X014115Y004432D02*
X011440Y004432D01*
X011440Y004431D02*
X014115Y004431D01*
X014115Y004430D02*
X011440Y004430D01*
X011440Y004429D02*
X014115Y004429D01*
X014115Y004428D02*
X011440Y004428D01*
X011440Y004427D02*
X014115Y004427D01*
X014115Y004426D02*
X011440Y004426D01*
X011440Y004425D02*
X014115Y004425D01*
X014115Y004424D02*
X011440Y004424D01*
X011440Y004423D02*
X014115Y004423D01*
X014115Y004422D02*
X011440Y004422D01*
X011440Y004421D02*
X014115Y004421D01*
X014115Y004420D02*
X011440Y004420D01*
X011440Y004419D02*
X014115Y004419D01*
X014115Y004418D02*
X011440Y004418D01*
X011440Y004417D02*
X014115Y004417D01*
X014115Y004416D02*
X011440Y004416D01*
X011440Y004415D02*
X014115Y004415D01*
X014115Y004414D02*
X011440Y004414D01*
X011440Y004413D02*
X014115Y004413D01*
X014115Y004412D02*
X011440Y004412D01*
X011440Y004411D02*
X014115Y004411D01*
X014115Y004410D02*
X011440Y004410D01*
X011440Y004409D02*
X014115Y004409D01*
X014115Y004408D02*
X011440Y004408D01*
X011440Y004407D02*
X014115Y004407D01*
X014115Y004406D02*
X011440Y004406D01*
X011440Y004405D02*
X014115Y004405D01*
X014115Y004404D02*
X011440Y004404D01*
X011440Y004403D02*
X014115Y004403D01*
X014115Y004402D02*
X011440Y004402D01*
X011440Y004401D02*
X014115Y004401D01*
X014115Y004400D02*
X011440Y004400D01*
X011440Y004399D02*
X014115Y004399D01*
X014115Y004398D02*
X011440Y004398D01*
X011440Y004397D02*
X014115Y004397D01*
X014115Y004396D02*
X011440Y004396D01*
X011440Y004395D02*
X014115Y004395D01*
X014115Y004394D02*
X011440Y004394D01*
X011440Y004393D02*
X014115Y004393D01*
X014115Y004392D02*
X011440Y004392D01*
X011440Y004391D02*
X014115Y004391D01*
X014115Y004390D02*
X011440Y004390D01*
X011440Y004389D02*
X014115Y004389D01*
X014115Y004388D02*
X011440Y004388D01*
X011440Y004387D02*
X014115Y004387D01*
X014115Y004386D02*
X011440Y004386D01*
X011440Y004385D02*
X014115Y004385D01*
X014115Y004384D02*
X011440Y004384D01*
X011440Y004383D02*
X014115Y004383D01*
X014115Y004382D02*
X011440Y004382D01*
X011440Y004381D02*
X014115Y004381D01*
X014115Y004380D02*
X011440Y004380D01*
X011440Y004379D02*
X014115Y004379D01*
X014115Y004378D02*
X011440Y004378D01*
X011440Y004377D02*
X014115Y004377D01*
X014115Y004376D02*
X011440Y004376D01*
X011440Y004375D02*
X014115Y004375D01*
X014115Y004374D02*
X011440Y004374D01*
X011440Y004373D02*
X014115Y004373D01*
X014115Y004372D02*
X011440Y004372D01*
X011440Y004371D02*
X014115Y004371D01*
X014115Y004370D02*
X011440Y004370D01*
X011440Y004369D02*
X014115Y004369D01*
X014115Y004368D02*
X011440Y004368D01*
X011440Y004367D02*
X014115Y004367D01*
X014115Y004366D02*
X011440Y004366D01*
X011440Y004365D02*
X014115Y004365D01*
X014115Y004364D02*
X011440Y004364D01*
X011440Y004363D02*
X014115Y004363D01*
X014115Y004362D02*
X011440Y004362D01*
X011440Y004361D02*
X014115Y004361D01*
X014115Y004360D02*
X011440Y004360D01*
X011440Y004359D02*
X014115Y004359D01*
X014115Y004358D02*
X011440Y004358D01*
X011440Y004357D02*
X014115Y004357D01*
X014115Y004356D02*
X011440Y004356D01*
X011440Y004355D02*
X014115Y004355D01*
X014115Y004354D02*
X011440Y004354D01*
X011440Y004353D02*
X014115Y004353D01*
X014115Y004352D02*
X011440Y004352D01*
X011440Y004351D02*
X014115Y004351D01*
X014115Y004350D02*
X011440Y004350D01*
X011440Y004349D02*
X014115Y004349D01*
X014115Y004348D02*
X011440Y004348D01*
X011440Y004347D02*
X014115Y004347D01*
X014115Y004346D02*
X011440Y004346D01*
X011440Y004345D02*
X014115Y004345D01*
X014115Y004344D02*
X011440Y004344D01*
X011440Y004343D02*
X014115Y004343D01*
X014115Y004342D02*
X011440Y004342D01*
X011440Y004341D02*
X014115Y004341D01*
X014115Y004340D02*
X011440Y004340D01*
X011440Y004339D02*
X014115Y004339D01*
X014115Y004338D02*
X011440Y004338D01*
X011440Y004337D02*
X014115Y004337D01*
X014115Y004336D02*
X011440Y004336D01*
X011440Y004335D02*
X014115Y004335D01*
X014115Y004334D02*
X011440Y004334D01*
X011440Y004333D02*
X014115Y004333D01*
X014115Y004332D02*
X011440Y004332D01*
X011440Y004331D02*
X014115Y004331D01*
X014115Y004330D02*
X011440Y004330D01*
X011440Y004329D02*
X014115Y004329D01*
X014115Y004328D02*
X011440Y004328D01*
X011440Y004327D02*
X014115Y004327D01*
X014115Y004326D02*
X011440Y004326D01*
X011440Y004325D02*
X014115Y004325D01*
X014115Y004324D02*
X011440Y004324D01*
X011440Y004323D02*
X014115Y004323D01*
X014115Y004322D02*
X011440Y004322D01*
X011440Y004321D02*
X014115Y004321D01*
X014115Y004320D02*
X011440Y004320D01*
X011440Y004319D02*
X014115Y004319D01*
X014115Y004318D02*
X011440Y004318D01*
X011440Y004317D02*
X014115Y004317D01*
X014115Y004316D02*
X011440Y004316D01*
X011440Y004315D02*
X014115Y004315D01*
X014115Y004314D02*
X011440Y004314D01*
X011440Y004313D02*
X014115Y004313D01*
X014115Y004312D02*
X011440Y004312D01*
X011440Y004311D02*
X014115Y004311D01*
X014115Y004310D02*
X011440Y004310D01*
X011440Y004309D02*
X014115Y004309D01*
X014115Y004308D02*
X011440Y004308D01*
X011440Y004307D02*
X014115Y004307D01*
X014115Y004306D02*
X011440Y004306D01*
X011440Y004305D02*
X014115Y004305D01*
X014115Y004304D02*
X011440Y004304D01*
X011440Y004303D02*
X014115Y004303D01*
X014115Y004302D02*
X011440Y004302D01*
X011440Y004301D02*
X014115Y004301D01*
X014115Y004300D02*
X011440Y004300D01*
X011440Y004299D02*
X014115Y004299D01*
X014115Y004298D02*
X011440Y004298D01*
X011440Y004297D02*
X014115Y004297D01*
X014115Y004296D02*
X011440Y004296D01*
X011440Y004295D02*
X014115Y004295D01*
X014115Y004294D02*
X011440Y004294D01*
X011440Y004293D02*
X014115Y004293D01*
X014115Y004292D02*
X011440Y004292D01*
X011440Y004291D02*
X014115Y004291D01*
X014115Y004290D02*
X011440Y004290D01*
X011440Y004289D02*
X014115Y004289D01*
X014115Y004288D02*
X011440Y004288D01*
X011440Y004287D02*
X014115Y004287D01*
X014115Y004286D02*
X011440Y004286D01*
X011440Y004285D02*
X014115Y004285D01*
X014115Y004284D02*
X011440Y004284D01*
X011440Y004283D02*
X014115Y004283D01*
X014115Y004282D02*
X011440Y004282D01*
X011440Y004281D02*
X014115Y004281D01*
X014115Y004280D02*
X011440Y004280D01*
X011440Y004279D02*
X014115Y004279D01*
X014115Y004278D02*
X011440Y004278D01*
X011440Y004277D02*
X014115Y004277D01*
X014115Y004276D02*
X011440Y004276D01*
X011440Y004275D02*
X014115Y004275D01*
X014115Y004274D02*
X011440Y004274D01*
X011440Y004273D02*
X014115Y004273D01*
X014115Y004272D02*
X011440Y004272D01*
X011440Y004271D02*
X014115Y004271D01*
X014115Y004270D02*
X011440Y004270D01*
X011440Y004269D02*
X014115Y004269D01*
X014115Y004268D02*
X011440Y004268D01*
X011440Y004267D02*
X014115Y004267D01*
X014115Y004266D02*
X011440Y004266D01*
X011440Y004265D02*
X014115Y004265D01*
X014115Y004264D02*
X011440Y004264D01*
X011440Y004263D02*
X014115Y004263D01*
X014115Y004262D02*
X011440Y004262D01*
X011440Y004261D02*
X014115Y004261D01*
X014115Y004260D02*
X011440Y004260D01*
X011440Y004259D02*
X014115Y004259D01*
X014115Y004258D02*
X011440Y004258D01*
X011440Y004257D02*
X014115Y004257D01*
X014115Y004256D02*
X011440Y004256D01*
X011440Y004255D02*
X014115Y004255D01*
X014115Y004254D02*
X011440Y004254D01*
X011440Y004253D02*
X014115Y004253D01*
X014115Y004252D02*
X011440Y004252D01*
X011440Y004251D02*
X014115Y004251D01*
X014115Y004250D02*
X011440Y004250D01*
X011440Y004249D02*
X014115Y004249D01*
X014115Y004248D02*
X011440Y004248D01*
X011440Y004247D02*
X014115Y004247D01*
X014115Y004246D02*
X011440Y004246D01*
X011440Y004245D02*
X014115Y004245D01*
X014115Y004244D02*
X011440Y004244D01*
X011440Y004243D02*
X014115Y004243D01*
X014115Y004242D02*
X011440Y004242D01*
X011440Y004241D02*
X014115Y004241D01*
X014115Y004240D02*
X011440Y004240D01*
X011440Y004239D02*
X014115Y004239D01*
X014115Y004238D02*
X011440Y004238D01*
X011440Y004237D02*
X014115Y004237D01*
X014115Y004236D02*
X011440Y004236D01*
X011440Y004235D02*
X014115Y004235D01*
X014115Y004234D02*
X011440Y004234D01*
X011440Y004233D02*
X014115Y004233D01*
X014115Y004232D02*
X011440Y004232D01*
X011440Y004231D02*
X014115Y004231D01*
X014115Y004230D02*
X011440Y004230D01*
X011440Y004229D02*
X014115Y004229D01*
X014115Y004228D02*
X011440Y004228D01*
X011440Y004227D02*
X014115Y004227D01*
X014115Y004226D02*
X011440Y004226D01*
X011440Y004225D02*
X014115Y004225D01*
X014115Y004224D02*
X011440Y004224D01*
X011440Y004223D02*
X014115Y004223D01*
X014115Y004222D02*
X011440Y004222D01*
X011440Y004221D02*
X014115Y004221D01*
X014115Y004220D02*
X011440Y004220D01*
X011440Y004219D02*
X014115Y004219D01*
X014115Y004218D02*
X011440Y004218D01*
X011440Y004217D02*
X014115Y004217D01*
X014115Y004216D02*
X011440Y004216D01*
X011440Y004215D02*
X014115Y004215D01*
X014115Y004214D02*
X011440Y004214D01*
X011440Y004213D02*
X014115Y004213D01*
X014115Y004212D02*
X011440Y004212D01*
X011440Y004211D02*
X014115Y004211D01*
X014115Y004210D02*
X011440Y004210D01*
X011440Y004209D02*
X014115Y004209D01*
X014115Y004208D02*
X011440Y004208D01*
X011440Y004207D02*
X014115Y004207D01*
X014115Y004206D02*
X011440Y004206D01*
X011440Y004205D02*
X014115Y004205D01*
X014115Y004204D02*
X011440Y004204D01*
X011440Y004203D02*
X014115Y004203D01*
X014115Y004202D02*
X011440Y004202D01*
X011440Y004201D02*
X014115Y004201D01*
X014115Y004200D02*
X011440Y004200D01*
X011440Y004199D02*
X014115Y004199D01*
X014115Y004198D02*
X011440Y004198D01*
X011440Y004197D02*
X014115Y004197D01*
X014115Y004196D02*
X011440Y004196D01*
X011440Y004195D02*
X014115Y004195D01*
X014115Y004194D02*
X011440Y004194D01*
X011440Y004193D02*
X014115Y004193D01*
X014115Y004192D02*
X011440Y004192D01*
X011440Y004191D02*
X014115Y004191D01*
X014115Y004190D02*
X011440Y004190D01*
X011440Y004189D02*
X014115Y004189D01*
X014115Y004188D02*
X011440Y004188D01*
X011440Y004187D02*
X014115Y004187D01*
X014115Y004186D02*
X011440Y004186D01*
X011440Y004185D02*
X014115Y004185D01*
X014115Y004184D02*
X011440Y004184D01*
X011440Y004183D02*
X014115Y004183D01*
X014115Y004182D02*
X011440Y004182D01*
X011440Y004181D02*
X014115Y004181D01*
X014115Y004180D02*
X011440Y004180D01*
X011440Y004179D02*
X014115Y004179D01*
X014115Y004178D02*
X011440Y004178D01*
X011440Y004177D02*
X014115Y004177D01*
X014115Y004176D02*
X011440Y004176D01*
X011440Y004175D02*
X014115Y004175D01*
X014115Y004174D02*
X011440Y004174D01*
X011440Y004173D02*
X014115Y004173D01*
X014115Y004172D02*
X011440Y004172D01*
X011440Y004171D02*
X014115Y004171D01*
X014115Y004170D02*
X011440Y004170D01*
X011440Y004169D02*
X014115Y004169D01*
X014115Y004168D02*
X011440Y004168D01*
X011440Y004167D02*
X014115Y004167D01*
X014115Y004166D02*
X011440Y004166D01*
X011440Y004165D02*
X014115Y004165D01*
X014115Y004164D02*
X011440Y004164D01*
X011440Y004163D02*
X014115Y004163D01*
X014115Y004162D02*
X011440Y004162D01*
X011440Y004161D02*
X014115Y004161D01*
X014115Y004160D02*
X011440Y004160D01*
X011440Y004159D02*
X014115Y004159D01*
X014115Y004158D02*
X011440Y004158D01*
X011440Y004157D02*
X014115Y004157D01*
X014115Y004156D02*
X011440Y004156D01*
X011440Y004155D02*
X014115Y004155D01*
X014115Y004154D02*
X011440Y004154D01*
X011440Y004153D02*
X014115Y004153D01*
X014115Y004152D02*
X011440Y004152D01*
X011440Y004151D02*
X014115Y004151D01*
X014115Y004150D02*
X011440Y004150D01*
X011440Y004149D02*
X014115Y004149D01*
X014115Y004148D02*
X011440Y004148D01*
X011440Y004147D02*
X014115Y004147D01*
X014115Y004146D02*
X011440Y004146D01*
X011440Y004145D02*
X014115Y004145D01*
X014115Y004144D02*
X011440Y004144D01*
X011440Y004143D02*
X014115Y004143D01*
X014115Y004142D02*
X011440Y004142D01*
X011440Y004141D02*
X014115Y004141D01*
X014115Y004140D02*
X011440Y004140D01*
X011440Y004139D02*
X014115Y004139D01*
X014115Y004138D02*
X011440Y004138D01*
X011440Y004137D02*
X014115Y004137D01*
X014115Y004136D02*
X011440Y004136D01*
X011440Y004135D02*
X014115Y004135D01*
X014115Y004134D02*
X011440Y004134D01*
X011440Y004133D02*
X014115Y004133D01*
X014115Y004132D02*
X011440Y004132D01*
X011440Y004131D02*
X014115Y004131D01*
X014115Y004130D02*
X011440Y004130D01*
X011440Y004129D02*
X014115Y004129D01*
X014115Y004128D02*
X011440Y004128D01*
X011440Y004127D02*
X014115Y004127D01*
X014115Y004126D02*
X011440Y004126D01*
X011440Y004125D02*
X014115Y004125D01*
X014115Y004124D02*
X011440Y004124D01*
X011440Y004123D02*
X014115Y004123D01*
X014115Y004122D02*
X011440Y004122D01*
X011440Y004121D02*
X014115Y004121D01*
X014115Y004120D02*
X011440Y004120D01*
X011440Y004119D02*
X014115Y004119D01*
X014115Y004118D02*
X011440Y004118D01*
X011440Y004117D02*
X014115Y004117D01*
X014115Y004116D02*
X011440Y004116D01*
X011440Y004115D02*
X014115Y004115D01*
X014115Y004114D02*
X011440Y004114D01*
X011440Y004113D02*
X014115Y004113D01*
X014115Y004112D02*
X011440Y004112D01*
X011440Y004111D02*
X014115Y004111D01*
X014115Y004110D02*
X011440Y004110D01*
X011440Y004109D02*
X014115Y004109D01*
X014115Y004108D02*
X011440Y004108D01*
X011440Y004107D02*
X014115Y004107D01*
X014115Y004106D02*
X011440Y004106D01*
X011440Y004105D02*
X014115Y004105D01*
X014115Y004104D02*
X011440Y004104D01*
X011440Y004103D02*
X014115Y004103D01*
X014115Y004102D02*
X011440Y004102D01*
X011440Y004101D02*
X014115Y004101D01*
X014115Y004100D02*
X011440Y004100D01*
X011440Y004099D02*
X014115Y004099D01*
X014115Y004098D02*
X011440Y004098D01*
X011440Y004097D02*
X014115Y004097D01*
X014115Y004096D02*
X011440Y004096D01*
X011440Y004095D02*
X014115Y004095D01*
X014115Y004094D02*
X011440Y004094D01*
X011440Y004093D02*
X014115Y004093D01*
X014115Y004092D02*
X011440Y004092D01*
X011440Y004091D02*
X014115Y004091D01*
X014115Y004090D02*
X011440Y004090D01*
X011440Y004089D02*
X014115Y004089D01*
X014115Y004088D02*
X011440Y004088D01*
X011440Y004087D02*
X014115Y004087D01*
X014115Y004086D02*
X011440Y004086D01*
X011440Y004085D02*
X014115Y004085D01*
X014115Y004084D02*
X011440Y004084D01*
X011440Y004083D02*
X014115Y004083D01*
X014115Y004082D02*
X011440Y004082D01*
X011440Y004081D02*
X014115Y004081D01*
X014115Y004080D02*
X011440Y004080D01*
X011440Y004079D02*
X014115Y004079D01*
X014115Y004078D02*
X011440Y004078D01*
X011440Y004077D02*
X014115Y004077D01*
X014115Y004076D02*
X011440Y004076D01*
X011440Y004075D02*
X014115Y004075D01*
X014115Y004074D02*
X011440Y004074D01*
X011440Y004073D02*
X014115Y004073D01*
X014115Y004072D02*
X011440Y004072D01*
X011440Y004071D02*
X014115Y004071D01*
X014115Y004070D02*
X011440Y004070D01*
X011440Y004069D02*
X014115Y004069D01*
X014115Y004068D02*
X011440Y004068D01*
X011440Y004067D02*
X014115Y004067D01*
X014115Y004066D02*
X011440Y004066D01*
X011440Y004065D02*
X014115Y004065D01*
X014115Y004064D02*
X011440Y004064D01*
X011440Y004063D02*
X014115Y004063D01*
X014115Y004062D02*
X011440Y004062D01*
X011440Y004061D02*
X014115Y004061D01*
X014115Y004060D02*
X011440Y004060D01*
X011440Y004059D02*
X014115Y004059D01*
X014115Y004058D02*
X011440Y004058D01*
X011440Y004057D02*
X014115Y004057D01*
X014115Y004056D02*
X011440Y004056D01*
X011440Y004055D02*
X014115Y004055D01*
X014115Y004054D02*
X011440Y004054D01*
X011440Y004053D02*
X014115Y004053D01*
X014115Y004052D02*
X011440Y004052D01*
X011440Y004051D02*
X014115Y004051D01*
X014115Y004050D02*
X011440Y004050D01*
X011440Y004049D02*
X014115Y004049D01*
X014115Y004048D02*
X011440Y004048D01*
X011440Y004047D02*
X014115Y004047D01*
X014115Y004046D02*
X011440Y004046D01*
X011440Y004045D02*
X014115Y004045D01*
X014115Y004044D02*
X011440Y004044D01*
X011440Y004043D02*
X014115Y004043D01*
X014115Y004042D02*
X011440Y004042D01*
X011440Y004041D02*
X014115Y004041D01*
X014115Y004040D02*
X011440Y004040D01*
X011440Y004039D02*
X014115Y004039D01*
X014115Y004038D02*
X011440Y004038D01*
X011440Y004037D02*
X014115Y004037D01*
X014115Y004036D02*
X011440Y004036D01*
X011440Y004035D02*
X014115Y004035D01*
X014115Y004034D02*
X011440Y004034D01*
X011440Y004033D02*
X014115Y004033D01*
X014115Y004032D02*
X011440Y004032D01*
X011440Y004031D02*
X014115Y004031D01*
X014115Y004030D02*
X011440Y004030D01*
X011440Y004029D02*
X014115Y004029D01*
X014115Y004028D02*
X011440Y004028D01*
X011440Y004027D02*
X014115Y004027D01*
X014115Y004026D02*
X011440Y004026D01*
X011440Y004025D02*
X014115Y004025D01*
X014115Y004024D02*
X011440Y004024D01*
X011440Y004023D02*
X014115Y004023D01*
X014115Y004022D02*
X011440Y004022D01*
X011440Y004021D02*
X014115Y004021D01*
X014115Y004020D02*
X011440Y004020D01*
X011440Y004019D02*
X014115Y004019D01*
X014115Y004018D02*
X011440Y004018D01*
X011440Y004017D02*
X014115Y004017D01*
X014115Y004016D02*
X011440Y004016D01*
X011440Y004015D02*
X014115Y004015D01*
X014115Y004014D02*
X011440Y004014D01*
X011440Y004013D02*
X014115Y004013D01*
X014115Y004012D02*
X011440Y004012D01*
X011440Y004011D02*
X014115Y004011D01*
X014115Y004010D02*
X011440Y004010D01*
X011440Y004009D02*
X014115Y004009D01*
X014115Y004008D02*
X011440Y004008D01*
X011440Y004007D02*
X014115Y004007D01*
X014115Y004006D02*
X011440Y004006D01*
X011440Y004005D02*
X014115Y004005D01*
X014115Y004004D02*
X011440Y004004D01*
X011440Y004003D02*
X014115Y004003D01*
X011440Y004003D01*
X011440Y004002D02*
X014115Y004002D01*
X014115Y004001D02*
X011440Y004001D01*
X011440Y004000D02*
X014115Y004000D01*
X014115Y003999D02*
X011440Y003999D01*
X011440Y003998D02*
X014115Y003998D01*
X014115Y003997D02*
X011440Y003997D01*
X011440Y003996D02*
X014115Y003996D01*
X014115Y003995D02*
X011440Y003995D01*
X011440Y003994D02*
X014115Y003994D01*
X014115Y003993D02*
X011440Y003993D01*
X011440Y003992D02*
X014115Y003992D01*
X014115Y003991D02*
X011440Y003991D01*
X011440Y003990D02*
X014115Y003990D01*
X014115Y003989D02*
X011440Y003989D01*
X011440Y003988D02*
X014115Y003988D01*
X014115Y003987D02*
X011440Y003987D01*
X011440Y003986D02*
X014115Y003986D01*
X014115Y003985D02*
X011440Y003985D01*
X011440Y003984D02*
X014115Y003984D01*
X014115Y003983D02*
X011440Y003983D01*
X011440Y003982D02*
X014115Y003982D01*
X014115Y003981D02*
X011440Y003981D01*
X011440Y003980D02*
X014115Y003980D01*
X014115Y003979D02*
X011440Y003979D01*
X011440Y003978D02*
X014115Y003978D01*
X014115Y003977D02*
X011440Y003977D01*
X011440Y003976D02*
X014115Y003976D01*
X014115Y003975D02*
X011440Y003975D01*
X011440Y003974D02*
X014115Y003974D01*
X014115Y003973D02*
X011440Y003973D01*
X011440Y003972D02*
X014115Y003972D01*
X014115Y003971D02*
X011440Y003971D01*
X011440Y003970D02*
X014115Y003970D01*
X014115Y003969D02*
X011440Y003969D01*
X011440Y003968D02*
X014115Y003968D01*
X014115Y003967D02*
X011440Y003967D01*
X011440Y003966D02*
X014115Y003966D01*
X014115Y003965D02*
X011440Y003965D01*
X011440Y003964D02*
X014115Y003964D01*
X014115Y003963D02*
X011440Y003963D01*
X011440Y003962D02*
X014115Y003962D01*
X014115Y003961D02*
X011440Y003961D01*
X011440Y003960D02*
X014115Y003960D01*
X014115Y003959D02*
X011440Y003959D01*
X011440Y003958D02*
X014115Y003958D01*
X014115Y003957D02*
X011440Y003957D01*
X011440Y003956D02*
X014115Y003956D01*
X014115Y003955D02*
X011440Y003955D01*
X011440Y003954D02*
X014115Y003954D01*
X014115Y003953D02*
X011440Y003953D01*
X011440Y003952D02*
X014115Y003952D01*
X014115Y003951D02*
X011440Y003951D01*
X011440Y003950D02*
X014115Y003950D01*
X014115Y003949D02*
X011440Y003949D01*
X011440Y003948D02*
X014115Y003948D01*
X014115Y003947D02*
X011440Y003947D01*
X011440Y003946D02*
X014115Y003946D01*
X014115Y003945D02*
X011440Y003945D01*
X011440Y003944D02*
X014115Y003944D01*
X014115Y003943D02*
X011440Y003943D01*
X011440Y003942D02*
X014115Y003942D01*
X014115Y003941D02*
X011440Y003941D01*
X011440Y003940D02*
X014115Y003940D01*
X014115Y003939D02*
X011440Y003939D01*
X011440Y003938D02*
X014115Y003938D01*
X014115Y003937D02*
X011440Y003937D01*
X011440Y003936D02*
X014115Y003936D01*
X014115Y003935D02*
X011440Y003935D01*
X011440Y003934D02*
X014115Y003934D01*
X014115Y003933D02*
X011440Y003933D01*
X011440Y003932D02*
X014115Y003932D01*
X014115Y003931D02*
X011440Y003931D01*
X011440Y003930D02*
X014115Y003930D01*
X014115Y003929D02*
X011440Y003929D01*
X011440Y003928D02*
X014115Y003928D01*
X014115Y003927D02*
X011440Y003927D01*
X011440Y003926D02*
X014115Y003926D01*
X014115Y003925D02*
X011440Y003925D01*
X011440Y003924D02*
X014115Y003924D01*
X014115Y003923D02*
X011440Y003923D01*
X011440Y003922D02*
X014115Y003922D01*
X014115Y003921D02*
X011440Y003921D01*
X011440Y003920D02*
X014115Y003920D01*
X014115Y003919D02*
X011440Y003919D01*
X011440Y003918D02*
X014115Y003918D01*
X014115Y003917D02*
X011440Y003917D01*
X011440Y003916D02*
X014115Y003916D01*
X014115Y003915D02*
X011440Y003915D01*
X011440Y003914D02*
X014115Y003914D01*
X014115Y003913D02*
X011440Y003913D01*
X011440Y003912D02*
X014115Y003912D01*
X014115Y003911D02*
X011440Y003911D01*
X011440Y003910D02*
X014115Y003910D01*
X014115Y003909D02*
X011440Y003909D01*
X011440Y003908D02*
X014115Y003908D01*
X014115Y003907D02*
X011440Y003907D01*
X011440Y003906D02*
X014115Y003906D01*
X014115Y003905D02*
X011440Y003905D01*
X011440Y003904D02*
X014115Y003904D01*
X014115Y003903D02*
X011440Y003903D01*
X011440Y003902D02*
X014115Y003902D01*
X014115Y003901D02*
X011440Y003901D01*
X011440Y003900D02*
X014115Y003900D01*
X014115Y003899D02*
X011440Y003899D01*
X011440Y003898D02*
X014115Y003898D01*
X014115Y003897D02*
X011440Y003897D01*
X011440Y003896D02*
X014115Y003896D01*
X014115Y003895D02*
X011440Y003895D01*
X011440Y003894D02*
X014115Y003894D01*
X014115Y003893D02*
X011440Y003893D01*
X011440Y003892D02*
X014115Y003892D01*
X014115Y003891D02*
X011440Y003891D01*
X011440Y003890D02*
X014115Y003890D01*
X014115Y003889D02*
X011440Y003889D01*
X011440Y003888D02*
X014115Y003888D01*
X014115Y003887D02*
X011440Y003887D01*
X011440Y003886D02*
X014115Y003886D01*
X014115Y003885D02*
X011440Y003885D01*
X011440Y003884D02*
X014115Y003884D01*
X014115Y003883D02*
X011440Y003883D01*
X011440Y003882D02*
X014115Y003882D01*
X014115Y003881D02*
X011440Y003881D01*
X011440Y003880D02*
X014115Y003880D01*
X014115Y003879D02*
X011440Y003879D01*
X011440Y003878D02*
X014115Y003878D01*
X014115Y003877D02*
X011440Y003877D01*
X011440Y003876D02*
X014115Y003876D01*
X014115Y003875D02*
X011440Y003875D01*
X011440Y003874D02*
X014115Y003874D01*
X014115Y003873D02*
X011440Y003873D01*
X011440Y003872D02*
X014115Y003872D01*
X014115Y003871D02*
X011440Y003871D01*
X011440Y003870D02*
X014115Y003870D01*
X014115Y003869D02*
X011440Y003869D01*
X011440Y003868D02*
X014115Y003868D01*
X014115Y003867D02*
X011440Y003867D01*
X011440Y003866D02*
X014115Y003866D01*
X014115Y003865D02*
X011440Y003865D01*
X011440Y003864D02*
X014115Y003864D01*
X014115Y003863D02*
X011440Y003863D01*
X011440Y003862D02*
X014115Y003862D01*
X014115Y003861D02*
X011440Y003861D01*
X011440Y003860D02*
X014115Y003860D01*
X014115Y003859D02*
X011440Y003859D01*
X011440Y003858D02*
X014115Y003858D01*
X014115Y003857D02*
X011440Y003857D01*
X011440Y003856D02*
X014115Y003856D01*
X014115Y003855D02*
X011440Y003855D01*
X011440Y003854D02*
X014115Y003854D01*
X014115Y003853D02*
X011440Y003853D01*
X011440Y003852D02*
X014115Y003852D01*
X014115Y003851D02*
X011440Y003851D01*
X011440Y003850D02*
X014115Y003850D01*
X014115Y003849D02*
X011440Y003849D01*
X011440Y003848D02*
X014115Y003848D01*
X014115Y003847D02*
X011440Y003847D01*
X011440Y003846D02*
X014115Y003846D01*
X014115Y003845D02*
X011440Y003845D01*
X011440Y003844D02*
X014115Y003844D01*
X014115Y003843D02*
X011440Y003843D01*
X011440Y003842D02*
X014115Y003842D01*
X014115Y003841D02*
X011440Y003841D01*
X011440Y003840D02*
X014115Y003840D01*
X014115Y003839D02*
X011440Y003839D01*
X011440Y003838D02*
X014115Y003838D01*
X014115Y003837D02*
X011440Y003837D01*
X011440Y003836D02*
X014115Y003836D01*
X014115Y003835D02*
X011440Y003835D01*
X011440Y003834D02*
X014115Y003834D01*
X014115Y003833D02*
X011440Y003833D01*
X011440Y003832D02*
X014115Y003832D01*
X014115Y003831D02*
X011440Y003831D01*
X011440Y003830D02*
X014115Y003830D01*
X014115Y003829D02*
X011440Y003829D01*
X011440Y003828D02*
X014115Y003828D01*
X014115Y003827D02*
X011440Y003827D01*
X011440Y003826D02*
X014115Y003826D01*
X014115Y003825D02*
X011440Y003825D01*
X011440Y003824D02*
X014115Y003824D01*
X014115Y003823D02*
X011440Y003823D01*
X011440Y003822D02*
X014115Y003822D01*
X014115Y003821D02*
X011440Y003821D01*
X011440Y003820D02*
X014115Y003820D01*
X014115Y003819D02*
X011440Y003819D01*
X011440Y003818D02*
X014115Y003818D01*
X014115Y003817D02*
X011440Y003817D01*
X011440Y003816D02*
X014115Y003816D01*
X014115Y003815D02*
X011440Y003815D01*
X011440Y003814D02*
X014115Y003814D01*
X014115Y003813D02*
X011440Y003813D01*
X011440Y003812D02*
X014115Y003812D01*
X014115Y003811D02*
X011440Y003811D01*
X011440Y003810D02*
X014115Y003810D01*
X014115Y003809D02*
X011440Y003809D01*
X011440Y003808D02*
X014115Y003808D01*
X014115Y003807D02*
X011440Y003807D01*
X011440Y003806D02*
X014115Y003806D01*
X014115Y003805D02*
X011440Y003805D01*
X011440Y003804D02*
X014115Y003804D01*
X014115Y003803D02*
X011440Y003803D01*
X011440Y003802D02*
X014115Y003802D01*
X014115Y003801D02*
X011440Y003801D01*
X011565Y003800D02*
X014115Y003800D01*
X014115Y003799D02*
X011566Y003799D01*
X011567Y003798D02*
X014115Y003798D01*
X014115Y003797D02*
X011568Y003797D01*
X011569Y003796D02*
X014115Y003796D01*
X014115Y003795D02*
X011570Y003795D01*
X011571Y003794D02*
X014115Y003794D01*
X014115Y003793D02*
X011572Y003793D01*
X011573Y003792D02*
X014115Y003792D01*
X014115Y003791D02*
X011574Y003791D01*
X011575Y003790D02*
X014115Y003790D01*
X014115Y003789D02*
X011576Y003789D01*
X011577Y003788D02*
X014115Y003788D01*
X014115Y003787D02*
X011578Y003787D01*
X011579Y003786D02*
X014115Y003786D01*
X014115Y003785D02*
X011580Y003785D01*
X011581Y003784D02*
X014115Y003784D01*
X014115Y003783D02*
X011582Y003783D01*
X011583Y003782D02*
X014115Y003782D01*
X014115Y003781D02*
X011584Y003781D01*
X011585Y003780D02*
X014115Y003780D01*
X014115Y003779D02*
X011586Y003779D01*
X011587Y003778D02*
X014115Y003778D01*
X014115Y003777D02*
X011588Y003777D01*
X011589Y003776D02*
X014115Y003776D01*
X014115Y003775D02*
X011590Y003775D01*
X011591Y003774D02*
X014115Y003774D01*
X014115Y003773D02*
X011592Y003773D01*
X011593Y003772D02*
X014115Y003772D01*
X014115Y003771D02*
X011594Y003771D01*
X011595Y003770D02*
X014115Y003770D01*
X014115Y003769D02*
X011596Y003769D01*
X011597Y003768D02*
X014115Y003768D01*
X014115Y003767D02*
X011598Y003767D01*
X011599Y003766D02*
X014115Y003766D01*
X014115Y003765D02*
X011600Y003765D01*
X011601Y003764D02*
X014115Y003764D01*
X014115Y003763D02*
X011602Y003763D01*
X011603Y003762D02*
X014115Y003762D01*
X014115Y003761D02*
X011604Y003761D01*
X011605Y003760D02*
X014115Y003760D01*
X014115Y003759D02*
X011606Y003759D01*
X011607Y003758D02*
X014115Y003758D01*
X014115Y003757D02*
X011608Y003757D01*
X011609Y003756D02*
X014115Y003756D01*
X014115Y003755D02*
X011610Y003755D01*
X011611Y003754D02*
X014115Y003754D01*
X014115Y003753D02*
X011612Y003753D01*
X011613Y003752D02*
X014115Y003752D01*
X014115Y003751D02*
X011614Y003751D01*
X011615Y003750D02*
X014115Y003750D01*
X014115Y003749D02*
X011616Y003749D01*
X011617Y003748D02*
X014115Y003748D01*
X014115Y003747D02*
X011618Y003747D01*
X011619Y003746D02*
X014115Y003746D01*
X014115Y003745D02*
X011620Y003745D01*
X011621Y003744D02*
X014115Y003744D01*
X014115Y003743D02*
X011622Y003743D01*
X011623Y003742D02*
X014115Y003742D01*
X014115Y003741D02*
X011624Y003741D01*
X011625Y003740D02*
X014115Y003740D01*
X014115Y003739D02*
X011626Y003739D01*
X011627Y003738D02*
X014115Y003738D01*
X014115Y003737D02*
X011628Y003737D01*
X011629Y003736D02*
X014115Y003736D01*
X014115Y003735D02*
X011630Y003735D01*
X011631Y003734D02*
X014115Y003734D01*
X014115Y003733D02*
X011632Y003733D01*
X011633Y003732D02*
X014115Y003732D01*
X014115Y003731D02*
X011634Y003731D01*
X011635Y003730D02*
X014115Y003730D01*
X014115Y003729D02*
X011636Y003729D01*
X011637Y003728D02*
X014115Y003728D01*
X014115Y003727D02*
X011638Y003727D01*
X011639Y003726D02*
X014115Y003726D01*
X014115Y003725D02*
X013140Y003725D01*
X013141Y003724D02*
X014115Y003724D01*
X014115Y003723D02*
X013141Y003723D01*
X013142Y003722D02*
X014115Y003722D01*
X014115Y003721D02*
X013142Y003721D01*
X013143Y003720D02*
X014115Y003720D01*
X014115Y003719D02*
X013143Y003719D01*
X013144Y003718D02*
X014115Y003718D01*
X014115Y003717D02*
X013144Y003717D01*
X013145Y003716D02*
X014115Y003716D01*
X014115Y003715D02*
X013145Y003715D01*
X013146Y003714D02*
X014115Y003714D01*
X014115Y003713D02*
X013146Y003713D01*
X013147Y003712D02*
X014115Y003712D01*
X014115Y003711D02*
X013147Y003711D01*
X013148Y003710D02*
X014115Y003710D01*
X014115Y003709D02*
X013148Y003709D01*
X013149Y003708D02*
X014115Y003708D01*
X014115Y003707D02*
X013149Y003707D01*
X013150Y003706D02*
X014115Y003706D01*
X014115Y003705D02*
X013150Y003705D01*
X013151Y003704D02*
X014115Y003704D01*
X014115Y003703D02*
X013151Y003703D01*
X013152Y003702D02*
X014115Y003702D01*
X014115Y003701D02*
X013152Y003701D01*
X013153Y003700D02*
X014115Y003700D01*
X014115Y003699D02*
X013153Y003699D01*
X013154Y003698D02*
X014115Y003698D01*
X014115Y003697D02*
X013154Y003697D01*
X013155Y003696D02*
X014115Y003696D01*
X014115Y003695D02*
X013155Y003695D01*
X013156Y003694D02*
X014115Y003694D01*
X014115Y003693D02*
X013156Y003693D01*
X013157Y003692D02*
X014115Y003692D01*
X014115Y003691D02*
X013157Y003691D01*
X013158Y003690D02*
X014115Y003690D01*
X014115Y003689D02*
X013158Y003689D01*
X013159Y003688D02*
X014115Y003688D01*
X014115Y003687D02*
X013159Y003687D01*
X013160Y003686D02*
X014115Y003686D01*
X014115Y003685D02*
X013160Y003685D01*
X013161Y003684D02*
X014115Y003684D01*
X014115Y003683D02*
X013161Y003683D01*
X013162Y003682D02*
X014115Y003682D01*
X014115Y003681D02*
X013162Y003681D01*
X013163Y003680D02*
X014115Y003680D01*
X014115Y003679D02*
X013163Y003679D01*
X013164Y003678D02*
X014115Y003678D01*
X014115Y003677D02*
X013164Y003677D01*
X013165Y003676D02*
X014115Y003676D01*
X014115Y003675D02*
X013165Y003675D01*
X013166Y003674D02*
X014115Y003674D01*
X014115Y003673D02*
X013166Y003673D01*
X013167Y003672D02*
X014115Y003672D01*
X014115Y003671D02*
X013167Y003671D01*
X013168Y003670D02*
X014115Y003670D01*
X014115Y003669D02*
X013168Y003669D01*
X013169Y003668D02*
X014115Y003668D01*
X014115Y003667D02*
X013169Y003667D01*
X013170Y003666D02*
X014115Y003666D01*
X014115Y003665D02*
X013170Y003665D01*
X013171Y003664D02*
X014115Y003664D01*
X014115Y003663D02*
X013171Y003663D01*
X013172Y003662D02*
X014115Y003662D01*
X014115Y003661D02*
X013172Y003661D01*
X013173Y003660D02*
X014115Y003660D01*
X014115Y003659D02*
X013173Y003659D01*
X013174Y003658D02*
X014115Y003658D01*
X014115Y003657D02*
X013174Y003657D01*
X013175Y003656D02*
X014115Y003656D01*
X014115Y003655D02*
X013175Y003655D01*
X013176Y003654D02*
X014115Y003654D01*
X014115Y003653D02*
X013176Y003653D01*
X013177Y003652D02*
X014115Y003652D01*
X014115Y003651D02*
X013177Y003651D01*
X013178Y003650D02*
X014115Y003650D01*
X014115Y003649D02*
X013178Y003649D01*
X013179Y003648D02*
X014115Y003648D01*
X014115Y003647D02*
X013179Y003647D01*
X013180Y003646D02*
X014115Y003646D01*
X014115Y003645D02*
X013180Y003645D01*
X013181Y003644D02*
X014115Y003644D01*
X014115Y003643D02*
X013181Y003643D01*
X013182Y003642D02*
X014115Y003642D01*
X014115Y003641D02*
X013182Y003641D01*
X013183Y003640D02*
X014115Y003640D01*
X014115Y003639D02*
X013183Y003639D01*
X013184Y003638D02*
X014115Y003638D01*
X014115Y003637D02*
X013184Y003637D01*
X013185Y003636D02*
X014115Y003636D01*
X014115Y003635D02*
X013185Y003635D01*
X013186Y003634D02*
X014115Y003634D01*
X014115Y003633D02*
X013186Y003633D01*
X013187Y003632D02*
X014115Y003632D01*
X014115Y003631D02*
X013187Y003631D01*
X013188Y003630D02*
X014115Y003630D01*
X014115Y003629D02*
X013188Y003629D01*
X013189Y003628D02*
X014115Y003628D01*
X014115Y003627D02*
X013189Y003627D01*
X013190Y003626D02*
X014115Y003626D01*
X014115Y003625D02*
X013190Y003625D01*
X013191Y003624D02*
X014115Y003624D01*
X014115Y003623D02*
X013191Y003623D01*
X013192Y003622D02*
X014115Y003622D01*
X014115Y003621D02*
X013192Y003621D01*
X013193Y003620D02*
X014115Y003620D01*
X014115Y003619D02*
X013193Y003619D01*
X013194Y003618D02*
X014115Y003618D01*
X014115Y003617D02*
X013194Y003617D01*
X013195Y003616D02*
X014115Y003616D01*
X014115Y003615D02*
X013195Y003615D01*
X013196Y003614D02*
X014115Y003614D01*
X014115Y003613D02*
X013196Y003613D01*
X013197Y003612D02*
X014115Y003612D01*
X014115Y003611D02*
X013197Y003611D01*
X013198Y003610D02*
X014115Y003610D01*
X014115Y003609D02*
X013198Y003609D01*
X013199Y003608D02*
X014115Y003608D01*
X014115Y003607D02*
X013199Y003607D01*
X013200Y003606D02*
X014115Y003606D01*
X014115Y003605D02*
X013200Y003605D01*
X013201Y003604D02*
X014115Y003604D01*
X014115Y003603D02*
X013201Y003603D01*
X013202Y003602D02*
X014115Y003602D01*
X014115Y003601D02*
X013202Y003601D01*
X013203Y003600D02*
X014115Y003600D01*
X014115Y003599D02*
X013203Y003599D01*
X013204Y003598D02*
X014115Y003598D01*
X014115Y003597D02*
X013204Y003597D01*
X013205Y003596D02*
X014115Y003596D01*
X014115Y003595D02*
X013205Y003595D01*
X013206Y003594D02*
X014115Y003594D01*
X014115Y003593D02*
X013206Y003593D01*
X013207Y003592D02*
X014115Y003592D01*
X014115Y003591D02*
X013207Y003591D01*
X013208Y003590D02*
X014115Y003590D01*
X014115Y003589D02*
X013208Y003589D01*
X013209Y003588D02*
X014115Y003588D01*
X014115Y003587D02*
X013209Y003587D01*
X013210Y003586D02*
X014115Y003586D01*
X014115Y003585D02*
X013210Y003585D01*
X013211Y003584D02*
X014115Y003584D01*
X014115Y003583D02*
X013211Y003583D01*
X013212Y003582D02*
X014115Y003582D01*
X014115Y003581D02*
X013212Y003581D01*
X013213Y003580D02*
X014115Y003580D01*
X014115Y003579D02*
X013213Y003579D01*
X013214Y003578D02*
X014115Y003578D01*
X014115Y003577D02*
X013214Y003577D01*
X013215Y003576D02*
X014115Y003576D01*
X014115Y003575D02*
X013215Y003575D01*
X013216Y003574D02*
X014115Y003574D01*
X014115Y003573D02*
X013216Y003573D01*
X013217Y003572D02*
X014115Y003572D01*
X014115Y003571D02*
X013217Y003571D01*
X013218Y003570D02*
X014115Y003570D01*
X014115Y003569D02*
X013218Y003569D01*
X013219Y003568D02*
X014115Y003568D01*
X014115Y003567D02*
X013219Y003567D01*
X013220Y003566D02*
X014115Y003566D01*
X014115Y003565D02*
X013220Y003565D01*
X013221Y003564D02*
X014115Y003564D01*
X014115Y003563D02*
X013221Y003563D01*
X013222Y003562D02*
X014115Y003562D01*
X014115Y003561D02*
X013222Y003561D01*
X013223Y003560D02*
X014115Y003560D01*
X014115Y003559D02*
X013223Y003559D01*
X013224Y003558D02*
X014115Y003558D01*
X014115Y003557D02*
X013224Y003557D01*
X013225Y003556D02*
X014115Y003556D01*
X014115Y003555D02*
X013225Y003555D01*
X013226Y003554D02*
X014115Y003554D01*
X014115Y003553D02*
X013226Y003553D01*
X013227Y003552D02*
X014115Y003552D01*
X014115Y003551D02*
X013227Y003551D01*
X013228Y003550D02*
X014115Y003550D01*
X014115Y003549D02*
X013228Y003549D01*
X013229Y003548D02*
X014115Y003548D01*
X014115Y003547D02*
X013229Y003547D01*
X013230Y003546D02*
X014115Y003546D01*
X014115Y003545D02*
X013230Y003545D01*
X013231Y003544D02*
X014115Y003544D01*
X014115Y003543D02*
X013231Y003543D01*
X013232Y003542D02*
X014115Y003542D01*
X014115Y003541D02*
X013232Y003541D01*
X013233Y003540D02*
X014115Y003540D01*
X014115Y003539D02*
X013233Y003539D01*
X013234Y003538D02*
X014115Y003538D01*
X014115Y003537D02*
X013234Y003537D01*
X013235Y003536D02*
X014115Y003536D01*
X014115Y003535D02*
X013235Y003535D01*
X013236Y003534D02*
X014115Y003534D01*
X014115Y003533D02*
X013236Y003533D01*
X013237Y003532D02*
X014115Y003532D01*
X014115Y003531D02*
X013237Y003531D01*
X013238Y003530D02*
X014115Y003530D01*
X014115Y003529D02*
X013238Y003529D01*
X013239Y003528D02*
X014115Y003528D01*
X014115Y003527D02*
X013239Y003527D01*
X013240Y003526D02*
X014115Y003526D01*
X014115Y001625D02*
X012840Y001625D01*
X012839Y001624D02*
X014115Y001624D01*
X014115Y001623D02*
X012838Y001623D01*
X012837Y001622D02*
X014115Y001622D01*
X014115Y001621D02*
X012836Y001621D01*
X012835Y001620D02*
X014115Y001620D01*
X014115Y001619D02*
X012834Y001619D01*
X012833Y001618D02*
X014115Y001618D01*
X014115Y001617D02*
X012832Y001617D01*
X012831Y001616D02*
X014115Y001616D01*
X014115Y001615D02*
X012830Y001615D01*
X012829Y001614D02*
X014115Y001614D01*
X014115Y001613D02*
X012828Y001613D01*
X012827Y001612D02*
X014115Y001612D01*
X014115Y001611D02*
X012826Y001611D01*
X012825Y001610D02*
X014115Y001610D01*
X014115Y001609D02*
X012824Y001609D01*
X012823Y001608D02*
X014115Y001608D01*
X014115Y001607D02*
X012822Y001607D01*
X012821Y001606D02*
X014115Y001606D01*
X014115Y001605D02*
X012820Y001605D01*
X012819Y001604D02*
X014115Y001604D01*
X014115Y001603D02*
X012818Y001603D01*
X012817Y001602D02*
X014115Y001602D01*
X014115Y001601D02*
X012816Y001601D01*
X012815Y001600D02*
X014115Y001600D01*
X014115Y001599D02*
X012814Y001599D01*
X012813Y001598D02*
X014115Y001598D01*
X014115Y001597D02*
X012812Y001597D01*
X012811Y001596D02*
X014115Y001596D01*
X014115Y001595D02*
X012810Y001595D01*
X012809Y001594D02*
X014115Y001594D01*
X014115Y001593D02*
X012808Y001593D01*
X012807Y001592D02*
X014115Y001592D01*
X014115Y001591D02*
X012806Y001591D01*
X012805Y001590D02*
X014115Y001590D01*
X014115Y001589D02*
X012804Y001589D01*
X012803Y001588D02*
X014115Y001588D01*
X014115Y001587D02*
X012802Y001587D01*
X012801Y001586D02*
X014115Y001586D01*
X014115Y001585D02*
X012800Y001585D01*
X012799Y001584D02*
X014115Y001584D01*
X014115Y001583D02*
X012798Y001583D01*
X012797Y001582D02*
X014115Y001582D01*
X014115Y001581D02*
X012796Y001581D01*
X012795Y001580D02*
X014115Y001580D01*
X014115Y001579D02*
X012794Y001579D01*
X012793Y001578D02*
X014115Y001578D01*
X014115Y001577D02*
X012792Y001577D01*
X012791Y001576D02*
X014115Y001576D01*
X014115Y001575D02*
X012790Y001575D01*
X012789Y001574D02*
X014115Y001574D01*
X014115Y001573D02*
X012788Y001573D01*
X012787Y001572D02*
X014115Y001572D01*
X014115Y001571D02*
X012786Y001571D01*
X012785Y001570D02*
X014115Y001570D01*
X014115Y001569D02*
X012784Y001569D01*
X012783Y001568D02*
X014115Y001568D01*
X014115Y001567D02*
X012782Y001567D01*
X012781Y001566D02*
X014115Y001566D01*
X014115Y001565D02*
X012780Y001565D01*
X012779Y001564D02*
X014115Y001564D01*
X014115Y001563D02*
X012778Y001563D01*
X012777Y001562D02*
X014115Y001562D01*
X014115Y001561D02*
X012776Y001561D01*
X012775Y001560D02*
X014115Y001560D01*
X014115Y001559D02*
X012774Y001559D01*
X012773Y001558D02*
X014115Y001558D01*
X014115Y001557D02*
X012772Y001557D01*
X012771Y001556D02*
X014115Y001556D01*
X014115Y001555D02*
X012770Y001555D01*
X012769Y001554D02*
X014115Y001554D01*
X014115Y001553D02*
X012768Y001553D01*
X012767Y001552D02*
X014115Y001552D01*
X014115Y001551D02*
X012766Y001551D01*
X012765Y001550D02*
X014115Y001550D01*
X014115Y001549D02*
X012764Y001549D01*
X012763Y001548D02*
X014115Y001548D01*
X014115Y001547D02*
X012762Y001547D01*
X012761Y001546D02*
X014115Y001546D01*
X014115Y001545D02*
X012760Y001545D01*
X012759Y001544D02*
X014115Y001544D01*
X014115Y001543D02*
X012758Y001543D01*
X012757Y001542D02*
X014115Y001542D01*
X014115Y001541D02*
X012756Y001541D01*
X012755Y001540D02*
X014115Y001540D01*
X014115Y001539D02*
X012754Y001539D01*
X012753Y001538D02*
X014115Y001538D01*
X014115Y001537D02*
X012752Y001537D01*
X012751Y001536D02*
X014115Y001536D01*
X014115Y001535D02*
X012750Y001535D01*
X012749Y001534D02*
X014115Y001534D01*
X014115Y001533D02*
X012748Y001533D01*
X012747Y001532D02*
X014115Y001532D01*
X014115Y001531D02*
X012746Y001531D01*
X012745Y001530D02*
X014115Y001530D01*
X014115Y001529D02*
X012744Y001529D01*
X012743Y001528D02*
X014115Y001528D01*
X014115Y001527D02*
X012742Y001527D01*
X012741Y001526D02*
X014115Y001526D01*
X014115Y001525D02*
X012740Y001525D01*
X012739Y001524D02*
X014115Y001524D01*
X014115Y001523D02*
X012738Y001523D01*
X012737Y001522D02*
X014115Y001522D01*
X014115Y001521D02*
X012736Y001521D01*
X012735Y001520D02*
X014115Y001520D01*
X014115Y001519D02*
X012734Y001519D01*
X012733Y001518D02*
X014115Y001518D01*
X014115Y001517D02*
X012732Y001517D01*
X012731Y001516D02*
X014115Y001516D01*
X014115Y001515D02*
X012730Y001515D01*
X012729Y001514D02*
X014115Y001514D01*
X014115Y001513D02*
X012728Y001513D01*
X012727Y001512D02*
X014115Y001512D01*
X014115Y001511D02*
X012726Y001511D01*
X012725Y001510D02*
X014115Y001510D01*
X014115Y001509D02*
X012724Y001509D01*
X012723Y001508D02*
X014115Y001508D01*
X014115Y001507D02*
X012722Y001507D01*
X012721Y001506D02*
X014115Y001506D01*
X014115Y001505D02*
X012720Y001505D01*
X012719Y001504D02*
X014115Y001504D01*
X014115Y001503D02*
X012718Y001503D01*
X012717Y001502D02*
X014115Y001502D01*
X014115Y001501D02*
X012716Y001501D01*
X012715Y001500D02*
X014115Y001500D01*
X014115Y001499D02*
X012714Y001499D01*
X012713Y001498D02*
X014115Y001498D01*
X014115Y001497D02*
X012712Y001497D01*
X012711Y001496D02*
X014115Y001496D01*
X014115Y001495D02*
X012710Y001495D01*
X012709Y001494D02*
X014115Y001494D01*
X014115Y001493D02*
X012708Y001493D01*
X012707Y001492D02*
X014115Y001492D01*
X014115Y001491D02*
X012706Y001491D01*
X012705Y001490D02*
X014115Y001490D01*
X014115Y001489D02*
X012704Y001489D01*
X012703Y001488D02*
X014115Y001488D01*
X014115Y001487D02*
X012702Y001487D01*
X012701Y001486D02*
X014115Y001486D01*
X014115Y001485D02*
X012700Y001485D01*
X012699Y001484D02*
X014115Y001484D01*
X014115Y001483D02*
X012698Y001483D01*
X012697Y001482D02*
X014115Y001482D01*
X014115Y001481D02*
X012696Y001481D01*
X012695Y001480D02*
X014115Y001480D01*
X014115Y001479D02*
X012694Y001479D01*
X012693Y001478D02*
X014115Y001478D01*
X014115Y001477D02*
X012692Y001477D01*
X012691Y001476D02*
X014115Y001476D01*
X014115Y001475D02*
X012690Y001475D01*
X012689Y001474D02*
X014115Y001474D01*
X014115Y001473D02*
X012688Y001473D01*
X012687Y001472D02*
X014115Y001472D01*
X014115Y001471D02*
X012686Y001471D01*
X012685Y001470D02*
X014115Y001470D01*
X014115Y001469D02*
X012684Y001469D01*
X012683Y001468D02*
X014115Y001468D01*
X014115Y001467D02*
X012682Y001467D01*
X012681Y001466D02*
X014115Y001466D01*
X014115Y001465D02*
X012680Y001465D01*
X012679Y001464D02*
X014115Y001464D01*
X014115Y001463D02*
X012678Y001463D01*
X012677Y001462D02*
X014115Y001462D01*
X014115Y001461D02*
X012676Y001461D01*
X012675Y001460D02*
X014115Y001460D01*
X014115Y001459D02*
X012674Y001459D01*
X012673Y001458D02*
X014115Y001458D01*
X014115Y001457D02*
X012672Y001457D01*
X012671Y001456D02*
X014115Y001456D01*
X014115Y001455D02*
X012670Y001455D01*
X012669Y001454D02*
X014115Y001454D01*
X014115Y001453D02*
X012668Y001453D01*
X012667Y001452D02*
X014115Y001452D01*
X014115Y001451D02*
X012666Y001451D01*
X012665Y001450D02*
X014115Y001450D01*
X014115Y001449D02*
X012664Y001449D01*
X012663Y001448D02*
X014115Y001448D01*
X014115Y001447D02*
X012662Y001447D01*
X012661Y001446D02*
X014115Y001446D01*
X014115Y001445D02*
X012660Y001445D01*
X012659Y001444D02*
X014115Y001444D01*
X014115Y001443D02*
X012658Y001443D01*
X012657Y001442D02*
X014115Y001442D01*
X014115Y001441D02*
X012656Y001441D01*
X012655Y001440D02*
X014115Y001440D01*
X014115Y001439D02*
X012654Y001439D01*
X012653Y001438D02*
X014115Y001438D01*
X014115Y001437D02*
X012652Y001437D01*
X012651Y001436D02*
X014115Y001436D01*
X014115Y001435D02*
X012650Y001435D01*
X012649Y001434D02*
X014115Y001434D01*
X014115Y001433D02*
X012648Y001433D01*
X012647Y001432D02*
X014115Y001432D01*
X014115Y001431D02*
X012646Y001431D01*
X012645Y001430D02*
X014115Y001430D01*
X014115Y001429D02*
X012644Y001429D01*
X012643Y001428D02*
X014115Y001428D01*
X014115Y001427D02*
X012642Y001427D01*
X012641Y001426D02*
X014115Y001426D01*
X014115Y001425D02*
X012640Y001425D01*
X011539Y001424D02*
X014115Y001424D01*
X014115Y001423D02*
X011538Y001423D01*
X011537Y001422D02*
X014115Y001422D01*
X014115Y001421D02*
X011536Y001421D01*
X011535Y001420D02*
X014115Y001420D01*
X014115Y001419D02*
X011534Y001419D01*
X011533Y001418D02*
X014115Y001418D01*
X014115Y001417D02*
X011532Y001417D01*
X011531Y001416D02*
X014115Y001416D01*
X014115Y001415D02*
X011530Y001415D01*
X011529Y001414D02*
X014115Y001414D01*
X014115Y001413D02*
X011528Y001413D01*
X011527Y001412D02*
X014115Y001412D01*
X014115Y001411D02*
X011526Y001411D01*
X011525Y001410D02*
X014115Y001410D01*
X014115Y001409D02*
X011524Y001409D01*
X011523Y001408D02*
X014115Y001408D01*
X014115Y001407D02*
X011522Y001407D01*
X011521Y001406D02*
X014115Y001406D01*
X014115Y001405D02*
X011520Y001405D01*
X011519Y001404D02*
X014115Y001404D01*
X014115Y001403D02*
X011518Y001403D01*
X011517Y001402D02*
X014115Y001402D01*
X014115Y001401D02*
X011516Y001401D01*
X011515Y001400D02*
X014115Y001400D01*
X014115Y001399D02*
X011514Y001399D01*
X011513Y001398D02*
X014115Y001398D01*
X014115Y001397D02*
X011512Y001397D01*
X011511Y001396D02*
X014115Y001396D01*
X014115Y001395D02*
X011510Y001395D01*
X011509Y001394D02*
X014115Y001394D01*
X014115Y001393D02*
X011508Y001393D01*
X011507Y001392D02*
X014115Y001392D01*
X014115Y001391D02*
X011506Y001391D01*
X011505Y001390D02*
X014115Y001390D01*
X014115Y001389D02*
X011504Y001389D01*
X011503Y001388D02*
X014115Y001388D01*
X014115Y001387D02*
X011502Y001387D01*
X011501Y001386D02*
X014115Y001386D01*
X014115Y001385D02*
X011500Y001385D01*
X011499Y001384D02*
X014115Y001384D01*
X014115Y001383D02*
X011498Y001383D01*
X011497Y001382D02*
X014115Y001382D01*
X014115Y001381D02*
X011496Y001381D01*
X011495Y001380D02*
X014115Y001380D01*
X014115Y001379D02*
X011494Y001379D01*
X011493Y001378D02*
X014115Y001378D01*
X014115Y001377D02*
X011492Y001377D01*
X011491Y001376D02*
X014115Y001376D01*
X014115Y001375D02*
X011490Y001375D01*
X011489Y001374D02*
X014115Y001374D01*
X014115Y001373D02*
X011488Y001373D01*
X011487Y001372D02*
X014115Y001372D01*
X014115Y001371D02*
X011486Y001371D01*
X011485Y001370D02*
X014115Y001370D01*
X014115Y001369D02*
X011484Y001369D01*
X011483Y001368D02*
X014115Y001368D01*
X014115Y001367D02*
X011482Y001367D01*
X011481Y001366D02*
X014115Y001366D01*
X014115Y001365D02*
X011480Y001365D01*
X011479Y001364D02*
X014115Y001364D01*
X014115Y001363D02*
X011478Y001363D01*
X011477Y001362D02*
X014115Y001362D01*
X014115Y001361D02*
X011476Y001361D01*
X011475Y001360D02*
X014115Y001360D01*
X014115Y001359D02*
X011474Y001359D01*
X011473Y001358D02*
X014115Y001358D01*
X014115Y001357D02*
X011472Y001357D01*
X011471Y001356D02*
X014115Y001356D01*
X014115Y001355D02*
X011470Y001355D01*
X011469Y001354D02*
X014115Y001354D01*
X014115Y001353D02*
X011468Y001353D01*
X011467Y001352D02*
X014115Y001352D01*
X014115Y001351D02*
X011466Y001351D01*
X011465Y001350D02*
X014115Y001350D01*
X014115Y001349D02*
X011464Y001349D01*
X011463Y001348D02*
X014115Y001348D01*
X014115Y001347D02*
X011462Y001347D01*
X011461Y001346D02*
X014115Y001346D01*
X014115Y001345D02*
X011460Y001345D01*
X011459Y001344D02*
X014115Y001344D01*
X014115Y001343D02*
X011458Y001343D01*
X011457Y001342D02*
X014115Y001342D01*
X014115Y001341D02*
X011456Y001341D01*
X011455Y001340D02*
X014115Y001340D01*
X014115Y001339D02*
X011454Y001339D01*
X011453Y001338D02*
X014115Y001338D01*
X014115Y001337D02*
X011452Y001337D01*
X011451Y001336D02*
X014115Y001336D01*
X014115Y001335D02*
X011450Y001335D01*
X011449Y001334D02*
X014115Y001334D01*
X014115Y001333D02*
X011448Y001333D01*
X011447Y001332D02*
X014115Y001332D01*
X014115Y001331D02*
X011446Y001331D01*
X011445Y001330D02*
X014115Y001330D01*
X014115Y001329D02*
X011444Y001329D01*
X011443Y001328D02*
X014115Y001328D01*
X014115Y001327D02*
X011442Y001327D01*
X011441Y001326D02*
X014115Y001326D01*
X014115Y001325D02*
X011440Y001325D01*
X011440Y001324D02*
X014115Y001324D01*
X014115Y001323D02*
X011440Y001323D01*
X011440Y001322D02*
X014115Y001322D01*
X014115Y001321D02*
X011440Y001321D01*
X011440Y001320D02*
X014115Y001320D01*
X014115Y001319D02*
X011440Y001319D01*
X011440Y001318D02*
X014115Y001318D01*
X014115Y001317D02*
X011440Y001317D01*
X011440Y001316D02*
X014115Y001316D01*
X014115Y001315D02*
X011440Y001315D01*
X011440Y001314D02*
X014115Y001314D01*
X014115Y001313D02*
X011440Y001313D01*
X011440Y001312D02*
X014115Y001312D01*
X014115Y001311D02*
X011440Y001311D01*
X011440Y001310D02*
X014115Y001310D01*
X014115Y001309D02*
X011440Y001309D01*
X011440Y001308D02*
X014115Y001308D01*
X014115Y001307D02*
X011440Y001307D01*
X011440Y001306D02*
X014115Y001306D01*
X014115Y001305D02*
X011440Y001305D01*
X011440Y001304D02*
X014115Y001304D01*
X014115Y001303D02*
X011440Y001303D01*
X011440Y001302D02*
X014115Y001302D01*
X014115Y001301D02*
X011440Y001301D01*
X011440Y001300D02*
X014115Y001300D01*
X014115Y001299D02*
X011440Y001299D01*
X011440Y001298D02*
X014115Y001298D01*
X014115Y001297D02*
X011440Y001297D01*
X011440Y001296D02*
X014115Y001296D01*
X014115Y001295D02*
X011440Y001295D01*
X011440Y001294D02*
X014115Y001294D01*
X014115Y001293D02*
X011440Y001293D01*
X011440Y001292D02*
X014115Y001292D01*
X014115Y001291D02*
X011440Y001291D01*
X011440Y001290D02*
X014115Y001290D01*
X014115Y001289D02*
X011440Y001289D01*
X011440Y001288D02*
X014115Y001288D01*
X014115Y001287D02*
X011440Y001287D01*
X011440Y001286D02*
X014115Y001286D01*
X014115Y001285D02*
X011440Y001285D01*
X011440Y001284D02*
X014115Y001284D01*
X014115Y001283D02*
X011440Y001283D01*
X011440Y001282D02*
X014115Y001282D01*
X014115Y001281D02*
X011440Y001281D01*
X011440Y001280D02*
X014115Y001280D01*
X014115Y001279D02*
X011440Y001279D01*
X011440Y001278D02*
X014115Y001278D01*
X014115Y001277D02*
X011440Y001277D01*
X011440Y001276D02*
X014115Y001276D01*
X014115Y001275D02*
X011440Y001275D01*
X011440Y001274D02*
X014115Y001274D01*
X014115Y001273D02*
X011440Y001273D01*
X011440Y001272D02*
X014115Y001272D01*
X014115Y001271D02*
X011440Y001271D01*
X011440Y001270D02*
X014115Y001270D01*
X014115Y001269D02*
X011440Y001269D01*
X011440Y001268D02*
X014115Y001268D01*
X014115Y001267D02*
X011440Y001267D01*
X011440Y001266D02*
X014115Y001266D01*
X014115Y001265D02*
X011440Y001265D01*
X011440Y001264D02*
X014115Y001264D01*
X014115Y001263D02*
X011440Y001263D01*
X011440Y001262D02*
X014115Y001262D01*
X014115Y001261D02*
X011440Y001261D01*
X011440Y001260D02*
X014115Y001260D01*
X014115Y001259D02*
X011440Y001259D01*
X011440Y001258D02*
X014115Y001258D01*
X014115Y001257D02*
X011440Y001257D01*
X011440Y001256D02*
X014115Y001256D01*
X014115Y001255D02*
X011440Y001255D01*
X011440Y001254D02*
X014115Y001254D01*
X014115Y001253D02*
X011440Y001253D01*
X011440Y001252D02*
X014115Y001252D01*
X014115Y001251D02*
X011440Y001251D01*
X011440Y001250D02*
X014115Y001250D01*
X014115Y001249D02*
X011440Y001249D01*
X011440Y001248D02*
X014115Y001248D01*
X014115Y001247D02*
X011440Y001247D01*
X011440Y001246D02*
X014115Y001246D01*
X014115Y001245D02*
X011440Y001245D01*
X011440Y001244D02*
X014115Y001244D01*
X014115Y001243D02*
X011440Y001243D01*
X011440Y001242D02*
X014115Y001242D01*
X014115Y001241D02*
X011440Y001241D01*
X011440Y001240D02*
X014115Y001240D01*
X014115Y001239D02*
X011440Y001239D01*
X011440Y001238D02*
X014115Y001238D01*
X014115Y001237D02*
X011440Y001237D01*
X011440Y001236D02*
X014115Y001236D01*
X014115Y001235D02*
X011440Y001235D01*
X011440Y001234D02*
X014115Y001234D01*
X014115Y001233D02*
X011440Y001233D01*
X011440Y001232D02*
X014115Y001232D01*
X014115Y001231D02*
X011440Y001231D01*
X011440Y001230D02*
X014115Y001230D01*
X014115Y001229D02*
X011440Y001229D01*
X011440Y001228D02*
X014115Y001228D01*
X014115Y001227D02*
X011440Y001227D01*
X011440Y001226D02*
X014115Y001226D01*
X014115Y001225D02*
X011440Y001225D01*
X011440Y001224D02*
X014115Y001224D01*
X014115Y001223D02*
X011440Y001223D01*
X011440Y001222D02*
X014115Y001222D01*
X014115Y001221D02*
X011440Y001221D01*
X011440Y001220D02*
X014115Y001220D01*
X014115Y001219D02*
X011440Y001219D01*
X011440Y001218D02*
X014115Y001218D01*
X014115Y001217D02*
X011440Y001217D01*
X011440Y001216D02*
X014115Y001216D01*
X014115Y001215D02*
X011440Y001215D01*
X011440Y001214D02*
X014115Y001214D01*
X014115Y001213D02*
X011440Y001213D01*
X011440Y001212D02*
X014115Y001212D01*
X014115Y001211D02*
X011440Y001211D01*
X011440Y001210D02*
X014115Y001210D01*
X014115Y001209D02*
X011440Y001209D01*
X011440Y001208D02*
X014115Y001208D01*
X014115Y001207D02*
X011440Y001207D01*
X011440Y001206D02*
X014115Y001206D01*
X014115Y001205D02*
X011440Y001205D01*
X011440Y001204D02*
X014115Y001204D01*
X014115Y001203D02*
X011440Y001203D01*
X011440Y001202D02*
X014115Y001202D01*
X014115Y001201D02*
X011440Y001201D01*
X011440Y001200D02*
X014115Y001200D01*
X014115Y001199D02*
X011440Y001199D01*
X011440Y001198D02*
X014115Y001198D01*
X014115Y001197D02*
X011440Y001197D01*
X011440Y001196D02*
X014115Y001196D01*
X014115Y001195D02*
X011440Y001195D01*
X011440Y001194D02*
X014115Y001194D01*
X014115Y001193D02*
X011440Y001193D01*
X011440Y001192D02*
X014115Y001192D01*
X014115Y001191D02*
X011440Y001191D01*
X011440Y001190D02*
X014115Y001190D01*
X014115Y001189D02*
X011440Y001189D01*
X011440Y001188D02*
X014115Y001188D01*
X014115Y001187D02*
X011440Y001187D01*
X011440Y001186D02*
X014115Y001186D01*
X014115Y001185D02*
X011440Y001185D01*
X011440Y001184D02*
X014115Y001184D01*
X014115Y001183D02*
X011440Y001183D01*
X011440Y001182D02*
X014115Y001182D01*
X014115Y001181D02*
X011440Y001181D01*
X011440Y001180D02*
X014115Y001180D01*
X014115Y001179D02*
X011440Y001179D01*
X011440Y001178D02*
X014115Y001178D01*
X014115Y001177D02*
X011440Y001177D01*
X011440Y001176D02*
X014115Y001176D01*
X014115Y001175D02*
X011440Y001175D01*
X011440Y001174D02*
X014115Y001174D01*
X014115Y001173D02*
X011440Y001173D01*
X011440Y001172D02*
X014115Y001172D01*
X014115Y001171D02*
X011440Y001171D01*
X011440Y001170D02*
X014115Y001170D01*
X014115Y001169D02*
X011440Y001169D01*
X011440Y001168D02*
X014115Y001168D01*
X014115Y001167D02*
X011440Y001167D01*
X011440Y001166D02*
X014115Y001166D01*
X014115Y001165D02*
X011440Y001165D01*
X011440Y001164D02*
X014115Y001164D01*
X014115Y001163D02*
X011440Y001163D01*
X011440Y001162D02*
X014115Y001162D01*
X014115Y001161D02*
X011440Y001161D01*
X011440Y001160D02*
X014115Y001160D01*
X014115Y001159D02*
X011440Y001159D01*
X011440Y001158D02*
X014115Y001158D01*
X014115Y001157D02*
X011440Y001157D01*
X011440Y001156D02*
X014115Y001156D01*
X014115Y001155D02*
X011440Y001155D01*
X011440Y001154D02*
X014115Y001154D01*
X014115Y001153D02*
X011440Y001153D01*
X011440Y001152D02*
X014115Y001152D01*
X014115Y001151D02*
X011440Y001151D01*
X011440Y001150D02*
X014115Y001150D01*
X014115Y001149D02*
X011440Y001149D01*
X011440Y001148D02*
X014115Y001148D01*
X014115Y001147D02*
X011440Y001147D01*
X011440Y001146D02*
X014115Y001146D01*
X014115Y001145D02*
X011440Y001145D01*
X011440Y001144D02*
X014115Y001144D01*
X014115Y001143D02*
X011440Y001143D01*
X011440Y001142D02*
X014115Y001142D01*
X014115Y001141D02*
X011440Y001141D01*
X011440Y001140D02*
X014115Y001140D01*
X014115Y001139D02*
X011440Y001139D01*
X011440Y001138D02*
X014115Y001138D01*
X014115Y001137D02*
X011440Y001137D01*
X011440Y001136D02*
X014115Y001136D01*
X014115Y001135D02*
X011440Y001135D01*
X011440Y001134D02*
X014115Y001134D01*
X014115Y001133D02*
X011440Y001133D01*
X011440Y001132D02*
X014115Y001132D01*
X014115Y001131D02*
X011440Y001131D01*
X011440Y001130D02*
X014115Y001130D01*
X014115Y001129D02*
X011440Y001129D01*
X011440Y001128D02*
X014115Y001128D01*
X014115Y001127D02*
X011440Y001127D01*
X011440Y001126D02*
X014115Y001126D01*
X014115Y001125D02*
X011440Y001125D01*
X011440Y001124D02*
X014115Y001124D01*
X014115Y001123D02*
X011440Y001123D01*
X011440Y001122D02*
X014115Y001122D01*
X014115Y001121D02*
X011440Y001121D01*
X011440Y001120D02*
X014115Y001120D01*
X014115Y001119D02*
X011440Y001119D01*
X011440Y001118D02*
X014115Y001118D01*
X014115Y001117D02*
X011440Y001117D01*
X011440Y001116D02*
X014115Y001116D01*
X014115Y001115D02*
X011440Y001115D01*
X011440Y001114D02*
X014115Y001114D01*
X014115Y001113D02*
X011440Y001113D01*
X011440Y001112D02*
X014115Y001112D01*
X014115Y001111D02*
X011440Y001111D01*
X011440Y001110D02*
X014115Y001110D01*
X014115Y001109D02*
X011440Y001109D01*
X011440Y001108D02*
X014115Y001108D01*
X014115Y001107D02*
X011440Y001107D01*
X011440Y001106D02*
X014115Y001106D01*
X014115Y001105D02*
X011440Y001105D01*
X011440Y001104D02*
X014115Y001104D01*
X014115Y001103D02*
X011440Y001103D01*
X011440Y001102D02*
X014115Y001102D01*
X014115Y001101D02*
X011440Y001101D01*
X011440Y001100D02*
X014115Y001100D01*
X014115Y001099D02*
X011440Y001099D01*
X011440Y001098D02*
X014115Y001098D01*
X014115Y001097D02*
X011440Y001097D01*
X011440Y001096D02*
X014115Y001096D01*
X014115Y001095D02*
X011440Y001095D01*
X011440Y001094D02*
X014115Y001094D01*
X014115Y001093D02*
X011440Y001093D01*
X011440Y001092D02*
X014115Y001092D01*
X014115Y001091D02*
X011440Y001091D01*
X011440Y001090D02*
X014115Y001090D01*
X014115Y001089D02*
X011440Y001089D01*
X011440Y001088D02*
X014115Y001088D01*
X014115Y001087D02*
X011440Y001087D01*
X011440Y001086D02*
X014115Y001086D01*
X014115Y001085D02*
X011440Y001085D01*
X011440Y001084D02*
X014115Y001084D01*
X014115Y001083D02*
X011440Y001083D01*
X011440Y001082D02*
X014115Y001082D01*
X014115Y001081D02*
X011440Y001081D01*
X011440Y001080D02*
X014115Y001080D01*
X014115Y001079D02*
X011440Y001079D01*
X011440Y001078D02*
X014115Y001078D01*
X014115Y001077D02*
X011440Y001077D01*
X011440Y001076D02*
X014115Y001076D01*
X014115Y001075D02*
X011440Y001075D01*
X011440Y001074D02*
X014115Y001074D01*
X014115Y001073D02*
X011440Y001073D01*
X011440Y001072D02*
X014115Y001072D01*
X014115Y001071D02*
X011440Y001071D01*
X011440Y001070D02*
X014115Y001070D01*
X014115Y001069D02*
X011440Y001069D01*
X011440Y001068D02*
X014115Y001068D01*
X014115Y001067D02*
X011440Y001067D01*
X011440Y001066D02*
X014115Y001066D01*
X014115Y001065D02*
X011440Y001065D01*
X011440Y001064D02*
X014115Y001064D01*
X014115Y001063D02*
X011440Y001063D01*
X011440Y001062D02*
X014115Y001062D01*
X014115Y001061D02*
X011440Y001061D01*
X011440Y001060D02*
X014115Y001060D01*
X014115Y001059D02*
X011440Y001059D01*
X011440Y001058D02*
X014115Y001058D01*
X014115Y001057D02*
X011440Y001057D01*
X011440Y001056D02*
X014115Y001056D01*
X014115Y001055D02*
X011440Y001055D01*
X011440Y001054D02*
X014115Y001054D01*
X014115Y001053D02*
X011440Y001053D01*
X011440Y001052D02*
X014115Y001052D01*
X014115Y001051D02*
X011440Y001051D01*
X011440Y001050D02*
X014115Y001050D01*
X014115Y001049D02*
X011440Y001049D01*
X011440Y001048D02*
X014115Y001048D01*
X014115Y001047D02*
X011440Y001047D01*
X011440Y001046D02*
X014115Y001046D01*
X014115Y001045D02*
X011440Y001045D01*
X011440Y001044D02*
X014115Y001044D01*
X014115Y001043D02*
X011440Y001043D01*
X011440Y001042D02*
X014115Y001042D01*
X014115Y001041D02*
X011440Y001041D01*
X011440Y001040D02*
X014115Y001040D01*
X014115Y001039D02*
X011440Y001039D01*
X011440Y001038D02*
X014115Y001038D01*
X014115Y001037D02*
X011440Y001037D01*
X011440Y001036D02*
X014115Y001036D01*
X014115Y001035D02*
X011440Y001035D01*
X011440Y001034D02*
X014115Y001034D01*
X014115Y001033D02*
X011440Y001033D01*
X011440Y001032D02*
X014115Y001032D01*
X014115Y001031D02*
X011440Y001031D01*
X011440Y001030D02*
X014115Y001030D01*
X014115Y001029D02*
X011440Y001029D01*
X011440Y001028D02*
X014115Y001028D01*
X014115Y001027D02*
X011440Y001027D01*
X011440Y001026D02*
X014115Y001026D01*
X014115Y001025D02*
X011440Y001025D01*
X011440Y001024D02*
X014115Y001024D01*
X014115Y001023D02*
X011440Y001023D01*
X011440Y001022D02*
X014115Y001022D01*
X014115Y001021D02*
X011440Y001021D01*
X011440Y001020D02*
X014115Y001020D01*
X014115Y001019D02*
X011440Y001019D01*
X011440Y001018D02*
X014115Y001018D01*
X014115Y001017D02*
X011440Y001017D01*
X011440Y001016D02*
X014115Y001016D01*
X014115Y001015D02*
X011440Y001015D01*
X011440Y001014D02*
X014115Y001014D01*
X014115Y001013D02*
X011440Y001013D01*
X011440Y001012D02*
X014115Y001012D01*
X014115Y001011D02*
X011440Y001011D01*
X011440Y001010D02*
X014115Y001010D01*
X014115Y001009D02*
X011440Y001009D01*
X011440Y001008D02*
X014115Y001008D01*
X014115Y001007D02*
X011440Y001007D01*
X011440Y001006D02*
X014115Y001006D01*
X014115Y001005D02*
X011440Y001005D01*
X011440Y001004D02*
X014115Y001004D01*
X014115Y001003D02*
X011440Y001003D01*
X011440Y001002D02*
X014115Y001002D01*
X014115Y001001D02*
X011440Y001001D01*
X011440Y001000D02*
X014115Y001000D01*
X014115Y000999D02*
X011440Y000999D01*
X011440Y000998D02*
X014115Y000998D01*
X014115Y000997D02*
X011440Y000997D01*
X011440Y000996D02*
X014115Y000996D01*
X014115Y000995D02*
X011440Y000995D01*
X011440Y000994D02*
X014115Y000994D01*
X014115Y000993D02*
X011440Y000993D01*
X011440Y000992D02*
X014115Y000992D01*
X014115Y000991D02*
X011440Y000991D01*
X011440Y000990D02*
X014115Y000990D01*
X014115Y000989D02*
X011440Y000989D01*
X011440Y000988D02*
X014115Y000988D01*
X014115Y000987D02*
X011440Y000987D01*
X011440Y000986D02*
X014115Y000986D01*
X014115Y000985D02*
X011440Y000985D01*
X011440Y000984D02*
X014115Y000984D01*
X014115Y000983D02*
X011440Y000983D01*
X011440Y000982D02*
X014115Y000982D01*
X014115Y000981D02*
X011440Y000981D01*
X011440Y000980D02*
X014115Y000980D01*
X014115Y000979D02*
X011440Y000979D01*
X011440Y000978D02*
X014115Y000978D01*
X014115Y000977D02*
X011440Y000977D01*
X011440Y000976D02*
X014115Y000976D01*
X014115Y000975D02*
X011440Y000975D01*
X011440Y000974D02*
X014115Y000974D01*
X014115Y000973D02*
X011440Y000973D01*
X011440Y000972D02*
X014115Y000972D01*
X014115Y000971D02*
X011440Y000971D01*
X011440Y000970D02*
X014115Y000970D01*
X014115Y000969D02*
X011440Y000969D01*
X011440Y000968D02*
X014115Y000968D01*
X014115Y000967D02*
X011440Y000967D01*
X011440Y000966D02*
X014115Y000966D01*
X014115Y000965D02*
X011440Y000965D01*
X011440Y000964D02*
X014115Y000964D01*
X014115Y000963D02*
X011440Y000963D01*
X011440Y000962D02*
X014115Y000962D01*
X014115Y000961D02*
X011440Y000961D01*
X011440Y000960D02*
X014115Y000960D01*
X014115Y000959D02*
X011440Y000959D01*
X011440Y000958D02*
X014115Y000958D01*
X011440Y000958D01*
X011440Y000957D02*
X014115Y000957D01*
X014115Y000956D02*
X011440Y000956D01*
X011440Y000955D02*
X014115Y000955D01*
X014115Y000954D02*
X011440Y000954D01*
X011440Y000953D02*
X014115Y000953D01*
X014115Y000952D02*
X011440Y000952D01*
X011440Y000951D02*
X014115Y000951D01*
X014115Y000950D02*
X011440Y000950D01*
X011440Y000949D02*
X014115Y000949D01*
X014115Y000948D02*
X011440Y000948D01*
X011440Y000947D02*
X014115Y000947D01*
X014115Y000946D02*
X011440Y000946D01*
X011440Y000945D02*
X014115Y000945D01*
X014115Y000944D02*
X011440Y000944D01*
X011440Y000943D02*
X014115Y000943D01*
X014115Y000942D02*
X011440Y000942D01*
X011440Y000941D02*
X014115Y000941D01*
X014115Y000940D02*
X011440Y000940D01*
X011440Y000939D02*
X014115Y000939D01*
X014115Y000938D02*
X011440Y000938D01*
X011440Y000937D02*
X014115Y000937D01*
X014115Y000936D02*
X011440Y000936D01*
X011440Y000935D02*
X014115Y000935D01*
X014115Y000934D02*
X011440Y000934D01*
X011440Y000933D02*
X014115Y000933D01*
X014115Y000932D02*
X011440Y000932D01*
X011440Y000931D02*
X014115Y000931D01*
X014115Y000930D02*
X011440Y000930D01*
X011440Y000929D02*
X014115Y000929D01*
X014115Y000928D02*
X011440Y000928D01*
X011440Y000927D02*
X014115Y000927D01*
X014115Y000926D02*
X011440Y000926D01*
X011440Y000925D02*
X014115Y000925D01*
X014115Y000924D02*
X011440Y000924D01*
X011440Y000923D02*
X014115Y000923D01*
X014115Y000922D02*
X011440Y000922D01*
X011440Y000921D02*
X014115Y000921D01*
X014115Y000920D02*
X011440Y000920D01*
X011440Y000919D02*
X014115Y000919D01*
X014115Y000918D02*
X011440Y000918D01*
X011440Y000917D02*
X014115Y000917D01*
X014115Y000916D02*
X011440Y000916D01*
X011440Y000915D02*
X014115Y000915D01*
X014115Y000914D02*
X011440Y000914D01*
X011440Y000913D02*
X014115Y000913D01*
X014115Y000912D02*
X011440Y000912D01*
X011440Y000911D02*
X014115Y000911D01*
X014115Y000910D02*
X011440Y000910D01*
X011440Y000909D02*
X014115Y000909D01*
X014115Y000908D02*
X011440Y000908D01*
X011440Y000907D02*
X014115Y000907D01*
X014115Y000906D02*
X011440Y000906D01*
X011440Y000905D02*
X014115Y000905D01*
X014115Y000904D02*
X011440Y000904D01*
X011440Y000903D02*
X014115Y000903D01*
X014115Y000902D02*
X011440Y000902D01*
X011440Y000901D02*
X014115Y000901D01*
X014115Y000900D02*
X011440Y000900D01*
X011440Y000899D02*
X014115Y000899D01*
X014115Y000898D02*
X011440Y000898D01*
X011440Y000897D02*
X014115Y000897D01*
X014115Y000896D02*
X011440Y000896D01*
X011440Y000895D02*
X014115Y000895D01*
X014115Y000894D02*
X011440Y000894D01*
X011440Y000893D02*
X014115Y000893D01*
X014115Y000892D02*
X011440Y000892D01*
X011440Y000891D02*
X014115Y000891D01*
X014115Y000890D02*
X011440Y000890D01*
X011440Y000889D02*
X014115Y000889D01*
X014115Y000888D02*
X011440Y000888D01*
X011440Y000887D02*
X014115Y000887D01*
X014115Y000886D02*
X011440Y000886D01*
X011440Y000885D02*
X014115Y000885D01*
X014115Y000884D02*
X011440Y000884D01*
X011440Y000883D02*
X014115Y000883D01*
X014115Y000882D02*
X011440Y000882D01*
X011440Y000881D02*
X014115Y000881D01*
X014115Y000880D02*
X011440Y000880D01*
X011440Y000879D02*
X014115Y000879D01*
X014115Y000878D02*
X011440Y000878D01*
X011440Y000877D02*
X014115Y000877D01*
X014115Y000876D02*
X011440Y000876D01*
X011440Y000875D02*
X014115Y000875D01*
X014115Y000874D02*
X011440Y000874D01*
X011440Y000873D02*
X014115Y000873D01*
X014115Y000872D02*
X011440Y000872D01*
X011440Y000871D02*
X014115Y000871D01*
X014115Y000870D02*
X011440Y000870D01*
X011440Y000869D02*
X014115Y000869D01*
X014115Y000868D02*
X011440Y000868D01*
X011440Y000867D02*
X014115Y000867D01*
X014115Y000866D02*
X011440Y000866D01*
X011440Y000865D02*
X014115Y000865D01*
X014115Y000864D02*
X011440Y000864D01*
X011440Y000863D02*
X014115Y000863D01*
X014115Y000862D02*
X011440Y000862D01*
X011440Y000861D02*
X014115Y000861D01*
X014115Y000860D02*
X011440Y000860D01*
X011440Y000859D02*
X014115Y000859D01*
X014115Y000858D02*
X011440Y000858D01*
X011440Y000857D02*
X014115Y000857D01*
X014115Y000856D02*
X011440Y000856D01*
X011440Y000855D02*
X014115Y000855D01*
X014115Y000854D02*
X011440Y000854D01*
X011440Y000853D02*
X014115Y000853D01*
X014115Y000852D02*
X011440Y000852D01*
X011440Y000851D02*
X014115Y000851D01*
X014115Y000850D02*
X011440Y000850D01*
X011440Y000849D02*
X014115Y000849D01*
X014115Y000848D02*
X011440Y000848D01*
X011440Y000847D02*
X014115Y000847D01*
X014115Y000846D02*
X011440Y000846D01*
X011440Y000845D02*
X014115Y000845D01*
X014115Y000844D02*
X011440Y000844D01*
X011440Y000843D02*
X014115Y000843D01*
X014115Y000842D02*
X011440Y000842D01*
X011440Y000841D02*
X014115Y000841D01*
X014115Y000840D02*
X011440Y000840D01*
X011440Y000839D02*
X014115Y000839D01*
X014115Y000838D02*
X011440Y000838D01*
X011440Y000837D02*
X014115Y000837D01*
X014115Y000836D02*
X011440Y000836D01*
X011440Y000835D02*
X014115Y000835D01*
X014115Y000834D02*
X011440Y000834D01*
X011440Y000833D02*
X014115Y000833D01*
X014115Y000832D02*
X011440Y000832D01*
X011440Y000831D02*
X014115Y000831D01*
X014115Y000830D02*
X011440Y000830D01*
X011440Y000829D02*
X014115Y000829D01*
X014115Y000828D02*
X011440Y000828D01*
X011440Y000827D02*
X014115Y000827D01*
X014115Y000826D02*
X011440Y000826D01*
X011440Y000825D02*
X014115Y000825D01*
X014115Y000824D02*
X011440Y000824D01*
X011440Y000823D02*
X014115Y000823D01*
X014115Y000822D02*
X011440Y000822D01*
X011440Y000821D02*
X014115Y000821D01*
X014115Y000820D02*
X011440Y000820D01*
X011440Y000819D02*
X014115Y000819D01*
X014115Y000818D02*
X011440Y000818D01*
X011440Y000817D02*
X014115Y000817D01*
X014115Y000816D02*
X011440Y000816D01*
X011440Y000815D02*
X014115Y000815D01*
X014115Y000814D02*
X011440Y000814D01*
X011440Y000813D02*
X014115Y000813D01*
X014115Y000812D02*
X011440Y000812D01*
X011440Y000811D02*
X014115Y000811D01*
X014115Y000810D02*
X011440Y000810D01*
X011440Y000809D02*
X014115Y000809D01*
X014115Y000808D02*
X011440Y000808D01*
X011440Y000807D02*
X014115Y000807D01*
X014115Y000806D02*
X011440Y000806D01*
X011440Y000805D02*
X014115Y000805D01*
X014115Y000804D02*
X011440Y000804D01*
X011440Y000803D02*
X014115Y000803D01*
X014115Y000802D02*
X011440Y000802D01*
X011440Y000801D02*
X014115Y000801D01*
X014115Y000800D02*
X011440Y000800D01*
X011440Y000799D02*
X014115Y000799D01*
X014115Y000798D02*
X011440Y000798D01*
X011440Y000797D02*
X014115Y000797D01*
X014115Y000796D02*
X011440Y000796D01*
X011440Y000795D02*
X014115Y000795D01*
X014115Y000794D02*
X011440Y000794D01*
X011440Y000793D02*
X014115Y000793D01*
X014115Y000792D02*
X011440Y000792D01*
X011440Y000791D02*
X014115Y000791D01*
X014115Y000790D02*
X011440Y000790D01*
X011440Y000789D02*
X014115Y000789D01*
X014115Y000788D02*
X011440Y000788D01*
X011440Y000787D02*
X014115Y000787D01*
X014115Y000786D02*
X011440Y000786D01*
X011440Y000785D02*
X014115Y000785D01*
X014115Y000784D02*
X011440Y000784D01*
X011440Y000783D02*
X014115Y000783D01*
X014115Y000782D02*
X011440Y000782D01*
X011440Y000781D02*
X014115Y000781D01*
X014115Y000780D02*
X011440Y000780D01*
X011440Y000779D02*
X014115Y000779D01*
X014115Y000778D02*
X011440Y000778D01*
X011440Y000777D02*
X014115Y000777D01*
X014115Y000776D02*
X011440Y000776D01*
X011440Y000775D02*
X014115Y000775D01*
X014115Y000774D02*
X011440Y000774D01*
X011440Y000773D02*
X014115Y000773D01*
X014115Y000772D02*
X011440Y000772D01*
X011440Y000771D02*
X014115Y000771D01*
X014115Y000770D02*
X011440Y000770D01*
X011440Y000769D02*
X014115Y000769D01*
X014115Y000768D02*
X011440Y000768D01*
X011440Y000767D02*
X014115Y000767D01*
X014115Y000766D02*
X011440Y000766D01*
X011440Y000765D02*
X014115Y000765D01*
X014115Y000764D02*
X011440Y000764D01*
X011440Y000763D02*
X014115Y000763D01*
X014115Y000762D02*
X011440Y000762D01*
X011440Y000761D02*
X014115Y000761D01*
X014115Y000760D02*
X011440Y000760D01*
X011440Y000759D02*
X014115Y000759D01*
X014115Y000758D02*
X011440Y000758D01*
X011440Y000757D02*
X014115Y000757D01*
X014115Y000756D02*
X011440Y000756D01*
X011440Y000755D02*
X014115Y000755D01*
X014115Y000754D02*
X011440Y000754D01*
X011440Y000753D02*
X014115Y000753D01*
X014115Y000752D02*
X011440Y000752D01*
X011440Y000751D02*
X014115Y000751D01*
X014115Y000750D02*
X011440Y000750D01*
X011440Y000749D02*
X014115Y000749D01*
X014115Y000748D02*
X011440Y000748D01*
X011440Y000747D02*
X014115Y000747D01*
X014115Y000746D02*
X011440Y000746D01*
X011440Y000745D02*
X014115Y000745D01*
X014115Y000744D02*
X011440Y000744D01*
X011440Y000743D02*
X014115Y000743D01*
X014115Y000742D02*
X011440Y000742D01*
X011440Y000741D02*
X014115Y000741D01*
X014115Y000740D02*
X011440Y000740D01*
X011440Y000739D02*
X014115Y000739D01*
X014115Y000738D02*
X011440Y000738D01*
X011440Y000737D02*
X014115Y000737D01*
X014115Y000736D02*
X011440Y000736D01*
X011440Y000735D02*
X014115Y000735D01*
X014115Y000734D02*
X011440Y000734D01*
X011440Y000733D02*
X014115Y000733D01*
X014115Y000732D02*
X011440Y000732D01*
X011440Y000731D02*
X014115Y000731D01*
X014115Y000730D02*
X011440Y000730D01*
X011440Y000729D02*
X014115Y000729D01*
X014115Y000728D02*
X011440Y000728D01*
X011440Y000727D02*
X014115Y000727D01*
X014115Y000726D02*
X011440Y000726D01*
X011440Y000725D02*
X014115Y000725D01*
X014115Y000724D02*
X011440Y000724D01*
X011440Y000723D02*
X014115Y000723D01*
X014115Y000722D02*
X011440Y000722D01*
X011440Y000721D02*
X014115Y000721D01*
X014115Y000720D02*
X011440Y000720D01*
X011440Y000719D02*
X014115Y000719D01*
X014115Y000718D02*
X011440Y000718D01*
X011440Y000717D02*
X014115Y000717D01*
X014115Y000716D02*
X011440Y000716D01*
X011440Y000715D02*
X014115Y000715D01*
X014115Y000714D02*
X011440Y000714D01*
X011440Y000713D02*
X014115Y000713D01*
X014115Y000712D02*
X011440Y000712D01*
X011440Y000711D02*
X014115Y000711D01*
X014115Y000710D02*
X011440Y000710D01*
X011440Y000709D02*
X014115Y000709D01*
X014115Y000708D02*
X011440Y000708D01*
X011440Y000707D02*
X014115Y000707D01*
X014115Y000706D02*
X011440Y000706D01*
X011440Y000705D02*
X014115Y000705D01*
X014115Y000704D02*
X011440Y000704D01*
X011440Y000703D02*
X014115Y000703D01*
X014115Y000702D02*
X011440Y000702D01*
X011440Y000701D02*
X014115Y000701D01*
X014115Y000700D02*
X011440Y000700D01*
X011440Y000699D02*
X014115Y000699D01*
X014115Y000698D02*
X011440Y000698D01*
X011440Y000697D02*
X014115Y000697D01*
X014115Y000696D02*
X011440Y000696D01*
X011440Y000695D02*
X014115Y000695D01*
X014115Y000694D02*
X011440Y000694D01*
X011440Y000693D02*
X014115Y000693D01*
X014115Y000692D02*
X011440Y000692D01*
X011440Y000691D02*
X014115Y000691D01*
X014115Y000690D02*
X011440Y000690D01*
X011440Y000689D02*
X014115Y000689D01*
X014115Y000688D02*
X011440Y000688D01*
X011440Y000687D02*
X014115Y000687D01*
X014115Y000686D02*
X011440Y000686D01*
X011440Y000685D02*
X014115Y000685D01*
X014115Y000684D02*
X011440Y000684D01*
X011440Y000683D02*
X014115Y000683D01*
X014115Y000682D02*
X011440Y000682D01*
X011440Y000681D02*
X014115Y000681D01*
X014115Y000680D02*
X011440Y000680D01*
X011440Y000679D02*
X014115Y000679D01*
X014115Y000678D02*
X011440Y000678D01*
X011440Y000677D02*
X014115Y000677D01*
X014115Y000676D02*
X011440Y000676D01*
X011440Y000675D02*
X014115Y000675D01*
X014115Y000674D02*
X011440Y000674D01*
X011440Y000673D02*
X014115Y000673D01*
X014115Y000672D02*
X011440Y000672D01*
X011440Y000671D02*
X014115Y000671D01*
X014115Y000670D02*
X011440Y000670D01*
X011440Y000669D02*
X014115Y000669D01*
X014115Y000668D02*
X011440Y000668D01*
X011440Y000667D02*
X014115Y000667D01*
X014115Y000666D02*
X011440Y000666D01*
X011440Y000665D02*
X014115Y000665D01*
X014115Y000664D02*
X011440Y000664D01*
X011440Y000663D02*
X014115Y000663D01*
X014115Y000662D02*
X011440Y000662D01*
X011440Y000661D02*
X014115Y000661D01*
X014115Y000660D02*
X011440Y000660D01*
X011440Y000659D02*
X014115Y000659D01*
X014115Y000658D02*
X011440Y000658D01*
X011440Y000657D02*
X014115Y000657D01*
X014115Y000656D02*
X011440Y000656D01*
X011440Y000655D02*
X014115Y000655D01*
X014115Y000654D02*
X011440Y000654D01*
X011440Y000653D02*
X014115Y000653D01*
X014115Y000652D02*
X011440Y000652D01*
X011440Y000651D02*
X014115Y000651D01*
X014115Y000650D02*
X011440Y000650D01*
X011440Y000649D02*
X014115Y000649D01*
X014115Y000648D02*
X011440Y000648D01*
X011440Y000647D02*
X014115Y000647D01*
X014115Y000646D02*
X011440Y000646D01*
X011440Y000645D02*
X014115Y000645D01*
X014115Y000644D02*
X011440Y000644D01*
X011440Y000643D02*
X014115Y000643D01*
X014115Y000642D02*
X011440Y000642D01*
X011440Y000641D02*
X014115Y000641D01*
X014115Y000640D02*
X011440Y000640D01*
X011440Y000639D02*
X014115Y000639D01*
X014115Y000638D02*
X011440Y000638D01*
X011440Y000637D02*
X014115Y000637D01*
X014115Y000636D02*
X011440Y000636D01*
X011440Y000635D02*
X014115Y000635D01*
X014115Y000634D02*
X011440Y000634D01*
X011440Y000633D02*
X014115Y000633D01*
X014115Y000632D02*
X011440Y000632D01*
X011440Y000631D02*
X014115Y000631D01*
X014115Y000630D02*
X011440Y000630D01*
X011440Y000629D02*
X014115Y000629D01*
X014115Y000628D02*
X011440Y000628D01*
X011440Y000627D02*
X014115Y000627D01*
X014115Y000626D02*
X011440Y000626D01*
X011440Y000625D02*
X014115Y000625D01*
X014115Y000624D02*
X011440Y000624D01*
X011440Y000623D02*
X014115Y000623D01*
X014115Y000622D02*
X011440Y000622D01*
X011440Y000621D02*
X014115Y000621D01*
X014115Y000620D02*
X011440Y000620D01*
X011440Y000619D02*
X014115Y000619D01*
X014115Y000618D02*
X011440Y000618D01*
X011440Y000617D02*
X014115Y000617D01*
X014115Y000616D02*
X011440Y000616D01*
X011440Y000615D02*
X014115Y000615D01*
X014115Y000614D02*
X011440Y000614D01*
X011440Y000613D02*
X014115Y000613D01*
X014115Y000612D02*
X011440Y000612D01*
X011440Y000611D02*
X014115Y000611D01*
X014115Y000610D02*
X011440Y000610D01*
X011440Y000609D02*
X014115Y000609D01*
X014115Y000608D02*
X011440Y000608D01*
X011440Y000607D02*
X014115Y000607D01*
X014115Y000606D02*
X011440Y000606D01*
X011440Y000605D02*
X014115Y000605D01*
X014115Y000604D02*
X011440Y000604D01*
X011440Y000603D02*
X014115Y000603D01*
X014115Y000602D02*
X011440Y000602D01*
X011440Y000601D02*
X014115Y000601D01*
D12*
X018265Y002200D03*
X018265Y005450D03*
X018265Y008700D03*
D13*
X018265Y008700D03*
X018265Y005450D03*
X018265Y002200D03*
D14*
X013799Y001302D03*
X013799Y003098D03*
X013799Y004552D03*
X013799Y006348D03*
X013799Y007802D03*
X013799Y009598D03*
D15*
X016515Y008700D03*
X016515Y005450D03*
X016515Y002200D03*
D16*
X011148Y001250D03*
X010321Y001624D03*
X010321Y000876D03*
X010321Y004126D03*
X011148Y004500D03*
X010321Y004874D03*
X010321Y007376D03*
X011148Y007750D03*
X010321Y008124D03*
D17*
X012180Y008425D03*
X012850Y008425D03*
X012850Y009175D03*
X012180Y009175D03*
X012180Y009925D03*
X012850Y009925D03*
X008525Y007300D03*
X007855Y007300D03*
X010630Y006750D03*
X011300Y006750D03*
X012180Y006675D03*
X012850Y006675D03*
X012850Y005925D03*
X012180Y005925D03*
X012180Y005175D03*
X012850Y005175D03*
X009775Y004725D03*
X009105Y004725D03*
X010630Y003500D03*
X011300Y003500D03*
X012180Y003425D03*
X012850Y003425D03*
X012850Y002675D03*
X012180Y002675D03*
X012180Y001925D03*
X012850Y001925D03*
X003375Y002350D03*
X002705Y002350D03*
D18*
X004892Y002415D03*
X005640Y002415D03*
X005640Y003085D03*
X004892Y003085D03*
X002290Y004925D03*
X001540Y004925D03*
X001540Y005595D03*
X002290Y005595D03*
X005285Y006265D03*
X006190Y006265D03*
X006190Y006935D03*
X005285Y006935D03*
X009765Y007090D03*
X009765Y007760D03*
X010040Y008615D03*
X010790Y008615D03*
X011540Y008615D03*
X011540Y009285D03*
X010790Y009285D03*
X010040Y009285D03*
X010040Y006035D03*
X010790Y006035D03*
X011540Y006035D03*
X011540Y005365D03*
X010790Y005365D03*
X010040Y005365D03*
X010040Y002785D03*
X010790Y002785D03*
X011540Y002785D03*
X011540Y002115D03*
X010790Y002115D03*
X010040Y002115D03*
X009440Y001585D03*
X009440Y000915D03*
D19*
X007640Y001800D03*
X007640Y009100D03*
D20*
X008490Y009950D03*
X001890Y009950D03*
D21*
X000640Y009950D03*
X008490Y000950D03*
D22*
X005719Y003806D02*
X005719Y004044D01*
X005719Y003806D02*
X005639Y003806D01*
X005639Y004044D01*
X005719Y004044D01*
X005719Y003884D02*
X005639Y003884D01*
X005639Y003962D02*
X005719Y003962D01*
X005719Y004040D02*
X005639Y004040D01*
X005522Y004044D02*
X005522Y003806D01*
X005442Y003806D01*
X005442Y004044D01*
X005522Y004044D01*
X005522Y003884D02*
X005442Y003884D01*
X005442Y003962D02*
X005522Y003962D01*
X005522Y004040D02*
X005442Y004040D01*
X005325Y004044D02*
X005325Y003806D01*
X005245Y003806D01*
X005245Y004044D01*
X005325Y004044D01*
X005325Y003884D02*
X005245Y003884D01*
X005245Y003962D02*
X005325Y003962D01*
X005325Y004040D02*
X005245Y004040D01*
X005128Y004044D02*
X005128Y003806D01*
X005048Y003806D01*
X005048Y004044D01*
X005128Y004044D01*
X005128Y003884D02*
X005048Y003884D01*
X005048Y003962D02*
X005128Y003962D01*
X005128Y004040D02*
X005048Y004040D01*
X004932Y004044D02*
X004932Y003806D01*
X004852Y003806D01*
X004852Y004044D01*
X004932Y004044D01*
X004932Y003884D02*
X004852Y003884D01*
X004852Y003962D02*
X004932Y003962D01*
X004932Y004040D02*
X004852Y004040D01*
X004735Y004044D02*
X004735Y003806D01*
X004655Y003806D01*
X004655Y004044D01*
X004735Y004044D01*
X004735Y003884D02*
X004655Y003884D01*
X004655Y003962D02*
X004735Y003962D01*
X004735Y004040D02*
X004655Y004040D01*
X004538Y004044D02*
X004538Y003806D01*
X004458Y003806D01*
X004458Y004044D01*
X004538Y004044D01*
X004538Y003884D02*
X004458Y003884D01*
X004458Y003962D02*
X004538Y003962D01*
X004538Y004040D02*
X004458Y004040D01*
X004341Y004044D02*
X004341Y003806D01*
X004261Y003806D01*
X004261Y004044D01*
X004341Y004044D01*
X004341Y003884D02*
X004261Y003884D01*
X004261Y003962D02*
X004341Y003962D01*
X004341Y004040D02*
X004261Y004040D01*
X004184Y004121D02*
X004184Y004201D01*
X004184Y004121D02*
X003946Y004121D01*
X003946Y004201D01*
X004184Y004201D01*
X004184Y004199D02*
X003946Y004199D01*
X004184Y004318D02*
X004184Y004398D01*
X004184Y004318D02*
X003946Y004318D01*
X003946Y004398D01*
X004184Y004398D01*
X004184Y004396D02*
X003946Y004396D01*
X004184Y004515D02*
X004184Y004595D01*
X004184Y004515D02*
X003946Y004515D01*
X003946Y004595D01*
X004184Y004595D01*
X004184Y004593D02*
X003946Y004593D01*
X004184Y004712D02*
X004184Y004792D01*
X004184Y004712D02*
X003946Y004712D01*
X003946Y004792D01*
X004184Y004792D01*
X004184Y004790D02*
X003946Y004790D01*
X004184Y004908D02*
X004184Y004988D01*
X004184Y004908D02*
X003946Y004908D01*
X003946Y004988D01*
X004184Y004988D01*
X004184Y004986D02*
X003946Y004986D01*
X004184Y005105D02*
X004184Y005185D01*
X004184Y005105D02*
X003946Y005105D01*
X003946Y005185D01*
X004184Y005185D01*
X004184Y005183D02*
X003946Y005183D01*
X004184Y005302D02*
X004184Y005382D01*
X004184Y005302D02*
X003946Y005302D01*
X003946Y005382D01*
X004184Y005382D01*
X004184Y005380D02*
X003946Y005380D01*
X004184Y005499D02*
X004184Y005579D01*
X004184Y005499D02*
X003946Y005499D01*
X003946Y005579D01*
X004184Y005579D01*
X004184Y005577D02*
X003946Y005577D01*
X004341Y005656D02*
X004341Y005894D01*
X004341Y005656D02*
X004261Y005656D01*
X004261Y005894D01*
X004341Y005894D01*
X004341Y005734D02*
X004261Y005734D01*
X004261Y005812D02*
X004341Y005812D01*
X004341Y005890D02*
X004261Y005890D01*
X004538Y005894D02*
X004538Y005656D01*
X004458Y005656D01*
X004458Y005894D01*
X004538Y005894D01*
X004538Y005734D02*
X004458Y005734D01*
X004458Y005812D02*
X004538Y005812D01*
X004538Y005890D02*
X004458Y005890D01*
X004735Y005894D02*
X004735Y005656D01*
X004655Y005656D01*
X004655Y005894D01*
X004735Y005894D01*
X004735Y005734D02*
X004655Y005734D01*
X004655Y005812D02*
X004735Y005812D01*
X004735Y005890D02*
X004655Y005890D01*
X004932Y005894D02*
X004932Y005656D01*
X004852Y005656D01*
X004852Y005894D01*
X004932Y005894D01*
X004932Y005734D02*
X004852Y005734D01*
X004852Y005812D02*
X004932Y005812D01*
X004932Y005890D02*
X004852Y005890D01*
X005128Y005894D02*
X005128Y005656D01*
X005048Y005656D01*
X005048Y005894D01*
X005128Y005894D01*
X005128Y005734D02*
X005048Y005734D01*
X005048Y005812D02*
X005128Y005812D01*
X005128Y005890D02*
X005048Y005890D01*
X005325Y005894D02*
X005325Y005656D01*
X005245Y005656D01*
X005245Y005894D01*
X005325Y005894D01*
X005325Y005734D02*
X005245Y005734D01*
X005245Y005812D02*
X005325Y005812D01*
X005325Y005890D02*
X005245Y005890D01*
X005522Y005894D02*
X005522Y005656D01*
X005442Y005656D01*
X005442Y005894D01*
X005522Y005894D01*
X005522Y005734D02*
X005442Y005734D01*
X005442Y005812D02*
X005522Y005812D01*
X005522Y005890D02*
X005442Y005890D01*
X005719Y005894D02*
X005719Y005656D01*
X005639Y005656D01*
X005639Y005894D01*
X005719Y005894D01*
X005719Y005734D02*
X005639Y005734D01*
X005639Y005812D02*
X005719Y005812D01*
X005719Y005890D02*
X005639Y005890D01*
X006034Y005579D02*
X006034Y005499D01*
X005796Y005499D01*
X005796Y005579D01*
X006034Y005579D01*
X006034Y005577D02*
X005796Y005577D01*
X006034Y005382D02*
X006034Y005302D01*
X005796Y005302D01*
X005796Y005382D01*
X006034Y005382D01*
X006034Y005380D02*
X005796Y005380D01*
X006034Y005185D02*
X006034Y005105D01*
X005796Y005105D01*
X005796Y005185D01*
X006034Y005185D01*
X006034Y005183D02*
X005796Y005183D01*
X006034Y004988D02*
X006034Y004908D01*
X005796Y004908D01*
X005796Y004988D01*
X006034Y004988D01*
X006034Y004986D02*
X005796Y004986D01*
X006034Y004792D02*
X006034Y004712D01*
X005796Y004712D01*
X005796Y004792D01*
X006034Y004792D01*
X006034Y004790D02*
X005796Y004790D01*
X006034Y004595D02*
X006034Y004515D01*
X005796Y004515D01*
X005796Y004595D01*
X006034Y004595D01*
X006034Y004593D02*
X005796Y004593D01*
X006034Y004398D02*
X006034Y004318D01*
X005796Y004318D01*
X005796Y004398D01*
X006034Y004398D01*
X006034Y004396D02*
X005796Y004396D01*
X006034Y004201D02*
X006034Y004121D01*
X005796Y004121D01*
X005796Y004201D01*
X006034Y004201D01*
X006034Y004199D02*
X005796Y004199D01*
D23*
X004990Y004850D03*
D24*
X003868Y001753D03*
X002412Y001753D03*
X002412Y000847D03*
X003868Y000847D03*
D25*
X005560Y008190D03*
X005560Y009100D03*
X005560Y010010D03*
D26*
X003120Y009100D03*
D27*
X001890Y009000D03*
X001890Y007700D03*
D28*
X004828Y001624D03*
X004828Y001250D03*
X004828Y000876D03*
X005852Y000876D03*
X005852Y001624D03*
D29*
X000640Y000950D03*
D30*
X000640Y001950D03*
X000640Y002950D03*
X000640Y003950D03*
X000640Y004950D03*
X000640Y005950D03*
X000640Y006950D03*
X000640Y007950D03*
X000640Y008950D03*
D31*
X002613Y007200D03*
X002967Y007200D03*
X002967Y006400D03*
X002613Y006400D03*
G36*
X001820Y004280D02*
X002025Y004075D01*
X001644Y003694D01*
X001439Y003899D01*
X001820Y004280D01*
G37*
G36*
X002071Y004029D02*
X002276Y003824D01*
X001895Y003443D01*
X001690Y003648D01*
X002071Y004029D01*
G37*
D32*
X006790Y002650D03*
X008490Y002650D03*
X006790Y000950D03*
X006790Y008250D03*
X008490Y008250D03*
X006790Y009950D03*
D33*
X011840Y007375D03*
X011840Y004125D03*
X011840Y001000D03*
M02*
