G75*
G70*
%OFA0B0*%
%FSLAX24Y24*%
%IPPOS*%
%LPD*%
%AMOC8*
5,1,8,0,0,1.08239X$1,22.5*
%
%ADD10C,0.0000*%
%ADD11R,0.1330X0.1900*%
%ADD12R,0.1181X0.0630*%
%ADD13R,0.2250X0.1900*%
%ADD14R,0.0354X0.0315*%
%ADD15R,0.0433X0.0394*%
%ADD16R,0.0394X0.0433*%
%ADD17R,0.2362X0.2362*%
%ADD18OC8,0.0660*%
%ADD19C,0.0660*%
%ADD20C,0.0059*%
%ADD21R,0.1142X0.1142*%
%ADD22R,0.0748X0.0433*%
%ADD23R,0.0880X0.0480*%
%ADD24R,0.0866X0.1417*%
%ADD25R,0.0630X0.0748*%
%ADD26R,0.0472X0.0217*%
%ADD27R,0.0660X0.0660*%
%ADD28C,0.0700*%
%ADD29R,0.0250X0.0500*%
%ADD30C,0.1250*%
%ADD31C,0.0100*%
%ADD32C,0.0591*%
%ADD33C,0.0320*%
%ADD34C,0.0270*%
%ADD35C,0.0200*%
%ADD36OC8,0.0768*%
%ADD37C,0.0120*%
D10*
X000140Y000450D02*
X000140Y010450D01*
X019140Y010450D01*
X019140Y000450D01*
X000140Y000450D01*
X017674Y002200D02*
X017676Y002248D01*
X017682Y002296D01*
X017692Y002343D01*
X017705Y002389D01*
X017723Y002434D01*
X017743Y002478D01*
X017768Y002520D01*
X017796Y002559D01*
X017826Y002596D01*
X017860Y002630D01*
X017897Y002662D01*
X017935Y002691D01*
X017976Y002716D01*
X018019Y002738D01*
X018064Y002756D01*
X018110Y002770D01*
X018157Y002781D01*
X018205Y002788D01*
X018253Y002791D01*
X018301Y002790D01*
X018349Y002785D01*
X018397Y002776D01*
X018443Y002764D01*
X018488Y002747D01*
X018532Y002727D01*
X018574Y002704D01*
X018614Y002677D01*
X018652Y002647D01*
X018687Y002614D01*
X018719Y002578D01*
X018749Y002540D01*
X018775Y002499D01*
X018797Y002456D01*
X018817Y002412D01*
X018832Y002367D01*
X018844Y002320D01*
X018852Y002272D01*
X018856Y002224D01*
X018856Y002176D01*
X018852Y002128D01*
X018844Y002080D01*
X018832Y002033D01*
X018817Y001988D01*
X018797Y001944D01*
X018775Y001901D01*
X018749Y001860D01*
X018719Y001822D01*
X018687Y001786D01*
X018652Y001753D01*
X018614Y001723D01*
X018574Y001696D01*
X018532Y001673D01*
X018488Y001653D01*
X018443Y001636D01*
X018397Y001624D01*
X018349Y001615D01*
X018301Y001610D01*
X018253Y001609D01*
X018205Y001612D01*
X018157Y001619D01*
X018110Y001630D01*
X018064Y001644D01*
X018019Y001662D01*
X017976Y001684D01*
X017935Y001709D01*
X017897Y001738D01*
X017860Y001770D01*
X017826Y001804D01*
X017796Y001841D01*
X017768Y001880D01*
X017743Y001922D01*
X017723Y001966D01*
X017705Y002011D01*
X017692Y002057D01*
X017682Y002104D01*
X017676Y002152D01*
X017674Y002200D01*
X017674Y005450D02*
X017676Y005498D01*
X017682Y005546D01*
X017692Y005593D01*
X017705Y005639D01*
X017723Y005684D01*
X017743Y005728D01*
X017768Y005770D01*
X017796Y005809D01*
X017826Y005846D01*
X017860Y005880D01*
X017897Y005912D01*
X017935Y005941D01*
X017976Y005966D01*
X018019Y005988D01*
X018064Y006006D01*
X018110Y006020D01*
X018157Y006031D01*
X018205Y006038D01*
X018253Y006041D01*
X018301Y006040D01*
X018349Y006035D01*
X018397Y006026D01*
X018443Y006014D01*
X018488Y005997D01*
X018532Y005977D01*
X018574Y005954D01*
X018614Y005927D01*
X018652Y005897D01*
X018687Y005864D01*
X018719Y005828D01*
X018749Y005790D01*
X018775Y005749D01*
X018797Y005706D01*
X018817Y005662D01*
X018832Y005617D01*
X018844Y005570D01*
X018852Y005522D01*
X018856Y005474D01*
X018856Y005426D01*
X018852Y005378D01*
X018844Y005330D01*
X018832Y005283D01*
X018817Y005238D01*
X018797Y005194D01*
X018775Y005151D01*
X018749Y005110D01*
X018719Y005072D01*
X018687Y005036D01*
X018652Y005003D01*
X018614Y004973D01*
X018574Y004946D01*
X018532Y004923D01*
X018488Y004903D01*
X018443Y004886D01*
X018397Y004874D01*
X018349Y004865D01*
X018301Y004860D01*
X018253Y004859D01*
X018205Y004862D01*
X018157Y004869D01*
X018110Y004880D01*
X018064Y004894D01*
X018019Y004912D01*
X017976Y004934D01*
X017935Y004959D01*
X017897Y004988D01*
X017860Y005020D01*
X017826Y005054D01*
X017796Y005091D01*
X017768Y005130D01*
X017743Y005172D01*
X017723Y005216D01*
X017705Y005261D01*
X017692Y005307D01*
X017682Y005354D01*
X017676Y005402D01*
X017674Y005450D01*
X017674Y008700D02*
X017676Y008748D01*
X017682Y008796D01*
X017692Y008843D01*
X017705Y008889D01*
X017723Y008934D01*
X017743Y008978D01*
X017768Y009020D01*
X017796Y009059D01*
X017826Y009096D01*
X017860Y009130D01*
X017897Y009162D01*
X017935Y009191D01*
X017976Y009216D01*
X018019Y009238D01*
X018064Y009256D01*
X018110Y009270D01*
X018157Y009281D01*
X018205Y009288D01*
X018253Y009291D01*
X018301Y009290D01*
X018349Y009285D01*
X018397Y009276D01*
X018443Y009264D01*
X018488Y009247D01*
X018532Y009227D01*
X018574Y009204D01*
X018614Y009177D01*
X018652Y009147D01*
X018687Y009114D01*
X018719Y009078D01*
X018749Y009040D01*
X018775Y008999D01*
X018797Y008956D01*
X018817Y008912D01*
X018832Y008867D01*
X018844Y008820D01*
X018852Y008772D01*
X018856Y008724D01*
X018856Y008676D01*
X018852Y008628D01*
X018844Y008580D01*
X018832Y008533D01*
X018817Y008488D01*
X018797Y008444D01*
X018775Y008401D01*
X018749Y008360D01*
X018719Y008322D01*
X018687Y008286D01*
X018652Y008253D01*
X018614Y008223D01*
X018574Y008196D01*
X018532Y008173D01*
X018488Y008153D01*
X018443Y008136D01*
X018397Y008124D01*
X018349Y008115D01*
X018301Y008110D01*
X018253Y008109D01*
X018205Y008112D01*
X018157Y008119D01*
X018110Y008130D01*
X018064Y008144D01*
X018019Y008162D01*
X017976Y008184D01*
X017935Y008209D01*
X017897Y008238D01*
X017860Y008270D01*
X017826Y008304D01*
X017796Y008341D01*
X017768Y008380D01*
X017743Y008422D01*
X017723Y008466D01*
X017705Y008511D01*
X017692Y008557D01*
X017682Y008604D01*
X017676Y008652D01*
X017674Y008700D01*
D11*
X018265Y008700D03*
X018265Y005450D03*
X018265Y002200D03*
D12*
X013799Y001302D03*
X013799Y003098D03*
X013799Y004552D03*
X013799Y006348D03*
X013799Y007802D03*
X013799Y009598D03*
D13*
X016515Y008700D03*
X016515Y005450D03*
X016515Y002200D03*
D14*
X011148Y001250D03*
X010321Y001624D03*
X010321Y000876D03*
X010321Y004126D03*
X011148Y004500D03*
X010321Y004874D03*
X010321Y007376D03*
X011148Y007750D03*
X010321Y008124D03*
D15*
X012180Y008425D03*
X012850Y008425D03*
X012850Y009175D03*
X012180Y009175D03*
X012180Y009925D03*
X012850Y009925D03*
X008525Y007300D03*
X007855Y007300D03*
X010630Y006750D03*
X011300Y006750D03*
X012180Y006675D03*
X012850Y006675D03*
X012850Y005925D03*
X012180Y005925D03*
X012180Y005175D03*
X012850Y005175D03*
X009775Y004725D03*
X009105Y004725D03*
X010630Y003500D03*
X011300Y003500D03*
X012180Y003425D03*
X012850Y003425D03*
X012850Y002675D03*
X012180Y002675D03*
X012180Y001925D03*
X012850Y001925D03*
X003375Y002350D03*
X002705Y002350D03*
D16*
X004892Y002415D03*
X005640Y002415D03*
X005640Y003085D03*
X004892Y003085D03*
X002290Y004925D03*
X001540Y004925D03*
X001540Y005595D03*
X002290Y005595D03*
X005285Y006265D03*
X006190Y006265D03*
X006190Y006935D03*
X005285Y006935D03*
X009765Y007090D03*
X009765Y007760D03*
X010040Y008615D03*
X010790Y008615D03*
X011540Y008615D03*
X011540Y009285D03*
X010790Y009285D03*
X010040Y009285D03*
X010040Y006035D03*
X010790Y006035D03*
X011540Y006035D03*
X011540Y005365D03*
X010790Y005365D03*
X010040Y005365D03*
X010040Y002785D03*
X010790Y002785D03*
X011540Y002785D03*
X011540Y002115D03*
X010790Y002115D03*
X010040Y002115D03*
X009440Y001585D03*
X009440Y000915D03*
D17*
X007640Y001800D03*
X007640Y009100D03*
D18*
X008490Y009950D03*
X001890Y009950D03*
D19*
X000640Y009950D03*
X008490Y000950D03*
D20*
X005709Y003816D02*
X005709Y004034D01*
X005709Y003816D02*
X005649Y003816D01*
X005649Y004034D01*
X005709Y004034D01*
X005709Y003874D02*
X005649Y003874D01*
X005649Y003932D02*
X005709Y003932D01*
X005709Y003990D02*
X005649Y003990D01*
X005512Y004034D02*
X005512Y003816D01*
X005452Y003816D01*
X005452Y004034D01*
X005512Y004034D01*
X005512Y003874D02*
X005452Y003874D01*
X005452Y003932D02*
X005512Y003932D01*
X005512Y003990D02*
X005452Y003990D01*
X005315Y004034D02*
X005315Y003816D01*
X005255Y003816D01*
X005255Y004034D01*
X005315Y004034D01*
X005315Y003874D02*
X005255Y003874D01*
X005255Y003932D02*
X005315Y003932D01*
X005315Y003990D02*
X005255Y003990D01*
X005118Y004034D02*
X005118Y003816D01*
X005058Y003816D01*
X005058Y004034D01*
X005118Y004034D01*
X005118Y003874D02*
X005058Y003874D01*
X005058Y003932D02*
X005118Y003932D01*
X005118Y003990D02*
X005058Y003990D01*
X004922Y004034D02*
X004922Y003816D01*
X004862Y003816D01*
X004862Y004034D01*
X004922Y004034D01*
X004922Y003874D02*
X004862Y003874D01*
X004862Y003932D02*
X004922Y003932D01*
X004922Y003990D02*
X004862Y003990D01*
X004725Y004034D02*
X004725Y003816D01*
X004665Y003816D01*
X004665Y004034D01*
X004725Y004034D01*
X004725Y003874D02*
X004665Y003874D01*
X004665Y003932D02*
X004725Y003932D01*
X004725Y003990D02*
X004665Y003990D01*
X004528Y004034D02*
X004528Y003816D01*
X004468Y003816D01*
X004468Y004034D01*
X004528Y004034D01*
X004528Y003874D02*
X004468Y003874D01*
X004468Y003932D02*
X004528Y003932D01*
X004528Y003990D02*
X004468Y003990D01*
X004331Y004034D02*
X004331Y003816D01*
X004271Y003816D01*
X004271Y004034D01*
X004331Y004034D01*
X004331Y003874D02*
X004271Y003874D01*
X004271Y003932D02*
X004331Y003932D01*
X004331Y003990D02*
X004271Y003990D01*
X004174Y004131D02*
X004174Y004191D01*
X004174Y004131D02*
X003956Y004131D01*
X003956Y004191D01*
X004174Y004191D01*
X004174Y004189D02*
X003956Y004189D01*
X004174Y004328D02*
X004174Y004388D01*
X004174Y004328D02*
X003956Y004328D01*
X003956Y004388D01*
X004174Y004388D01*
X004174Y004386D02*
X003956Y004386D01*
X004174Y004525D02*
X004174Y004585D01*
X004174Y004525D02*
X003956Y004525D01*
X003956Y004585D01*
X004174Y004585D01*
X004174Y004583D02*
X003956Y004583D01*
X004174Y004722D02*
X004174Y004782D01*
X004174Y004722D02*
X003956Y004722D01*
X003956Y004782D01*
X004174Y004782D01*
X004174Y004780D02*
X003956Y004780D01*
X004174Y004918D02*
X004174Y004978D01*
X004174Y004918D02*
X003956Y004918D01*
X003956Y004978D01*
X004174Y004978D01*
X004174Y004976D02*
X003956Y004976D01*
X004174Y005115D02*
X004174Y005175D01*
X004174Y005115D02*
X003956Y005115D01*
X003956Y005175D01*
X004174Y005175D01*
X004174Y005173D02*
X003956Y005173D01*
X004174Y005312D02*
X004174Y005372D01*
X004174Y005312D02*
X003956Y005312D01*
X003956Y005372D01*
X004174Y005372D01*
X004174Y005370D02*
X003956Y005370D01*
X004174Y005509D02*
X004174Y005569D01*
X004174Y005509D02*
X003956Y005509D01*
X003956Y005569D01*
X004174Y005569D01*
X004174Y005567D02*
X003956Y005567D01*
X004331Y005666D02*
X004331Y005884D01*
X004331Y005666D02*
X004271Y005666D01*
X004271Y005884D01*
X004331Y005884D01*
X004331Y005724D02*
X004271Y005724D01*
X004271Y005782D02*
X004331Y005782D01*
X004331Y005840D02*
X004271Y005840D01*
X004528Y005884D02*
X004528Y005666D01*
X004468Y005666D01*
X004468Y005884D01*
X004528Y005884D01*
X004528Y005724D02*
X004468Y005724D01*
X004468Y005782D02*
X004528Y005782D01*
X004528Y005840D02*
X004468Y005840D01*
X004725Y005884D02*
X004725Y005666D01*
X004665Y005666D01*
X004665Y005884D01*
X004725Y005884D01*
X004725Y005724D02*
X004665Y005724D01*
X004665Y005782D02*
X004725Y005782D01*
X004725Y005840D02*
X004665Y005840D01*
X004922Y005884D02*
X004922Y005666D01*
X004862Y005666D01*
X004862Y005884D01*
X004922Y005884D01*
X004922Y005724D02*
X004862Y005724D01*
X004862Y005782D02*
X004922Y005782D01*
X004922Y005840D02*
X004862Y005840D01*
X005118Y005884D02*
X005118Y005666D01*
X005058Y005666D01*
X005058Y005884D01*
X005118Y005884D01*
X005118Y005724D02*
X005058Y005724D01*
X005058Y005782D02*
X005118Y005782D01*
X005118Y005840D02*
X005058Y005840D01*
X005315Y005884D02*
X005315Y005666D01*
X005255Y005666D01*
X005255Y005884D01*
X005315Y005884D01*
X005315Y005724D02*
X005255Y005724D01*
X005255Y005782D02*
X005315Y005782D01*
X005315Y005840D02*
X005255Y005840D01*
X005512Y005884D02*
X005512Y005666D01*
X005452Y005666D01*
X005452Y005884D01*
X005512Y005884D01*
X005512Y005724D02*
X005452Y005724D01*
X005452Y005782D02*
X005512Y005782D01*
X005512Y005840D02*
X005452Y005840D01*
X005709Y005884D02*
X005709Y005666D01*
X005649Y005666D01*
X005649Y005884D01*
X005709Y005884D01*
X005709Y005724D02*
X005649Y005724D01*
X005649Y005782D02*
X005709Y005782D01*
X005709Y005840D02*
X005649Y005840D01*
X006024Y005569D02*
X006024Y005509D01*
X005806Y005509D01*
X005806Y005569D01*
X006024Y005569D01*
X006024Y005567D02*
X005806Y005567D01*
X006024Y005372D02*
X006024Y005312D01*
X005806Y005312D01*
X005806Y005372D01*
X006024Y005372D01*
X006024Y005370D02*
X005806Y005370D01*
X006024Y005175D02*
X006024Y005115D01*
X005806Y005115D01*
X005806Y005175D01*
X006024Y005175D01*
X006024Y005173D02*
X005806Y005173D01*
X006024Y004978D02*
X006024Y004918D01*
X005806Y004918D01*
X005806Y004978D01*
X006024Y004978D01*
X006024Y004976D02*
X005806Y004976D01*
X006024Y004782D02*
X006024Y004722D01*
X005806Y004722D01*
X005806Y004782D01*
X006024Y004782D01*
X006024Y004780D02*
X005806Y004780D01*
X006024Y004585D02*
X006024Y004525D01*
X005806Y004525D01*
X005806Y004585D01*
X006024Y004585D01*
X006024Y004583D02*
X005806Y004583D01*
X006024Y004388D02*
X006024Y004328D01*
X005806Y004328D01*
X005806Y004388D01*
X006024Y004388D01*
X006024Y004386D02*
X005806Y004386D01*
X006024Y004191D02*
X006024Y004131D01*
X005806Y004131D01*
X005806Y004191D01*
X006024Y004191D01*
X006024Y004189D02*
X005806Y004189D01*
D21*
X004990Y004850D03*
D22*
X003868Y001753D03*
X002412Y001753D03*
X002412Y000847D03*
X003868Y000847D03*
D23*
X005560Y008190D03*
X005560Y009100D03*
X005560Y010010D03*
D24*
X003120Y009100D03*
D25*
X001890Y009000D03*
X001890Y007700D03*
D26*
X004828Y001624D03*
X004828Y001250D03*
X004828Y000876D03*
X005852Y000876D03*
X005852Y001624D03*
D27*
X000640Y000950D03*
D28*
X000640Y001950D03*
X000640Y002950D03*
X000640Y003950D03*
X000640Y004950D03*
X000640Y005950D03*
X000640Y006950D03*
X000640Y007950D03*
X000640Y008950D03*
D29*
X002613Y007200D03*
X002967Y007200D03*
X002967Y006400D03*
X002613Y006400D03*
G36*
X001820Y004252D02*
X001997Y004075D01*
X001644Y003722D01*
X001467Y003899D01*
X001820Y004252D01*
G37*
G36*
X002071Y004001D02*
X002248Y003824D01*
X001895Y003471D01*
X001718Y003648D01*
X002071Y004001D01*
G37*
D30*
X016515Y005450D02*
X018265Y005450D01*
X018265Y002200D02*
X016515Y002200D01*
X016515Y008700D02*
X018265Y008700D01*
D31*
X016515Y008700D02*
X016515Y008700D01*
X016515Y009075D01*
X012950Y009075D01*
X012850Y009175D01*
X012555Y008800D02*
X012180Y008425D01*
X012500Y008075D02*
X011473Y008075D01*
X011148Y007750D01*
X011475Y007739D02*
X012515Y007739D01*
X012515Y007641D02*
X011475Y007641D01*
X011475Y007542D02*
X012515Y007542D01*
X012515Y007444D02*
X011388Y007444D01*
X011387Y007443D02*
X011475Y007530D01*
X011475Y007794D01*
X011556Y007875D01*
X012515Y007875D01*
X012515Y006966D01*
X012459Y007022D01*
X011902Y007022D01*
X011814Y006934D01*
X011814Y006600D01*
X011666Y006600D01*
X011666Y007009D01*
X011578Y007097D01*
X011021Y007097D01*
X010965Y007041D01*
X010939Y007067D01*
X010905Y007087D01*
X010867Y007097D01*
X010679Y007097D01*
X010679Y006798D01*
X010582Y006798D01*
X010582Y006702D01*
X010264Y006702D01*
X010264Y006600D01*
X009557Y006600D01*
X009681Y006724D01*
X010024Y006724D01*
X010112Y006812D01*
X010112Y007072D01*
X010124Y007069D01*
X010293Y007069D01*
X010293Y007347D01*
X010350Y007347D01*
X010350Y007083D01*
X010322Y007067D01*
X010294Y007039D01*
X010274Y007005D01*
X010264Y006967D01*
X010264Y006798D01*
X010582Y006798D01*
X010582Y007093D01*
X010591Y007098D01*
X010618Y007126D01*
X010638Y007161D01*
X010648Y007199D01*
X010648Y007347D01*
X010350Y007347D01*
X010350Y007405D01*
X010293Y007405D01*
X010293Y007683D01*
X010124Y007683D01*
X010112Y007680D01*
X010112Y007725D01*
X010205Y007725D01*
X010297Y007817D01*
X010561Y007817D01*
X010648Y007904D01*
X010648Y008249D01*
X010742Y008249D01*
X010742Y008567D01*
X010838Y008567D01*
X010838Y008249D01*
X011007Y008249D01*
X011045Y008259D01*
X011079Y008279D01*
X011107Y008307D01*
X011127Y008341D01*
X011137Y008379D01*
X011137Y008567D01*
X010838Y008567D01*
X010838Y008664D01*
X011137Y008664D01*
X011137Y008852D01*
X011127Y008890D01*
X011107Y008924D01*
X011081Y008950D01*
X011137Y009006D01*
X011137Y009085D01*
X011193Y009085D01*
X011193Y009006D01*
X011249Y008950D01*
X011223Y008924D01*
X011203Y008890D01*
X011193Y008852D01*
X011193Y008664D01*
X011492Y008664D01*
X011492Y008567D01*
X011193Y008567D01*
X011193Y008379D01*
X011203Y008341D01*
X011223Y008307D01*
X011251Y008279D01*
X011285Y008259D01*
X011323Y008249D01*
X011364Y008249D01*
X011173Y008057D01*
X010909Y008057D01*
X010821Y007970D01*
X010821Y007530D01*
X010909Y007443D01*
X011387Y007443D01*
X010908Y007444D02*
X010648Y007444D01*
X010648Y007405D02*
X010648Y007553D01*
X010638Y007591D01*
X010618Y007626D01*
X010591Y007653D01*
X010556Y007673D01*
X010518Y007683D01*
X010350Y007683D01*
X010350Y007405D01*
X010648Y007405D01*
X010648Y007345D02*
X012515Y007345D01*
X012515Y007247D02*
X010648Y007247D01*
X010631Y007148D02*
X012515Y007148D01*
X012515Y007050D02*
X011626Y007050D01*
X011666Y006951D02*
X011831Y006951D01*
X011814Y006853D02*
X011666Y006853D01*
X011666Y006754D02*
X011814Y006754D01*
X011814Y006656D02*
X011666Y006656D01*
X011300Y006750D02*
X011300Y006400D01*
X011390Y006400D01*
X011905Y006400D01*
X012180Y006675D01*
X012515Y006966D02*
X012515Y006966D01*
X012850Y006675D02*
X012950Y006575D01*
X013799Y006575D01*
X013799Y006348D01*
X012850Y005925D02*
X012850Y005775D01*
X016515Y005775D01*
X016515Y005450D01*
X013799Y005125D02*
X012825Y005125D01*
X012525Y004825D01*
X011473Y004825D01*
X011148Y004500D01*
X011475Y004489D02*
X012515Y004489D01*
X012515Y004587D02*
X011518Y004587D01*
X011556Y004625D02*
X012515Y004625D01*
X012515Y003716D01*
X012459Y003772D01*
X011902Y003772D01*
X011814Y003684D01*
X011814Y003350D01*
X011666Y003350D01*
X011666Y003759D01*
X011578Y003847D01*
X011021Y003847D01*
X010965Y003791D01*
X010939Y003817D01*
X010905Y003837D01*
X010867Y003847D01*
X010679Y003847D01*
X010679Y003548D01*
X010582Y003548D01*
X010582Y003452D01*
X010264Y003452D01*
X010264Y003350D01*
X010223Y003350D01*
X009365Y004208D01*
X009248Y004325D01*
X006898Y004325D01*
X006878Y004344D01*
X006976Y004385D01*
X007057Y004465D01*
X007100Y004570D01*
X007100Y004683D01*
X007073Y004748D01*
X008739Y004748D01*
X008739Y004466D01*
X008827Y004378D01*
X009384Y004378D01*
X009440Y004434D01*
X009496Y004378D01*
X010027Y004378D01*
X010024Y004376D01*
X010004Y004341D01*
X009994Y004303D01*
X009994Y004155D01*
X010293Y004155D01*
X010293Y004433D01*
X010124Y004433D01*
X010103Y004428D01*
X010141Y004466D01*
X010141Y004567D01*
X010561Y004567D01*
X010648Y004654D01*
X010648Y004999D01*
X010742Y004999D01*
X010742Y005317D01*
X010838Y005317D01*
X010838Y004999D01*
X011007Y004999D01*
X011045Y005009D01*
X011079Y005029D01*
X011107Y005057D01*
X011127Y005091D01*
X011137Y005129D01*
X011137Y005317D01*
X010838Y005317D01*
X010838Y005414D01*
X011137Y005414D01*
X011137Y005602D01*
X011127Y005640D01*
X011107Y005674D01*
X011081Y005700D01*
X011137Y005756D01*
X011137Y005835D01*
X011193Y005835D01*
X011193Y005756D01*
X011249Y005700D01*
X011223Y005674D01*
X011203Y005640D01*
X011193Y005602D01*
X011193Y005414D01*
X011492Y005414D01*
X011492Y005317D01*
X011193Y005317D01*
X011193Y005129D01*
X011203Y005091D01*
X011223Y005057D01*
X011251Y005029D01*
X011285Y005009D01*
X011323Y004999D01*
X011364Y004999D01*
X011173Y004807D01*
X010909Y004807D01*
X010821Y004720D01*
X010821Y004280D01*
X010909Y004193D01*
X011387Y004193D01*
X011475Y004280D01*
X011475Y004544D01*
X011556Y004625D01*
X011248Y004883D02*
X010648Y004883D01*
X010648Y004981D02*
X011346Y004981D01*
X011210Y005080D02*
X011120Y005080D01*
X011137Y005178D02*
X011193Y005178D01*
X011193Y005277D02*
X011137Y005277D01*
X011137Y005474D02*
X011193Y005474D01*
X011193Y005572D02*
X011137Y005572D01*
X011109Y005671D02*
X011221Y005671D01*
X011193Y005769D02*
X011137Y005769D01*
X010790Y006035D02*
X010040Y006035D01*
X010005Y006000D01*
X009040Y006000D01*
X008865Y006400D02*
X007610Y005145D01*
X005915Y005145D01*
X005915Y004948D02*
X008882Y004948D01*
X009105Y004725D01*
X008739Y004686D02*
X007099Y004686D01*
X007100Y004587D02*
X008739Y004587D01*
X008739Y004489D02*
X007066Y004489D01*
X006981Y004390D02*
X008815Y004390D01*
X009165Y004125D02*
X006815Y004125D01*
X006385Y004555D01*
X005915Y004555D01*
X005915Y004752D02*
X006549Y004752D01*
X006815Y004627D01*
X006282Y004358D02*
X007190Y003450D01*
X009045Y003450D01*
X009565Y002930D01*
X009565Y002350D01*
X009805Y002350D01*
X010040Y002115D01*
X010387Y002125D02*
X010742Y002125D01*
X010742Y002164D02*
X010742Y002067D01*
X010838Y002067D01*
X010838Y001749D01*
X011007Y001749D01*
X011045Y001759D01*
X011079Y001779D01*
X011107Y001807D01*
X011127Y001841D01*
X011137Y001879D01*
X011137Y002067D01*
X010838Y002067D01*
X010838Y002164D01*
X011137Y002164D01*
X011137Y002352D01*
X011127Y002390D01*
X011107Y002424D01*
X011081Y002450D01*
X011137Y002506D01*
X011137Y002585D01*
X011193Y002585D01*
X011193Y002506D01*
X011249Y002450D01*
X011223Y002424D01*
X011203Y002390D01*
X011193Y002352D01*
X011193Y002164D01*
X011492Y002164D01*
X011492Y002067D01*
X011193Y002067D01*
X011193Y001879D01*
X011203Y001841D01*
X011223Y001807D01*
X011251Y001779D01*
X011285Y001759D01*
X011323Y001749D01*
X011364Y001749D01*
X011173Y001557D01*
X010909Y001557D01*
X010821Y001470D01*
X010821Y001030D01*
X010909Y000943D01*
X011387Y000943D01*
X011475Y001030D01*
X011475Y001294D01*
X011556Y001375D01*
X012515Y001375D01*
X012515Y000650D01*
X010632Y000650D01*
X010638Y000661D01*
X010648Y000699D01*
X010648Y000847D01*
X010350Y000847D01*
X010350Y000905D01*
X010293Y000905D01*
X010293Y001183D01*
X010124Y001183D01*
X010086Y001173D01*
X010052Y001153D01*
X010024Y001126D01*
X010004Y001091D01*
X009994Y001053D01*
X009994Y000905D01*
X010293Y000905D01*
X010293Y000847D01*
X009994Y000847D01*
X009994Y000699D01*
X010004Y000661D01*
X010010Y000650D01*
X009787Y000650D01*
X009787Y001194D01*
X009731Y001250D01*
X009787Y001306D01*
X009787Y001424D01*
X009994Y001424D01*
X009994Y001404D01*
X010082Y001317D01*
X010561Y001317D01*
X010648Y001404D01*
X010648Y001749D01*
X010742Y001749D01*
X010742Y002067D01*
X010443Y002067D01*
X010443Y001931D01*
X010387Y001931D01*
X010387Y002394D01*
X010331Y002450D01*
X010387Y002506D01*
X010387Y002585D01*
X010443Y002585D01*
X010443Y002506D01*
X010499Y002450D01*
X010473Y002424D01*
X010453Y002390D01*
X010443Y002352D01*
X010443Y002164D01*
X010742Y002164D01*
X010838Y002125D02*
X011492Y002125D01*
X011193Y002223D02*
X011137Y002223D01*
X011137Y002322D02*
X011193Y002322D01*
X011221Y002420D02*
X011109Y002420D01*
X011137Y002519D02*
X011193Y002519D01*
X011540Y002785D02*
X010790Y002785D01*
X010040Y002785D01*
X010015Y002800D01*
X008990Y003825D01*
X009165Y004125D02*
X010140Y003150D01*
X011300Y003150D01*
X011300Y003500D01*
X011666Y003504D02*
X011814Y003504D01*
X011814Y003602D02*
X011666Y003602D01*
X011666Y003701D02*
X011830Y003701D01*
X011626Y003799D02*
X012515Y003799D01*
X012515Y003716D02*
X012515Y003716D01*
X012515Y003898D02*
X010631Y003898D01*
X010638Y003911D02*
X010648Y003949D01*
X010648Y004097D01*
X010350Y004097D01*
X010350Y003833D01*
X010322Y003817D01*
X010294Y003789D01*
X010274Y003755D01*
X010264Y003717D01*
X010264Y003548D01*
X010582Y003548D01*
X010582Y003843D01*
X010591Y003848D01*
X010618Y003876D01*
X010638Y003911D01*
X010648Y003996D02*
X012515Y003996D01*
X012515Y004095D02*
X010648Y004095D01*
X010648Y004155D02*
X010648Y004303D01*
X010638Y004341D01*
X010618Y004376D01*
X010591Y004403D01*
X010556Y004423D01*
X010518Y004433D01*
X010350Y004433D01*
X010350Y004155D01*
X010293Y004155D01*
X010293Y004097D01*
X010350Y004097D01*
X010350Y004155D01*
X010648Y004155D01*
X010648Y004193D02*
X010908Y004193D01*
X010821Y004292D02*
X010648Y004292D01*
X010604Y004390D02*
X010821Y004390D01*
X010821Y004489D02*
X010141Y004489D01*
X010293Y004390D02*
X010350Y004390D01*
X010350Y004292D02*
X010293Y004292D01*
X010293Y004193D02*
X010350Y004193D01*
X010350Y004095D02*
X010293Y004095D01*
X010293Y004097D02*
X010293Y003819D01*
X010124Y003819D01*
X010086Y003829D01*
X010052Y003848D01*
X010024Y003876D01*
X010004Y003911D01*
X009994Y003949D01*
X009994Y004097D01*
X010293Y004097D01*
X010293Y003996D02*
X010350Y003996D01*
X010350Y003898D02*
X010293Y003898D01*
X010304Y003799D02*
X009774Y003799D01*
X009872Y003701D02*
X010264Y003701D01*
X010264Y003602D02*
X009971Y003602D01*
X010069Y003504D02*
X010582Y003504D01*
X010582Y003602D02*
X010679Y003602D01*
X010679Y003701D02*
X010582Y003701D01*
X010582Y003799D02*
X010679Y003799D01*
X010957Y003799D02*
X010973Y003799D01*
X011388Y004193D02*
X012515Y004193D01*
X012515Y004292D02*
X011475Y004292D01*
X011475Y004390D02*
X012515Y004390D01*
X012825Y005125D02*
X012850Y005175D01*
X012555Y005550D02*
X012180Y005175D01*
X012555Y005550D02*
X013440Y005550D01*
X013565Y005425D01*
X012180Y005925D02*
X012071Y006035D01*
X011540Y006035D01*
X010790Y006035D01*
X010443Y005835D02*
X010443Y005756D01*
X010499Y005700D01*
X010473Y005674D01*
X010453Y005640D01*
X010443Y005602D01*
X010443Y005414D01*
X010742Y005414D01*
X010742Y005317D01*
X010443Y005317D01*
X010443Y005181D01*
X010387Y005181D01*
X010387Y005644D01*
X010331Y005700D01*
X010387Y005756D01*
X010387Y005835D01*
X010443Y005835D01*
X010443Y005769D02*
X010387Y005769D01*
X010360Y005671D02*
X010471Y005671D01*
X010443Y005572D02*
X010387Y005572D01*
X010387Y005474D02*
X010443Y005474D01*
X010387Y005375D02*
X010742Y005375D01*
X010838Y005375D02*
X011492Y005375D01*
X010838Y005277D02*
X010742Y005277D01*
X010742Y005178D02*
X010838Y005178D01*
X010838Y005080D02*
X010742Y005080D01*
X010443Y005277D02*
X010387Y005277D01*
X010040Y005365D02*
X010025Y005525D01*
X009565Y005525D01*
X009924Y004874D02*
X009775Y004725D01*
X009924Y004874D02*
X010321Y004874D01*
X010648Y004784D02*
X010885Y004784D01*
X010821Y004686D02*
X010648Y004686D01*
X010581Y004587D02*
X010821Y004587D01*
X009994Y004292D02*
X009281Y004292D01*
X009380Y004193D02*
X009994Y004193D01*
X009994Y004095D02*
X009478Y004095D01*
X009577Y003996D02*
X009994Y003996D01*
X010012Y003898D02*
X009675Y003898D01*
X009484Y004390D02*
X009396Y004390D01*
X010168Y003405D02*
X010264Y003405D01*
X011300Y003150D02*
X011905Y003150D01*
X012180Y003425D01*
X011814Y003405D02*
X011666Y003405D01*
X011540Y002785D02*
X012071Y002785D01*
X012180Y002675D01*
X012555Y002300D02*
X012180Y001925D01*
X012575Y001575D02*
X011473Y001575D01*
X011148Y001250D01*
X011475Y001238D02*
X012515Y001238D01*
X012515Y001140D02*
X011475Y001140D01*
X011475Y001041D02*
X012515Y001041D01*
X012515Y000943D02*
X010648Y000943D01*
X010648Y000905D02*
X010648Y001053D01*
X010638Y001091D01*
X010618Y001126D01*
X010591Y001153D01*
X010556Y001173D01*
X010518Y001183D01*
X010350Y001183D01*
X010350Y000905D01*
X010648Y000905D01*
X010648Y000844D02*
X012515Y000844D01*
X012515Y000746D02*
X010648Y000746D01*
X010350Y000943D02*
X010293Y000943D01*
X010293Y001041D02*
X010350Y001041D01*
X010350Y001140D02*
X010293Y001140D01*
X010605Y001140D02*
X010821Y001140D01*
X010821Y001238D02*
X009743Y001238D01*
X009787Y001140D02*
X010038Y001140D01*
X009994Y001041D02*
X009787Y001041D01*
X009787Y000943D02*
X009994Y000943D01*
X009994Y000844D02*
X009787Y000844D01*
X009787Y000746D02*
X009994Y000746D01*
X009440Y000915D02*
X009148Y000915D01*
X009065Y000998D01*
X009065Y003090D01*
X008930Y003225D01*
X007115Y003225D01*
X006179Y004161D01*
X005915Y004161D01*
X005915Y004358D02*
X006282Y004358D01*
X005679Y003925D02*
X005679Y003801D01*
X005705Y003775D01*
X006215Y003775D01*
X006265Y003549D02*
X006390Y003424D01*
X006390Y003150D01*
X006290Y003025D01*
X006290Y001121D01*
X006045Y000876D01*
X005852Y000876D01*
X006020Y001134D02*
X005553Y001134D01*
X005466Y001046D01*
X005466Y000706D01*
X005521Y000650D01*
X005159Y000650D01*
X005184Y000676D01*
X005204Y000710D01*
X005214Y000748D01*
X005214Y000872D01*
X004832Y000872D01*
X004832Y000650D01*
X004824Y000650D01*
X004824Y000872D01*
X004442Y000872D01*
X004442Y000748D01*
X004452Y000710D01*
X004472Y000676D01*
X004498Y000650D01*
X004392Y000650D01*
X004392Y000797D01*
X003918Y000797D01*
X003918Y000897D01*
X003818Y000897D01*
X003818Y000797D01*
X003344Y000797D01*
X003344Y000650D01*
X002936Y000650D01*
X002936Y001126D01*
X002848Y001214D01*
X002422Y001214D01*
X002422Y001386D01*
X002848Y001386D01*
X002936Y001474D01*
X002936Y002003D01*
X002984Y002003D01*
X003040Y002059D01*
X003066Y002033D01*
X003100Y002013D01*
X003138Y002003D01*
X003326Y002003D01*
X003326Y002302D01*
X003423Y002302D01*
X003423Y002110D01*
X003344Y002031D01*
X003344Y001474D01*
X003432Y001386D01*
X004067Y001386D01*
X004055Y001357D01*
X004055Y001243D01*
X004067Y001214D01*
X003918Y001214D01*
X003918Y000897D01*
X004392Y000897D01*
X004392Y001015D01*
X004397Y001015D01*
X004451Y001037D01*
X004442Y001004D01*
X004442Y000880D01*
X004824Y000880D01*
X004824Y000872D01*
X004832Y000872D01*
X004832Y000880D01*
X004824Y000880D01*
X004824Y000992D01*
X004832Y000992D01*
X004832Y000880D01*
X005214Y000880D01*
X005214Y001004D01*
X005204Y001042D01*
X005194Y001059D01*
X005214Y001080D01*
X005214Y001368D01*
X005283Y001339D01*
X005397Y001339D01*
X005501Y001382D01*
X005519Y001400D01*
X005553Y001366D01*
X006090Y001366D01*
X006090Y001204D01*
X006020Y001134D01*
X006025Y001140D02*
X005214Y001140D01*
X005214Y001238D02*
X006090Y001238D01*
X006090Y001337D02*
X005214Y001337D01*
X004828Y001250D02*
X004340Y001300D01*
X004055Y001337D02*
X002422Y001337D01*
X002422Y001238D02*
X004057Y001238D01*
X003918Y001140D02*
X003818Y001140D01*
X003818Y001214D02*
X003475Y001214D01*
X003436Y001204D01*
X003402Y001184D01*
X003374Y001156D01*
X003355Y001122D01*
X003344Y001084D01*
X003344Y000897D01*
X003818Y000897D01*
X003818Y001214D01*
X003818Y001041D02*
X003918Y001041D01*
X003918Y000943D02*
X003818Y000943D01*
X003818Y000844D02*
X002936Y000844D01*
X002936Y000746D02*
X003344Y000746D01*
X003344Y000943D02*
X002936Y000943D01*
X002936Y001041D02*
X003344Y001041D01*
X003365Y001140D02*
X002922Y001140D01*
X002897Y001435D02*
X003383Y001435D01*
X003344Y001534D02*
X002936Y001534D01*
X002936Y001632D02*
X003344Y001632D01*
X003344Y001731D02*
X002936Y001731D01*
X002936Y001829D02*
X003344Y001829D01*
X003344Y001928D02*
X002936Y001928D01*
X003007Y002026D02*
X003078Y002026D01*
X003326Y002026D02*
X003344Y002026D01*
X003326Y002125D02*
X003423Y002125D01*
X003423Y002223D02*
X003326Y002223D01*
X003326Y002398D02*
X003326Y002697D01*
X003138Y002697D01*
X003100Y002687D01*
X003066Y002667D01*
X003040Y002641D01*
X002984Y002697D01*
X002427Y002697D01*
X002339Y002609D01*
X002339Y002506D01*
X002268Y002535D01*
X002155Y002535D01*
X002050Y002492D01*
X001970Y002411D01*
X001927Y002307D01*
X001927Y002193D01*
X001963Y002106D01*
X001888Y002031D01*
X001888Y001474D01*
X001976Y001386D01*
X002002Y001386D01*
X002002Y001214D01*
X001976Y001214D01*
X001888Y001126D01*
X001888Y000650D01*
X001265Y000650D01*
X001265Y001792D01*
X003305Y003832D01*
X003329Y003808D01*
X003433Y003765D01*
X003547Y003765D01*
X003651Y003808D01*
X003732Y003889D01*
X003754Y003943D01*
X003798Y003961D01*
X003873Y003961D01*
X003882Y003952D01*
X004092Y003952D01*
X004092Y003851D01*
X003880Y003685D01*
X003783Y003685D01*
X003679Y003642D01*
X003598Y003561D01*
X003555Y003457D01*
X003555Y003343D01*
X003598Y003239D01*
X003679Y003158D01*
X003783Y003115D01*
X003897Y003115D01*
X003992Y003154D01*
X003998Y003139D01*
X004079Y003058D01*
X004183Y003015D01*
X004297Y003015D01*
X004401Y003058D01*
X004482Y003139D01*
X004525Y003243D01*
X004525Y003357D01*
X004512Y003389D01*
X004692Y003569D01*
X004692Y003451D01*
X004633Y003451D01*
X004545Y003363D01*
X004545Y003066D01*
X004450Y002985D01*
X004383Y002985D01*
X004279Y002942D01*
X004198Y002861D01*
X004155Y002757D01*
X004155Y002643D01*
X004198Y002539D01*
X004279Y002458D01*
X004383Y002415D01*
X004497Y002415D01*
X004601Y002458D01*
X004607Y002464D01*
X004843Y002464D01*
X004843Y002367D01*
X004545Y002367D01*
X004545Y002179D01*
X004555Y002141D01*
X004575Y002107D01*
X004603Y002079D01*
X004637Y002059D01*
X004675Y002049D01*
X004843Y002049D01*
X004843Y002367D01*
X004940Y002367D01*
X004940Y002464D01*
X005238Y002464D01*
X005238Y002652D01*
X005228Y002690D01*
X005208Y002724D01*
X005182Y002750D01*
X005238Y002806D01*
X005238Y003363D01*
X005151Y003451D01*
X005092Y003451D01*
X005092Y003516D01*
X005202Y003405D01*
X005197Y003405D01*
X005202Y003405D02*
X005202Y003405D01*
X005290Y003317D01*
X005290Y003152D01*
X005293Y003149D01*
X005293Y002806D01*
X005349Y002750D01*
X005323Y002724D01*
X005303Y002690D01*
X005293Y002652D01*
X005293Y002464D01*
X005592Y002464D01*
X005592Y002367D01*
X005688Y002367D01*
X005688Y002049D01*
X005840Y002049D01*
X005840Y001882D01*
X005553Y001882D01*
X005519Y001848D01*
X005501Y001866D01*
X005397Y001909D01*
X005283Y001909D01*
X005179Y001866D01*
X005161Y001848D01*
X005156Y001852D01*
X005122Y001872D01*
X005084Y001882D01*
X004832Y001882D01*
X004832Y001628D01*
X004824Y001628D01*
X004824Y001620D01*
X004442Y001620D01*
X004442Y001566D01*
X004397Y001585D01*
X004392Y001585D01*
X004392Y002031D01*
X004304Y002119D01*
X004123Y002119D01*
X004153Y002193D01*
X004153Y002307D01*
X004110Y002411D01*
X004030Y002492D01*
X003925Y002535D01*
X003812Y002535D01*
X003741Y002506D01*
X003741Y002567D01*
X003731Y002605D01*
X003711Y002639D01*
X003683Y002667D01*
X003649Y002687D01*
X003611Y002697D01*
X003423Y002697D01*
X003423Y002398D01*
X003326Y002398D01*
X003326Y002420D02*
X003423Y002420D01*
X003423Y002519D02*
X003326Y002519D01*
X003326Y002617D02*
X003423Y002617D01*
X003724Y002617D02*
X004166Y002617D01*
X004155Y002716D02*
X002188Y002716D01*
X002287Y002814D02*
X004179Y002814D01*
X004090Y002800D02*
X004290Y003000D01*
X004428Y003000D01*
X004540Y003112D01*
X004540Y003400D01*
X004695Y003555D01*
X004695Y003925D01*
X004695Y003955D02*
X004695Y004325D01*
X004940Y004500D02*
X004940Y004800D01*
X004640Y004800D01*
X004640Y004900D01*
X004940Y004900D01*
X004940Y005200D01*
X005040Y005200D01*
X005040Y004900D01*
X004940Y004900D01*
X004940Y004800D01*
X005040Y004800D01*
X005340Y004800D01*
X005340Y004900D01*
X005040Y004900D01*
X005040Y004800D01*
X005040Y004500D01*
X004940Y004500D01*
X004940Y004587D02*
X005040Y004587D01*
X005040Y004686D02*
X004940Y004686D01*
X004940Y004784D02*
X005040Y004784D01*
X005088Y004752D02*
X004990Y004850D01*
X004892Y004948D01*
X004892Y005775D01*
X004892Y007048D01*
X004938Y007050D02*
X004280Y007050D01*
X004301Y007058D02*
X004343Y007100D01*
X004938Y007100D01*
X004938Y006983D01*
X005237Y006983D01*
X005237Y006886D01*
X004938Y006886D01*
X004938Y006698D01*
X004949Y006660D01*
X004968Y006626D01*
X004994Y006600D01*
X004938Y006544D01*
X004938Y006201D01*
X004903Y006166D01*
X004895Y006187D01*
X004895Y006230D01*
X004864Y006260D01*
X004852Y006289D01*
X004875Y006343D01*
X004875Y006457D01*
X004832Y006561D01*
X004751Y006642D01*
X004647Y006685D01*
X004533Y006685D01*
X004429Y006642D01*
X004348Y006561D01*
X004329Y006514D01*
X004301Y006542D01*
X004197Y006585D01*
X004083Y006585D01*
X003979Y006542D01*
X003898Y006461D01*
X003864Y006378D01*
X003847Y006385D01*
X003733Y006385D01*
X003690Y006367D01*
X003690Y007125D01*
X003532Y007283D01*
X003415Y007400D01*
X003242Y007400D01*
X003242Y007512D01*
X003154Y007600D01*
X002780Y007600D01*
X002775Y007595D01*
X002758Y007600D01*
X002625Y007600D01*
X002625Y007213D01*
X002600Y007213D01*
X002600Y007600D01*
X002468Y007600D01*
X002430Y007590D01*
X002396Y007570D01*
X002368Y007542D01*
X002355Y007520D01*
X002355Y007650D01*
X001940Y007650D01*
X001940Y007176D01*
X002225Y007176D01*
X002263Y007187D01*
X002297Y007206D01*
X002325Y007234D01*
X002338Y007257D01*
X002338Y007213D01*
X002600Y007213D01*
X002600Y007187D01*
X002625Y007187D01*
X002625Y006800D01*
X002625Y006413D01*
X002600Y006413D01*
X002600Y006800D01*
X002468Y006800D01*
X002430Y006790D01*
X002396Y006770D01*
X002368Y006742D01*
X002348Y006708D01*
X002338Y006670D01*
X002338Y006413D01*
X002600Y006413D01*
X002600Y006387D01*
X002625Y006387D01*
X002625Y006000D01*
X002758Y006000D01*
X002775Y006005D01*
X002780Y006000D01*
X003090Y006000D01*
X003090Y005555D01*
X003207Y005438D01*
X003300Y005345D01*
X003228Y005345D01*
X003080Y005493D01*
X003064Y005532D01*
X003024Y005549D01*
X002996Y005577D01*
X002982Y005611D01*
X002901Y005692D01*
X002797Y005735D01*
X002683Y005735D01*
X002637Y005716D01*
X002637Y005831D01*
X002627Y005869D01*
X002607Y005903D01*
X002579Y005931D01*
X002545Y005951D01*
X002507Y005961D01*
X002338Y005961D01*
X002338Y005643D01*
X002242Y005643D01*
X002242Y005961D01*
X002104Y005961D01*
X002132Y005989D01*
X002175Y006093D01*
X002175Y006207D01*
X002132Y006311D01*
X002051Y006392D01*
X001947Y006435D01*
X001833Y006435D01*
X001729Y006392D01*
X001648Y006311D01*
X001605Y006207D01*
X001605Y006093D01*
X001648Y005989D01*
X001650Y005987D01*
X001624Y005961D01*
X001281Y005961D01*
X001265Y005945D01*
X001265Y010250D01*
X001511Y010250D01*
X001410Y010149D01*
X001410Y009751D01*
X001580Y009581D01*
X001580Y009524D01*
X001513Y009524D01*
X001425Y009436D01*
X001425Y008563D01*
X001513Y008476D01*
X002267Y008476D01*
X002355Y008563D01*
X002355Y008790D01*
X002537Y008790D01*
X002537Y008329D01*
X002625Y008241D01*
X003615Y008241D01*
X003703Y008329D01*
X003703Y008790D01*
X004978Y008790D01*
X005058Y008710D01*
X005990Y008710D01*
X005990Y008580D01*
X005610Y008580D01*
X005610Y008240D01*
X005510Y008240D01*
X005510Y008580D01*
X005100Y008580D01*
X005062Y008570D01*
X005028Y008550D01*
X005000Y008522D01*
X004980Y008488D01*
X004970Y008450D01*
X004970Y008240D01*
X005510Y008240D01*
X005510Y008140D01*
X004970Y008140D01*
X004970Y007973D01*
X004901Y008042D01*
X004797Y008085D01*
X004683Y008085D01*
X004579Y008042D01*
X004498Y007961D01*
X004464Y007878D01*
X004447Y007885D01*
X004333Y007885D01*
X004229Y007842D01*
X004148Y007761D01*
X004105Y007657D01*
X004105Y007585D01*
X004083Y007585D01*
X003979Y007542D01*
X003980Y007542D02*
X003212Y007542D01*
X003242Y007444D02*
X003891Y007444D01*
X003898Y007461D02*
X003855Y007357D01*
X003855Y007243D01*
X003898Y007139D01*
X003979Y007058D01*
X004083Y007015D01*
X004197Y007015D01*
X004301Y007058D01*
X004000Y007050D02*
X003690Y007050D01*
X003690Y006951D02*
X005237Y006951D01*
X004938Y006853D02*
X003690Y006853D01*
X003690Y006754D02*
X004938Y006754D01*
X004951Y006656D02*
X004718Y006656D01*
X004833Y006557D02*
X004951Y006557D01*
X004938Y006459D02*
X004874Y006459D01*
X004875Y006360D02*
X004938Y006360D01*
X004938Y006262D02*
X004864Y006262D01*
X004695Y006147D02*
X004590Y006400D01*
X004695Y006147D02*
X004695Y005775D01*
X004498Y005775D02*
X004498Y006045D01*
X004376Y006167D01*
X004237Y006260D01*
X004140Y006300D01*
X003897Y006459D02*
X003690Y006459D01*
X003690Y006557D02*
X004016Y006557D01*
X004264Y006557D02*
X004347Y006557D01*
X004462Y006656D02*
X003690Y006656D01*
X003290Y006656D02*
X003242Y006656D01*
X003242Y006600D02*
X003242Y006712D01*
X003154Y006800D01*
X002780Y006800D01*
X002775Y006795D01*
X002758Y006800D01*
X002625Y006800D01*
X002758Y006800D01*
X002775Y006805D01*
X002780Y006800D01*
X003154Y006800D01*
X003242Y006888D01*
X003242Y007000D01*
X003249Y007000D01*
X003290Y006959D01*
X003290Y006600D01*
X003242Y006600D01*
X003200Y006754D02*
X003290Y006754D01*
X003290Y006853D02*
X003207Y006853D01*
X003242Y006951D02*
X003290Y006951D01*
X003490Y007042D02*
X003332Y007200D01*
X002967Y007200D01*
X002625Y007247D02*
X002600Y007247D01*
X002600Y007187D02*
X002338Y007187D01*
X002338Y006930D01*
X002348Y006892D01*
X002368Y006858D01*
X002396Y006830D01*
X002430Y006810D01*
X002468Y006800D01*
X002600Y006800D01*
X002600Y007187D01*
X002600Y007148D02*
X002625Y007148D01*
X002625Y007050D02*
X002600Y007050D01*
X002600Y006951D02*
X002625Y006951D01*
X002625Y006853D02*
X002600Y006853D01*
X002600Y006754D02*
X002625Y006754D01*
X002625Y006656D02*
X002600Y006656D01*
X002600Y006557D02*
X002625Y006557D01*
X002625Y006459D02*
X002600Y006459D01*
X002600Y006387D02*
X002338Y006387D01*
X002338Y006130D01*
X002348Y006092D01*
X002368Y006058D01*
X002396Y006030D01*
X002430Y006010D01*
X002468Y006000D01*
X002600Y006000D01*
X002600Y006387D01*
X002600Y006360D02*
X002625Y006360D01*
X002625Y006262D02*
X002600Y006262D01*
X002600Y006163D02*
X002625Y006163D01*
X002625Y006065D02*
X002600Y006065D01*
X002627Y005868D02*
X003090Y005868D01*
X003090Y005966D02*
X002109Y005966D01*
X002163Y006065D02*
X002364Y006065D01*
X002338Y006163D02*
X002175Y006163D01*
X002152Y006262D02*
X002338Y006262D01*
X002338Y006360D02*
X002083Y006360D01*
X002338Y006459D02*
X001265Y006459D01*
X001265Y006557D02*
X002338Y006557D01*
X002338Y006656D02*
X001265Y006656D01*
X001265Y006754D02*
X002380Y006754D01*
X002373Y006853D02*
X001265Y006853D01*
X001265Y006951D02*
X002338Y006951D01*
X002338Y007050D02*
X001265Y007050D01*
X001265Y007148D02*
X002338Y007148D01*
X002332Y007247D02*
X002338Y007247D01*
X002600Y007345D02*
X002625Y007345D01*
X002625Y007444D02*
X002600Y007444D01*
X002600Y007542D02*
X002625Y007542D01*
X002368Y007542D02*
X002355Y007542D01*
X002355Y007641D02*
X004105Y007641D01*
X004139Y007739D02*
X001940Y007739D01*
X001940Y007750D02*
X002355Y007750D01*
X002355Y008094D01*
X002345Y008132D01*
X002325Y008167D01*
X002297Y008194D01*
X002263Y008214D01*
X002225Y008224D01*
X001940Y008224D01*
X001940Y007750D01*
X001940Y007650D01*
X001840Y007650D01*
X001840Y007176D01*
X001555Y007176D01*
X001517Y007187D01*
X001483Y007206D01*
X001455Y007234D01*
X001435Y007268D01*
X001425Y007307D01*
X001425Y007650D01*
X001840Y007650D01*
X001840Y007750D01*
X001425Y007750D01*
X001425Y008094D01*
X001435Y008132D01*
X001455Y008167D01*
X001483Y008194D01*
X001517Y008214D01*
X001555Y008224D01*
X001840Y008224D01*
X001840Y007750D01*
X001940Y007750D01*
X001940Y007838D02*
X001840Y007838D01*
X001840Y007936D02*
X001940Y007936D01*
X001940Y008035D02*
X001840Y008035D01*
X001840Y008133D02*
X001940Y008133D01*
X002344Y008133D02*
X004970Y008133D01*
X004970Y008035D02*
X004909Y008035D01*
X004571Y008035D02*
X002355Y008035D01*
X002355Y007936D02*
X004488Y007936D01*
X004224Y007838D02*
X002355Y007838D01*
X001940Y007641D02*
X001840Y007641D01*
X001840Y007739D02*
X001265Y007739D01*
X001265Y007641D02*
X001425Y007641D01*
X001425Y007542D02*
X001265Y007542D01*
X001265Y007444D02*
X001425Y007444D01*
X001425Y007345D02*
X001265Y007345D01*
X001265Y007247D02*
X001448Y007247D01*
X001840Y007247D02*
X001940Y007247D01*
X001940Y007345D02*
X001840Y007345D01*
X001840Y007444D02*
X001940Y007444D01*
X001940Y007542D02*
X001840Y007542D01*
X001425Y007838D02*
X001265Y007838D01*
X001265Y007936D02*
X001425Y007936D01*
X001425Y008035D02*
X001265Y008035D01*
X001265Y008133D02*
X001436Y008133D01*
X001265Y008232D02*
X005510Y008232D01*
X005510Y008330D02*
X005610Y008330D01*
X005610Y008429D02*
X005510Y008429D01*
X005510Y008527D02*
X005610Y008527D01*
X005990Y008626D02*
X003703Y008626D01*
X003703Y008724D02*
X005044Y008724D01*
X005005Y008527D02*
X003703Y008527D01*
X003703Y008429D02*
X004970Y008429D01*
X004970Y008330D02*
X003703Y008330D01*
X004740Y007800D02*
X004981Y007700D01*
X006790Y007700D01*
X007090Y007400D01*
X007090Y005708D01*
X006724Y005342D01*
X005915Y005342D01*
X005915Y005539D02*
X006534Y005539D01*
X006840Y005845D01*
X006840Y007300D01*
X006640Y007500D01*
X004631Y007500D01*
X004390Y007600D01*
X004140Y007300D02*
X006490Y007300D01*
X006590Y007200D01*
X006590Y006000D01*
X006440Y005850D01*
X005940Y005850D01*
X005790Y006000D01*
X005725Y006000D01*
X005679Y005954D01*
X005679Y005775D01*
X005482Y005775D02*
X005482Y006069D01*
X005285Y006265D01*
X005285Y005775D01*
X005088Y005775D02*
X005088Y006069D01*
X005285Y006265D01*
X004301Y005939D02*
X004301Y005775D01*
X004301Y005939D02*
X004240Y006000D01*
X004031Y006000D01*
X003790Y006100D01*
X003490Y005759D02*
X003490Y007042D01*
X003667Y007148D02*
X003894Y007148D01*
X003855Y007247D02*
X003568Y007247D01*
X003532Y007283D02*
X003532Y007283D01*
X003470Y007345D02*
X003855Y007345D01*
X003898Y007461D02*
X003979Y007542D01*
X002537Y008330D02*
X001265Y008330D01*
X001265Y008429D02*
X002537Y008429D01*
X002537Y008527D02*
X002319Y008527D01*
X002355Y008626D02*
X002537Y008626D01*
X002537Y008724D02*
X002355Y008724D01*
X001890Y009100D02*
X001890Y009300D01*
X001501Y009512D02*
X001265Y009512D01*
X001265Y009414D02*
X001425Y009414D01*
X001425Y009315D02*
X001265Y009315D01*
X001265Y009217D02*
X001425Y009217D01*
X001425Y009118D02*
X001265Y009118D01*
X001265Y009020D02*
X001425Y009020D01*
X001425Y008921D02*
X001265Y008921D01*
X001265Y008823D02*
X001425Y008823D01*
X001425Y008724D02*
X001265Y008724D01*
X001265Y008626D02*
X001425Y008626D01*
X001461Y008527D02*
X001265Y008527D01*
X003120Y009100D02*
X003120Y009750D01*
X001551Y009611D02*
X001265Y009611D01*
X001265Y009709D02*
X001452Y009709D01*
X001410Y009808D02*
X001265Y009808D01*
X001265Y009906D02*
X001410Y009906D01*
X001410Y010005D02*
X001265Y010005D01*
X001265Y010103D02*
X001410Y010103D01*
X001463Y010202D02*
X001265Y010202D01*
X007290Y007450D02*
X007489Y007450D01*
X007489Y007348D01*
X007807Y007348D01*
X007807Y007252D01*
X007489Y007252D01*
X007489Y007083D01*
X007499Y007045D01*
X007519Y007011D01*
X007547Y006983D01*
X007581Y006963D01*
X007619Y006953D01*
X007807Y006953D01*
X007807Y007252D01*
X007904Y007252D01*
X007904Y006953D01*
X008092Y006953D01*
X008130Y006963D01*
X008164Y006983D01*
X008165Y006984D01*
X008165Y006958D01*
X007392Y006185D01*
X007333Y006185D01*
X007290Y006167D01*
X007290Y007450D01*
X007290Y007444D02*
X007489Y007444D01*
X007290Y007345D02*
X007807Y007345D01*
X007807Y007247D02*
X007904Y007247D01*
X007904Y007148D02*
X007807Y007148D01*
X007807Y007050D02*
X007904Y007050D01*
X008060Y006853D02*
X007290Y006853D01*
X007290Y006951D02*
X008158Y006951D01*
X008365Y006875D02*
X008365Y007300D01*
X008525Y007300D01*
X008540Y007300D01*
X008690Y007450D01*
X008940Y007450D01*
X009090Y007600D01*
X009090Y009100D01*
X009915Y009925D01*
X012180Y009925D01*
X012850Y009925D02*
X012950Y009825D01*
X013415Y009825D01*
X013642Y009598D01*
X013799Y009598D01*
X013538Y009598D01*
X013440Y008800D02*
X012555Y008800D01*
X012180Y009175D02*
X012180Y009285D01*
X011540Y009285D01*
X010790Y009285D01*
X010040Y009285D01*
X009290Y008535D01*
X009290Y008275D01*
X009290Y007375D01*
X009040Y007125D01*
X008365Y006875D02*
X007390Y005900D01*
X007765Y005850D02*
X008640Y006725D01*
X009400Y006725D01*
X009765Y007090D01*
X010112Y007050D02*
X010304Y007050D01*
X010293Y007148D02*
X010350Y007148D01*
X010350Y007247D02*
X010293Y007247D01*
X010293Y007345D02*
X010350Y007345D01*
X010350Y007444D02*
X010293Y007444D01*
X010293Y007542D02*
X010350Y007542D01*
X010350Y007641D02*
X010293Y007641D01*
X010219Y007739D02*
X010821Y007739D01*
X010821Y007641D02*
X010604Y007641D01*
X010648Y007542D02*
X010821Y007542D01*
X010821Y007838D02*
X010582Y007838D01*
X010648Y007936D02*
X010821Y007936D01*
X010886Y008035D02*
X010648Y008035D01*
X010648Y008133D02*
X011248Y008133D01*
X011347Y008232D02*
X010648Y008232D01*
X010742Y008330D02*
X010838Y008330D01*
X010838Y008429D02*
X010742Y008429D01*
X010742Y008527D02*
X010838Y008527D01*
X010838Y008626D02*
X011492Y008626D01*
X011193Y008724D02*
X011137Y008724D01*
X011137Y008823D02*
X011193Y008823D01*
X011221Y008921D02*
X011109Y008921D01*
X011137Y009020D02*
X011193Y009020D01*
X010499Y008950D02*
X010473Y008924D01*
X010453Y008890D01*
X010443Y008852D01*
X010443Y008664D01*
X010742Y008664D01*
X010742Y008567D01*
X010443Y008567D01*
X010443Y008431D01*
X010387Y008431D01*
X010387Y008894D01*
X010331Y008950D01*
X010387Y009006D01*
X010387Y009085D01*
X010443Y009085D01*
X010443Y009006D01*
X010499Y008950D01*
X010471Y008921D02*
X010360Y008921D01*
X010387Y008823D02*
X010443Y008823D01*
X010443Y008724D02*
X010387Y008724D01*
X010387Y008626D02*
X010742Y008626D01*
X010443Y008527D02*
X010387Y008527D01*
X010040Y008450D02*
X010040Y008615D01*
X010040Y008450D02*
X009790Y008450D01*
X009565Y008225D01*
X009915Y007925D02*
X009765Y007775D01*
X009765Y007760D01*
X009915Y007925D02*
X010122Y007925D01*
X010321Y008124D01*
X011120Y008330D02*
X011210Y008330D01*
X011193Y008429D02*
X011137Y008429D01*
X011137Y008527D02*
X011193Y008527D01*
X010443Y009020D02*
X010387Y009020D01*
X011518Y007838D02*
X012515Y007838D01*
X012500Y008075D02*
X012850Y008425D01*
X012900Y008375D01*
X013799Y008375D01*
X013565Y008675D02*
X013440Y008800D01*
X010974Y007050D02*
X010956Y007050D01*
X010679Y007050D02*
X010582Y007050D01*
X010582Y006951D02*
X010679Y006951D01*
X010679Y006853D02*
X010582Y006853D01*
X010582Y006754D02*
X010054Y006754D01*
X010112Y006853D02*
X010264Y006853D01*
X010264Y006951D02*
X010112Y006951D01*
X010264Y006656D02*
X009613Y006656D01*
X008865Y006400D02*
X011300Y006400D01*
X007961Y006754D02*
X007290Y006754D01*
X007290Y006656D02*
X007863Y006656D01*
X007764Y006557D02*
X007290Y006557D01*
X007290Y006459D02*
X007666Y006459D01*
X007567Y006360D02*
X007290Y006360D01*
X007290Y006262D02*
X007469Y006262D01*
X006190Y006935D02*
X006190Y006950D01*
X007290Y007050D02*
X007498Y007050D01*
X007489Y007148D02*
X007290Y007148D01*
X007290Y007247D02*
X007489Y007247D01*
X004065Y005539D02*
X003710Y005539D01*
X003490Y005759D01*
X003290Y005638D02*
X003290Y006329D01*
X003219Y006400D01*
X002967Y006400D01*
X002338Y005868D02*
X002242Y005868D01*
X002242Y005769D02*
X002338Y005769D01*
X002338Y005671D02*
X002242Y005671D01*
X002242Y005643D02*
X002242Y005546D01*
X001943Y005546D01*
X001943Y005358D01*
X001953Y005320D01*
X001973Y005286D01*
X001999Y005260D01*
X001943Y005204D01*
X001943Y004952D01*
X001887Y004952D01*
X001887Y005204D01*
X001831Y005260D01*
X001887Y005316D01*
X001887Y005659D01*
X001943Y005715D01*
X001943Y005643D01*
X002242Y005643D01*
X002242Y005572D02*
X001887Y005572D01*
X001887Y005474D02*
X001943Y005474D01*
X001943Y005375D02*
X001887Y005375D01*
X001847Y005277D02*
X001983Y005277D01*
X001943Y005178D02*
X001887Y005178D01*
X001887Y005080D02*
X001943Y005080D01*
X001943Y004981D02*
X001887Y004981D01*
X001714Y004752D02*
X001540Y004925D01*
X001515Y004950D01*
X000640Y004950D01*
X001245Y004555D02*
X000640Y003950D01*
X001265Y003292D02*
X001563Y003590D01*
X001582Y003572D01*
X001589Y003572D01*
X001598Y003556D01*
X001691Y003462D01*
X001965Y003736D01*
X001983Y003719D01*
X002001Y003736D01*
X002186Y003551D01*
X002368Y003733D01*
X002388Y003767D01*
X002398Y003805D01*
X002398Y003844D01*
X002388Y003883D01*
X002368Y003917D01*
X002275Y004010D01*
X002001Y003736D01*
X001983Y003754D01*
X002257Y004028D01*
X002163Y004122D01*
X002148Y004131D01*
X002148Y004137D01*
X002129Y004156D01*
X002131Y004158D01*
X003065Y004158D01*
X003040Y004133D01*
X001265Y002358D01*
X001265Y003292D01*
X001279Y003307D02*
X002214Y003307D01*
X002312Y003405D02*
X002041Y003405D01*
X001987Y003351D02*
X002169Y003533D01*
X001983Y003719D01*
X001709Y003445D01*
X001802Y003351D01*
X001837Y003331D01*
X001875Y003321D01*
X001914Y003321D01*
X001952Y003331D01*
X001987Y003351D01*
X002139Y003504D02*
X002411Y003504D01*
X002509Y003602D02*
X002238Y003602D01*
X002135Y003602D02*
X002100Y003602D01*
X002036Y003701D02*
X002001Y003701D01*
X001965Y003701D02*
X001929Y003701D01*
X001866Y003602D02*
X001831Y003602D01*
X001768Y003504D02*
X001732Y003504D01*
X001650Y003504D02*
X001476Y003504D01*
X001378Y003405D02*
X001749Y003405D01*
X002115Y003208D02*
X001265Y003208D01*
X001265Y003110D02*
X002017Y003110D01*
X001918Y003011D02*
X001265Y003011D01*
X001265Y002913D02*
X001820Y002913D01*
X001721Y002814D02*
X001265Y002814D01*
X001265Y002716D02*
X001623Y002716D01*
X001524Y002617D02*
X001265Y002617D01*
X001265Y002519D02*
X001426Y002519D01*
X001327Y002420D02*
X001265Y002420D01*
X001696Y002223D02*
X001927Y002223D01*
X001933Y002322D02*
X001794Y002322D01*
X001893Y002420D02*
X001979Y002420D01*
X001991Y002519D02*
X002115Y002519D01*
X002090Y002617D02*
X002347Y002617D01*
X002339Y002519D02*
X002308Y002519D01*
X002605Y002250D02*
X002705Y002350D01*
X002605Y002250D02*
X002212Y002250D01*
X001955Y002125D02*
X001597Y002125D01*
X001499Y002026D02*
X001888Y002026D01*
X001888Y001928D02*
X001400Y001928D01*
X001302Y001829D02*
X001888Y001829D01*
X001888Y001731D02*
X001265Y001731D01*
X001265Y001632D02*
X001888Y001632D01*
X001888Y001534D02*
X001265Y001534D01*
X001265Y001435D02*
X001927Y001435D01*
X002002Y001337D02*
X001265Y001337D01*
X001265Y001238D02*
X002002Y001238D01*
X001901Y001140D02*
X001265Y001140D01*
X001265Y001041D02*
X001888Y001041D01*
X001888Y000943D02*
X001265Y000943D01*
X001265Y000844D02*
X001888Y000844D01*
X001888Y000746D02*
X001265Y000746D01*
X002212Y001753D02*
X002412Y001753D01*
X001140Y001950D02*
X003240Y004050D01*
X003490Y004050D01*
X003758Y004161D01*
X004065Y004161D01*
X004065Y004358D02*
X002048Y004358D01*
X000640Y002950D01*
X002028Y003799D02*
X002063Y003799D01*
X002126Y003898D02*
X002162Y003898D01*
X002225Y003996D02*
X002260Y003996D01*
X002289Y003996D02*
X002903Y003996D01*
X002805Y003898D02*
X002379Y003898D01*
X002397Y003799D02*
X002706Y003799D01*
X002608Y003701D02*
X002336Y003701D01*
X002878Y003405D02*
X003555Y003405D01*
X003570Y003307D02*
X002779Y003307D01*
X002681Y003208D02*
X003629Y003208D01*
X003840Y003400D02*
X004301Y003761D01*
X004301Y003925D01*
X004498Y003925D02*
X004498Y003658D01*
X004311Y003471D01*
X004240Y003300D01*
X004525Y003307D02*
X004545Y003307D01*
X004545Y003208D02*
X004510Y003208D01*
X004545Y003110D02*
X004453Y003110D01*
X004480Y003011D02*
X002484Y003011D01*
X002582Y003110D02*
X004027Y003110D01*
X004249Y002913D02*
X002385Y002913D01*
X002976Y003504D02*
X003574Y003504D01*
X003639Y003602D02*
X003075Y003602D01*
X003173Y003701D02*
X003899Y003701D01*
X004025Y003799D02*
X003629Y003799D01*
X003735Y003898D02*
X004092Y003898D01*
X004626Y003504D02*
X004692Y003504D01*
X004586Y003405D02*
X004528Y003405D01*
X004892Y003085D02*
X004892Y003925D01*
X005088Y003925D02*
X005088Y004752D01*
X005040Y004883D02*
X005340Y004883D01*
X005040Y004981D02*
X004940Y004981D01*
X004940Y004883D02*
X004640Y004883D01*
X004940Y005080D02*
X005040Y005080D01*
X005040Y005178D02*
X004940Y005178D01*
X004065Y005145D02*
X003145Y005145D01*
X002911Y005379D01*
X002740Y005450D01*
X002923Y005671D02*
X003090Y005671D01*
X003090Y005769D02*
X002637Y005769D01*
X003001Y005572D02*
X003090Y005572D01*
X003099Y005474D02*
X003171Y005474D01*
X003198Y005375D02*
X003270Y005375D01*
X003290Y005638D02*
X003586Y005342D01*
X004065Y005342D01*
X004065Y004948D02*
X002985Y004948D01*
X002740Y005050D01*
X001943Y005671D02*
X001899Y005671D01*
X001890Y005945D02*
X001540Y005595D01*
X001629Y005966D02*
X001265Y005966D01*
X001265Y006065D02*
X001617Y006065D01*
X001605Y006163D02*
X001265Y006163D01*
X001265Y006262D02*
X001628Y006262D01*
X001697Y006360D02*
X001265Y006360D01*
X001890Y006150D02*
X001890Y005945D01*
X001714Y004752D02*
X004065Y004752D01*
X004065Y004555D02*
X001245Y004555D01*
X002190Y004095D02*
X003002Y004095D01*
X003272Y003799D02*
X003351Y003799D01*
X004090Y002800D02*
X004090Y002550D01*
X004240Y002400D01*
X004890Y002400D01*
X004843Y002420D02*
X004509Y002420D01*
X004545Y002322D02*
X004147Y002322D01*
X004153Y002223D02*
X004545Y002223D01*
X004564Y002125D02*
X004125Y002125D01*
X003868Y002250D02*
X003868Y001753D01*
X004392Y001731D02*
X004442Y001731D01*
X004442Y001752D02*
X004442Y001628D01*
X004824Y001628D01*
X004824Y001882D01*
X004572Y001882D01*
X004534Y001872D01*
X004500Y001852D01*
X004472Y001824D01*
X004452Y001790D01*
X004442Y001752D01*
X004477Y001829D02*
X004392Y001829D01*
X004392Y001928D02*
X005840Y001928D01*
X005840Y002026D02*
X004392Y002026D01*
X004843Y002125D02*
X004940Y002125D01*
X004940Y002049D02*
X005108Y002049D01*
X005146Y002059D01*
X005181Y002079D01*
X005208Y002107D01*
X005228Y002141D01*
X005238Y002179D01*
X005238Y002367D01*
X004940Y002367D01*
X004940Y002049D01*
X004940Y002223D02*
X004843Y002223D01*
X004843Y002322D02*
X004940Y002322D01*
X004940Y002420D02*
X005592Y002420D01*
X005592Y002367D02*
X005293Y002367D01*
X005293Y002179D01*
X005303Y002141D01*
X005323Y002107D01*
X005351Y002079D01*
X005385Y002059D01*
X005423Y002049D01*
X005592Y002049D01*
X005592Y002367D01*
X005592Y002322D02*
X005688Y002322D01*
X005688Y002223D02*
X005592Y002223D01*
X005592Y002125D02*
X005688Y002125D01*
X005313Y002125D02*
X005219Y002125D01*
X005238Y002223D02*
X005293Y002223D01*
X005293Y002322D02*
X005238Y002322D01*
X005238Y002519D02*
X005293Y002519D01*
X005293Y002617D02*
X005238Y002617D01*
X005213Y002716D02*
X005318Y002716D01*
X005293Y002814D02*
X005238Y002814D01*
X005238Y002913D02*
X005293Y002913D01*
X005293Y003011D02*
X005238Y003011D01*
X005238Y003110D02*
X005293Y003110D01*
X005290Y003208D02*
X005238Y003208D01*
X005238Y003307D02*
X005290Y003307D01*
X005290Y003300D02*
X005088Y003502D01*
X005088Y003925D01*
X005285Y003925D02*
X005285Y003605D01*
X005490Y003400D01*
X005490Y003235D01*
X005640Y003085D01*
X005640Y003250D01*
X006090Y003250D01*
X005640Y003085D02*
X005640Y002950D01*
X005816Y002950D01*
X006040Y002726D01*
X006040Y001624D01*
X005852Y001624D01*
X004832Y001632D02*
X004824Y001632D01*
X004824Y001731D02*
X004832Y001731D01*
X004824Y001829D02*
X004832Y001829D01*
X004442Y001632D02*
X004392Y001632D01*
X005204Y001041D02*
X005466Y001041D01*
X005466Y000943D02*
X005214Y000943D01*
X005214Y000844D02*
X005466Y000844D01*
X005466Y000746D02*
X005214Y000746D01*
X004832Y000746D02*
X004824Y000746D01*
X004824Y000844D02*
X004832Y000844D01*
X004824Y000943D02*
X004832Y000943D01*
X004442Y000943D02*
X004392Y000943D01*
X004442Y000844D02*
X003918Y000844D01*
X004392Y000746D02*
X004443Y000746D01*
X004371Y002420D02*
X004101Y002420D01*
X004218Y002519D02*
X003965Y002519D01*
X003772Y002519D02*
X003741Y002519D01*
X005092Y003504D02*
X005104Y003504D01*
X005482Y003708D02*
X005641Y003549D01*
X006265Y003549D01*
X005482Y003708D02*
X005482Y003925D01*
X009440Y001585D02*
X009479Y001624D01*
X010321Y001624D01*
X010648Y001632D02*
X011247Y001632D01*
X011346Y001731D02*
X010648Y001731D01*
X010742Y001829D02*
X010838Y001829D01*
X010838Y001928D02*
X010742Y001928D01*
X010742Y002026D02*
X010838Y002026D01*
X011137Y002026D02*
X011193Y002026D01*
X011193Y001928D02*
X011137Y001928D01*
X011120Y001829D02*
X011210Y001829D01*
X010885Y001534D02*
X010648Y001534D01*
X010648Y001435D02*
X010821Y001435D01*
X010821Y001337D02*
X010581Y001337D01*
X010648Y001041D02*
X010821Y001041D01*
X011517Y001337D02*
X012515Y001337D01*
X012575Y001575D02*
X012850Y001850D01*
X013799Y001850D01*
X013540Y002150D02*
X013390Y002300D01*
X012555Y002300D01*
X012850Y002675D02*
X013000Y002525D01*
X016515Y002525D01*
X016515Y002200D01*
X016515Y002625D01*
X013799Y003098D02*
X013799Y003325D01*
X012950Y003325D01*
X012850Y003425D01*
X012850Y002675D02*
X012850Y002625D01*
X012850Y001925D02*
X012850Y001850D01*
X010443Y002026D02*
X010387Y002026D01*
X010387Y002223D02*
X010443Y002223D01*
X010443Y002322D02*
X010387Y002322D01*
X010361Y002420D02*
X010471Y002420D01*
X010443Y002519D02*
X010387Y002519D01*
X010062Y001337D02*
X009787Y001337D01*
X001140Y001950D02*
X000640Y001950D01*
D32*
X006790Y002650D03*
X008490Y002650D03*
X006790Y000950D03*
X006790Y008250D03*
X008490Y008250D03*
X006790Y009950D03*
D33*
X006765Y010010D02*
X005560Y010010D01*
X005560Y009100D02*
X004840Y009100D01*
X003120Y009100D01*
X001890Y009100D01*
X001890Y009000D01*
X001890Y009100D02*
X001890Y009950D01*
D34*
X004840Y009100D03*
X004790Y008250D03*
X004740Y007800D03*
X004390Y007600D03*
X004140Y007300D03*
X003640Y007350D03*
X004840Y007000D03*
X005740Y006950D03*
X004590Y006400D03*
X004140Y006300D03*
X003790Y006100D03*
X003790Y006500D03*
X002240Y006800D03*
X001890Y006150D03*
X002740Y005450D03*
X002740Y005050D03*
X002465Y004050D03*
X003490Y004050D03*
X003790Y003800D03*
X003840Y003400D03*
X004240Y003300D03*
X004440Y002700D03*
X003868Y002250D03*
X003240Y002850D03*
X002590Y002800D03*
X002212Y002250D03*
X003140Y001300D03*
X004340Y001300D03*
X005340Y001624D03*
X005240Y002000D03*
X005340Y000750D03*
X009565Y002350D03*
X009890Y001025D03*
X013540Y002150D03*
X013799Y001850D03*
X009890Y004275D03*
X008990Y003825D03*
X008640Y004425D03*
X006815Y004627D03*
X004990Y004850D03*
X007390Y005900D03*
X007765Y005850D03*
X007390Y006325D03*
X009040Y006000D03*
X009565Y005525D03*
X010165Y006700D03*
X009040Y007125D03*
X007390Y007425D03*
X009565Y008225D03*
X013565Y008675D03*
X013799Y008375D03*
X013565Y005425D03*
X013799Y005125D03*
X006090Y003250D03*
D35*
X012515Y003787D02*
X012515Y004575D01*
X012574Y004575D01*
X012666Y004613D01*
X012737Y004683D01*
X012831Y004778D01*
X013009Y004778D01*
X013009Y004610D01*
X013742Y004610D01*
X013742Y004495D01*
X013009Y004495D01*
X013009Y004211D01*
X013023Y004160D01*
X013049Y004115D01*
X013086Y004077D01*
X013132Y004051D01*
X013183Y004037D01*
X013742Y004037D01*
X013742Y004495D01*
X013857Y004495D01*
X013857Y004037D01*
X014015Y004037D01*
X014015Y003613D01*
X013266Y003613D01*
X013266Y003705D01*
X013149Y003822D01*
X012550Y003822D01*
X012515Y003787D01*
X012515Y003825D02*
X014015Y003825D01*
X014015Y004023D02*
X012515Y004023D01*
X012515Y004222D02*
X013009Y004222D01*
X013009Y004420D02*
X012515Y004420D01*
X012672Y004619D02*
X013009Y004619D01*
X013742Y004420D02*
X013857Y004420D01*
X013857Y004222D02*
X013742Y004222D01*
X014015Y003626D02*
X013266Y003626D01*
X013009Y001528D02*
X013009Y001360D01*
X013742Y001360D01*
X013742Y001245D01*
X013009Y001245D01*
X013009Y000961D01*
X013023Y000910D01*
X013049Y000865D01*
X013086Y000827D01*
X013132Y000801D01*
X013183Y000787D01*
X013742Y000787D01*
X013742Y001245D01*
X013857Y001245D01*
X013857Y000787D01*
X014015Y000787D01*
X014015Y000700D01*
X012515Y000700D01*
X012515Y001325D01*
X012624Y001325D01*
X012716Y001363D01*
X012881Y001528D01*
X013009Y001528D01*
X013009Y001443D02*
X012796Y001443D01*
X013009Y001244D02*
X012515Y001244D01*
X012515Y001046D02*
X013009Y001046D01*
X013066Y000847D02*
X012515Y000847D01*
X013742Y000847D02*
X013857Y000847D01*
X013857Y001046D02*
X013742Y001046D01*
X013742Y001244D02*
X013857Y001244D01*
X014015Y006863D02*
X013266Y006863D01*
X013266Y006955D01*
X013149Y007072D01*
X012550Y007072D01*
X012515Y007037D01*
X012515Y007825D01*
X012549Y007825D01*
X012641Y007863D01*
X012712Y007933D01*
X012806Y008028D01*
X013009Y008028D01*
X013009Y007860D01*
X013742Y007860D01*
X013742Y007745D01*
X013009Y007745D01*
X013009Y007461D01*
X013023Y007410D01*
X013049Y007365D01*
X013086Y007327D01*
X013132Y007301D01*
X013183Y007287D01*
X013742Y007287D01*
X013742Y007745D01*
X013857Y007745D01*
X013857Y007287D01*
X014015Y007287D01*
X014015Y006863D01*
X014015Y007001D02*
X013220Y007001D01*
X013030Y007398D02*
X012515Y007398D01*
X012515Y007199D02*
X014015Y007199D01*
X013857Y007398D02*
X013742Y007398D01*
X013742Y007596D02*
X013857Y007596D01*
X013742Y007795D02*
X012515Y007795D01*
X012515Y007596D02*
X013009Y007596D01*
X013009Y007993D02*
X012771Y007993D01*
D36*
X011840Y007375D03*
X011840Y004125D03*
X011840Y001000D03*
D37*
X005852Y001624D02*
X005340Y001624D01*
X004440Y002700D02*
X004790Y003000D01*
X002212Y002250D02*
X002212Y001753D01*
X002212Y002250D02*
X002212Y000847D01*
X002412Y000847D01*
X005285Y006265D02*
X006190Y006265D01*
X006190Y006950D02*
X005740Y006950D01*
M02*
