%
M48
M72
T01C0.0130
T02C0.0354
T03C0.0394
T04C0.0400
T05C0.0512
T06C0.1181
T07C0.1575
%
T01
X13540Y2300
X13565Y5575
X13565Y8825
X5340Y900
X5240Y2150
X4840Y7150
X2240Y6950
X4790Y8400
X3790Y6650
X3640Y7500
X4990Y5000
X9890Y4425
X9890Y1175
X7390Y7575
X7390Y6475
X10165Y6850
X8640Y4575
X4140Y2525
X3640Y3000
X4340Y1000
X1440Y975
X2215Y2125
X1440Y1850
X1490Y4263
X13799Y2000
X3790Y6250
X8990Y3975
X9565Y2500
X9565Y5675
X9565Y8375
X13799Y5275
X4140Y6450
X9040Y6150
X13799Y8525
X4590Y6550
X9040Y7275
X4240Y3450
X7765Y6000
X3865Y3825
X7390Y6050
X5740Y7100
X5340Y1774
X1890Y6300
X4840Y9250
X6090Y3400
X4440Y2850
X2740Y5600
X2740Y5200
X4340Y1450
X3934Y2181
X4140Y7450
X4390Y7750
X4740Y7950
X6815Y4777
X3490Y4200
X1915Y2625
T02
X1890Y10100
T03
X8490Y10100
X8490Y1100
X6790Y8400
X8490Y8400
X6790Y10100
X6790Y2800
X6790Y1100
X8490Y2800
T04
X640Y1100
X640Y2100
X640Y3100
X640Y4100
X640Y5100
X640Y6100
X640Y7100
X640Y8100
X640Y9100
X640Y10100
T05
X11840Y1150
X11840Y4275
X11840Y7525
T06
X18265Y2350
X18265Y5600
X18265Y8850
T07
X7640Y9250
X7640Y1950
M30
