G75*
G70*
%OFA0B0*%
%FSLAX24Y24*%
%IPPOS*%
%LPD*%
%AMOC8*
5,1,8,0,0,1.08239X$1,22.5*
%
%ADD10C,0.0000*%
%ADD11C,0.0001*%
%ADD12C,0.1221*%
%ADD13R,0.1370X0.1940*%
%ADD14R,0.1221X0.0670*%
%ADD15R,0.2290X0.1940*%
%ADD16R,0.0394X0.0355*%
%ADD17R,0.0473X0.0434*%
%ADD18R,0.0434X0.0473*%
%ADD19R,0.2402X0.2402*%
%ADD20OC8,0.0700*%
%ADD21C,0.0700*%
%ADD22C,0.0079*%
%ADD23R,0.1182X0.1182*%
%ADD24R,0.0906X0.0827*%
%ADD25R,0.0920X0.0520*%
%ADD26R,0.0906X0.1457*%
%ADD27R,0.0670X0.0788*%
%ADD28R,0.0512X0.0257*%
%ADD29R,0.0700X0.0700*%
%ADD30C,0.0740*%
%ADD31R,0.0290X0.0540*%
%ADD32C,0.0631*%
%ADD33OC8,0.0808*%
D10*
X000140Y000205D02*
X000140Y010205D01*
X019140Y010205D01*
X019140Y000205D01*
X000140Y000205D01*
X011440Y000355D02*
X014115Y000355D01*
X014115Y001380D01*
X012840Y001380D01*
X012640Y001180D01*
X011540Y001180D01*
X011440Y001080D01*
X011440Y000355D01*
X013240Y003280D02*
X014115Y003280D01*
X014115Y004630D01*
X012790Y004630D01*
X012590Y004430D01*
X011540Y004430D01*
X011440Y004330D01*
X011440Y003555D01*
X011565Y003555D01*
X011640Y003480D01*
X013140Y003480D01*
X013240Y003280D01*
X017674Y001955D02*
X017676Y002003D01*
X017682Y002051D01*
X017692Y002098D01*
X017705Y002144D01*
X017723Y002189D01*
X017743Y002233D01*
X017768Y002275D01*
X017796Y002314D01*
X017826Y002351D01*
X017860Y002385D01*
X017897Y002417D01*
X017935Y002446D01*
X017976Y002471D01*
X018019Y002493D01*
X018064Y002511D01*
X018110Y002525D01*
X018157Y002536D01*
X018205Y002543D01*
X018253Y002546D01*
X018301Y002545D01*
X018349Y002540D01*
X018397Y002531D01*
X018443Y002519D01*
X018488Y002502D01*
X018532Y002482D01*
X018574Y002459D01*
X018614Y002432D01*
X018652Y002402D01*
X018687Y002369D01*
X018719Y002333D01*
X018749Y002295D01*
X018775Y002254D01*
X018797Y002211D01*
X018817Y002167D01*
X018832Y002122D01*
X018844Y002075D01*
X018852Y002027D01*
X018856Y001979D01*
X018856Y001931D01*
X018852Y001883D01*
X018844Y001835D01*
X018832Y001788D01*
X018817Y001743D01*
X018797Y001699D01*
X018775Y001656D01*
X018749Y001615D01*
X018719Y001577D01*
X018687Y001541D01*
X018652Y001508D01*
X018614Y001478D01*
X018574Y001451D01*
X018532Y001428D01*
X018488Y001408D01*
X018443Y001391D01*
X018397Y001379D01*
X018349Y001370D01*
X018301Y001365D01*
X018253Y001364D01*
X018205Y001367D01*
X018157Y001374D01*
X018110Y001385D01*
X018064Y001399D01*
X018019Y001417D01*
X017976Y001439D01*
X017935Y001464D01*
X017897Y001493D01*
X017860Y001525D01*
X017826Y001559D01*
X017796Y001596D01*
X017768Y001635D01*
X017743Y001677D01*
X017723Y001721D01*
X017705Y001766D01*
X017692Y001812D01*
X017682Y001859D01*
X017676Y001907D01*
X017674Y001955D01*
X017674Y005205D02*
X017676Y005253D01*
X017682Y005301D01*
X017692Y005348D01*
X017705Y005394D01*
X017723Y005439D01*
X017743Y005483D01*
X017768Y005525D01*
X017796Y005564D01*
X017826Y005601D01*
X017860Y005635D01*
X017897Y005667D01*
X017935Y005696D01*
X017976Y005721D01*
X018019Y005743D01*
X018064Y005761D01*
X018110Y005775D01*
X018157Y005786D01*
X018205Y005793D01*
X018253Y005796D01*
X018301Y005795D01*
X018349Y005790D01*
X018397Y005781D01*
X018443Y005769D01*
X018488Y005752D01*
X018532Y005732D01*
X018574Y005709D01*
X018614Y005682D01*
X018652Y005652D01*
X018687Y005619D01*
X018719Y005583D01*
X018749Y005545D01*
X018775Y005504D01*
X018797Y005461D01*
X018817Y005417D01*
X018832Y005372D01*
X018844Y005325D01*
X018852Y005277D01*
X018856Y005229D01*
X018856Y005181D01*
X018852Y005133D01*
X018844Y005085D01*
X018832Y005038D01*
X018817Y004993D01*
X018797Y004949D01*
X018775Y004906D01*
X018749Y004865D01*
X018719Y004827D01*
X018687Y004791D01*
X018652Y004758D01*
X018614Y004728D01*
X018574Y004701D01*
X018532Y004678D01*
X018488Y004658D01*
X018443Y004641D01*
X018397Y004629D01*
X018349Y004620D01*
X018301Y004615D01*
X018253Y004614D01*
X018205Y004617D01*
X018157Y004624D01*
X018110Y004635D01*
X018064Y004649D01*
X018019Y004667D01*
X017976Y004689D01*
X017935Y004714D01*
X017897Y004743D01*
X017860Y004775D01*
X017826Y004809D01*
X017796Y004846D01*
X017768Y004885D01*
X017743Y004927D01*
X017723Y004971D01*
X017705Y005016D01*
X017692Y005062D01*
X017682Y005109D01*
X017676Y005157D01*
X017674Y005205D01*
X014115Y006530D02*
X013240Y006530D01*
X013140Y006730D01*
X011665Y006730D01*
X011640Y006730D01*
X011565Y006805D01*
X011440Y006805D01*
X011440Y007580D01*
X011540Y007680D01*
X012565Y007680D01*
X012765Y007880D01*
X014115Y007880D01*
X014115Y006530D01*
X017674Y008455D02*
X017676Y008503D01*
X017682Y008551D01*
X017692Y008598D01*
X017705Y008644D01*
X017723Y008689D01*
X017743Y008733D01*
X017768Y008775D01*
X017796Y008814D01*
X017826Y008851D01*
X017860Y008885D01*
X017897Y008917D01*
X017935Y008946D01*
X017976Y008971D01*
X018019Y008993D01*
X018064Y009011D01*
X018110Y009025D01*
X018157Y009036D01*
X018205Y009043D01*
X018253Y009046D01*
X018301Y009045D01*
X018349Y009040D01*
X018397Y009031D01*
X018443Y009019D01*
X018488Y009002D01*
X018532Y008982D01*
X018574Y008959D01*
X018614Y008932D01*
X018652Y008902D01*
X018687Y008869D01*
X018719Y008833D01*
X018749Y008795D01*
X018775Y008754D01*
X018797Y008711D01*
X018817Y008667D01*
X018832Y008622D01*
X018844Y008575D01*
X018852Y008527D01*
X018856Y008479D01*
X018856Y008431D01*
X018852Y008383D01*
X018844Y008335D01*
X018832Y008288D01*
X018817Y008243D01*
X018797Y008199D01*
X018775Y008156D01*
X018749Y008115D01*
X018719Y008077D01*
X018687Y008041D01*
X018652Y008008D01*
X018614Y007978D01*
X018574Y007951D01*
X018532Y007928D01*
X018488Y007908D01*
X018443Y007891D01*
X018397Y007879D01*
X018349Y007870D01*
X018301Y007865D01*
X018253Y007864D01*
X018205Y007867D01*
X018157Y007874D01*
X018110Y007885D01*
X018064Y007899D01*
X018019Y007917D01*
X017976Y007939D01*
X017935Y007964D01*
X017897Y007993D01*
X017860Y008025D01*
X017826Y008059D01*
X017796Y008096D01*
X017768Y008135D01*
X017743Y008177D01*
X017723Y008221D01*
X017705Y008266D01*
X017692Y008312D01*
X017682Y008359D01*
X017676Y008407D01*
X017674Y008455D01*
D11*
X014115Y007879D02*
X012764Y007879D01*
X012763Y007878D02*
X014115Y007878D01*
X014115Y007877D02*
X012762Y007877D01*
X012761Y007876D02*
X014115Y007876D01*
X014115Y007875D02*
X012760Y007875D01*
X012759Y007874D02*
X014115Y007874D01*
X014115Y007873D02*
X012758Y007873D01*
X012757Y007872D02*
X014115Y007872D01*
X014115Y007871D02*
X012756Y007871D01*
X012755Y007870D02*
X014115Y007870D01*
X014115Y007869D02*
X012754Y007869D01*
X012753Y007868D02*
X014115Y007868D01*
X014115Y007867D02*
X012752Y007867D01*
X012751Y007866D02*
X014115Y007866D01*
X014115Y007865D02*
X012750Y007865D01*
X012749Y007864D02*
X014115Y007864D01*
X014115Y007863D02*
X012748Y007863D01*
X012747Y007862D02*
X014115Y007862D01*
X014115Y007861D02*
X012746Y007861D01*
X012745Y007860D02*
X014115Y007860D01*
X014115Y007859D02*
X012744Y007859D01*
X012743Y007858D02*
X014115Y007858D01*
X014115Y007857D02*
X012742Y007857D01*
X012741Y007856D02*
X014115Y007856D01*
X014115Y007855D02*
X012740Y007855D01*
X012739Y007854D02*
X014115Y007854D01*
X014115Y007853D02*
X012738Y007853D01*
X012737Y007852D02*
X014115Y007852D01*
X014115Y007851D02*
X012736Y007851D01*
X012735Y007850D02*
X014115Y007850D01*
X014115Y007849D02*
X012734Y007849D01*
X012733Y007848D02*
X014115Y007848D01*
X014115Y007847D02*
X012732Y007847D01*
X012731Y007846D02*
X014115Y007846D01*
X014115Y007845D02*
X012730Y007845D01*
X012729Y007844D02*
X014115Y007844D01*
X014115Y007843D02*
X012728Y007843D01*
X012727Y007842D02*
X014115Y007842D01*
X014115Y007841D02*
X012726Y007841D01*
X012725Y007840D02*
X014115Y007840D01*
X014115Y007839D02*
X012724Y007839D01*
X012723Y007838D02*
X014115Y007838D01*
X014115Y007837D02*
X012722Y007837D01*
X012721Y007836D02*
X014115Y007836D01*
X014115Y007835D02*
X012720Y007835D01*
X012719Y007834D02*
X014115Y007834D01*
X014115Y007833D02*
X012718Y007833D01*
X012717Y007832D02*
X014115Y007832D01*
X014115Y007831D02*
X012716Y007831D01*
X012715Y007830D02*
X014115Y007830D01*
X014115Y007829D02*
X012714Y007829D01*
X012713Y007828D02*
X014115Y007828D01*
X014115Y007827D02*
X012712Y007827D01*
X012711Y007826D02*
X014115Y007826D01*
X014115Y007825D02*
X012710Y007825D01*
X012709Y007824D02*
X014115Y007824D01*
X014115Y007823D02*
X012708Y007823D01*
X012707Y007822D02*
X014115Y007822D01*
X014115Y007821D02*
X012706Y007821D01*
X012705Y007820D02*
X014115Y007820D01*
X014115Y007819D02*
X012704Y007819D01*
X012703Y007818D02*
X014115Y007818D01*
X012703Y007818D01*
X012702Y007817D02*
X014115Y007817D01*
X014115Y007816D02*
X012701Y007816D01*
X012700Y007815D02*
X014115Y007815D01*
X014115Y007814D02*
X012699Y007814D01*
X012698Y007813D02*
X014115Y007813D01*
X014115Y007812D02*
X012697Y007812D01*
X012696Y007811D02*
X014115Y007811D01*
X014115Y007810D02*
X012695Y007810D01*
X012694Y007809D02*
X014115Y007809D01*
X014115Y007808D02*
X012693Y007808D01*
X012692Y007807D02*
X014115Y007807D01*
X014115Y007806D02*
X012691Y007806D01*
X012690Y007805D02*
X014115Y007805D01*
X014115Y007804D02*
X012689Y007804D01*
X012688Y007803D02*
X014115Y007803D01*
X014115Y007802D02*
X012687Y007802D01*
X012686Y007801D02*
X014115Y007801D01*
X014115Y007800D02*
X012685Y007800D01*
X012684Y007799D02*
X014115Y007799D01*
X014115Y007798D02*
X012683Y007798D01*
X012682Y007797D02*
X014115Y007797D01*
X014115Y007796D02*
X012681Y007796D01*
X012680Y007795D02*
X014115Y007795D01*
X014115Y007794D02*
X012679Y007794D01*
X012678Y007793D02*
X014115Y007793D01*
X014115Y007792D02*
X012677Y007792D01*
X012676Y007791D02*
X014115Y007791D01*
X014115Y007790D02*
X012675Y007790D01*
X012674Y007789D02*
X014115Y007789D01*
X014115Y007788D02*
X012673Y007788D01*
X012672Y007787D02*
X014115Y007787D01*
X014115Y007786D02*
X012671Y007786D01*
X012670Y007785D02*
X014115Y007785D01*
X014115Y007784D02*
X012669Y007784D01*
X012668Y007783D02*
X014115Y007783D01*
X014115Y007782D02*
X012667Y007782D01*
X012666Y007781D02*
X014115Y007781D01*
X014115Y007780D02*
X012665Y007780D01*
X012664Y007779D02*
X014115Y007779D01*
X014115Y007778D02*
X012663Y007778D01*
X012662Y007777D02*
X014115Y007777D01*
X014115Y007776D02*
X012661Y007776D01*
X012660Y007775D02*
X014115Y007775D01*
X014115Y007774D02*
X012659Y007774D01*
X012658Y007773D02*
X014115Y007773D01*
X014115Y007772D02*
X012657Y007772D01*
X012656Y007771D02*
X014115Y007771D01*
X014115Y007770D02*
X012655Y007770D01*
X012654Y007769D02*
X014115Y007769D01*
X014115Y007768D02*
X012653Y007768D01*
X012652Y007767D02*
X014115Y007767D01*
X014115Y007766D02*
X012651Y007766D01*
X012650Y007765D02*
X014115Y007765D01*
X014115Y007764D02*
X012649Y007764D01*
X012648Y007763D02*
X014115Y007763D01*
X014115Y007762D02*
X012647Y007762D01*
X012646Y007761D02*
X014115Y007761D01*
X014115Y007760D02*
X012645Y007760D01*
X012644Y007759D02*
X014115Y007759D01*
X014115Y007758D02*
X012643Y007758D01*
X012642Y007757D02*
X014115Y007757D01*
X014115Y007756D02*
X012641Y007756D01*
X012640Y007755D02*
X014115Y007755D01*
X014115Y007754D02*
X012639Y007754D01*
X012638Y007753D02*
X014115Y007753D01*
X014115Y007752D02*
X012637Y007752D01*
X012636Y007751D02*
X014115Y007751D01*
X014115Y007750D02*
X012635Y007750D01*
X012634Y007749D02*
X014115Y007749D01*
X014115Y007748D02*
X012633Y007748D01*
X012632Y007747D02*
X014115Y007747D01*
X014115Y007746D02*
X012631Y007746D01*
X012630Y007745D02*
X014115Y007745D01*
X014115Y007744D02*
X012629Y007744D01*
X012628Y007743D02*
X014115Y007743D01*
X014115Y007742D02*
X012627Y007742D01*
X012626Y007741D02*
X014115Y007741D01*
X014115Y007740D02*
X012625Y007740D01*
X012624Y007739D02*
X014115Y007739D01*
X014115Y007738D02*
X012623Y007738D01*
X012622Y007737D02*
X014115Y007737D01*
X014115Y007736D02*
X012621Y007736D01*
X012620Y007735D02*
X014115Y007735D01*
X014115Y007734D02*
X012619Y007734D01*
X012618Y007733D02*
X014115Y007733D01*
X014115Y007732D02*
X012617Y007732D01*
X012616Y007731D02*
X014115Y007731D01*
X014115Y007730D02*
X012615Y007730D01*
X012614Y007729D02*
X014115Y007729D01*
X014115Y007728D02*
X012613Y007728D01*
X012612Y007727D02*
X014115Y007727D01*
X014115Y007726D02*
X012611Y007726D01*
X012610Y007725D02*
X014115Y007725D01*
X014115Y007724D02*
X012609Y007724D01*
X012608Y007723D02*
X014115Y007723D01*
X014115Y007722D02*
X012607Y007722D01*
X012606Y007721D02*
X014115Y007721D01*
X014115Y007720D02*
X012605Y007720D01*
X012604Y007719D02*
X014115Y007719D01*
X014115Y007718D02*
X012603Y007718D01*
X012602Y007717D02*
X014115Y007717D01*
X014115Y007716D02*
X012601Y007716D01*
X012600Y007715D02*
X014115Y007715D01*
X014115Y007714D02*
X012599Y007714D01*
X012598Y007713D02*
X014115Y007713D01*
X014115Y007712D02*
X012597Y007712D01*
X012596Y007711D02*
X014115Y007711D01*
X014115Y007710D02*
X012595Y007710D01*
X012594Y007709D02*
X014115Y007709D01*
X014115Y007708D02*
X012593Y007708D01*
X012592Y007707D02*
X014115Y007707D01*
X014115Y007706D02*
X012591Y007706D01*
X012590Y007705D02*
X014115Y007705D01*
X014115Y007704D02*
X012589Y007704D01*
X012588Y007703D02*
X014115Y007703D01*
X014115Y007702D02*
X012587Y007702D01*
X012586Y007701D02*
X014115Y007701D01*
X014115Y007700D02*
X012585Y007700D01*
X012584Y007699D02*
X014115Y007699D01*
X014115Y007698D02*
X012583Y007698D01*
X012582Y007697D02*
X014115Y007697D01*
X014115Y007696D02*
X012581Y007696D01*
X012580Y007695D02*
X014115Y007695D01*
X014115Y007694D02*
X012579Y007694D01*
X012578Y007693D02*
X014115Y007693D01*
X014115Y007692D02*
X012577Y007692D01*
X012576Y007691D02*
X014115Y007691D01*
X014115Y007690D02*
X012575Y007690D01*
X012574Y007689D02*
X014115Y007689D01*
X014115Y007688D02*
X012573Y007688D01*
X012572Y007687D02*
X014115Y007687D01*
X014115Y007686D02*
X012571Y007686D01*
X012570Y007685D02*
X014115Y007685D01*
X014115Y007684D02*
X012569Y007684D01*
X012568Y007683D02*
X014115Y007683D01*
X014115Y007682D02*
X012567Y007682D01*
X012566Y007681D02*
X014115Y007681D01*
X014115Y007680D02*
X011540Y007680D01*
X011539Y007679D02*
X014115Y007679D01*
X014115Y007678D02*
X011538Y007678D01*
X011537Y007677D02*
X014115Y007677D01*
X014115Y007676D02*
X011536Y007676D01*
X011535Y007675D02*
X014115Y007675D01*
X014115Y007674D02*
X011534Y007674D01*
X011533Y007673D02*
X014115Y007673D01*
X014115Y007672D02*
X011532Y007672D01*
X011531Y007671D02*
X014115Y007671D01*
X014115Y007670D02*
X011530Y007670D01*
X011529Y007669D02*
X014115Y007669D01*
X014115Y007668D02*
X011528Y007668D01*
X011527Y007667D02*
X014115Y007667D01*
X014115Y007666D02*
X011526Y007666D01*
X011525Y007665D02*
X014115Y007665D01*
X014115Y007664D02*
X011524Y007664D01*
X011523Y007663D02*
X014115Y007663D01*
X014115Y007662D02*
X011522Y007662D01*
X011521Y007661D02*
X014115Y007661D01*
X014115Y007660D02*
X011520Y007660D01*
X011519Y007659D02*
X014115Y007659D01*
X014115Y007658D02*
X011518Y007658D01*
X011517Y007657D02*
X014115Y007657D01*
X014115Y007656D02*
X011516Y007656D01*
X011515Y007655D02*
X014115Y007655D01*
X014115Y007654D02*
X011514Y007654D01*
X011513Y007653D02*
X014115Y007653D01*
X014115Y007652D02*
X011512Y007652D01*
X011511Y007651D02*
X014115Y007651D01*
X014115Y007650D02*
X011510Y007650D01*
X011509Y007649D02*
X014115Y007649D01*
X014115Y007648D02*
X011508Y007648D01*
X011507Y007647D02*
X014115Y007647D01*
X014115Y007646D02*
X011506Y007646D01*
X011505Y007645D02*
X014115Y007645D01*
X014115Y007644D02*
X011504Y007644D01*
X011503Y007643D02*
X014115Y007643D01*
X014115Y007642D02*
X011502Y007642D01*
X011501Y007641D02*
X014115Y007641D01*
X014115Y007640D02*
X011500Y007640D01*
X011499Y007639D02*
X014115Y007639D01*
X014115Y007638D02*
X011498Y007638D01*
X011497Y007637D02*
X014115Y007637D01*
X014115Y007636D02*
X011496Y007636D01*
X011495Y007635D02*
X014115Y007635D01*
X014115Y007634D02*
X011494Y007634D01*
X011493Y007633D02*
X014115Y007633D01*
X014115Y007632D02*
X011492Y007632D01*
X011491Y007631D02*
X014115Y007631D01*
X014115Y007630D02*
X011490Y007630D01*
X011489Y007629D02*
X014115Y007629D01*
X014115Y007628D02*
X011488Y007628D01*
X011487Y007627D02*
X014115Y007627D01*
X014115Y007626D02*
X011486Y007626D01*
X011485Y007625D02*
X014115Y007625D01*
X014115Y007624D02*
X011484Y007624D01*
X011483Y007623D02*
X014115Y007623D01*
X014115Y007622D02*
X011482Y007622D01*
X011481Y007621D02*
X014115Y007621D01*
X014115Y007620D02*
X011480Y007620D01*
X011479Y007619D02*
X014115Y007619D01*
X014115Y007618D02*
X011478Y007618D01*
X011477Y007617D02*
X014115Y007617D01*
X014115Y007616D02*
X011476Y007616D01*
X011475Y007615D02*
X014115Y007615D01*
X014115Y007614D02*
X011474Y007614D01*
X011473Y007613D02*
X014115Y007613D01*
X014115Y007612D02*
X011472Y007612D01*
X011471Y007611D02*
X014115Y007611D01*
X014115Y007610D02*
X011470Y007610D01*
X011469Y007609D02*
X014115Y007609D01*
X014115Y007608D02*
X011468Y007608D01*
X011467Y007607D02*
X014115Y007607D01*
X014115Y007606D02*
X011466Y007606D01*
X011465Y007605D02*
X014115Y007605D01*
X014115Y007604D02*
X011464Y007604D01*
X011463Y007603D02*
X014115Y007603D01*
X014115Y007602D02*
X011462Y007602D01*
X011461Y007601D02*
X014115Y007601D01*
X014115Y007600D02*
X011460Y007600D01*
X011459Y007599D02*
X014115Y007599D01*
X014115Y007598D02*
X011458Y007598D01*
X011457Y007597D02*
X014115Y007597D01*
X014115Y007596D02*
X011456Y007596D01*
X011455Y007595D02*
X014115Y007595D01*
X014115Y007594D02*
X011454Y007594D01*
X011453Y007593D02*
X014115Y007593D01*
X014115Y007592D02*
X011452Y007592D01*
X011451Y007591D02*
X014115Y007591D01*
X014115Y007590D02*
X011450Y007590D01*
X011449Y007589D02*
X014115Y007589D01*
X014115Y007588D02*
X011448Y007588D01*
X011447Y007587D02*
X014115Y007587D01*
X014115Y007586D02*
X011446Y007586D01*
X011445Y007585D02*
X014115Y007585D01*
X014115Y007584D02*
X011444Y007584D01*
X011443Y007583D02*
X014115Y007583D01*
X014115Y007582D02*
X011442Y007582D01*
X011441Y007581D02*
X014115Y007581D01*
X014115Y007580D02*
X011440Y007580D01*
X011440Y007579D02*
X014115Y007579D01*
X014115Y007578D02*
X011440Y007578D01*
X011440Y007577D02*
X014115Y007577D01*
X014115Y007576D02*
X011440Y007576D01*
X011440Y007575D02*
X014115Y007575D01*
X014115Y007574D02*
X011440Y007574D01*
X011440Y007573D02*
X014115Y007573D01*
X014115Y007572D02*
X011440Y007572D01*
X011440Y007571D02*
X014115Y007571D01*
X014115Y007570D02*
X011440Y007570D01*
X011440Y007569D02*
X014115Y007569D01*
X014115Y007568D02*
X011440Y007568D01*
X011440Y007567D02*
X014115Y007567D01*
X014115Y007566D02*
X011440Y007566D01*
X011440Y007565D02*
X014115Y007565D01*
X014115Y007564D02*
X011440Y007564D01*
X011440Y007563D02*
X014115Y007563D01*
X014115Y007562D02*
X011440Y007562D01*
X011440Y007561D02*
X014115Y007561D01*
X014115Y007560D02*
X011440Y007560D01*
X011440Y007559D02*
X014115Y007559D01*
X014115Y007558D02*
X011440Y007558D01*
X011440Y007557D02*
X014115Y007557D01*
X014115Y007556D02*
X011440Y007556D01*
X011440Y007555D02*
X014115Y007555D01*
X014115Y007554D02*
X011440Y007554D01*
X011440Y007553D02*
X014115Y007553D01*
X014115Y007552D02*
X011440Y007552D01*
X011440Y007551D02*
X014115Y007551D01*
X014115Y007550D02*
X011440Y007550D01*
X011440Y007549D02*
X014115Y007549D01*
X014115Y007548D02*
X011440Y007548D01*
X011440Y007547D02*
X014115Y007547D01*
X014115Y007546D02*
X011440Y007546D01*
X011440Y007545D02*
X014115Y007545D01*
X014115Y007544D02*
X011440Y007544D01*
X011440Y007543D02*
X014115Y007543D01*
X014115Y007542D02*
X011440Y007542D01*
X011440Y007541D02*
X014115Y007541D01*
X014115Y007540D02*
X011440Y007540D01*
X011440Y007539D02*
X014115Y007539D01*
X014115Y007538D02*
X011440Y007538D01*
X011440Y007537D02*
X014115Y007537D01*
X014115Y007536D02*
X011440Y007536D01*
X011440Y007535D02*
X014115Y007535D01*
X014115Y007534D02*
X011440Y007534D01*
X011440Y007533D02*
X014115Y007533D01*
X014115Y007532D02*
X011440Y007532D01*
X011440Y007531D02*
X014115Y007531D01*
X014115Y007530D02*
X011440Y007530D01*
X011440Y007529D02*
X014115Y007529D01*
X014115Y007528D02*
X011440Y007528D01*
X011440Y007527D02*
X014115Y007527D01*
X014115Y007526D02*
X011440Y007526D01*
X011440Y007525D02*
X014115Y007525D01*
X014115Y007524D02*
X011440Y007524D01*
X011440Y007523D02*
X014115Y007523D01*
X014115Y007522D02*
X011440Y007522D01*
X011440Y007521D02*
X014115Y007521D01*
X014115Y007520D02*
X011440Y007520D01*
X011440Y007519D02*
X014115Y007519D01*
X014115Y007518D02*
X011440Y007518D01*
X011440Y007517D02*
X014115Y007517D01*
X014115Y007516D02*
X011440Y007516D01*
X011440Y007515D02*
X014115Y007515D01*
X014115Y007514D02*
X011440Y007514D01*
X011440Y007513D02*
X014115Y007513D01*
X014115Y007512D02*
X011440Y007512D01*
X011440Y007511D02*
X014115Y007511D01*
X014115Y007510D02*
X011440Y007510D01*
X011440Y007509D02*
X014115Y007509D01*
X014115Y007508D02*
X011440Y007508D01*
X011440Y007507D02*
X014115Y007507D01*
X014115Y007506D02*
X011440Y007506D01*
X011440Y007505D02*
X014115Y007505D01*
X014115Y007504D02*
X011440Y007504D01*
X011440Y007503D02*
X014115Y007503D01*
X014115Y007502D02*
X011440Y007502D01*
X011440Y007501D02*
X014115Y007501D01*
X014115Y007500D02*
X011440Y007500D01*
X011440Y007499D02*
X014115Y007499D01*
X014115Y007498D02*
X011440Y007498D01*
X011440Y007497D02*
X014115Y007497D01*
X014115Y007496D02*
X011440Y007496D01*
X011440Y007495D02*
X014115Y007495D01*
X014115Y007494D02*
X011440Y007494D01*
X011440Y007493D02*
X014115Y007493D01*
X014115Y007492D02*
X011440Y007492D01*
X011440Y007491D02*
X014115Y007491D01*
X014115Y007490D02*
X011440Y007490D01*
X011440Y007489D02*
X014115Y007489D01*
X014115Y007488D02*
X011440Y007488D01*
X011440Y007487D02*
X014115Y007487D01*
X014115Y007486D02*
X011440Y007486D01*
X011440Y007485D02*
X014115Y007485D01*
X014115Y007484D02*
X011440Y007484D01*
X011440Y007483D02*
X014115Y007483D01*
X014115Y007482D02*
X011440Y007482D01*
X011440Y007481D02*
X014115Y007481D01*
X014115Y007480D02*
X011440Y007480D01*
X011440Y007479D02*
X014115Y007479D01*
X014115Y007478D02*
X011440Y007478D01*
X011440Y007477D02*
X014115Y007477D01*
X014115Y007476D02*
X011440Y007476D01*
X011440Y007475D02*
X014115Y007475D01*
X014115Y007474D02*
X011440Y007474D01*
X011440Y007473D02*
X014115Y007473D01*
X014115Y007472D02*
X011440Y007472D01*
X011440Y007471D02*
X014115Y007471D01*
X014115Y007470D02*
X011440Y007470D01*
X011440Y007469D02*
X014115Y007469D01*
X014115Y007468D02*
X011440Y007468D01*
X011440Y007467D02*
X014115Y007467D01*
X014115Y007466D02*
X011440Y007466D01*
X011440Y007465D02*
X014115Y007465D01*
X014115Y007464D02*
X011440Y007464D01*
X011440Y007463D02*
X014115Y007463D01*
X014115Y007462D02*
X011440Y007462D01*
X011440Y007461D02*
X014115Y007461D01*
X014115Y007460D02*
X011440Y007460D01*
X011440Y007459D02*
X014115Y007459D01*
X014115Y007458D02*
X011440Y007458D01*
X011440Y007457D02*
X014115Y007457D01*
X014115Y007456D02*
X011440Y007456D01*
X011440Y007455D02*
X014115Y007455D01*
X014115Y007454D02*
X011440Y007454D01*
X011440Y007453D02*
X014115Y007453D01*
X014115Y007452D02*
X011440Y007452D01*
X011440Y007451D02*
X014115Y007451D01*
X014115Y007450D02*
X011440Y007450D01*
X011440Y007449D02*
X014115Y007449D01*
X014115Y007448D02*
X011440Y007448D01*
X011440Y007447D02*
X014115Y007447D01*
X014115Y007446D02*
X011440Y007446D01*
X011440Y007445D02*
X014115Y007445D01*
X014115Y007444D02*
X011440Y007444D01*
X011440Y007443D02*
X014115Y007443D01*
X014115Y007442D02*
X011440Y007442D01*
X011440Y007441D02*
X014115Y007441D01*
X014115Y007440D02*
X011440Y007440D01*
X011440Y007439D02*
X014115Y007439D01*
X014115Y007438D02*
X011440Y007438D01*
X011440Y007437D02*
X014115Y007437D01*
X014115Y007436D02*
X011440Y007436D01*
X011440Y007435D02*
X014115Y007435D01*
X014115Y007434D02*
X011440Y007434D01*
X011440Y007433D02*
X014115Y007433D01*
X014115Y007432D02*
X011440Y007432D01*
X011440Y007431D02*
X014115Y007431D01*
X014115Y007430D02*
X011440Y007430D01*
X011440Y007429D02*
X014115Y007429D01*
X014115Y007428D02*
X011440Y007428D01*
X011440Y007427D02*
X014115Y007427D01*
X014115Y007426D02*
X011440Y007426D01*
X011440Y007425D02*
X014115Y007425D01*
X014115Y007424D02*
X011440Y007424D01*
X011440Y007423D02*
X014115Y007423D01*
X014115Y007422D02*
X011440Y007422D01*
X011440Y007421D02*
X014115Y007421D01*
X014115Y007420D02*
X011440Y007420D01*
X011440Y007419D02*
X014115Y007419D01*
X014115Y007418D02*
X011440Y007418D01*
X011440Y007417D02*
X014115Y007417D01*
X014115Y007416D02*
X011440Y007416D01*
X011440Y007415D02*
X014115Y007415D01*
X014115Y007414D02*
X011440Y007414D01*
X011440Y007413D02*
X014115Y007413D01*
X014115Y007412D02*
X011440Y007412D01*
X011440Y007411D02*
X014115Y007411D01*
X014115Y007410D02*
X011440Y007410D01*
X011440Y007409D02*
X014115Y007409D01*
X014115Y007408D02*
X011440Y007408D01*
X011440Y007407D02*
X014115Y007407D01*
X014115Y007406D02*
X011440Y007406D01*
X011440Y007405D02*
X014115Y007405D01*
X014115Y007404D02*
X011440Y007404D01*
X011440Y007403D02*
X014115Y007403D01*
X014115Y007402D02*
X011440Y007402D01*
X011440Y007401D02*
X014115Y007401D01*
X014115Y007400D02*
X011440Y007400D01*
X011440Y007399D02*
X014115Y007399D01*
X014115Y007398D02*
X011440Y007398D01*
X011440Y007397D02*
X014115Y007397D01*
X014115Y007396D02*
X011440Y007396D01*
X011440Y007395D02*
X014115Y007395D01*
X014115Y007394D02*
X011440Y007394D01*
X011440Y007393D02*
X014115Y007393D01*
X014115Y007392D02*
X011440Y007392D01*
X011440Y007391D02*
X014115Y007391D01*
X014115Y007390D02*
X011440Y007390D01*
X011440Y007389D02*
X014115Y007389D01*
X014115Y007388D02*
X011440Y007388D01*
X011440Y007387D02*
X014115Y007387D01*
X014115Y007386D02*
X011440Y007386D01*
X011440Y007385D02*
X014115Y007385D01*
X014115Y007384D02*
X011440Y007384D01*
X011440Y007383D02*
X014115Y007383D01*
X014115Y007382D02*
X011440Y007382D01*
X011440Y007381D02*
X014115Y007381D01*
X014115Y007380D02*
X011440Y007380D01*
X011440Y007379D02*
X014115Y007379D01*
X014115Y007378D02*
X011440Y007378D01*
X011440Y007377D02*
X014115Y007377D01*
X014115Y007376D02*
X011440Y007376D01*
X011440Y007375D02*
X014115Y007375D01*
X014115Y007374D02*
X011440Y007374D01*
X011440Y007373D02*
X014115Y007373D01*
X014115Y007372D02*
X011440Y007372D01*
X011440Y007371D02*
X014115Y007371D01*
X014115Y007370D02*
X011440Y007370D01*
X011440Y007369D02*
X014115Y007369D01*
X014115Y007368D02*
X011440Y007368D01*
X011440Y007367D02*
X014115Y007367D01*
X014115Y007366D02*
X011440Y007366D01*
X011440Y007365D02*
X014115Y007365D01*
X014115Y007364D02*
X011440Y007364D01*
X011440Y007363D02*
X014115Y007363D01*
X014115Y007362D02*
X011440Y007362D01*
X011440Y007361D02*
X014115Y007361D01*
X014115Y007360D02*
X011440Y007360D01*
X011440Y007359D02*
X014115Y007359D01*
X014115Y007358D02*
X011440Y007358D01*
X011440Y007357D02*
X014115Y007357D01*
X014115Y007356D02*
X011440Y007356D01*
X011440Y007355D02*
X014115Y007355D01*
X014115Y007354D02*
X011440Y007354D01*
X011440Y007353D02*
X014115Y007353D01*
X014115Y007352D02*
X011440Y007352D01*
X011440Y007351D02*
X014115Y007351D01*
X014115Y007350D02*
X011440Y007350D01*
X011440Y007349D02*
X014115Y007349D01*
X014115Y007348D02*
X011440Y007348D01*
X011440Y007347D02*
X014115Y007347D01*
X014115Y007346D02*
X011440Y007346D01*
X011440Y007345D02*
X014115Y007345D01*
X014115Y007344D02*
X011440Y007344D01*
X011440Y007343D02*
X014115Y007343D01*
X014115Y007342D02*
X011440Y007342D01*
X011440Y007341D02*
X014115Y007341D01*
X014115Y007340D02*
X011440Y007340D01*
X011440Y007339D02*
X014115Y007339D01*
X014115Y007338D02*
X011440Y007338D01*
X011440Y007337D02*
X014115Y007337D01*
X014115Y007336D02*
X011440Y007336D01*
X011440Y007335D02*
X014115Y007335D01*
X014115Y007334D02*
X011440Y007334D01*
X011440Y007333D02*
X014115Y007333D01*
X014115Y007332D02*
X011440Y007332D01*
X011440Y007331D02*
X014115Y007331D01*
X014115Y007330D02*
X011440Y007330D01*
X011440Y007329D02*
X014115Y007329D01*
X014115Y007328D02*
X011440Y007328D01*
X011440Y007327D02*
X014115Y007327D01*
X014115Y007326D02*
X011440Y007326D01*
X011440Y007325D02*
X014115Y007325D01*
X014115Y007324D02*
X011440Y007324D01*
X011440Y007323D02*
X014115Y007323D01*
X014115Y007322D02*
X011440Y007322D01*
X011440Y007321D02*
X014115Y007321D01*
X014115Y007320D02*
X011440Y007320D01*
X011440Y007319D02*
X014115Y007319D01*
X014115Y007318D02*
X011440Y007318D01*
X011440Y007317D02*
X014115Y007317D01*
X014115Y007316D02*
X011440Y007316D01*
X011440Y007315D02*
X014115Y007315D01*
X014115Y007314D02*
X011440Y007314D01*
X011440Y007313D02*
X014115Y007313D01*
X014115Y007312D02*
X011440Y007312D01*
X011440Y007311D02*
X014115Y007311D01*
X014115Y007310D02*
X011440Y007310D01*
X011440Y007309D02*
X014115Y007309D01*
X014115Y007308D02*
X011440Y007308D01*
X011440Y007307D02*
X014115Y007307D01*
X014115Y007306D02*
X011440Y007306D01*
X011440Y007305D02*
X014115Y007305D01*
X014115Y007304D02*
X011440Y007304D01*
X011440Y007303D02*
X014115Y007303D01*
X014115Y007302D02*
X011440Y007302D01*
X011440Y007301D02*
X014115Y007301D01*
X014115Y007300D02*
X011440Y007300D01*
X011440Y007299D02*
X014115Y007299D01*
X014115Y007298D02*
X011440Y007298D01*
X011440Y007297D02*
X014115Y007297D01*
X014115Y007296D02*
X011440Y007296D01*
X011440Y007295D02*
X014115Y007295D01*
X014115Y007294D02*
X011440Y007294D01*
X011440Y007293D02*
X014115Y007293D01*
X014115Y007292D02*
X011440Y007292D01*
X011440Y007291D02*
X014115Y007291D01*
X014115Y007290D02*
X011440Y007290D01*
X011440Y007289D02*
X014115Y007289D01*
X014115Y007288D02*
X011440Y007288D01*
X011440Y007287D02*
X014115Y007287D01*
X014115Y007286D02*
X011440Y007286D01*
X011440Y007285D02*
X014115Y007285D01*
X014115Y007284D02*
X011440Y007284D01*
X011440Y007283D02*
X014115Y007283D01*
X014115Y007282D02*
X011440Y007282D01*
X011440Y007281D02*
X014115Y007281D01*
X014115Y007280D02*
X011440Y007280D01*
X011440Y007279D02*
X014115Y007279D01*
X014115Y007278D02*
X011440Y007278D01*
X011440Y007277D02*
X014115Y007277D01*
X014115Y007276D02*
X011440Y007276D01*
X011440Y007275D02*
X014115Y007275D01*
X014115Y007274D02*
X011440Y007274D01*
X011440Y007273D02*
X014115Y007273D01*
X014115Y007272D02*
X011440Y007272D01*
X011440Y007271D02*
X014115Y007271D01*
X014115Y007270D02*
X011440Y007270D01*
X011440Y007269D02*
X014115Y007269D01*
X014115Y007268D02*
X011440Y007268D01*
X011440Y007267D02*
X014115Y007267D01*
X014115Y007266D02*
X011440Y007266D01*
X011440Y007265D02*
X014115Y007265D01*
X014115Y007264D02*
X011440Y007264D01*
X011440Y007263D02*
X014115Y007263D01*
X014115Y007262D02*
X011440Y007262D01*
X011440Y007261D02*
X014115Y007261D01*
X014115Y007260D02*
X011440Y007260D01*
X011440Y007259D02*
X014115Y007259D01*
X014115Y007258D02*
X011440Y007258D01*
X011440Y007257D02*
X014115Y007257D01*
X014115Y007256D02*
X011440Y007256D01*
X011440Y007255D02*
X014115Y007255D01*
X014115Y007254D02*
X011440Y007254D01*
X011440Y007253D02*
X014115Y007253D01*
X014115Y007252D02*
X011440Y007252D01*
X011440Y007251D02*
X014115Y007251D01*
X014115Y007250D02*
X011440Y007250D01*
X011440Y007249D02*
X014115Y007249D01*
X014115Y007248D02*
X011440Y007248D01*
X011440Y007247D02*
X014115Y007247D01*
X014115Y007246D02*
X011440Y007246D01*
X011440Y007245D02*
X014115Y007245D01*
X014115Y007244D02*
X011440Y007244D01*
X011440Y007243D02*
X014115Y007243D01*
X014115Y007242D02*
X011440Y007242D01*
X011440Y007241D02*
X014115Y007241D01*
X014115Y007240D02*
X011440Y007240D01*
X011440Y007239D02*
X014115Y007239D01*
X014115Y007238D02*
X011440Y007238D01*
X011440Y007237D02*
X014115Y007237D01*
X014115Y007236D02*
X011440Y007236D01*
X011440Y007235D02*
X014115Y007235D01*
X014115Y007234D02*
X011440Y007234D01*
X011440Y007233D02*
X014115Y007233D01*
X014115Y007232D02*
X011440Y007232D01*
X011440Y007231D02*
X014115Y007231D01*
X014115Y007230D02*
X011440Y007230D01*
X011440Y007229D02*
X014115Y007229D01*
X014115Y007228D02*
X011440Y007228D01*
X011440Y007227D02*
X014115Y007227D01*
X014115Y007226D02*
X011440Y007226D01*
X011440Y007225D02*
X014115Y007225D01*
X014115Y007224D02*
X011440Y007224D01*
X011440Y007223D02*
X014115Y007223D01*
X014115Y007222D02*
X011440Y007222D01*
X011440Y007221D02*
X014115Y007221D01*
X014115Y007220D02*
X011440Y007220D01*
X011440Y007219D02*
X014115Y007219D01*
X014115Y007218D02*
X011440Y007218D01*
X011440Y007217D02*
X014115Y007217D01*
X014115Y007216D02*
X011440Y007216D01*
X011440Y007215D02*
X014115Y007215D01*
X014115Y007214D02*
X011440Y007214D01*
X011440Y007213D02*
X014115Y007213D01*
X014115Y007212D02*
X011440Y007212D01*
X011440Y007211D02*
X014115Y007211D01*
X014115Y007210D02*
X011440Y007210D01*
X011440Y007209D02*
X014115Y007209D01*
X014115Y007208D02*
X011440Y007208D01*
X011440Y007207D02*
X014115Y007207D01*
X014115Y007206D02*
X011440Y007206D01*
X011440Y007205D02*
X014115Y007205D01*
X014115Y007204D02*
X011440Y007204D01*
X011440Y007203D02*
X014115Y007203D01*
X014115Y007202D02*
X011440Y007202D01*
X011440Y007201D02*
X014115Y007201D01*
X014115Y007200D02*
X011440Y007200D01*
X011440Y007199D02*
X014115Y007199D01*
X014115Y007198D02*
X011440Y007198D01*
X011440Y007197D02*
X014115Y007197D01*
X014115Y007196D02*
X011440Y007196D01*
X011440Y007195D02*
X014115Y007195D01*
X014115Y007194D02*
X011440Y007194D01*
X011440Y007193D02*
X014115Y007193D01*
X014115Y007192D02*
X011440Y007192D01*
X011440Y007191D02*
X014115Y007191D01*
X014115Y007190D02*
X011440Y007190D01*
X011440Y007189D02*
X014115Y007189D01*
X014115Y007188D02*
X011440Y007188D01*
X011440Y007187D02*
X014115Y007187D01*
X014115Y007186D02*
X011440Y007186D01*
X011440Y007185D02*
X014115Y007185D01*
X014115Y007184D02*
X011440Y007184D01*
X011440Y007183D02*
X014115Y007183D01*
X014115Y007182D02*
X011440Y007182D01*
X011440Y007181D02*
X014115Y007181D01*
X014115Y007180D02*
X011440Y007180D01*
X011440Y007179D02*
X014115Y007179D01*
X014115Y007178D02*
X011440Y007178D01*
X011440Y007177D02*
X014115Y007177D01*
X014115Y007176D02*
X011440Y007176D01*
X011440Y007175D02*
X014115Y007175D01*
X014115Y007174D02*
X011440Y007174D01*
X011440Y007173D02*
X014115Y007173D01*
X014115Y007172D02*
X011440Y007172D01*
X011440Y007171D02*
X014115Y007171D01*
X014115Y007170D02*
X011440Y007170D01*
X011440Y007169D02*
X014115Y007169D01*
X014115Y007168D02*
X011440Y007168D01*
X011440Y007167D02*
X014115Y007167D01*
X014115Y007166D02*
X011440Y007166D01*
X011440Y007165D02*
X014115Y007165D01*
X014115Y007164D02*
X011440Y007164D01*
X011440Y007163D02*
X014115Y007163D01*
X014115Y007162D02*
X011440Y007162D01*
X011440Y007161D02*
X014115Y007161D01*
X014115Y007160D02*
X011440Y007160D01*
X011440Y007159D02*
X014115Y007159D01*
X014115Y007158D02*
X011440Y007158D01*
X011440Y007157D02*
X014115Y007157D01*
X014115Y007156D02*
X011440Y007156D01*
X011440Y007155D02*
X014115Y007155D01*
X014115Y007154D02*
X011440Y007154D01*
X011440Y007153D02*
X014115Y007153D01*
X014115Y007152D02*
X011440Y007152D01*
X011440Y007151D02*
X014115Y007151D01*
X014115Y007150D02*
X011440Y007150D01*
X011440Y007149D02*
X014115Y007149D01*
X014115Y007148D02*
X011440Y007148D01*
X011440Y007147D02*
X014115Y007147D01*
X014115Y007146D02*
X011440Y007146D01*
X011440Y007145D02*
X014115Y007145D01*
X014115Y007144D02*
X011440Y007144D01*
X011440Y007143D02*
X014115Y007143D01*
X014115Y007142D02*
X011440Y007142D01*
X011440Y007141D02*
X014115Y007141D01*
X014115Y007140D02*
X011440Y007140D01*
X011440Y007139D02*
X014115Y007139D01*
X014115Y007138D02*
X011440Y007138D01*
X011440Y007137D02*
X014115Y007137D01*
X014115Y007136D02*
X011440Y007136D01*
X011440Y007135D02*
X014115Y007135D01*
X014115Y007134D02*
X011440Y007134D01*
X011440Y007133D02*
X014115Y007133D01*
X014115Y007132D02*
X011440Y007132D01*
X011440Y007131D02*
X014115Y007131D01*
X014115Y007130D02*
X011440Y007130D01*
X011440Y007129D02*
X014115Y007129D01*
X014115Y007128D02*
X011440Y007128D01*
X011440Y007127D02*
X014115Y007127D01*
X014115Y007126D02*
X011440Y007126D01*
X011440Y007125D02*
X014115Y007125D01*
X014115Y007124D02*
X011440Y007124D01*
X011440Y007123D02*
X014115Y007123D01*
X014115Y007122D02*
X011440Y007122D01*
X011440Y007121D02*
X014115Y007121D01*
X014115Y007120D02*
X011440Y007120D01*
X011440Y007119D02*
X014115Y007119D01*
X014115Y007118D02*
X011440Y007118D01*
X011440Y007117D02*
X014115Y007117D01*
X014115Y007116D02*
X011440Y007116D01*
X011440Y007115D02*
X014115Y007115D01*
X014115Y007114D02*
X011440Y007114D01*
X011440Y007113D02*
X014115Y007113D01*
X014115Y007112D02*
X011440Y007112D01*
X011440Y007111D02*
X014115Y007111D01*
X014115Y007110D02*
X011440Y007110D01*
X011440Y007109D02*
X014115Y007109D01*
X014115Y007108D02*
X011440Y007108D01*
X011440Y007107D02*
X014115Y007107D01*
X014115Y007106D02*
X011440Y007106D01*
X011440Y007105D02*
X014115Y007105D01*
X014115Y007104D02*
X011440Y007104D01*
X011440Y007103D02*
X014115Y007103D01*
X014115Y007102D02*
X011440Y007102D01*
X011440Y007101D02*
X014115Y007101D01*
X014115Y007100D02*
X011440Y007100D01*
X011440Y007099D02*
X014115Y007099D01*
X014115Y007098D02*
X011440Y007098D01*
X011440Y007097D02*
X014115Y007097D01*
X014115Y007096D02*
X011440Y007096D01*
X011440Y007095D02*
X014115Y007095D01*
X014115Y007094D02*
X011440Y007094D01*
X011440Y007093D02*
X014115Y007093D01*
X014115Y007092D02*
X011440Y007092D01*
X011440Y007091D02*
X014115Y007091D01*
X014115Y007090D02*
X011440Y007090D01*
X011440Y007089D02*
X014115Y007089D01*
X014115Y007088D02*
X011440Y007088D01*
X011440Y007087D02*
X014115Y007087D01*
X014115Y007086D02*
X011440Y007086D01*
X011440Y007085D02*
X014115Y007085D01*
X014115Y007084D02*
X011440Y007084D01*
X011440Y007083D02*
X014115Y007083D01*
X014115Y007082D02*
X011440Y007082D01*
X011440Y007081D02*
X014115Y007081D01*
X014115Y007080D02*
X011440Y007080D01*
X011440Y007079D02*
X014115Y007079D01*
X014115Y007078D02*
X011440Y007078D01*
X011440Y007077D02*
X014115Y007077D01*
X014115Y007076D02*
X011440Y007076D01*
X011440Y007075D02*
X014115Y007075D01*
X014115Y007074D02*
X011440Y007074D01*
X011440Y007073D02*
X014115Y007073D01*
X014115Y007072D02*
X011440Y007072D01*
X011440Y007071D02*
X014115Y007071D01*
X014115Y007070D02*
X011440Y007070D01*
X011440Y007069D02*
X014115Y007069D01*
X014115Y007068D02*
X011440Y007068D01*
X011440Y007067D02*
X014115Y007067D01*
X014115Y007066D02*
X011440Y007066D01*
X011440Y007065D02*
X014115Y007065D01*
X014115Y007064D02*
X011440Y007064D01*
X011440Y007063D02*
X014115Y007063D01*
X014115Y007062D02*
X011440Y007062D01*
X011440Y007061D02*
X014115Y007061D01*
X014115Y007060D02*
X011440Y007060D01*
X011440Y007059D02*
X014115Y007059D01*
X014115Y007058D02*
X011440Y007058D01*
X011440Y007057D02*
X014115Y007057D01*
X014115Y007056D02*
X011440Y007056D01*
X011440Y007055D02*
X014115Y007055D01*
X014115Y007054D02*
X011440Y007054D01*
X011440Y007053D02*
X014115Y007053D01*
X014115Y007052D02*
X011440Y007052D01*
X011440Y007051D02*
X014115Y007051D01*
X014115Y007050D02*
X011440Y007050D01*
X011440Y007049D02*
X014115Y007049D01*
X014115Y007048D02*
X011440Y007048D01*
X011440Y007047D02*
X014115Y007047D01*
X014115Y007046D02*
X011440Y007046D01*
X011440Y007045D02*
X014115Y007045D01*
X014115Y007044D02*
X011440Y007044D01*
X011440Y007043D02*
X014115Y007043D01*
X014115Y007042D02*
X011440Y007042D01*
X011440Y007041D02*
X014115Y007041D01*
X014115Y007040D02*
X011440Y007040D01*
X011440Y007039D02*
X014115Y007039D01*
X014115Y007038D02*
X011440Y007038D01*
X011440Y007037D02*
X014115Y007037D01*
X014115Y007036D02*
X011440Y007036D01*
X011440Y007035D02*
X014115Y007035D01*
X014115Y007034D02*
X011440Y007034D01*
X011440Y007033D02*
X014115Y007033D01*
X014115Y007032D02*
X011440Y007032D01*
X011440Y007031D02*
X014115Y007031D01*
X014115Y007030D02*
X011440Y007030D01*
X011440Y007029D02*
X014115Y007029D01*
X014115Y007028D02*
X011440Y007028D01*
X011440Y007027D02*
X014115Y007027D01*
X014115Y007026D02*
X011440Y007026D01*
X011440Y007025D02*
X014115Y007025D01*
X014115Y007024D02*
X011440Y007024D01*
X011440Y007023D02*
X014115Y007023D01*
X014115Y007022D02*
X011440Y007022D01*
X011440Y007021D02*
X014115Y007021D01*
X014115Y007020D02*
X011440Y007020D01*
X011440Y007019D02*
X014115Y007019D01*
X014115Y007018D02*
X011440Y007018D01*
X011440Y007017D02*
X014115Y007017D01*
X014115Y007016D02*
X011440Y007016D01*
X011440Y007015D02*
X014115Y007015D01*
X014115Y007014D02*
X011440Y007014D01*
X011440Y007013D02*
X014115Y007013D01*
X014115Y007012D02*
X011440Y007012D01*
X011440Y007011D02*
X014115Y007011D01*
X014115Y007010D02*
X011440Y007010D01*
X011440Y007009D02*
X014115Y007009D01*
X014115Y007008D02*
X011440Y007008D01*
X011440Y007007D02*
X014115Y007007D01*
X014115Y007006D02*
X011440Y007006D01*
X011440Y007005D02*
X014115Y007005D01*
X014115Y007004D02*
X011440Y007004D01*
X011440Y007003D02*
X014115Y007003D01*
X014115Y007002D02*
X011440Y007002D01*
X011440Y007001D02*
X014115Y007001D01*
X014115Y007000D02*
X011440Y007000D01*
X011440Y006999D02*
X014115Y006999D01*
X014115Y006998D02*
X011440Y006998D01*
X011440Y006997D02*
X014115Y006997D01*
X014115Y006996D02*
X011440Y006996D01*
X011440Y006995D02*
X014115Y006995D01*
X014115Y006994D02*
X011440Y006994D01*
X011440Y006993D02*
X014115Y006993D01*
X014115Y006992D02*
X011440Y006992D01*
X011440Y006991D02*
X014115Y006991D01*
X014115Y006990D02*
X011440Y006990D01*
X011440Y006989D02*
X014115Y006989D01*
X014115Y006988D02*
X011440Y006988D01*
X011440Y006987D02*
X014115Y006987D01*
X014115Y006986D02*
X011440Y006986D01*
X011440Y006985D02*
X014115Y006985D01*
X014115Y006984D02*
X011440Y006984D01*
X011440Y006983D02*
X014115Y006983D01*
X014115Y006982D02*
X011440Y006982D01*
X011440Y006981D02*
X014115Y006981D01*
X014115Y006980D02*
X011440Y006980D01*
X011440Y006979D02*
X014115Y006979D01*
X014115Y006978D02*
X011440Y006978D01*
X011440Y006977D02*
X014115Y006977D01*
X014115Y006976D02*
X011440Y006976D01*
X011440Y006975D02*
X014115Y006975D01*
X014115Y006974D02*
X011440Y006974D01*
X011440Y006973D02*
X014115Y006973D01*
X014115Y006972D02*
X011440Y006972D01*
X011440Y006971D02*
X014115Y006971D01*
X014115Y006970D02*
X011440Y006970D01*
X011440Y006969D02*
X014115Y006969D01*
X014115Y006968D02*
X011440Y006968D01*
X011440Y006967D02*
X014115Y006967D01*
X014115Y006966D02*
X011440Y006966D01*
X011440Y006965D02*
X014115Y006965D01*
X014115Y006964D02*
X011440Y006964D01*
X011440Y006963D02*
X014115Y006963D01*
X014115Y006962D02*
X011440Y006962D01*
X011440Y006961D02*
X014115Y006961D01*
X014115Y006960D02*
X011440Y006960D01*
X011440Y006959D02*
X014115Y006959D01*
X014115Y006958D02*
X011440Y006958D01*
X011440Y006957D02*
X014115Y006957D01*
X014115Y006956D02*
X011440Y006956D01*
X011440Y006955D02*
X014115Y006955D01*
X014115Y006954D02*
X011440Y006954D01*
X011440Y006953D02*
X014115Y006953D01*
X014115Y006952D02*
X011440Y006952D01*
X011440Y006951D02*
X014115Y006951D01*
X014115Y006950D02*
X011440Y006950D01*
X011440Y006949D02*
X014115Y006949D01*
X014115Y006948D02*
X011440Y006948D01*
X011440Y006947D02*
X014115Y006947D01*
X014115Y006946D02*
X011440Y006946D01*
X011440Y006945D02*
X014115Y006945D01*
X014115Y006944D02*
X011440Y006944D01*
X011440Y006943D02*
X014115Y006943D01*
X014115Y006942D02*
X011440Y006942D01*
X011440Y006941D02*
X014115Y006941D01*
X014115Y006940D02*
X011440Y006940D01*
X011440Y006939D02*
X014115Y006939D01*
X014115Y006938D02*
X011440Y006938D01*
X011440Y006937D02*
X014115Y006937D01*
X014115Y006936D02*
X011440Y006936D01*
X011440Y006935D02*
X014115Y006935D01*
X014115Y006934D02*
X011440Y006934D01*
X011440Y006933D02*
X014115Y006933D01*
X014115Y006932D02*
X011440Y006932D01*
X011440Y006931D02*
X014115Y006931D01*
X014115Y006930D02*
X011440Y006930D01*
X011440Y006929D02*
X014115Y006929D01*
X014115Y006928D02*
X011440Y006928D01*
X011440Y006927D02*
X014115Y006927D01*
X014115Y006926D02*
X011440Y006926D01*
X011440Y006925D02*
X014115Y006925D01*
X014115Y006924D02*
X011440Y006924D01*
X011440Y006923D02*
X014115Y006923D01*
X014115Y006922D02*
X011440Y006922D01*
X011440Y006921D02*
X014115Y006921D01*
X014115Y006920D02*
X011440Y006920D01*
X011440Y006919D02*
X014115Y006919D01*
X014115Y006918D02*
X011440Y006918D01*
X011440Y006917D02*
X014115Y006917D01*
X014115Y006916D02*
X011440Y006916D01*
X011440Y006915D02*
X014115Y006915D01*
X014115Y006914D02*
X011440Y006914D01*
X011440Y006913D02*
X014115Y006913D01*
X014115Y006912D02*
X011440Y006912D01*
X011440Y006911D02*
X014115Y006911D01*
X014115Y006910D02*
X011440Y006910D01*
X011440Y006909D02*
X014115Y006909D01*
X014115Y006908D02*
X011440Y006908D01*
X011440Y006907D02*
X014115Y006907D01*
X014115Y006906D02*
X011440Y006906D01*
X011440Y006905D02*
X014115Y006905D01*
X014115Y006904D02*
X011440Y006904D01*
X011440Y006903D02*
X014115Y006903D01*
X014115Y006902D02*
X011440Y006902D01*
X011440Y006901D02*
X014115Y006901D01*
X014115Y006900D02*
X011440Y006900D01*
X011440Y006899D02*
X014115Y006899D01*
X014115Y006898D02*
X011440Y006898D01*
X011440Y006897D02*
X014115Y006897D01*
X014115Y006896D02*
X011440Y006896D01*
X011440Y006895D02*
X014115Y006895D01*
X014115Y006894D02*
X011440Y006894D01*
X011440Y006893D02*
X014115Y006893D01*
X014115Y006892D02*
X011440Y006892D01*
X011440Y006891D02*
X014115Y006891D01*
X014115Y006890D02*
X011440Y006890D01*
X011440Y006889D02*
X014115Y006889D01*
X014115Y006888D02*
X011440Y006888D01*
X011440Y006887D02*
X014115Y006887D01*
X014115Y006886D02*
X011440Y006886D01*
X011440Y006885D02*
X014115Y006885D01*
X014115Y006884D02*
X011440Y006884D01*
X011440Y006883D02*
X014115Y006883D01*
X014115Y006882D02*
X011440Y006882D01*
X011440Y006881D02*
X014115Y006881D01*
X014115Y006880D02*
X011440Y006880D01*
X011440Y006879D02*
X014115Y006879D01*
X014115Y006878D02*
X011440Y006878D01*
X011440Y006877D02*
X014115Y006877D01*
X014115Y006876D02*
X011440Y006876D01*
X011440Y006875D02*
X014115Y006875D01*
X014115Y006874D02*
X011440Y006874D01*
X011440Y006873D02*
X014115Y006873D01*
X014115Y006872D02*
X011440Y006872D01*
X011440Y006871D02*
X014115Y006871D01*
X014115Y006870D02*
X011440Y006870D01*
X011440Y006869D02*
X014115Y006869D01*
X014115Y006868D02*
X011440Y006868D01*
X011440Y006867D02*
X014115Y006867D01*
X014115Y006866D02*
X011440Y006866D01*
X011440Y006865D02*
X014115Y006865D01*
X014115Y006864D02*
X011440Y006864D01*
X011440Y006863D02*
X014115Y006863D01*
X014115Y006862D02*
X011440Y006862D01*
X011440Y006861D02*
X014115Y006861D01*
X014115Y006860D02*
X011440Y006860D01*
X011440Y006859D02*
X014115Y006859D01*
X014115Y006858D02*
X011440Y006858D01*
X011440Y006857D02*
X014115Y006857D01*
X014115Y006856D02*
X011440Y006856D01*
X011440Y006855D02*
X014115Y006855D01*
X014115Y006854D02*
X011440Y006854D01*
X011440Y006853D02*
X014115Y006853D01*
X014115Y006852D02*
X011440Y006852D01*
X011440Y006851D02*
X014115Y006851D01*
X014115Y006850D02*
X011440Y006850D01*
X011440Y006849D02*
X014115Y006849D01*
X014115Y006848D02*
X011440Y006848D01*
X011440Y006847D02*
X014115Y006847D01*
X014115Y006846D02*
X011440Y006846D01*
X011440Y006845D02*
X014115Y006845D01*
X014115Y006844D02*
X011440Y006844D01*
X011440Y006843D02*
X014115Y006843D01*
X014115Y006842D02*
X011440Y006842D01*
X011440Y006841D02*
X014115Y006841D01*
X014115Y006840D02*
X011440Y006840D01*
X011440Y006839D02*
X014115Y006839D01*
X014115Y006838D02*
X011440Y006838D01*
X011440Y006837D02*
X014115Y006837D01*
X014115Y006836D02*
X011440Y006836D01*
X011440Y006835D02*
X014115Y006835D01*
X014115Y006834D02*
X011440Y006834D01*
X011440Y006833D02*
X014115Y006833D01*
X014115Y006832D02*
X011440Y006832D01*
X011440Y006831D02*
X014115Y006831D01*
X014115Y006830D02*
X011440Y006830D01*
X011440Y006829D02*
X014115Y006829D01*
X014115Y006828D02*
X011440Y006828D01*
X011440Y006827D02*
X014115Y006827D01*
X014115Y006826D02*
X011440Y006826D01*
X011440Y006825D02*
X014115Y006825D01*
X014115Y006824D02*
X011440Y006824D01*
X011440Y006823D02*
X014115Y006823D01*
X014115Y006822D02*
X011440Y006822D01*
X011440Y006821D02*
X014115Y006821D01*
X014115Y006820D02*
X011440Y006820D01*
X011440Y006819D02*
X014115Y006819D01*
X014115Y006818D02*
X011440Y006818D01*
X011440Y006817D02*
X014115Y006817D01*
X014115Y006816D02*
X011440Y006816D01*
X011440Y006815D02*
X014115Y006815D01*
X014115Y006814D02*
X011440Y006814D01*
X011440Y006813D02*
X014115Y006813D01*
X014115Y006812D02*
X011440Y006812D01*
X011440Y006811D02*
X014115Y006811D01*
X014115Y006810D02*
X011440Y006810D01*
X011440Y006809D02*
X014115Y006809D01*
X014115Y006808D02*
X011440Y006808D01*
X011440Y006807D02*
X014115Y006807D01*
X014115Y006806D02*
X011440Y006806D01*
X011440Y006805D02*
X014115Y006805D01*
X014115Y006804D02*
X011566Y006804D01*
X011567Y006803D02*
X014115Y006803D01*
X011568Y006803D01*
X011568Y006802D02*
X014115Y006802D01*
X014115Y006801D02*
X011569Y006801D01*
X011570Y006800D02*
X014115Y006800D01*
X014115Y006799D02*
X011571Y006799D01*
X011572Y006798D02*
X014115Y006798D01*
X014115Y006797D02*
X011573Y006797D01*
X011574Y006796D02*
X014115Y006796D01*
X014115Y006795D02*
X011575Y006795D01*
X011576Y006794D02*
X014115Y006794D01*
X014115Y006793D02*
X011577Y006793D01*
X011578Y006792D02*
X014115Y006792D01*
X014115Y006791D02*
X011579Y006791D01*
X011580Y006790D02*
X014115Y006790D01*
X014115Y006789D02*
X011581Y006789D01*
X011582Y006788D02*
X014115Y006788D01*
X014115Y006787D02*
X011583Y006787D01*
X011584Y006786D02*
X014115Y006786D01*
X014115Y006785D02*
X011585Y006785D01*
X011586Y006784D02*
X014115Y006784D01*
X014115Y006783D02*
X011587Y006783D01*
X011588Y006782D02*
X014115Y006782D01*
X014115Y006781D02*
X011589Y006781D01*
X011590Y006780D02*
X014115Y006780D01*
X014115Y006779D02*
X011591Y006779D01*
X011592Y006778D02*
X014115Y006778D01*
X014115Y006777D02*
X011593Y006777D01*
X011594Y006776D02*
X014115Y006776D01*
X014115Y006775D02*
X011595Y006775D01*
X011596Y006774D02*
X014115Y006774D01*
X014115Y006773D02*
X011597Y006773D01*
X011598Y006772D02*
X014115Y006772D01*
X014115Y006771D02*
X011599Y006771D01*
X011600Y006770D02*
X014115Y006770D01*
X014115Y006769D02*
X011601Y006769D01*
X011602Y006768D02*
X014115Y006768D01*
X014115Y006767D02*
X011603Y006767D01*
X011604Y006766D02*
X014115Y006766D01*
X014115Y006765D02*
X011605Y006765D01*
X011606Y006764D02*
X014115Y006764D01*
X014115Y006763D02*
X011607Y006763D01*
X011608Y006762D02*
X014115Y006762D01*
X014115Y006761D02*
X011609Y006761D01*
X011610Y006760D02*
X014115Y006760D01*
X014115Y006759D02*
X011611Y006759D01*
X011612Y006758D02*
X014115Y006758D01*
X014115Y006757D02*
X011613Y006757D01*
X011614Y006756D02*
X014115Y006756D01*
X014115Y006755D02*
X011615Y006755D01*
X011616Y006754D02*
X014115Y006754D01*
X014115Y006753D02*
X011617Y006753D01*
X011618Y006752D02*
X014115Y006752D01*
X014115Y006751D02*
X011619Y006751D01*
X011620Y006750D02*
X014115Y006750D01*
X014115Y006749D02*
X011621Y006749D01*
X011622Y006748D02*
X014115Y006748D01*
X014115Y006747D02*
X011623Y006747D01*
X011624Y006746D02*
X014115Y006746D01*
X014115Y006745D02*
X011625Y006745D01*
X011626Y006744D02*
X014115Y006744D01*
X014115Y006743D02*
X011627Y006743D01*
X011628Y006742D02*
X014115Y006742D01*
X014115Y006741D02*
X011629Y006741D01*
X011630Y006740D02*
X014115Y006740D01*
X014115Y006739D02*
X011631Y006739D01*
X011632Y006738D02*
X014115Y006738D01*
X014115Y006737D02*
X011633Y006737D01*
X011634Y006736D02*
X014115Y006736D01*
X014115Y006735D02*
X011635Y006735D01*
X011636Y006734D02*
X014115Y006734D01*
X014115Y006733D02*
X011637Y006733D01*
X011638Y006732D02*
X014115Y006732D01*
X014115Y006731D02*
X011639Y006731D01*
X013140Y006730D02*
X014115Y006730D01*
X014115Y006729D02*
X013141Y006729D01*
X013141Y006728D02*
X014115Y006728D01*
X014115Y006727D02*
X013142Y006727D01*
X013142Y006726D02*
X014115Y006726D01*
X014115Y006725D02*
X013143Y006725D01*
X013143Y006724D02*
X014115Y006724D01*
X014115Y006723D02*
X013144Y006723D01*
X013144Y006722D02*
X014115Y006722D01*
X014115Y006721D02*
X013145Y006721D01*
X013145Y006720D02*
X014115Y006720D01*
X014115Y006719D02*
X013146Y006719D01*
X013146Y006718D02*
X014115Y006718D01*
X014115Y006717D02*
X013147Y006717D01*
X013147Y006716D02*
X014115Y006716D01*
X014115Y006715D02*
X013148Y006715D01*
X013148Y006714D02*
X014115Y006714D01*
X014115Y006713D02*
X013149Y006713D01*
X013149Y006712D02*
X014115Y006712D01*
X014115Y006711D02*
X013150Y006711D01*
X013150Y006710D02*
X014115Y006710D01*
X014115Y006709D02*
X013151Y006709D01*
X013151Y006708D02*
X014115Y006708D01*
X014115Y006707D02*
X013152Y006707D01*
X013152Y006706D02*
X014115Y006706D01*
X014115Y006705D02*
X013153Y006705D01*
X013153Y006704D02*
X014115Y006704D01*
X014115Y006703D02*
X013154Y006703D01*
X013154Y006702D02*
X014115Y006702D01*
X014115Y006701D02*
X013155Y006701D01*
X013155Y006700D02*
X014115Y006700D01*
X014115Y006699D02*
X013156Y006699D01*
X013156Y006698D02*
X014115Y006698D01*
X014115Y006697D02*
X013157Y006697D01*
X013157Y006696D02*
X014115Y006696D01*
X014115Y006695D02*
X013158Y006695D01*
X013158Y006694D02*
X014115Y006694D01*
X014115Y006693D02*
X013159Y006693D01*
X013159Y006692D02*
X014115Y006692D01*
X014115Y006691D02*
X013160Y006691D01*
X013160Y006690D02*
X014115Y006690D01*
X014115Y006689D02*
X013161Y006689D01*
X013161Y006688D02*
X014115Y006688D01*
X014115Y006687D02*
X013162Y006687D01*
X013162Y006686D02*
X014115Y006686D01*
X014115Y006685D02*
X013163Y006685D01*
X013163Y006684D02*
X014115Y006684D01*
X014115Y006683D02*
X013164Y006683D01*
X013164Y006682D02*
X014115Y006682D01*
X014115Y006681D02*
X013165Y006681D01*
X013165Y006680D02*
X014115Y006680D01*
X014115Y006679D02*
X013166Y006679D01*
X013166Y006678D02*
X014115Y006678D01*
X014115Y006677D02*
X013167Y006677D01*
X013167Y006676D02*
X014115Y006676D01*
X014115Y006675D02*
X013168Y006675D01*
X013168Y006674D02*
X014115Y006674D01*
X014115Y006673D02*
X013169Y006673D01*
X013169Y006672D02*
X014115Y006672D01*
X014115Y006671D02*
X013170Y006671D01*
X013170Y006670D02*
X014115Y006670D01*
X014115Y006669D02*
X013171Y006669D01*
X013171Y006668D02*
X014115Y006668D01*
X014115Y006667D02*
X013172Y006667D01*
X013172Y006666D02*
X014115Y006666D01*
X014115Y006665D02*
X013173Y006665D01*
X013173Y006664D02*
X014115Y006664D01*
X014115Y006663D02*
X013174Y006663D01*
X013174Y006662D02*
X014115Y006662D01*
X014115Y006661D02*
X013175Y006661D01*
X013175Y006660D02*
X014115Y006660D01*
X014115Y006659D02*
X013176Y006659D01*
X013176Y006658D02*
X014115Y006658D01*
X014115Y006657D02*
X013177Y006657D01*
X013177Y006656D02*
X014115Y006656D01*
X014115Y006655D02*
X013178Y006655D01*
X013178Y006654D02*
X014115Y006654D01*
X014115Y006653D02*
X013179Y006653D01*
X013179Y006652D02*
X014115Y006652D01*
X014115Y006651D02*
X013180Y006651D01*
X013180Y006650D02*
X014115Y006650D01*
X014115Y006649D02*
X013181Y006649D01*
X013181Y006648D02*
X014115Y006648D01*
X014115Y006647D02*
X013182Y006647D01*
X013182Y006646D02*
X014115Y006646D01*
X014115Y006645D02*
X013183Y006645D01*
X013183Y006644D02*
X014115Y006644D01*
X014115Y006643D02*
X013184Y006643D01*
X013184Y006642D02*
X014115Y006642D01*
X014115Y006641D02*
X013185Y006641D01*
X013185Y006640D02*
X014115Y006640D01*
X014115Y006639D02*
X013186Y006639D01*
X013186Y006638D02*
X014115Y006638D01*
X014115Y006637D02*
X013187Y006637D01*
X013187Y006636D02*
X014115Y006636D01*
X014115Y006635D02*
X013188Y006635D01*
X013188Y006634D02*
X014115Y006634D01*
X014115Y006633D02*
X013189Y006633D01*
X013189Y006632D02*
X014115Y006632D01*
X014115Y006631D02*
X013190Y006631D01*
X013190Y006630D02*
X014115Y006630D01*
X014115Y006629D02*
X013191Y006629D01*
X013191Y006628D02*
X014115Y006628D01*
X014115Y006627D02*
X013192Y006627D01*
X013192Y006626D02*
X014115Y006626D01*
X014115Y006625D02*
X013193Y006625D01*
X013193Y006624D02*
X014115Y006624D01*
X014115Y006623D02*
X013194Y006623D01*
X013194Y006622D02*
X014115Y006622D01*
X014115Y006621D02*
X013195Y006621D01*
X013195Y006620D02*
X014115Y006620D01*
X014115Y006619D02*
X013196Y006619D01*
X013196Y006618D02*
X014115Y006618D01*
X014115Y006617D02*
X013197Y006617D01*
X013197Y006616D02*
X014115Y006616D01*
X014115Y006615D02*
X013198Y006615D01*
X013198Y006614D02*
X014115Y006614D01*
X014115Y006613D02*
X013199Y006613D01*
X013199Y006612D02*
X014115Y006612D01*
X014115Y006611D02*
X013200Y006611D01*
X013200Y006610D02*
X014115Y006610D01*
X014115Y006609D02*
X013201Y006609D01*
X013201Y006608D02*
X014115Y006608D01*
X014115Y006607D02*
X013202Y006607D01*
X013202Y006606D02*
X014115Y006606D01*
X014115Y006605D02*
X013203Y006605D01*
X013203Y006604D02*
X014115Y006604D01*
X014115Y006603D02*
X013204Y006603D01*
X013204Y006602D02*
X014115Y006602D01*
X014115Y006601D02*
X013205Y006601D01*
X013205Y006600D02*
X014115Y006600D01*
X014115Y006599D02*
X013206Y006599D01*
X013206Y006598D02*
X014115Y006598D01*
X014115Y006597D02*
X013207Y006597D01*
X013207Y006596D02*
X014115Y006596D01*
X014115Y006595D02*
X013208Y006595D01*
X013208Y006594D02*
X014115Y006594D01*
X014115Y006593D02*
X013209Y006593D01*
X013209Y006592D02*
X014115Y006592D01*
X014115Y006591D02*
X013210Y006591D01*
X013210Y006590D02*
X014115Y006590D01*
X014115Y006589D02*
X013211Y006589D01*
X013211Y006588D02*
X014115Y006588D01*
X014115Y006587D02*
X013212Y006587D01*
X013212Y006586D02*
X014115Y006586D01*
X014115Y006585D02*
X013213Y006585D01*
X013213Y006584D02*
X014115Y006584D01*
X014115Y006583D02*
X013214Y006583D01*
X013214Y006582D02*
X014115Y006582D01*
X014115Y006581D02*
X013215Y006581D01*
X013215Y006580D02*
X014115Y006580D01*
X014115Y006579D02*
X013216Y006579D01*
X013216Y006578D02*
X014115Y006578D01*
X014115Y006577D02*
X013217Y006577D01*
X013217Y006576D02*
X014115Y006576D01*
X014115Y006575D02*
X013218Y006575D01*
X013218Y006574D02*
X014115Y006574D01*
X014115Y006573D02*
X013219Y006573D01*
X013219Y006572D02*
X014115Y006572D01*
X014115Y006571D02*
X013220Y006571D01*
X013220Y006570D02*
X014115Y006570D01*
X014115Y006569D02*
X013221Y006569D01*
X013221Y006568D02*
X014115Y006568D01*
X014115Y006567D02*
X013222Y006567D01*
X013222Y006566D02*
X014115Y006566D01*
X014115Y006565D02*
X013223Y006565D01*
X013223Y006564D02*
X014115Y006564D01*
X014115Y006563D02*
X013224Y006563D01*
X013224Y006562D02*
X014115Y006562D01*
X014115Y006561D02*
X013225Y006561D01*
X013225Y006560D02*
X014115Y006560D01*
X014115Y006559D02*
X013226Y006559D01*
X013226Y006558D02*
X014115Y006558D01*
X014115Y006557D02*
X013227Y006557D01*
X013227Y006556D02*
X014115Y006556D01*
X014115Y006555D02*
X013228Y006555D01*
X013228Y006554D02*
X014115Y006554D01*
X014115Y006553D02*
X013229Y006553D01*
X013229Y006552D02*
X014115Y006552D01*
X014115Y006551D02*
X013230Y006551D01*
X013230Y006550D02*
X014115Y006550D01*
X014115Y006549D02*
X013231Y006549D01*
X013231Y006548D02*
X014115Y006548D01*
X014115Y006547D02*
X013232Y006547D01*
X013232Y006546D02*
X014115Y006546D01*
X014115Y006545D02*
X013233Y006545D01*
X013233Y006544D02*
X014115Y006544D01*
X014115Y006543D02*
X013234Y006543D01*
X013234Y006542D02*
X014115Y006542D01*
X014115Y006541D02*
X013235Y006541D01*
X013235Y006540D02*
X014115Y006540D01*
X014115Y006539D02*
X013236Y006539D01*
X013236Y006538D02*
X014115Y006538D01*
X014115Y006537D02*
X013237Y006537D01*
X013237Y006536D02*
X014115Y006536D01*
X014115Y006535D02*
X013238Y006535D01*
X013238Y006534D02*
X014115Y006534D01*
X014115Y006533D02*
X013239Y006533D01*
X013239Y006532D02*
X014115Y006532D01*
X014115Y006531D02*
X013240Y006531D01*
X012790Y004630D02*
X014115Y004630D01*
X014115Y004629D02*
X012789Y004629D01*
X012788Y004628D02*
X014115Y004628D01*
X014115Y004627D02*
X012787Y004627D01*
X012786Y004626D02*
X014115Y004626D01*
X014115Y004625D02*
X012785Y004625D01*
X012784Y004624D02*
X014115Y004624D01*
X014115Y004623D02*
X012783Y004623D01*
X012782Y004622D02*
X014115Y004622D01*
X014115Y004621D02*
X012781Y004621D01*
X012780Y004620D02*
X014115Y004620D01*
X014115Y004619D02*
X012779Y004619D01*
X012778Y004618D02*
X014115Y004618D01*
X014115Y004617D02*
X012777Y004617D01*
X012776Y004616D02*
X014115Y004616D01*
X014115Y004615D02*
X012775Y004615D01*
X012774Y004614D02*
X014115Y004614D01*
X014115Y004613D02*
X012773Y004613D01*
X012772Y004612D02*
X014115Y004612D01*
X014115Y004611D02*
X012771Y004611D01*
X012770Y004610D02*
X014115Y004610D01*
X014115Y004609D02*
X012769Y004609D01*
X012768Y004608D02*
X014115Y004608D01*
X014115Y004607D02*
X012767Y004607D01*
X012766Y004606D02*
X014115Y004606D01*
X014115Y004605D02*
X012765Y004605D01*
X012764Y004604D02*
X014115Y004604D01*
X014115Y004603D02*
X012763Y004603D01*
X012762Y004602D02*
X014115Y004602D01*
X014115Y004601D02*
X012761Y004601D01*
X012760Y004600D02*
X014115Y004600D01*
X014115Y004599D02*
X012759Y004599D01*
X012758Y004598D02*
X014115Y004598D01*
X014115Y004597D02*
X012757Y004597D01*
X012756Y004596D02*
X014115Y004596D01*
X014115Y004595D02*
X012755Y004595D01*
X012754Y004594D02*
X014115Y004594D01*
X014115Y004593D02*
X012753Y004593D01*
X012752Y004592D02*
X014115Y004592D01*
X014115Y004591D02*
X012751Y004591D01*
X012750Y004590D02*
X014115Y004590D01*
X014115Y004589D02*
X012749Y004589D01*
X012748Y004588D02*
X014115Y004588D01*
X014115Y004587D02*
X012747Y004587D01*
X012746Y004586D02*
X014115Y004586D01*
X014115Y004585D02*
X012745Y004585D01*
X012744Y004584D02*
X014115Y004584D01*
X014115Y004583D02*
X012743Y004583D01*
X012742Y004582D02*
X014115Y004582D01*
X014115Y004581D02*
X012741Y004581D01*
X012740Y004580D02*
X014115Y004580D01*
X014115Y004579D02*
X012739Y004579D01*
X012738Y004578D02*
X014115Y004578D01*
X014115Y004577D02*
X012737Y004577D01*
X012736Y004576D02*
X014115Y004576D01*
X014115Y004575D02*
X012735Y004575D01*
X012734Y004574D02*
X014115Y004574D01*
X014115Y004573D02*
X012733Y004573D01*
X012732Y004572D02*
X014115Y004572D01*
X014115Y004571D02*
X012731Y004571D01*
X012730Y004570D02*
X014115Y004570D01*
X014115Y004569D02*
X012729Y004569D01*
X012728Y004568D02*
X014115Y004568D01*
X014115Y004567D02*
X012727Y004567D01*
X012726Y004566D02*
X014115Y004566D01*
X014115Y004565D02*
X012725Y004565D01*
X012724Y004564D02*
X014115Y004564D01*
X014115Y004563D02*
X012723Y004563D01*
X012722Y004562D02*
X014115Y004562D01*
X014115Y004561D02*
X012721Y004561D01*
X012720Y004560D02*
X014115Y004560D01*
X014115Y004559D02*
X012719Y004559D01*
X012718Y004558D02*
X014115Y004558D01*
X014115Y004557D02*
X012717Y004557D01*
X012716Y004556D02*
X014115Y004556D01*
X014115Y004555D02*
X012715Y004555D01*
X012714Y004554D02*
X014115Y004554D01*
X014115Y004553D02*
X012713Y004553D01*
X012712Y004552D02*
X014115Y004552D01*
X014115Y004551D02*
X012711Y004551D01*
X012710Y004550D02*
X014115Y004550D01*
X014115Y004549D02*
X012709Y004549D01*
X012708Y004548D02*
X014115Y004548D01*
X014115Y004547D02*
X012707Y004547D01*
X012706Y004546D02*
X014115Y004546D01*
X014115Y004545D02*
X012705Y004545D01*
X012704Y004544D02*
X014115Y004544D01*
X014115Y004543D02*
X012703Y004543D01*
X012702Y004542D02*
X014115Y004542D01*
X014115Y004541D02*
X012701Y004541D01*
X012700Y004540D02*
X014115Y004540D01*
X014115Y004539D02*
X012699Y004539D01*
X012698Y004538D02*
X014115Y004538D01*
X014115Y004537D02*
X012697Y004537D01*
X012696Y004536D02*
X014115Y004536D01*
X014115Y004535D02*
X012695Y004535D01*
X012694Y004534D02*
X014115Y004534D01*
X014115Y004533D02*
X012693Y004533D01*
X012692Y004532D02*
X014115Y004532D01*
X014115Y004531D02*
X012691Y004531D01*
X012690Y004530D02*
X014115Y004530D01*
X014115Y004529D02*
X012689Y004529D01*
X012688Y004528D02*
X014115Y004528D01*
X014115Y004527D02*
X012687Y004527D01*
X012686Y004526D02*
X014115Y004526D01*
X014115Y004525D02*
X012685Y004525D01*
X012684Y004524D02*
X014115Y004524D01*
X014115Y004523D02*
X012683Y004523D01*
X012682Y004522D02*
X014115Y004522D01*
X014115Y004521D02*
X012681Y004521D01*
X012680Y004520D02*
X014115Y004520D01*
X014115Y004519D02*
X012679Y004519D01*
X012678Y004518D02*
X014115Y004518D01*
X014115Y004517D02*
X012677Y004517D01*
X012676Y004516D02*
X014115Y004516D01*
X014115Y004515D02*
X012675Y004515D01*
X012674Y004514D02*
X014115Y004514D01*
X014115Y004513D02*
X012673Y004513D01*
X012672Y004512D02*
X014115Y004512D01*
X014115Y004511D02*
X012671Y004511D01*
X012670Y004510D02*
X014115Y004510D01*
X014115Y004509D02*
X012669Y004509D01*
X012668Y004508D02*
X014115Y004508D01*
X014115Y004507D02*
X012667Y004507D01*
X012666Y004506D02*
X014115Y004506D01*
X014115Y004505D02*
X012665Y004505D01*
X012664Y004504D02*
X014115Y004504D01*
X014115Y004503D02*
X012663Y004503D01*
X012662Y004502D02*
X014115Y004502D01*
X014115Y004501D02*
X012661Y004501D01*
X012660Y004500D02*
X014115Y004500D01*
X014115Y004499D02*
X012659Y004499D01*
X012658Y004498D02*
X014115Y004498D01*
X014115Y004497D02*
X012657Y004497D01*
X012656Y004496D02*
X014115Y004496D01*
X014115Y004495D02*
X012655Y004495D01*
X012654Y004494D02*
X014115Y004494D01*
X014115Y004493D02*
X012653Y004493D01*
X012652Y004492D02*
X014115Y004492D01*
X014115Y004491D02*
X012651Y004491D01*
X012650Y004490D02*
X014115Y004490D01*
X014115Y004489D02*
X012649Y004489D01*
X012648Y004488D02*
X014115Y004488D01*
X014115Y004487D02*
X012647Y004487D01*
X012646Y004486D02*
X014115Y004486D01*
X014115Y004485D02*
X012645Y004485D01*
X012644Y004484D02*
X014115Y004484D01*
X014115Y004483D02*
X012643Y004483D01*
X012642Y004482D02*
X014115Y004482D01*
X014115Y004481D02*
X012641Y004481D01*
X012640Y004480D02*
X014115Y004480D01*
X014115Y004479D02*
X012639Y004479D01*
X012638Y004478D02*
X014115Y004478D01*
X014115Y004477D02*
X012637Y004477D01*
X012636Y004476D02*
X014115Y004476D01*
X014115Y004475D02*
X012635Y004475D01*
X012634Y004474D02*
X014115Y004474D01*
X014115Y004473D02*
X012633Y004473D01*
X012632Y004472D02*
X014115Y004472D01*
X014115Y004471D02*
X012631Y004471D01*
X012630Y004470D02*
X014115Y004470D01*
X014115Y004469D02*
X012629Y004469D01*
X012628Y004468D02*
X014115Y004468D01*
X014115Y004467D02*
X012627Y004467D01*
X012626Y004466D02*
X014115Y004466D01*
X014115Y004465D02*
X012625Y004465D01*
X012624Y004464D02*
X014115Y004464D01*
X014115Y004463D02*
X012623Y004463D01*
X012622Y004462D02*
X014115Y004462D01*
X014115Y004461D02*
X012621Y004461D01*
X012620Y004460D02*
X014115Y004460D01*
X014115Y004459D02*
X012619Y004459D01*
X012618Y004458D02*
X014115Y004458D01*
X014115Y004457D02*
X012617Y004457D01*
X012616Y004456D02*
X014115Y004456D01*
X014115Y004455D02*
X012615Y004455D01*
X012614Y004454D02*
X014115Y004454D01*
X014115Y004453D02*
X012613Y004453D01*
X012612Y004452D02*
X014115Y004452D01*
X014115Y004451D02*
X012611Y004451D01*
X012610Y004450D02*
X014115Y004450D01*
X014115Y004449D02*
X012609Y004449D01*
X012608Y004448D02*
X014115Y004448D01*
X014115Y004447D02*
X012607Y004447D01*
X012606Y004446D02*
X014115Y004446D01*
X014115Y004445D02*
X012605Y004445D01*
X012604Y004444D02*
X014115Y004444D01*
X014115Y004443D02*
X012603Y004443D01*
X012602Y004442D02*
X014115Y004442D01*
X014115Y004441D02*
X012601Y004441D01*
X012600Y004440D02*
X014115Y004440D01*
X014115Y004439D02*
X012599Y004439D01*
X012598Y004438D02*
X014115Y004438D01*
X014115Y004437D02*
X012597Y004437D01*
X012596Y004436D02*
X014115Y004436D01*
X014115Y004435D02*
X012595Y004435D01*
X012594Y004434D02*
X014115Y004434D01*
X014115Y004433D02*
X012593Y004433D01*
X012592Y004432D02*
X014115Y004432D01*
X014115Y004431D02*
X012591Y004431D01*
X011540Y004430D02*
X014115Y004430D01*
X014115Y004429D02*
X011539Y004429D01*
X011538Y004428D02*
X014115Y004428D01*
X014115Y004427D02*
X011537Y004427D01*
X011536Y004426D02*
X014115Y004426D01*
X014115Y004425D02*
X011535Y004425D01*
X011534Y004424D02*
X014115Y004424D01*
X014115Y004423D02*
X011533Y004423D01*
X011532Y004422D02*
X014115Y004422D01*
X014115Y004421D02*
X011531Y004421D01*
X011530Y004420D02*
X014115Y004420D01*
X014115Y004419D02*
X011529Y004419D01*
X011528Y004418D02*
X014115Y004418D01*
X014115Y004417D02*
X011527Y004417D01*
X011526Y004416D02*
X014115Y004416D01*
X014115Y004415D02*
X011525Y004415D01*
X011524Y004414D02*
X014115Y004414D01*
X014115Y004413D02*
X011523Y004413D01*
X011522Y004412D02*
X014115Y004412D01*
X014115Y004411D02*
X011521Y004411D01*
X011520Y004410D02*
X014115Y004410D01*
X014115Y004409D02*
X011519Y004409D01*
X011518Y004408D02*
X014115Y004408D01*
X014115Y004407D02*
X011517Y004407D01*
X011516Y004406D02*
X014115Y004406D01*
X014115Y004405D02*
X011515Y004405D01*
X011514Y004404D02*
X014115Y004404D01*
X014115Y004403D02*
X011513Y004403D01*
X011512Y004402D02*
X014115Y004402D01*
X014115Y004401D02*
X011511Y004401D01*
X011510Y004400D02*
X014115Y004400D01*
X014115Y004399D02*
X011509Y004399D01*
X011508Y004398D02*
X014115Y004398D01*
X014115Y004397D02*
X011507Y004397D01*
X011506Y004396D02*
X014115Y004396D01*
X014115Y004395D02*
X011505Y004395D01*
X011504Y004394D02*
X014115Y004394D01*
X014115Y004393D02*
X011503Y004393D01*
X011502Y004392D02*
X014115Y004392D01*
X014115Y004391D02*
X011501Y004391D01*
X011500Y004390D02*
X014115Y004390D01*
X014115Y004389D02*
X011499Y004389D01*
X011498Y004388D02*
X014115Y004388D01*
X014115Y004387D02*
X011497Y004387D01*
X011496Y004386D02*
X014115Y004386D01*
X014115Y004385D02*
X011495Y004385D01*
X011494Y004384D02*
X014115Y004384D01*
X014115Y004383D02*
X011493Y004383D01*
X011492Y004382D02*
X014115Y004382D01*
X014115Y004381D02*
X011491Y004381D01*
X011490Y004380D02*
X014115Y004380D01*
X014115Y004379D02*
X011489Y004379D01*
X011488Y004378D02*
X014115Y004378D01*
X014115Y004377D02*
X011487Y004377D01*
X011486Y004376D02*
X014115Y004376D01*
X014115Y004375D02*
X011485Y004375D01*
X011484Y004374D02*
X014115Y004374D01*
X014115Y004373D02*
X011483Y004373D01*
X011482Y004372D02*
X014115Y004372D01*
X014115Y004371D02*
X011481Y004371D01*
X011480Y004370D02*
X014115Y004370D01*
X014115Y004369D02*
X011479Y004369D01*
X011478Y004368D02*
X014115Y004368D01*
X014115Y004367D02*
X011477Y004367D01*
X011476Y004366D02*
X014115Y004366D01*
X014115Y004365D02*
X011475Y004365D01*
X011474Y004364D02*
X014115Y004364D01*
X014115Y004363D02*
X011473Y004363D01*
X011472Y004362D02*
X014115Y004362D01*
X014115Y004361D02*
X011471Y004361D01*
X011470Y004360D02*
X014115Y004360D01*
X014115Y004359D02*
X011469Y004359D01*
X011468Y004358D02*
X014115Y004358D01*
X014115Y004357D02*
X011467Y004357D01*
X011466Y004356D02*
X014115Y004356D01*
X014115Y004355D02*
X011465Y004355D01*
X011464Y004354D02*
X014115Y004354D01*
X014115Y004353D02*
X011463Y004353D01*
X011462Y004352D02*
X014115Y004352D01*
X014115Y004351D02*
X011461Y004351D01*
X011460Y004350D02*
X014115Y004350D01*
X014115Y004349D02*
X011459Y004349D01*
X011458Y004348D02*
X014115Y004348D01*
X014115Y004347D02*
X011457Y004347D01*
X011456Y004346D02*
X014115Y004346D01*
X014115Y004345D02*
X011455Y004345D01*
X011454Y004344D02*
X014115Y004344D01*
X014115Y004343D02*
X011453Y004343D01*
X011452Y004342D02*
X014115Y004342D01*
X014115Y004341D02*
X011451Y004341D01*
X011450Y004340D02*
X014115Y004340D01*
X014115Y004339D02*
X011449Y004339D01*
X011448Y004338D02*
X014115Y004338D01*
X014115Y004337D02*
X011447Y004337D01*
X011446Y004336D02*
X014115Y004336D01*
X014115Y004335D02*
X011445Y004335D01*
X011444Y004334D02*
X014115Y004334D01*
X014115Y004333D02*
X011443Y004333D01*
X011442Y004332D02*
X014115Y004332D01*
X014115Y004331D02*
X011441Y004331D01*
X011440Y004330D02*
X014115Y004330D01*
X014115Y004329D02*
X011440Y004329D01*
X011440Y004328D02*
X014115Y004328D01*
X014115Y004327D02*
X011440Y004327D01*
X011440Y004326D02*
X014115Y004326D01*
X014115Y004325D02*
X011440Y004325D01*
X011440Y004324D02*
X014115Y004324D01*
X014115Y004323D02*
X011440Y004323D01*
X011440Y004322D02*
X014115Y004322D01*
X014115Y004321D02*
X011440Y004321D01*
X011440Y004320D02*
X014115Y004320D01*
X014115Y004319D02*
X011440Y004319D01*
X011440Y004318D02*
X014115Y004318D01*
X014115Y004317D02*
X011440Y004317D01*
X011440Y004316D02*
X014115Y004316D01*
X014115Y004315D02*
X011440Y004315D01*
X011440Y004314D02*
X014115Y004314D01*
X014115Y004313D02*
X011440Y004313D01*
X011440Y004312D02*
X014115Y004312D01*
X014115Y004311D02*
X011440Y004311D01*
X011440Y004310D02*
X014115Y004310D01*
X014115Y004309D02*
X011440Y004309D01*
X011440Y004308D02*
X014115Y004308D01*
X014115Y004307D02*
X011440Y004307D01*
X011440Y004306D02*
X014115Y004306D01*
X014115Y004305D02*
X011440Y004305D01*
X011440Y004304D02*
X014115Y004304D01*
X014115Y004303D02*
X011440Y004303D01*
X011440Y004302D02*
X014115Y004302D01*
X014115Y004301D02*
X011440Y004301D01*
X011440Y004300D02*
X014115Y004300D01*
X014115Y004299D02*
X011440Y004299D01*
X011440Y004298D02*
X014115Y004298D01*
X014115Y004297D02*
X011440Y004297D01*
X011440Y004296D02*
X014115Y004296D01*
X014115Y004295D02*
X011440Y004295D01*
X011440Y004294D02*
X014115Y004294D01*
X014115Y004293D02*
X011440Y004293D01*
X011440Y004292D02*
X014115Y004292D01*
X014115Y004291D02*
X011440Y004291D01*
X011440Y004290D02*
X014115Y004290D01*
X014115Y004289D02*
X011440Y004289D01*
X011440Y004288D02*
X014115Y004288D01*
X014115Y004287D02*
X011440Y004287D01*
X011440Y004286D02*
X014115Y004286D01*
X014115Y004285D02*
X011440Y004285D01*
X011440Y004284D02*
X014115Y004284D01*
X014115Y004283D02*
X011440Y004283D01*
X011440Y004282D02*
X014115Y004282D01*
X014115Y004281D02*
X011440Y004281D01*
X011440Y004280D02*
X014115Y004280D01*
X014115Y004279D02*
X011440Y004279D01*
X011440Y004278D02*
X014115Y004278D01*
X014115Y004277D02*
X011440Y004277D01*
X011440Y004276D02*
X014115Y004276D01*
X014115Y004275D02*
X011440Y004275D01*
X011440Y004274D02*
X014115Y004274D01*
X014115Y004273D02*
X011440Y004273D01*
X011440Y004272D02*
X014115Y004272D01*
X014115Y004271D02*
X011440Y004271D01*
X011440Y004270D02*
X014115Y004270D01*
X014115Y004269D02*
X011440Y004269D01*
X011440Y004268D02*
X014115Y004268D01*
X014115Y004267D02*
X011440Y004267D01*
X011440Y004266D02*
X014115Y004266D01*
X014115Y004265D02*
X011440Y004265D01*
X011440Y004264D02*
X014115Y004264D01*
X014115Y004263D02*
X011440Y004263D01*
X011440Y004262D02*
X014115Y004262D01*
X014115Y004261D02*
X011440Y004261D01*
X011440Y004260D02*
X014115Y004260D01*
X014115Y004259D02*
X011440Y004259D01*
X011440Y004258D02*
X014115Y004258D01*
X014115Y004257D02*
X011440Y004257D01*
X011440Y004256D02*
X014115Y004256D01*
X014115Y004255D02*
X011440Y004255D01*
X011440Y004254D02*
X014115Y004254D01*
X014115Y004253D02*
X011440Y004253D01*
X011440Y004252D02*
X014115Y004252D01*
X014115Y004251D02*
X011440Y004251D01*
X011440Y004250D02*
X014115Y004250D01*
X014115Y004249D02*
X011440Y004249D01*
X011440Y004248D02*
X014115Y004248D01*
X014115Y004247D02*
X011440Y004247D01*
X011440Y004246D02*
X014115Y004246D01*
X014115Y004245D02*
X011440Y004245D01*
X011440Y004244D02*
X014115Y004244D01*
X014115Y004243D02*
X011440Y004243D01*
X011440Y004242D02*
X014115Y004242D01*
X014115Y004241D02*
X011440Y004241D01*
X011440Y004240D02*
X014115Y004240D01*
X014115Y004239D02*
X011440Y004239D01*
X011440Y004238D02*
X014115Y004238D01*
X014115Y004237D02*
X011440Y004237D01*
X011440Y004236D02*
X014115Y004236D01*
X014115Y004235D02*
X011440Y004235D01*
X011440Y004234D02*
X014115Y004234D01*
X014115Y004233D02*
X011440Y004233D01*
X011440Y004232D02*
X014115Y004232D01*
X014115Y004231D02*
X011440Y004231D01*
X011440Y004230D02*
X014115Y004230D01*
X014115Y004229D02*
X011440Y004229D01*
X011440Y004228D02*
X014115Y004228D01*
X014115Y004227D02*
X011440Y004227D01*
X011440Y004226D02*
X014115Y004226D01*
X014115Y004225D02*
X011440Y004225D01*
X011440Y004224D02*
X014115Y004224D01*
X014115Y004223D02*
X011440Y004223D01*
X011440Y004222D02*
X014115Y004222D01*
X014115Y004221D02*
X011440Y004221D01*
X011440Y004220D02*
X014115Y004220D01*
X014115Y004219D02*
X011440Y004219D01*
X011440Y004218D02*
X014115Y004218D01*
X014115Y004217D02*
X011440Y004217D01*
X011440Y004216D02*
X014115Y004216D01*
X014115Y004215D02*
X011440Y004215D01*
X011440Y004214D02*
X014115Y004214D01*
X014115Y004213D02*
X011440Y004213D01*
X011440Y004212D02*
X014115Y004212D01*
X014115Y004211D02*
X011440Y004211D01*
X011440Y004210D02*
X014115Y004210D01*
X014115Y004209D02*
X011440Y004209D01*
X011440Y004208D02*
X014115Y004208D01*
X014115Y004207D02*
X011440Y004207D01*
X011440Y004206D02*
X014115Y004206D01*
X014115Y004205D02*
X011440Y004205D01*
X011440Y004204D02*
X014115Y004204D01*
X014115Y004203D02*
X011440Y004203D01*
X011440Y004202D02*
X014115Y004202D01*
X014115Y004201D02*
X011440Y004201D01*
X011440Y004200D02*
X014115Y004200D01*
X014115Y004199D02*
X011440Y004199D01*
X011440Y004198D02*
X014115Y004198D01*
X014115Y004197D02*
X011440Y004197D01*
X011440Y004196D02*
X014115Y004196D01*
X014115Y004195D02*
X011440Y004195D01*
X011440Y004194D02*
X014115Y004194D01*
X014115Y004193D02*
X011440Y004193D01*
X011440Y004192D02*
X014115Y004192D01*
X014115Y004191D02*
X011440Y004191D01*
X011440Y004190D02*
X014115Y004190D01*
X014115Y004189D02*
X011440Y004189D01*
X011440Y004188D02*
X014115Y004188D01*
X014115Y004187D02*
X011440Y004187D01*
X011440Y004186D02*
X014115Y004186D01*
X014115Y004185D02*
X011440Y004185D01*
X011440Y004184D02*
X014115Y004184D01*
X014115Y004183D02*
X011440Y004183D01*
X011440Y004182D02*
X014115Y004182D01*
X014115Y004181D02*
X011440Y004181D01*
X011440Y004180D02*
X014115Y004180D01*
X014115Y004179D02*
X011440Y004179D01*
X011440Y004178D02*
X014115Y004178D01*
X014115Y004177D02*
X011440Y004177D01*
X011440Y004176D02*
X014115Y004176D01*
X014115Y004175D02*
X011440Y004175D01*
X011440Y004174D02*
X014115Y004174D01*
X014115Y004173D02*
X011440Y004173D01*
X011440Y004172D02*
X014115Y004172D01*
X014115Y004171D02*
X011440Y004171D01*
X011440Y004170D02*
X014115Y004170D01*
X014115Y004169D02*
X011440Y004169D01*
X011440Y004168D02*
X014115Y004168D01*
X014115Y004167D02*
X011440Y004167D01*
X011440Y004166D02*
X014115Y004166D01*
X014115Y004165D02*
X011440Y004165D01*
X011440Y004164D02*
X014115Y004164D01*
X014115Y004163D02*
X011440Y004163D01*
X011440Y004162D02*
X014115Y004162D01*
X014115Y004161D02*
X011440Y004161D01*
X011440Y004160D02*
X014115Y004160D01*
X014115Y004159D02*
X011440Y004159D01*
X011440Y004158D02*
X014115Y004158D01*
X014115Y004157D02*
X011440Y004157D01*
X011440Y004156D02*
X014115Y004156D01*
X014115Y004155D02*
X011440Y004155D01*
X011440Y004154D02*
X014115Y004154D01*
X014115Y004153D02*
X011440Y004153D01*
X011440Y004152D02*
X014115Y004152D01*
X014115Y004151D02*
X011440Y004151D01*
X011440Y004150D02*
X014115Y004150D01*
X014115Y004149D02*
X011440Y004149D01*
X011440Y004148D02*
X014115Y004148D01*
X014115Y004147D02*
X011440Y004147D01*
X011440Y004146D02*
X014115Y004146D01*
X014115Y004145D02*
X011440Y004145D01*
X011440Y004144D02*
X014115Y004144D01*
X014115Y004143D02*
X011440Y004143D01*
X011440Y004142D02*
X014115Y004142D01*
X014115Y004141D02*
X011440Y004141D01*
X011440Y004140D02*
X014115Y004140D01*
X014115Y004139D02*
X011440Y004139D01*
X011440Y004138D02*
X014115Y004138D01*
X014115Y004137D02*
X011440Y004137D01*
X011440Y004136D02*
X014115Y004136D01*
X014115Y004135D02*
X011440Y004135D01*
X011440Y004134D02*
X014115Y004134D01*
X014115Y004133D02*
X011440Y004133D01*
X011440Y004132D02*
X014115Y004132D01*
X014115Y004131D02*
X011440Y004131D01*
X011440Y004130D02*
X014115Y004130D01*
X014115Y004129D02*
X011440Y004129D01*
X011440Y004128D02*
X014115Y004128D01*
X014115Y004127D02*
X011440Y004127D01*
X011440Y004126D02*
X014115Y004126D01*
X014115Y004125D02*
X011440Y004125D01*
X011440Y004124D02*
X014115Y004124D01*
X014115Y004123D02*
X011440Y004123D01*
X011440Y004122D02*
X014115Y004122D01*
X014115Y004121D02*
X011440Y004121D01*
X011440Y004120D02*
X014115Y004120D01*
X014115Y004119D02*
X011440Y004119D01*
X011440Y004118D02*
X014115Y004118D01*
X014115Y004117D02*
X011440Y004117D01*
X011440Y004116D02*
X014115Y004116D01*
X014115Y004115D02*
X011440Y004115D01*
X011440Y004114D02*
X014115Y004114D01*
X014115Y004113D02*
X011440Y004113D01*
X011440Y004112D02*
X014115Y004112D01*
X014115Y004111D02*
X011440Y004111D01*
X011440Y004110D02*
X014115Y004110D01*
X014115Y004109D02*
X011440Y004109D01*
X011440Y004108D02*
X014115Y004108D01*
X014115Y004107D02*
X011440Y004107D01*
X011440Y004106D02*
X014115Y004106D01*
X014115Y004105D02*
X011440Y004105D01*
X011440Y004104D02*
X014115Y004104D01*
X014115Y004103D02*
X011440Y004103D01*
X011440Y004102D02*
X014115Y004102D01*
X014115Y004101D02*
X011440Y004101D01*
X011440Y004100D02*
X014115Y004100D01*
X014115Y004099D02*
X011440Y004099D01*
X011440Y004098D02*
X014115Y004098D01*
X014115Y004097D02*
X011440Y004097D01*
X011440Y004096D02*
X014115Y004096D01*
X014115Y004095D02*
X011440Y004095D01*
X011440Y004094D02*
X014115Y004094D01*
X014115Y004093D02*
X011440Y004093D01*
X011440Y004092D02*
X014115Y004092D01*
X014115Y004091D02*
X011440Y004091D01*
X011440Y004090D02*
X014115Y004090D01*
X014115Y004089D02*
X011440Y004089D01*
X011440Y004088D02*
X014115Y004088D01*
X014115Y004087D02*
X011440Y004087D01*
X011440Y004086D02*
X014115Y004086D01*
X014115Y004085D02*
X011440Y004085D01*
X011440Y004084D02*
X014115Y004084D01*
X014115Y004083D02*
X011440Y004083D01*
X011440Y004082D02*
X014115Y004082D01*
X014115Y004081D02*
X011440Y004081D01*
X011440Y004080D02*
X014115Y004080D01*
X014115Y004079D02*
X011440Y004079D01*
X011440Y004078D02*
X014115Y004078D01*
X014115Y004077D02*
X011440Y004077D01*
X011440Y004076D02*
X014115Y004076D01*
X014115Y004075D02*
X011440Y004075D01*
X011440Y004074D02*
X014115Y004074D01*
X014115Y004073D02*
X011440Y004073D01*
X011440Y004072D02*
X014115Y004072D01*
X014115Y004071D02*
X011440Y004071D01*
X011440Y004070D02*
X014115Y004070D01*
X014115Y004069D02*
X011440Y004069D01*
X011440Y004068D02*
X014115Y004068D01*
X014115Y004067D02*
X011440Y004067D01*
X011440Y004066D02*
X014115Y004066D01*
X014115Y004065D02*
X011440Y004065D01*
X011440Y004064D02*
X014115Y004064D01*
X014115Y004063D02*
X011440Y004063D01*
X011440Y004062D02*
X014115Y004062D01*
X014115Y004061D02*
X011440Y004061D01*
X011440Y004060D02*
X014115Y004060D01*
X014115Y004059D02*
X011440Y004059D01*
X011440Y004058D02*
X014115Y004058D01*
X014115Y004057D02*
X011440Y004057D01*
X011440Y004056D02*
X014115Y004056D01*
X014115Y004055D02*
X011440Y004055D01*
X011440Y004054D02*
X014115Y004054D01*
X014115Y004053D02*
X011440Y004053D01*
X011440Y004052D02*
X014115Y004052D01*
X014115Y004051D02*
X011440Y004051D01*
X011440Y004050D02*
X014115Y004050D01*
X014115Y004049D02*
X011440Y004049D01*
X011440Y004048D02*
X014115Y004048D01*
X014115Y004047D02*
X011440Y004047D01*
X011440Y004046D02*
X014115Y004046D01*
X014115Y004045D02*
X011440Y004045D01*
X011440Y004044D02*
X014115Y004044D01*
X014115Y004043D02*
X011440Y004043D01*
X011440Y004042D02*
X014115Y004042D01*
X014115Y004041D02*
X011440Y004041D01*
X011440Y004040D02*
X014115Y004040D01*
X014115Y004039D02*
X011440Y004039D01*
X011440Y004038D02*
X014115Y004038D01*
X014115Y004037D02*
X011440Y004037D01*
X011440Y004036D02*
X014115Y004036D01*
X014115Y004035D02*
X011440Y004035D01*
X011440Y004034D02*
X014115Y004034D01*
X014115Y004033D02*
X011440Y004033D01*
X011440Y004032D02*
X014115Y004032D01*
X014115Y004031D02*
X011440Y004031D01*
X011440Y004030D02*
X014115Y004030D01*
X014115Y004029D02*
X011440Y004029D01*
X011440Y004028D02*
X014115Y004028D01*
X014115Y004027D02*
X011440Y004027D01*
X011440Y004026D02*
X014115Y004026D01*
X014115Y004025D02*
X011440Y004025D01*
X011440Y004024D02*
X014115Y004024D01*
X014115Y004023D02*
X011440Y004023D01*
X011440Y004022D02*
X014115Y004022D01*
X014115Y004021D02*
X011440Y004021D01*
X011440Y004020D02*
X014115Y004020D01*
X014115Y004019D02*
X011440Y004019D01*
X011440Y004018D02*
X014115Y004018D01*
X014115Y004017D02*
X011440Y004017D01*
X011440Y004016D02*
X014115Y004016D01*
X014115Y004015D02*
X011440Y004015D01*
X011440Y004014D02*
X014115Y004014D01*
X014115Y004013D02*
X011440Y004013D01*
X011440Y004012D02*
X014115Y004012D01*
X014115Y004011D02*
X011440Y004011D01*
X011440Y004010D02*
X014115Y004010D01*
X014115Y004009D02*
X011440Y004009D01*
X011440Y004008D02*
X014115Y004008D01*
X014115Y004007D02*
X011440Y004007D01*
X011440Y004006D02*
X014115Y004006D01*
X014115Y004005D02*
X011440Y004005D01*
X011440Y004004D02*
X014115Y004004D01*
X014115Y004003D02*
X011440Y004003D01*
X011440Y004002D02*
X014115Y004002D01*
X014115Y004001D02*
X011440Y004001D01*
X011440Y004000D02*
X014115Y004000D01*
X014115Y003999D02*
X011440Y003999D01*
X011440Y003998D02*
X014115Y003998D01*
X014115Y003997D02*
X011440Y003997D01*
X011440Y003996D02*
X014115Y003996D01*
X014115Y003995D02*
X011440Y003995D01*
X011440Y003994D02*
X014115Y003994D01*
X014115Y003993D02*
X011440Y003993D01*
X011440Y003992D02*
X014115Y003992D01*
X014115Y003991D02*
X011440Y003991D01*
X011440Y003990D02*
X014115Y003990D01*
X014115Y003989D02*
X011440Y003989D01*
X011440Y003988D02*
X014115Y003988D01*
X014115Y003987D02*
X011440Y003987D01*
X011440Y003986D02*
X014115Y003986D01*
X014115Y003985D02*
X011440Y003985D01*
X011440Y003984D02*
X014115Y003984D01*
X014115Y003983D02*
X011440Y003983D01*
X011440Y003982D02*
X014115Y003982D01*
X014115Y003981D02*
X011440Y003981D01*
X011440Y003980D02*
X014115Y003980D01*
X014115Y003979D02*
X011440Y003979D01*
X011440Y003978D02*
X014115Y003978D01*
X014115Y003977D02*
X011440Y003977D01*
X011440Y003976D02*
X014115Y003976D01*
X014115Y003975D02*
X011440Y003975D01*
X011440Y003974D02*
X014115Y003974D01*
X014115Y003973D02*
X011440Y003973D01*
X011440Y003972D02*
X014115Y003972D01*
X014115Y003971D02*
X011440Y003971D01*
X011440Y003970D02*
X014115Y003970D01*
X014115Y003969D02*
X011440Y003969D01*
X011440Y003968D02*
X014115Y003968D01*
X014115Y003967D02*
X011440Y003967D01*
X011440Y003966D02*
X014115Y003966D01*
X014115Y003965D02*
X011440Y003965D01*
X011440Y003964D02*
X014115Y003964D01*
X014115Y003963D02*
X011440Y003963D01*
X011440Y003962D02*
X014115Y003962D01*
X014115Y003961D02*
X011440Y003961D01*
X011440Y003960D02*
X014115Y003960D01*
X014115Y003959D02*
X011440Y003959D01*
X011440Y003958D02*
X014115Y003958D01*
X014115Y003957D02*
X011440Y003957D01*
X011440Y003956D02*
X014115Y003956D01*
X014115Y003955D02*
X011440Y003955D01*
X011440Y003954D02*
X014115Y003954D01*
X014115Y003953D02*
X011440Y003953D01*
X011440Y003952D02*
X014115Y003952D01*
X014115Y003951D02*
X011440Y003951D01*
X011440Y003950D02*
X014115Y003950D01*
X014115Y003949D02*
X011440Y003949D01*
X011440Y003948D02*
X014115Y003948D01*
X014115Y003947D02*
X011440Y003947D01*
X011440Y003946D02*
X014115Y003946D01*
X014115Y003945D02*
X011440Y003945D01*
X011440Y003944D02*
X014115Y003944D01*
X014115Y003943D02*
X011440Y003943D01*
X011440Y003942D02*
X014115Y003942D01*
X014115Y003941D02*
X011440Y003941D01*
X011440Y003940D02*
X014115Y003940D01*
X014115Y003939D02*
X011440Y003939D01*
X011440Y003938D02*
X014115Y003938D01*
X014115Y003937D02*
X011440Y003937D01*
X011440Y003936D02*
X014115Y003936D01*
X014115Y003935D02*
X011440Y003935D01*
X011440Y003934D02*
X014115Y003934D01*
X014115Y003933D02*
X011440Y003933D01*
X011440Y003932D02*
X014115Y003932D01*
X014115Y003931D02*
X011440Y003931D01*
X011440Y003930D02*
X014115Y003930D01*
X014115Y003929D02*
X011440Y003929D01*
X011440Y003928D02*
X014115Y003928D01*
X014115Y003927D02*
X011440Y003927D01*
X011440Y003926D02*
X014115Y003926D01*
X014115Y003925D02*
X011440Y003925D01*
X011440Y003924D02*
X014115Y003924D01*
X014115Y003923D02*
X011440Y003923D01*
X011440Y003922D02*
X014115Y003922D01*
X014115Y003921D02*
X011440Y003921D01*
X011440Y003920D02*
X014115Y003920D01*
X014115Y003919D02*
X011440Y003919D01*
X011440Y003918D02*
X014115Y003918D01*
X014115Y003917D02*
X011440Y003917D01*
X011440Y003916D02*
X014115Y003916D01*
X014115Y003915D02*
X011440Y003915D01*
X011440Y003914D02*
X014115Y003914D01*
X014115Y003913D02*
X011440Y003913D01*
X011440Y003912D02*
X014115Y003912D01*
X014115Y003911D02*
X011440Y003911D01*
X011440Y003910D02*
X014115Y003910D01*
X014115Y003909D02*
X011440Y003909D01*
X011440Y003908D02*
X014115Y003908D01*
X014115Y003907D02*
X011440Y003907D01*
X011440Y003906D02*
X014115Y003906D01*
X014115Y003905D02*
X011440Y003905D01*
X011440Y003904D02*
X014115Y003904D01*
X014115Y003903D02*
X011440Y003903D01*
X011440Y003902D02*
X014115Y003902D01*
X014115Y003901D02*
X011440Y003901D01*
X011440Y003900D02*
X014115Y003900D01*
X014115Y003899D02*
X011440Y003899D01*
X011440Y003898D02*
X014115Y003898D01*
X014115Y003897D02*
X011440Y003897D01*
X011440Y003896D02*
X014115Y003896D01*
X014115Y003895D02*
X011440Y003895D01*
X011440Y003894D02*
X014115Y003894D01*
X014115Y003893D02*
X011440Y003893D01*
X011440Y003892D02*
X014115Y003892D01*
X014115Y003891D02*
X011440Y003891D01*
X011440Y003890D02*
X014115Y003890D01*
X014115Y003889D02*
X011440Y003889D01*
X011440Y003888D02*
X014115Y003888D01*
X014115Y003887D02*
X011440Y003887D01*
X011440Y003886D02*
X014115Y003886D01*
X014115Y003885D02*
X011440Y003885D01*
X011440Y003884D02*
X014115Y003884D01*
X014115Y003883D02*
X011440Y003883D01*
X011440Y003882D02*
X014115Y003882D01*
X014115Y003881D02*
X011440Y003881D01*
X011440Y003880D02*
X014115Y003880D01*
X014115Y003879D02*
X011440Y003879D01*
X011440Y003878D02*
X014115Y003878D01*
X014115Y003877D02*
X011440Y003877D01*
X011440Y003876D02*
X014115Y003876D01*
X014115Y003875D02*
X011440Y003875D01*
X011440Y003874D02*
X014115Y003874D01*
X014115Y003873D02*
X011440Y003873D01*
X011440Y003872D02*
X014115Y003872D01*
X014115Y003871D02*
X011440Y003871D01*
X011440Y003870D02*
X014115Y003870D01*
X014115Y003869D02*
X011440Y003869D01*
X011440Y003868D02*
X014115Y003868D01*
X014115Y003867D02*
X011440Y003867D01*
X011440Y003866D02*
X014115Y003866D01*
X014115Y003865D02*
X011440Y003865D01*
X011440Y003864D02*
X014115Y003864D01*
X014115Y003863D02*
X011440Y003863D01*
X011440Y003862D02*
X014115Y003862D01*
X014115Y003861D02*
X011440Y003861D01*
X011440Y003860D02*
X014115Y003860D01*
X014115Y003859D02*
X011440Y003859D01*
X011440Y003858D02*
X014115Y003858D01*
X014115Y003857D02*
X011440Y003857D01*
X011440Y003856D02*
X014115Y003856D01*
X014115Y003855D02*
X011440Y003855D01*
X011440Y003854D02*
X014115Y003854D01*
X014115Y003853D02*
X011440Y003853D01*
X011440Y003852D02*
X014115Y003852D01*
X014115Y003851D02*
X011440Y003851D01*
X011440Y003850D02*
X014115Y003850D01*
X014115Y003849D02*
X011440Y003849D01*
X011440Y003848D02*
X014115Y003848D01*
X014115Y003847D02*
X011440Y003847D01*
X011440Y003846D02*
X014115Y003846D01*
X014115Y003845D02*
X011440Y003845D01*
X011440Y003844D02*
X014115Y003844D01*
X014115Y003843D02*
X011440Y003843D01*
X011440Y003842D02*
X014115Y003842D01*
X014115Y003841D02*
X011440Y003841D01*
X011440Y003840D02*
X014115Y003840D01*
X014115Y003839D02*
X011440Y003839D01*
X011440Y003838D02*
X014115Y003838D01*
X014115Y003837D02*
X011440Y003837D01*
X011440Y003836D02*
X014115Y003836D01*
X014115Y003835D02*
X011440Y003835D01*
X011440Y003834D02*
X014115Y003834D01*
X014115Y003833D02*
X011440Y003833D01*
X011440Y003832D02*
X014115Y003832D01*
X014115Y003831D02*
X011440Y003831D01*
X011440Y003830D02*
X014115Y003830D01*
X014115Y003829D02*
X011440Y003829D01*
X011440Y003828D02*
X014115Y003828D01*
X014115Y003827D02*
X011440Y003827D01*
X011440Y003826D02*
X014115Y003826D01*
X014115Y003825D02*
X011440Y003825D01*
X011440Y003824D02*
X014115Y003824D01*
X014115Y003823D02*
X011440Y003823D01*
X011440Y003822D02*
X014115Y003822D01*
X014115Y003821D02*
X011440Y003821D01*
X011440Y003820D02*
X014115Y003820D01*
X014115Y003819D02*
X011440Y003819D01*
X011440Y003818D02*
X014115Y003818D01*
X014115Y003817D02*
X011440Y003817D01*
X011440Y003816D02*
X014115Y003816D01*
X014115Y003815D02*
X011440Y003815D01*
X011440Y003814D02*
X014115Y003814D01*
X014115Y003813D02*
X011440Y003813D01*
X011440Y003812D02*
X014115Y003812D01*
X014115Y003811D02*
X011440Y003811D01*
X011440Y003810D02*
X014115Y003810D01*
X014115Y003809D02*
X011440Y003809D01*
X011440Y003808D02*
X014115Y003808D01*
X014115Y003807D02*
X011440Y003807D01*
X011440Y003806D02*
X014115Y003806D01*
X014115Y003805D02*
X011440Y003805D01*
X011440Y003804D02*
X014115Y003804D01*
X014115Y003803D02*
X011440Y003803D01*
X011440Y003802D02*
X014115Y003802D01*
X014115Y003801D02*
X011440Y003801D01*
X011440Y003800D02*
X014115Y003800D01*
X014115Y003799D02*
X011440Y003799D01*
X011440Y003798D02*
X014115Y003798D01*
X014115Y003797D02*
X011440Y003797D01*
X011440Y003796D02*
X014115Y003796D01*
X014115Y003795D02*
X011440Y003795D01*
X011440Y003794D02*
X014115Y003794D01*
X014115Y003793D02*
X011440Y003793D01*
X011440Y003792D02*
X014115Y003792D01*
X014115Y003791D02*
X011440Y003791D01*
X011440Y003790D02*
X014115Y003790D01*
X014115Y003789D02*
X011440Y003789D01*
X011440Y003788D02*
X014115Y003788D01*
X014115Y003787D02*
X011440Y003787D01*
X011440Y003786D02*
X014115Y003786D01*
X014115Y003785D02*
X011440Y003785D01*
X011440Y003784D02*
X014115Y003784D01*
X014115Y003783D02*
X011440Y003783D01*
X011440Y003782D02*
X014115Y003782D01*
X014115Y003781D02*
X011440Y003781D01*
X011440Y003780D02*
X014115Y003780D01*
X014115Y003779D02*
X011440Y003779D01*
X011440Y003778D02*
X014115Y003778D01*
X014115Y003777D02*
X011440Y003777D01*
X011440Y003776D02*
X014115Y003776D01*
X014115Y003775D02*
X011440Y003775D01*
X011440Y003774D02*
X014115Y003774D01*
X014115Y003773D02*
X011440Y003773D01*
X011440Y003772D02*
X014115Y003772D01*
X014115Y003771D02*
X011440Y003771D01*
X011440Y003770D02*
X014115Y003770D01*
X014115Y003769D02*
X011440Y003769D01*
X011440Y003768D02*
X014115Y003768D01*
X014115Y003767D02*
X011440Y003767D01*
X011440Y003766D02*
X014115Y003766D01*
X014115Y003765D02*
X011440Y003765D01*
X011440Y003764D02*
X014115Y003764D01*
X014115Y003763D02*
X011440Y003763D01*
X011440Y003762D02*
X014115Y003762D01*
X014115Y003761D02*
X011440Y003761D01*
X011440Y003760D02*
X014115Y003760D01*
X014115Y003759D02*
X011440Y003759D01*
X011440Y003758D02*
X014115Y003758D01*
X011440Y003758D01*
X011440Y003757D02*
X014115Y003757D01*
X014115Y003756D02*
X011440Y003756D01*
X011440Y003755D02*
X014115Y003755D01*
X014115Y003754D02*
X011440Y003754D01*
X011440Y003753D02*
X014115Y003753D01*
X014115Y003752D02*
X011440Y003752D01*
X011440Y003751D02*
X014115Y003751D01*
X014115Y003750D02*
X011440Y003750D01*
X011440Y003749D02*
X014115Y003749D01*
X014115Y003748D02*
X011440Y003748D01*
X011440Y003747D02*
X014115Y003747D01*
X014115Y003746D02*
X011440Y003746D01*
X011440Y003745D02*
X014115Y003745D01*
X014115Y003744D02*
X011440Y003744D01*
X011440Y003743D02*
X014115Y003743D01*
X014115Y003742D02*
X011440Y003742D01*
X011440Y003741D02*
X014115Y003741D01*
X014115Y003740D02*
X011440Y003740D01*
X011440Y003739D02*
X014115Y003739D01*
X014115Y003738D02*
X011440Y003738D01*
X011440Y003737D02*
X014115Y003737D01*
X014115Y003736D02*
X011440Y003736D01*
X011440Y003735D02*
X014115Y003735D01*
X014115Y003734D02*
X011440Y003734D01*
X011440Y003733D02*
X014115Y003733D01*
X014115Y003732D02*
X011440Y003732D01*
X011440Y003731D02*
X014115Y003731D01*
X014115Y003730D02*
X011440Y003730D01*
X011440Y003729D02*
X014115Y003729D01*
X014115Y003728D02*
X011440Y003728D01*
X011440Y003727D02*
X014115Y003727D01*
X014115Y003726D02*
X011440Y003726D01*
X011440Y003725D02*
X014115Y003725D01*
X014115Y003724D02*
X011440Y003724D01*
X011440Y003723D02*
X014115Y003723D01*
X014115Y003722D02*
X011440Y003722D01*
X011440Y003721D02*
X014115Y003721D01*
X014115Y003720D02*
X011440Y003720D01*
X011440Y003719D02*
X014115Y003719D01*
X014115Y003718D02*
X011440Y003718D01*
X011440Y003717D02*
X014115Y003717D01*
X014115Y003716D02*
X011440Y003716D01*
X011440Y003715D02*
X014115Y003715D01*
X014115Y003714D02*
X011440Y003714D01*
X011440Y003713D02*
X014115Y003713D01*
X014115Y003712D02*
X011440Y003712D01*
X011440Y003711D02*
X014115Y003711D01*
X014115Y003710D02*
X011440Y003710D01*
X011440Y003709D02*
X014115Y003709D01*
X014115Y003708D02*
X011440Y003708D01*
X011440Y003707D02*
X014115Y003707D01*
X014115Y003706D02*
X011440Y003706D01*
X011440Y003705D02*
X014115Y003705D01*
X014115Y003704D02*
X011440Y003704D01*
X011440Y003703D02*
X014115Y003703D01*
X014115Y003702D02*
X011440Y003702D01*
X011440Y003701D02*
X014115Y003701D01*
X014115Y003700D02*
X011440Y003700D01*
X011440Y003699D02*
X014115Y003699D01*
X014115Y003698D02*
X011440Y003698D01*
X011440Y003697D02*
X014115Y003697D01*
X014115Y003696D02*
X011440Y003696D01*
X011440Y003695D02*
X014115Y003695D01*
X014115Y003694D02*
X011440Y003694D01*
X011440Y003693D02*
X014115Y003693D01*
X014115Y003692D02*
X011440Y003692D01*
X011440Y003691D02*
X014115Y003691D01*
X014115Y003690D02*
X011440Y003690D01*
X011440Y003689D02*
X014115Y003689D01*
X014115Y003688D02*
X011440Y003688D01*
X011440Y003687D02*
X014115Y003687D01*
X014115Y003686D02*
X011440Y003686D01*
X011440Y003685D02*
X014115Y003685D01*
X014115Y003684D02*
X011440Y003684D01*
X011440Y003683D02*
X014115Y003683D01*
X014115Y003682D02*
X011440Y003682D01*
X011440Y003681D02*
X014115Y003681D01*
X014115Y003680D02*
X011440Y003680D01*
X011440Y003679D02*
X014115Y003679D01*
X014115Y003678D02*
X011440Y003678D01*
X011440Y003677D02*
X014115Y003677D01*
X014115Y003676D02*
X011440Y003676D01*
X011440Y003675D02*
X014115Y003675D01*
X014115Y003674D02*
X011440Y003674D01*
X011440Y003673D02*
X014115Y003673D01*
X014115Y003672D02*
X011440Y003672D01*
X011440Y003671D02*
X014115Y003671D01*
X014115Y003670D02*
X011440Y003670D01*
X011440Y003669D02*
X014115Y003669D01*
X014115Y003668D02*
X011440Y003668D01*
X011440Y003667D02*
X014115Y003667D01*
X014115Y003666D02*
X011440Y003666D01*
X011440Y003665D02*
X014115Y003665D01*
X014115Y003664D02*
X011440Y003664D01*
X011440Y003663D02*
X014115Y003663D01*
X014115Y003662D02*
X011440Y003662D01*
X011440Y003661D02*
X014115Y003661D01*
X014115Y003660D02*
X011440Y003660D01*
X011440Y003659D02*
X014115Y003659D01*
X014115Y003658D02*
X011440Y003658D01*
X011440Y003657D02*
X014115Y003657D01*
X014115Y003656D02*
X011440Y003656D01*
X011440Y003655D02*
X014115Y003655D01*
X014115Y003654D02*
X011440Y003654D01*
X011440Y003653D02*
X014115Y003653D01*
X014115Y003652D02*
X011440Y003652D01*
X011440Y003651D02*
X014115Y003651D01*
X014115Y003650D02*
X011440Y003650D01*
X011440Y003649D02*
X014115Y003649D01*
X014115Y003648D02*
X011440Y003648D01*
X011440Y003647D02*
X014115Y003647D01*
X014115Y003646D02*
X011440Y003646D01*
X011440Y003645D02*
X014115Y003645D01*
X014115Y003644D02*
X011440Y003644D01*
X011440Y003643D02*
X014115Y003643D01*
X014115Y003642D02*
X011440Y003642D01*
X011440Y003641D02*
X014115Y003641D01*
X014115Y003640D02*
X011440Y003640D01*
X011440Y003639D02*
X014115Y003639D01*
X014115Y003638D02*
X011440Y003638D01*
X011440Y003637D02*
X014115Y003637D01*
X014115Y003636D02*
X011440Y003636D01*
X011440Y003635D02*
X014115Y003635D01*
X014115Y003634D02*
X011440Y003634D01*
X011440Y003633D02*
X014115Y003633D01*
X014115Y003632D02*
X011440Y003632D01*
X011440Y003631D02*
X014115Y003631D01*
X014115Y003630D02*
X011440Y003630D01*
X011440Y003629D02*
X014115Y003629D01*
X014115Y003628D02*
X011440Y003628D01*
X011440Y003627D02*
X014115Y003627D01*
X014115Y003626D02*
X011440Y003626D01*
X011440Y003625D02*
X014115Y003625D01*
X014115Y003624D02*
X011440Y003624D01*
X011440Y003623D02*
X014115Y003623D01*
X014115Y003622D02*
X011440Y003622D01*
X011440Y003621D02*
X014115Y003621D01*
X014115Y003620D02*
X011440Y003620D01*
X011440Y003619D02*
X014115Y003619D01*
X014115Y003618D02*
X011440Y003618D01*
X011440Y003617D02*
X014115Y003617D01*
X014115Y003616D02*
X011440Y003616D01*
X011440Y003615D02*
X014115Y003615D01*
X014115Y003614D02*
X011440Y003614D01*
X011440Y003613D02*
X014115Y003613D01*
X014115Y003612D02*
X011440Y003612D01*
X011440Y003611D02*
X014115Y003611D01*
X014115Y003610D02*
X011440Y003610D01*
X011440Y003609D02*
X014115Y003609D01*
X014115Y003608D02*
X011440Y003608D01*
X011440Y003607D02*
X014115Y003607D01*
X014115Y003606D02*
X011440Y003606D01*
X011440Y003605D02*
X014115Y003605D01*
X014115Y003604D02*
X011440Y003604D01*
X011440Y003603D02*
X014115Y003603D01*
X014115Y003602D02*
X011440Y003602D01*
X011440Y003601D02*
X014115Y003601D01*
X014115Y003600D02*
X011440Y003600D01*
X011440Y003599D02*
X014115Y003599D01*
X014115Y003598D02*
X011440Y003598D01*
X011440Y003597D02*
X014115Y003597D01*
X014115Y003596D02*
X011440Y003596D01*
X011440Y003595D02*
X014115Y003595D01*
X014115Y003594D02*
X011440Y003594D01*
X011440Y003593D02*
X014115Y003593D01*
X014115Y003592D02*
X011440Y003592D01*
X011440Y003591D02*
X014115Y003591D01*
X014115Y003590D02*
X011440Y003590D01*
X011440Y003589D02*
X014115Y003589D01*
X014115Y003588D02*
X011440Y003588D01*
X011440Y003587D02*
X014115Y003587D01*
X014115Y003586D02*
X011440Y003586D01*
X011440Y003585D02*
X014115Y003585D01*
X014115Y003584D02*
X011440Y003584D01*
X011440Y003583D02*
X014115Y003583D01*
X014115Y003582D02*
X011440Y003582D01*
X011440Y003581D02*
X014115Y003581D01*
X014115Y003580D02*
X011440Y003580D01*
X011440Y003579D02*
X014115Y003579D01*
X014115Y003578D02*
X011440Y003578D01*
X011440Y003577D02*
X014115Y003577D01*
X014115Y003576D02*
X011440Y003576D01*
X011440Y003575D02*
X014115Y003575D01*
X014115Y003574D02*
X011440Y003574D01*
X011440Y003573D02*
X014115Y003573D01*
X014115Y003572D02*
X011440Y003572D01*
X011440Y003571D02*
X014115Y003571D01*
X014115Y003570D02*
X011440Y003570D01*
X011440Y003569D02*
X014115Y003569D01*
X014115Y003568D02*
X011440Y003568D01*
X011440Y003567D02*
X014115Y003567D01*
X014115Y003566D02*
X011440Y003566D01*
X011440Y003565D02*
X014115Y003565D01*
X014115Y003564D02*
X011440Y003564D01*
X011440Y003563D02*
X014115Y003563D01*
X014115Y003562D02*
X011440Y003562D01*
X011440Y003561D02*
X014115Y003561D01*
X014115Y003560D02*
X011440Y003560D01*
X011440Y003559D02*
X014115Y003559D01*
X014115Y003558D02*
X011440Y003558D01*
X011440Y003557D02*
X014115Y003557D01*
X014115Y003556D02*
X011440Y003556D01*
X011565Y003555D02*
X014115Y003555D01*
X014115Y003554D02*
X011566Y003554D01*
X011567Y003553D02*
X014115Y003553D01*
X014115Y003552D02*
X011568Y003552D01*
X011569Y003551D02*
X014115Y003551D01*
X014115Y003550D02*
X011570Y003550D01*
X011571Y003549D02*
X014115Y003549D01*
X014115Y003548D02*
X011572Y003548D01*
X011573Y003547D02*
X014115Y003547D01*
X014115Y003546D02*
X011574Y003546D01*
X011575Y003545D02*
X014115Y003545D01*
X014115Y003544D02*
X011576Y003544D01*
X011577Y003543D02*
X014115Y003543D01*
X014115Y003542D02*
X011578Y003542D01*
X011579Y003541D02*
X014115Y003541D01*
X014115Y003540D02*
X011580Y003540D01*
X011581Y003539D02*
X014115Y003539D01*
X014115Y003538D02*
X011582Y003538D01*
X011583Y003537D02*
X014115Y003537D01*
X014115Y003536D02*
X011584Y003536D01*
X011585Y003535D02*
X014115Y003535D01*
X014115Y003534D02*
X011586Y003534D01*
X011587Y003533D02*
X014115Y003533D01*
X014115Y003532D02*
X011588Y003532D01*
X011589Y003531D02*
X014115Y003531D01*
X014115Y003530D02*
X011590Y003530D01*
X011591Y003529D02*
X014115Y003529D01*
X014115Y003528D02*
X011592Y003528D01*
X011593Y003527D02*
X014115Y003527D01*
X014115Y003526D02*
X011594Y003526D01*
X011595Y003525D02*
X014115Y003525D01*
X014115Y003524D02*
X011596Y003524D01*
X011597Y003523D02*
X014115Y003523D01*
X014115Y003522D02*
X011598Y003522D01*
X011599Y003521D02*
X014115Y003521D01*
X014115Y003520D02*
X011600Y003520D01*
X011601Y003519D02*
X014115Y003519D01*
X014115Y003518D02*
X011602Y003518D01*
X011603Y003517D02*
X014115Y003517D01*
X014115Y003516D02*
X011604Y003516D01*
X011605Y003515D02*
X014115Y003515D01*
X014115Y003514D02*
X011606Y003514D01*
X011607Y003513D02*
X014115Y003513D01*
X014115Y003512D02*
X011608Y003512D01*
X011609Y003511D02*
X014115Y003511D01*
X014115Y003510D02*
X011610Y003510D01*
X011611Y003509D02*
X014115Y003509D01*
X014115Y003508D02*
X011612Y003508D01*
X011613Y003507D02*
X014115Y003507D01*
X014115Y003506D02*
X011614Y003506D01*
X011615Y003505D02*
X014115Y003505D01*
X014115Y003504D02*
X011616Y003504D01*
X011617Y003503D02*
X014115Y003503D01*
X014115Y003502D02*
X011618Y003502D01*
X011619Y003501D02*
X014115Y003501D01*
X014115Y003500D02*
X011620Y003500D01*
X011621Y003499D02*
X014115Y003499D01*
X014115Y003498D02*
X011622Y003498D01*
X011623Y003497D02*
X014115Y003497D01*
X014115Y003496D02*
X011624Y003496D01*
X011625Y003495D02*
X014115Y003495D01*
X014115Y003494D02*
X011626Y003494D01*
X011627Y003493D02*
X014115Y003493D01*
X014115Y003492D02*
X011628Y003492D01*
X011629Y003491D02*
X014115Y003491D01*
X014115Y003490D02*
X011630Y003490D01*
X011631Y003489D02*
X014115Y003489D01*
X014115Y003488D02*
X011632Y003488D01*
X011633Y003487D02*
X014115Y003487D01*
X014115Y003486D02*
X011634Y003486D01*
X011635Y003485D02*
X014115Y003485D01*
X014115Y003484D02*
X011636Y003484D01*
X011637Y003483D02*
X014115Y003483D01*
X014115Y003482D02*
X011638Y003482D01*
X011639Y003481D02*
X014115Y003481D01*
X014115Y003480D02*
X013140Y003480D01*
X013141Y003479D02*
X014115Y003479D01*
X014115Y003478D02*
X013141Y003478D01*
X013142Y003477D02*
X014115Y003477D01*
X014115Y003476D02*
X013142Y003476D01*
X013143Y003475D02*
X014115Y003475D01*
X014115Y003474D02*
X013143Y003474D01*
X013144Y003473D02*
X014115Y003473D01*
X014115Y003472D02*
X013144Y003472D01*
X013145Y003471D02*
X014115Y003471D01*
X014115Y003470D02*
X013145Y003470D01*
X013146Y003469D02*
X014115Y003469D01*
X014115Y003468D02*
X013146Y003468D01*
X013147Y003467D02*
X014115Y003467D01*
X014115Y003466D02*
X013147Y003466D01*
X013148Y003465D02*
X014115Y003465D01*
X014115Y003464D02*
X013148Y003464D01*
X013149Y003463D02*
X014115Y003463D01*
X014115Y003462D02*
X013149Y003462D01*
X013150Y003461D02*
X014115Y003461D01*
X014115Y003460D02*
X013150Y003460D01*
X013151Y003459D02*
X014115Y003459D01*
X014115Y003458D02*
X013151Y003458D01*
X013152Y003457D02*
X014115Y003457D01*
X014115Y003456D02*
X013152Y003456D01*
X013153Y003455D02*
X014115Y003455D01*
X014115Y003454D02*
X013153Y003454D01*
X013154Y003453D02*
X014115Y003453D01*
X014115Y003452D02*
X013154Y003452D01*
X013155Y003451D02*
X014115Y003451D01*
X014115Y003450D02*
X013155Y003450D01*
X013156Y003449D02*
X014115Y003449D01*
X014115Y003448D02*
X013156Y003448D01*
X013157Y003447D02*
X014115Y003447D01*
X014115Y003446D02*
X013157Y003446D01*
X013158Y003445D02*
X014115Y003445D01*
X014115Y003444D02*
X013158Y003444D01*
X013159Y003443D02*
X014115Y003443D01*
X014115Y003442D02*
X013159Y003442D01*
X013160Y003441D02*
X014115Y003441D01*
X014115Y003440D02*
X013160Y003440D01*
X013161Y003439D02*
X014115Y003439D01*
X014115Y003438D02*
X013161Y003438D01*
X013162Y003437D02*
X014115Y003437D01*
X014115Y003436D02*
X013162Y003436D01*
X013163Y003435D02*
X014115Y003435D01*
X014115Y003434D02*
X013163Y003434D01*
X013164Y003433D02*
X014115Y003433D01*
X014115Y003432D02*
X013164Y003432D01*
X013165Y003431D02*
X014115Y003431D01*
X014115Y003430D02*
X013165Y003430D01*
X013166Y003429D02*
X014115Y003429D01*
X014115Y003428D02*
X013166Y003428D01*
X013167Y003427D02*
X014115Y003427D01*
X014115Y003426D02*
X013167Y003426D01*
X013168Y003425D02*
X014115Y003425D01*
X014115Y003424D02*
X013168Y003424D01*
X013169Y003423D02*
X014115Y003423D01*
X014115Y003422D02*
X013169Y003422D01*
X013170Y003421D02*
X014115Y003421D01*
X014115Y003420D02*
X013170Y003420D01*
X013171Y003419D02*
X014115Y003419D01*
X014115Y003418D02*
X013171Y003418D01*
X013172Y003417D02*
X014115Y003417D01*
X014115Y003416D02*
X013172Y003416D01*
X013173Y003415D02*
X014115Y003415D01*
X014115Y003414D02*
X013173Y003414D01*
X013174Y003413D02*
X014115Y003413D01*
X014115Y003412D02*
X013174Y003412D01*
X013175Y003411D02*
X014115Y003411D01*
X014115Y003410D02*
X013175Y003410D01*
X013176Y003409D02*
X014115Y003409D01*
X014115Y003408D02*
X013176Y003408D01*
X013177Y003407D02*
X014115Y003407D01*
X014115Y003406D02*
X013177Y003406D01*
X013178Y003405D02*
X014115Y003405D01*
X014115Y003404D02*
X013178Y003404D01*
X013179Y003403D02*
X014115Y003403D01*
X014115Y003402D02*
X013179Y003402D01*
X013180Y003401D02*
X014115Y003401D01*
X014115Y003400D02*
X013180Y003400D01*
X013181Y003399D02*
X014115Y003399D01*
X014115Y003398D02*
X013181Y003398D01*
X013182Y003397D02*
X014115Y003397D01*
X014115Y003396D02*
X013182Y003396D01*
X013183Y003395D02*
X014115Y003395D01*
X014115Y003394D02*
X013183Y003394D01*
X013184Y003393D02*
X014115Y003393D01*
X014115Y003392D02*
X013184Y003392D01*
X013185Y003391D02*
X014115Y003391D01*
X014115Y003390D02*
X013185Y003390D01*
X013186Y003389D02*
X014115Y003389D01*
X014115Y003388D02*
X013186Y003388D01*
X013187Y003387D02*
X014115Y003387D01*
X014115Y003386D02*
X013187Y003386D01*
X013188Y003385D02*
X014115Y003385D01*
X014115Y003384D02*
X013188Y003384D01*
X013189Y003383D02*
X014115Y003383D01*
X014115Y003382D02*
X013189Y003382D01*
X013190Y003381D02*
X014115Y003381D01*
X014115Y003380D02*
X013190Y003380D01*
X013191Y003379D02*
X014115Y003379D01*
X014115Y003378D02*
X013191Y003378D01*
X013192Y003377D02*
X014115Y003377D01*
X014115Y003376D02*
X013192Y003376D01*
X013193Y003375D02*
X014115Y003375D01*
X014115Y003374D02*
X013193Y003374D01*
X013194Y003373D02*
X014115Y003373D01*
X014115Y003372D02*
X013194Y003372D01*
X013195Y003371D02*
X014115Y003371D01*
X014115Y003370D02*
X013195Y003370D01*
X013196Y003369D02*
X014115Y003369D01*
X014115Y003368D02*
X013196Y003368D01*
X013197Y003367D02*
X014115Y003367D01*
X014115Y003366D02*
X013197Y003366D01*
X013198Y003365D02*
X014115Y003365D01*
X014115Y003364D02*
X013198Y003364D01*
X013199Y003363D02*
X014115Y003363D01*
X014115Y003362D02*
X013199Y003362D01*
X013200Y003361D02*
X014115Y003361D01*
X014115Y003360D02*
X013200Y003360D01*
X013201Y003359D02*
X014115Y003359D01*
X014115Y003358D02*
X013201Y003358D01*
X013202Y003357D02*
X014115Y003357D01*
X014115Y003356D02*
X013202Y003356D01*
X013203Y003355D02*
X014115Y003355D01*
X014115Y003354D02*
X013203Y003354D01*
X013204Y003353D02*
X014115Y003353D01*
X014115Y003352D02*
X013204Y003352D01*
X013205Y003351D02*
X014115Y003351D01*
X014115Y003350D02*
X013205Y003350D01*
X013206Y003349D02*
X014115Y003349D01*
X014115Y003348D02*
X013206Y003348D01*
X013207Y003347D02*
X014115Y003347D01*
X014115Y003346D02*
X013207Y003346D01*
X013208Y003345D02*
X014115Y003345D01*
X014115Y003344D02*
X013208Y003344D01*
X013209Y003343D02*
X014115Y003343D01*
X014115Y003342D02*
X013209Y003342D01*
X013210Y003341D02*
X014115Y003341D01*
X014115Y003340D02*
X013210Y003340D01*
X013211Y003339D02*
X014115Y003339D01*
X014115Y003338D02*
X013211Y003338D01*
X013212Y003337D02*
X014115Y003337D01*
X014115Y003336D02*
X013212Y003336D01*
X013213Y003335D02*
X014115Y003335D01*
X014115Y003334D02*
X013213Y003334D01*
X013214Y003333D02*
X014115Y003333D01*
X014115Y003332D02*
X013214Y003332D01*
X013215Y003331D02*
X014115Y003331D01*
X014115Y003330D02*
X013215Y003330D01*
X013216Y003329D02*
X014115Y003329D01*
X014115Y003328D02*
X013216Y003328D01*
X013217Y003327D02*
X014115Y003327D01*
X014115Y003326D02*
X013217Y003326D01*
X013218Y003325D02*
X014115Y003325D01*
X014115Y003324D02*
X013218Y003324D01*
X013219Y003323D02*
X014115Y003323D01*
X014115Y003322D02*
X013219Y003322D01*
X013220Y003321D02*
X014115Y003321D01*
X014115Y003320D02*
X013220Y003320D01*
X013221Y003319D02*
X014115Y003319D01*
X014115Y003318D02*
X013221Y003318D01*
X013222Y003317D02*
X014115Y003317D01*
X014115Y003316D02*
X013222Y003316D01*
X013223Y003315D02*
X014115Y003315D01*
X014115Y003314D02*
X013223Y003314D01*
X013224Y003313D02*
X014115Y003313D01*
X014115Y003312D02*
X013224Y003312D01*
X013225Y003311D02*
X014115Y003311D01*
X014115Y003310D02*
X013225Y003310D01*
X013226Y003309D02*
X014115Y003309D01*
X014115Y003308D02*
X013226Y003308D01*
X013227Y003307D02*
X014115Y003307D01*
X014115Y003306D02*
X013227Y003306D01*
X013228Y003305D02*
X014115Y003305D01*
X014115Y003304D02*
X013228Y003304D01*
X013229Y003303D02*
X014115Y003303D01*
X014115Y003302D02*
X013229Y003302D01*
X013230Y003301D02*
X014115Y003301D01*
X014115Y003300D02*
X013230Y003300D01*
X013231Y003299D02*
X014115Y003299D01*
X014115Y003298D02*
X013231Y003298D01*
X013232Y003297D02*
X014115Y003297D01*
X014115Y003296D02*
X013232Y003296D01*
X013233Y003295D02*
X014115Y003295D01*
X014115Y003294D02*
X013233Y003294D01*
X013234Y003293D02*
X014115Y003293D01*
X014115Y003292D02*
X013234Y003292D01*
X013235Y003291D02*
X014115Y003291D01*
X014115Y003290D02*
X013235Y003290D01*
X013236Y003289D02*
X014115Y003289D01*
X014115Y003288D02*
X013236Y003288D01*
X013237Y003287D02*
X014115Y003287D01*
X014115Y003286D02*
X013237Y003286D01*
X013238Y003285D02*
X014115Y003285D01*
X014115Y003284D02*
X013238Y003284D01*
X013239Y003283D02*
X014115Y003283D01*
X014115Y003282D02*
X013239Y003282D01*
X013240Y003281D02*
X014115Y003281D01*
X014115Y001380D02*
X012840Y001380D01*
X012839Y001379D02*
X014115Y001379D01*
X014115Y001378D02*
X012838Y001378D01*
X012837Y001377D02*
X014115Y001377D01*
X014115Y001376D02*
X012836Y001376D01*
X012835Y001375D02*
X014115Y001375D01*
X014115Y001374D02*
X012834Y001374D01*
X012833Y001373D02*
X014115Y001373D01*
X014115Y001372D02*
X012832Y001372D01*
X012831Y001371D02*
X014115Y001371D01*
X014115Y001370D02*
X012830Y001370D01*
X012829Y001369D02*
X014115Y001369D01*
X014115Y001368D02*
X012828Y001368D01*
X012827Y001367D02*
X014115Y001367D01*
X014115Y001366D02*
X012826Y001366D01*
X012825Y001365D02*
X014115Y001365D01*
X014115Y001364D02*
X012824Y001364D01*
X012823Y001363D02*
X014115Y001363D01*
X014115Y001362D02*
X012822Y001362D01*
X012821Y001361D02*
X014115Y001361D01*
X014115Y001360D02*
X012820Y001360D01*
X012819Y001359D02*
X014115Y001359D01*
X014115Y001358D02*
X012818Y001358D01*
X012817Y001357D02*
X014115Y001357D01*
X014115Y001356D02*
X012816Y001356D01*
X012815Y001355D02*
X014115Y001355D01*
X014115Y001354D02*
X012814Y001354D01*
X012813Y001353D02*
X014115Y001353D01*
X014115Y001352D02*
X012812Y001352D01*
X012811Y001351D02*
X014115Y001351D01*
X014115Y001350D02*
X012810Y001350D01*
X012809Y001349D02*
X014115Y001349D01*
X014115Y001348D02*
X012808Y001348D01*
X012807Y001347D02*
X014115Y001347D01*
X014115Y001346D02*
X012806Y001346D01*
X012805Y001345D02*
X014115Y001345D01*
X014115Y001344D02*
X012804Y001344D01*
X012803Y001343D02*
X014115Y001343D01*
X014115Y001342D02*
X012802Y001342D01*
X012801Y001341D02*
X014115Y001341D01*
X014115Y001340D02*
X012800Y001340D01*
X012799Y001339D02*
X014115Y001339D01*
X014115Y001338D02*
X012798Y001338D01*
X012797Y001337D02*
X014115Y001337D01*
X014115Y001336D02*
X012796Y001336D01*
X012795Y001335D02*
X014115Y001335D01*
X014115Y001334D02*
X012794Y001334D01*
X012793Y001333D02*
X014115Y001333D01*
X014115Y001332D02*
X012792Y001332D01*
X012791Y001331D02*
X014115Y001331D01*
X014115Y001330D02*
X012790Y001330D01*
X012789Y001329D02*
X014115Y001329D01*
X014115Y001328D02*
X012788Y001328D01*
X012787Y001327D02*
X014115Y001327D01*
X014115Y001326D02*
X012786Y001326D01*
X012785Y001325D02*
X014115Y001325D01*
X014115Y001324D02*
X012784Y001324D01*
X012783Y001323D02*
X014115Y001323D01*
X014115Y001322D02*
X012782Y001322D01*
X012781Y001321D02*
X014115Y001321D01*
X014115Y001320D02*
X012780Y001320D01*
X012779Y001319D02*
X014115Y001319D01*
X014115Y001318D02*
X012778Y001318D01*
X012777Y001317D02*
X014115Y001317D01*
X014115Y001316D02*
X012776Y001316D01*
X012775Y001315D02*
X014115Y001315D01*
X014115Y001314D02*
X012774Y001314D01*
X012773Y001313D02*
X014115Y001313D01*
X014115Y001312D02*
X012772Y001312D01*
X012771Y001311D02*
X014115Y001311D01*
X014115Y001310D02*
X012770Y001310D01*
X012769Y001309D02*
X014115Y001309D01*
X014115Y001308D02*
X012768Y001308D01*
X012767Y001307D02*
X014115Y001307D01*
X014115Y001306D02*
X012766Y001306D01*
X012765Y001305D02*
X014115Y001305D01*
X014115Y001304D02*
X012764Y001304D01*
X012763Y001303D02*
X014115Y001303D01*
X014115Y001302D02*
X012762Y001302D01*
X012761Y001301D02*
X014115Y001301D01*
X014115Y001300D02*
X012760Y001300D01*
X012759Y001299D02*
X014115Y001299D01*
X014115Y001298D02*
X012758Y001298D01*
X012757Y001297D02*
X014115Y001297D01*
X014115Y001296D02*
X012756Y001296D01*
X012755Y001295D02*
X014115Y001295D01*
X014115Y001294D02*
X012754Y001294D01*
X012753Y001293D02*
X014115Y001293D01*
X014115Y001292D02*
X012752Y001292D01*
X012751Y001291D02*
X014115Y001291D01*
X014115Y001290D02*
X012750Y001290D01*
X012749Y001289D02*
X014115Y001289D01*
X014115Y001288D02*
X012748Y001288D01*
X012747Y001287D02*
X014115Y001287D01*
X014115Y001286D02*
X012746Y001286D01*
X012745Y001285D02*
X014115Y001285D01*
X014115Y001284D02*
X012744Y001284D01*
X012743Y001283D02*
X014115Y001283D01*
X014115Y001282D02*
X012742Y001282D01*
X012741Y001281D02*
X014115Y001281D01*
X014115Y001280D02*
X012740Y001280D01*
X012739Y001279D02*
X014115Y001279D01*
X014115Y001278D02*
X012738Y001278D01*
X012737Y001277D02*
X014115Y001277D01*
X014115Y001276D02*
X012736Y001276D01*
X012735Y001275D02*
X014115Y001275D01*
X014115Y001274D02*
X012734Y001274D01*
X012733Y001273D02*
X014115Y001273D01*
X014115Y001272D02*
X012732Y001272D01*
X012731Y001271D02*
X014115Y001271D01*
X014115Y001270D02*
X012730Y001270D01*
X012729Y001269D02*
X014115Y001269D01*
X014115Y001268D02*
X012728Y001268D01*
X012727Y001267D02*
X014115Y001267D01*
X014115Y001266D02*
X012726Y001266D01*
X012725Y001265D02*
X014115Y001265D01*
X014115Y001264D02*
X012724Y001264D01*
X012723Y001263D02*
X014115Y001263D01*
X014115Y001262D02*
X012722Y001262D01*
X012721Y001261D02*
X014115Y001261D01*
X014115Y001260D02*
X012720Y001260D01*
X012719Y001259D02*
X014115Y001259D01*
X014115Y001258D02*
X012718Y001258D01*
X012717Y001257D02*
X014115Y001257D01*
X014115Y001256D02*
X012716Y001256D01*
X012715Y001255D02*
X014115Y001255D01*
X014115Y001254D02*
X012714Y001254D01*
X012713Y001253D02*
X014115Y001253D01*
X014115Y001252D02*
X012712Y001252D01*
X012711Y001251D02*
X014115Y001251D01*
X014115Y001250D02*
X012710Y001250D01*
X012709Y001249D02*
X014115Y001249D01*
X014115Y001248D02*
X012708Y001248D01*
X012707Y001247D02*
X014115Y001247D01*
X014115Y001246D02*
X012706Y001246D01*
X012705Y001245D02*
X014115Y001245D01*
X014115Y001244D02*
X012704Y001244D01*
X012703Y001243D02*
X014115Y001243D01*
X014115Y001242D02*
X012702Y001242D01*
X012701Y001241D02*
X014115Y001241D01*
X014115Y001240D02*
X012700Y001240D01*
X012699Y001239D02*
X014115Y001239D01*
X014115Y001238D02*
X012698Y001238D01*
X012697Y001237D02*
X014115Y001237D01*
X014115Y001236D02*
X012696Y001236D01*
X012695Y001235D02*
X014115Y001235D01*
X014115Y001234D02*
X012694Y001234D01*
X012693Y001233D02*
X014115Y001233D01*
X014115Y001232D02*
X012692Y001232D01*
X012691Y001231D02*
X014115Y001231D01*
X014115Y001230D02*
X012690Y001230D01*
X012689Y001229D02*
X014115Y001229D01*
X014115Y001228D02*
X012688Y001228D01*
X012687Y001227D02*
X014115Y001227D01*
X014115Y001226D02*
X012686Y001226D01*
X012685Y001225D02*
X014115Y001225D01*
X014115Y001224D02*
X012684Y001224D01*
X012683Y001223D02*
X014115Y001223D01*
X014115Y001222D02*
X012682Y001222D01*
X012681Y001221D02*
X014115Y001221D01*
X014115Y001220D02*
X012680Y001220D01*
X012679Y001219D02*
X014115Y001219D01*
X014115Y001218D02*
X012678Y001218D01*
X012677Y001217D02*
X014115Y001217D01*
X014115Y001216D02*
X012676Y001216D01*
X012675Y001215D02*
X014115Y001215D01*
X014115Y001214D02*
X012674Y001214D01*
X012673Y001213D02*
X014115Y001213D01*
X014115Y001212D02*
X012672Y001212D01*
X012671Y001211D02*
X014115Y001211D01*
X014115Y001210D02*
X012670Y001210D01*
X012669Y001209D02*
X014115Y001209D01*
X014115Y001208D02*
X012668Y001208D01*
X012667Y001207D02*
X014115Y001207D01*
X014115Y001206D02*
X012666Y001206D01*
X012665Y001205D02*
X014115Y001205D01*
X014115Y001204D02*
X012664Y001204D01*
X012663Y001203D02*
X014115Y001203D01*
X014115Y001202D02*
X012662Y001202D01*
X012661Y001201D02*
X014115Y001201D01*
X014115Y001200D02*
X012660Y001200D01*
X012659Y001199D02*
X014115Y001199D01*
X014115Y001198D02*
X012658Y001198D01*
X012657Y001197D02*
X014115Y001197D01*
X014115Y001196D02*
X012656Y001196D01*
X012655Y001195D02*
X014115Y001195D01*
X014115Y001194D02*
X012654Y001194D01*
X012653Y001193D02*
X014115Y001193D01*
X014115Y001192D02*
X012652Y001192D01*
X012651Y001191D02*
X014115Y001191D01*
X014115Y001190D02*
X012650Y001190D01*
X012649Y001189D02*
X014115Y001189D01*
X014115Y001188D02*
X012648Y001188D01*
X012647Y001187D02*
X014115Y001187D01*
X014115Y001186D02*
X012646Y001186D01*
X012645Y001185D02*
X014115Y001185D01*
X014115Y001184D02*
X012644Y001184D01*
X012643Y001183D02*
X014115Y001183D01*
X014115Y001182D02*
X012642Y001182D01*
X012641Y001181D02*
X014115Y001181D01*
X014115Y001180D02*
X012640Y001180D01*
X011539Y001179D02*
X014115Y001179D01*
X014115Y001178D02*
X011538Y001178D01*
X011537Y001177D02*
X014115Y001177D01*
X014115Y001176D02*
X011536Y001176D01*
X011535Y001175D02*
X014115Y001175D01*
X014115Y001174D02*
X011534Y001174D01*
X011533Y001173D02*
X014115Y001173D01*
X014115Y001172D02*
X011532Y001172D01*
X011531Y001171D02*
X014115Y001171D01*
X014115Y001170D02*
X011530Y001170D01*
X011529Y001169D02*
X014115Y001169D01*
X014115Y001168D02*
X011528Y001168D01*
X011527Y001167D02*
X014115Y001167D01*
X014115Y001166D02*
X011526Y001166D01*
X011525Y001165D02*
X014115Y001165D01*
X014115Y001164D02*
X011524Y001164D01*
X011523Y001163D02*
X014115Y001163D01*
X014115Y001162D02*
X011522Y001162D01*
X011521Y001161D02*
X014115Y001161D01*
X014115Y001160D02*
X011520Y001160D01*
X011519Y001159D02*
X014115Y001159D01*
X014115Y001158D02*
X011518Y001158D01*
X011517Y001157D02*
X014115Y001157D01*
X014115Y001156D02*
X011516Y001156D01*
X011515Y001155D02*
X014115Y001155D01*
X014115Y001154D02*
X011514Y001154D01*
X011513Y001153D02*
X014115Y001153D01*
X014115Y001152D02*
X011512Y001152D01*
X011511Y001151D02*
X014115Y001151D01*
X014115Y001150D02*
X011510Y001150D01*
X011509Y001149D02*
X014115Y001149D01*
X014115Y001148D02*
X011508Y001148D01*
X011507Y001147D02*
X014115Y001147D01*
X014115Y001146D02*
X011506Y001146D01*
X011505Y001145D02*
X014115Y001145D01*
X014115Y001144D02*
X011504Y001144D01*
X011503Y001143D02*
X014115Y001143D01*
X014115Y001142D02*
X011502Y001142D01*
X011501Y001141D02*
X014115Y001141D01*
X014115Y001140D02*
X011500Y001140D01*
X011499Y001139D02*
X014115Y001139D01*
X014115Y001138D02*
X011498Y001138D01*
X011497Y001137D02*
X014115Y001137D01*
X014115Y001136D02*
X011496Y001136D01*
X011495Y001135D02*
X014115Y001135D01*
X014115Y001134D02*
X011494Y001134D01*
X011493Y001133D02*
X014115Y001133D01*
X014115Y001132D02*
X011492Y001132D01*
X011491Y001131D02*
X014115Y001131D01*
X014115Y001130D02*
X011490Y001130D01*
X011489Y001129D02*
X014115Y001129D01*
X014115Y001128D02*
X011488Y001128D01*
X011487Y001127D02*
X014115Y001127D01*
X014115Y001126D02*
X011486Y001126D01*
X011485Y001125D02*
X014115Y001125D01*
X014115Y001124D02*
X011484Y001124D01*
X011483Y001123D02*
X014115Y001123D01*
X014115Y001122D02*
X011482Y001122D01*
X011481Y001121D02*
X014115Y001121D01*
X014115Y001120D02*
X011480Y001120D01*
X011479Y001119D02*
X014115Y001119D01*
X014115Y001118D02*
X011478Y001118D01*
X011477Y001117D02*
X014115Y001117D01*
X014115Y001116D02*
X011476Y001116D01*
X011475Y001115D02*
X014115Y001115D01*
X014115Y001114D02*
X011474Y001114D01*
X011473Y001113D02*
X014115Y001113D01*
X014115Y001112D02*
X011472Y001112D01*
X011471Y001111D02*
X014115Y001111D01*
X014115Y001110D02*
X011470Y001110D01*
X011469Y001109D02*
X014115Y001109D01*
X014115Y001108D02*
X011468Y001108D01*
X011467Y001107D02*
X014115Y001107D01*
X014115Y001106D02*
X011466Y001106D01*
X011465Y001105D02*
X014115Y001105D01*
X014115Y001104D02*
X011464Y001104D01*
X011463Y001103D02*
X014115Y001103D01*
X014115Y001102D02*
X011462Y001102D01*
X011461Y001101D02*
X014115Y001101D01*
X014115Y001100D02*
X011460Y001100D01*
X011459Y001099D02*
X014115Y001099D01*
X014115Y001098D02*
X011458Y001098D01*
X011457Y001097D02*
X014115Y001097D01*
X014115Y001096D02*
X011456Y001096D01*
X011455Y001095D02*
X014115Y001095D01*
X014115Y001094D02*
X011454Y001094D01*
X011453Y001093D02*
X014115Y001093D01*
X014115Y001092D02*
X011452Y001092D01*
X011451Y001091D02*
X014115Y001091D01*
X014115Y001090D02*
X011450Y001090D01*
X011449Y001089D02*
X014115Y001089D01*
X014115Y001088D02*
X011448Y001088D01*
X011447Y001087D02*
X014115Y001087D01*
X014115Y001086D02*
X011446Y001086D01*
X011445Y001085D02*
X014115Y001085D01*
X014115Y001084D02*
X011444Y001084D01*
X011443Y001083D02*
X014115Y001083D01*
X014115Y001082D02*
X011442Y001082D01*
X011441Y001081D02*
X014115Y001081D01*
X014115Y001080D02*
X011440Y001080D01*
X011440Y001079D02*
X014115Y001079D01*
X014115Y001078D02*
X011440Y001078D01*
X011440Y001077D02*
X014115Y001077D01*
X014115Y001076D02*
X011440Y001076D01*
X011440Y001075D02*
X014115Y001075D01*
X014115Y001074D02*
X011440Y001074D01*
X011440Y001073D02*
X014115Y001073D01*
X014115Y001072D02*
X011440Y001072D01*
X011440Y001071D02*
X014115Y001071D01*
X014115Y001070D02*
X011440Y001070D01*
X011440Y001069D02*
X014115Y001069D01*
X014115Y001068D02*
X011440Y001068D01*
X011440Y001067D02*
X014115Y001067D01*
X014115Y001066D02*
X011440Y001066D01*
X011440Y001065D02*
X014115Y001065D01*
X014115Y001064D02*
X011440Y001064D01*
X011440Y001063D02*
X014115Y001063D01*
X014115Y001062D02*
X011440Y001062D01*
X011440Y001061D02*
X014115Y001061D01*
X014115Y001060D02*
X011440Y001060D01*
X011440Y001059D02*
X014115Y001059D01*
X014115Y001058D02*
X011440Y001058D01*
X011440Y001057D02*
X014115Y001057D01*
X014115Y001056D02*
X011440Y001056D01*
X011440Y001055D02*
X014115Y001055D01*
X014115Y001054D02*
X011440Y001054D01*
X011440Y001053D02*
X014115Y001053D01*
X014115Y001052D02*
X011440Y001052D01*
X011440Y001051D02*
X014115Y001051D01*
X014115Y001050D02*
X011440Y001050D01*
X011440Y001049D02*
X014115Y001049D01*
X014115Y001048D02*
X011440Y001048D01*
X011440Y001047D02*
X014115Y001047D01*
X014115Y001046D02*
X011440Y001046D01*
X011440Y001045D02*
X014115Y001045D01*
X014115Y001044D02*
X011440Y001044D01*
X011440Y001043D02*
X014115Y001043D01*
X014115Y001042D02*
X011440Y001042D01*
X011440Y001041D02*
X014115Y001041D01*
X014115Y001040D02*
X011440Y001040D01*
X011440Y001039D02*
X014115Y001039D01*
X014115Y001038D02*
X011440Y001038D01*
X011440Y001037D02*
X014115Y001037D01*
X014115Y001036D02*
X011440Y001036D01*
X011440Y001035D02*
X014115Y001035D01*
X014115Y001034D02*
X011440Y001034D01*
X011440Y001033D02*
X014115Y001033D01*
X014115Y001032D02*
X011440Y001032D01*
X011440Y001031D02*
X014115Y001031D01*
X014115Y001030D02*
X011440Y001030D01*
X011440Y001029D02*
X014115Y001029D01*
X014115Y001028D02*
X011440Y001028D01*
X011440Y001027D02*
X014115Y001027D01*
X014115Y001026D02*
X011440Y001026D01*
X011440Y001025D02*
X014115Y001025D01*
X014115Y001024D02*
X011440Y001024D01*
X011440Y001023D02*
X014115Y001023D01*
X014115Y001022D02*
X011440Y001022D01*
X011440Y001021D02*
X014115Y001021D01*
X014115Y001020D02*
X011440Y001020D01*
X011440Y001019D02*
X014115Y001019D01*
X014115Y001018D02*
X011440Y001018D01*
X011440Y001017D02*
X014115Y001017D01*
X014115Y001016D02*
X011440Y001016D01*
X011440Y001015D02*
X014115Y001015D01*
X014115Y001014D02*
X011440Y001014D01*
X011440Y001013D02*
X014115Y001013D01*
X014115Y001012D02*
X011440Y001012D01*
X011440Y001011D02*
X014115Y001011D01*
X014115Y001010D02*
X011440Y001010D01*
X011440Y001009D02*
X014115Y001009D01*
X014115Y001008D02*
X011440Y001008D01*
X011440Y001007D02*
X014115Y001007D01*
X014115Y001006D02*
X011440Y001006D01*
X011440Y001005D02*
X014115Y001005D01*
X014115Y001004D02*
X011440Y001004D01*
X011440Y001003D02*
X014115Y001003D01*
X014115Y001002D02*
X011440Y001002D01*
X011440Y001001D02*
X014115Y001001D01*
X014115Y001000D02*
X011440Y001000D01*
X011440Y000999D02*
X014115Y000999D01*
X014115Y000998D02*
X011440Y000998D01*
X011440Y000997D02*
X014115Y000997D01*
X014115Y000996D02*
X011440Y000996D01*
X011440Y000995D02*
X014115Y000995D01*
X014115Y000994D02*
X011440Y000994D01*
X011440Y000993D02*
X014115Y000993D01*
X014115Y000992D02*
X011440Y000992D01*
X011440Y000991D02*
X014115Y000991D01*
X014115Y000990D02*
X011440Y000990D01*
X011440Y000989D02*
X014115Y000989D01*
X014115Y000988D02*
X011440Y000988D01*
X011440Y000987D02*
X014115Y000987D01*
X014115Y000986D02*
X011440Y000986D01*
X011440Y000985D02*
X014115Y000985D01*
X014115Y000984D02*
X011440Y000984D01*
X011440Y000983D02*
X014115Y000983D01*
X014115Y000982D02*
X011440Y000982D01*
X011440Y000981D02*
X014115Y000981D01*
X014115Y000980D02*
X011440Y000980D01*
X011440Y000979D02*
X014115Y000979D01*
X014115Y000978D02*
X011440Y000978D01*
X011440Y000977D02*
X014115Y000977D01*
X014115Y000976D02*
X011440Y000976D01*
X011440Y000975D02*
X014115Y000975D01*
X014115Y000974D02*
X011440Y000974D01*
X011440Y000973D02*
X014115Y000973D01*
X014115Y000972D02*
X011440Y000972D01*
X011440Y000971D02*
X014115Y000971D01*
X014115Y000970D02*
X011440Y000970D01*
X011440Y000969D02*
X014115Y000969D01*
X014115Y000968D02*
X011440Y000968D01*
X011440Y000967D02*
X014115Y000967D01*
X014115Y000966D02*
X011440Y000966D01*
X011440Y000965D02*
X014115Y000965D01*
X014115Y000964D02*
X011440Y000964D01*
X011440Y000963D02*
X014115Y000963D01*
X014115Y000962D02*
X011440Y000962D01*
X011440Y000961D02*
X014115Y000961D01*
X014115Y000960D02*
X011440Y000960D01*
X011440Y000959D02*
X014115Y000959D01*
X014115Y000958D02*
X011440Y000958D01*
X011440Y000957D02*
X014115Y000957D01*
X014115Y000956D02*
X011440Y000956D01*
X011440Y000955D02*
X014115Y000955D01*
X014115Y000954D02*
X011440Y000954D01*
X011440Y000953D02*
X014115Y000953D01*
X014115Y000952D02*
X011440Y000952D01*
X011440Y000951D02*
X014115Y000951D01*
X014115Y000950D02*
X011440Y000950D01*
X011440Y000949D02*
X014115Y000949D01*
X014115Y000948D02*
X011440Y000948D01*
X011440Y000947D02*
X014115Y000947D01*
X014115Y000946D02*
X011440Y000946D01*
X011440Y000945D02*
X014115Y000945D01*
X014115Y000944D02*
X011440Y000944D01*
X011440Y000943D02*
X014115Y000943D01*
X014115Y000942D02*
X011440Y000942D01*
X011440Y000941D02*
X014115Y000941D01*
X014115Y000940D02*
X011440Y000940D01*
X011440Y000939D02*
X014115Y000939D01*
X014115Y000938D02*
X011440Y000938D01*
X011440Y000937D02*
X014115Y000937D01*
X014115Y000936D02*
X011440Y000936D01*
X011440Y000935D02*
X014115Y000935D01*
X014115Y000934D02*
X011440Y000934D01*
X011440Y000933D02*
X014115Y000933D01*
X014115Y000932D02*
X011440Y000932D01*
X011440Y000931D02*
X014115Y000931D01*
X014115Y000930D02*
X011440Y000930D01*
X011440Y000929D02*
X014115Y000929D01*
X014115Y000928D02*
X011440Y000928D01*
X011440Y000927D02*
X014115Y000927D01*
X014115Y000926D02*
X011440Y000926D01*
X011440Y000925D02*
X014115Y000925D01*
X014115Y000924D02*
X011440Y000924D01*
X011440Y000923D02*
X014115Y000923D01*
X014115Y000922D02*
X011440Y000922D01*
X011440Y000921D02*
X014115Y000921D01*
X014115Y000920D02*
X011440Y000920D01*
X011440Y000919D02*
X014115Y000919D01*
X014115Y000918D02*
X011440Y000918D01*
X011440Y000917D02*
X014115Y000917D01*
X014115Y000916D02*
X011440Y000916D01*
X011440Y000915D02*
X014115Y000915D01*
X014115Y000914D02*
X011440Y000914D01*
X011440Y000913D02*
X014115Y000913D01*
X014115Y000912D02*
X011440Y000912D01*
X011440Y000911D02*
X014115Y000911D01*
X014115Y000910D02*
X011440Y000910D01*
X011440Y000909D02*
X014115Y000909D01*
X014115Y000908D02*
X011440Y000908D01*
X011440Y000907D02*
X014115Y000907D01*
X014115Y000906D02*
X011440Y000906D01*
X011440Y000905D02*
X014115Y000905D01*
X014115Y000904D02*
X011440Y000904D01*
X011440Y000903D02*
X014115Y000903D01*
X014115Y000902D02*
X011440Y000902D01*
X011440Y000901D02*
X014115Y000901D01*
X014115Y000900D02*
X011440Y000900D01*
X011440Y000899D02*
X014115Y000899D01*
X014115Y000898D02*
X011440Y000898D01*
X011440Y000897D02*
X014115Y000897D01*
X014115Y000896D02*
X011440Y000896D01*
X011440Y000895D02*
X014115Y000895D01*
X014115Y000894D02*
X011440Y000894D01*
X011440Y000893D02*
X014115Y000893D01*
X014115Y000892D02*
X011440Y000892D01*
X011440Y000891D02*
X014115Y000891D01*
X014115Y000890D02*
X011440Y000890D01*
X011440Y000889D02*
X014115Y000889D01*
X014115Y000888D02*
X011440Y000888D01*
X011440Y000887D02*
X014115Y000887D01*
X014115Y000886D02*
X011440Y000886D01*
X011440Y000885D02*
X014115Y000885D01*
X014115Y000884D02*
X011440Y000884D01*
X011440Y000883D02*
X014115Y000883D01*
X014115Y000882D02*
X011440Y000882D01*
X011440Y000881D02*
X014115Y000881D01*
X014115Y000880D02*
X011440Y000880D01*
X011440Y000879D02*
X014115Y000879D01*
X014115Y000878D02*
X011440Y000878D01*
X011440Y000877D02*
X014115Y000877D01*
X014115Y000876D02*
X011440Y000876D01*
X011440Y000875D02*
X014115Y000875D01*
X014115Y000874D02*
X011440Y000874D01*
X011440Y000873D02*
X014115Y000873D01*
X014115Y000872D02*
X011440Y000872D01*
X011440Y000871D02*
X014115Y000871D01*
X014115Y000870D02*
X011440Y000870D01*
X011440Y000869D02*
X014115Y000869D01*
X014115Y000868D02*
X011440Y000868D01*
X011440Y000867D02*
X014115Y000867D01*
X014115Y000866D02*
X011440Y000866D01*
X011440Y000865D02*
X014115Y000865D01*
X014115Y000864D02*
X011440Y000864D01*
X011440Y000863D02*
X014115Y000863D01*
X014115Y000862D02*
X011440Y000862D01*
X011440Y000861D02*
X014115Y000861D01*
X014115Y000860D02*
X011440Y000860D01*
X011440Y000859D02*
X014115Y000859D01*
X014115Y000858D02*
X011440Y000858D01*
X011440Y000857D02*
X014115Y000857D01*
X014115Y000856D02*
X011440Y000856D01*
X011440Y000855D02*
X014115Y000855D01*
X014115Y000854D02*
X011440Y000854D01*
X011440Y000853D02*
X014115Y000853D01*
X014115Y000852D02*
X011440Y000852D01*
X011440Y000851D02*
X014115Y000851D01*
X014115Y000850D02*
X011440Y000850D01*
X011440Y000849D02*
X014115Y000849D01*
X014115Y000848D02*
X011440Y000848D01*
X011440Y000847D02*
X014115Y000847D01*
X014115Y000846D02*
X011440Y000846D01*
X011440Y000845D02*
X014115Y000845D01*
X014115Y000844D02*
X011440Y000844D01*
X011440Y000843D02*
X014115Y000843D01*
X014115Y000842D02*
X011440Y000842D01*
X011440Y000841D02*
X014115Y000841D01*
X014115Y000840D02*
X011440Y000840D01*
X011440Y000839D02*
X014115Y000839D01*
X014115Y000838D02*
X011440Y000838D01*
X011440Y000837D02*
X014115Y000837D01*
X014115Y000836D02*
X011440Y000836D01*
X011440Y000835D02*
X014115Y000835D01*
X014115Y000834D02*
X011440Y000834D01*
X011440Y000833D02*
X014115Y000833D01*
X014115Y000832D02*
X011440Y000832D01*
X011440Y000831D02*
X014115Y000831D01*
X014115Y000830D02*
X011440Y000830D01*
X011440Y000829D02*
X014115Y000829D01*
X014115Y000828D02*
X011440Y000828D01*
X011440Y000827D02*
X014115Y000827D01*
X014115Y000826D02*
X011440Y000826D01*
X011440Y000825D02*
X014115Y000825D01*
X014115Y000824D02*
X011440Y000824D01*
X011440Y000823D02*
X014115Y000823D01*
X014115Y000822D02*
X011440Y000822D01*
X011440Y000821D02*
X014115Y000821D01*
X014115Y000820D02*
X011440Y000820D01*
X011440Y000819D02*
X014115Y000819D01*
X014115Y000818D02*
X011440Y000818D01*
X011440Y000817D02*
X014115Y000817D01*
X014115Y000816D02*
X011440Y000816D01*
X011440Y000815D02*
X014115Y000815D01*
X014115Y000814D02*
X011440Y000814D01*
X011440Y000813D02*
X014115Y000813D01*
X014115Y000812D02*
X011440Y000812D01*
X011440Y000811D02*
X014115Y000811D01*
X014115Y000810D02*
X011440Y000810D01*
X011440Y000809D02*
X014115Y000809D01*
X014115Y000808D02*
X011440Y000808D01*
X011440Y000807D02*
X014115Y000807D01*
X014115Y000806D02*
X011440Y000806D01*
X011440Y000805D02*
X014115Y000805D01*
X014115Y000804D02*
X011440Y000804D01*
X011440Y000803D02*
X014115Y000803D01*
X014115Y000802D02*
X011440Y000802D01*
X011440Y000801D02*
X014115Y000801D01*
X014115Y000800D02*
X011440Y000800D01*
X011440Y000799D02*
X014115Y000799D01*
X014115Y000798D02*
X011440Y000798D01*
X011440Y000797D02*
X014115Y000797D01*
X014115Y000796D02*
X011440Y000796D01*
X011440Y000795D02*
X014115Y000795D01*
X014115Y000794D02*
X011440Y000794D01*
X011440Y000793D02*
X014115Y000793D01*
X014115Y000792D02*
X011440Y000792D01*
X011440Y000791D02*
X014115Y000791D01*
X014115Y000790D02*
X011440Y000790D01*
X011440Y000789D02*
X014115Y000789D01*
X014115Y000788D02*
X011440Y000788D01*
X011440Y000787D02*
X014115Y000787D01*
X014115Y000786D02*
X011440Y000786D01*
X011440Y000785D02*
X014115Y000785D01*
X014115Y000784D02*
X011440Y000784D01*
X011440Y000783D02*
X014115Y000783D01*
X014115Y000782D02*
X011440Y000782D01*
X011440Y000781D02*
X014115Y000781D01*
X014115Y000780D02*
X011440Y000780D01*
X011440Y000779D02*
X014115Y000779D01*
X014115Y000778D02*
X011440Y000778D01*
X011440Y000777D02*
X014115Y000777D01*
X014115Y000776D02*
X011440Y000776D01*
X011440Y000775D02*
X014115Y000775D01*
X014115Y000774D02*
X011440Y000774D01*
X011440Y000773D02*
X014115Y000773D01*
X014115Y000772D02*
X011440Y000772D01*
X011440Y000771D02*
X014115Y000771D01*
X014115Y000770D02*
X011440Y000770D01*
X011440Y000769D02*
X014115Y000769D01*
X014115Y000768D02*
X011440Y000768D01*
X011440Y000767D02*
X014115Y000767D01*
X014115Y000766D02*
X011440Y000766D01*
X011440Y000765D02*
X014115Y000765D01*
X014115Y000764D02*
X011440Y000764D01*
X011440Y000763D02*
X014115Y000763D01*
X014115Y000762D02*
X011440Y000762D01*
X011440Y000761D02*
X014115Y000761D01*
X014115Y000760D02*
X011440Y000760D01*
X011440Y000759D02*
X014115Y000759D01*
X014115Y000758D02*
X011440Y000758D01*
X011440Y000757D02*
X014115Y000757D01*
X014115Y000756D02*
X011440Y000756D01*
X011440Y000755D02*
X014115Y000755D01*
X014115Y000754D02*
X011440Y000754D01*
X011440Y000753D02*
X014115Y000753D01*
X014115Y000752D02*
X011440Y000752D01*
X011440Y000751D02*
X014115Y000751D01*
X014115Y000750D02*
X011440Y000750D01*
X011440Y000749D02*
X014115Y000749D01*
X014115Y000748D02*
X011440Y000748D01*
X011440Y000747D02*
X014115Y000747D01*
X014115Y000746D02*
X011440Y000746D01*
X011440Y000745D02*
X014115Y000745D01*
X014115Y000744D02*
X011440Y000744D01*
X011440Y000743D02*
X014115Y000743D01*
X014115Y000742D02*
X011440Y000742D01*
X011440Y000741D02*
X014115Y000741D01*
X014115Y000740D02*
X011440Y000740D01*
X011440Y000739D02*
X014115Y000739D01*
X014115Y000738D02*
X011440Y000738D01*
X011440Y000737D02*
X014115Y000737D01*
X014115Y000736D02*
X011440Y000736D01*
X011440Y000735D02*
X014115Y000735D01*
X014115Y000734D02*
X011440Y000734D01*
X011440Y000733D02*
X014115Y000733D01*
X014115Y000732D02*
X011440Y000732D01*
X011440Y000731D02*
X014115Y000731D01*
X014115Y000730D02*
X011440Y000730D01*
X011440Y000729D02*
X014115Y000729D01*
X014115Y000728D02*
X011440Y000728D01*
X011440Y000727D02*
X014115Y000727D01*
X014115Y000726D02*
X011440Y000726D01*
X011440Y000725D02*
X014115Y000725D01*
X014115Y000724D02*
X011440Y000724D01*
X011440Y000723D02*
X014115Y000723D01*
X014115Y000722D02*
X011440Y000722D01*
X011440Y000721D02*
X014115Y000721D01*
X014115Y000720D02*
X011440Y000720D01*
X011440Y000719D02*
X014115Y000719D01*
X014115Y000718D02*
X011440Y000718D01*
X011440Y000717D02*
X014115Y000717D01*
X014115Y000716D02*
X011440Y000716D01*
X011440Y000715D02*
X014115Y000715D01*
X014115Y000714D02*
X011440Y000714D01*
X011440Y000713D02*
X014115Y000713D01*
X011440Y000713D01*
X011440Y000712D02*
X014115Y000712D01*
X014115Y000711D02*
X011440Y000711D01*
X011440Y000710D02*
X014115Y000710D01*
X014115Y000709D02*
X011440Y000709D01*
X011440Y000708D02*
X014115Y000708D01*
X014115Y000707D02*
X011440Y000707D01*
X011440Y000706D02*
X014115Y000706D01*
X014115Y000705D02*
X011440Y000705D01*
X011440Y000704D02*
X014115Y000704D01*
X014115Y000703D02*
X011440Y000703D01*
X011440Y000702D02*
X014115Y000702D01*
X014115Y000701D02*
X011440Y000701D01*
X011440Y000700D02*
X014115Y000700D01*
X014115Y000699D02*
X011440Y000699D01*
X011440Y000698D02*
X014115Y000698D01*
X014115Y000697D02*
X011440Y000697D01*
X011440Y000696D02*
X014115Y000696D01*
X014115Y000695D02*
X011440Y000695D01*
X011440Y000694D02*
X014115Y000694D01*
X014115Y000693D02*
X011440Y000693D01*
X011440Y000692D02*
X014115Y000692D01*
X014115Y000691D02*
X011440Y000691D01*
X011440Y000690D02*
X014115Y000690D01*
X014115Y000689D02*
X011440Y000689D01*
X011440Y000688D02*
X014115Y000688D01*
X014115Y000687D02*
X011440Y000687D01*
X011440Y000686D02*
X014115Y000686D01*
X014115Y000685D02*
X011440Y000685D01*
X011440Y000684D02*
X014115Y000684D01*
X014115Y000683D02*
X011440Y000683D01*
X011440Y000682D02*
X014115Y000682D01*
X014115Y000681D02*
X011440Y000681D01*
X011440Y000680D02*
X014115Y000680D01*
X014115Y000679D02*
X011440Y000679D01*
X011440Y000678D02*
X014115Y000678D01*
X014115Y000677D02*
X011440Y000677D01*
X011440Y000676D02*
X014115Y000676D01*
X014115Y000675D02*
X011440Y000675D01*
X011440Y000674D02*
X014115Y000674D01*
X014115Y000673D02*
X011440Y000673D01*
X011440Y000672D02*
X014115Y000672D01*
X014115Y000671D02*
X011440Y000671D01*
X011440Y000670D02*
X014115Y000670D01*
X014115Y000669D02*
X011440Y000669D01*
X011440Y000668D02*
X014115Y000668D01*
X014115Y000667D02*
X011440Y000667D01*
X011440Y000666D02*
X014115Y000666D01*
X014115Y000665D02*
X011440Y000665D01*
X011440Y000664D02*
X014115Y000664D01*
X014115Y000663D02*
X011440Y000663D01*
X011440Y000662D02*
X014115Y000662D01*
X014115Y000661D02*
X011440Y000661D01*
X011440Y000660D02*
X014115Y000660D01*
X014115Y000659D02*
X011440Y000659D01*
X011440Y000658D02*
X014115Y000658D01*
X014115Y000657D02*
X011440Y000657D01*
X011440Y000656D02*
X014115Y000656D01*
X014115Y000655D02*
X011440Y000655D01*
X011440Y000654D02*
X014115Y000654D01*
X014115Y000653D02*
X011440Y000653D01*
X011440Y000652D02*
X014115Y000652D01*
X014115Y000651D02*
X011440Y000651D01*
X011440Y000650D02*
X014115Y000650D01*
X014115Y000649D02*
X011440Y000649D01*
X011440Y000648D02*
X014115Y000648D01*
X014115Y000647D02*
X011440Y000647D01*
X011440Y000646D02*
X014115Y000646D01*
X014115Y000645D02*
X011440Y000645D01*
X011440Y000644D02*
X014115Y000644D01*
X014115Y000643D02*
X011440Y000643D01*
X011440Y000642D02*
X014115Y000642D01*
X014115Y000641D02*
X011440Y000641D01*
X011440Y000640D02*
X014115Y000640D01*
X014115Y000639D02*
X011440Y000639D01*
X011440Y000638D02*
X014115Y000638D01*
X014115Y000637D02*
X011440Y000637D01*
X011440Y000636D02*
X014115Y000636D01*
X014115Y000635D02*
X011440Y000635D01*
X011440Y000634D02*
X014115Y000634D01*
X014115Y000633D02*
X011440Y000633D01*
X011440Y000632D02*
X014115Y000632D01*
X014115Y000631D02*
X011440Y000631D01*
X011440Y000630D02*
X014115Y000630D01*
X014115Y000629D02*
X011440Y000629D01*
X011440Y000628D02*
X014115Y000628D01*
X014115Y000627D02*
X011440Y000627D01*
X011440Y000626D02*
X014115Y000626D01*
X014115Y000625D02*
X011440Y000625D01*
X011440Y000624D02*
X014115Y000624D01*
X014115Y000623D02*
X011440Y000623D01*
X011440Y000622D02*
X014115Y000622D01*
X014115Y000621D02*
X011440Y000621D01*
X011440Y000620D02*
X014115Y000620D01*
X014115Y000619D02*
X011440Y000619D01*
X011440Y000618D02*
X014115Y000618D01*
X014115Y000617D02*
X011440Y000617D01*
X011440Y000616D02*
X014115Y000616D01*
X014115Y000615D02*
X011440Y000615D01*
X011440Y000614D02*
X014115Y000614D01*
X014115Y000613D02*
X011440Y000613D01*
X011440Y000612D02*
X014115Y000612D01*
X014115Y000611D02*
X011440Y000611D01*
X011440Y000610D02*
X014115Y000610D01*
X014115Y000609D02*
X011440Y000609D01*
X011440Y000608D02*
X014115Y000608D01*
X014115Y000607D02*
X011440Y000607D01*
X011440Y000606D02*
X014115Y000606D01*
X014115Y000605D02*
X011440Y000605D01*
X011440Y000604D02*
X014115Y000604D01*
X014115Y000603D02*
X011440Y000603D01*
X011440Y000602D02*
X014115Y000602D01*
X014115Y000601D02*
X011440Y000601D01*
X011440Y000600D02*
X014115Y000600D01*
X014115Y000599D02*
X011440Y000599D01*
X011440Y000598D02*
X014115Y000598D01*
X014115Y000597D02*
X011440Y000597D01*
X011440Y000596D02*
X014115Y000596D01*
X014115Y000595D02*
X011440Y000595D01*
X011440Y000594D02*
X014115Y000594D01*
X014115Y000593D02*
X011440Y000593D01*
X011440Y000592D02*
X014115Y000592D01*
X014115Y000591D02*
X011440Y000591D01*
X011440Y000590D02*
X014115Y000590D01*
X014115Y000589D02*
X011440Y000589D01*
X011440Y000588D02*
X014115Y000588D01*
X014115Y000587D02*
X011440Y000587D01*
X011440Y000586D02*
X014115Y000586D01*
X014115Y000585D02*
X011440Y000585D01*
X011440Y000584D02*
X014115Y000584D01*
X014115Y000583D02*
X011440Y000583D01*
X011440Y000582D02*
X014115Y000582D01*
X014115Y000581D02*
X011440Y000581D01*
X011440Y000580D02*
X014115Y000580D01*
X014115Y000579D02*
X011440Y000579D01*
X011440Y000578D02*
X014115Y000578D01*
X014115Y000577D02*
X011440Y000577D01*
X011440Y000576D02*
X014115Y000576D01*
X014115Y000575D02*
X011440Y000575D01*
X011440Y000574D02*
X014115Y000574D01*
X014115Y000573D02*
X011440Y000573D01*
X011440Y000572D02*
X014115Y000572D01*
X014115Y000571D02*
X011440Y000571D01*
X011440Y000570D02*
X014115Y000570D01*
X014115Y000569D02*
X011440Y000569D01*
X011440Y000568D02*
X014115Y000568D01*
X014115Y000567D02*
X011440Y000567D01*
X011440Y000566D02*
X014115Y000566D01*
X014115Y000565D02*
X011440Y000565D01*
X011440Y000564D02*
X014115Y000564D01*
X014115Y000563D02*
X011440Y000563D01*
X011440Y000562D02*
X014115Y000562D01*
X014115Y000561D02*
X011440Y000561D01*
X011440Y000560D02*
X014115Y000560D01*
X014115Y000559D02*
X011440Y000559D01*
X011440Y000558D02*
X014115Y000558D01*
X014115Y000557D02*
X011440Y000557D01*
X011440Y000556D02*
X014115Y000556D01*
X014115Y000555D02*
X011440Y000555D01*
X011440Y000554D02*
X014115Y000554D01*
X014115Y000553D02*
X011440Y000553D01*
X011440Y000552D02*
X014115Y000552D01*
X014115Y000551D02*
X011440Y000551D01*
X011440Y000550D02*
X014115Y000550D01*
X014115Y000549D02*
X011440Y000549D01*
X011440Y000548D02*
X014115Y000548D01*
X014115Y000547D02*
X011440Y000547D01*
X011440Y000546D02*
X014115Y000546D01*
X014115Y000545D02*
X011440Y000545D01*
X011440Y000544D02*
X014115Y000544D01*
X014115Y000543D02*
X011440Y000543D01*
X011440Y000542D02*
X014115Y000542D01*
X014115Y000541D02*
X011440Y000541D01*
X011440Y000540D02*
X014115Y000540D01*
X014115Y000539D02*
X011440Y000539D01*
X011440Y000538D02*
X014115Y000538D01*
X014115Y000537D02*
X011440Y000537D01*
X011440Y000536D02*
X014115Y000536D01*
X014115Y000535D02*
X011440Y000535D01*
X011440Y000534D02*
X014115Y000534D01*
X014115Y000533D02*
X011440Y000533D01*
X011440Y000532D02*
X014115Y000532D01*
X014115Y000531D02*
X011440Y000531D01*
X011440Y000530D02*
X014115Y000530D01*
X014115Y000529D02*
X011440Y000529D01*
X011440Y000528D02*
X014115Y000528D01*
X014115Y000527D02*
X011440Y000527D01*
X011440Y000526D02*
X014115Y000526D01*
X014115Y000525D02*
X011440Y000525D01*
X011440Y000524D02*
X014115Y000524D01*
X014115Y000523D02*
X011440Y000523D01*
X011440Y000522D02*
X014115Y000522D01*
X014115Y000521D02*
X011440Y000521D01*
X011440Y000520D02*
X014115Y000520D01*
X014115Y000519D02*
X011440Y000519D01*
X011440Y000518D02*
X014115Y000518D01*
X014115Y000517D02*
X011440Y000517D01*
X011440Y000516D02*
X014115Y000516D01*
X014115Y000515D02*
X011440Y000515D01*
X011440Y000514D02*
X014115Y000514D01*
X014115Y000513D02*
X011440Y000513D01*
X011440Y000512D02*
X014115Y000512D01*
X014115Y000511D02*
X011440Y000511D01*
X011440Y000510D02*
X014115Y000510D01*
X014115Y000509D02*
X011440Y000509D01*
X011440Y000508D02*
X014115Y000508D01*
X014115Y000507D02*
X011440Y000507D01*
X011440Y000506D02*
X014115Y000506D01*
X014115Y000505D02*
X011440Y000505D01*
X011440Y000504D02*
X014115Y000504D01*
X014115Y000503D02*
X011440Y000503D01*
X011440Y000502D02*
X014115Y000502D01*
X014115Y000501D02*
X011440Y000501D01*
X011440Y000500D02*
X014115Y000500D01*
X014115Y000499D02*
X011440Y000499D01*
X011440Y000498D02*
X014115Y000498D01*
X014115Y000497D02*
X011440Y000497D01*
X011440Y000496D02*
X014115Y000496D01*
X014115Y000495D02*
X011440Y000495D01*
X011440Y000494D02*
X014115Y000494D01*
X014115Y000493D02*
X011440Y000493D01*
X011440Y000492D02*
X014115Y000492D01*
X014115Y000491D02*
X011440Y000491D01*
X011440Y000490D02*
X014115Y000490D01*
X014115Y000489D02*
X011440Y000489D01*
X011440Y000488D02*
X014115Y000488D01*
X014115Y000487D02*
X011440Y000487D01*
X011440Y000486D02*
X014115Y000486D01*
X014115Y000485D02*
X011440Y000485D01*
X011440Y000484D02*
X014115Y000484D01*
X014115Y000483D02*
X011440Y000483D01*
X011440Y000482D02*
X014115Y000482D01*
X014115Y000481D02*
X011440Y000481D01*
X011440Y000480D02*
X014115Y000480D01*
X014115Y000479D02*
X011440Y000479D01*
X011440Y000478D02*
X014115Y000478D01*
X014115Y000477D02*
X011440Y000477D01*
X011440Y000476D02*
X014115Y000476D01*
X014115Y000475D02*
X011440Y000475D01*
X011440Y000474D02*
X014115Y000474D01*
X014115Y000473D02*
X011440Y000473D01*
X011440Y000472D02*
X014115Y000472D01*
X014115Y000471D02*
X011440Y000471D01*
X011440Y000470D02*
X014115Y000470D01*
X014115Y000469D02*
X011440Y000469D01*
X011440Y000468D02*
X014115Y000468D01*
X014115Y000467D02*
X011440Y000467D01*
X011440Y000466D02*
X014115Y000466D01*
X014115Y000465D02*
X011440Y000465D01*
X011440Y000464D02*
X014115Y000464D01*
X014115Y000463D02*
X011440Y000463D01*
X011440Y000462D02*
X014115Y000462D01*
X014115Y000461D02*
X011440Y000461D01*
X011440Y000460D02*
X014115Y000460D01*
X014115Y000459D02*
X011440Y000459D01*
X011440Y000458D02*
X014115Y000458D01*
X014115Y000457D02*
X011440Y000457D01*
X011440Y000456D02*
X014115Y000456D01*
X014115Y000455D02*
X011440Y000455D01*
X011440Y000454D02*
X014115Y000454D01*
X014115Y000453D02*
X011440Y000453D01*
X011440Y000452D02*
X014115Y000452D01*
X014115Y000451D02*
X011440Y000451D01*
X011440Y000450D02*
X014115Y000450D01*
X014115Y000449D02*
X011440Y000449D01*
X011440Y000448D02*
X014115Y000448D01*
X014115Y000447D02*
X011440Y000447D01*
X011440Y000446D02*
X014115Y000446D01*
X014115Y000445D02*
X011440Y000445D01*
X011440Y000444D02*
X014115Y000444D01*
X014115Y000443D02*
X011440Y000443D01*
X011440Y000442D02*
X014115Y000442D01*
X014115Y000441D02*
X011440Y000441D01*
X011440Y000440D02*
X014115Y000440D01*
X014115Y000439D02*
X011440Y000439D01*
X011440Y000438D02*
X014115Y000438D01*
X014115Y000437D02*
X011440Y000437D01*
X011440Y000436D02*
X014115Y000436D01*
X014115Y000435D02*
X011440Y000435D01*
X011440Y000434D02*
X014115Y000434D01*
X014115Y000433D02*
X011440Y000433D01*
X011440Y000432D02*
X014115Y000432D01*
X014115Y000431D02*
X011440Y000431D01*
X011440Y000430D02*
X014115Y000430D01*
X014115Y000429D02*
X011440Y000429D01*
X011440Y000428D02*
X014115Y000428D01*
X014115Y000427D02*
X011440Y000427D01*
X011440Y000426D02*
X014115Y000426D01*
X014115Y000425D02*
X011440Y000425D01*
X011440Y000424D02*
X014115Y000424D01*
X014115Y000423D02*
X011440Y000423D01*
X011440Y000422D02*
X014115Y000422D01*
X014115Y000421D02*
X011440Y000421D01*
X011440Y000420D02*
X014115Y000420D01*
X014115Y000419D02*
X011440Y000419D01*
X011440Y000418D02*
X014115Y000418D01*
X014115Y000417D02*
X011440Y000417D01*
X011440Y000416D02*
X014115Y000416D01*
X014115Y000415D02*
X011440Y000415D01*
X011440Y000414D02*
X014115Y000414D01*
X014115Y000413D02*
X011440Y000413D01*
X011440Y000412D02*
X014115Y000412D01*
X014115Y000411D02*
X011440Y000411D01*
X011440Y000410D02*
X014115Y000410D01*
X014115Y000409D02*
X011440Y000409D01*
X011440Y000408D02*
X014115Y000408D01*
X014115Y000407D02*
X011440Y000407D01*
X011440Y000406D02*
X014115Y000406D01*
X014115Y000405D02*
X011440Y000405D01*
X011440Y000404D02*
X014115Y000404D01*
X014115Y000403D02*
X011440Y000403D01*
X011440Y000402D02*
X014115Y000402D01*
X014115Y000401D02*
X011440Y000401D01*
X011440Y000400D02*
X014115Y000400D01*
X014115Y000399D02*
X011440Y000399D01*
X011440Y000398D02*
X014115Y000398D01*
X014115Y000397D02*
X011440Y000397D01*
X011440Y000396D02*
X014115Y000396D01*
X014115Y000395D02*
X011440Y000395D01*
X011440Y000394D02*
X014115Y000394D01*
X014115Y000393D02*
X011440Y000393D01*
X011440Y000392D02*
X014115Y000392D01*
X014115Y000391D02*
X011440Y000391D01*
X011440Y000390D02*
X014115Y000390D01*
X014115Y000389D02*
X011440Y000389D01*
X011440Y000388D02*
X014115Y000388D01*
X014115Y000387D02*
X011440Y000387D01*
X011440Y000386D02*
X014115Y000386D01*
X014115Y000385D02*
X011440Y000385D01*
X011440Y000384D02*
X014115Y000384D01*
X014115Y000383D02*
X011440Y000383D01*
X011440Y000382D02*
X014115Y000382D01*
X014115Y000381D02*
X011440Y000381D01*
X011440Y000380D02*
X014115Y000380D01*
X014115Y000379D02*
X011440Y000379D01*
X011440Y000378D02*
X014115Y000378D01*
X014115Y000377D02*
X011440Y000377D01*
X011440Y000376D02*
X014115Y000376D01*
X014115Y000375D02*
X011440Y000375D01*
X011440Y000374D02*
X014115Y000374D01*
X014115Y000373D02*
X011440Y000373D01*
X011440Y000372D02*
X014115Y000372D01*
X014115Y000371D02*
X011440Y000371D01*
X011440Y000370D02*
X014115Y000370D01*
X014115Y000369D02*
X011440Y000369D01*
X011440Y000368D02*
X014115Y000368D01*
X014115Y000367D02*
X011440Y000367D01*
X011440Y000366D02*
X014115Y000366D01*
X014115Y000365D02*
X011440Y000365D01*
X011440Y000364D02*
X014115Y000364D01*
X014115Y000363D02*
X011440Y000363D01*
X011440Y000362D02*
X014115Y000362D01*
X014115Y000361D02*
X011440Y000361D01*
X011440Y000360D02*
X014115Y000360D01*
X014115Y000359D02*
X011440Y000359D01*
X011440Y000358D02*
X014115Y000358D01*
X014115Y000357D02*
X011440Y000357D01*
X011440Y000356D02*
X014115Y000356D01*
D12*
X018265Y001955D03*
X018265Y005205D03*
X018265Y008455D03*
D13*
X018265Y008455D03*
X018265Y005205D03*
X018265Y001955D03*
D14*
X013799Y001057D03*
X013799Y002853D03*
X013799Y004307D03*
X013799Y006103D03*
X013799Y007557D03*
X013799Y009353D03*
D15*
X016515Y008455D03*
X016515Y005205D03*
X016515Y001955D03*
D16*
X011148Y001005D03*
X010321Y001379D03*
X010321Y000631D03*
X010321Y003881D03*
X011148Y004255D03*
X010321Y004629D03*
X010321Y007131D03*
X011148Y007505D03*
X010321Y007879D03*
D17*
X012180Y008180D03*
X012850Y008180D03*
X012850Y008930D03*
X012180Y008930D03*
X012180Y009680D03*
X012850Y009680D03*
X008525Y007055D03*
X007855Y007055D03*
X010630Y006505D03*
X011300Y006505D03*
X012180Y006430D03*
X012850Y006430D03*
X012850Y005680D03*
X012180Y005680D03*
X012180Y004930D03*
X012850Y004930D03*
X009775Y004480D03*
X009105Y004480D03*
X010630Y003255D03*
X011300Y003255D03*
X012180Y003180D03*
X012850Y003180D03*
X012850Y002430D03*
X012180Y002430D03*
X012180Y001680D03*
X012850Y001680D03*
X002875Y003505D03*
X002205Y003505D03*
D18*
X002290Y004680D03*
X001540Y004680D03*
X001540Y005350D03*
X002290Y005350D03*
X005285Y006020D03*
X006190Y006020D03*
X006190Y006690D03*
X005285Y006690D03*
X009765Y006845D03*
X009765Y007515D03*
X010040Y008370D03*
X010790Y008370D03*
X011540Y008370D03*
X011540Y009040D03*
X010790Y009040D03*
X010040Y009040D03*
X010040Y005790D03*
X010790Y005790D03*
X011540Y005790D03*
X011540Y005120D03*
X010790Y005120D03*
X010040Y005120D03*
X005640Y002840D03*
X004892Y002840D03*
X004892Y002170D03*
X005640Y002170D03*
X009440Y001340D03*
X010040Y001870D03*
X010790Y001870D03*
X011540Y001870D03*
X011540Y002540D03*
X010790Y002540D03*
X010040Y002540D03*
X009440Y000670D03*
D19*
X007640Y001555D03*
X007640Y008855D03*
D20*
X008490Y009705D03*
X001890Y009705D03*
D21*
X000640Y009705D03*
X008490Y000705D03*
D22*
X005719Y003561D02*
X005719Y003799D01*
X005719Y003561D02*
X005639Y003561D01*
X005639Y003799D01*
X005719Y003799D01*
X005719Y003639D02*
X005639Y003639D01*
X005639Y003717D02*
X005719Y003717D01*
X005719Y003795D02*
X005639Y003795D01*
X005522Y003799D02*
X005522Y003561D01*
X005442Y003561D01*
X005442Y003799D01*
X005522Y003799D01*
X005522Y003639D02*
X005442Y003639D01*
X005442Y003717D02*
X005522Y003717D01*
X005522Y003795D02*
X005442Y003795D01*
X005325Y003799D02*
X005325Y003561D01*
X005245Y003561D01*
X005245Y003799D01*
X005325Y003799D01*
X005325Y003639D02*
X005245Y003639D01*
X005245Y003717D02*
X005325Y003717D01*
X005325Y003795D02*
X005245Y003795D01*
X005128Y003799D02*
X005128Y003561D01*
X005048Y003561D01*
X005048Y003799D01*
X005128Y003799D01*
X005128Y003639D02*
X005048Y003639D01*
X005048Y003717D02*
X005128Y003717D01*
X005128Y003795D02*
X005048Y003795D01*
X004932Y003799D02*
X004932Y003561D01*
X004852Y003561D01*
X004852Y003799D01*
X004932Y003799D01*
X004932Y003639D02*
X004852Y003639D01*
X004852Y003717D02*
X004932Y003717D01*
X004932Y003795D02*
X004852Y003795D01*
X004735Y003799D02*
X004735Y003561D01*
X004655Y003561D01*
X004655Y003799D01*
X004735Y003799D01*
X004735Y003639D02*
X004655Y003639D01*
X004655Y003717D02*
X004735Y003717D01*
X004735Y003795D02*
X004655Y003795D01*
X004538Y003799D02*
X004538Y003561D01*
X004458Y003561D01*
X004458Y003799D01*
X004538Y003799D01*
X004538Y003639D02*
X004458Y003639D01*
X004458Y003717D02*
X004538Y003717D01*
X004538Y003795D02*
X004458Y003795D01*
X004341Y003799D02*
X004341Y003561D01*
X004261Y003561D01*
X004261Y003799D01*
X004341Y003799D01*
X004341Y003639D02*
X004261Y003639D01*
X004261Y003717D02*
X004341Y003717D01*
X004341Y003795D02*
X004261Y003795D01*
X004184Y003876D02*
X004184Y003956D01*
X004184Y003876D02*
X003946Y003876D01*
X003946Y003956D01*
X004184Y003956D01*
X004184Y003954D02*
X003946Y003954D01*
X004184Y004073D02*
X004184Y004153D01*
X004184Y004073D02*
X003946Y004073D01*
X003946Y004153D01*
X004184Y004153D01*
X004184Y004151D02*
X003946Y004151D01*
X004184Y004270D02*
X004184Y004350D01*
X004184Y004270D02*
X003946Y004270D01*
X003946Y004350D01*
X004184Y004350D01*
X004184Y004348D02*
X003946Y004348D01*
X004184Y004467D02*
X004184Y004547D01*
X004184Y004467D02*
X003946Y004467D01*
X003946Y004547D01*
X004184Y004547D01*
X004184Y004545D02*
X003946Y004545D01*
X004184Y004663D02*
X004184Y004743D01*
X004184Y004663D02*
X003946Y004663D01*
X003946Y004743D01*
X004184Y004743D01*
X004184Y004741D02*
X003946Y004741D01*
X004184Y004860D02*
X004184Y004940D01*
X004184Y004860D02*
X003946Y004860D01*
X003946Y004940D01*
X004184Y004940D01*
X004184Y004938D02*
X003946Y004938D01*
X004184Y005057D02*
X004184Y005137D01*
X004184Y005057D02*
X003946Y005057D01*
X003946Y005137D01*
X004184Y005137D01*
X004184Y005135D02*
X003946Y005135D01*
X004184Y005254D02*
X004184Y005334D01*
X004184Y005254D02*
X003946Y005254D01*
X003946Y005334D01*
X004184Y005334D01*
X004184Y005332D02*
X003946Y005332D01*
X004341Y005411D02*
X004341Y005649D01*
X004341Y005411D02*
X004261Y005411D01*
X004261Y005649D01*
X004341Y005649D01*
X004341Y005489D02*
X004261Y005489D01*
X004261Y005567D02*
X004341Y005567D01*
X004341Y005645D02*
X004261Y005645D01*
X004538Y005649D02*
X004538Y005411D01*
X004458Y005411D01*
X004458Y005649D01*
X004538Y005649D01*
X004538Y005489D02*
X004458Y005489D01*
X004458Y005567D02*
X004538Y005567D01*
X004538Y005645D02*
X004458Y005645D01*
X004735Y005649D02*
X004735Y005411D01*
X004655Y005411D01*
X004655Y005649D01*
X004735Y005649D01*
X004735Y005489D02*
X004655Y005489D01*
X004655Y005567D02*
X004735Y005567D01*
X004735Y005645D02*
X004655Y005645D01*
X004932Y005649D02*
X004932Y005411D01*
X004852Y005411D01*
X004852Y005649D01*
X004932Y005649D01*
X004932Y005489D02*
X004852Y005489D01*
X004852Y005567D02*
X004932Y005567D01*
X004932Y005645D02*
X004852Y005645D01*
X005128Y005649D02*
X005128Y005411D01*
X005048Y005411D01*
X005048Y005649D01*
X005128Y005649D01*
X005128Y005489D02*
X005048Y005489D01*
X005048Y005567D02*
X005128Y005567D01*
X005128Y005645D02*
X005048Y005645D01*
X005325Y005649D02*
X005325Y005411D01*
X005245Y005411D01*
X005245Y005649D01*
X005325Y005649D01*
X005325Y005489D02*
X005245Y005489D01*
X005245Y005567D02*
X005325Y005567D01*
X005325Y005645D02*
X005245Y005645D01*
X005522Y005649D02*
X005522Y005411D01*
X005442Y005411D01*
X005442Y005649D01*
X005522Y005649D01*
X005522Y005489D02*
X005442Y005489D01*
X005442Y005567D02*
X005522Y005567D01*
X005522Y005645D02*
X005442Y005645D01*
X005719Y005649D02*
X005719Y005411D01*
X005639Y005411D01*
X005639Y005649D01*
X005719Y005649D01*
X005719Y005489D02*
X005639Y005489D01*
X005639Y005567D02*
X005719Y005567D01*
X005719Y005645D02*
X005639Y005645D01*
X006034Y005334D02*
X006034Y005254D01*
X005796Y005254D01*
X005796Y005334D01*
X006034Y005334D01*
X006034Y005332D02*
X005796Y005332D01*
X006034Y005137D02*
X006034Y005057D01*
X005796Y005057D01*
X005796Y005137D01*
X006034Y005137D01*
X006034Y005135D02*
X005796Y005135D01*
X006034Y004940D02*
X006034Y004860D01*
X005796Y004860D01*
X005796Y004940D01*
X006034Y004940D01*
X006034Y004938D02*
X005796Y004938D01*
X006034Y004743D02*
X006034Y004663D01*
X005796Y004663D01*
X005796Y004743D01*
X006034Y004743D01*
X006034Y004741D02*
X005796Y004741D01*
X006034Y004547D02*
X006034Y004467D01*
X005796Y004467D01*
X005796Y004547D01*
X006034Y004547D01*
X006034Y004545D02*
X005796Y004545D01*
X006034Y004350D02*
X006034Y004270D01*
X005796Y004270D01*
X005796Y004350D01*
X006034Y004350D01*
X006034Y004348D02*
X005796Y004348D01*
X006034Y004153D02*
X006034Y004073D01*
X005796Y004073D01*
X005796Y004153D01*
X006034Y004153D01*
X006034Y004151D02*
X005796Y004151D01*
X006034Y003956D02*
X006034Y003876D01*
X005796Y003876D01*
X005796Y003956D01*
X006034Y003956D01*
X006034Y003954D02*
X005796Y003954D01*
D23*
X004990Y004605D03*
D24*
X003406Y002784D03*
X001674Y002784D03*
X001674Y000776D03*
X003406Y000776D03*
D25*
X005560Y007945D03*
X005560Y008855D03*
X005560Y009765D03*
D26*
X003120Y008855D03*
D27*
X001890Y008755D03*
X001890Y007455D03*
D28*
X004828Y001379D03*
X004828Y001005D03*
X004828Y000631D03*
X005852Y000631D03*
X005852Y001379D03*
D29*
X000640Y000705D03*
D30*
X000640Y001705D03*
X000640Y002705D03*
X000640Y003705D03*
X000640Y004705D03*
X000640Y005705D03*
X000640Y006705D03*
X000640Y007705D03*
X000640Y008705D03*
D31*
X002613Y006955D03*
X002967Y006955D03*
X002967Y006155D03*
X002613Y006155D03*
D32*
X006790Y008005D03*
X008490Y008005D03*
X006790Y009705D03*
X006790Y002405D03*
X008490Y002405D03*
X006790Y000705D03*
D33*
X011840Y000755D03*
X011840Y003880D03*
X011840Y007130D03*
M02*
