G75*
G70*
%OFA0B0*%
%FSLAX24Y24*%
%IPPOS*%
%LPD*%
%AMOC8*
5,1,8,0,0,1.08239X$1,22.5*
%
%ADD10C,0.0000*%
%ADD11R,0.1330X0.1900*%
%ADD12R,0.1181X0.0630*%
%ADD13R,0.2250X0.1900*%
%ADD14R,0.2362X0.2362*%
%ADD15OC8,0.0660*%
%ADD16C,0.0660*%
%ADD17R,0.0500X0.0250*%
%ADD18R,0.0250X0.0500*%
%ADD19R,0.0660X0.0660*%
%ADD20C,0.0700*%
%ADD21C,0.1250*%
%ADD22C,0.0300*%
%ADD23C,0.0591*%
%ADD24C,0.1500*%
%ADD25C,0.0270*%
%ADD26C,0.0500*%
%ADD27C,0.0250*%
%ADD28C,0.0200*%
%ADD29C,0.0100*%
%ADD30OC8,0.0768*%
%ADD31C,0.0120*%
%ADD32C,0.0240*%
D10*
X000140Y000205D02*
X000140Y010205D01*
X019140Y010205D01*
X019140Y000205D01*
X000140Y000205D01*
X017674Y001955D02*
X017676Y002003D01*
X017682Y002051D01*
X017692Y002098D01*
X017705Y002144D01*
X017723Y002189D01*
X017743Y002233D01*
X017768Y002275D01*
X017796Y002314D01*
X017826Y002351D01*
X017860Y002385D01*
X017897Y002417D01*
X017935Y002446D01*
X017976Y002471D01*
X018019Y002493D01*
X018064Y002511D01*
X018110Y002525D01*
X018157Y002536D01*
X018205Y002543D01*
X018253Y002546D01*
X018301Y002545D01*
X018349Y002540D01*
X018397Y002531D01*
X018443Y002519D01*
X018488Y002502D01*
X018532Y002482D01*
X018574Y002459D01*
X018614Y002432D01*
X018652Y002402D01*
X018687Y002369D01*
X018719Y002333D01*
X018749Y002295D01*
X018775Y002254D01*
X018797Y002211D01*
X018817Y002167D01*
X018832Y002122D01*
X018844Y002075D01*
X018852Y002027D01*
X018856Y001979D01*
X018856Y001931D01*
X018852Y001883D01*
X018844Y001835D01*
X018832Y001788D01*
X018817Y001743D01*
X018797Y001699D01*
X018775Y001656D01*
X018749Y001615D01*
X018719Y001577D01*
X018687Y001541D01*
X018652Y001508D01*
X018614Y001478D01*
X018574Y001451D01*
X018532Y001428D01*
X018488Y001408D01*
X018443Y001391D01*
X018397Y001379D01*
X018349Y001370D01*
X018301Y001365D01*
X018253Y001364D01*
X018205Y001367D01*
X018157Y001374D01*
X018110Y001385D01*
X018064Y001399D01*
X018019Y001417D01*
X017976Y001439D01*
X017935Y001464D01*
X017897Y001493D01*
X017860Y001525D01*
X017826Y001559D01*
X017796Y001596D01*
X017768Y001635D01*
X017743Y001677D01*
X017723Y001721D01*
X017705Y001766D01*
X017692Y001812D01*
X017682Y001859D01*
X017676Y001907D01*
X017674Y001955D01*
X017674Y005205D02*
X017676Y005253D01*
X017682Y005301D01*
X017692Y005348D01*
X017705Y005394D01*
X017723Y005439D01*
X017743Y005483D01*
X017768Y005525D01*
X017796Y005564D01*
X017826Y005601D01*
X017860Y005635D01*
X017897Y005667D01*
X017935Y005696D01*
X017976Y005721D01*
X018019Y005743D01*
X018064Y005761D01*
X018110Y005775D01*
X018157Y005786D01*
X018205Y005793D01*
X018253Y005796D01*
X018301Y005795D01*
X018349Y005790D01*
X018397Y005781D01*
X018443Y005769D01*
X018488Y005752D01*
X018532Y005732D01*
X018574Y005709D01*
X018614Y005682D01*
X018652Y005652D01*
X018687Y005619D01*
X018719Y005583D01*
X018749Y005545D01*
X018775Y005504D01*
X018797Y005461D01*
X018817Y005417D01*
X018832Y005372D01*
X018844Y005325D01*
X018852Y005277D01*
X018856Y005229D01*
X018856Y005181D01*
X018852Y005133D01*
X018844Y005085D01*
X018832Y005038D01*
X018817Y004993D01*
X018797Y004949D01*
X018775Y004906D01*
X018749Y004865D01*
X018719Y004827D01*
X018687Y004791D01*
X018652Y004758D01*
X018614Y004728D01*
X018574Y004701D01*
X018532Y004678D01*
X018488Y004658D01*
X018443Y004641D01*
X018397Y004629D01*
X018349Y004620D01*
X018301Y004615D01*
X018253Y004614D01*
X018205Y004617D01*
X018157Y004624D01*
X018110Y004635D01*
X018064Y004649D01*
X018019Y004667D01*
X017976Y004689D01*
X017935Y004714D01*
X017897Y004743D01*
X017860Y004775D01*
X017826Y004809D01*
X017796Y004846D01*
X017768Y004885D01*
X017743Y004927D01*
X017723Y004971D01*
X017705Y005016D01*
X017692Y005062D01*
X017682Y005109D01*
X017676Y005157D01*
X017674Y005205D01*
X017674Y008455D02*
X017676Y008503D01*
X017682Y008551D01*
X017692Y008598D01*
X017705Y008644D01*
X017723Y008689D01*
X017743Y008733D01*
X017768Y008775D01*
X017796Y008814D01*
X017826Y008851D01*
X017860Y008885D01*
X017897Y008917D01*
X017935Y008946D01*
X017976Y008971D01*
X018019Y008993D01*
X018064Y009011D01*
X018110Y009025D01*
X018157Y009036D01*
X018205Y009043D01*
X018253Y009046D01*
X018301Y009045D01*
X018349Y009040D01*
X018397Y009031D01*
X018443Y009019D01*
X018488Y009002D01*
X018532Y008982D01*
X018574Y008959D01*
X018614Y008932D01*
X018652Y008902D01*
X018687Y008869D01*
X018719Y008833D01*
X018749Y008795D01*
X018775Y008754D01*
X018797Y008711D01*
X018817Y008667D01*
X018832Y008622D01*
X018844Y008575D01*
X018852Y008527D01*
X018856Y008479D01*
X018856Y008431D01*
X018852Y008383D01*
X018844Y008335D01*
X018832Y008288D01*
X018817Y008243D01*
X018797Y008199D01*
X018775Y008156D01*
X018749Y008115D01*
X018719Y008077D01*
X018687Y008041D01*
X018652Y008008D01*
X018614Y007978D01*
X018574Y007951D01*
X018532Y007928D01*
X018488Y007908D01*
X018443Y007891D01*
X018397Y007879D01*
X018349Y007870D01*
X018301Y007865D01*
X018253Y007864D01*
X018205Y007867D01*
X018157Y007874D01*
X018110Y007885D01*
X018064Y007899D01*
X018019Y007917D01*
X017976Y007939D01*
X017935Y007964D01*
X017897Y007993D01*
X017860Y008025D01*
X017826Y008059D01*
X017796Y008096D01*
X017768Y008135D01*
X017743Y008177D01*
X017723Y008221D01*
X017705Y008266D01*
X017692Y008312D01*
X017682Y008359D01*
X017676Y008407D01*
X017674Y008455D01*
D11*
X018265Y008455D03*
X018265Y005205D03*
X018265Y001955D03*
D12*
X013799Y001057D03*
X013799Y002853D03*
X013799Y004307D03*
X013799Y006103D03*
X013799Y007557D03*
X013799Y009353D03*
D13*
X016515Y008455D03*
X016515Y005205D03*
X016515Y001955D03*
D14*
X007640Y001555D03*
X007640Y008855D03*
D15*
X008490Y009705D03*
X001890Y009705D03*
D16*
X000640Y009705D03*
X008490Y000705D03*
D17*
X003868Y001093D03*
X003868Y001417D03*
X002503Y001339D03*
X002503Y000985D03*
D18*
X002553Y002105D03*
X002877Y002105D03*
D19*
X000640Y000705D03*
D20*
X000640Y001705D03*
X000640Y002705D03*
X000640Y003705D03*
X000640Y004705D03*
X000640Y005705D03*
X000640Y006705D03*
X000640Y007705D03*
X000640Y008705D03*
D21*
X011490Y007305D02*
X011490Y001005D01*
X016515Y001955D02*
X018265Y001955D01*
X018265Y005205D02*
X016515Y005205D01*
X016515Y008455D02*
X018265Y008455D01*
D22*
X014640Y008563D02*
X012740Y008563D01*
X013090Y008816D02*
X013136Y008797D01*
X013184Y008788D01*
X013792Y008788D01*
X013792Y009345D01*
X013807Y009345D01*
X013807Y008788D01*
X014415Y008788D01*
X014463Y008797D01*
X014508Y008816D01*
X014549Y008843D01*
X014584Y008878D01*
X014612Y008919D01*
X014630Y008965D01*
X014640Y009013D01*
X014640Y009345D01*
X013807Y009345D01*
X013807Y009360D01*
X014640Y009360D01*
X014640Y009692D01*
X014630Y009741D01*
X014612Y009786D01*
X014584Y009827D01*
X014549Y009862D01*
X014508Y009889D01*
X014470Y009905D01*
X014640Y009905D01*
X014640Y002205D01*
X012740Y002205D01*
X012740Y009905D01*
X013129Y009905D01*
X013090Y009889D01*
X013050Y009862D01*
X013015Y009827D01*
X012987Y009786D01*
X012969Y009741D01*
X012959Y009692D01*
X012959Y009360D01*
X013792Y009360D01*
X013792Y009345D01*
X012959Y009345D01*
X012959Y009013D01*
X012969Y008965D01*
X012987Y008919D01*
X013015Y008878D01*
X013050Y008843D01*
X013090Y008816D01*
X013032Y008862D02*
X012740Y008862D01*
X012740Y009160D02*
X012959Y009160D01*
X012959Y009459D02*
X012740Y009459D01*
X012740Y009757D02*
X012975Y009757D01*
X013792Y009160D02*
X013807Y009160D01*
X013792Y008862D02*
X013807Y008862D01*
X013876Y008515D02*
X013723Y008515D01*
X013581Y008456D01*
X013473Y008348D01*
X013414Y008207D01*
X013414Y008122D01*
X013159Y008122D01*
X013067Y008084D01*
X012997Y008014D01*
X012959Y007922D01*
X012959Y007193D01*
X012997Y007101D01*
X013067Y007030D01*
X013159Y006992D01*
X014440Y006992D01*
X014532Y007030D01*
X014602Y007101D01*
X014640Y007193D01*
X014640Y007922D01*
X014602Y008014D01*
X014532Y008084D01*
X014440Y008122D01*
X014184Y008122D01*
X014184Y008207D01*
X014126Y008348D01*
X014018Y008456D01*
X013876Y008515D01*
X014160Y008265D02*
X014640Y008265D01*
X014622Y007966D02*
X014640Y007966D01*
X014640Y007668D02*
X014640Y007668D01*
X014640Y007369D02*
X014640Y007369D01*
X014640Y007071D02*
X014572Y007071D01*
X014640Y006772D02*
X012740Y006772D01*
X013015Y006577D02*
X013050Y006612D01*
X013090Y006639D01*
X013136Y006658D01*
X013184Y006668D01*
X013792Y006668D01*
X013792Y006110D01*
X013792Y006095D01*
X013807Y006095D01*
X013807Y005538D01*
X014415Y005538D01*
X014463Y005547D01*
X014508Y005566D01*
X014549Y005593D01*
X014584Y005628D01*
X014612Y005669D01*
X014630Y005715D01*
X014640Y005763D01*
X014640Y006095D01*
X013807Y006095D01*
X013807Y006110D01*
X014640Y006110D01*
X014640Y006442D01*
X014630Y006491D01*
X014612Y006536D01*
X014584Y006577D01*
X014549Y006612D01*
X014508Y006639D01*
X014463Y006658D01*
X014415Y006668D01*
X013807Y006668D01*
X013807Y006110D01*
X013792Y006110D01*
X012959Y006110D01*
X012959Y006442D01*
X012969Y006491D01*
X012987Y006536D01*
X013015Y006577D01*
X012965Y006474D02*
X012740Y006474D01*
X012740Y006175D02*
X012959Y006175D01*
X012959Y006095D02*
X012959Y005763D01*
X012969Y005715D01*
X012987Y005669D01*
X013015Y005628D01*
X013050Y005593D01*
X013090Y005566D01*
X013136Y005547D01*
X013184Y005538D01*
X013792Y005538D01*
X013792Y006095D01*
X012959Y006095D01*
X012959Y005877D02*
X012740Y005877D01*
X012740Y005578D02*
X013073Y005578D01*
X012740Y005280D02*
X014640Y005280D01*
X014126Y005098D02*
X014018Y005206D01*
X013876Y005265D01*
X013723Y005265D01*
X013581Y005206D01*
X013473Y005098D01*
X013414Y004957D01*
X013414Y004872D01*
X013159Y004872D01*
X013067Y004834D01*
X012997Y004764D01*
X012959Y004672D01*
X012959Y003943D01*
X012997Y003851D01*
X013067Y003780D01*
X013159Y003742D01*
X014440Y003742D01*
X014532Y003780D01*
X014602Y003851D01*
X014640Y003943D01*
X014640Y004672D01*
X014602Y004764D01*
X014532Y004834D01*
X014440Y004872D01*
X014184Y004872D01*
X014184Y004957D01*
X014126Y005098D01*
X014174Y004981D02*
X014640Y004981D01*
X014636Y004683D02*
X014640Y004683D01*
X014640Y004384D02*
X014640Y004384D01*
X014640Y004086D02*
X014640Y004086D01*
X014640Y003787D02*
X014538Y003787D01*
X014640Y003489D02*
X012740Y003489D01*
X013015Y003327D02*
X013050Y003362D01*
X013090Y003389D01*
X013136Y003408D01*
X013184Y003418D01*
X013792Y003418D01*
X013792Y002860D01*
X013792Y002845D01*
X013807Y002845D01*
X013807Y002288D01*
X014415Y002288D01*
X014463Y002297D01*
X014508Y002316D01*
X014549Y002343D01*
X014584Y002378D01*
X014612Y002419D01*
X014630Y002465D01*
X014640Y002513D01*
X014640Y002845D01*
X013807Y002845D01*
X013807Y002860D01*
X014640Y002860D01*
X014640Y003192D01*
X014630Y003241D01*
X014612Y003286D01*
X014584Y003327D01*
X014549Y003362D01*
X014508Y003389D01*
X014463Y003408D01*
X014415Y003418D01*
X013807Y003418D01*
X013807Y002860D01*
X013792Y002860D01*
X012959Y002860D01*
X012959Y003192D01*
X012969Y003241D01*
X012987Y003286D01*
X013015Y003327D01*
X012959Y003190D02*
X012740Y003190D01*
X012740Y002892D02*
X012959Y002892D01*
X012959Y002845D02*
X012959Y002513D01*
X012969Y002465D01*
X012987Y002419D01*
X013015Y002378D01*
X013050Y002343D01*
X013090Y002316D01*
X013136Y002297D01*
X013184Y002288D01*
X013792Y002288D01*
X013792Y002845D01*
X012959Y002845D01*
X012959Y002593D02*
X012740Y002593D01*
X012740Y002295D02*
X013150Y002295D01*
X013792Y002295D02*
X013807Y002295D01*
X013792Y002593D02*
X013807Y002593D01*
X013792Y002892D02*
X013807Y002892D01*
X013792Y003190D02*
X013807Y003190D01*
X014640Y003190D02*
X014640Y003190D01*
X014640Y002892D02*
X014640Y002892D01*
X014640Y002593D02*
X014640Y002593D01*
X014640Y002295D02*
X014449Y002295D01*
X013061Y003787D02*
X012740Y003787D01*
X012740Y004086D02*
X012959Y004086D01*
X012959Y004384D02*
X012740Y004384D01*
X012740Y004683D02*
X012963Y004683D01*
X012740Y004981D02*
X013425Y004981D01*
X013792Y005578D02*
X013807Y005578D01*
X013792Y005877D02*
X013807Y005877D01*
X013792Y006175D02*
X013807Y006175D01*
X013792Y006474D02*
X013807Y006474D01*
X014634Y006474D02*
X014640Y006474D01*
X014640Y006175D02*
X014640Y006175D01*
X014640Y005877D02*
X014640Y005877D01*
X014640Y005578D02*
X014526Y005578D01*
X013027Y007071D02*
X012740Y007071D01*
X012740Y007369D02*
X012959Y007369D01*
X012959Y007668D02*
X012740Y007668D01*
X012740Y007966D02*
X012977Y007966D01*
X012740Y008265D02*
X013438Y008265D01*
X014567Y008862D02*
X014640Y008862D01*
X014640Y009160D02*
X014640Y009160D01*
X014640Y009459D02*
X014640Y009459D01*
X014624Y009757D02*
X014640Y009757D01*
D23*
X008490Y008005D03*
X006790Y008005D03*
X006790Y009705D03*
X006790Y002405D03*
X008490Y002405D03*
X006790Y000705D03*
D24*
X008090Y001105D02*
X011340Y001105D01*
X012240Y009305D02*
X007590Y009305D01*
D25*
X009565Y007980D03*
X009040Y006880D03*
X010165Y006455D03*
X009040Y005755D03*
X009565Y005280D03*
X007765Y005605D03*
X007390Y005655D03*
X007390Y006080D03*
X005740Y006705D03*
X004840Y006755D03*
X004140Y007055D03*
X003640Y007105D03*
X004390Y007355D03*
X004740Y007555D03*
X004790Y008005D03*
X004840Y008855D03*
X007390Y007180D03*
X004590Y006155D03*
X004140Y006055D03*
X003790Y005855D03*
X003790Y006255D03*
X002240Y006555D03*
X001890Y005905D03*
X002740Y005205D03*
X002740Y004805D03*
X003490Y003805D03*
X003865Y003430D03*
X004240Y003055D03*
X004440Y002455D03*
X004115Y001980D03*
X003340Y001430D03*
X004340Y001055D03*
X005340Y001379D03*
X005240Y001755D03*
X005340Y000505D03*
X002090Y002130D03*
X002590Y002605D03*
X002540Y003080D03*
X001740Y003430D03*
X001615Y003805D03*
X004990Y004605D03*
X006815Y004382D03*
X008640Y004180D03*
X008990Y003580D03*
X009890Y004030D03*
X009565Y002105D03*
X009890Y000780D03*
X013540Y001905D03*
X013799Y001605D03*
X013799Y004880D03*
X013565Y005180D03*
X013799Y008130D03*
X013565Y008430D03*
X006090Y003005D03*
X001906Y001439D03*
X001365Y001430D03*
D26*
X012240Y008805D02*
X012815Y008805D01*
X012815Y009805D01*
X012065Y009805D01*
X012240Y009305D02*
X012240Y008805D01*
D27*
X013799Y009353D02*
X013799Y009930D01*
X013090Y009930D01*
X013799Y009930D02*
X014640Y009930D01*
X013799Y002853D02*
X013790Y002853D01*
X013790Y002280D01*
X013540Y002280D01*
X013540Y001905D01*
D28*
X012140Y001992D02*
X009881Y001992D01*
X009900Y002038D02*
X009849Y001915D01*
X009755Y001821D01*
X009632Y001770D01*
X009515Y001770D01*
X009515Y000455D01*
X012140Y000455D01*
X012140Y008205D01*
X009814Y008205D01*
X009849Y008170D01*
X009900Y008047D01*
X009900Y007913D01*
X009849Y007790D01*
X009815Y007756D01*
X009815Y005504D01*
X009849Y005470D01*
X009900Y005347D01*
X009900Y005213D01*
X009849Y005090D01*
X009815Y005056D01*
X009815Y002329D01*
X009849Y002295D01*
X009900Y002172D01*
X009900Y002038D01*
X009892Y002190D02*
X012140Y002190D01*
X012140Y002389D02*
X009815Y002389D01*
X009815Y002587D02*
X012140Y002587D01*
X012140Y002786D02*
X009815Y002786D01*
X009815Y002984D02*
X012140Y002984D01*
X012140Y003183D02*
X009815Y003183D01*
X009815Y003381D02*
X012140Y003381D01*
X012140Y003580D02*
X009815Y003580D01*
X009815Y003778D02*
X012140Y003778D01*
X012140Y003977D02*
X009815Y003977D01*
X009815Y004175D02*
X012140Y004175D01*
X012140Y004374D02*
X009815Y004374D01*
X009815Y004572D02*
X012140Y004572D01*
X012140Y004771D02*
X009815Y004771D01*
X009815Y004969D02*
X012140Y004969D01*
X012140Y005168D02*
X009881Y005168D01*
X009892Y005366D02*
X012140Y005366D01*
X012140Y005565D02*
X009815Y005565D01*
X009815Y005763D02*
X012140Y005763D01*
X012140Y005962D02*
X009815Y005962D01*
X009815Y006160D02*
X012140Y006160D01*
X012140Y006359D02*
X009815Y006359D01*
X009815Y006557D02*
X012140Y006557D01*
X012140Y006756D02*
X009815Y006756D01*
X009815Y006954D02*
X012140Y006954D01*
X012140Y007153D02*
X009815Y007153D01*
X009815Y007351D02*
X012140Y007351D01*
X012140Y007550D02*
X009815Y007550D01*
X009815Y007748D02*
X012140Y007748D01*
X012140Y007947D02*
X009900Y007947D01*
X009859Y008145D02*
X012140Y008145D01*
X012140Y001793D02*
X009687Y001793D01*
X009515Y001595D02*
X012140Y001595D01*
X012140Y001396D02*
X009515Y001396D01*
X009515Y001198D02*
X012140Y001198D01*
X012140Y000999D02*
X009515Y000999D01*
X009515Y000801D02*
X012140Y000801D01*
X012140Y000602D02*
X009515Y000602D01*
D29*
X009515Y000599D02*
X008971Y000599D01*
X008971Y000501D02*
X009515Y000501D01*
X009515Y000405D02*
X008971Y000405D01*
X008971Y001505D01*
X007690Y001505D01*
X007690Y001605D01*
X007590Y001605D01*
X007590Y002886D01*
X006439Y002886D01*
X006401Y002876D01*
X006367Y002856D01*
X006339Y002828D01*
X006319Y002794D01*
X006309Y002756D01*
X006309Y001605D01*
X007590Y001605D01*
X007590Y001505D01*
X006309Y001505D01*
X006309Y000405D01*
X001265Y000405D01*
X001265Y000505D01*
X003849Y000505D01*
X003951Y000607D01*
X004068Y000724D01*
X004068Y000818D01*
X004174Y000818D01*
X004179Y000813D01*
X004283Y000770D01*
X004397Y000770D01*
X004501Y000813D01*
X004582Y000894D01*
X004582Y000895D02*
X006309Y000895D01*
X006309Y000993D02*
X004623Y000993D01*
X004625Y000998D02*
X004625Y001112D01*
X004582Y001216D01*
X004501Y001297D01*
X004397Y001340D01*
X004283Y001340D01*
X004268Y001334D01*
X004268Y001604D01*
X004180Y001692D01*
X003556Y001692D01*
X003519Y001654D01*
X003501Y001672D01*
X003397Y001715D01*
X003283Y001715D01*
X003179Y001672D01*
X003098Y001591D01*
X003055Y001487D01*
X003055Y001373D01*
X003098Y001269D01*
X003179Y001188D01*
X003283Y001145D01*
X003397Y001145D01*
X003468Y001175D01*
X003468Y000906D01*
X003469Y000905D01*
X002903Y000905D01*
X002903Y000973D01*
X002516Y000973D01*
X002516Y000998D01*
X002903Y000998D01*
X002903Y001130D01*
X002899Y001148D01*
X002903Y001152D01*
X002903Y001527D01*
X002816Y001614D01*
X002525Y001614D01*
X002490Y001649D01*
X002099Y001649D01*
X002067Y001681D01*
X001962Y001724D01*
X001849Y001724D01*
X001744Y001681D01*
X001664Y001601D01*
X001621Y001496D01*
X001621Y001383D01*
X001664Y001278D01*
X001744Y001198D01*
X001849Y001154D01*
X001962Y001154D01*
X002067Y001198D01*
X002099Y001229D01*
X002103Y001229D01*
X002103Y001152D01*
X002108Y001148D01*
X002103Y001130D01*
X002103Y000998D01*
X002491Y000998D01*
X002491Y000973D01*
X002103Y000973D01*
X002103Y000905D01*
X001265Y000905D01*
X001265Y002047D01*
X001273Y002055D01*
X001390Y002172D01*
X001390Y003297D01*
X001613Y003520D01*
X001672Y003520D01*
X001776Y003563D01*
X001857Y003644D01*
X001900Y003748D01*
X001900Y003862D01*
X001857Y003966D01*
X001776Y004047D01*
X001672Y004090D01*
X001558Y004090D01*
X001454Y004047D01*
X001373Y003966D01*
X001330Y003862D01*
X001330Y003803D01*
X001265Y003738D01*
X001265Y004797D01*
X001457Y004605D01*
X002537Y004605D01*
X002579Y004563D01*
X002683Y004520D01*
X002708Y004520D01*
X002692Y004504D01*
X002692Y002871D01*
X002647Y002890D01*
X002533Y002890D01*
X002429Y002847D01*
X002348Y002766D01*
X001390Y002766D01*
X001390Y002668D02*
X002307Y002668D01*
X002305Y002662D02*
X002305Y002548D01*
X002335Y002475D01*
X002278Y002417D01*
X002278Y001793D01*
X002366Y001705D01*
X003064Y001705D01*
X003152Y001793D01*
X003152Y002095D01*
X004077Y002095D01*
X004200Y002218D01*
X004200Y002218D01*
X004227Y002245D01*
X004230Y002245D01*
X004230Y001768D01*
X004353Y001645D01*
X004829Y001169D01*
X005147Y001169D01*
X005179Y001137D01*
X005283Y001094D01*
X005397Y001094D01*
X005501Y001137D01*
X005582Y001218D01*
X005625Y001322D01*
X005625Y001436D01*
X005582Y001540D01*
X005501Y001621D01*
X005397Y001664D01*
X005283Y001664D01*
X005179Y001621D01*
X005147Y001589D01*
X005003Y001589D01*
X004650Y001942D01*
X004650Y002245D01*
X005627Y002245D01*
X006102Y002720D01*
X006147Y002720D01*
X006251Y002763D01*
X006332Y002844D01*
X006375Y002948D01*
X006375Y003062D01*
X006332Y003166D01*
X006251Y003247D01*
X006147Y003290D01*
X006033Y003290D01*
X005987Y003271D01*
X006813Y004097D01*
X006872Y004097D01*
X006976Y004140D01*
X007057Y004220D01*
X007100Y004325D01*
X007100Y004438D01*
X007057Y004543D01*
X006976Y004623D01*
X006872Y004667D01*
X006784Y004667D01*
X007173Y005055D01*
X007498Y005055D01*
X007763Y005320D01*
X007822Y005320D01*
X007926Y005363D01*
X008007Y005444D01*
X008050Y005548D01*
X008050Y005662D01*
X008007Y005766D01*
X007926Y005847D01*
X007822Y005890D01*
X007708Y005890D01*
X007604Y005847D01*
X007603Y005846D01*
X007551Y005897D01*
X007447Y005940D01*
X007333Y005940D01*
X007229Y005897D01*
X007187Y005855D01*
X006857Y005855D01*
X006740Y005738D01*
X006740Y005738D01*
X005507Y004505D01*
X004657Y004505D01*
X003867Y003715D01*
X003808Y003715D01*
X003751Y003691D01*
X003775Y003748D01*
X003775Y003862D01*
X003732Y003966D01*
X003651Y004047D01*
X003547Y004090D01*
X003433Y004090D01*
X003329Y004047D01*
X003248Y003966D01*
X003205Y003862D01*
X003205Y003748D01*
X003248Y003644D01*
X003290Y003602D01*
X003290Y003098D01*
X003716Y002672D01*
X003833Y002555D01*
X003943Y002555D01*
X003930Y002542D01*
X003930Y002542D01*
X003903Y002515D01*
X003112Y002515D01*
X003112Y004330D01*
X003275Y004493D01*
X003275Y006193D01*
X003455Y006373D01*
X003825Y006373D01*
X003940Y006258D01*
X003898Y006216D01*
X003864Y006133D01*
X003847Y006140D01*
X003733Y006140D01*
X003629Y006097D01*
X003548Y006016D01*
X003505Y005912D01*
X003505Y005798D01*
X003548Y005694D01*
X003629Y005613D01*
X003733Y005570D01*
X003792Y005570D01*
X004007Y005355D01*
X006152Y005355D01*
X006269Y005472D01*
X006269Y005472D01*
X006978Y006181D01*
X007906Y006181D01*
X008790Y005297D01*
X008790Y003783D01*
X008748Y003741D01*
X008705Y003637D01*
X008705Y003523D01*
X008748Y003419D01*
X008829Y003338D01*
X008933Y003295D01*
X009047Y003295D01*
X009151Y003338D01*
X009232Y003419D01*
X009275Y003523D01*
X009275Y003637D01*
X009232Y003741D01*
X009190Y003783D01*
X009190Y005463D01*
X009158Y005495D01*
X009201Y005513D01*
X009282Y005594D01*
X009325Y005698D01*
X009325Y005812D01*
X009282Y005916D01*
X009201Y005997D01*
X009097Y006040D01*
X009038Y006040D01*
X008398Y006680D01*
X008837Y006680D01*
X008879Y006638D01*
X008983Y006595D01*
X009097Y006595D01*
X009201Y006638D01*
X009282Y006719D01*
X009325Y006823D01*
X009325Y006937D01*
X009282Y007041D01*
X009201Y007122D01*
X009097Y007165D01*
X008983Y007165D01*
X008879Y007122D01*
X008837Y007080D01*
X006382Y007080D01*
X006265Y006963D01*
X006025Y006723D01*
X006025Y006762D01*
X005982Y006866D01*
X005901Y006947D01*
X005797Y006990D01*
X005710Y006990D01*
X005710Y008309D01*
X005669Y008408D01*
X005097Y008980D01*
X005082Y009016D01*
X005001Y009097D01*
X004897Y009140D01*
X004783Y009140D01*
X004679Y009097D01*
X004598Y009016D01*
X004555Y008912D01*
X004555Y008798D01*
X004598Y008694D01*
X004679Y008613D01*
X004715Y008598D01*
X005170Y008143D01*
X005170Y006732D01*
X005103Y006665D01*
X004127Y006665D01*
X004001Y006791D01*
X003999Y006793D01*
X003455Y006793D01*
X003281Y006793D01*
X002978Y006490D01*
X002855Y006367D01*
X002855Y005705D01*
X002373Y005705D01*
X002175Y005903D01*
X002175Y005962D01*
X002132Y006066D01*
X002051Y006147D01*
X001947Y006190D01*
X001833Y006190D01*
X001729Y006147D01*
X001648Y006066D01*
X001623Y006005D01*
X001265Y006363D01*
X001265Y007505D01*
X003407Y007505D01*
X003855Y007057D01*
X003855Y006998D01*
X003898Y006894D01*
X003979Y006813D01*
X004083Y006770D01*
X004197Y006770D01*
X004301Y006813D01*
X004382Y006894D01*
X004425Y006998D01*
X004425Y007070D01*
X004447Y007070D01*
X004551Y007113D01*
X004632Y007194D01*
X004666Y007277D01*
X004683Y007270D01*
X004797Y007270D01*
X004901Y007313D01*
X004982Y007394D01*
X005025Y007498D01*
X005025Y007612D01*
X004982Y007716D01*
X004901Y007797D01*
X004797Y007840D01*
X004738Y007840D01*
X004290Y008288D01*
X004173Y008405D01*
X002223Y008405D01*
X001265Y009363D01*
X001265Y010005D01*
X001511Y010005D01*
X001410Y009904D01*
X001410Y009506D01*
X001691Y009225D01*
X002089Y009225D01*
X002370Y009506D01*
X002370Y009904D01*
X002269Y010005D01*
X005990Y010005D01*
X005990Y007293D01*
X006078Y007205D01*
X009202Y007205D01*
X009290Y007293D01*
X009290Y007899D01*
X009323Y007819D01*
X009365Y007777D01*
X009365Y005483D01*
X009323Y005441D01*
X009280Y005337D01*
X009280Y005223D01*
X009323Y005119D01*
X009365Y005077D01*
X009365Y002308D01*
X009323Y002266D01*
X009280Y002162D01*
X009280Y002048D01*
X009323Y001944D01*
X009404Y001863D01*
X009508Y001820D01*
X009515Y001820D01*
X009515Y000405D01*
X009515Y000698D02*
X008971Y000698D01*
X008971Y000796D02*
X009515Y000796D01*
X009515Y000895D02*
X008971Y000895D01*
X008971Y000993D02*
X009515Y000993D01*
X009515Y001092D02*
X008971Y001092D01*
X008971Y001190D02*
X009515Y001190D01*
X009515Y001289D02*
X008971Y001289D01*
X008971Y001387D02*
X009515Y001387D01*
X009515Y001486D02*
X008971Y001486D01*
X008971Y001605D02*
X008971Y002756D01*
X008961Y002794D01*
X008941Y002828D01*
X008913Y002856D01*
X008879Y002876D01*
X008841Y002886D01*
X007690Y002886D01*
X007690Y001605D01*
X008971Y001605D01*
X008971Y001683D02*
X009515Y001683D01*
X009515Y001781D02*
X008971Y001781D01*
X008971Y001880D02*
X009387Y001880D01*
X009309Y001978D02*
X008971Y001978D01*
X008971Y002077D02*
X009280Y002077D01*
X009286Y002175D02*
X008971Y002175D01*
X008971Y002274D02*
X009330Y002274D01*
X009365Y002372D02*
X008971Y002372D01*
X008971Y002471D02*
X009365Y002471D01*
X009365Y002569D02*
X008971Y002569D01*
X008971Y002668D02*
X009365Y002668D01*
X009365Y002766D02*
X008968Y002766D01*
X008899Y002865D02*
X009365Y002865D01*
X009365Y002963D02*
X006375Y002963D01*
X006375Y003062D02*
X009365Y003062D01*
X009365Y003160D02*
X006334Y003160D01*
X006223Y003259D02*
X009365Y003259D01*
X009365Y003357D02*
X009170Y003357D01*
X009247Y003456D02*
X009365Y003456D01*
X009365Y003554D02*
X009275Y003554D01*
X009268Y003653D02*
X009365Y003653D01*
X009365Y003751D02*
X009222Y003751D01*
X009190Y003850D02*
X009365Y003850D01*
X009365Y003948D02*
X009190Y003948D01*
X009190Y004047D02*
X009365Y004047D01*
X009365Y004145D02*
X009190Y004145D01*
X009190Y004244D02*
X009365Y004244D01*
X009365Y004342D02*
X009190Y004342D01*
X009190Y004441D02*
X009365Y004441D01*
X009365Y004539D02*
X009190Y004539D01*
X009190Y004638D02*
X009365Y004638D01*
X009365Y004736D02*
X009190Y004736D01*
X009190Y004835D02*
X009365Y004835D01*
X009365Y004933D02*
X009190Y004933D01*
X009190Y005032D02*
X009365Y005032D01*
X009319Y005130D02*
X009190Y005130D01*
X009190Y005229D02*
X009280Y005229D01*
X009280Y005327D02*
X009190Y005327D01*
X009190Y005426D02*
X009317Y005426D01*
X009365Y005524D02*
X009212Y005524D01*
X009294Y005623D02*
X009365Y005623D01*
X009365Y005721D02*
X009325Y005721D01*
X009322Y005820D02*
X009365Y005820D01*
X009365Y005918D02*
X009280Y005918D01*
X009365Y006017D02*
X009153Y006017D01*
X008963Y006115D02*
X009365Y006115D01*
X009365Y006214D02*
X008864Y006214D01*
X008766Y006312D02*
X009365Y006312D01*
X009365Y006411D02*
X008667Y006411D01*
X008569Y006509D02*
X009365Y006509D01*
X009365Y006608D02*
X009127Y006608D01*
X009269Y006706D02*
X009365Y006706D01*
X009365Y006805D02*
X009317Y006805D01*
X009325Y006903D02*
X009365Y006903D01*
X009365Y007002D02*
X009298Y007002D01*
X009365Y007100D02*
X009223Y007100D01*
X009365Y007199D02*
X005710Y007199D01*
X005710Y007297D02*
X005990Y007297D01*
X005990Y007396D02*
X005710Y007396D01*
X005710Y007494D02*
X005990Y007494D01*
X005990Y007593D02*
X005710Y007593D01*
X005710Y007691D02*
X005990Y007691D01*
X005990Y007790D02*
X005710Y007790D01*
X005710Y007888D02*
X005990Y007888D01*
X005990Y007987D02*
X005710Y007987D01*
X005710Y008085D02*
X005990Y008085D01*
X005990Y008184D02*
X005710Y008184D01*
X005710Y008282D02*
X005990Y008282D01*
X005990Y008381D02*
X005680Y008381D01*
X005598Y008479D02*
X005990Y008479D01*
X005990Y008578D02*
X005499Y008578D01*
X005401Y008676D02*
X005990Y008676D01*
X005990Y008775D02*
X005302Y008775D01*
X005204Y008873D02*
X005990Y008873D01*
X005990Y008972D02*
X005105Y008972D01*
X005028Y009070D02*
X005990Y009070D01*
X005990Y009169D02*
X001459Y009169D01*
X001361Y009267D02*
X001649Y009267D01*
X001551Y009366D02*
X001265Y009366D01*
X001265Y009464D02*
X001452Y009464D01*
X001410Y009563D02*
X001265Y009563D01*
X001265Y009661D02*
X001410Y009661D01*
X001410Y009760D02*
X001265Y009760D01*
X001265Y009858D02*
X001410Y009858D01*
X001463Y009957D02*
X001265Y009957D01*
X000640Y009705D02*
X002140Y008205D01*
X004090Y008205D01*
X004740Y007555D01*
X004992Y007691D02*
X005170Y007691D01*
X005170Y007593D02*
X005025Y007593D01*
X005023Y007494D02*
X005170Y007494D01*
X005170Y007396D02*
X004982Y007396D01*
X004862Y007297D02*
X005170Y007297D01*
X005170Y007199D02*
X004634Y007199D01*
X004519Y007100D02*
X005170Y007100D01*
X005170Y007002D02*
X004425Y007002D01*
X004386Y006903D02*
X005170Y006903D01*
X005170Y006805D02*
X004280Y006805D01*
X004086Y006706D02*
X005144Y006706D01*
X005710Y007002D02*
X006304Y007002D01*
X006205Y006903D02*
X005945Y006903D01*
X006007Y006805D02*
X006107Y006805D01*
X006465Y006880D02*
X009040Y006880D01*
X008953Y006608D02*
X008470Y006608D01*
X008177Y006618D02*
X009040Y005755D01*
X008563Y005524D02*
X008040Y005524D01*
X008050Y005623D02*
X008465Y005623D01*
X008366Y005721D02*
X008025Y005721D01*
X007954Y005820D02*
X008268Y005820D01*
X008169Y005918D02*
X007500Y005918D01*
X007280Y005918D02*
X006715Y005918D01*
X006813Y006017D02*
X008071Y006017D01*
X007972Y006115D02*
X006912Y006115D01*
X006895Y006381D02*
X007989Y006381D01*
X008990Y005380D01*
X008990Y003580D01*
X008712Y003653D02*
X006369Y003653D01*
X006467Y003751D02*
X008758Y003751D01*
X008790Y003850D02*
X006566Y003850D01*
X006664Y003948D02*
X008790Y003948D01*
X008790Y004047D02*
X006763Y004047D01*
X006981Y004145D02*
X008790Y004145D01*
X008790Y004244D02*
X007066Y004244D01*
X007100Y004342D02*
X008790Y004342D01*
X008790Y004441D02*
X007099Y004441D01*
X007058Y004539D02*
X008790Y004539D01*
X008790Y004638D02*
X006942Y004638D01*
X006854Y004736D02*
X008790Y004736D01*
X008790Y004835D02*
X006952Y004835D01*
X007051Y004933D02*
X008790Y004933D01*
X008790Y005032D02*
X007149Y005032D01*
X007090Y005255D02*
X007415Y005255D01*
X007765Y005605D01*
X007989Y005426D02*
X008662Y005426D01*
X008760Y005327D02*
X007839Y005327D01*
X007671Y005229D02*
X008790Y005229D01*
X008790Y005130D02*
X007573Y005130D01*
X007090Y005255D02*
X005840Y004005D01*
X005190Y004005D01*
X004240Y003055D01*
X003916Y002755D02*
X005188Y002755D01*
X006815Y004382D01*
X005837Y004835D02*
X003275Y004835D01*
X003275Y004933D02*
X005935Y004933D01*
X006034Y005032D02*
X003275Y005032D01*
X003275Y005130D02*
X006132Y005130D01*
X006231Y005229D02*
X003275Y005229D01*
X003275Y005327D02*
X006329Y005327D01*
X006428Y005426D02*
X006222Y005426D01*
X006321Y005524D02*
X006526Y005524D01*
X006625Y005623D02*
X006419Y005623D01*
X006518Y005721D02*
X006723Y005721D01*
X006822Y005820D02*
X006616Y005820D01*
X006940Y005655D02*
X007390Y005655D01*
X006940Y005655D02*
X005590Y004305D01*
X004740Y004305D01*
X003865Y003430D01*
X003490Y003181D02*
X003916Y002755D01*
X003720Y002668D02*
X003112Y002668D01*
X003112Y002766D02*
X003622Y002766D01*
X003523Y002865D02*
X003112Y002865D01*
X003112Y002963D02*
X003425Y002963D01*
X003326Y003062D02*
X003112Y003062D01*
X003112Y003160D02*
X003290Y003160D01*
X003290Y003259D02*
X003112Y003259D01*
X003112Y003357D02*
X003290Y003357D01*
X003290Y003456D02*
X003112Y003456D01*
X003112Y003554D02*
X003290Y003554D01*
X003245Y003653D02*
X003112Y003653D01*
X003112Y003751D02*
X003205Y003751D01*
X003205Y003850D02*
X003112Y003850D01*
X003112Y003948D02*
X003241Y003948D01*
X003328Y004047D02*
X003112Y004047D01*
X003112Y004145D02*
X004297Y004145D01*
X004199Y004047D02*
X003652Y004047D01*
X003739Y003948D02*
X004100Y003948D01*
X004002Y003850D02*
X003775Y003850D01*
X003775Y003751D02*
X003903Y003751D01*
X003490Y003805D02*
X003490Y003181D01*
X002692Y003160D02*
X001390Y003160D01*
X001390Y003062D02*
X002692Y003062D01*
X002692Y002963D02*
X001390Y002963D01*
X001390Y002865D02*
X002472Y002865D01*
X002348Y002766D02*
X002305Y002662D01*
X002305Y002569D02*
X001390Y002569D01*
X001390Y002471D02*
X002331Y002471D01*
X002278Y002372D02*
X001390Y002372D01*
X001390Y002274D02*
X002278Y002274D01*
X002278Y002175D02*
X001390Y002175D01*
X001294Y002077D02*
X002278Y002077D01*
X002278Y001978D02*
X001265Y001978D01*
X001265Y001880D02*
X002278Y001880D01*
X002290Y001781D02*
X001265Y001781D01*
X001265Y001683D02*
X001747Y001683D01*
X001657Y001584D02*
X001265Y001584D01*
X001265Y001486D02*
X001621Y001486D01*
X001621Y001387D02*
X001265Y001387D01*
X001265Y001289D02*
X001660Y001289D01*
X001763Y001190D02*
X001265Y001190D01*
X001265Y001092D02*
X002103Y001092D01*
X002103Y001190D02*
X002048Y001190D01*
X002491Y000993D02*
X001265Y000993D01*
X000640Y000705D02*
X003766Y000705D01*
X003868Y000807D01*
X003868Y001093D01*
X003868Y001055D01*
X004340Y001055D01*
X004593Y001190D02*
X004808Y001190D01*
X004710Y001289D02*
X004510Y001289D01*
X004611Y001387D02*
X004268Y001387D01*
X004268Y001486D02*
X004513Y001486D01*
X004414Y001584D02*
X004268Y001584D01*
X004316Y001683D02*
X004190Y001683D01*
X004230Y001781D02*
X003140Y001781D01*
X003152Y001880D02*
X004230Y001880D01*
X004230Y001978D02*
X003152Y001978D01*
X003152Y002077D02*
X004230Y002077D01*
X004230Y002175D02*
X004157Y002175D01*
X004650Y002175D02*
X006309Y002175D01*
X006309Y002077D02*
X004650Y002077D01*
X004650Y001978D02*
X006309Y001978D01*
X006309Y001880D02*
X004712Y001880D01*
X004811Y001781D02*
X006309Y001781D01*
X006309Y001683D02*
X004909Y001683D01*
X005538Y001584D02*
X007590Y001584D01*
X007590Y001683D02*
X007690Y001683D01*
X007690Y001781D02*
X007590Y001781D01*
X007590Y001880D02*
X007690Y001880D01*
X007690Y001978D02*
X007590Y001978D01*
X007590Y002077D02*
X007690Y002077D01*
X007690Y002175D02*
X007590Y002175D01*
X007590Y002274D02*
X007690Y002274D01*
X007690Y002372D02*
X007590Y002372D01*
X007590Y002471D02*
X007690Y002471D01*
X007690Y002569D02*
X007590Y002569D01*
X007590Y002668D02*
X007690Y002668D01*
X007690Y002766D02*
X007590Y002766D01*
X007590Y002865D02*
X007690Y002865D01*
X008733Y003456D02*
X006172Y003456D01*
X006270Y003554D02*
X008705Y003554D01*
X008810Y003357D02*
X006073Y003357D01*
X006340Y002865D02*
X006381Y002865D01*
X006312Y002766D02*
X006254Y002766D01*
X006309Y002668D02*
X006049Y002668D01*
X005951Y002569D02*
X006309Y002569D01*
X006309Y002471D02*
X005852Y002471D01*
X005754Y002372D02*
X006309Y002372D01*
X006309Y002274D02*
X005655Y002274D01*
X005604Y001486D02*
X006309Y001486D01*
X006309Y001387D02*
X005625Y001387D01*
X005611Y001289D02*
X006309Y001289D01*
X006309Y001190D02*
X005554Y001190D01*
X006309Y001092D02*
X004625Y001092D01*
X004625Y000998D02*
X004582Y000894D01*
X004459Y000796D02*
X006309Y000796D01*
X006309Y000698D02*
X004041Y000698D01*
X004068Y000796D02*
X004221Y000796D01*
X003943Y000599D02*
X006309Y000599D01*
X006309Y000501D02*
X001265Y000501D01*
X002516Y000993D02*
X003468Y000993D01*
X003468Y001092D02*
X002903Y001092D01*
X002903Y001190D02*
X003177Y001190D01*
X003090Y001289D02*
X002903Y001289D01*
X002903Y001387D02*
X003055Y001387D01*
X003055Y001486D02*
X002903Y001486D01*
X002846Y001584D02*
X003095Y001584D01*
X003205Y001683D02*
X002064Y001683D01*
X002553Y002105D02*
X002590Y002105D01*
X002590Y002605D01*
X003112Y002569D02*
X003819Y002569D01*
X002692Y003259D02*
X001390Y003259D01*
X001450Y003357D02*
X002692Y003357D01*
X002692Y003456D02*
X001548Y003456D01*
X001754Y003554D02*
X002692Y003554D01*
X002692Y003653D02*
X001860Y003653D01*
X001900Y003751D02*
X002692Y003751D01*
X002692Y003850D02*
X001900Y003850D01*
X001864Y003948D02*
X002692Y003948D01*
X002692Y004047D02*
X001777Y004047D01*
X001453Y004047D02*
X001265Y004047D01*
X001265Y004145D02*
X002692Y004145D01*
X002692Y004244D02*
X001265Y004244D01*
X001265Y004342D02*
X002692Y004342D01*
X002692Y004441D02*
X001265Y004441D01*
X001265Y004539D02*
X002637Y004539D01*
X002740Y004805D02*
X001540Y004805D01*
X000640Y005705D01*
X001513Y006115D02*
X001697Y006115D01*
X001628Y006017D02*
X001611Y006017D01*
X001890Y005905D02*
X002290Y005505D01*
X003065Y005505D01*
X003275Y005524D02*
X003838Y005524D01*
X003937Y005426D02*
X003275Y005426D01*
X003275Y005623D02*
X003619Y005623D01*
X003537Y005721D02*
X003275Y005721D01*
X003275Y005820D02*
X003505Y005820D01*
X003508Y005918D02*
X003275Y005918D01*
X003275Y006017D02*
X003548Y006017D01*
X003673Y006115D02*
X003275Y006115D01*
X003296Y006214D02*
X003897Y006214D01*
X003886Y006312D02*
X003394Y006312D01*
X002997Y006509D02*
X001265Y006509D01*
X001265Y006411D02*
X002899Y006411D01*
X002855Y006312D02*
X001316Y006312D01*
X001414Y006214D02*
X002855Y006214D01*
X002855Y006115D02*
X002083Y006115D01*
X002152Y006017D02*
X002855Y006017D01*
X002855Y005918D02*
X002175Y005918D01*
X002258Y005820D02*
X002855Y005820D01*
X002855Y005721D02*
X002357Y005721D01*
X002140Y005205D02*
X000640Y006705D01*
X001265Y006706D02*
X003194Y006706D01*
X003096Y006608D02*
X001265Y006608D01*
X001265Y006805D02*
X004000Y006805D01*
X003894Y006903D02*
X001265Y006903D01*
X001265Y007002D02*
X003855Y007002D01*
X003812Y007100D02*
X001265Y007100D01*
X001265Y007199D02*
X003714Y007199D01*
X003615Y007297D02*
X001265Y007297D01*
X001265Y007396D02*
X003517Y007396D01*
X003418Y007494D02*
X001265Y007494D01*
X000640Y007705D02*
X003490Y007705D01*
X004140Y007055D01*
X004390Y007355D02*
X003790Y007955D01*
X001390Y007955D01*
X000640Y008705D01*
X001558Y009070D02*
X004652Y009070D01*
X004580Y008972D02*
X001656Y008972D01*
X001755Y008873D02*
X004555Y008873D01*
X004565Y008775D02*
X001853Y008775D01*
X001952Y008676D02*
X004616Y008676D01*
X004736Y008578D02*
X002050Y008578D01*
X002149Y008479D02*
X004834Y008479D01*
X004933Y008381D02*
X004197Y008381D01*
X004296Y008282D02*
X005031Y008282D01*
X005130Y008184D02*
X004394Y008184D01*
X004493Y008085D02*
X005170Y008085D01*
X005170Y007987D02*
X004591Y007987D01*
X004690Y007888D02*
X005170Y007888D01*
X005170Y007790D02*
X004909Y007790D01*
X005710Y007100D02*
X008857Y007100D01*
X009290Y007297D02*
X009365Y007297D01*
X009365Y007396D02*
X009290Y007396D01*
X009290Y007494D02*
X009365Y007494D01*
X009365Y007593D02*
X009290Y007593D01*
X009290Y007691D02*
X009365Y007691D01*
X009352Y007790D02*
X009290Y007790D01*
X009290Y007805D02*
X009290Y008255D01*
X009915Y008255D01*
X009565Y007980D02*
X009565Y005280D01*
X009565Y002105D01*
X009515Y001584D02*
X007690Y001584D01*
X003868Y001430D02*
X003868Y001417D01*
X003868Y001430D02*
X003340Y001430D01*
X003475Y001683D02*
X003547Y001683D01*
X001190Y002255D02*
X001190Y003380D01*
X001615Y003805D01*
X001366Y003948D02*
X001265Y003948D01*
X001265Y003850D02*
X001330Y003850D01*
X001278Y003751D02*
X001265Y003751D01*
X001265Y004638D02*
X001425Y004638D01*
X001326Y004736D02*
X001265Y004736D01*
X002140Y005205D02*
X002740Y005205D01*
X003275Y004736D02*
X005738Y004736D01*
X005640Y004638D02*
X003275Y004638D01*
X003275Y004539D02*
X005541Y004539D01*
X004593Y004441D02*
X003222Y004441D01*
X003124Y004342D02*
X004494Y004342D01*
X004396Y004244D02*
X003112Y004244D01*
X004090Y005555D02*
X003790Y005855D01*
X004140Y006055D02*
X004390Y005805D01*
X005852Y005805D01*
X006664Y006618D01*
X008177Y006618D01*
X006895Y006381D02*
X006069Y005555D01*
X004090Y005555D01*
X004590Y006155D02*
X005740Y006155D01*
X006465Y006880D01*
X009290Y007888D02*
X009295Y007888D01*
X009290Y008061D02*
X009290Y008255D01*
X009484Y008255D01*
X009404Y008222D01*
X009323Y008141D01*
X009290Y008061D01*
X009290Y008085D02*
X009300Y008085D01*
X009290Y008184D02*
X009365Y008184D01*
X005990Y009267D02*
X002131Y009267D01*
X002229Y009366D02*
X005990Y009366D01*
X005990Y009464D02*
X002328Y009464D01*
X002370Y009563D02*
X005990Y009563D01*
X005990Y009661D02*
X002370Y009661D01*
X002370Y009760D02*
X005990Y009760D01*
X005990Y009858D02*
X002370Y009858D01*
X002317Y009957D02*
X005990Y009957D01*
X013799Y008130D02*
X013799Y007557D01*
X013799Y004880D02*
X013799Y004307D01*
X013799Y001605D02*
X013799Y001057D01*
X001190Y002255D02*
X000640Y001705D01*
D30*
X011840Y000755D03*
X011840Y003880D03*
X011840Y007130D03*
D31*
X005440Y006705D02*
X005190Y006455D01*
X004040Y006455D01*
X003912Y006583D01*
X003368Y006583D01*
X003065Y006280D01*
X003065Y005505D01*
X003065Y004580D01*
X002902Y004417D01*
X002902Y002305D01*
X003990Y002305D01*
X004140Y002455D01*
X004440Y002455D01*
X005540Y002455D01*
X006090Y003005D01*
X004440Y002455D02*
X004440Y001855D01*
X004916Y001379D01*
X005340Y001379D01*
X002877Y002105D02*
X002902Y002305D01*
X002403Y001439D02*
X001906Y001439D01*
X002403Y001439D02*
X002503Y001339D01*
D32*
X005440Y006705D02*
X005440Y008255D01*
X004840Y008855D01*
X005440Y006705D02*
X005740Y006705D01*
M02*
