%
M48
M72
T01C0.0130
T02C0.0354
T03C0.0394
T04C0.0400
T05C0.0512
T06C0.1181
T07C0.1575
%
T01
X13540Y2150
X13565Y5425
X13565Y8675
X5340Y750
X5240Y2000
X4840Y7000
X2590Y2800
X2240Y6800
X4790Y8250
X3790Y3800
X3790Y6500
X3640Y7350
X4990Y4850
X3240Y2850
X3140Y1300
X2465Y4050
X9890Y4275
X9890Y1025
X7390Y7425
X7390Y6325
X10165Y6700
X8640Y4425
X13799Y1850
X3790Y6100
X8990Y3825
X9565Y2350
X9565Y5525
X9565Y8225
X13799Y5125
X4140Y6300
X9040Y6000
X13799Y8375
X4590Y6400
X9040Y7125
X4240Y3300
X7765Y5850
X3840Y3400
X7390Y5900
X5740Y6950
X5340Y1624
X1890Y6150
X4840Y9100
X6090Y3250
X4440Y2700
X2740Y5450
X2740Y5050
X4340Y1300
X3868Y2250
X4140Y7300
X4390Y7600
X4740Y7800
X2212Y2250
X6815Y4627
X3490Y4050
T02
X1890Y9950
T03
X8490Y9950
X8490Y950
X6790Y8250
X8490Y8250
X6790Y9950
X6790Y2650
X6790Y950
X8490Y2650
T04
X640Y950
X640Y1950
X640Y2950
X640Y3950
X640Y4950
X640Y5950
X640Y6950
X640Y7950
X640Y8950
X640Y9950
T05
X11840Y1000
X11840Y4125
X11840Y7375
T06
X18265Y2200
X18265Y5450
X18265Y8700
T07
X7640Y9100
X7640Y1800
M30
